<svg width="168" height="27" viewBox="0 0 168 27" fill="none" xmlns="http://www.w3.org/2000/svg">
<rect width="166.328" height="27" rx="13.5" fill="#FC9A63" fill-opacity="0.75"/>
<path d="M68.7457 16.512H65.6017L65.0977 18H62.9497L65.9977 9.576H68.3737L71.4217 18H69.2497L68.7457 16.512ZM68.2177 14.928L67.1737 11.844L66.1417 14.928H68.2177ZM75.5053 9.576C76.3933 9.576 77.1693 9.752 77.8333 10.104C78.4973 10.456 79.0093 10.952 79.3693 11.592C79.7373 12.224 79.9213 12.956 79.9213 13.788C79.9213 14.612 79.7373 15.344 79.3693 15.984C79.0093 16.624 78.4933 17.12 77.8213 17.472C77.1573 17.824 76.3853 18 75.5053 18H72.3493V9.576H75.5053ZM75.3733 16.224C76.1493 16.224 76.7533 16.012 77.1853 15.588C77.6173 15.164 77.8333 14.564 77.8333 13.788C77.8333 13.012 77.6173 12.408 77.1853 11.976C76.7533 11.544 76.1493 11.328 75.3733 11.328H74.4013V16.224H75.3733ZM84.2241 9.576C85.1121 9.576 85.8881 9.752 86.5521 10.104C87.2161 10.456 87.7281 10.952 88.0881 11.592C88.4561 12.224 88.6401 12.956 88.6401 13.788C88.6401 14.612 88.4561 15.344 88.0881 15.984C87.7281 16.624 87.2121 17.12 86.5401 17.472C85.8761 17.824 85.1041 18 84.2241 18H81.0681V9.576H84.2241ZM84.0921 16.224C84.8681 16.224 85.4721 16.012 85.9041 15.588C86.3361 15.164 86.5521 14.564 86.5521 13.788C86.5521 13.012 86.3361 12.408 85.9041 11.976C85.4721 11.544 84.8681 11.328 84.0921 11.328H83.1201V16.224H84.0921ZM94.3818 9.576V18H92.3298V9.576H94.3818ZM101.929 9.576V11.22H99.6969V18H97.6449V11.22H95.4129V9.576H101.929ZM105.659 9.276L105.419 15.024H103.679L103.439 9.276H105.659ZM104.579 18.096C104.219 18.096 103.923 17.992 103.691 17.784C103.467 17.568 103.355 17.304 103.355 16.992C103.355 16.672 103.467 16.404 103.691 16.188C103.923 15.972 104.219 15.864 104.579 15.864C104.931 15.864 105.219 15.972 105.443 16.188C105.675 16.404 105.791 16.672 105.791 16.992C105.791 17.304 105.675 17.568 105.443 17.784C105.219 17.992 104.931 18.096 104.579 18.096Z" fill="#333333"/>
</svg>
