<svg width="167" height="27" viewBox="0 0 167 27" fill="none" xmlns="http://www.w3.org/2000/svg">
<rect width="166.328" height="27" rx="13.5" fill="#FC9A63" fill-opacity="0.75"/>
<path d="M61.775 13.776C61.775 12.944 61.955 12.204 62.315 11.556C62.675 10.9 63.175 10.392 63.815 10.032C64.463 9.664 65.195 9.48 66.011 9.48C67.011 9.48 67.867 9.744 68.579 10.272C69.291 10.8 69.767 11.52 70.007 12.432H67.751C67.583 12.08 67.343 11.812 67.031 11.628C66.727 11.444 66.379 11.352 65.987 11.352C65.355 11.352 64.843 11.572 64.451 12.012C64.059 12.452 63.863 13.04 63.863 13.776C63.863 14.512 64.059 15.1 64.451 15.54C64.843 15.98 65.355 16.2 65.987 16.2C66.379 16.2 66.727 16.108 67.031 15.924C67.343 15.74 67.583 15.472 67.751 15.12H70.007C69.767 16.032 69.291 16.752 68.579 17.28C67.867 17.8 67.011 18.06 66.011 18.06C65.195 18.06 64.463 17.88 63.815 17.52C63.175 17.152 62.675 16.644 62.315 15.996C61.955 15.348 61.775 14.608 61.775 13.776ZM70.8556 14.64C70.8556 13.952 70.9836 13.348 71.2396 12.828C71.5036 12.308 71.8596 11.908 72.3076 11.628C72.7556 11.348 73.2556 11.208 73.8076 11.208C74.2796 11.208 74.6916 11.304 75.0436 11.496C75.4036 11.688 75.6796 11.94 75.8716 12.252V11.304H77.9236V18H75.8716V17.052C75.6716 17.364 75.3916 17.616 75.0316 17.808C74.6796 18 74.2676 18.096 73.7956 18.096C73.2516 18.096 72.7556 17.956 72.3076 17.676C71.8596 17.388 71.5036 16.984 71.2396 16.464C70.9836 15.936 70.8556 15.328 70.8556 14.64ZM75.8716 14.652C75.8716 14.14 75.7276 13.736 75.4396 13.44C75.1596 13.144 74.8156 12.996 74.4076 12.996C73.9996 12.996 73.6516 13.144 73.3636 13.44C73.0836 13.728 72.9436 14.128 72.9436 14.64C72.9436 15.152 73.0836 15.56 73.3636 15.864C73.6516 16.16 73.9996 16.308 74.4076 16.308C74.8156 16.308 75.1596 16.16 75.4396 15.864C75.7276 15.568 75.8716 15.164 75.8716 14.652ZM83.4882 11.232C84.2722 11.232 84.8962 11.488 85.3602 12C85.8322 12.504 86.0682 13.2 86.0682 14.088V18H84.0282V14.364C84.0282 13.916 83.9122 13.568 83.6802 13.32C83.4482 13.072 83.1362 12.948 82.7442 12.948C82.3522 12.948 82.0402 13.072 81.8082 13.32C81.5762 13.568 81.4602 13.916 81.4602 14.364V18H79.4082V11.304H81.4602V12.192C81.6682 11.896 81.9482 11.664 82.3002 11.496C82.6522 11.32 83.0482 11.232 83.4882 11.232ZM87.0861 14.652C87.0861 13.956 87.2261 13.348 87.5061 12.828C87.7941 12.308 88.1901 11.908 88.6941 11.628C89.2061 11.348 89.7901 11.208 90.4461 11.208C91.2861 11.208 91.9861 11.428 92.5461 11.868C93.1141 12.308 93.4861 12.928 93.6621 13.728H91.4781C91.2941 13.216 90.9381 12.96 90.4101 12.96C90.0341 12.96 89.7341 13.108 89.5101 13.404C89.2861 13.692 89.1741 14.108 89.1741 14.652C89.1741 15.196 89.2861 15.616 89.5101 15.912C89.7341 16.2 90.0341 16.344 90.4101 16.344C90.9381 16.344 91.2941 16.088 91.4781 15.576H93.6621C93.4861 16.36 93.1141 16.976 92.5461 17.424C91.9781 17.872 91.2781 18.096 90.4461 18.096C89.7901 18.096 89.2061 17.956 88.6941 17.676C88.1901 17.396 87.7941 16.996 87.5061 16.476C87.2261 15.956 87.0861 15.348 87.0861 14.652ZM101.072 14.544C101.072 14.736 101.06 14.936 101.036 15.144H96.3917C96.4237 15.56 96.5557 15.88 96.7877 16.104C97.0277 16.32 97.3197 16.428 97.6637 16.428C98.1757 16.428 98.5317 16.212 98.7317 15.78H100.916C100.804 16.22 100.6 16.616 100.304 16.968C100.016 17.32 99.6517 17.596 99.2117 17.796C98.7717 17.996 98.2797 18.096 97.7357 18.096C97.0797 18.096 96.4957 17.956 95.9837 17.676C95.4717 17.396 95.0717 16.996 94.7837 16.476C94.4957 15.956 94.3517 15.348 94.3517 14.652C94.3517 13.956 94.4917 13.348 94.7717 12.828C95.0597 12.308 95.4597 11.908 95.9717 11.628C96.4837 11.348 97.0717 11.208 97.7357 11.208C98.3837 11.208 98.9597 11.344 99.4637 11.616C99.9677 11.888 100.36 12.276 100.64 12.78C100.928 13.284 101.072 13.872 101.072 14.544ZM98.9717 14.004C98.9717 13.652 98.8517 13.372 98.6117 13.164C98.3717 12.956 98.0717 12.852 97.7117 12.852C97.3677 12.852 97.0757 12.952 96.8357 13.152C96.6037 13.352 96.4597 13.636 96.4037 14.004H98.9717ZM104.206 9.12V18H102.154V9.12H104.206Z" fill="#333333"/>
</svg>
