<svg width="416" height="121" viewBox="0 0 416 121" fill="none" xmlns="http://www.w3.org/2000/svg">
<path d="M30.104 2.496V36H23.384V21.744H9.032V36H2.312V2.496H9.032V16.272H23.384V2.496H30.104ZM61.4383 22.128C61.4383 23.088 61.3743 23.952 61.2463 24.72H41.8063C41.9663 26.64 42.6383 28.144 43.8223 29.232C45.0063 30.32 46.4623 30.864 48.1903 30.864C50.6863 30.864 52.4623 29.792 53.5183 27.648H60.7663C59.9983 30.208 58.5263 32.32 56.3503 33.984C54.1743 35.616 51.5023 36.432 48.3343 36.432C45.7743 36.432 43.4703 35.872 41.4223 34.752C39.4063 33.6 37.8223 31.984 36.6703 29.904C35.5503 27.824 34.9902 25.424 34.9902 22.704C34.9902 19.952 35.5503 17.536 36.6703 15.456C37.7903 13.376 39.3583 11.776 41.3743 10.656C43.3903 9.536 45.7103 8.976 48.3343 8.976C50.8623 8.976 53.1183 9.52 55.1023 10.608C57.1183 11.696 58.6703 13.248 59.7583 15.264C60.8783 17.248 61.4383 19.536 61.4383 22.128ZM54.4783 20.208C54.4463 18.48 53.8223 17.104 52.6063 16.08C51.3903 15.024 49.9023 14.496 48.1423 14.496C46.4783 14.496 45.0703 15.008 43.9183 16.032C42.7983 17.024 42.1103 18.416 41.8543 20.208H54.4783ZM73.0633 13.536C73.9273 12.128 75.0473 11.024 76.4233 10.224C77.8313 9.424 79.4313 9.024 81.2233 9.024V16.08H79.4473C77.3353 16.08 75.7353 16.576 74.6473 17.568C73.5913 18.56 73.0633 20.288 73.0633 22.752V36H66.3433V9.408H73.0633V13.536ZM110.47 22.128C110.47 23.088 110.406 23.952 110.278 24.72H90.8375C90.9975 26.64 91.6695 28.144 92.8535 29.232C94.0375 30.32 95.4935 30.864 97.2215 30.864C99.7175 30.864 101.494 29.792 102.55 27.648H109.798C109.03 30.208 107.558 32.32 105.382 33.984C103.206 35.616 100.534 36.432 97.3655 36.432C94.8055 36.432 92.5015 35.872 90.4535 34.752C88.4375 33.6 86.8535 31.984 85.7015 29.904C84.5815 27.824 84.0215 25.424 84.0215 22.704C84.0215 19.952 84.5815 17.536 85.7015 15.456C86.8215 13.376 88.3895 11.776 90.4055 10.656C92.4215 9.536 94.7415 8.976 97.3655 8.976C99.8935 8.976 102.15 9.52 104.134 10.608C106.15 11.696 107.702 13.248 108.79 15.264C109.91 17.248 110.47 19.536 110.47 22.128ZM103.51 20.208C103.478 18.48 102.854 17.104 101.638 16.08C100.422 15.024 98.9335 14.496 97.1735 14.496C95.5095 14.496 94.1015 15.008 92.9495 16.032C91.8295 17.024 91.1415 18.416 90.8855 20.208H103.51ZM125.084 22.608C125.084 19.92 125.612 17.536 126.668 15.456C127.756 13.376 129.212 11.776 131.036 10.656C132.892 9.536 134.956 8.976 137.228 8.976C139.212 8.976 140.94 9.376 142.412 10.176C143.916 10.976 145.116 11.984 146.012 13.2V9.408H152.78V36H146.012V32.112C145.148 33.36 143.948 34.4 142.412 35.232C140.908 36.032 139.164 36.432 137.18 36.432C134.94 36.432 132.892 35.856 131.036 34.704C129.212 33.552 127.756 31.936 126.668 29.856C125.612 27.744 125.084 25.328 125.084 22.608ZM146.012 22.704C146.012 21.072 145.692 19.68 145.052 18.528C144.412 17.344 143.548 16.448 142.46 15.84C141.372 15.2 140.204 14.88 138.956 14.88C137.708 14.88 136.556 15.184 135.5 15.792C134.444 16.4 133.58 17.296 132.908 18.48C132.268 19.632 131.948 21.008 131.948 22.608C131.948 24.208 132.268 25.616 132.908 26.832C133.58 28.016 134.444 28.928 135.5 29.568C136.588 30.208 137.74 30.528 138.956 30.528C140.204 30.528 141.372 30.224 142.46 29.616C143.548 28.976 144.412 28.08 145.052 26.928C145.692 25.744 146.012 24.336 146.012 22.704ZM166.063 13.536C166.927 12.128 168.047 11.024 169.423 10.224C170.831 9.424 172.431 9.024 174.223 9.024V16.08H172.447C170.335 16.08 168.735 16.576 167.647 17.568C166.591 18.56 166.063 20.288 166.063 22.752V36H159.343V9.408H166.063V13.536ZM203.47 22.128C203.47 23.088 203.406 23.952 203.278 24.72H183.838C183.998 26.64 184.67 28.144 185.854 29.232C187.038 30.32 188.494 30.864 190.222 30.864C192.718 30.864 194.494 29.792 195.55 27.648H202.798C202.03 30.208 200.558 32.32 198.382 33.984C196.206 35.616 193.534 36.432 190.366 36.432C187.806 36.432 185.502 35.872 183.454 34.752C181.438 33.6 179.854 31.984 178.702 29.904C177.582 27.824 177.021 25.424 177.021 22.704C177.021 19.952 177.582 17.536 178.702 15.456C179.822 13.376 181.39 11.776 183.406 10.656C185.422 9.536 187.742 8.976 190.366 8.976C192.894 8.976 195.15 9.52 197.134 10.608C199.15 11.696 200.702 13.248 201.79 15.264C202.91 17.248 203.47 19.536 203.47 22.128ZM196.51 20.208C196.478 18.48 195.854 17.104 194.638 16.08C193.422 15.024 191.934 14.496 190.174 14.496C188.51 14.496 187.102 15.008 185.95 16.032C184.83 17.024 184.142 18.416 183.886 20.208H196.51ZM218.084 22.608C218.084 19.92 218.612 17.536 219.668 15.456C220.756 13.376 222.212 11.776 224.036 10.656C225.892 9.536 227.956 8.976 230.228 8.976C232.212 8.976 233.94 9.376 235.412 10.176C236.916 10.976 238.116 11.984 239.012 13.2V9.408H245.78V36H239.012V32.112C238.148 33.36 236.948 34.4 235.412 35.232C233.908 36.032 232.164 36.432 230.18 36.432C227.94 36.432 225.892 35.856 224.036 34.704C222.212 33.552 220.756 31.936 219.668 29.856C218.612 27.744 218.084 25.328 218.084 22.608ZM239.012 22.704C239.012 21.072 238.692 19.68 238.052 18.528C237.412 17.344 236.548 16.448 235.46 15.84C234.372 15.2 233.204 14.88 231.956 14.88C230.708 14.88 229.556 15.184 228.5 15.792C227.444 16.4 226.58 17.296 225.908 18.48C225.268 19.632 224.948 21.008 224.948 22.608C224.948 24.208 225.268 25.616 225.908 26.832C226.58 28.016 227.444 28.928 228.5 29.568C229.588 30.208 230.74 30.528 231.956 30.528C233.204 30.528 234.372 30.224 235.46 29.616C236.548 28.976 237.412 28.08 238.052 26.928C238.692 25.744 239.012 24.336 239.012 22.704ZM259.063 0.48V36H252.343V0.48H259.063ZM272.423 0.48V36H265.703V0.48H272.423ZM298.324 14.928V27.792C298.324 28.688 298.532 29.344 298.948 29.76C299.396 30.144 300.132 30.336 301.156 30.336H304.276V36H300.052C294.388 36 291.556 33.248 291.556 27.744V14.928H288.388V9.408H291.556V2.832H298.324V9.408H304.276V14.928H298.324ZM324.085 9.024C326.101 9.024 327.893 9.472 329.461 10.368C331.029 11.232 332.245 12.528 333.109 14.256C334.005 15.952 334.453 18 334.453 20.4V36H327.733V21.312C327.733 19.2 327.205 17.584 326.149 16.464C325.093 15.312 323.653 14.736 321.829 14.736C319.973 14.736 318.501 15.312 317.413 16.464C316.357 17.584 315.829 19.2 315.829 21.312V36H309.109V0.48H315.829V12.72C316.693 11.568 317.845 10.672 319.285 10.032C320.725 9.36 322.325 9.024 324.085 9.024ZM365.563 22.128C365.563 23.088 365.499 23.952 365.371 24.72H345.931C346.091 26.64 346.763 28.144 347.947 29.232C349.131 30.32 350.587 30.864 352.315 30.864C354.811 30.864 356.587 29.792 357.643 27.648H364.891C364.123 30.208 362.651 32.32 360.475 33.984C358.299 35.616 355.627 36.432 352.459 36.432C349.899 36.432 347.595 35.872 345.547 34.752C343.531 33.6 341.947 31.984 340.795 29.904C339.675 27.824 339.115 25.424 339.115 22.704C339.115 19.952 339.675 17.536 340.795 15.456C341.915 13.376 343.483 11.776 345.499 10.656C347.515 9.536 349.835 8.976 352.459 8.976C354.987 8.976 357.243 9.52 359.227 10.608C361.243 11.696 362.795 13.248 363.883 15.264C365.003 17.248 365.563 19.536 365.563 22.128ZM358.603 20.208C358.571 18.48 357.947 17.104 356.731 16.08C355.515 15.024 354.027 14.496 352.267 14.496C350.603 14.496 349.195 15.008 348.043 16.032C346.923 17.024 346.235 18.416 345.979 20.208H358.603ZM0.584 94.608C0.584 91.92 1.112 89.536 2.168 87.456C3.256 85.376 4.728 83.776 6.584 82.656C8.44 81.536 10.504 80.976 12.776 80.976C14.504 80.976 16.152 81.36 17.72 82.128C19.288 82.864 20.536 83.856 21.464 85.104V72.48H28.28V108H21.464V104.064C20.632 105.376 19.464 106.432 17.96 107.232C16.456 108.032 14.712 108.432 12.728 108.432C10.488 108.432 8.44 107.856 6.584 106.704C4.728 105.552 3.256 103.936 2.168 101.856C1.112 99.744 0.584 97.328 0.584 94.608ZM21.512 94.704C21.512 93.072 21.192 91.68 20.552 90.528C19.912 89.344 19.048 88.448 17.96 87.84C16.872 87.2 15.704 86.88 14.456 86.88C13.208 86.88 12.056 87.184 11 87.792C9.944 88.4 9.08 89.296 8.408 90.48C7.768 91.632 7.448 93.008 7.448 94.608C7.448 96.208 7.768 97.616 8.408 98.832C9.08 100.016 9.944 100.928 11 101.568C12.088 102.208 13.24 102.528 14.456 102.528C15.704 102.528 16.872 102.224 17.96 101.616C19.048 100.976 19.912 100.08 20.552 98.928C21.192 97.744 21.512 96.336 21.512 94.704ZM59.5633 94.128C59.5633 95.088 59.4993 95.952 59.3713 96.72H39.9313C40.0913 98.64 40.7633 100.144 41.9473 101.232C43.1313 102.32 44.5873 102.864 46.3153 102.864C48.8113 102.864 50.5873 101.792 51.6433 99.648H58.8913C58.1233 102.208 56.6513 104.32 54.4753 105.984C52.2993 107.616 49.6273 108.432 46.4593 108.432C43.8993 108.432 41.5953 107.872 39.5473 106.752C37.5313 105.6 35.9473 103.984 34.7953 101.904C33.6753 99.824 33.1152 97.424 33.1152 94.704C33.1152 91.952 33.6753 89.536 34.7953 87.456C35.9153 85.376 37.4833 83.776 39.4993 82.656C41.5153 81.536 43.8353 80.976 46.4593 80.976C48.9873 80.976 51.2433 81.52 53.2273 82.608C55.2433 83.696 56.7953 85.248 57.8833 87.264C59.0033 89.248 59.5633 91.536 59.5633 94.128ZM52.6033 92.208C52.5713 90.48 51.9473 89.104 50.7313 88.08C49.5153 87.024 48.0273 86.496 46.2673 86.496C44.6033 86.496 43.1953 87.008 42.0433 88.032C40.9233 89.024 40.2353 90.416 39.9793 92.208H52.6033ZM75.5563 101.808L82.2763 81.408H89.4283L79.5883 108H71.4283L61.6363 81.408H68.8363L75.5563 101.808ZM96.6106 78.24C95.4266 78.24 94.4346 77.872 93.6346 77.136C92.8666 76.368 92.4826 75.424 92.4826 74.304C92.4826 73.184 92.8666 72.256 93.6346 71.52C94.4346 70.752 95.4266 70.368 96.6106 70.368C97.7946 70.368 98.7706 70.752 99.5386 71.52C100.339 72.256 100.739 73.184 100.739 74.304C100.739 75.424 100.339 76.368 99.5386 77.136C98.7706 77.872 97.7946 78.24 96.6106 78.24ZM99.9226 81.408V108H93.2026V81.408H99.9226ZM104.834 94.704C104.834 91.952 105.394 89.552 106.514 87.504C107.634 85.424 109.186 83.824 111.17 82.704C113.154 81.552 115.426 80.976 117.986 80.976C121.282 80.976 124.002 81.808 126.146 83.472C128.322 85.104 129.778 87.408 130.514 90.384H123.266C122.882 89.232 122.226 88.336 121.298 87.696C120.402 87.024 119.282 86.688 117.938 86.688C116.018 86.688 114.498 87.392 113.378 88.8C112.258 90.176 111.698 92.144 111.698 94.704C111.698 97.232 112.258 99.2 113.378 100.608C114.498 101.984 116.018 102.672 117.938 102.672C120.658 102.672 122.434 101.456 123.266 99.024H130.514C129.778 101.904 128.322 104.192 126.146 105.888C123.97 107.584 121.25 108.432 117.986 108.432C115.426 108.432 113.154 107.872 111.17 106.752C109.186 105.6 107.634 104 106.514 101.952C105.394 99.872 104.834 97.456 104.834 94.704ZM160.157 94.128C160.157 95.088 160.093 95.952 159.965 96.72H140.525C140.685 98.64 141.357 100.144 142.541 101.232C143.725 102.32 145.181 102.864 146.909 102.864C149.405 102.864 151.181 101.792 152.237 99.648H159.485C158.717 102.208 157.245 104.32 155.069 105.984C152.893 107.616 150.221 108.432 147.053 108.432C144.493 108.432 142.189 107.872 140.141 106.752C138.125 105.6 136.541 103.984 135.389 101.904C134.269 99.824 133.709 97.424 133.709 94.704C133.709 91.952 134.269 89.536 135.389 87.456C136.509 85.376 138.077 83.776 140.093 82.656C142.109 81.536 144.429 80.976 147.053 80.976C149.581 80.976 151.837 81.52 153.821 82.608C155.837 83.696 157.389 85.248 158.477 87.264C159.597 89.248 160.157 91.536 160.157 94.128ZM153.197 92.208C153.165 90.48 152.541 89.104 151.325 88.08C150.109 87.024 148.621 86.496 146.861 86.496C145.197 86.496 143.789 87.008 142.637 88.032C141.517 89.024 140.829 90.416 140.573 92.208H153.197ZM175.238 108.432C173.062 108.432 171.11 108.048 169.382 107.28C167.654 106.48 166.278 105.408 165.254 104.064C164.262 102.72 163.718 101.232 163.622 99.6H170.39C170.518 100.624 171.014 101.472 171.878 102.144C172.774 102.816 173.878 103.152 175.19 103.152C176.47 103.152 177.462 102.896 178.166 102.384C178.902 101.872 179.27 101.216 179.27 100.416C179.27 99.552 178.822 98.912 177.926 98.496C177.062 98.048 175.67 97.568 173.75 97.056C171.766 96.576 170.134 96.08 168.854 95.568C167.606 95.056 166.518 94.272 165.59 93.216C164.694 92.16 164.246 90.736 164.246 88.944C164.246 87.472 164.662 86.128 165.494 84.912C166.358 83.696 167.574 82.736 169.142 82.032C170.742 81.328 172.614 80.976 174.758 80.976C177.926 80.976 180.454 81.776 182.342 83.376C184.23 84.944 185.27 87.072 185.462 89.76H179.03C178.934 88.704 178.486 87.872 177.686 87.264C176.918 86.624 175.878 86.304 174.566 86.304C173.35 86.304 172.406 86.528 171.734 86.976C171.094 87.424 170.774 88.048 170.774 88.848C170.774 89.744 171.222 90.432 172.118 90.912C173.014 91.36 174.406 91.824 176.294 92.304C178.214 92.784 179.798 93.28 181.046 93.792C182.294 94.304 183.366 95.104 184.262 96.192C185.19 97.248 185.67 98.656 185.702 100.416C185.702 101.952 185.27 103.328 184.406 104.544C183.574 105.76 182.358 106.72 180.758 107.424C179.19 108.096 177.35 108.432 175.238 108.432ZM228.096 81.408L211.632 120.576H204.48L210.24 107.328L199.584 81.408H207.12L213.984 99.984L220.944 81.408H228.096ZM243.526 108.432C240.966 108.432 238.662 107.872 236.614 106.752C234.566 105.6 232.95 103.984 231.766 101.904C230.614 99.824 230.038 97.424 230.038 94.704C230.038 91.984 230.63 89.584 231.814 87.504C233.03 85.424 234.678 83.824 236.758 82.704C238.838 81.552 241.158 80.976 243.718 80.976C246.278 80.976 248.598 81.552 250.678 82.704C252.758 83.824 254.39 85.424 255.574 87.504C256.79 89.584 257.398 91.984 257.398 94.704C257.398 97.424 256.774 99.824 255.526 101.904C254.31 103.984 252.646 105.6 250.534 106.752C248.454 107.872 246.118 108.432 243.526 108.432ZM243.526 102.576C244.742 102.576 245.878 102.288 246.934 101.712C248.022 101.104 248.886 100.208 249.526 99.024C250.166 97.84 250.486 96.4 250.486 94.704C250.486 92.176 249.814 90.24 248.47 88.896C247.158 87.52 245.542 86.832 243.622 86.832C241.702 86.832 240.086 87.52 238.774 88.896C237.494 90.24 236.854 92.176 236.854 94.704C236.854 97.232 237.478 99.184 238.726 100.56C240.006 101.904 241.606 102.576 243.526 102.576ZM287.432 81.408V108H280.664V104.64C279.8 105.792 278.664 106.704 277.256 107.376C275.88 108.016 274.376 108.336 272.744 108.336C270.664 108.336 268.824 107.904 267.224 107.04C265.624 106.144 264.36 104.848 263.432 103.152C262.536 101.424 262.088 99.376 262.088 97.008V81.408H268.808V96.048C268.808 98.16 269.336 99.792 270.392 100.944C271.448 102.064 272.888 102.624 274.712 102.624C276.568 102.624 278.024 102.064 279.08 100.944C280.136 99.792 280.664 98.16 280.664 96.048V81.408H287.432ZM317.308 108.432C314.748 108.432 312.444 107.872 310.396 106.752C308.348 105.6 306.732 103.984 305.548 101.904C304.396 99.824 303.82 97.424 303.82 94.704C303.82 91.984 304.412 89.584 305.596 87.504C306.812 85.424 308.46 83.824 310.54 82.704C312.62 81.552 314.94 80.976 317.5 80.976C320.06 80.976 322.38 81.552 324.46 82.704C326.54 83.824 328.172 85.424 329.356 87.504C330.572 89.584 331.18 91.984 331.18 94.704C331.18 97.424 330.556 99.824 329.307 101.904C328.092 103.984 326.428 105.6 324.316 106.752C322.236 107.872 319.9 108.432 317.308 108.432ZM317.308 102.576C318.524 102.576 319.66 102.288 320.716 101.712C321.804 101.104 322.668 100.208 323.308 99.024C323.948 97.84 324.268 96.4 324.268 94.704C324.268 92.176 323.596 90.24 322.252 88.896C320.94 87.52 319.324 86.832 317.404 86.832C315.484 86.832 313.868 87.52 312.556 88.896C311.276 90.24 310.636 92.176 310.636 94.704C310.636 97.232 311.26 99.184 312.508 100.56C313.788 101.904 315.388 102.576 317.308 102.576ZM372.973 81.408L365.197 108H357.949L353.101 89.424L348.253 108H340.957L333.133 81.408H339.949L344.653 101.664L349.741 81.408H356.845L361.837 101.616L366.541 81.408H372.973ZM391.345 81.024C394.513 81.024 397.073 82.032 399.025 84.048C400.977 86.032 401.953 88.816 401.953 92.4V108H395.233V93.312C395.233 91.2 394.705 89.584 393.649 88.464C392.593 87.312 391.153 86.736 389.329 86.736C387.473 86.736 386.001 87.312 384.913 88.464C383.857 89.584 383.329 91.2 383.329 93.312V108H376.609V81.408H383.329V84.72C384.225 83.568 385.361 82.672 386.737 82.032C388.145 81.36 389.681 81.024 391.345 81.024ZM411.319 108.336C410.103 108.336 409.095 107.968 408.295 107.232C407.527 106.464 407.143 105.52 407.143 104.4C407.143 103.28 407.527 102.352 408.295 101.616C409.095 100.848 410.103 100.464 411.319 100.464C412.503 100.464 413.479 100.848 414.247 101.616C415.015 102.352 415.399 103.28 415.399 104.4C415.399 105.52 415.015 106.464 414.247 107.232C413.479 107.968 412.503 108.336 411.319 108.336ZM411.319 88.464C410.103 88.464 409.095 88.096 408.295 87.36C407.527 86.592 407.143 85.648 407.143 84.528C407.143 83.408 407.527 82.48 408.295 81.744C409.095 80.976 410.103 80.592 411.319 80.592C412.503 80.592 413.479 80.976 414.247 81.744C415.015 82.48 415.399 83.408 415.399 84.528C415.399 85.648 415.015 86.592 414.247 87.36C413.479 88.096 412.503 88.464 411.319 88.464Z" fill="black"/>
</svg>
