<svg width="100" height="15" viewBox="0 0 100 15" fill="none" xmlns="http://www.w3.org/2000/svg">
<path d="M10.1105 1.45458V11.1426H8.83652V3.91858L5.61652 11.1426H4.72052L1.48652 3.90458V11.1426H0.212522V1.45458H1.58452L5.16852 9.46258L8.75252 1.45458H10.1105ZM18.8791 3.47058L14.2591 14.7546H12.9431L14.4551 11.0586L11.3611 3.47058H12.7751L15.1831 9.68658L17.5631 3.47058H18.8791ZM27.0562 3.34458C27.7189 3.34458 28.2975 3.48924 28.7922 3.77858C29.2962 4.06791 29.6695 4.43191 29.9122 4.87058V3.47058H31.2002V11.3106C31.2002 12.0106 31.0509 12.6312 30.7522 13.1726C30.4535 13.7232 30.0242 14.1526 29.4642 14.4606C28.9135 14.7686 28.2695 14.9226 27.5322 14.9226C26.5242 14.9226 25.6842 14.6846 25.0122 14.2086C24.3402 13.7326 23.9435 13.0839 23.8222 12.2626H25.0822C25.2222 12.7292 25.5115 13.1026 25.9502 13.3826C26.3889 13.6719 26.9162 13.8166 27.5322 13.8166C28.2322 13.8166 28.8015 13.5972 29.2402 13.1586C29.6882 12.7199 29.9122 12.1039 29.9122 11.3106V9.70058C29.6602 10.1486 29.2869 10.5219 28.7922 10.8206C28.2975 11.1192 27.7189 11.2686 27.0562 11.2686C26.3749 11.2686 25.7542 11.1006 25.1942 10.7646C24.6435 10.4286 24.2095 9.95724 23.8922 9.35058C23.5749 8.74391 23.4162 8.05324 23.4162 7.27858C23.4162 6.49458 23.5749 5.80858 23.8922 5.22058C24.2095 4.62324 24.6435 4.16124 25.1942 3.83458C25.7542 3.50791 26.3749 3.34458 27.0562 3.34458ZM29.9122 7.29258C29.9122 6.71391 29.7955 6.20991 29.5622 5.78058C29.3289 5.35124 29.0115 5.02458 28.6102 4.80058C28.2182 4.56724 27.7842 4.45058 27.3082 4.45058C26.8322 4.45058 26.3982 4.56258 26.0062 4.78658C25.6142 5.01058 25.3015 5.33724 25.0682 5.76658C24.8349 6.19591 24.7182 6.69991 24.7182 7.27858C24.7182 7.86658 24.8349 8.37991 25.0682 8.81858C25.3015 9.24791 25.6142 9.57924 26.0062 9.81258C26.3982 10.0366 26.8322 10.1486 27.3082 10.1486C27.7842 10.1486 28.2182 10.0366 28.6102 9.81258C29.0115 9.57924 29.3289 9.24791 29.5622 8.81858C29.7955 8.37991 29.9122 7.87124 29.9122 7.29258ZM34.6271 4.71658C34.8511 4.27791 35.1685 3.93724 35.5791 3.69458C35.9991 3.45191 36.5078 3.33058 37.1051 3.33058V4.64658H36.7691C35.3411 4.64658 34.6271 5.42124 34.6271 6.97058V11.1426H33.3531V3.47058H34.6271V4.71658ZM41.9218 11.2686C41.2031 11.2686 40.5498 11.1052 39.9618 10.7786C39.3831 10.4519 38.9258 9.98991 38.5898 9.39258C38.2631 8.78591 38.0998 8.08591 38.0998 7.29258C38.0998 6.50858 38.2678 5.81791 38.6038 5.22058C38.9491 4.61391 39.4158 4.15191 40.0038 3.83458C40.5918 3.50791 41.2498 3.34458 41.9778 3.34458C42.7058 3.34458 43.3638 3.50791 43.9518 3.83458C44.5398 4.15191 45.0018 4.60924 45.3378 5.20658C45.6831 5.80391 45.8558 6.49924 45.8558 7.29258C45.8558 8.08591 45.6785 8.78591 45.3238 9.39258C44.9785 9.98991 44.5071 10.4519 43.9098 10.7786C43.3125 11.1052 42.6498 11.2686 41.9218 11.2686ZM41.9218 10.1486C42.3791 10.1486 42.8085 10.0412 43.2098 9.82658C43.6111 9.61191 43.9331 9.28991 44.1758 8.86058C44.4278 8.43124 44.5538 7.90858 44.5538 7.29258C44.5538 6.67658 44.4325 6.15391 44.1898 5.72458C43.9471 5.29524 43.6298 4.97791 43.2378 4.77258C42.8458 4.55791 42.4211 4.45058 41.9638 4.45058C41.4971 4.45058 41.0678 4.55791 40.6758 4.77258C40.2931 4.97791 39.9851 5.29524 39.7518 5.72458C39.5185 6.15391 39.4018 6.67658 39.4018 7.29258C39.4018 7.91791 39.5138 8.44524 39.7378 8.87458C39.9711 9.30391 40.2791 9.62591 40.6618 9.84058C41.0445 10.0459 41.4645 10.1486 41.9218 10.1486ZM47.0549 7.29258C47.0549 6.49924 47.2135 5.80858 47.5309 5.22058C47.8482 4.62324 48.2869 4.16124 48.8469 3.83458C49.4162 3.50791 50.0649 3.34458 50.7929 3.34458C51.7355 3.34458 52.5102 3.57324 53.1169 4.03058C53.7329 4.48791 54.1389 5.12258 54.3349 5.93458H52.9629C52.8322 5.46791 52.5755 5.09924 52.1929 4.82858C51.8195 4.55791 51.3529 4.42258 50.7929 4.42258C50.0649 4.42258 49.4769 4.67458 49.0289 5.17858C48.5809 5.67324 48.3569 6.37791 48.3569 7.29258C48.3569 8.21658 48.5809 8.93058 49.0289 9.43458C49.4769 9.93858 50.0649 10.1906 50.7929 10.1906C51.3529 10.1906 51.8195 10.0599 52.1929 9.79858C52.5662 9.53724 52.8229 9.16391 52.9629 8.67858H54.3349C54.1295 9.46258 53.7189 10.0926 53.1029 10.5686C52.4869 11.0352 51.7169 11.2686 50.7929 11.2686C50.0649 11.2686 49.4162 11.1052 48.8469 10.7786C48.2869 10.4519 47.8482 9.98991 47.5309 9.39258C47.2135 8.79524 47.0549 8.09524 47.0549 7.29258ZM63.0348 7.01258C63.0348 7.25524 63.0208 7.51191 62.9928 7.78258H56.8608C56.9075 8.53858 57.1641 9.13124 57.6308 9.56058C58.1068 9.98058 58.6808 10.1906 59.3528 10.1906C59.9035 10.1906 60.3608 10.0646 60.7248 9.81258C61.0981 9.55124 61.3595 9.20591 61.5088 8.77658H62.8808C62.6755 9.51391 62.2648 10.1159 61.6488 10.5826C61.0328 11.0399 60.2675 11.2686 59.3528 11.2686C58.6248 11.2686 57.9715 11.1052 57.3928 10.7786C56.8235 10.4519 56.3755 9.98991 56.0488 9.39258C55.7221 8.78591 55.5588 8.08591 55.5588 7.29258C55.5588 6.49924 55.7175 5.80391 56.0348 5.20658C56.3521 4.60924 56.7955 4.15191 57.3648 3.83458C57.9435 3.50791 58.6061 3.34458 59.3528 3.34458C60.0808 3.34458 60.7248 3.50324 61.2848 3.82058C61.8448 4.13791 62.2741 4.57658 62.5728 5.13658C62.8808 5.68724 63.0348 6.31258 63.0348 7.01258ZM61.7188 6.74658C61.7188 6.26124 61.6115 5.84591 61.3968 5.50058C61.1821 5.14591 60.8881 4.87991 60.5148 4.70258C60.1508 4.51591 59.7448 4.42258 59.2968 4.42258C58.6528 4.42258 58.1021 4.62791 57.6448 5.03858C57.1968 5.44924 56.9401 6.01858 56.8748 6.74658H61.7188ZM65.9904 4.71658C66.2144 4.27791 66.5318 3.93724 66.9424 3.69458C67.3624 3.45191 67.8711 3.33058 68.4684 3.33058V4.64658H68.1324C66.7044 4.64658 65.9904 5.42124 65.9904 6.97058V11.1426H64.7164V3.47058H65.9904V4.71658ZM76.5471 3.47058L71.9271 14.7546H70.6111L72.1231 11.0586L69.0291 3.47058H70.4431L72.8511 9.68658L75.2311 3.47058H76.5471ZM82.8342 0.782578V11.1426H81.5602V0.782578H82.8342ZM85.6635 2.22458C85.4208 2.22458 85.2155 2.14058 85.0475 1.97258C84.8795 1.80458 84.7955 1.59924 84.7955 1.35658C84.7955 1.11391 84.8795 0.908578 85.0475 0.740578C85.2155 0.572578 85.4208 0.488578 85.6635 0.488578C85.8968 0.488578 86.0928 0.572578 86.2515 0.740578C86.4195 0.908578 86.5035 1.11391 86.5035 1.35658C86.5035 1.59924 86.4195 1.80458 86.2515 1.97258C86.0928 2.14058 85.8968 2.22458 85.6635 2.22458ZM86.2795 3.47058V11.1426H85.0055V3.47058H86.2795ZM91.1668 11.2686C90.5788 11.2686 90.0515 11.1706 89.5848 10.9746C89.1181 10.7692 88.7495 10.4892 88.4788 10.1346C88.2081 9.77058 88.0588 9.35524 88.0308 8.88858H89.3468C89.3841 9.27124 89.5615 9.58391 89.8788 9.82658C90.2055 10.0692 90.6301 10.1906 91.1528 10.1906C91.6381 10.1906 92.0208 10.0832 92.3008 9.86858C92.5808 9.65391 92.7208 9.38324 92.7208 9.05658C92.7208 8.72058 92.5715 8.47324 92.2728 8.31458C91.9741 8.14658 91.5121 7.98324 90.8868 7.82458C90.3175 7.67524 89.8508 7.52591 89.4868 7.37658C89.1321 7.21791 88.8241 6.98924 88.5628 6.69058C88.3108 6.38258 88.1848 5.98124 88.1848 5.48658C88.1848 5.09458 88.3015 4.73524 88.5348 4.40858C88.7681 4.08191 89.0995 3.82524 89.5288 3.63858C89.9581 3.44258 90.4481 3.34458 90.9988 3.34458C91.8481 3.34458 92.5341 3.55924 93.0568 3.98858C93.5795 4.41791 93.8595 5.00591 93.8968 5.75258H92.6228C92.5948 5.35124 92.4315 5.02924 92.1328 4.78658C91.8435 4.54391 91.4515 4.42258 90.9568 4.42258C90.4995 4.42258 90.1355 4.52058 89.8648 4.71658C89.5941 4.91258 89.4588 5.16924 89.4588 5.48658C89.4588 5.73858 89.5381 5.94858 89.6968 6.11658C89.8648 6.27524 90.0701 6.40591 90.3128 6.50858C90.5648 6.60191 90.9101 6.70924 91.3488 6.83058C91.8995 6.97991 92.3475 7.12924 92.6928 7.27858C93.0381 7.41858 93.3321 7.63324 93.5748 7.92258C93.8268 8.21191 93.9575 8.58991 93.9668 9.05658C93.9668 9.47658 93.8501 9.85458 93.6168 10.1906C93.3835 10.5266 93.0521 10.7926 92.6228 10.9886C92.2028 11.1752 91.7175 11.2686 91.1668 11.2686ZM97.3193 4.52058V9.04258C97.3193 9.41591 97.3986 9.68191 97.5573 9.84058C97.7159 9.98991 97.9913 10.0646 98.3833 10.0646H99.3213V11.1426H98.1733C97.4639 11.1426 96.9319 10.9792 96.5773 10.6526C96.2226 10.3259 96.0453 9.78924 96.0453 9.04258V4.52058H95.0513V3.47058H96.0453V1.53858H97.3193V3.47058H99.3213V4.52058H97.3193Z" fill="black"/>
</svg>
