<svg width="88" height="14" viewBox="0 0 88 14" fill="none" xmlns="http://www.w3.org/2000/svg">
<path d="M10.1105 0.454578V10.1426H8.83652V2.91858L5.61652 10.1426H4.72052L1.48652 2.90458V10.1426H0.212522V0.454578H1.58452L5.16852 8.46258L8.75252 0.454578H10.1105ZM18.8791 2.47058L14.2591 13.7546H12.9431L14.4551 10.0586L11.3611 2.47058H12.7751L15.1831 8.68658L17.5631 2.47058H18.8791ZM25.1662 0.384578V10.1426H23.8922V0.384578H25.1662ZM31.0755 2.33058C32.0089 2.33058 32.7649 2.61524 33.3435 3.18458C33.9222 3.74458 34.2115 4.55658 34.2115 5.62058V10.1426H32.9515V5.80258C32.9515 5.03724 32.7602 4.45391 32.3775 4.05258C31.9949 3.64191 31.4722 3.43658 30.8095 3.43658C30.1375 3.43658 29.6009 3.64658 29.1995 4.06658C28.8075 4.48658 28.6115 5.09791 28.6115 5.90058V10.1426H27.3375V2.47058H28.6115V3.56258C28.8635 3.17058 29.2042 2.86724 29.6335 2.65258C30.0722 2.43791 30.5529 2.33058 31.0755 2.33058ZM39.1486 8.96658L41.5286 2.47058H42.8866L39.8766 10.1426H38.3926L35.3826 2.47058H36.7546L39.1486 8.96658ZM51.1403 6.01258C51.1403 6.25524 51.1263 6.51191 51.0983 6.78258H44.9663C45.0129 7.53858 45.2696 8.13124 45.7363 8.56058C46.2123 8.98058 46.7863 9.19058 47.4583 9.19058C48.0089 9.19058 48.4663 9.06458 48.8303 8.81258C49.2036 8.55124 49.4649 8.20591 49.6143 7.77658H50.9863C50.7809 8.51391 50.3703 9.11591 49.7543 9.58258C49.1383 10.0399 48.3729 10.2686 47.4583 10.2686C46.7303 10.2686 46.0769 10.1052 45.4983 9.77858C44.9289 9.45191 44.4809 8.98991 44.1543 8.39258C43.8276 7.78591 43.6643 7.08591 43.6643 6.29258C43.6643 5.49924 43.8229 4.80391 44.1403 4.20658C44.4576 3.60924 44.9009 3.15191 45.4703 2.83458C46.0489 2.50791 46.7116 2.34458 47.4583 2.34458C48.1863 2.34458 48.8303 2.50324 49.3903 2.82058C49.9503 3.13791 50.3796 3.57658 50.6783 4.13658C50.9863 4.68724 51.1403 5.31258 51.1403 6.01258ZM49.8243 5.74658C49.8243 5.26124 49.7169 4.84591 49.5023 4.50058C49.2876 4.14591 48.9936 3.87991 48.6203 3.70258C48.2563 3.51591 47.8503 3.42258 47.4023 3.42258C46.7583 3.42258 46.2076 3.62791 45.7503 4.03858C45.3023 4.44924 45.0456 5.01858 44.9803 5.74658H49.8243ZM56.5599 2.33058C57.4932 2.33058 58.2492 2.61524 58.8279 3.18458C59.4066 3.74458 59.6959 4.55658 59.6959 5.62058V10.1426H58.4359V5.80258C58.4359 5.03724 58.2446 4.45391 57.8619 4.05258C57.4792 3.64191 56.9566 3.43658 56.2939 3.43658C55.6219 3.43658 55.0852 3.64658 54.6839 4.06658C54.2919 4.48658 54.0959 5.09791 54.0959 5.90058V10.1426H52.8219V2.47058H54.0959V3.56258C54.3479 3.17058 54.6886 2.86724 55.1179 2.65258C55.5566 2.43791 56.0372 2.33058 56.5599 2.33058ZM63.331 3.52058V8.04258C63.331 8.41591 63.4103 8.68191 63.569 8.84058C63.7276 8.98991 64.003 9.06458 64.395 9.06458H65.333V10.1426H64.185C63.4756 10.1426 62.9436 9.97924 62.589 9.65258C62.2343 9.32591 62.057 8.78924 62.057 8.04258V3.52058H61.063V2.47058H62.057V0.538577H63.331V2.47058H65.333V3.52058H63.331ZM70.2226 10.2686C69.5039 10.2686 68.8506 10.1052 68.2626 9.77858C67.6839 9.45191 67.2266 8.98991 66.8906 8.39258C66.5639 7.78591 66.4006 7.08591 66.4006 6.29258C66.4006 5.50858 66.5686 4.81791 66.9046 4.22058C67.2499 3.61391 67.7166 3.15191 68.3046 2.83458C68.8926 2.50791 69.5506 2.34458 70.2786 2.34458C71.0066 2.34458 71.6646 2.50791 72.2526 2.83458C72.8406 3.15191 73.3026 3.60924 73.6386 4.20658C73.9839 4.80391 74.1566 5.49924 74.1566 6.29258C74.1566 7.08591 73.9793 7.78591 73.6246 8.39258C73.2793 8.98991 72.8079 9.45191 72.2106 9.77858C71.6133 10.1052 70.9506 10.2686 70.2226 10.2686ZM70.2226 9.14858C70.6799 9.14858 71.1093 9.04124 71.5106 8.82658C71.9119 8.61191 72.2339 8.28991 72.4766 7.86058C72.7286 7.43124 72.8546 6.90858 72.8546 6.29258C72.8546 5.67658 72.7333 5.15391 72.4906 4.72458C72.2479 4.29524 71.9306 3.97791 71.5386 3.77258C71.1466 3.55791 70.7219 3.45058 70.2646 3.45058C69.7979 3.45058 69.3686 3.55791 68.9766 3.77258C68.5939 3.97791 68.2859 4.29524 68.0526 4.72458C67.8193 5.15391 67.7026 5.67658 67.7026 6.29258C67.7026 6.91791 67.8146 7.44524 68.0386 7.87458C68.2719 8.30391 68.5799 8.62591 68.9626 8.84058C69.3453 9.04591 69.7653 9.14858 70.2226 9.14858ZM77.1057 3.71658C77.3297 3.27791 77.647 2.93724 78.0577 2.69458C78.4777 2.45191 78.9863 2.33058 79.5837 2.33058V3.64658H79.2477C77.8197 3.64658 77.1057 4.42124 77.1057 5.97058V10.1426H75.8317V2.47058H77.1057V3.71658ZM87.6623 2.47058L83.0423 13.7546H81.7263L83.2383 10.0586L80.1443 2.47058H81.5583L83.9663 8.68658L86.3463 2.47058H87.6623Z" fill="#333333"/>
</svg>
