<svg width="668" height="324" viewBox="0 0 668 324" fill="none" xmlns="http://www.w3.org/2000/svg">
<g filter="url(#filter0_dddd_264_1503)">
<g clip-path="url(#clip0_264_1503)">
<rect x="112" y="67" width="444" height="100" rx="10" fill="white"/>
<rect x="111.5" y="66.5" width="445" height="41" fill="#F5F5F5"/>
<rect x="111.5" y="66.5" width="445" height="41" stroke="black"/>
<g filter="url(#filter1_i_264_1503)">
<rect x="132" y="80" width="14" height="14" rx="3" fill="white"/>
</g>
<rect x="132.5" y="80.5" width="13" height="13" rx="2.5" stroke="url(#paint0_linear_264_1503)"/>
<path d="M174.67 82.5455V92H173.359L168.553 85.0661H168.465V92H167.039V82.5455H168.359L173.169 89.4886H173.257V82.5455H174.67ZM176.64 92V84.9091H178.02V92H176.64ZM177.337 83.815C177.097 83.815 176.891 83.735 176.718 83.5749C176.549 83.4118 176.464 83.2179 176.464 82.9933C176.464 82.7655 176.549 82.5716 176.718 82.4116C176.891 82.2485 177.097 82.1669 177.337 82.1669C177.577 82.1669 177.782 82.2485 177.951 82.4116C178.123 82.5716 178.209 82.7655 178.209 82.9933C178.209 83.2179 178.123 83.4118 177.951 83.5749C177.782 83.735 177.577 83.815 177.337 83.815ZM182.864 92.1431C182.178 92.1431 181.587 91.9877 181.091 91.6768C180.599 91.3629 180.22 90.9305 179.956 90.3796C179.691 89.8287 179.559 89.1978 179.559 88.4869C179.559 87.7667 179.694 87.1312 179.965 86.5803C180.236 86.0263 180.617 85.5939 181.11 85.283C181.602 84.9722 182.182 84.8168 182.85 84.8168C183.389 84.8168 183.869 84.9168 184.29 85.1168C184.712 85.3138 185.052 85.5908 185.311 85.9478C185.572 86.3048 185.728 86.7218 185.777 87.1989H184.434C184.36 86.8665 184.19 86.5803 183.926 86.3402C183.664 86.1001 183.313 85.9801 182.873 85.9801C182.489 85.9801 182.152 86.0817 181.862 86.2848C181.576 86.4848 181.353 86.7711 181.193 87.1435C181.033 87.5128 180.953 87.9498 180.953 88.4545C180.953 88.9716 181.031 89.4179 181.188 89.7933C181.345 90.1688 181.567 90.4596 181.853 90.6658C182.142 90.872 182.482 90.9751 182.873 90.9751C183.135 90.9751 183.372 90.9274 183.584 90.832C183.8 90.7335 183.98 90.5935 184.124 90.4119C184.272 90.2304 184.375 90.0118 184.434 89.7564H185.777C185.728 90.215 185.578 90.6243 185.329 90.9844C185.08 91.3445 184.746 91.6276 184.327 91.8338C183.912 92.04 183.424 92.1431 182.864 92.1431ZM188.523 89.5948L188.513 87.9098H188.753L191.579 84.9091H193.231L190.009 88.3253H189.792L188.523 89.5948ZM187.253 92V82.5455H188.633V92H187.253ZM191.731 92L189.192 88.63L190.143 87.6651L193.425 92H191.731ZM202.231 82.5455V92H200.92L196.114 85.0661H196.027V92H194.6V82.5455H195.921L200.731 89.4886H200.819V82.5455H202.231ZM206.265 92.157C205.816 92.157 205.409 92.0739 205.046 91.9077C204.683 91.7384 204.395 91.4937 204.183 91.1737C203.974 90.8536 203.869 90.4612 203.869 89.9964C203.869 89.5964 203.946 89.267 204.1 89.0085C204.254 88.75 204.461 88.5453 204.723 88.3945C204.985 88.2437 205.277 88.1299 205.6 88.0529C205.923 87.976 206.253 87.9175 206.588 87.8775C207.013 87.8282 207.357 87.7882 207.622 87.7575C207.887 87.7236 208.079 87.6697 208.199 87.5959C208.319 87.522 208.379 87.402 208.379 87.2358V87.2035C208.379 86.8003 208.265 86.4879 208.038 86.2663C207.813 86.0447 207.478 85.9339 207.031 85.9339C206.567 85.9339 206.2 86.037 205.933 86.2433C205.668 86.4464 205.485 86.6726 205.383 86.9219L204.086 86.6264C204.24 86.1955 204.464 85.8478 204.76 85.5831C205.058 85.3153 205.402 85.1214 205.789 85.0014C206.177 84.8783 206.585 84.8168 207.013 84.8168C207.296 84.8168 207.596 84.8506 207.913 84.9183C208.233 84.983 208.532 85.103 208.809 85.2784C209.089 85.4538 209.318 85.7047 209.496 86.0309C209.675 86.354 209.764 86.7741 209.764 87.2912V92H208.416V91.0305H208.361C208.272 91.209 208.138 91.3845 207.959 91.5568C207.781 91.7292 207.551 91.8723 207.271 91.9862C206.991 92.1 206.656 92.157 206.265 92.157ZM206.565 91.049C206.947 91.049 207.273 90.9736 207.544 90.8228C207.818 90.672 208.025 90.475 208.167 90.2319C208.312 89.9857 208.384 89.7225 208.384 89.4425V88.5284C208.335 88.5777 208.239 88.6238 208.098 88.6669C207.959 88.7069 207.801 88.7423 207.622 88.7731C207.444 88.8008 207.27 88.8269 207.1 88.8516C206.931 88.8731 206.79 88.8916 206.676 88.907C206.408 88.9408 206.163 88.9978 205.942 89.0778C205.723 89.1578 205.548 89.2732 205.415 89.424C205.286 89.5717 205.222 89.7687 205.222 90.0149C205.222 90.3565 205.348 90.6151 205.6 90.7905C205.853 90.9628 206.174 91.049 206.565 91.049ZM211.603 92V84.9091H212.928V86.0632H213.015C213.163 85.6723 213.405 85.3677 213.74 85.1491C214.076 84.9276 214.477 84.8168 214.945 84.8168C215.419 84.8168 215.816 84.9276 216.136 85.1491C216.459 85.3707 216.698 85.6754 216.852 86.0632H216.926C217.095 85.6847 217.364 85.383 217.733 85.1584C218.103 84.9306 218.543 84.8168 219.054 84.8168C219.697 84.8168 220.222 85.0183 220.628 85.4215C221.037 85.8247 221.242 86.4325 221.242 87.245V92H219.862V87.3743C219.862 86.8942 219.731 86.5464 219.469 86.331C219.208 86.1155 218.895 86.0078 218.532 86.0078C218.083 86.0078 217.733 86.1463 217.484 86.4233C217.235 86.6972 217.11 87.0496 217.11 87.4805V92H215.734V87.2866C215.734 86.9019 215.614 86.5926 215.374 86.3587C215.134 86.1248 214.822 86.0078 214.437 86.0078C214.176 86.0078 213.934 86.0771 213.712 86.2156C213.494 86.351 213.317 86.5402 213.182 86.7834C213.049 87.0265 212.983 87.3081 212.983 87.6282V92H211.603ZM226.148 92.1431C225.449 92.1431 224.848 91.9938 224.343 91.6953C223.841 91.3937 223.454 90.9705 223.18 90.4258C222.909 89.878 222.773 89.2363 222.773 88.5007C222.773 87.7744 222.909 87.1342 223.18 86.5803C223.454 86.0263 223.835 85.5939 224.325 85.283C224.817 84.9722 225.393 84.8168 226.051 84.8168C226.451 84.8168 226.839 84.8829 227.214 85.0153C227.59 85.1476 227.927 85.3554 228.225 85.6385C228.524 85.9216 228.759 86.2894 228.932 86.7418C229.104 87.1912 229.19 87.7375 229.19 88.3807V88.87H223.554V87.8359H227.838C227.838 87.4728 227.764 87.1512 227.616 86.8711C227.468 86.5879 227.261 86.3648 226.993 86.2017C226.728 86.0386 226.417 85.957 226.06 85.957C225.673 85.957 225.334 86.0524 225.045 86.2433C224.759 86.431 224.537 86.6772 224.38 86.9819C224.226 87.2835 224.149 87.6113 224.149 87.9652V88.7731C224.149 89.247 224.232 89.6502 224.398 89.9826C224.568 90.315 224.803 90.5689 225.105 90.7443C225.406 90.9167 225.759 91.0028 226.162 91.0028C226.424 91.0028 226.662 90.9659 226.877 90.892C227.093 90.8151 227.279 90.7012 227.436 90.5504C227.593 90.3996 227.713 90.2134 227.796 89.9918L229.103 90.2273C228.998 90.612 228.81 90.949 228.539 91.2383C228.272 91.5245 227.935 91.7476 227.528 91.9077C227.125 92.0646 226.665 92.1431 226.148 92.1431Z" fill="#0F1419"/>
<rect x="111.5" y="106.5" width="445" height="61" fill="white"/>
<rect x="111.5" y="106.5" width="445" height="61" stroke="#E1CFFF"/>
<g filter="url(#filter2_i_264_1503)">
<rect x="132" y="130" width="14" height="14" rx="3" fill="white"/>
</g>
<rect x="132.5" y="130.5" width="13" height="13" rx="2.5" stroke="url(#paint1_linear_264_1503)"/>
<path d="M167.145 142V132.545H170.339C171.081 132.545 171.688 132.679 172.158 132.947C172.632 133.212 172.983 133.57 173.211 134.023C173.439 134.475 173.553 134.98 173.553 135.537C173.553 136.094 173.439 136.6 173.211 137.056C172.986 137.511 172.638 137.874 172.168 138.145C171.697 138.413 171.094 138.547 170.358 138.547H168.068V137.531H170.321C170.829 137.531 171.237 137.444 171.544 137.268C171.852 137.093 172.075 136.856 172.214 136.557C172.355 136.256 172.426 135.915 172.426 135.537C172.426 135.158 172.355 134.82 172.214 134.521C172.075 134.223 171.851 133.989 171.54 133.82C171.229 133.647 170.817 133.561 170.303 133.561H168.29V142H167.145ZM174.82 142H173.619L177.091 132.545H178.273L181.744 142H180.544L177.719 134.041H177.645L174.82 142ZM175.263 138.307H180.101V139.322H175.263V138.307ZM190.714 132.545V142H189.606L184.454 134.577H184.362V142H183.217V132.545H184.325L189.496 139.987H189.588V132.545H190.714ZM192.488 133.561V132.545H199.579V133.561H196.606V142H195.461V133.561H192.488ZM201.346 142V132.545H204.541C205.279 132.545 205.886 132.672 206.36 132.924C206.834 133.173 207.184 133.516 207.412 133.953C207.64 134.391 207.754 134.888 207.754 135.445C207.754 136.002 207.64 136.496 207.412 136.926C207.184 137.357 206.835 137.696 206.364 137.942C205.893 138.185 205.292 138.307 204.559 138.307H201.974V137.273H204.522C205.027 137.273 205.433 137.199 205.741 137.051C206.052 136.903 206.276 136.694 206.415 136.423C206.557 136.149 206.627 135.823 206.627 135.445C206.627 135.066 206.557 134.735 206.415 134.452C206.273 134.169 206.047 133.95 205.736 133.797C205.425 133.64 205.015 133.561 204.504 133.561H202.491V142H201.346ZM205.796 137.753L208.123 142H206.794L204.504 137.753H205.796ZM208.532 132.545H209.843L212.465 136.959H212.576L215.198 132.545H216.509L213.093 138.104V142H211.948V138.104L208.532 132.545ZM225.487 132.545V142H224.379L219.227 134.577H219.134V142H217.99V132.545H219.098L224.268 139.987H224.36V132.545H225.487ZM228.165 142H226.965L230.437 132.545H231.619L235.09 142H233.89L231.065 134.041H230.991L228.165 142ZM228.609 138.307H233.447V139.322H228.609V138.307ZM236.563 132.545H237.929L241.142 140.393H241.253L244.466 132.545H245.833V142H244.762V134.817H244.669L241.715 142H240.681L237.726 134.817H237.634V142H236.563V132.545ZM248.128 142V132.545H253.834V133.561H249.273V136.756H253.539V137.771H249.273V140.984H253.908V142H248.128Z" fill="#333333"/>
</g>
</g>
<defs>
<filter id="filter0_dddd_264_1503" x="0" y="0" width="668" height="324" filterUnits="userSpaceOnUse" color-interpolation-filters="sRGB">
<feFlood flood-opacity="0" result="BackgroundImageFix"/>
<feColorMatrix in="SourceAlpha" type="matrix" values="0 0 0 0 0 0 0 0 0 0 0 0 0 0 0 0 0 0 127 0" result="hardAlpha"/>
<feOffset dy="1.96875"/>
<feGaussianBlur stdDeviation="3.2375"/>
<feColorMatrix type="matrix" values="0 0 0 0 0 0 0 0 0 0 0 0 0 0 0 0 0 0 0.0195 0"/>
<feBlend mode="normal" in2="BackgroundImageFix" result="effect1_dropShadow_264_1503"/>
<feColorMatrix in="SourceAlpha" type="matrix" values="0 0 0 0 0 0 0 0 0 0 0 0 0 0 0 0 0 0 127 0" result="hardAlpha"/>
<feOffset dy="9"/>
<feGaussianBlur stdDeviation="9.1"/>
<feColorMatrix type="matrix" values="0 0 0 0 0 0 0 0 0 0 0 0 0 0 0 0 0 0 0.03 0"/>
<feBlend mode="normal" in2="effect1_dropShadow_264_1503" result="effect2_dropShadow_264_1503"/>
<feColorMatrix in="SourceAlpha" type="matrix" values="0 0 0 0 0 0 0 0 0 0 0 0 0 0 0 0 0 0 127 0" result="hardAlpha"/>
<feOffset dy="22.7812"/>
<feGaussianBlur stdDeviation="24.4125"/>
<feColorMatrix type="matrix" values="0 0 0 0 0 0 0 0 0 0 0 0 0 0 0 0 0 0 0.0405 0"/>
<feBlend mode="normal" in2="effect2_dropShadow_264_1503" result="effect3_dropShadow_264_1503"/>
<feColorMatrix in="SourceAlpha" type="matrix" values="0 0 0 0 0 0 0 0 0 0 0 0 0 0 0 0 0 0 127 0" result="hardAlpha"/>
<feOffset dy="45"/>
<feGaussianBlur stdDeviation="56"/>
<feColorMatrix type="matrix" values="0 0 0 0 0 0 0 0 0 0 0 0 0 0 0 0 0 0 0.06 0"/>
<feBlend mode="normal" in2="effect3_dropShadow_264_1503" result="effect4_dropShadow_264_1503"/>
<feBlend mode="normal" in="SourceGraphic" in2="effect4_dropShadow_264_1503" result="shape"/>
</filter>
<filter id="filter1_i_264_1503" x="132" y="80" width="14" height="15" filterUnits="userSpaceOnUse" color-interpolation-filters="sRGB">
<feFlood flood-opacity="0" result="BackgroundImageFix"/>
<feBlend mode="normal" in="SourceGraphic" in2="BackgroundImageFix" result="shape"/>
<feColorMatrix in="SourceAlpha" type="matrix" values="0 0 0 0 0 0 0 0 0 0 0 0 0 0 0 0 0 0 127 0" result="hardAlpha"/>
<feOffset dy="1"/>
<feGaussianBlur stdDeviation="1"/>
<feComposite in2="hardAlpha" operator="arithmetic" k2="-1" k3="1"/>
<feColorMatrix type="matrix" values="0 0 0 0 0 0 0 0 0 0 0 0 0 0 0 0 0 0 0.2 0"/>
<feBlend mode="normal" in2="shape" result="effect1_innerShadow_264_1503"/>
</filter>
<filter id="filter2_i_264_1503" x="132" y="130" width="14" height="15" filterUnits="userSpaceOnUse" color-interpolation-filters="sRGB">
<feFlood flood-opacity="0" result="BackgroundImageFix"/>
<feBlend mode="normal" in="SourceGraphic" in2="BackgroundImageFix" result="shape"/>
<feColorMatrix in="SourceAlpha" type="matrix" values="0 0 0 0 0 0 0 0 0 0 0 0 0 0 0 0 0 0 127 0" result="hardAlpha"/>
<feOffset dy="1"/>
<feGaussianBlur stdDeviation="1"/>
<feComposite in2="hardAlpha" operator="arithmetic" k2="-1" k3="1"/>
<feColorMatrix type="matrix" values="0 0 0 0 0 0 0 0 0 0 0 0 0 0 0 0 0 0 0.2 0"/>
<feBlend mode="normal" in2="shape" result="effect1_innerShadow_264_1503"/>
</filter>
<linearGradient id="paint0_linear_264_1503" x1="146" y1="94" x2="146" y2="80" gradientUnits="userSpaceOnUse">
<stop stop-color="#C8C8C8"/>
<stop offset="1" stop-color="#979797"/>
</linearGradient>
<linearGradient id="paint1_linear_264_1503" x1="146" y1="144" x2="146" y2="130" gradientUnits="userSpaceOnUse">
<stop stop-color="#C8C8C8"/>
<stop offset="1" stop-color="#979797"/>
</linearGradient>
<clipPath id="clip0_264_1503">
<rect x="112" y="67" width="444" height="100" rx="10" fill="white"/>
</clipPath>
</defs>
</svg>
