<svg width="686" height="324" viewBox="0 0 686 324" fill="none" xmlns="http://www.w3.org/2000/svg">
<g filter="url(#filter0_dddd_264_1304)">
<g clip-path="url(#clip0_264_1304)">
<rect x="112" y="67" width="462" height="100" rx="10" fill="white"/>
<rect x="111.5" y="66.5" width="463" height="41" fill="#F5F5F5"/>
<rect x="111.5" y="66.5" width="463" height="41" stroke="black"/>
<g filter="url(#filter1_i_264_1304)">
<rect x="132" y="80" width="14" height="14" rx="3" fill="white"/>
</g>
<rect x="132.5" y="80.5" width="13" height="13" rx="2.5" stroke="url(#paint0_linear_264_1304)"/>
<path d="M167.039 92V82.5455H170.501C171.172 82.5455 171.728 82.6562 172.168 82.8778C172.608 83.0964 172.937 83.3933 173.156 83.7688C173.374 84.1412 173.483 84.5613 173.483 85.0291C173.483 85.4231 173.411 85.7554 173.266 86.0263C173.122 86.294 172.928 86.5095 172.685 86.6726C172.445 86.8326 172.18 86.9496 171.891 87.0234V87.1158C172.205 87.1312 172.511 87.2327 172.809 87.4205C173.111 87.6051 173.36 87.8683 173.557 88.2099C173.754 88.5515 173.853 88.967 173.853 89.4563C173.853 89.9395 173.739 90.3735 173.511 90.7582C173.286 91.1398 172.939 91.4429 172.468 91.6676C171.997 91.8892 171.395 92 170.663 92H167.039ZM168.465 90.7766H170.524C171.207 90.7766 171.697 90.6443 171.992 90.3796C172.288 90.1149 172.435 89.7841 172.435 89.3871C172.435 89.0885 172.36 88.8146 172.209 88.5653C172.058 88.3161 171.843 88.1175 171.563 87.9698C171.286 87.8221 170.957 87.7482 170.575 87.7482H168.465V90.7766ZM168.465 86.6357H170.376C170.696 86.6357 170.984 86.5741 171.24 86.451C171.498 86.3279 171.703 86.1555 171.854 85.9339C172.008 85.7093 172.085 85.4446 172.085 85.1399C172.085 84.7491 171.948 84.4213 171.674 84.1566C171.4 83.8919 170.98 83.7596 170.413 83.7596H168.465V86.6357ZM175.434 92V84.9091H176.768V86.0355H176.842C176.971 85.6539 177.199 85.3538 177.525 85.1353C177.854 84.9137 178.227 84.8029 178.642 84.8029C178.728 84.8029 178.83 84.806 178.947 84.8121C179.067 84.8183 179.161 84.826 179.229 84.8352V86.1555C179.173 86.1402 179.075 86.1232 178.933 86.1048C178.791 86.0832 178.65 86.0724 178.508 86.0724C178.182 86.0724 177.891 86.1417 177.636 86.2802C177.383 86.4156 177.183 86.6049 177.036 86.848C176.888 87.0881 176.814 87.362 176.814 87.6697V92H175.434ZM182.423 92.157C181.974 92.157 181.568 92.0739 181.204 91.9077C180.841 91.7384 180.553 91.4937 180.341 91.1737C180.132 90.8536 180.027 90.4612 180.027 89.9964C180.027 89.5964 180.104 89.267 180.258 89.0085C180.412 88.75 180.62 88.5453 180.881 88.3945C181.143 88.2437 181.435 88.1299 181.758 88.0529C182.081 87.976 182.411 87.9175 182.746 87.8775C183.171 87.8282 183.516 87.7882 183.78 87.7575C184.045 87.7236 184.237 87.6697 184.357 87.5959C184.477 87.522 184.537 87.402 184.537 87.2358V87.2035C184.537 86.8003 184.424 86.4879 184.196 86.2663C183.971 86.0447 183.636 85.9339 183.189 85.9339C182.725 85.9339 182.358 86.037 182.091 86.2433C181.826 86.4464 181.643 86.6726 181.541 86.9219L180.244 86.6264C180.398 86.1955 180.623 85.8478 180.918 85.5831C181.217 85.3153 181.56 85.1214 181.948 85.0014C182.335 84.8783 182.743 84.8168 183.171 84.8168C183.454 84.8168 183.754 84.8506 184.071 84.9183C184.391 84.983 184.69 85.103 184.967 85.2784C185.247 85.4538 185.476 85.7047 185.655 86.0309C185.833 86.354 185.922 86.7741 185.922 87.2912V92H184.574V91.0305H184.519C184.43 91.209 184.296 91.3845 184.117 91.5568C183.939 91.7292 183.71 91.8723 183.43 91.9862C183.149 92.1 182.814 92.157 182.423 92.157ZM182.723 91.049C183.105 91.049 183.431 90.9736 183.702 90.8228C183.976 90.672 184.184 90.475 184.325 90.2319C184.47 89.9857 184.542 89.7225 184.542 89.4425V88.5284C184.493 88.5777 184.397 88.6238 184.256 88.6669C184.117 88.7069 183.959 88.7423 183.78 88.7731C183.602 88.8008 183.428 88.8269 183.259 88.8516C183.089 88.8731 182.948 88.8916 182.834 88.907C182.566 88.9408 182.322 88.9978 182.1 89.0778C181.881 89.1578 181.706 89.2732 181.574 89.424C181.444 89.5717 181.38 89.7687 181.38 90.0149C181.38 90.3565 181.506 90.6151 181.758 90.7905C182.011 90.9628 182.332 91.049 182.723 91.049ZM189.141 87.7898V92H187.761V84.9091H189.086V86.0632H189.174C189.337 85.6877 189.592 85.3861 189.94 85.1584C190.291 84.9306 190.732 84.8168 191.265 84.8168C191.748 84.8168 192.171 84.9183 192.534 85.1214C192.898 85.3215 193.179 85.62 193.379 86.017C193.579 86.4141 193.679 86.9049 193.679 87.4897V92H192.299V87.6559C192.299 87.1419 192.165 86.7403 191.897 86.451C191.63 86.1586 191.262 86.0124 190.794 86.0124C190.474 86.0124 190.189 86.0817 189.94 86.2202C189.694 86.3587 189.498 86.5618 189.354 86.8295C189.212 87.0942 189.141 87.4143 189.141 87.7898ZM198.185 92.1385C197.612 92.1385 197.102 91.9923 196.652 91.6999C196.206 91.4045 195.855 90.9844 195.6 90.4396C195.347 89.8918 195.221 89.2347 195.221 88.4684C195.221 87.7021 195.349 87.0465 195.604 86.5018C195.863 85.957 196.217 85.54 196.666 85.2507C197.115 84.9614 197.625 84.8168 198.194 84.8168C198.634 84.8168 198.988 84.8906 199.256 85.0384C199.527 85.183 199.736 85.3523 199.884 85.5462C200.035 85.7401 200.152 85.9109 200.235 86.0586H200.318V82.5455H201.698V92H200.35V90.8967H200.235C200.152 91.0475 200.032 91.2198 199.875 91.4137C199.721 91.6076 199.508 91.7769 199.237 91.9215C198.967 92.0662 198.616 92.1385 198.185 92.1385ZM198.49 90.9613C198.887 90.9613 199.222 90.8567 199.496 90.6474C199.773 90.435 199.982 90.1411 200.124 89.7656C200.268 89.3902 200.341 88.9531 200.341 88.4545C200.341 87.9621 200.27 87.5312 200.128 87.1619C199.987 86.7926 199.779 86.5049 199.505 86.2987C199.231 86.0924 198.893 85.9893 198.49 85.9893C198.074 85.9893 197.728 86.0971 197.451 86.3125C197.174 86.5279 196.965 86.8219 196.823 87.1942C196.685 87.5666 196.615 87.9867 196.615 88.4545C196.615 88.9285 196.686 89.3548 196.828 89.7333C196.969 90.1119 197.179 90.4119 197.456 90.6335C197.736 90.852 198.08 90.9613 198.49 90.9613Z" fill="#0F1419"/>
<path d="M299.705 82.5455H301.437L304.446 89.8949H304.557L307.567 82.5455H309.298V92H307.941V85.1584H307.853L305.065 91.9862H303.939L301.15 85.1538H301.063V92H299.705V82.5455ZM314.248 92.1431C313.584 92.1431 313.003 91.9908 312.508 91.6861C312.012 91.3814 311.628 90.9551 311.354 90.4073C311.08 89.8595 310.943 89.2193 310.943 88.4869C310.943 87.7513 311.08 87.1081 311.354 86.5572C311.628 86.0063 312.012 85.5785 312.508 85.2738C313.003 84.9691 313.584 84.8168 314.248 84.8168C314.913 84.8168 315.493 84.9691 315.989 85.2738C316.484 85.5785 316.869 86.0063 317.143 86.5572C317.417 87.1081 317.554 87.7513 317.554 88.4869C317.554 89.2193 317.417 89.8595 317.143 90.4073C316.869 90.9551 316.484 91.3814 315.989 91.6861C315.493 91.9908 314.913 92.1431 314.248 92.1431ZM314.253 90.9844C314.684 90.9844 315.041 90.8705 315.324 90.6428C315.607 90.415 315.816 90.1119 315.952 89.7333C316.09 89.3548 316.16 88.9377 316.16 88.4822C316.16 88.0298 316.09 87.6143 315.952 87.2358C315.816 86.8542 315.607 86.5479 315.324 86.3171C315.041 86.0863 314.684 85.9709 314.253 85.9709C313.819 85.9709 313.459 86.0863 313.173 86.3171C312.89 86.5479 312.679 86.8542 312.54 87.2358C312.405 87.6143 312.337 88.0298 312.337 88.4822C312.337 88.9377 312.405 89.3548 312.54 89.7333C312.679 90.1119 312.89 90.415 313.173 90.6428C313.459 90.8705 313.819 90.9844 314.253 90.9844ZM321.749 92.1385C321.177 92.1385 320.666 91.9923 320.216 91.6999C319.77 91.4045 319.419 90.9844 319.164 90.4396C318.911 89.8918 318.785 89.2347 318.785 88.4684C318.785 87.7021 318.913 87.0465 319.168 86.5018C319.427 85.957 319.781 85.54 320.23 85.2507C320.68 84.9614 321.189 84.8168 321.758 84.8168C322.198 84.8168 322.552 84.8906 322.82 85.0384C323.091 85.183 323.3 85.3523 323.448 85.5462C323.599 85.7401 323.716 85.9109 323.799 86.0586H323.882V82.5455H325.262V92H323.914V90.8967H323.799C323.716 91.0475 323.596 91.2198 323.439 91.4137C323.285 91.6076 323.072 91.7769 322.802 91.9215C322.531 92.0662 322.18 92.1385 321.749 92.1385ZM322.054 90.9613C322.451 90.9613 322.786 90.8567 323.06 90.6474C323.337 90.435 323.546 90.1411 323.688 89.7656C323.833 89.3902 323.905 88.9531 323.905 88.4545C323.905 87.9621 323.834 87.5312 323.693 87.1619C323.551 86.7926 323.343 86.5049 323.069 86.2987C322.795 86.0924 322.457 85.9893 322.054 85.9893C321.638 85.9893 321.292 86.0971 321.015 86.3125C320.738 86.5279 320.529 86.8219 320.387 87.1942C320.249 87.5666 320.179 87.9867 320.179 88.4545C320.179 88.9285 320.25 89.3548 320.392 89.7333C320.533 90.1119 320.743 90.4119 321.02 90.6335C321.3 90.852 321.644 90.9613 322.054 90.9613ZM330.288 92.1431C329.59 92.1431 328.988 91.9938 328.483 91.6953C327.982 91.3937 327.594 90.9705 327.32 90.4258C327.049 89.878 326.914 89.2363 326.914 88.5007C326.914 87.7744 327.049 87.1342 327.32 86.5803C327.594 86.0263 327.975 85.5939 328.465 85.283C328.957 84.9722 329.533 84.8168 330.191 84.8168C330.591 84.8168 330.979 84.8829 331.355 85.0153C331.73 85.1476 332.067 85.3554 332.366 85.6385C332.664 85.9216 332.9 86.2894 333.072 86.7418C333.244 87.1912 333.331 87.7375 333.331 88.3807V88.87H327.694V87.8359H331.978C331.978 87.4728 331.904 87.1512 331.756 86.8711C331.609 86.5879 331.401 86.3648 331.133 86.2017C330.868 86.0386 330.558 85.957 330.201 85.957C329.813 85.957 329.474 86.0524 329.185 86.2433C328.899 86.431 328.677 86.6772 328.52 86.9819C328.366 87.2835 328.289 87.6113 328.289 87.9652V88.7731C328.289 89.247 328.373 89.6502 328.539 89.9826C328.708 90.315 328.943 90.5689 329.245 90.7443C329.547 90.9167 329.899 91.0028 330.302 91.0028C330.564 91.0028 330.802 90.9659 331.018 90.892C331.233 90.8151 331.419 90.7012 331.576 90.5504C331.733 90.3996 331.853 90.2134 331.936 89.9918L333.243 90.2273C333.138 90.612 332.951 90.949 332.68 91.2383C332.412 91.5245 332.075 91.7476 331.669 91.9077C331.265 92.0646 330.805 92.1431 330.288 92.1431ZM336.242 82.5455V92H334.862V82.5455H336.242ZM349.282 82.5455V92H347.971L343.165 85.0661H343.077V92H341.651V82.5455H342.971L347.781 89.4886H347.869V82.5455H349.282ZM355.744 89.0593V84.9091H357.129V92H355.771V90.772H355.697C355.534 91.1506 355.273 91.466 354.913 91.7184C354.556 91.9677 354.111 92.0923 353.578 92.0923C353.123 92.0923 352.72 91.9923 352.369 91.7923C352.021 91.5891 351.747 91.2891 351.547 90.892C351.35 90.495 351.252 90.0041 351.252 89.4194V84.9091H352.632V89.2532C352.632 89.7364 352.766 90.1211 353.034 90.4073C353.301 90.6935 353.649 90.8366 354.077 90.8366C354.336 90.8366 354.593 90.772 354.848 90.6428C355.107 90.5135 355.32 90.3181 355.49 90.0565C355.662 89.7949 355.747 89.4625 355.744 89.0593ZM358.983 92V84.9091H360.308V86.0632H360.396C360.544 85.6723 360.785 85.3677 361.121 85.1491C361.456 84.9276 361.858 84.8168 362.326 84.8168C362.799 84.8168 363.197 84.9276 363.517 85.1491C363.84 85.3707 364.078 85.6754 364.232 86.0632H364.306C364.475 85.6847 364.745 85.383 365.114 85.1584C365.483 84.9306 365.923 84.8168 366.434 84.8168C367.077 84.8168 367.602 85.0183 368.008 85.4215C368.418 85.8247 368.622 86.4325 368.622 87.245V92H367.242V87.3743C367.242 86.8942 367.111 86.5464 366.85 86.331C366.588 86.1155 366.276 86.0078 365.913 86.0078C365.463 86.0078 365.114 86.1463 364.865 86.4233C364.615 86.6972 364.491 87.0496 364.491 87.4805V92H363.115V87.2866C363.115 86.9019 362.995 86.5926 362.755 86.3587C362.515 86.1248 362.202 86.0078 361.818 86.0078C361.556 86.0078 361.315 86.0771 361.093 86.2156C360.874 86.351 360.697 86.5402 360.562 86.7834C360.43 87.0265 360.364 87.3081 360.364 87.6282V92H358.983ZM370.583 92V82.5455H371.964V86.0586H372.047C372.127 85.9109 372.242 85.7401 372.393 85.5462C372.544 85.3523 372.753 85.183 373.021 85.0384C373.289 84.8906 373.642 84.8168 374.083 84.8168C374.655 84.8168 375.166 84.9614 375.615 85.2507C376.065 85.54 376.417 85.957 376.672 86.5018C376.931 87.0465 377.06 87.7021 377.06 88.4684C377.06 89.2347 376.932 89.8918 376.677 90.4396C376.422 90.9844 376.071 91.4045 375.624 91.6999C375.178 91.9923 374.669 92.1385 374.096 92.1385C373.666 92.1385 373.313 92.0662 373.039 91.9215C372.768 91.7769 372.556 91.6076 372.402 91.4137C372.248 91.2198 372.13 91.0475 372.047 90.8967H371.931V92H370.583ZM371.936 88.4545C371.936 88.9531 372.008 89.3902 372.153 89.7656C372.298 90.1411 372.507 90.435 372.781 90.6474C373.055 90.8567 373.39 90.9613 373.787 90.9613C374.2 90.9613 374.544 90.852 374.821 90.6335C375.098 90.4119 375.307 90.1119 375.449 89.7333C375.594 89.3548 375.666 88.9285 375.666 88.4545C375.666 87.9867 375.595 87.5666 375.454 87.1942C375.315 86.8219 375.106 86.5279 374.826 86.3125C374.549 86.0971 374.203 85.9893 373.787 85.9893C373.387 85.9893 373.048 86.0924 372.771 86.2987C372.498 86.5049 372.29 86.7926 372.148 87.1619C372.007 87.5312 371.936 87.9621 371.936 88.4545ZM381.666 92.1431C380.968 92.1431 380.366 91.9938 379.861 91.6953C379.36 91.3937 378.972 90.9705 378.698 90.4258C378.427 89.878 378.292 89.2363 378.292 88.5007C378.292 87.7744 378.427 87.1342 378.698 86.5803C378.972 86.0263 379.353 85.5939 379.843 85.283C380.335 84.9722 380.911 84.8168 381.569 84.8168C381.969 84.8168 382.357 84.8829 382.733 85.0153C383.108 85.1476 383.445 85.3554 383.744 85.6385C384.042 85.9216 384.278 86.2894 384.45 86.7418C384.622 87.1912 384.709 87.7375 384.709 88.3807V88.87H379.072V87.8359H383.356C383.356 87.4728 383.282 87.1512 383.134 86.8711C382.987 86.5879 382.779 86.3648 382.511 86.2017C382.246 86.0386 381.936 85.957 381.579 85.957C381.191 85.957 380.852 86.0524 380.563 86.2433C380.277 86.431 380.055 86.6772 379.898 86.9819C379.744 87.2835 379.667 87.6113 379.667 87.9652V88.7731C379.667 89.247 379.75 89.6502 379.917 89.9826C380.086 90.315 380.321 90.5689 380.623 90.7443C380.925 90.9167 381.277 91.0028 381.68 91.0028C381.942 91.0028 382.18 90.9659 382.396 90.892C382.611 90.8151 382.797 90.7012 382.954 90.5504C383.111 90.3996 383.231 90.2134 383.314 89.9918L384.621 90.2273C384.516 90.612 384.328 90.949 384.058 91.2383C383.79 91.5245 383.453 91.7476 383.047 91.9077C382.643 92.0646 382.183 92.1431 381.666 92.1431ZM386.24 92V84.9091H387.574V86.0355H387.648C387.777 85.6539 388.005 85.3538 388.331 85.1353C388.661 84.9137 389.033 84.8029 389.448 84.8029C389.535 84.8029 389.636 84.806 389.753 84.8121C389.873 84.8183 389.967 84.826 390.035 84.8352V86.1555C389.979 86.1402 389.881 86.1232 389.739 86.1048C389.598 86.0832 389.456 86.0724 389.315 86.0724C388.988 86.0724 388.698 86.1417 388.442 86.2802C388.19 86.4156 387.99 86.6049 387.842 86.848C387.694 87.0881 387.62 87.362 387.62 87.6697V92H386.24Z" fill="#0F1419"/>
<path d="M437.529 85.0291C437.479 84.5921 437.276 84.2536 436.919 84.0135C436.562 83.7704 436.113 83.6488 435.571 83.6488C435.183 83.6488 434.848 83.7103 434.565 83.8335C434.282 83.9535 434.062 84.1197 433.905 84.332C433.751 84.5413 433.674 84.7798 433.674 85.0476C433.674 85.2723 433.726 85.4661 433.831 85.6293C433.938 85.7924 434.079 85.9293 434.251 86.0401C434.426 86.1478 434.614 86.2386 434.814 86.3125C435.014 86.3833 435.206 86.4418 435.391 86.4879L436.314 86.728C436.616 86.8018 436.925 86.9019 437.242 87.0281C437.559 87.1542 437.853 87.3204 438.124 87.5266C438.395 87.7328 438.613 87.9883 438.78 88.293C438.949 88.5977 439.034 88.9624 439.034 89.3871C439.034 89.9226 438.895 90.3981 438.618 90.8136C438.344 91.229 437.946 91.5568 437.422 91.7969C436.902 92.0369 436.273 92.157 435.534 92.157C434.826 92.157 434.214 92.0446 433.697 91.82C433.18 91.5953 432.775 91.2768 432.483 90.8643C432.19 90.4489 432.029 89.9564 431.998 89.3871H433.429C433.457 89.7287 433.568 90.0134 433.762 90.2411C433.958 90.4658 434.209 90.6335 434.514 90.7443C434.822 90.852 435.159 90.9059 435.525 90.9059C435.928 90.9059 436.287 90.8428 436.601 90.7166C436.918 90.5874 437.167 90.4089 437.349 90.1811C437.53 89.9503 437.621 89.681 437.621 89.3732C437.621 89.0932 437.541 88.8639 437.381 88.6854C437.224 88.5069 437.01 88.3591 436.739 88.2422C436.471 88.1252 436.168 88.0221 435.83 87.9329L434.713 87.6282C433.955 87.422 433.355 87.1188 432.912 86.7188C432.472 86.3187 432.252 85.7893 432.252 85.1307C432.252 84.5859 432.4 84.1104 432.695 83.7042C432.991 83.2979 433.391 82.9825 433.895 82.7578C434.4 82.5301 434.969 82.4162 435.603 82.4162C436.244 82.4162 436.808 82.5285 437.298 82.7532C437.79 82.9779 438.178 83.2872 438.461 83.6811C438.744 84.072 438.892 84.5213 438.904 85.0291H437.529ZM443.683 92.1431C442.985 92.1431 442.383 91.9938 441.878 91.6953C441.377 91.3937 440.989 90.9705 440.715 90.4258C440.444 89.878 440.309 89.2363 440.309 88.5007C440.309 87.7744 440.444 87.1342 440.715 86.5803C440.989 86.0263 441.371 85.5939 441.86 85.283C442.352 84.9722 442.928 84.8168 443.587 84.8168C443.987 84.8168 444.374 84.8829 444.75 85.0153C445.125 85.1476 445.462 85.3554 445.761 85.6385C446.059 85.9216 446.295 86.2894 446.467 86.7418C446.64 87.1912 446.726 87.7375 446.726 88.3807V88.87H441.089V87.8359H445.373C445.373 87.4728 445.299 87.1512 445.152 86.8711C445.004 86.5879 444.796 86.3648 444.528 86.2017C444.264 86.0386 443.953 85.957 443.596 85.957C443.208 85.957 442.869 86.0524 442.58 86.2433C442.294 86.431 442.072 86.6772 441.915 86.9819C441.761 87.2835 441.685 87.6113 441.685 87.9652V88.7731C441.685 89.247 441.768 89.6502 441.934 89.9826C442.103 90.315 442.339 90.5689 442.64 90.7443C442.942 90.9167 443.294 91.0028 443.697 91.0028C443.959 91.0028 444.197 90.9659 444.413 90.892C444.628 90.8151 444.815 90.7012 444.971 90.5504C445.128 90.3996 445.248 90.2134 445.332 89.9918L446.638 90.2273C446.533 90.612 446.346 90.949 446.075 91.2383C445.807 91.5245 445.47 91.7476 445.064 91.9077C444.661 92.0646 444.201 92.1431 443.683 92.1431ZM448.257 92V84.9091H449.591V86.0355H449.665C449.795 85.6539 450.022 85.3538 450.349 85.1353C450.678 84.9137 451.05 84.8029 451.466 84.8029C451.552 84.8029 451.653 84.806 451.77 84.8121C451.89 84.8183 451.984 84.826 452.052 84.8352V86.1555C451.997 86.1402 451.898 86.1232 451.757 86.1048C451.615 86.0832 451.473 86.0724 451.332 86.0724C451.006 86.0724 450.715 86.1417 450.459 86.2802C450.207 86.4156 450.007 86.6049 449.859 86.848C449.711 87.0881 449.638 87.362 449.638 87.6697V92H448.257ZM453.247 92V84.9091H454.627V92H453.247ZM453.944 83.815C453.704 83.815 453.497 83.735 453.325 83.5749C453.156 83.4118 453.071 83.2179 453.071 82.9933C453.071 82.7655 453.156 82.5716 453.325 82.4116C453.497 82.2485 453.704 82.1669 453.944 82.1669C454.184 82.1669 454.388 82.2485 454.558 82.4116C454.73 82.5716 454.816 82.7655 454.816 82.9933C454.816 83.2179 454.73 83.4118 454.558 83.5749C454.388 83.735 454.184 83.815 453.944 83.815ZM458.547 92.157C458.098 92.157 457.692 92.0739 457.329 91.9077C456.965 91.7384 456.678 91.4937 456.465 91.1737C456.256 90.8536 456.151 90.4612 456.151 89.9964C456.151 89.5964 456.228 89.267 456.382 89.0085C456.536 88.75 456.744 88.5453 457.005 88.3945C457.267 88.2437 457.559 88.1299 457.883 88.0529C458.206 87.976 458.535 87.9175 458.871 87.8775C459.295 87.8282 459.64 87.7882 459.905 87.7575C460.169 87.7236 460.362 87.6697 460.482 87.5959C460.602 87.522 460.662 87.402 460.662 87.2358V87.2035C460.662 86.8003 460.548 86.4879 460.32 86.2663C460.095 86.0447 459.76 85.9339 459.314 85.9339C458.849 85.9339 458.483 86.037 458.215 86.2433C457.95 86.4464 457.767 86.6726 457.666 86.9219L456.368 86.6264C456.522 86.1955 456.747 85.8478 457.042 85.5831C457.341 85.3153 457.684 85.1214 458.072 85.0014C458.46 84.8783 458.867 84.8168 459.295 84.8168C459.578 84.8168 459.878 84.8506 460.195 84.9183C460.516 84.983 460.814 85.103 461.091 85.2784C461.371 85.4538 461.6 85.7047 461.779 86.0309C461.957 86.354 462.047 86.7741 462.047 87.2912V92H460.699V91.0305H460.643C460.554 91.209 460.42 91.3845 460.242 91.5568C460.063 91.7292 459.834 91.8723 459.554 91.9862C459.274 92.1 458.938 92.157 458.547 92.157ZM458.847 91.049C459.229 91.049 459.555 90.9736 459.826 90.8228C460.1 90.672 460.308 90.475 460.449 90.2319C460.594 89.9857 460.666 89.7225 460.666 89.4425V88.5284C460.617 88.5777 460.522 88.6238 460.38 88.6669C460.242 88.7069 460.083 88.7423 459.905 88.7731C459.726 88.8008 459.552 88.8269 459.383 88.8516C459.214 88.8731 459.072 88.8916 458.958 88.907C458.69 88.9408 458.446 88.9978 458.224 89.0778C458.006 89.1578 457.83 89.2732 457.698 89.424C457.569 89.5717 457.504 89.7687 457.504 90.0149C457.504 90.3565 457.63 90.6151 457.883 90.7905C458.135 90.9628 458.457 91.049 458.847 91.049ZM465.266 82.5455V92H463.885V82.5455H465.266ZM478.305 82.5455V92H476.994L472.188 85.0661H472.1V92H470.674V82.5455H471.994L476.804 89.4886H476.892V82.5455H478.305ZM484.767 89.0593V84.9091H486.152V92H484.794V90.772H484.721C484.557 91.1506 484.296 91.466 483.936 91.7184C483.579 91.9677 483.134 92.0923 482.602 92.0923C482.146 92.0923 481.743 91.9923 481.392 91.7923C481.044 91.5891 480.77 91.2891 480.57 90.892C480.373 90.495 480.275 90.0041 480.275 89.4194V84.9091H481.655V89.2532C481.655 89.7364 481.789 90.1211 482.057 90.4073C482.325 90.6935 482.672 90.8366 483.1 90.8366C483.359 90.8366 483.616 90.772 483.871 90.6428C484.13 90.5135 484.343 90.3181 484.513 90.0565C484.685 89.7949 484.77 89.4625 484.767 89.0593ZM488.006 92V84.9091H489.331V86.0632H489.419C489.567 85.6723 489.808 85.3677 490.144 85.1491C490.479 84.9276 490.881 84.8168 491.349 84.8168C491.823 84.8168 492.22 84.9276 492.54 85.1491C492.863 85.3707 493.101 85.6754 493.255 86.0632H493.329C493.498 85.6847 493.768 85.383 494.137 85.1584C494.506 84.9306 494.946 84.8168 495.457 84.8168C496.101 84.8168 496.625 85.0183 497.031 85.4215C497.441 85.8247 497.645 86.4325 497.645 87.245V92H496.265V87.3743C496.265 86.8942 496.134 86.5464 495.873 86.331C495.611 86.1155 495.299 86.0078 494.936 86.0078C494.486 86.0078 494.137 86.1463 493.888 86.4233C493.638 86.6972 493.514 87.0496 493.514 87.4805V92H492.138V87.2866C492.138 86.9019 492.018 86.5926 491.778 86.3587C491.538 86.1248 491.226 86.0078 490.841 86.0078C490.579 86.0078 490.338 86.0771 490.116 86.2156C489.897 86.351 489.721 86.5402 489.585 86.7834C489.453 87.0265 489.387 87.3081 489.387 87.6282V92H488.006ZM499.606 92V82.5455H500.987V86.0586H501.07C501.15 85.9109 501.265 85.7401 501.416 85.5462C501.567 85.3523 501.776 85.183 502.044 85.0384C502.312 84.8906 502.666 84.8168 503.106 84.8168C503.678 84.8168 504.189 84.9614 504.638 85.2507C505.088 85.54 505.44 85.957 505.695 86.5018C505.954 87.0465 506.083 87.7021 506.083 88.4684C506.083 89.2347 505.956 89.8918 505.7 90.4396C505.445 90.9844 505.094 91.4045 504.648 91.6999C504.201 91.9923 503.692 92.1385 503.119 92.1385C502.689 92.1385 502.336 92.0662 502.062 91.9215C501.791 91.7769 501.579 91.6076 501.425 91.4137C501.271 91.2198 501.153 91.0475 501.07 90.8967H500.954V92H499.606ZM500.959 88.4545C500.959 88.9531 501.031 89.3902 501.176 89.7656C501.321 90.1411 501.53 90.435 501.804 90.6474C502.078 90.8567 502.413 90.9613 502.81 90.9613C503.223 90.9613 503.567 90.852 503.844 90.6335C504.121 90.4119 504.331 90.1119 504.472 89.7333C504.617 89.3548 504.689 88.9285 504.689 88.4545C504.689 87.9867 504.618 87.5666 504.477 87.1942C504.338 86.8219 504.129 86.5279 503.849 86.3125C503.572 86.0971 503.226 85.9893 502.81 85.9893C502.41 85.9893 502.072 86.0924 501.795 86.2987C501.521 86.5049 501.313 86.7926 501.171 87.1619C501.03 87.5312 500.959 87.9621 500.959 88.4545ZM510.689 92.1431C509.991 92.1431 509.389 91.9938 508.884 91.6953C508.383 91.3937 507.995 90.9705 507.721 90.4258C507.45 89.878 507.315 89.2363 507.315 88.5007C507.315 87.7744 507.45 87.1342 507.721 86.5803C507.995 86.0263 508.376 85.5939 508.866 85.283C509.358 84.9722 509.934 84.8168 510.592 84.8168C510.992 84.8168 511.38 84.8829 511.756 85.0153C512.131 85.1476 512.468 85.3554 512.767 85.6385C513.065 85.9216 513.301 86.2894 513.473 86.7418C513.645 87.1912 513.732 87.7375 513.732 88.3807V88.87H508.095V87.8359H512.379C512.379 87.4728 512.305 87.1512 512.157 86.8711C512.01 86.5879 511.802 86.3648 511.534 86.2017C511.269 86.0386 510.959 85.957 510.602 85.957C510.214 85.957 509.875 86.0524 509.586 86.2433C509.3 86.431 509.078 86.6772 508.921 86.9819C508.767 87.2835 508.69 87.6113 508.69 87.9652V88.7731C508.69 89.247 508.774 89.6502 508.94 89.9826C509.109 90.315 509.344 90.5689 509.646 90.7443C509.948 90.9167 510.3 91.0028 510.703 91.0028C510.965 91.0028 511.203 90.9659 511.419 90.892C511.634 90.8151 511.82 90.7012 511.977 90.5504C512.134 90.3996 512.254 90.2134 512.337 89.9918L513.644 90.2273C513.539 90.612 513.352 90.949 513.081 91.2383C512.813 91.5245 512.476 91.7476 512.07 91.9077C511.666 92.0646 511.206 92.1431 510.689 92.1431ZM515.263 92V84.9091H516.597V86.0355H516.671C516.8 85.6539 517.028 85.3538 517.354 85.1353C517.684 84.9137 518.056 84.8029 518.472 84.8029C518.558 84.8029 518.659 84.806 518.776 84.8121C518.896 84.8183 518.99 84.826 519.058 84.8352V86.1555C519.002 86.1402 518.904 86.1232 518.762 86.1048C518.621 86.0832 518.479 86.0724 518.338 86.0724C518.011 86.0724 517.721 86.1417 517.465 86.2802C517.213 86.4156 517.013 86.6049 516.865 86.848C516.717 87.0881 516.643 87.362 516.643 87.6697V92H515.263Z" fill="#0F1419"/>
<rect x="111.5" y="106.5" width="463" height="61" fill="white"/>
<rect x="111.5" y="106.5" width="463" height="61" stroke="#E1CFFF"/>
<g filter="url(#filter2_i_264_1304)">
<rect x="132" y="130" width="14" height="14" rx="3" fill="white"/>
</g>
<rect x="132.5" y="130.5" width="13" height="13" rx="2.5" stroke="url(#paint1_linear_264_1304)"/>
<path d="M167.145 142V132.545H170.45C171.109 132.545 171.652 132.659 172.08 132.887C172.508 133.112 172.826 133.415 173.036 133.797C173.245 134.175 173.349 134.595 173.349 135.057C173.349 135.463 173.277 135.799 173.132 136.063C172.991 136.328 172.803 136.537 172.569 136.691C172.338 136.845 172.088 136.959 171.817 137.033V137.125C172.106 137.143 172.397 137.245 172.689 137.43C172.982 137.614 173.226 137.879 173.423 138.224C173.62 138.568 173.719 138.99 173.719 139.489C173.719 139.963 173.611 140.389 173.396 140.767C173.18 141.146 172.84 141.446 172.375 141.668C171.911 141.889 171.306 142 170.561 142H167.145ZM168.29 140.984H170.561C171.309 140.984 171.84 140.84 172.154 140.55C172.471 140.258 172.629 139.904 172.629 139.489C172.629 139.169 172.548 138.873 172.385 138.602C172.221 138.328 171.989 138.11 171.688 137.947C171.386 137.781 171.029 137.697 170.616 137.697H168.29V140.984ZM168.29 136.7H170.413C170.758 136.7 171.069 136.633 171.346 136.497C171.626 136.362 171.848 136.171 172.011 135.925C172.177 135.679 172.26 135.389 172.26 135.057C172.26 134.641 172.115 134.289 171.826 134C171.537 133.707 171.078 133.561 170.45 133.561H168.29V136.7ZM175.6 142V132.545H178.795C179.533 132.545 180.14 132.672 180.613 132.924C181.087 133.173 181.438 133.516 181.666 133.953C181.894 134.391 182.008 134.888 182.008 135.445C182.008 136.002 181.894 136.496 181.666 136.926C181.438 137.357 181.089 137.696 180.618 137.942C180.147 138.185 179.546 138.307 178.813 138.307H176.228V137.273H178.776C179.281 137.273 179.687 137.199 179.995 137.051C180.306 136.903 180.53 136.694 180.669 136.423C180.81 136.149 180.881 135.823 180.881 135.445C180.881 135.066 180.81 134.735 180.669 134.452C180.527 134.169 180.301 133.95 179.99 133.797C179.679 133.64 179.269 133.561 178.758 133.561H176.745V142H175.6ZM180.05 137.753L182.377 142H181.047L178.758 137.753H180.05ZM184.303 142H183.103L186.574 132.545H187.756L191.228 142H190.028L187.202 134.041H187.128L184.303 142ZM184.746 138.307H189.584V139.322H184.746V138.307ZM200.198 132.545V142H199.09L193.938 134.577H193.845V142H192.701V132.545H193.809L198.979 139.987H199.071V132.545H200.198ZM205.406 142H202.489V132.545H205.536C206.453 132.545 207.237 132.735 207.89 133.113C208.542 133.489 209.042 134.029 209.39 134.734C209.738 135.435 209.912 136.276 209.912 137.254C209.912 138.239 209.737 139.087 209.386 139.798C209.035 140.506 208.524 141.051 207.853 141.432C207.182 141.811 206.366 142 205.406 142ZM203.634 140.984H205.332C206.114 140.984 206.762 140.834 207.276 140.532C207.79 140.23 208.173 139.801 208.425 139.244C208.678 138.687 208.804 138.024 208.804 137.254C208.804 136.491 208.679 135.834 208.43 135.283C208.181 134.729 207.808 134.304 207.313 134.009C206.817 133.71 206.2 133.561 205.462 133.561H203.634V140.984ZM211.832 142V132.545H215.138C215.796 132.545 216.34 132.659 216.767 132.887C217.195 133.112 217.514 133.415 217.723 133.797C217.932 134.175 218.037 134.595 218.037 135.057C218.037 135.463 217.965 135.799 217.82 136.063C217.678 136.328 217.491 136.537 217.257 136.691C217.026 136.845 216.775 136.959 216.504 137.033V137.125C216.794 137.143 217.084 137.245 217.377 137.43C217.669 137.614 217.914 137.879 218.111 138.224C218.308 138.568 218.406 138.99 218.406 139.489C218.406 139.963 218.299 140.389 218.083 140.767C217.868 141.146 217.528 141.446 217.063 141.668C216.598 141.889 215.993 142 215.249 142H211.832ZM212.977 140.984H215.249C215.996 140.984 216.527 140.84 216.841 140.55C217.158 140.258 217.317 139.904 217.317 139.489C217.317 139.169 217.235 138.873 217.072 138.602C216.909 138.328 216.677 138.11 216.375 137.947C216.073 137.781 215.716 137.697 215.304 137.697H212.977V140.984ZM212.977 136.7H215.101C215.446 136.7 215.756 136.633 216.033 136.497C216.313 136.362 216.535 136.171 216.698 135.925C216.864 135.679 216.947 135.389 216.947 135.057C216.947 134.641 216.803 134.289 216.513 134C216.224 133.707 215.766 133.561 215.138 133.561H212.977V136.7ZM220.287 142V132.545H223.482C224.221 132.545 224.827 132.672 225.301 132.924C225.775 133.173 226.126 133.516 226.354 133.953C226.581 134.391 226.695 134.888 226.695 135.445C226.695 136.002 226.581 136.496 226.354 136.926C226.126 137.357 225.776 137.696 225.306 137.942C224.835 138.185 224.233 138.307 223.501 138.307H220.915V137.273H223.464C223.968 137.273 224.375 137.199 224.682 137.051C224.993 136.903 225.218 136.694 225.356 136.423C225.498 136.149 225.569 135.823 225.569 135.445C225.569 135.066 225.498 134.735 225.356 134.452C225.215 134.169 224.989 133.95 224.678 133.797C224.367 133.64 223.956 133.561 223.445 133.561H221.432V142H220.287ZM224.738 137.753L227.064 142H225.735L223.445 137.753H224.738ZM228.991 142H227.79L231.262 132.545H232.444L235.915 142H234.715L231.89 134.041H231.816L228.991 142ZM229.434 138.307H234.272V139.322H229.434V138.307ZM244.885 132.545V142H243.777L238.625 134.577H238.533V142H237.388V132.545H238.496L243.666 139.987H243.759V132.545H244.885ZM250.094 142H247.176V132.545H250.223C251.14 132.545 251.925 132.735 252.577 133.113C253.23 133.489 253.73 134.029 254.078 134.734C254.426 135.435 254.599 136.276 254.599 137.254C254.599 138.239 254.424 139.087 254.073 139.798C253.722 140.506 253.211 141.051 252.54 141.432C251.87 141.811 251.054 142 250.094 142ZM248.321 140.984H250.02C250.802 140.984 251.449 140.834 251.963 140.532C252.477 140.23 252.861 139.801 253.113 139.244C253.365 138.687 253.491 138.024 253.491 137.254C253.491 136.491 253.367 135.834 253.118 135.283C252.868 134.729 252.496 134.304 252 134.009C251.505 133.71 250.888 133.561 250.149 133.561H248.321V140.984Z" fill="#333333"/>
<path d="M299.812 132.545H301.178L304.391 140.393H304.502L307.715 132.545H309.081V142H308.01V134.817H307.918L304.964 142H303.929L300.975 134.817H300.883V142H299.812V132.545ZM319.354 137.273C319.354 138.27 319.174 139.132 318.814 139.858C318.454 140.584 317.96 141.144 317.332 141.538C316.704 141.932 315.987 142.129 315.181 142.129C314.375 142.129 313.657 141.932 313.03 141.538C312.402 141.144 311.908 140.584 311.548 139.858C311.188 139.132 311.008 138.27 311.008 137.273C311.008 136.276 311.188 135.414 311.548 134.688C311.908 133.961 312.402 133.401 313.03 133.007C313.657 132.613 314.375 132.416 315.181 132.416C315.987 132.416 316.704 132.613 317.332 133.007C317.96 133.401 318.454 133.961 318.814 134.688C319.174 135.414 319.354 136.276 319.354 137.273ZM318.246 137.273C318.246 136.454 318.109 135.763 317.835 135.2C317.565 134.637 317.197 134.21 316.732 133.921C316.27 133.632 315.753 133.487 315.181 133.487C314.608 133.487 314.09 133.632 313.625 133.921C313.164 134.21 312.796 134.637 312.522 135.2C312.251 135.763 312.116 136.454 312.116 137.273C312.116 138.091 312.251 138.782 312.522 139.346C312.796 139.909 313.164 140.335 313.625 140.624C314.09 140.914 314.608 141.058 315.181 141.058C315.753 141.058 316.27 140.914 316.732 140.624C317.197 140.335 317.565 139.909 317.835 139.346C318.109 138.782 318.246 138.091 318.246 137.273ZM324.197 142H321.279V132.545H324.326C325.243 132.545 326.028 132.735 326.681 133.113C327.333 133.489 327.833 134.029 328.181 134.734C328.529 135.435 328.703 136.276 328.703 137.254C328.703 138.239 328.527 139.087 328.176 139.798C327.825 140.506 327.315 141.051 326.644 141.432C325.973 141.811 325.157 142 324.197 142ZM322.424 140.984H324.123C324.905 140.984 325.553 140.834 326.067 140.532C326.581 140.23 326.964 139.801 327.216 139.244C327.468 138.687 327.595 138.024 327.595 137.254C327.595 136.491 327.47 135.834 327.221 135.283C326.971 134.729 326.599 134.304 326.104 134.009C325.608 133.71 324.991 133.561 324.252 133.561H322.424V140.984ZM330.623 142V132.545H336.329V133.561H331.768V136.756H336.034V137.771H331.768V140.984H336.403V142H330.623ZM338.393 142V132.545H339.537V140.984H343.932V142H338.393ZM349.084 142L350.635 132.545H351.559L350.008 142H349.084ZM344.782 139.378L344.929 138.455H351.983L351.836 139.378H344.782ZM345.76 142L347.312 132.545H348.235L346.684 142H345.76ZM345.336 136.091L345.483 135.168H352.537L352.39 136.091H345.336Z" fill="#333333"/>
<path d="M437.649 134.909C437.593 134.441 437.369 134.078 436.975 133.82C436.581 133.561 436.097 133.432 435.525 133.432C435.106 133.432 434.74 133.5 434.426 133.635C434.115 133.77 433.872 133.957 433.697 134.194C433.525 134.431 433.438 134.7 433.438 135.001C433.438 135.254 433.498 135.471 433.618 135.652C433.742 135.831 433.898 135.98 434.089 136.1C434.28 136.217 434.48 136.314 434.689 136.391C434.899 136.465 435.091 136.525 435.266 136.571L436.227 136.83C436.473 136.894 436.747 136.983 437.048 137.097C437.353 137.211 437.644 137.367 437.921 137.564C438.201 137.757 438.432 138.007 438.613 138.311C438.795 138.616 438.886 138.99 438.886 139.433C438.886 139.944 438.752 140.406 438.484 140.818C438.219 141.231 437.832 141.558 437.321 141.801C436.813 142.045 436.196 142.166 435.47 142.166C434.793 142.166 434.206 142.057 433.711 141.838C433.218 141.62 432.831 141.315 432.547 140.924C432.267 140.533 432.109 140.08 432.072 139.562H433.254C433.284 139.92 433.405 140.215 433.614 140.449C433.826 140.68 434.094 140.852 434.417 140.966C434.743 141.077 435.094 141.132 435.47 141.132C435.907 141.132 436.299 141.061 436.647 140.92C436.995 140.775 437.27 140.575 437.473 140.32C437.676 140.061 437.778 139.759 437.778 139.415C437.778 139.101 437.69 138.845 437.515 138.648C437.339 138.451 437.108 138.291 436.822 138.168C436.536 138.045 436.227 137.937 435.894 137.845L434.731 137.513C433.992 137.3 433.408 136.997 432.977 136.603C432.546 136.209 432.33 135.694 432.33 135.057C432.33 134.527 432.474 134.066 432.76 133.672C433.049 133.275 433.437 132.967 433.923 132.749C434.412 132.527 434.959 132.416 435.562 132.416C436.171 132.416 436.713 132.525 437.187 132.744C437.661 132.959 438.036 133.255 438.313 133.63C438.593 134.006 438.741 134.432 438.757 134.909H437.649ZM440.768 142V132.545H446.474V133.561H441.913V136.756H446.179V137.771H441.913V140.984H446.548V142H440.768ZM448.538 142V132.545H451.732C452.471 132.545 453.077 132.672 453.551 132.924C454.025 133.173 454.376 133.516 454.604 133.953C454.832 134.391 454.945 134.888 454.945 135.445C454.945 136.002 454.832 136.496 454.604 136.926C454.376 137.357 454.027 137.696 453.556 137.942C453.085 138.185 452.483 138.307 451.751 138.307H449.166V137.273H451.714C452.219 137.273 452.625 137.199 452.933 137.051C453.243 136.903 453.468 136.694 453.607 136.423C453.748 136.149 453.819 135.823 453.819 135.445C453.819 135.066 453.748 134.735 453.607 134.452C453.465 134.169 453.239 133.95 452.928 133.797C452.617 133.64 452.206 133.561 451.695 133.561H449.683V142H448.538ZM452.988 137.753L455.315 142H453.985L451.695 137.753H452.988ZM457.998 132.545V142H456.853V132.545H457.998ZM460.681 142H459.481L462.953 132.545H464.134L467.606 142H466.406L463.58 134.041H463.507L460.681 142ZM461.125 138.307H465.963V139.322H461.125V138.307ZM469.079 142V132.545H470.224V140.984H474.618V142H469.079ZM479.77 142L481.322 132.545H482.245L480.694 142H479.77ZM475.468 139.378L475.616 138.455H482.67L482.522 139.378H475.468ZM476.447 142L477.998 132.545H478.921L477.37 142H476.447ZM476.022 136.091L476.17 135.168H483.224L483.076 136.091H476.022Z" fill="#333333"/>
</g>
</g>
<defs>
<filter id="filter0_dddd_264_1304" x="0" y="0" width="686" height="324" filterUnits="userSpaceOnUse" color-interpolation-filters="sRGB">
<feFlood flood-opacity="0" result="BackgroundImageFix"/>
<feColorMatrix in="SourceAlpha" type="matrix" values="0 0 0 0 0 0 0 0 0 0 0 0 0 0 0 0 0 0 127 0" result="hardAlpha"/>
<feOffset dy="1.96875"/>
<feGaussianBlur stdDeviation="3.2375"/>
<feColorMatrix type="matrix" values="0 0 0 0 0 0 0 0 0 0 0 0 0 0 0 0 0 0 0.0195 0"/>
<feBlend mode="normal" in2="BackgroundImageFix" result="effect1_dropShadow_264_1304"/>
<feColorMatrix in="SourceAlpha" type="matrix" values="0 0 0 0 0 0 0 0 0 0 0 0 0 0 0 0 0 0 127 0" result="hardAlpha"/>
<feOffset dy="9"/>
<feGaussianBlur stdDeviation="9.1"/>
<feColorMatrix type="matrix" values="0 0 0 0 0 0 0 0 0 0 0 0 0 0 0 0 0 0 0.03 0"/>
<feBlend mode="normal" in2="effect1_dropShadow_264_1304" result="effect2_dropShadow_264_1304"/>
<feColorMatrix in="SourceAlpha" type="matrix" values="0 0 0 0 0 0 0 0 0 0 0 0 0 0 0 0 0 0 127 0" result="hardAlpha"/>
<feOffset dy="22.7812"/>
<feGaussianBlur stdDeviation="24.4125"/>
<feColorMatrix type="matrix" values="0 0 0 0 0 0 0 0 0 0 0 0 0 0 0 0 0 0 0.0405 0"/>
<feBlend mode="normal" in2="effect2_dropShadow_264_1304" result="effect3_dropShadow_264_1304"/>
<feColorMatrix in="SourceAlpha" type="matrix" values="0 0 0 0 0 0 0 0 0 0 0 0 0 0 0 0 0 0 127 0" result="hardAlpha"/>
<feOffset dy="45"/>
<feGaussianBlur stdDeviation="56"/>
<feColorMatrix type="matrix" values="0 0 0 0 0 0 0 0 0 0 0 0 0 0 0 0 0 0 0.06 0"/>
<feBlend mode="normal" in2="effect3_dropShadow_264_1304" result="effect4_dropShadow_264_1304"/>
<feBlend mode="normal" in="SourceGraphic" in2="effect4_dropShadow_264_1304" result="shape"/>
</filter>
<filter id="filter1_i_264_1304" x="132" y="80" width="14" height="15" filterUnits="userSpaceOnUse" color-interpolation-filters="sRGB">
<feFlood flood-opacity="0" result="BackgroundImageFix"/>
<feBlend mode="normal" in="SourceGraphic" in2="BackgroundImageFix" result="shape"/>
<feColorMatrix in="SourceAlpha" type="matrix" values="0 0 0 0 0 0 0 0 0 0 0 0 0 0 0 0 0 0 127 0" result="hardAlpha"/>
<feOffset dy="1"/>
<feGaussianBlur stdDeviation="1"/>
<feComposite in2="hardAlpha" operator="arithmetic" k2="-1" k3="1"/>
<feColorMatrix type="matrix" values="0 0 0 0 0 0 0 0 0 0 0 0 0 0 0 0 0 0 0.2 0"/>
<feBlend mode="normal" in2="shape" result="effect1_innerShadow_264_1304"/>
</filter>
<filter id="filter2_i_264_1304" x="132" y="130" width="14" height="15" filterUnits="userSpaceOnUse" color-interpolation-filters="sRGB">
<feFlood flood-opacity="0" result="BackgroundImageFix"/>
<feBlend mode="normal" in="SourceGraphic" in2="BackgroundImageFix" result="shape"/>
<feColorMatrix in="SourceAlpha" type="matrix" values="0 0 0 0 0 0 0 0 0 0 0 0 0 0 0 0 0 0 127 0" result="hardAlpha"/>
<feOffset dy="1"/>
<feGaussianBlur stdDeviation="1"/>
<feComposite in2="hardAlpha" operator="arithmetic" k2="-1" k3="1"/>
<feColorMatrix type="matrix" values="0 0 0 0 0 0 0 0 0 0 0 0 0 0 0 0 0 0 0.2 0"/>
<feBlend mode="normal" in2="shape" result="effect1_innerShadow_264_1304"/>
</filter>
<linearGradient id="paint0_linear_264_1304" x1="146" y1="94" x2="146" y2="80" gradientUnits="userSpaceOnUse">
<stop stop-color="#C8C8C8"/>
<stop offset="1" stop-color="#979797"/>
</linearGradient>
<linearGradient id="paint1_linear_264_1304" x1="146" y1="144" x2="146" y2="130" gradientUnits="userSpaceOnUse">
<stop stop-color="#C8C8C8"/>
<stop offset="1" stop-color="#979797"/>
</linearGradient>
<clipPath id="clip0_264_1304">
<rect x="112" y="67" width="462" height="100" rx="10" fill="white"/>
</clipPath>
</defs>
</svg>
