<svg width="148" height="147" viewBox="0 0 148 147" fill="none" xmlns="http://www.w3.org/2000/svg">
<path d="M102.239 72.0347C101.912 82.6274 84.7674 82.5893 63.6374 81.7281C42.5074 80.8669 25.3943 79.4938 25.7097 68.914C25.7218 68.5852 25.7483 68.2575 25.7892 67.9319C26.5299 77.6548 43.2343 78.9057 63.6898 79.7745C84.1453 80.6433 100.884 80.6546 102.227 71.0091C102.248 71.3504 102.251 71.6929 102.239 72.0347V72.0347Z" fill="#9B7249"/>
<path d="M102.227 71.0091C100.893 80.6236 84.1672 80.5659 63.7029 79.7281C43.2387 78.8902 26.5496 77.5851 25.8023 67.8854C27.1419 57.8096 44.0961 50.455 64.5581 51.2748C85.0201 52.0946 101.485 60.8481 102.227 71.0091Z" fill="#B08655"/>
<path d="M49.1349 62.736C50.1754 62.4297 50.8761 61.527 50.6999 60.72C50.5238 59.9129 49.5375 59.5069 48.497 59.8133C47.4565 60.1196 46.7558 61.0222 46.932 61.8293C47.1082 62.6364 48.0944 63.0423 49.1349 62.736Z" fill="#755330"/>
<path d="M53.2978 72.9657C54.3383 72.6594 55.039 71.7568 54.8629 70.9497C54.6867 70.1426 53.7004 69.7367 52.6599 70.043C51.6194 70.3493 50.9187 71.2519 51.0949 72.059C51.2711 72.8661 52.2573 73.2721 53.2978 72.9657Z" fill="#755330"/>
<path d="M45.3884 69.6152C46.4289 69.3088 47.1296 68.4062 46.9534 67.5991C46.7773 66.792 45.791 66.3861 44.7505 66.6924C43.71 66.9987 43.0093 67.9013 43.1855 68.7084C43.3616 69.5155 44.3479 69.9215 45.3884 69.6152Z" fill="#755330"/>
<path d="M65.1869 60.6102C66.2441 60.7654 67.1745 60.218 67.2649 59.3875C67.3553 58.557 66.5715 57.7579 65.5143 57.6026C64.457 57.4474 63.5267 57.9948 63.4363 58.8253C63.3459 59.6558 64.1297 60.4549 65.1869 60.6102Z" fill="#755330"/>
<path d="M69.7352 65.0838C70.7925 65.2391 71.7228 64.6916 71.8132 63.8611C71.9036 63.0306 71.1199 62.2315 70.0626 62.0763C69.0054 61.921 68.075 62.4684 67.9846 63.2989C67.8942 64.1295 68.678 64.9286 69.7352 65.0838Z" fill="#755330"/>
<path d="M68.448 70.7269C69.4696 71.079 70.464 70.7138 70.669 69.9113C70.8741 69.1088 70.2121 68.1728 69.1905 67.8207C68.1689 67.4685 67.1745 67.8337 66.9694 68.6362C66.7644 69.4388 67.4263 70.3748 68.448 70.7269Z" fill="#755330"/>
<path d="M63.9966 55.1036C65.0538 55.2588 65.9842 54.7114 66.0746 53.8809C66.165 53.0504 65.3812 52.2513 64.324 52.096C63.2667 51.9408 62.3364 52.4882 62.246 53.3187C62.1556 54.1492 62.9393 54.9483 63.9966 55.1036Z" fill="#755330"/>
<path d="M80.6824 69.98C81.7519 69.8735 82.5693 69.1146 82.508 68.285C82.4467 67.4554 81.5301 66.8693 80.4606 66.9758C79.3911 67.0823 78.5738 67.8412 78.6351 68.6708C78.6963 69.5004 79.613 70.0865 80.6824 69.98Z" fill="#755330"/>
<path d="M85.777 62.6574C86.8175 62.3511 87.5182 61.4484 87.342 60.6413C87.1659 59.8342 86.1796 59.4283 85.1391 59.7346C84.0986 60.041 83.3979 60.9436 83.5741 61.7507C83.7502 62.5578 84.7365 62.9637 85.777 62.6574Z" fill="#755330"/>
<path d="M76.9429 61.4959C78.0002 61.6512 78.9305 61.1037 79.0209 60.2732C79.1113 59.4427 78.3276 58.6436 77.2703 58.4884C76.2131 58.3331 75.2827 58.8805 75.1923 59.7111C75.1019 60.5416 75.8857 61.3407 76.9429 61.4959Z" fill="#755330"/>
<path d="M80.9232 58.997C81.9784 59.1537 82.9078 58.6087 82.999 57.7798C83.0902 56.9509 82.3087 56.1519 81.2535 55.9953C80.1983 55.8386 79.269 56.3836 79.1777 57.2126C79.0865 58.0415 79.868 58.8404 80.9232 58.997Z" fill="#755330"/>
<path d="M60.1969 67.9224C61.2185 68.2745 62.213 67.9094 62.418 67.1069C62.6231 66.3043 61.9611 65.3683 60.9395 65.0162C59.9178 64.6641 58.9234 65.0292 58.7184 65.8318C58.5133 66.6343 59.1753 67.5703 60.1969 67.9224Z" fill="#755330"/>
<path d="M89.7089 75.0096C90.7305 75.3617 91.7249 74.9966 91.93 74.194C92.135 73.3915 91.4731 72.4555 90.4514 72.1034C89.4298 71.7513 88.4354 72.1164 88.2303 72.9189C88.0253 73.7215 88.6873 74.6575 89.7089 75.0096Z" fill="#755330"/>
<path d="M54.3021 55.7828C55.3593 55.938 56.2897 55.3906 56.3801 54.5601C56.4705 53.7296 55.6867 52.9305 54.6295 52.7752C53.5722 52.62 52.6419 53.1674 52.5515 53.9979C52.4611 54.8284 53.2448 55.6275 54.3021 55.7828Z" fill="#755330"/>
<path d="M58.0703 61.6185C59.1276 61.7737 60.0579 61.2263 60.1483 60.3958C60.2387 59.5653 59.4549 58.7662 58.3977 58.6109C57.3405 58.4557 56.4101 59.0031 56.3197 59.8336C56.2293 60.6641 57.0131 61.4632 58.0703 61.6185Z" fill="#755330"/>
<path d="M41.2612 61.5684C42.3185 61.7237 43.2488 61.1763 43.3392 60.3457C43.4296 59.5152 42.6459 58.7161 41.5886 58.5609C40.5314 58.4056 39.601 58.953 39.5106 59.7836C39.4202 60.6141 40.204 61.4132 41.2612 61.5684Z" fill="#755330"/>
<path d="M71.6133 56.046C72.6706 56.2012 73.6009 55.6538 73.6913 54.8233C73.7817 53.9928 72.998 53.1937 71.9407 53.0384C70.8835 52.8832 69.9531 53.4306 69.8627 54.2611C69.7723 55.0916 70.5561 55.8907 71.6133 56.046Z" fill="#755330"/>
<path opacity="0.67" d="M75.7741 58.8647C70.2812 59.5319 46.3874 68.3195 45.0157 78.6394C43.644 88.9594 104.436 75.3966 104.436 75.3966C104.436 75.3966 105.143 68.544 97.726 63.0517C90.3089 57.5595 83.1949 57.9236 75.7741 58.8647Z" fill="#755330"/>
<path d="M121.165 81.2697C121.49 91.8651 104.384 93.2378 83.2462 94.1231C62.1084 95.0084 44.9659 95.0536 44.6278 84.4871C44.6119 84.1567 44.618 83.8254 44.646 83.4961C45.9842 93.1062 62.7128 93.0307 83.185 92.1645C103.657 91.2983 120.329 89.9932 121.079 80.2984C121.121 80.6176 121.149 80.9413 121.165 81.2697Z" fill="#9B7249"/>
<path d="M121.083 80.273C120.346 89.939 103.648 91.2837 83.1885 92.1392C62.729 92.9947 45.9974 93.0592 44.6496 83.4707C45.3821 73.2871 61.8628 64.5568 82.3037 63.69C102.744 62.8232 119.733 70.1778 121.083 80.273Z" fill="#B08655"/>
<path d="M67.6291 76.366C68.6483 75.9748 69.2921 75.0167 69.0671 74.2261C68.8421 73.4356 67.8335 73.1119 66.8143 73.5032C65.7952 73.8945 65.1514 74.8525 65.3764 75.6431C65.6014 76.4336 66.61 76.7573 67.6291 76.366Z" fill="#755330"/>
<path d="M72.4001 86.2137C73.4192 85.8224 74.063 84.8644 73.838 84.0738C73.613 83.2833 72.6044 82.9596 71.5853 83.3509C70.5661 83.7421 69.9223 84.7002 70.1473 85.4907C70.3723 86.2813 71.3809 86.605 72.4001 86.2137Z" fill="#755330"/>
<path d="M64.3078 83.5223C65.327 83.131 65.9708 82.173 65.7458 81.3824C65.5208 80.5919 64.5121 80.2682 63.493 80.6595C62.4738 81.0507 61.83 82.0088 62.055 82.7993C62.28 83.5899 63.2886 83.9136 64.3078 83.5223Z" fill="#755330"/>
<path d="M83.5109 72.9199C84.5749 72.9877 85.4695 72.365 85.509 71.5291C85.5484 70.6932 84.7178 69.9607 83.6538 69.8929C82.5897 69.8252 81.6951 70.4479 81.6557 71.2837C81.6162 72.1196 82.4468 72.8521 83.5109 72.9199Z" fill="#755330"/>
<path d="M88.3212 76.9968C89.3853 77.0646 90.2799 76.4419 90.3193 75.606C90.3588 74.7701 89.5282 74.0376 88.4641 73.9699C87.4001 73.9021 86.5055 74.5248 86.466 75.3606C86.4266 76.1965 87.2572 76.929 88.3212 76.9968Z" fill="#755330"/>
<path d="M86.1813 85.7358C87.2453 85.8036 88.1399 85.1809 88.1794 84.345C88.2188 83.5092 87.3882 82.7766 86.3242 82.7089C85.2601 82.6411 84.3655 83.2638 84.3261 84.0997C84.2866 84.9355 85.1172 85.6681 86.1813 85.7358Z" fill="#755330"/>
<path d="M81.9839 67.5254C83.048 67.5931 83.9426 66.9704 83.982 66.1346C84.0215 65.2987 83.1909 64.5662 82.1268 64.4984C81.0628 64.4307 80.1682 65.0533 80.1287 65.8892C80.0893 66.7251 80.9199 67.4576 81.9839 67.5254Z" fill="#755330"/>
<path d="M97.9355 81.7147C98.9547 81.3234 99.5985 80.3653 99.3735 79.5748C99.1485 78.7842 98.1399 78.4605 97.1207 78.8518C96.1015 79.2431 95.4577 80.2012 95.6827 80.9917C95.9077 81.7823 96.9163 82.1059 97.9355 81.7147Z" fill="#755330"/>
<path d="M104.487 76.5444C105.557 76.6539 106.474 76.0704 106.537 75.241C106.6 74.4116 105.785 73.6504 104.715 73.5409C103.646 73.4313 102.728 74.0149 102.665 74.8443C102.602 75.6737 103.418 76.4349 104.487 76.5444Z" fill="#755330"/>
<path d="M95.2948 72.8283C96.3589 72.8961 97.2534 72.2734 97.2929 71.4376C97.3324 70.6017 96.5018 69.8692 95.4377 69.8014C94.3736 69.7336 93.4791 70.3563 93.4396 71.1922C93.4001 72.0281 94.2307 72.7606 95.2948 72.8283Z" fill="#755330"/>
<path d="M100.97 70.7878C102.034 70.8556 102.928 70.2329 102.968 69.397C103.007 68.5612 102.176 67.8286 101.112 67.7609C100.048 67.6931 99.1538 68.3158 99.1143 69.1517C99.0749 69.9875 99.9055 70.7201 100.97 70.7878Z" fill="#755330"/>
<path d="M80.1418 82.5581C81.2058 82.6258 82.1004 82.0032 82.1399 81.1673C82.1793 80.3314 81.3487 79.5989 80.2847 79.5311C79.2206 79.4634 78.326 80.0861 78.2866 80.9219C78.2471 81.7578 79.0777 82.4903 80.1418 82.5581Z" fill="#755330"/>
<path d="M107.719 84.1784C108.783 84.2462 109.677 83.6235 109.717 82.7877C109.756 81.9518 108.926 81.2193 107.862 81.1515C106.798 81.0837 105.903 81.7064 105.863 82.5423C105.824 83.3782 106.655 84.1107 107.719 84.1784Z" fill="#755330"/>
<path d="M72.3529 68.9961C73.417 69.0638 74.3115 68.4412 74.351 67.6053C74.3905 66.7694 73.5599 66.0369 72.4958 65.9691C71.4317 65.9014 70.5372 66.524 70.4977 67.3599C70.4582 68.1958 71.2888 68.9283 72.3529 68.9961Z" fill="#755330"/>
<path d="M76.475 74.5036C77.5391 74.5714 78.4337 73.9487 78.4731 73.1129C78.5126 72.277 77.682 71.5444 76.6179 71.4767C75.5539 71.4089 74.6593 72.0316 74.6198 72.8675C74.5804 73.7033 75.411 74.4359 76.475 74.5036Z" fill="#755330"/>
<path d="M59.7022 75.8401C60.7663 75.9078 61.6608 75.2851 61.7003 74.4493C61.7398 73.6134 60.9092 72.8809 59.8451 72.8131C58.781 72.7454 57.8865 73.368 57.847 74.2039C57.8076 75.0398 58.6382 75.7723 59.7022 75.8401Z" fill="#755330"/>
<path d="M89.6401 67.8366C90.7041 67.9044 91.5987 67.2817 91.6382 66.4459C91.6776 65.61 90.847 64.8775 89.783 64.8097C88.7189 64.7419 87.8243 65.3646 87.7849 66.2005C87.7454 67.0364 88.576 67.7689 89.6401 67.8366Z" fill="#755330"/>
</svg>
