<svg width="147" height="147" viewBox="0 0 147 147" fill="none" xmlns="http://www.w3.org/2000/svg">
<path d="M54.5277 46.0117C37.9715 46.0524 24.3087 53.5688 22.1617 63.2767C22.2094 63.438 22.2586 63.6047 22.3079 63.7714C24.8619 73.2241 38.3738 80.4088 54.6389 80.3723C70.9041 80.3358 84.3774 73.0682 86.8831 63.6051C86.9278 63.4399 86.9709 63.2693 87.0049 63.1072C84.7822 53.4105 71.0823 45.9656 54.5277 46.0117ZM66.7886 60.2191C66.7911 60.4489 66.7749 60.6786 66.7401 60.9058C66.1822 64.6953 60.953 67.6731 54.5856 67.69C48.2181 67.7069 42.9659 64.7517 42.3918 60.9693C42.3585 60.742 42.3415 60.5126 42.3409 60.2828C42.3376 60.1124 42.3458 59.942 42.3655 59.7727C42.345 59.6047 42.3361 59.4355 42.3386 59.2662C42.3416 58.5595 42.5032 57.8624 42.8115 57.2264V57.2264C44.2634 54.1081 48.9706 51.8166 54.5609 51.8013C60.1513 51.7861 64.8682 54.0576 66.3366 57.1665C66.6344 57.8042 66.7862 58.5003 66.7809 59.2041C66.7825 59.3745 66.7742 59.5448 66.7563 59.7142C66.7779 59.8816 66.7887 60.0503 66.7886 60.2191V60.2191Z" fill="#DDA94E"/>
<path d="M66.7883 60.2193C66.7909 60.4491 66.7746 60.6787 66.7398 60.9059C66.1819 64.6955 60.9527 67.6733 54.5853 67.6902C48.2179 67.707 42.9657 64.7518 42.3915 60.9695C42.3582 60.7421 42.3412 60.5127 42.3406 60.283C42.3373 60.1126 42.3455 59.9422 42.3652 59.7729C42.3792 59.8311 42.3961 59.8885 42.4161 59.945C42.9902 63.7273 48.2355 66.6787 54.6099 66.6656C60.9843 66.6525 66.2066 63.671 66.7645 59.8814C66.7755 59.8197 66.7811 59.7596 66.7883 59.7048C66.7995 59.8761 66.7996 60.048 66.7883 60.2193V60.2193Z" fill="#CB9A4B"/>
<path d="M66.7807 59.2042C66.7823 59.3745 66.774 59.5448 66.7561 59.7142C66.6873 59.1865 66.5356 58.6729 66.3064 58.1926V58.1926C64.838 55.0838 60.1211 52.8122 54.5308 52.8275C48.9404 52.8427 44.2333 55.1342 42.7813 58.2526C42.5551 58.7339 42.4092 59.249 42.3492 59.7775C42.3287 59.6095 42.3197 59.4403 42.3223 59.271C42.3295 58.5614 42.4967 57.8626 42.8113 57.2265V57.2265C44.2632 54.1081 48.9704 51.8166 54.5607 51.8014C60.1511 51.7861 64.868 54.0577 66.3364 57.1665C66.6342 57.8042 66.786 58.5003 66.7807 59.2042V59.2042Z" fill="#CB9A4B"/>
<path d="M87.1204 62.4301C87.084 62.663 87.039 62.8868 86.9833 63.1137C84.7821 53.4106 71.0823 45.9657 54.5277 46.0118C37.973 46.0578 24.3087 53.5689 22.1617 63.2768C22.0965 63.0564 22.0582 62.828 22.02 62.5996C23.6796 52.568 37.5903 44.7035 54.5262 44.6617C71.4621 44.6199 85.4146 52.4052 87.1204 62.4301Z" fill="#EAB259"/>
<path d="M87.2895 64.4671C87.3229 75.4598 72.7172 84.395 54.6116 84.4551C36.506 84.5152 21.8713 75.6279 21.861 64.6341C21.8578 63.9527 21.9109 63.2722 22.0196 62.5995C23.7239 72.6191 37.6811 80.4205 54.617 80.3786C71.5529 80.3368 85.4621 72.467 87.1201 62.43C87.2328 63.1032 87.2895 63.7845 87.2895 64.4671V64.4671Z" fill="#CB9A4B"/>
<path d="M84.4498 60.08C84.5392 60.0445 84.6374 60.038 84.7307 60.0613C86.0147 60.3307 86.5498 60.1434 86.2458 59.4907C86.2267 59.4262 86.1759 59.2542 86.0546 58.9626C85.0504 56.3363 79.7113 44.8186 55.0595 44.6269C27.8914 44.4072 26.0758 53.9704 22.5753 58.1093C21.7882 59.1169 21.3338 60.3442 21.2748 61.6214C21.1113 63.8971 21.9495 66.2977 23.8389 67.1717C26.8211 68.5586 30.8603 65.7279 31.4768 67.9719C31.544 68.2337 31.5858 68.5013 31.6018 68.771C31.6633 69.6122 31.5615 70.6128 31.5236 71.612L31.5331 71.6443C31.4722 73.4161 31.6438 75.1836 33.4072 76.0071C36.4676 77.4411 41.8996 73.2108 43.4908 73.4713C45.0819 73.7318 47.7535 80.1799 50.8249 80.7805C53.8963 81.3811 53.67 73.8303 55.1242 73.1725C56.5784 72.5147 63.8854 79.8904 66.2901 78.9868C68.6948 78.0832 67.6221 71.4666 68.146 70.7271C68.6699 69.9877 77.5105 74.5015 78.6954 72.3389C79.8803 70.1764 78.439 68.0885 81.7478 69.0574C85.0567 70.0263 85.7895 65.7407 85.5742 64.4188C85.3853 63.206 83.7933 60.3909 84.4498 60.08ZM45.4132 57.5041C45.408 55.2315 49.868 53.3697 55.3659 53.3583C60.8639 53.347 65.3281 55.1788 65.3377 57.4267C65.3392 57.6238 65.306 57.8197 65.2397 58.0053C65.3015 58.184 65.3351 58.3713 65.3394 58.5604C65.3393 60.8346 60.89 62.6933 55.3867 62.7062C49.8833 62.7191 45.4245 60.8857 45.4149 58.6378C45.4139 58.4433 45.4457 58.2501 45.5091 58.0662C45.4453 57.8857 45.4129 57.6956 45.4132 57.5041V57.5041Z" fill="#F38EBB"/>
<path d="M65.3155 57.7081C65.2986 57.8176 65.2717 57.9253 65.2352 58.0299C64.5646 56.0182 60.3989 54.4841 55.374 54.5135C50.349 54.5429 46.174 56.0632 45.5169 58.0931C45.4755 57.9927 45.4446 57.8882 45.4248 57.7813C45.7086 55.6161 50.0435 53.8848 55.375 53.8643C60.7065 53.8437 65.0155 55.5459 65.3155 57.7081Z" fill="#E080AD"/>
<path d="M65.3333 57.4512C65.3362 57.5371 65.3303 57.6231 65.3156 57.7078C65.0156 55.5457 60.6595 53.8223 55.365 53.8495C50.0705 53.8767 45.7201 55.595 45.4148 57.7665C45.3989 57.682 45.3911 57.5962 45.3917 57.5103C45.3865 55.2376 49.8464 53.3758 55.3444 53.3645C60.8424 53.3531 65.3281 55.1786 65.3333 57.4512Z" fill="#F38EBB"/>
<path d="M38.8741 56.9811C38.7226 56.9812 38.575 56.9326 38.4531 56.8424C37.9496 56.4945 37.3617 56.2886 36.7511 56.2463V56.2463C36.1744 56.312 35.6063 56.4387 35.0564 56.6244C34.9656 56.6627 34.8678 56.6818 34.7693 56.6804C34.6707 56.679 34.5735 56.6571 34.4838 56.6162C34.3942 56.5753 34.314 56.5162 34.2483 56.4426C34.1827 56.3691 34.1331 56.2828 34.1025 56.189C34.072 56.0953 34.0612 55.9963 34.071 55.8982C34.0807 55.8001 34.1107 55.7051 34.159 55.6192C34.2073 55.5333 34.2729 55.4584 34.3517 55.3992C34.4305 55.34 34.5207 55.2978 34.6167 55.2753C35.3216 55.0465 36.0497 54.896 36.7876 54.8266C37.6967 54.8722 38.5738 55.1769 39.3154 55.7048C39.4432 55.7903 39.5396 55.9151 39.5899 56.0603C39.6403 56.2056 39.6419 56.3633 39.5945 56.5095C39.5472 56.6558 39.4534 56.7826 39.3274 56.8707C39.2015 56.9588 39.0503 57.0034 38.8966 56.9978L38.8741 56.9811Z" fill="#8E542D"/>
<path d="M37.069 53.4045C36.9161 53.4047 36.7674 53.354 36.6464 53.2605C36.141 52.9147 35.5518 52.7112 34.9406 52.6714V52.6714C34.3639 52.737 33.7958 52.8637 33.2459 53.0495C33.1551 53.0878 33.0573 53.1068 32.9588 53.1054C32.8602 53.104 32.7631 53.0821 32.6734 53.0412C32.5837 53.0003 32.5036 52.9412 32.4379 52.8677C32.3723 52.7941 32.3226 52.7078 32.292 52.6141C32.2615 52.5204 32.2507 52.4214 32.2605 52.3233C32.2702 52.2252 32.3002 52.1302 32.3485 52.0443C32.3968 51.9584 32.4625 51.8835 32.5413 51.8243C32.62 51.7651 32.7103 51.7228 32.8063 51.7003C33.5112 51.4715 34.2392 51.321 34.9771 51.2517C35.8846 51.2987 36.7603 51.6013 37.5034 52.1244C37.6272 52.2121 37.7197 52.3371 37.7675 52.4811C37.8154 52.625 37.8159 52.7805 37.7692 52.9249C37.7224 53.0692 37.6308 53.1948 37.5076 53.2834C37.3845 53.3721 37.2363 53.419 37.0846 53.4175L37.069 53.4045Z" fill="#E76924"/>
<path d="M70.9433 54.3962C70.7905 54.3953 70.6416 54.3474 70.5169 54.2591C70.0144 53.9092 69.4259 53.7031 68.8149 53.6631C68.2363 53.729 67.6665 53.8563 67.1148 54.0428C66.941 54.0826 66.7585 54.0558 66.6035 53.9677C66.4486 53.8795 66.3323 53.7364 66.2777 53.5667C66.2231 53.3969 66.2342 53.2129 66.3088 53.0509C66.3834 52.889 66.516 52.7609 66.6805 52.692C67.3854 52.4632 68.1135 52.3127 68.8513 52.2434C69.7601 52.2911 70.6366 52.5956 71.3792 53.1215C71.5069 53.207 71.6033 53.3319 71.6537 53.4771C71.704 53.6223 71.7057 53.78 71.6583 53.9263C71.6109 54.0725 71.5172 54.1993 71.3912 54.2874C71.2653 54.3755 71.114 54.4202 70.9604 54.4146L70.9433 54.3962Z" fill="#5B9741"/>
<path d="M72.6557 68.7569C72.5245 68.6794 72.4206 68.5629 72.3585 68.4238C72.0929 67.8712 71.6832 67.4006 71.1725 67.0613V67.0613C70.6405 66.8295 70.084 66.6587 69.5136 66.5519C69.4162 66.5393 69.3226 66.5067 69.2384 66.4562C69.1543 66.4056 69.0815 66.3382 69.0246 66.2582C68.9678 66.1782 68.9281 66.0873 68.908 65.9913C68.888 65.8952 68.888 65.796 68.9081 65.6999C68.9282 65.6039 68.968 65.513 69.0249 65.433C69.0818 65.353 69.1546 65.2857 69.2387 65.2352C69.3229 65.1847 69.4166 65.1522 69.5139 65.1396C69.6113 65.1271 69.7102 65.1347 69.8045 65.1622C70.5296 65.3102 71.2353 65.541 71.9078 65.8502C72.6756 66.338 73.2875 67.0356 73.6712 67.8604C73.7245 67.9968 73.7345 68.1464 73.6998 68.2887C73.6651 68.431 73.5873 68.5591 73.4771 68.6556C73.3669 68.7521 73.2296 68.8123 73.084 68.8279C72.9384 68.8435 72.7915 68.8138 72.6633 68.7429L72.6557 68.7569Z" fill="#5B9741"/>
<path d="M49.012 50.1967C48.9365 50.153 48.8761 50.0872 48.8393 50.0081C48.6889 49.693 48.456 49.4244 48.1653 49.231V49.231C47.8598 49.0937 47.5394 48.9922 47.2106 48.9285C47.1571 48.918 47.1062 48.8968 47.0611 48.8661C47.016 48.8354 46.9776 48.7959 46.9481 48.75C46.9187 48.704 46.8989 48.6526 46.8899 48.5988C46.8809 48.545 46.883 48.4899 46.8959 48.4369C46.9049 48.3826 46.9252 48.3309 46.9553 48.2848C46.9853 48.2388 47.0246 48.1995 47.0707 48.1694C47.1167 48.1393 47.1685 48.1191 47.2227 48.11C47.277 48.101 47.3325 48.1032 47.3858 48.1167C47.8002 48.2028 48.2038 48.3345 48.5893 48.5093C49.0228 48.7958 49.3668 49.1987 49.5817 49.6717C49.6172 49.7499 49.6267 49.8373 49.6091 49.9213C49.5915 50.0053 49.5476 50.0815 49.4837 50.1388C49.4198 50.1962 49.3394 50.2316 49.254 50.2401C49.1686 50.2486 49.0827 50.2296 49.0088 50.186L49.012 50.1967Z" fill="#E76924"/>
<path d="M44.6977 53.8977C44.6204 53.8562 44.5595 53.7897 44.525 53.709C44.3736 53.3926 44.1403 53.1225 43.8494 52.9265V52.9265C43.5431 52.7914 43.223 52.69 42.8948 52.624C42.7875 52.6013 42.6936 52.5369 42.6336 52.4451C42.5736 52.3533 42.5524 52.2414 42.5746 52.134C42.5851 52.0805 42.6063 52.0296 42.637 51.9845C42.6676 51.9394 42.7071 51.9009 42.7531 51.8715C42.799 51.8421 42.8504 51.8223 42.9042 51.8133C42.958 51.8043 43.0132 51.8063 43.0662 51.8192C43.4829 51.9022 43.8886 52.0334 44.275 52.2103C44.7124 52.4919 45.0615 52.8913 45.282 53.3625C45.3136 53.4405 45.3204 53.5264 45.3015 53.6084C45.2825 53.6904 45.2387 53.7646 45.176 53.8208C45.1134 53.877 45.035 53.9125 44.9514 53.9226C44.8678 53.9326 44.7832 53.9166 44.709 53.8768L44.6977 53.8977Z" fill="#E76924"/>
<path d="M43.216 49.0213C43.1301 49.0162 43.0472 48.9883 42.9757 48.9403C42.686 48.7411 42.3483 48.6229 41.9976 48.598V48.598C41.667 48.634 41.3414 48.7067 41.0269 48.8147C40.9241 48.8467 40.813 48.8369 40.7174 48.7874C40.6218 48.738 40.5495 48.6529 40.5162 48.5506C40.4998 48.5002 40.4934 48.447 40.4975 48.3941C40.5016 48.3412 40.5161 48.2897 40.5401 48.2424C40.5641 48.1951 40.5973 48.153 40.6376 48.1186C40.6779 48.0841 40.7246 48.0579 40.775 48.0415C41.1787 47.9075 41.5966 47.8213 42.0203 47.7845C42.5397 47.8144 43.0404 47.9883 43.4666 48.2866C43.5508 48.3512 43.6062 48.4462 43.6209 48.5513C43.6355 48.6564 43.6082 48.763 43.5448 48.8481C43.5073 48.9006 43.458 48.9435 43.4009 48.9736C43.3438 49.0037 43.2805 49.02 43.216 49.0213V49.0213Z" fill="#5B9741"/>
<path d="M59.4121 48.3565C59.4816 48.3037 59.5316 48.2293 59.5542 48.1449C59.6581 47.8112 59.8504 47.512 60.1108 47.2789V47.2789C60.3922 47.102 60.693 46.9582 61.0072 46.8502C61.0571 46.8318 61.1028 46.8037 61.1418 46.7675C61.1808 46.7313 61.2122 46.6878 61.2343 46.6394C61.2564 46.5911 61.2688 46.5388 61.2706 46.4857C61.2725 46.4325 61.2638 46.3795 61.2451 46.3298C61.2077 46.2286 61.1319 46.1463 61.0341 46.1008C60.9363 46.0552 60.8246 46.0501 60.7231 46.0865C60.3267 46.2338 59.9478 46.4242 59.593 46.6543C59.2024 46.9977 58.915 47.4429 58.7629 47.9403C58.7353 48.0447 58.7501 48.1558 58.804 48.2494C58.8579 48.3429 58.9466 48.4114 59.0508 48.4398C59.1133 48.4563 59.1788 48.4573 59.2417 48.4428C59.3047 48.4282 59.3631 48.3986 59.4121 48.3565V48.3565Z" fill="#5156A5"/>
<path d="M54.7098 51.0792C54.7117 50.9913 54.7448 50.9069 54.8032 50.8412C55.0155 50.563 55.1521 50.2346 55.1997 49.888V49.888C55.1848 49.5574 55.133 49.2295 55.0452 48.9105C55.0149 48.8078 55.0266 48.6973 55.0778 48.6033C55.1289 48.5092 55.2153 48.4393 55.3179 48.409C55.4206 48.3786 55.5311 48.3903 55.6252 48.4415C55.7192 48.4926 55.7891 48.579 55.8194 48.6817C55.9311 49.0912 55.9928 49.5126 56.0034 49.9369C55.9492 50.4537 55.747 50.9439 55.4208 51.3485C55.3514 51.4296 55.253 51.4805 55.1466 51.4901C55.0402 51.4997 54.9343 51.4673 54.8514 51.3998C54.8046 51.361 54.7674 51.3118 54.7429 51.2562C54.7183 51.2005 54.707 51.14 54.7098 51.0792V51.0792Z" fill="#5156A5"/>
<path d="M52.434 48.244C52.3599 48.1985 52.3001 48.1331 52.2613 48.0553C52.1078 47.7417 51.8716 47.476 51.5782 47.2868V47.2868C51.2705 47.1508 50.9484 47.0499 50.6182 46.9859C50.5128 46.9651 50.4199 46.9033 50.3601 46.8141C50.3003 46.7248 50.2784 46.6155 50.2992 46.5101C50.32 46.4047 50.3818 46.3119 50.471 46.2521C50.5602 46.1923 50.6696 46.1704 50.7749 46.1912C51.1917 46.2712 51.5979 46.3983 51.986 46.5699C52.426 46.8484 52.7797 47.2438 53.0075 47.712C53.0406 47.7901 53.0486 47.8765 53.0304 47.9593C53.0122 48.0421 52.9687 48.1173 52.906 48.1743C52.8433 48.2314 52.7644 48.2675 52.6802 48.2778C52.596 48.2881 52.5108 48.2719 52.4362 48.2317L52.434 48.244Z" fill="#8E542D"/>
<path d="M64.773 49.701C64.8699 49.6595 64.9513 49.5884 65.0053 49.4979C65.2272 49.1346 65.544 48.8388 65.9217 48.6424V48.6424C66.308 48.5259 66.7063 48.4534 67.1089 48.426C67.1736 48.4203 67.2366 48.4019 67.2942 48.3719C67.3518 48.3419 67.4029 48.3008 67.4446 48.251C67.4864 48.2012 67.518 48.1436 67.5375 48.0817C67.557 48.0197 67.5641 47.9545 67.5584 47.8897C67.5527 47.825 67.5343 47.7621 67.5043 47.7044C67.4742 47.6468 67.4332 47.5957 67.3834 47.5539C67.3336 47.5122 67.276 47.4807 67.2141 47.4612C67.1521 47.4416 67.0868 47.4345 67.0221 47.4402C66.5081 47.4837 66.0007 47.5846 65.5092 47.7412C64.9392 48.0176 64.4589 48.4494 64.1234 48.9868C64.0897 49.0426 64.0674 49.1046 64.0578 49.1691C64.0482 49.2336 64.0515 49.2994 64.0675 49.3626C64.0834 49.4258 64.1117 49.4853 64.1508 49.5375C64.1899 49.5897 64.239 49.6337 64.2952 49.6668C64.3657 49.7116 64.4464 49.7382 64.5298 49.7442C64.6132 49.7502 64.6968 49.7353 64.773 49.701V49.701Z" fill="#8E542D"/>
<path d="M43.8327 69.9792C43.9394 69.8704 44.0066 69.7291 44.0239 69.5778C44.1306 68.9742 44.3955 68.4097 44.7915 67.9419V67.9419C45.2448 67.5695 45.7384 67.2491 46.2631 66.9867C46.3454 66.9432 46.4184 66.8839 46.4778 66.8121C46.5373 66.7404 46.5819 66.6577 46.6094 66.5687C46.6368 66.4797 46.6465 66.3862 46.6378 66.2934C46.6291 66.2007 46.6021 66.1106 46.5586 66.0283C46.5151 65.946 46.4558 65.873 46.3841 65.8136C46.3123 65.7542 46.2296 65.7095 46.1406 65.682C46.0516 65.6546 45.9581 65.645 45.8653 65.6537C45.7726 65.6624 45.6825 65.6892 45.6002 65.7328C44.9424 66.0744 44.3258 66.4901 43.7623 66.9717C43.1611 67.6552 42.7668 68.4956 42.6252 69.3948C42.6065 69.5427 42.6347 69.6926 42.7057 69.8236C42.7768 69.9546 42.8872 70.06 43.0213 70.1249C43.1554 70.1899 43.3065 70.2111 43.4533 70.1857C43.6001 70.1602 43.7353 70.0893 43.8397 69.983L43.8327 69.9792Z" fill="#8E542D"/>
<path d="M27.0453 61.9971C27.1907 61.9521 27.3176 61.8612 27.4072 61.7382C27.7767 61.2517 28.2717 60.875 28.839 60.6485V60.6485C29.4015 60.5371 29.9741 60.4854 30.5474 60.4944C30.6403 60.4946 30.7324 60.4765 30.8183 60.441C30.9043 60.4056 30.9824 60.3536 31.0482 60.288C31.1141 60.2224 31.1663 60.1445 31.202 60.0587C31.2378 59.9729 31.2562 59.8809 31.2564 59.788C31.2566 59.695 31.2385 59.6029 31.2031 59.517C31.1677 59.431 31.1157 59.3529 31.0501 59.2871C30.9845 59.2212 30.9065 59.169 30.8207 59.1333C30.7349 59.0975 30.6429 59.0791 30.5499 59.0789C29.8085 59.0734 29.069 59.1527 28.3456 59.3153C27.4961 59.64 26.7552 60.1973 26.2076 60.9235C26.0982 61.0769 26.054 61.2675 26.0849 61.4535C26.1157 61.6394 26.219 61.8056 26.3722 61.9155C26.4683 61.9849 26.5805 62.0288 26.6982 62.0431C26.8159 62.0574 26.9353 62.0416 27.0453 61.9971V61.9971Z" fill="#5B9741"/>
<path d="M78.4563 57.367C78.3027 57.3713 78.1522 57.323 78.0299 57.2299C77.5264 56.882 76.9385 56.6761 76.3279 56.6338V56.6338C75.7502 56.6935 75.1814 56.8204 74.6332 57.0119C74.5424 57.0503 74.4446 57.0693 74.346 57.0679C74.2475 57.0665 74.1503 57.0446 74.0606 57.0037C73.9709 56.9628 73.8907 56.9037 73.8251 56.8302C73.7595 56.7566 73.7098 56.6703 73.6793 56.5766C73.6488 56.4829 73.638 56.3838 73.6477 56.2857C73.6574 56.1877 73.6874 56.0927 73.7358 56.0068C73.7841 55.9209 73.8497 55.846 73.9285 55.7867C74.0073 55.7275 74.0975 55.6853 74.1935 55.6628C74.8976 55.4308 75.626 55.2803 76.3643 55.2141C77.2732 55.2612 78.1506 55.5631 78.896 56.0853C78.9708 56.141 79.0338 56.211 79.0814 56.2911C79.1291 56.3713 79.1604 56.46 79.1735 56.5524C79.1867 56.6447 79.1814 56.7387 79.1581 56.8289C79.1347 56.9192 79.0937 57.004 79.0375 57.0783C78.9714 57.1701 78.8839 57.2443 78.7826 57.2946C78.6813 57.3449 78.5693 57.3698 78.4563 57.367V57.367Z" fill="#5B9741"/>
<path d="M39.1686 65.9674C39.0357 66.0446 38.8819 66.0777 38.729 66.0622C38.1191 66.0208 37.5094 66.1465 36.9655 66.4255V66.4255C36.5017 66.7741 36.0785 67.1737 35.704 67.6168C35.6456 67.6965 35.5713 67.7631 35.4857 67.8124C35.4002 67.8618 35.3053 67.8928 35.2071 67.9035C35.1089 67.9142 35.0096 67.9044 34.9154 67.8746C34.8212 67.8449 34.7343 67.7958 34.6601 67.7307C34.5859 67.6655 34.526 67.5856 34.4844 67.4961C34.4427 67.4065 34.4201 67.3093 34.418 67.2105C34.416 67.1118 34.4345 67.0137 34.4724 66.9225C34.5102 66.8313 34.5667 66.749 34.6381 66.6808C35.1255 66.1235 35.6735 65.6223 36.272 65.1865C37.0784 64.7643 37.9871 64.5768 38.8948 64.6452C39.0428 64.6615 39.1819 64.7238 39.2927 64.8233C39.4035 64.9228 39.4803 65.0545 39.5123 65.1999C39.5443 65.3453 39.5299 65.4971 39.4711 65.6339C39.4124 65.7707 39.3122 65.8857 39.1847 65.9626L39.1686 65.9674Z" fill="#5B9741"/>
<path d="M71.9335 50.6658C71.8258 50.667 71.7209 50.6322 71.6353 50.5668C71.2814 50.3263 70.8701 50.1837 70.4432 50.1533V50.1533C70.0403 50.2005 69.6436 50.2903 69.2596 50.4213C69.1958 50.4496 69.1268 50.4642 69.057 50.4642C68.9871 50.4642 68.918 50.4495 68.8542 50.4211C68.7905 50.3927 68.7334 50.3512 68.6866 50.2994C68.6398 50.2475 68.6045 50.1865 68.5828 50.1201C68.5611 50.0537 68.5537 49.9835 68.5608 49.9141C68.568 49.8446 68.5896 49.7774 68.6244 49.7169C68.6591 49.6563 68.7061 49.6037 68.7625 49.5625C68.8188 49.5213 68.8832 49.4923 68.9515 49.4775C69.4448 49.3155 69.9549 49.2099 70.472 49.1626C71.1077 49.1966 71.7212 49.4083 72.2427 49.7735C72.3477 49.8528 72.4171 49.9703 72.4359 50.1005C72.4547 50.2307 72.4213 50.3631 72.343 50.4688C72.2955 50.532 72.2335 50.583 72.1623 50.6172C72.091 50.6515 72.0125 50.6682 71.9335 50.6658V50.6658Z" fill="#E76924"/>
<path d="M77.1874 52.7376C77.0801 52.7365 76.9759 52.7019 76.8892 52.6387C76.5364 52.396 76.1245 52.2531 75.6972 52.2251V52.2251C75.2939 52.2702 74.8966 52.3582 74.512 52.4877C74.45 52.5084 74.3846 52.5165 74.3195 52.5117C74.2543 52.5068 74.1909 52.4891 74.1326 52.4596C74.0744 52.43 74.0226 52.3892 73.9803 52.3395C73.938 52.2897 73.9059 52.2321 73.886 52.1699C73.8459 52.0448 73.8567 51.9088 73.9162 51.7916C73.9758 51.6744 74.0791 51.5855 74.2038 51.544C74.6971 51.382 75.2072 51.2763 75.7243 51.2291C76.3588 51.2624 76.9709 51.4748 77.4897 51.8415C77.5425 51.8799 77.5871 51.9284 77.621 51.9841C77.655 52.0399 77.6775 52.1018 77.6873 52.1663C77.6971 52.2309 77.6941 52.2967 77.6783 52.36C77.6625 52.4233 77.6343 52.4829 77.5953 52.5352C77.5483 52.5989 77.4867 52.6505 77.4158 52.6857C77.3449 52.7209 77.2666 52.7387 77.1874 52.7376V52.7376Z" fill="#5156A5"/>
<path d="M37.8399 62.7587C37.9844 62.7099 38.1102 62.6175 38.2003 62.4944C38.5709 62.0097 39.0664 61.6349 39.6337 61.4101V61.4101C40.1957 61.296 40.7686 61.2443 41.342 61.256C41.53 61.2548 41.7099 61.1793 41.8425 61.0459C41.975 60.9126 42.0495 60.7322 42.0495 60.5441C42.0499 60.4512 42.0318 60.359 41.9965 60.273C41.9611 60.187 41.9091 60.1088 41.8435 60.0429C41.7779 59.977 41.6999 59.9248 41.614 59.8891C41.5281 59.8534 41.436 59.8351 41.343 59.8351C40.602 59.832 39.863 59.9131 39.1403 60.0768C38.2879 60.3964 37.5457 60.9547 37.0023 61.685C36.914 61.8061 36.8664 61.952 36.8665 62.1019C36.8665 62.2517 36.9143 62.3976 37.0027 62.5185C37.0912 62.6395 37.2158 62.7291 37.3585 62.7746C37.5013 62.8201 37.6548 62.819 37.7969 62.7714L37.8399 62.7587Z" fill="#5156A5"/>
<path d="M77.1559 63.7672C77.3073 63.7719 77.4562 63.7279 77.5807 63.6416C78.0831 63.2889 78.6725 63.0803 79.2849 63.0386V63.0386C79.8628 63.1011 80.4324 63.2248 80.9842 63.4074C81.0728 63.4358 81.166 63.4464 81.2587 63.4386C81.3514 63.4309 81.4417 63.405 81.5244 63.3624C81.607 63.3197 81.6805 63.2613 81.7406 63.1902C81.8007 63.1192 81.8462 63.0371 81.8745 62.9485C81.9029 62.8599 81.9135 62.7665 81.9057 62.6739C81.898 62.5812 81.872 62.4909 81.8294 62.4082C81.7868 62.3255 81.7283 62.2521 81.6573 62.192C81.5863 62.1319 81.5041 62.0864 81.4155 62.0581C80.711 61.83 79.9829 61.6823 79.2451 61.618C78.3368 61.6728 77.4618 61.98 76.7186 62.505C76.6439 62.5609 76.5809 62.631 76.5334 62.7113C76.486 62.7917 76.4549 62.8806 76.442 62.973C76.4291 63.0655 76.4346 63.1595 76.4583 63.2498C76.4819 63.3401 76.5232 63.4248 76.5797 63.499C76.6472 63.5866 76.7348 63.6567 76.8351 63.7034C76.9354 63.7501 77.0454 63.7719 77.1559 63.7672V63.7672Z" fill="#8E542D"/>
<path d="M63.1412 70.6277C63.0338 70.5179 62.9652 70.376 62.9457 70.2237C62.8368 69.6212 62.5696 69.0586 62.1716 68.5933V68.5933C61.7257 68.2247 61.2398 67.9075 60.7229 67.6476C60.5714 67.5523 60.4614 67.4035 60.4147 67.2307C60.3681 67.058 60.3881 66.874 60.471 66.7154C60.5538 66.5568 60.6933 66.4352 60.8617 66.3748C61.0302 66.3144 61.2152 66.3196 61.38 66.3894C62.0338 66.7241 62.6481 67.1308 63.2116 67.602C63.8186 68.2818 64.2187 69.1209 64.3648 70.0206C64.3843 70.1681 64.3571 70.318 64.2871 70.4492C64.217 70.5804 64.1076 70.6864 63.9742 70.7523C63.8408 70.8182 63.6901 70.8406 63.5433 70.8165C63.3965 70.7923 63.261 70.7227 63.1557 70.6176L63.1412 70.6277Z" fill="#8E542D"/>
<path d="M70.9487 61.8133C70.8013 61.7704 70.673 61.6783 70.5851 61.5525C70.2074 61.0698 69.7076 60.6968 69.1375 60.472V60.472C68.5688 60.3586 67.9892 60.3083 67.4095 60.322C67.3139 60.3262 67.2186 60.311 67.129 60.2775C67.0395 60.2439 66.9576 60.1927 66.8883 60.1269C66.819 60.061 66.7637 59.9819 66.7256 59.8941C66.6875 59.8064 66.6675 59.712 66.6667 59.6163C66.666 59.5207 66.6845 59.426 66.7211 59.3376C66.7578 59.2493 66.8118 59.1693 66.8801 59.1024C66.9484 59.0354 67.0294 58.9829 67.1184 58.9479C67.2074 58.913 67.3025 58.8963 67.3981 58.8989C68.1388 58.8896 68.878 58.9675 69.6005 59.1308C70.4532 59.4507 71.1984 60.0045 71.7506 60.7286C71.8052 60.8042 71.8443 60.8898 71.8657 60.9806C71.887 61.0714 71.8901 61.1655 71.8749 61.2575C71.8597 61.3495 71.8265 61.4375 71.7771 61.5166C71.7277 61.5957 71.6631 61.6642 71.587 61.7182C71.4965 61.7849 71.391 61.8285 71.2797 61.845C71.1684 61.8616 71.0548 61.8507 70.9487 61.8133V61.8133Z" fill="#E76924"/>
<path d="M56.0776 69.652C55.9417 69.5794 55.8349 69.4623 55.775 69.3205C55.5109 68.7688 55.1013 68.2997 54.5905 67.9634V67.9634C54.056 67.7338 53.4979 67.5635 52.9262 67.4556C52.7541 67.4054 52.6073 67.2921 52.515 67.1383C52.4228 66.9846 52.392 66.8017 52.4287 66.6262C52.4654 66.4507 52.567 66.2955 52.7132 66.1916C52.8593 66.0878 53.0392 66.0429 53.2171 66.0659C53.943 66.2122 54.6499 66.4407 55.3242 66.7469C56.0883 67.2418 56.6995 67.9397 57.0891 68.7625C57.1425 68.8989 57.1526 69.0485 57.1179 69.1908C57.0832 69.3331 57.0054 69.4612 56.8952 69.5577C56.785 69.6542 56.6477 69.7143 56.5021 69.73C56.3564 69.7456 56.2095 69.7159 56.0814 69.645L56.0776 69.652Z" fill="#5156A5"/>
<path d="M93.054 63.7165C76.4993 63.7625 62.835 71.2736 60.6826 80.9831C60.7319 81.1498 60.7811 81.3164 60.8304 81.4831C63.3828 90.9305 76.8962 98.1205 93.1597 98.0786C109.423 98.0368 122.9 90.78 125.406 81.3168C125.449 81.1462 125.493 80.981 125.531 80.812C123.316 71.1421 109.615 63.6919 93.054 63.7165ZM105.316 77.9293C105.314 78.1589 105.298 78.3882 105.268 78.6159C104.708 82.4001 99.4808 85.3833 93.1064 85.3964C86.7321 85.4095 81.4937 82.4618 80.9126 78.6757C80.8792 78.4502 80.8627 78.2225 80.8633 77.9946C80.8626 77.8235 80.8726 77.6526 80.8934 77.4829C80.8684 77.3158 80.8575 77.1469 80.861 76.978C80.86 76.2715 81.0174 75.5737 81.3216 74.936V74.936C82.7413 71.8271 87.4791 69.5208 93.0641 69.5071C98.6491 69.4935 103.377 71.7618 104.841 74.8776C105.146 75.5135 105.306 76.2092 105.309 76.9143C105.312 77.0829 105.304 77.2516 105.283 77.419C105.305 77.5936 105.318 77.7694 105.321 77.9454L105.316 77.9293Z" fill="#DDA94E"/>
<path d="M105.321 77.9452C105.319 78.1748 105.302 78.4041 105.273 78.6318C104.713 82.416 99.4857 85.3992 93.1114 85.4123C86.737 85.4254 81.4986 82.4778 80.9175 78.6916C80.8841 78.4661 80.8677 78.2384 80.8682 78.0105C80.8675 77.8395 80.8775 77.6686 80.8983 77.4988L80.9153 77.675C81.4964 81.4612 86.7363 84.4142 93.1091 84.3957C99.4819 84.3772 104.711 81.3994 105.271 77.6153L105.287 77.4349C105.308 77.6043 105.319 77.7746 105.321 77.9452V77.9452Z" fill="#CB9A4B"/>
<path d="M105.341 76.9223C105.344 77.091 105.336 77.2597 105.314 77.427C105.249 76.8986 105.097 76.3846 104.865 75.9054V75.9054C103.4 72.7896 98.6779 70.5196 93.0876 70.5349C87.4972 70.5501 82.79 72.8416 81.345 75.9638C81.1156 76.4457 80.9701 76.9632 80.9146 77.4941C80.8896 77.327 80.8787 77.1581 80.8822 76.9892C80.8812 76.2827 81.0385 75.5849 81.3427 74.9472V74.9472C82.7624 71.8384 87.5003 69.532 93.0853 69.5183C98.6703 69.5047 103.398 71.773 104.862 74.8889C105.17 75.5229 105.334 76.2175 105.341 76.9223V76.9223Z" fill="#CB9A4B"/>
<path d="M125.646 80.1524C125.608 80.38 125.564 80.6037 125.513 80.829C123.317 71.142 109.615 63.6918 93.0544 63.7164C76.4934 63.7409 62.8354 71.2735 60.683 80.983C60.6179 80.7625 60.5866 80.5379 60.5483 80.3096C62.2026 70.2796 76.1132 62.4151 93.0475 62.3679C109.982 62.3207 123.941 70.1275 125.646 80.1524Z" fill="#EAB259"/>
<path d="M125.823 82.1931C125.849 93.1821 111.249 102.116 93.1432 102.176C75.0376 102.236 60.4044 93.3539 60.3941 82.3602C60.3901 81.678 60.4451 80.9967 60.5582 80.324C62.2625 90.3435 76.2127 98.1412 93.1486 98.0993C110.084 98.0575 123.995 90.193 125.653 80.1561C125.766 80.8293 125.822 81.5106 125.823 82.1931V82.1931Z" fill="#CB9A4B"/>
<path d="M122.981 77.8005C123.07 77.7677 123.167 77.7636 123.258 77.7887C124.541 78.0528 125.077 77.8708 124.779 77.2166C124.76 77.1521 124.707 76.9746 124.59 76.7169C123.586 74.0906 118.252 62.5713 93.6004 62.3796C66.4269 62.1615 64.6097 71.7193 61.1092 75.8582C60.3276 76.8689 59.8738 78.0944 59.8087 79.3703C59.6452 81.646 60.4833 84.0467 62.3743 84.926C65.3603 86.306 69.3942 83.4769 70.0176 85.7247C70.0839 85.9847 70.1252 86.2505 70.141 86.5184C70.1972 87.3612 70.1007 88.3601 70.0574 89.361L70.067 89.3932C70.006 91.1651 70.183 92.931 71.941 93.7561C75.011 95.2223 80.4335 90.9597 82.0247 91.2202C83.6158 91.4807 86.2943 97.9326 89.3603 98.5348C92.4264 99.137 92.2459 91.5435 93.7125 90.8879C95.1791 90.2323 102.472 97.6004 104.877 96.6968C107.281 95.7932 106.209 89.1766 106.738 88.4355C107.267 87.6945 116.104 92.2152 117.287 90.0473C118.471 87.8794 117.026 85.7985 120.341 86.7712C123.657 87.7438 124.376 83.4507 124.168 82.1326C123.91 80.905 122.321 78.1184 122.981 77.8005ZM83.946 75.23C83.9393 72.952 88.3954 71.0971 93.8918 71.0804C99.3882 71.0637 103.854 72.9009 103.864 75.1488C103.865 75.3433 103.834 75.5367 103.769 75.7204C103.83 75.8998 103.862 76.0877 103.864 76.2771C103.871 78.5551 99.4143 80.41 93.918 80.4267C88.4216 80.4434 83.9488 78.6024 83.9462 76.3583C83.9471 76.163 83.9808 75.9692 84.0458 75.7851C83.9815 75.607 83.9478 75.4193 83.946 75.23V75.23Z" fill="#6B3C1B"/>
<path d="M103.843 75.4357C103.826 75.5426 103.801 75.6479 103.767 75.7506C103.091 73.7405 98.9266 72.2118 93.9001 72.2358C88.8736 72.2597 84.7055 73.7839 84.0485 75.8138C84.0092 75.7106 83.9779 75.6045 83.9547 75.4966C84.2439 73.3298 88.5788 71.5986 93.9065 71.5849C99.2342 71.5713 103.547 73.2666 103.843 75.4357Z" fill="#E080AD"/>
<path d="M103.861 75.1791C103.864 75.2651 103.858 75.3511 103.843 75.4358C103.547 73.2666 99.1873 71.5502 93.8981 71.5758C88.609 71.6014 84.2517 73.316 83.9463 75.4875C83.9322 75.4041 83.9267 75.3195 83.9302 75.235C83.9234 72.957 88.3796 71.1021 93.876 71.0854C99.3723 71.0687 103.854 72.9011 103.861 75.1791Z" fill="#F38EBB"/>
<path d="M77.4075 74.7071C77.2534 74.7057 77.1038 74.6559 76.9796 74.5647C76.4777 74.2154 75.8894 74.0111 75.2791 73.974V73.974C74.7023 74.0392 74.1342 74.166 73.5843 74.3521C73.4934 74.3902 73.3955 74.409 73.2968 74.4073C73.1982 74.4055 73.1011 74.3833 73.0115 74.3421C72.9219 74.3008 72.8418 74.2414 72.7764 74.1676C72.711 74.0938 72.6616 74.0072 72.6315 73.9133C72.6013 73.8194 72.5909 73.7202 72.6011 73.6221C72.6112 73.524 72.6416 73.4291 72.6904 73.3433C72.7391 73.2576 72.8051 73.1829 72.8843 73.1241C72.9634 73.0652 73.054 73.0234 73.1501 73.0013C73.8524 72.7699 74.579 72.6199 75.3155 72.5543C76.2244 72.6017 77.1016 72.9035 77.8472 73.4255C77.971 73.5132 78.0635 73.6381 78.1114 73.7821C78.1592 73.9261 78.1597 74.0816 78.113 74.2259C78.0663 74.3702 77.9747 74.4959 77.8515 74.5845C77.7284 74.6731 77.5801 74.72 77.4284 74.7185L77.4075 74.7071Z" fill="#8E542D"/>
<path d="M75.6005 71.1253C75.4469 71.1296 75.2964 71.0813 75.1741 70.9882C74.6706 70.6403 74.0827 70.4344 73.4721 70.3921V70.3921C72.8944 70.4518 72.3256 70.5787 71.7773 70.7703C71.6865 70.8086 71.5887 70.8276 71.4902 70.8262C71.3916 70.8248 71.2944 70.8029 71.2048 70.762C71.1151 70.7211 71.0349 70.662 70.9693 70.5885C70.9037 70.5149 70.854 70.4286 70.8235 70.3349C70.793 70.2412 70.7822 70.1421 70.7919 70.044C70.8016 69.946 70.8316 69.851 70.8799 69.7651C70.9282 69.6792 70.9939 69.6043 71.0727 69.545C71.1515 69.4858 71.2417 69.4436 71.3377 69.4211C72.0418 69.1891 72.7701 69.0386 73.5085 68.9725C74.4174 69.0195 75.2947 69.3214 76.0401 69.8436C76.1149 69.8993 76.178 69.9692 76.2256 70.0494C76.2732 70.1296 76.3045 70.2184 76.3177 70.3107C76.3308 70.403 76.3256 70.497 76.3022 70.5873C76.2789 70.6775 76.2379 70.7623 76.1816 70.8366C76.1155 70.9284 76.0281 71.0026 75.9268 71.0529C75.8255 71.1032 75.7135 71.1281 75.6005 71.1253V71.1253Z" fill="#E76924"/>
<path d="M109.471 72.1239C109.318 72.122 109.17 72.0716 109.048 71.9799C108.545 71.6321 107.958 71.4279 107.348 71.3892V71.3892C106.771 71.4548 106.203 71.5815 105.653 71.7672C105.562 71.8056 105.464 71.8246 105.366 71.8232C105.267 71.8218 105.17 71.7999 105.08 71.759C104.991 71.7181 104.911 71.659 104.845 71.5855C104.779 71.5119 104.73 71.4256 104.699 71.3319C104.669 71.2382 104.658 71.1391 104.668 71.041C104.677 70.943 104.707 70.848 104.756 70.7621C104.804 70.6762 104.87 70.6013 104.948 70.542C105.027 70.4828 105.117 70.4406 105.213 70.4181C105.917 70.1863 106.646 70.0358 107.384 69.9694C108.292 70.0165 109.167 70.319 109.91 70.8422C109.985 70.8975 110.049 70.967 110.097 71.0469C110.145 71.1267 110.176 71.2152 110.19 71.3074C110.204 71.3995 110.199 71.4934 110.176 71.5837C110.153 71.6741 110.113 71.759 110.057 71.8336C109.989 71.9247 109.901 71.9985 109.799 72.0489C109.697 72.0993 109.584 72.125 109.471 72.1239V72.1239Z" fill="#5B9741"/>
<path d="M111.187 86.4777C111.053 86.403 110.947 86.2866 110.885 86.1462C110.62 85.5946 110.211 85.1254 109.7 84.7891V84.7891C109.165 84.5597 108.606 84.3877 108.034 84.2759C107.862 84.2257 107.715 84.1124 107.623 83.9586C107.531 83.8049 107.5 83.622 107.537 83.4465C107.573 83.271 107.675 83.1158 107.821 83.012C107.967 82.9081 108.147 82.8632 108.325 82.8862C109.052 83.0349 109.759 83.2651 110.434 83.5726C111.199 84.0665 111.81 84.7648 112.199 85.5882C112.252 85.7246 112.262 85.8742 112.228 86.0165C112.193 86.1588 112.115 86.2869 112.005 86.3834C111.895 86.4799 111.757 86.54 111.612 86.5557C111.466 86.5713 111.319 86.5416 111.191 86.4707L111.187 86.4777Z" fill="#5B9741"/>
<path d="M87.5397 67.9243C87.4655 67.8799 87.407 67.8134 87.3724 67.7341C87.2205 67.4168 86.9851 67.1469 86.6915 66.9531V66.9531C86.3857 66.8166 86.0655 66.7151 85.7368 66.6507C85.6848 66.6395 85.6354 66.6183 85.5916 66.5881C85.5478 66.558 85.5103 66.5194 85.4814 66.4748C85.4525 66.4301 85.4326 66.3802 85.4229 66.3279C85.4133 66.2756 85.4141 66.2219 85.4252 66.1698C85.4363 66.1178 85.4576 66.0685 85.4877 66.0246C85.5179 65.9808 85.5564 65.9434 85.601 65.9144C85.6457 65.8855 85.6956 65.8656 85.7479 65.856C85.8002 65.8463 85.854 65.8471 85.906 65.8582C86.321 65.942 86.7248 66.0738 87.1094 66.2508C87.5471 66.5294 87.896 66.9273 88.1149 67.3977C88.1366 67.4462 88.1485 67.4985 88.15 67.5516C88.1515 67.6047 88.1424 67.6576 88.1234 67.7072C88.1044 67.7568 88.0758 67.8022 88.0392 67.8407C88.0026 67.8793 87.9588 67.9102 87.9102 67.9317C87.8522 67.9597 87.7885 67.9736 87.7241 67.9724C87.6597 67.9711 87.5965 67.9546 87.5397 67.9243V67.9243Z" fill="#E76924"/>
<path d="M83.2242 71.62C83.15 71.5756 83.0915 71.5091 83.0569 71.4297C82.9058 71.1139 82.6708 70.8456 82.3776 70.6542V70.6542C82.0718 70.5177 81.7515 70.4162 81.4229 70.3517C81.3252 70.3218 81.2422 70.2565 81.1902 70.1685C81.1382 70.0805 81.121 69.9762 81.142 69.8762C81.163 69.7762 81.2208 69.6876 81.3037 69.628C81.3867 69.5683 81.489 69.5419 81.5905 69.5539C82.0049 69.64 82.4085 69.7717 82.7939 69.9465C83.2334 70.2258 83.583 70.6259 83.801 71.0988C83.8228 71.1477 83.8347 71.2004 83.8359 71.2539C83.8371 71.3075 83.8276 71.3607 83.8081 71.4106C83.7886 71.4604 83.7593 71.5059 83.722 71.5443C83.6847 71.5827 83.6402 71.6134 83.5909 71.6344C83.5329 71.6607 83.4695 71.6731 83.4059 71.6706C83.3422 71.6681 83.28 71.6508 83.2242 71.62V71.62Z" fill="#E76924"/>
<path d="M81.7472 66.7423C81.6588 66.7439 81.5724 66.7159 81.5016 66.6629C81.2161 66.4611 80.8795 66.3438 80.5304 66.3244V66.3244C80.2021 66.3625 79.8786 66.4347 79.5651 66.5395C79.5142 66.5546 79.461 66.5594 79.4082 66.5538C79.3555 66.5483 79.3044 66.5324 79.2578 66.5071C79.2112 66.4817 79.1701 66.4475 79.1368 66.4063C79.1034 66.3651 79.0785 66.3177 79.0635 66.2668C79.0485 66.216 79.0436 66.1627 79.0492 66.11C79.0548 66.0573 79.0707 66.0062 79.096 65.9596C79.1213 65.913 79.1556 65.8719 79.1968 65.8386C79.2381 65.8052 79.2854 65.7803 79.3363 65.7653C79.7382 65.6321 80.1543 65.5464 80.5762 65.5099C81.0954 65.5334 81.5969 65.7059 82.0208 66.0067C82.0905 66.0567 82.1424 66.1277 82.1691 66.2093C82.1957 66.2908 82.1956 66.3788 82.1689 66.4603C82.1422 66.5418 82.0902 66.6127 82.0205 66.6627C81.9507 66.7126 81.8668 66.7391 81.781 66.7382L81.7472 66.7423Z" fill="#5B9741"/>
<path d="M97.94 66.0841C98.0064 66.0284 98.0557 65.9551 98.0822 65.8726C98.1824 65.536 98.3747 65.2342 98.6373 65.0011V65.0011C98.9192 64.8248 99.2192 64.6793 99.5321 64.5671C99.582 64.5489 99.6278 64.5211 99.667 64.4852C99.7061 64.4492 99.7377 64.406 99.7601 64.3578C99.7826 64.3097 99.7953 64.2576 99.7975 64.2045C99.7998 64.1515 99.7916 64.0985 99.7734 64.0486C99.7552 63.9987 99.7274 63.9528 99.6915 63.9137C99.6556 63.8746 99.6123 63.8429 99.5641 63.8205C99.516 63.7981 99.4639 63.7854 99.4108 63.7831C99.3577 63.7808 99.3048 63.789 99.2549 63.8072C98.8559 63.9521 98.4745 64.1412 98.1178 64.3712C97.7264 64.7141 97.4409 65.1615 97.2947 65.661C97.281 65.7398 97.291 65.821 97.3235 65.8942C97.3561 65.9673 97.4096 66.0291 97.4774 66.0718C97.5451 66.1144 97.624 66.1359 97.704 66.1336C97.7841 66.1313 97.8616 66.1053 97.9268 66.0588L97.94 66.0841Z" fill="#5156A5"/>
<path d="M93.2345 68.7962C93.2405 68.7091 93.2731 68.626 93.3279 68.5581C93.5462 68.2835 93.6835 67.9534 93.7243 67.6049C93.7044 67.2732 93.6504 66.9443 93.563 66.6237C93.546 66.5249 93.5658 66.4233 93.6188 66.3381C93.6718 66.253 93.7542 66.1903 93.8503 66.1619C93.9465 66.1334 94.0497 66.1413 94.1405 66.184C94.2312 66.2266 94.3031 66.3011 94.3426 66.3933C94.4483 66.804 94.5099 67.2248 94.5264 67.6485C94.4653 68.165 94.2618 68.6543 93.9385 69.0617C93.9042 69.1023 93.8621 69.1358 93.8148 69.1601C93.7674 69.1845 93.7157 69.1992 93.6626 69.2035C93.6095 69.2078 93.5561 69.2015 93.5055 69.1851C93.4548 69.1686 93.4079 69.1423 93.3675 69.1076C93.3244 69.0682 93.2902 69.02 93.2673 68.9663C93.2443 68.9126 93.2332 68.8546 93.2345 68.7962V68.7962Z" fill="#5156A5"/>
<path d="M90.9938 65.9623C90.9165 65.9208 90.8556 65.8543 90.8211 65.7736C90.666 65.4579 90.4273 65.1907 90.131 65.0013V65.0013C89.8247 64.8661 89.5046 64.7647 89.1763 64.6988C89.1242 64.6885 89.0745 64.668 89.0302 64.6385C88.986 64.609 88.9479 64.5711 88.9183 64.527C88.8887 64.4828 88.8681 64.4332 88.8576 64.381C88.8472 64.3289 88.8471 64.2752 88.8574 64.223C88.8677 64.1708 88.8882 64.1212 88.9176 64.0769C88.9471 64.0327 88.985 63.9946 89.0292 63.965C89.0734 63.9354 89.123 63.9148 89.1751 63.9043C89.2273 63.8939 89.281 63.8938 89.3331 63.9041C89.7483 63.984 90.1529 64.1116 90.5388 64.2844C90.9786 64.5602 91.332 64.9541 91.5588 65.4211C91.5814 65.4698 91.5941 65.5225 91.5961 65.5761C91.5981 65.6298 91.5894 65.6832 91.5705 65.7335C91.5516 65.7837 91.5229 65.8296 91.486 65.8686C91.4491 65.9076 91.4048 65.9389 91.3557 65.9605C91.2994 65.9882 91.2376 66.0027 91.1749 66.003C91.1122 66.0033 91.0503 65.9894 90.9938 65.9623V65.9623Z" fill="#8E542D"/>
<path d="M103.301 67.4287C103.399 67.3873 103.48 67.3138 103.531 67.2202C103.756 66.8592 104.072 66.5641 104.448 66.3647V66.3647C104.835 66.251 105.233 66.1785 105.635 66.1483C105.702 66.1466 105.768 66.1312 105.829 66.1032C105.89 66.0751 105.944 66.0348 105.989 65.9849C106.034 65.935 106.068 65.8765 106.09 65.8129C106.111 65.7493 106.12 65.6821 106.114 65.6152C106.109 65.5483 106.09 65.4832 106.058 65.4239C106.027 65.3646 105.984 65.3124 105.931 65.2704C105.879 65.2284 105.819 65.1975 105.754 65.1796C105.689 65.1617 105.622 65.1572 105.555 65.1663C105.041 65.21 104.534 65.311 104.042 65.4673C103.47 65.7409 102.989 66.1733 102.656 66.7129C102.625 66.7695 102.605 66.8317 102.598 66.8961C102.591 66.9604 102.597 67.0254 102.615 67.0875C102.634 67.1495 102.664 67.2073 102.705 67.2575C102.746 67.3076 102.796 67.3491 102.854 67.3796C102.919 67.4226 102.993 67.4495 103.071 67.458C103.149 67.4666 103.228 67.4565 103.301 67.4287V67.4287Z" fill="#8E542D"/>
<path d="M82.3606 87.7071C82.4672 87.597 82.5361 87.4558 82.5572 87.304C82.6548 86.6991 82.9187 86.1333 83.3195 85.6698V85.6698C83.7744 85.2996 84.2677 84.9793 84.7911 84.7146C84.9574 84.6267 85.0819 84.4763 85.1373 84.2966C85.1928 84.1168 85.1745 83.9224 85.0866 83.7562C84.9987 83.5899 84.8483 83.4653 84.6685 83.4099C84.4888 83.3545 84.2945 83.3727 84.1282 83.4606C83.4728 83.8043 82.8586 84.2212 82.2972 84.7033C81.6964 85.3852 81.3015 86.2236 81.1585 87.1211C81.1459 87.2139 81.1517 87.3082 81.1756 87.3987C81.1995 87.4893 81.241 87.5742 81.2978 87.6486C81.3546 87.7231 81.4254 87.7856 81.5064 87.8326C81.5873 87.8797 81.6768 87.9103 81.7696 87.9227C81.8779 87.9328 81.9872 87.9187 82.0894 87.8814C82.1916 87.8441 82.2842 87.7846 82.3606 87.7071V87.7071Z" fill="#8E542D"/>
<path d="M65.573 79.7248C65.7188 79.6784 65.8453 79.5855 65.9334 79.4605C66.304 78.9757 66.7995 78.6009 67.3668 78.3762V78.3762C67.9288 78.2621 68.5017 78.2104 69.0751 78.2221C69.2554 78.2102 69.4244 78.1303 69.548 77.9985C69.6715 77.8666 69.7403 77.6928 69.7404 77.5121C69.7406 77.3314 69.672 77.1574 69.5486 77.0254C69.4253 76.8934 69.2564 76.8133 69.0761 76.8012C68.3351 76.7998 67.5963 76.8809 66.8733 77.0429C66.0231 77.3663 65.2819 77.9239 64.7354 78.6511C64.6471 78.7721 64.5995 78.9181 64.5996 79.0679C64.5997 79.2177 64.6473 79.3637 64.7358 79.4846C64.8242 79.6055 64.9489 79.6952 65.0916 79.7407C65.2344 79.7861 65.3879 79.785 65.53 79.7375L65.573 79.7248Z" fill="#5B9741"/>
<path d="M116.984 75.0947C116.831 75.0938 116.683 75.0459 116.558 74.9576C116.055 74.6077 115.467 74.4016 114.856 74.3616V74.3616C114.277 74.4275 113.707 74.5548 113.156 74.7412C112.982 74.7811 112.799 74.7543 112.645 74.6662C112.49 74.578 112.373 74.4349 112.319 74.2652C112.264 74.0954 112.275 73.9114 112.35 73.7494C112.424 73.5875 112.557 73.4594 112.721 73.3905C113.426 73.1617 114.154 73.0112 114.892 72.9418C115.801 72.9896 116.678 73.2941 117.42 73.82C117.548 73.9055 117.644 74.0303 117.695 74.1756C117.745 74.3208 117.747 74.4785 117.699 74.6247C117.652 74.771 117.558 74.8978 117.432 74.9859C117.306 75.074 117.155 75.1187 117.001 75.113L116.984 75.0947Z" fill="#5B9741"/>
<path d="M77.6945 83.6898C77.5645 83.7679 77.4129 83.8025 77.2618 83.7884C76.65 83.746 76.0382 83.8703 75.4914 84.148V84.148C75.0258 84.4969 74.6008 84.8971 74.2246 85.3409C74.0958 85.4638 73.9256 85.5341 73.7476 85.5378C73.5696 85.5416 73.3967 85.4784 73.2629 85.361C73.1291 85.2435 73.0442 85.0801 73.0249 84.9031C73.0056 84.7261 73.0534 84.5483 73.1587 84.4048C73.6442 83.8457 74.1923 83.3443 74.7924 82.9105C75.597 82.4845 76.5058 82.2949 77.4137 82.3638C77.6011 82.3847 77.7728 82.4786 77.8916 82.6251C78.0104 82.7716 78.0668 82.959 78.0485 83.1467C78.0376 83.259 77.9997 83.3671 77.938 83.4617C77.8764 83.5562 77.7929 83.6345 77.6945 83.6898V83.6898Z" fill="#5B9741"/>
<path d="M110.458 68.3828C110.351 68.3816 110.247 68.347 110.16 68.2838C109.809 68.0372 109.396 67.8939 108.968 67.8703V67.8703C108.563 67.9159 108.164 68.0045 107.777 68.1345C107.713 68.1613 107.643 68.1742 107.573 68.1724C107.503 68.1706 107.434 68.1541 107.371 68.124C107.308 68.0939 107.252 68.0508 107.206 67.9975C107.161 67.9443 107.127 67.8821 107.107 67.815C107.088 67.7479 107.082 67.6774 107.091 67.608C107.1 67.5386 107.124 67.472 107.161 67.4123C107.197 67.3527 107.246 67.3015 107.304 67.2619C107.362 67.2224 107.427 67.1954 107.496 67.1828C107.987 67.0212 108.496 66.916 109.011 66.8695C109.647 66.9037 110.26 67.1154 110.782 67.4803C110.871 67.5428 110.937 67.6325 110.97 67.7359C111.003 67.8393 111.002 67.9507 110.966 68.0531C110.93 68.1556 110.862 68.2436 110.771 68.3038C110.681 68.364 110.573 68.3931 110.465 68.3866L110.458 68.3828Z" fill="#E76924"/>
<path d="M115.71 70.4671C115.603 70.4683 115.498 70.4335 115.412 70.3681C115.058 70.1279 114.647 69.9852 114.22 69.9546V69.9546C113.816 69.9967 113.419 70.0847 113.035 70.2172C112.97 70.244 112.901 70.2569 112.831 70.2551C112.761 70.2533 112.692 70.2368 112.629 70.2067C112.566 70.1766 112.509 70.1335 112.464 70.0803C112.418 70.027 112.385 69.9648 112.365 69.8977C112.345 69.8306 112.34 69.7601 112.349 69.6907C112.358 69.6213 112.382 69.5547 112.418 69.495C112.455 69.4354 112.504 69.3842 112.562 69.3446C112.619 69.3051 112.685 69.2781 112.754 69.2655C113.245 69.104 113.753 68.9989 114.269 68.9522C114.904 68.9862 115.518 69.1978 116.039 69.563C116.144 69.6423 116.214 69.7598 116.233 69.8901C116.251 70.0203 116.218 70.1526 116.14 70.2583C116.091 70.3266 116.027 70.3816 115.952 70.4181C115.877 70.4546 115.794 70.4715 115.71 70.4671V70.4671Z" fill="#5156A5"/>
<path d="M76.3662 80.4811C76.5135 80.4379 76.641 80.3444 76.7265 80.2168C77.1016 79.7365 77.5957 79.3627 78.1599 79.1325C78.7224 79.0211 79.295 78.9694 79.8683 78.9784C79.9613 78.9788 80.0534 78.9607 80.1394 78.9254C80.2254 78.8901 80.3037 78.8381 80.3695 78.7724C80.4354 78.7068 80.4876 78.6288 80.5233 78.5429C80.559 78.457 80.5773 78.3649 80.5773 78.2719C80.5779 78.0834 80.5038 77.9022 80.371 77.7683C80.2383 77.6343 80.0578 77.5585 79.8692 77.5575C79.1283 77.5561 78.3895 77.6372 77.6665 77.7993C76.817 78.124 76.0761 78.6813 75.5285 79.4074C75.4741 79.4834 75.4354 79.5695 75.4144 79.6606C75.3935 79.7517 75.3909 79.846 75.4067 79.9381C75.4225 80.0303 75.4564 80.1183 75.5065 80.1972C75.5566 80.2761 75.6219 80.3443 75.6985 80.3978C75.7934 80.4676 75.9046 80.5119 76.0215 80.5265C76.1383 80.541 76.257 80.5254 76.3662 80.4811V80.4811Z" fill="#5156A5"/>
<path d="M115.684 81.4949C115.837 81.4992 115.987 81.4546 116.114 81.3678C116.617 81.02 117.203 80.8124 117.813 80.7663V80.7663C118.389 80.8284 118.957 80.9526 119.506 81.1368C119.682 81.1807 119.868 81.1559 120.026 81.0676C120.184 80.9792 120.303 80.8339 120.358 80.6613C120.412 80.4886 120.399 80.3016 120.321 80.1382C120.243 79.9749 120.105 79.8475 119.936 79.782C119.232 79.5572 118.504 79.4114 117.767 79.3473C116.858 79.3964 115.981 79.7041 115.241 80.2343C115.123 80.3248 115.037 80.4497 114.994 80.5915C114.951 80.7334 114.953 80.8851 115.001 81.0256C115.048 81.1661 115.138 81.2884 115.258 81.3753C115.378 81.4622 115.522 81.5094 115.671 81.5104L115.684 81.4949Z" fill="#8E542D"/>
<path d="M101.7 88.3403C101.591 88.2337 101.521 88.094 101.5 87.9431C101.396 87.3393 101.128 86.7756 100.726 86.3128V86.3128C100.278 85.9471 99.7926 85.6301 99.2775 85.3671C99.126 85.2718 99.0161 85.123 98.9694 84.9502C98.9227 84.7775 98.9428 84.5935 99.0256 84.4349C99.1084 84.2763 99.2479 84.1547 99.4164 84.0943C99.5848 84.0338 99.7698 84.0391 99.9346 84.1089C100.589 84.4448 101.205 84.8508 101.772 85.3199C102.375 86 102.772 86.8374 102.918 87.7347C102.939 87.8821 102.913 88.0325 102.844 88.1644C102.775 88.2963 102.665 88.4029 102.532 88.4689C102.398 88.535 102.247 88.5571 102.101 88.5322C101.954 88.5073 101.818 88.4365 101.714 88.3301L101.7 88.3403Z" fill="#8E542D"/>
<path d="M109.477 79.5412C109.331 79.4948 109.204 79.4035 109.113 79.2803C108.738 78.7965 108.24 78.4227 107.671 78.1982V78.1982C107.1 78.0855 106.519 78.0357 105.937 78.0499C105.839 78.0582 105.741 78.0461 105.647 78.0143C105.554 77.9826 105.469 77.9319 105.396 77.8654C105.324 77.799 105.266 77.7182 105.226 77.6282C105.186 77.5382 105.166 77.441 105.165 77.3426C105.165 77.2442 105.185 77.1468 105.224 77.0566C105.263 76.9664 105.321 76.8853 105.393 76.8184C105.465 76.7515 105.55 76.7002 105.643 76.6679C105.736 76.6356 105.835 76.6228 105.933 76.6305C106.673 76.6237 107.411 76.6996 108.134 76.857C108.986 77.1755 109.73 77.7303 110.279 78.4564C110.333 78.5317 110.372 78.6169 110.394 78.7073C110.416 78.7977 110.419 78.8915 110.404 78.9833C110.39 79.0751 110.357 79.1631 110.308 79.2422C110.26 79.3213 110.196 79.39 110.12 79.4444C110.028 79.5102 109.922 79.5532 109.81 79.57C109.698 79.5868 109.584 79.5769 109.477 79.5412V79.5412Z" fill="#E76924"/>
<path d="M94.6048 87.3797C94.4721 87.304 94.3677 87.187 94.3076 87.0466C94.0418 86.496 93.6327 86.0273 93.1232 85.6895V85.6895C92.5901 85.458 92.0332 85.2854 91.4626 85.1747C91.3653 85.1621 91.2716 85.1295 91.1875 85.079C91.1034 85.0284 91.0306 84.9611 90.9737 84.881C90.9168 84.801 90.8772 84.7101 90.8571 84.6141C90.8371 84.518 90.8371 84.4188 90.8572 84.3227C90.8773 84.2267 90.917 84.1358 90.974 84.0558C91.0309 83.9758 91.1037 83.9085 91.1878 83.858C91.272 83.8075 91.3657 83.775 91.463 83.7624C91.5604 83.7499 91.6593 83.7575 91.7535 83.785C92.4783 83.9345 93.1839 84.1653 93.8569 84.473C94.622 84.9639 95.2332 85.6606 95.6202 86.4832C95.6736 86.6196 95.6836 86.7692 95.6489 86.9115C95.6142 87.0538 95.5364 87.1819 95.4262 87.2784C95.316 87.3749 95.1787 87.4351 95.0331 87.4507C94.8874 87.4663 94.7405 87.4366 94.6124 87.3657L94.6048 87.3797Z" fill="#5156A5"/>
</svg>
