<svg width="235" height="20" viewBox="0 0 235 20" fill="none" xmlns="http://www.w3.org/2000/svg">
<path d="M14.976 2.248L9.312 13.168V19H5.952V13.168L0.264 2.248H4.056L7.656 9.904L11.232 2.248H14.976ZM22.8178 19.216C21.5378 19.216 20.3858 18.936 19.3618 18.376C18.3378 17.8 17.5298 16.992 16.9378 15.952C16.3618 14.912 16.0738 13.712 16.0738 12.352C16.0738 10.992 16.3698 9.792 16.9618 8.752C17.5698 7.712 18.3938 6.912 19.4338 6.352C20.4738 5.776 21.6338 5.488 22.9138 5.488C24.1938 5.488 25.3538 5.776 26.3938 6.352C27.4338 6.912 28.2498 7.712 28.8418 8.752C29.4498 9.792 29.7538 10.992 29.7538 12.352C29.7538 13.712 29.4418 14.912 28.8178 15.952C28.2098 16.992 27.3778 17.8 26.3218 18.376C25.2818 18.936 24.1138 19.216 22.8178 19.216ZM22.8178 16.288C23.4258 16.288 23.9938 16.144 24.5218 15.856C25.0658 15.552 25.4978 15.104 25.8178 14.512C26.1378 13.92 26.2978 13.2 26.2978 12.352C26.2978 11.088 25.9618 10.12 25.2898 9.448C24.6338 8.76 23.8258 8.416 22.8658 8.416C21.9058 8.416 21.0978 8.76 20.4418 9.448C19.8018 10.12 19.4818 11.088 19.4818 12.352C19.4818 13.616 19.7938 14.592 20.4178 15.28C21.0578 15.952 21.8578 16.288 22.8178 16.288ZM44.7705 5.704V19H41.3865V17.32C40.9545 17.896 40.3865 18.352 39.6825 18.688C38.9945 19.008 38.2425 19.168 37.4265 19.168C36.3865 19.168 35.4665 18.952 34.6665 18.52C33.8665 18.072 33.2345 17.424 32.7705 16.576C32.3225 15.712 32.0985 14.688 32.0985 13.504V5.704H35.4585V13.024C35.4585 14.08 35.7225 14.896 36.2505 15.472C36.7785 16.032 37.4985 16.312 38.4105 16.312C39.3385 16.312 40.0665 16.032 40.5945 15.472C41.1225 14.896 41.3865 14.08 41.3865 13.024V5.704H44.7705ZM51.4457 7.768C51.8777 7.064 52.4377 6.512 53.1257 6.112C53.8297 5.712 54.6297 5.512 55.5257 5.512V9.04H54.6377C53.5817 9.04 52.7817 9.288 52.2377 9.784C51.7097 10.28 51.4457 11.144 51.4457 12.376V19H48.0857V5.704H51.4457V7.768ZM66.8676 4.96V9.16H72.5076V11.824H66.8676V16.264H73.2276V19H63.5076V2.224H73.2276V4.96H66.8676ZM92.793 5.512C94.425 5.512 95.737 6.016 96.729 7.024C97.737 8.016 98.241 9.408 98.241 11.2V19H94.881V11.656C94.881 10.616 94.617 9.824 94.089 9.28C93.561 8.72 92.841 8.44 91.929 8.44C91.017 8.44 90.289 8.72 89.745 9.28C89.217 9.824 88.953 10.616 88.953 11.656V19H85.593V11.656C85.593 10.616 85.329 9.824 84.801 9.28C84.273 8.72 83.553 8.44 82.641 8.44C81.713 8.44 80.977 8.72 80.433 9.28C79.905 9.824 79.641 10.616 79.641 11.656V19H76.281V5.704H79.641V7.312C80.073 6.752 80.625 6.312 81.297 5.992C81.985 5.672 82.737 5.512 83.553 5.512C84.593 5.512 85.521 5.736 86.337 6.184C87.153 6.616 87.785 7.24 88.233 8.056C88.665 7.288 89.289 6.672 90.105 6.208C90.937 5.744 91.833 5.512 92.793 5.512ZM100.565 12.304C100.565 10.96 100.829 9.768 101.357 8.728C101.901 7.688 102.629 6.888 103.541 6.328C104.469 5.768 105.501 5.488 106.637 5.488C107.629 5.488 108.493 5.688 109.229 6.088C109.981 6.488 110.581 6.992 111.029 7.6V5.704H114.413V19H111.029V17.056C110.597 17.68 109.997 18.2 109.229 18.616C108.477 19.016 107.605 19.216 106.613 19.216C105.493 19.216 104.469 18.928 103.541 18.352C102.629 17.776 101.901 16.968 101.357 15.928C100.829 14.872 100.565 13.664 100.565 12.304ZM111.029 12.352C111.029 11.536 110.869 10.84 110.549 10.264C110.229 9.672 109.797 9.224 109.253 8.92C108.709 8.6 108.125 8.44 107.501 8.44C106.877 8.44 106.301 8.592 105.773 8.896C105.245 9.2 104.813 9.648 104.477 10.24C104.157 10.816 103.997 11.504 103.997 12.304C103.997 13.104 104.157 13.808 104.477 14.416C104.813 15.008 105.245 15.464 105.773 15.784C106.317 16.104 106.893 16.264 107.501 16.264C108.125 16.264 108.709 16.112 109.253 15.808C109.797 15.488 110.229 15.04 110.549 14.464C110.869 13.872 111.029 13.168 111.029 12.352ZM119.399 4.12C118.807 4.12 118.311 3.936 117.911 3.568C117.527 3.184 117.335 2.712 117.335 2.152C117.335 1.592 117.527 1.128 117.911 0.759999C118.311 0.375999 118.807 0.183999 119.399 0.183999C119.991 0.183999 120.479 0.375999 120.863 0.759999C121.263 1.128 121.463 1.592 121.463 2.152C121.463 2.712 121.263 3.184 120.863 3.568C120.479 3.936 119.991 4.12 119.399 4.12ZM121.055 5.704V19H117.695V5.704H121.055ZM127.735 1.24V19H124.375V1.24H127.735ZM147.045 15.808H140.373L139.269 19H135.741L141.765 2.224H145.677L151.701 19H148.149L147.045 15.808ZM146.133 13.12L143.709 6.112L141.285 13.12H146.133ZM153.089 12.304C153.089 10.96 153.353 9.768 153.881 8.728C154.425 7.688 155.161 6.888 156.089 6.328C157.017 5.768 158.049 5.488 159.185 5.488C160.049 5.488 160.873 5.68 161.657 6.064C162.441 6.432 163.065 6.928 163.529 7.552V1.24H166.937V19H163.529V17.032C163.113 17.688 162.529 18.216 161.777 18.616C161.025 19.016 160.153 19.216 159.161 19.216C158.041 19.216 157.017 18.928 156.089 18.352C155.161 17.776 154.425 16.968 153.881 15.928C153.353 14.872 153.089 13.664 153.089 12.304ZM163.553 12.352C163.553 11.536 163.393 10.84 163.073 10.264C162.753 9.672 162.321 9.224 161.777 8.92C161.233 8.6 160.649 8.44 160.025 8.44C159.401 8.44 158.825 8.592 158.297 8.896C157.769 9.2 157.337 9.648 157.001 10.24C156.681 10.816 156.521 11.504 156.521 12.304C156.521 13.104 156.681 13.808 157.001 14.416C157.337 15.008 157.769 15.464 158.297 15.784C158.841 16.104 159.417 16.264 160.025 16.264C160.649 16.264 161.233 16.112 161.777 15.808C162.321 15.488 162.753 15.04 163.073 14.464C163.393 13.872 163.553 13.168 163.553 12.352ZM169.354 12.304C169.354 10.96 169.618 9.768 170.146 8.728C170.691 7.688 171.427 6.888 172.355 6.328C173.283 5.768 174.315 5.488 175.451 5.488C176.315 5.488 177.139 5.68 177.923 6.064C178.707 6.432 179.331 6.928 179.795 7.552V1.24H183.203V19H179.795V17.032C179.379 17.688 178.795 18.216 178.043 18.616C177.291 19.016 176.419 19.216 175.427 19.216C174.307 19.216 173.283 18.928 172.355 18.352C171.427 17.776 170.691 16.968 170.146 15.928C169.618 14.872 169.354 13.664 169.354 12.304ZM179.819 12.352C179.819 11.536 179.659 10.84 179.339 10.264C179.019 9.672 178.587 9.224 178.043 8.92C177.499 8.6 176.915 8.44 176.291 8.44C175.667 8.44 175.091 8.592 174.562 8.896C174.035 9.2 173.603 9.648 173.267 10.24C172.947 10.816 172.787 11.504 172.787 12.304C172.787 13.104 172.947 13.808 173.267 14.416C173.603 15.008 174.035 15.464 174.562 15.784C175.107 16.104 175.683 16.264 176.291 16.264C176.915 16.264 177.499 16.112 178.043 15.808C178.587 15.488 179.019 15.04 179.339 14.464C179.659 13.872 179.819 13.168 179.819 12.352ZM189.844 7.768C190.276 7.064 190.836 6.512 191.524 6.112C192.228 5.712 193.028 5.512 193.924 5.512V9.04H193.036C191.98 9.04 191.18 9.288 190.636 9.784C190.108 10.28 189.844 11.144 189.844 12.376V19H186.484V5.704H189.844V7.768ZM208.547 12.064C208.547 12.544 208.515 12.976 208.451 13.36H198.731C198.811 14.32 199.147 15.072 199.739 15.616C200.331 16.16 201.059 16.432 201.923 16.432C203.171 16.432 204.059 15.896 204.587 14.824H208.211C207.827 16.104 207.091 17.16 206.003 17.992C204.915 18.808 203.579 19.216 201.995 19.216C200.715 19.216 199.563 18.936 198.539 18.376C197.531 17.8 196.739 16.992 196.163 15.952C195.603 14.912 195.323 13.712 195.323 12.352C195.323 10.976 195.603 9.768 196.163 8.728C196.723 7.688 197.507 6.888 198.515 6.328C199.523 5.768 200.683 5.488 201.995 5.488C203.259 5.488 204.387 5.76 205.379 6.304C206.387 6.848 207.163 7.624 207.707 8.632C208.267 9.624 208.547 10.768 208.547 12.064ZM205.067 11.104C205.051 10.24 204.739 9.552 204.131 9.04C203.523 8.512 202.779 8.248 201.899 8.248C201.067 8.248 200.363 8.504 199.787 9.016C199.227 9.512 198.883 10.208 198.755 11.104H205.067ZM216.088 19.216C215 19.216 214.024 19.024 213.16 18.64C212.296 18.24 211.608 17.704 211.096 17.032C210.6 16.36 210.328 15.616 210.28 14.8H213.664C213.728 15.312 213.976 15.736 214.408 16.072C214.856 16.408 215.408 16.576 216.064 16.576C216.704 16.576 217.2 16.448 217.552 16.192C217.92 15.936 218.104 15.608 218.104 15.208C218.104 14.776 217.88 14.456 217.432 14.248C217 14.024 216.304 13.784 215.344 13.528C214.352 13.288 213.536 13.04 212.896 12.784C212.272 12.528 211.728 12.136 211.264 11.608C210.816 11.08 210.592 10.368 210.592 9.472C210.592 8.736 210.8 8.064 211.216 7.456C211.648 6.848 212.256 6.368 213.04 6.016C213.84 5.664 214.776 5.488 215.848 5.488C217.432 5.488 218.696 5.888 219.64 6.688C220.584 7.472 221.104 8.536 221.2 9.88H217.984C217.936 9.352 217.712 8.936 217.312 8.632C216.928 8.312 216.408 8.152 215.752 8.152C215.144 8.152 214.672 8.264 214.336 8.488C214.016 8.712 213.856 9.024 213.856 9.424C213.856 9.872 214.08 10.216 214.528 10.456C214.976 10.68 215.672 10.912 216.616 11.152C217.576 11.392 218.368 11.64 218.992 11.896C219.616 12.152 220.152 12.552 220.6 13.096C221.064 13.624 221.304 14.328 221.32 15.208C221.32 15.976 221.104 16.664 220.672 17.272C220.256 17.88 219.648 18.36 218.848 18.712C218.064 19.048 217.144 19.216 216.088 19.216ZM229.166 19.216C228.078 19.216 227.102 19.024 226.238 18.64C225.374 18.24 224.686 17.704 224.174 17.032C223.678 16.36 223.406 15.616 223.358 14.8H226.742C226.806 15.312 227.054 15.736 227.486 16.072C227.934 16.408 228.486 16.576 229.142 16.576C229.782 16.576 230.278 16.448 230.63 16.192C230.998 15.936 231.182 15.608 231.182 15.208C231.182 14.776 230.958 14.456 230.51 14.248C230.078 14.024 229.382 13.784 228.422 13.528C227.43 13.288 226.614 13.04 225.974 12.784C225.35 12.528 224.806 12.136 224.342 11.608C223.894 11.08 223.67 10.368 223.67 9.472C223.67 8.736 223.878 8.064 224.294 7.456C224.726 6.848 225.334 6.368 226.118 6.016C226.918 5.664 227.854 5.488 228.926 5.488C230.51 5.488 231.774 5.888 232.718 6.688C233.662 7.472 234.182 8.536 234.278 9.88H231.062C231.014 9.352 230.79 8.936 230.39 8.632C230.006 8.312 229.486 8.152 228.83 8.152C228.222 8.152 227.75 8.264 227.414 8.488C227.094 8.712 226.934 9.024 226.934 9.424C226.934 9.872 227.158 10.216 227.606 10.456C228.054 10.68 228.75 10.912 229.694 11.152C230.654 11.392 231.446 11.64 232.07 11.896C232.694 12.152 233.23 12.552 233.678 13.096C234.142 13.624 234.382 14.328 234.398 15.208C234.398 15.976 234.182 16.664 233.75 17.272C233.334 17.88 232.726 18.36 231.926 18.712C231.142 19.048 230.222 19.216 229.166 19.216Z" fill="black"/>
</svg>
