<svg width="83" height="10" viewBox="0 0 83 10" fill="none" xmlns="http://www.w3.org/2000/svg">
<path d="M1.8 1.296V4.428H4.98V5.124H1.8V8.304H5.34V9H0.96V0.599999H5.34V1.296H1.8ZM15.1912 0.719999V9H14.3512V2.388L11.3992 9H10.7872L7.83516 2.412V9H6.99516V0.719999H7.88316L11.0872 7.896L14.2912 0.719999H15.1912ZM21.9567 7.008H18.1407L17.4087 9H16.5207L19.5807 0.719999H20.5287L23.5767 9H22.6887L21.9567 7.008ZM21.7047 6.312L20.0487 1.776L18.3927 6.312H21.7047ZM25.7648 0.611999V9H24.9248V0.611999H25.7648ZM28.507 8.316H31.519V9H27.667V0.611999H28.507V8.316ZM37.5778 7.008H33.7618L33.0298 9H32.1418L35.2018 0.719999H36.1498L39.1978 9H38.3098L37.5778 7.008ZM37.3258 6.312L35.6698 1.776L34.0138 6.312H37.3258ZM43.0299 0.611999C43.9579 0.611999 44.7539 0.779999 45.4179 1.116C46.0819 1.452 46.5899 1.936 46.9419 2.568C47.2939 3.2 47.4699 3.952 47.4699 4.824C47.4699 5.688 47.2939 6.436 46.9419 7.068C46.5899 7.692 46.0819 8.172 45.4179 8.508C44.7539 8.836 43.9579 9 43.0299 9H40.5459V0.611999H43.0299ZM43.0299 8.304C44.1979 8.304 45.0859 8 45.6939 7.392C46.3099 6.776 46.6179 5.92 46.6179 4.824C46.6179 3.72 46.3099 2.86 45.6939 2.244C45.0859 1.62 44.1979 1.308 43.0299 1.308H41.3859V8.304H43.0299ZM51.5026 0.611999C52.4306 0.611999 53.2266 0.779999 53.8906 1.116C54.5546 1.452 55.0626 1.936 55.4146 2.568C55.7666 3.2 55.9426 3.952 55.9426 4.824C55.9426 5.688 55.7666 6.436 55.4146 7.068C55.0626 7.692 54.5546 8.172 53.8906 8.508C53.2266 8.836 52.4306 9 51.5026 9H49.0186V0.611999H51.5026ZM51.5026 8.304C52.6706 8.304 53.5586 8 54.1666 7.392C54.7826 6.776 55.0906 5.92 55.0906 4.824C55.0906 3.72 54.7826 2.86 54.1666 2.244C53.5586 1.62 52.6706 1.308 51.5026 1.308H49.8586V8.304H51.5026ZM61.9553 9L59.8793 5.496H58.3313V9H57.4913V0.611999H60.0113C60.9473 0.611999 61.6553 0.835999 62.1353 1.284C62.6233 1.732 62.8672 2.32 62.8672 3.048C62.8672 3.656 62.6913 4.176 62.3393 4.608C61.9953 5.032 61.4833 5.308 60.8033 5.436L62.9633 9H61.9553ZM58.3313 4.812H60.0233C60.6793 4.812 61.1713 4.652 61.4993 4.332C61.8353 4.012 62.0033 3.584 62.0033 3.048C62.0033 2.496 61.8433 2.072 61.5233 1.776C61.2033 1.472 60.6993 1.32 60.0113 1.32H58.3313V4.812ZM65.3742 1.296V4.428H68.5542V5.124H65.3742V8.304H68.9142V9H64.5342V0.599999H68.9142V1.296H65.3742ZM73.1134 9.084C72.5614 9.084 72.0734 8.988 71.6494 8.796C71.2334 8.604 70.9054 8.336 70.6654 7.992C70.4254 7.648 70.2974 7.264 70.2814 6.84H71.1694C71.2094 7.248 71.3894 7.608 71.7094 7.92C72.0294 8.224 72.4974 8.376 73.1134 8.376C73.6814 8.376 74.1294 8.232 74.4574 7.944C74.7934 7.648 74.9614 7.276 74.9614 6.828C74.9614 6.468 74.8694 6.18 74.6854 5.964C74.5014 5.74 74.2734 5.576 74.0014 5.472C73.7294 5.36 73.3534 5.24 72.8734 5.112C72.3134 4.96 71.8694 4.812 71.5414 4.668C71.2134 4.524 70.9334 4.3 70.7014 3.996C70.4694 3.692 70.3534 3.28 70.3534 2.76C70.3534 2.328 70.4654 1.944 70.6894 1.608C70.9134 1.264 71.2294 0.996 71.6374 0.804C72.0454 0.612 72.5134 0.516 73.0414 0.516C73.8174 0.516 74.4414 0.708 74.9134 1.092C75.3934 1.468 75.6694 1.956 75.7414 2.556H74.8294C74.7734 2.212 74.5854 1.908 74.2654 1.644C73.9454 1.372 73.5134 1.236 72.9694 1.236C72.4654 1.236 72.0454 1.372 71.7094 1.644C71.3734 1.908 71.2054 2.272 71.2054 2.736C71.2054 3.088 71.2974 3.372 71.4814 3.588C71.6654 3.804 71.8934 3.968 72.1654 4.08C72.4454 4.192 72.8214 4.312 73.2934 4.44C73.8374 4.592 74.2774 4.744 74.6134 4.896C74.9494 5.04 75.2334 5.264 75.4654 5.568C75.6974 5.872 75.8134 6.28 75.8134 6.792C75.8134 7.184 75.7094 7.556 75.5014 7.908C75.2934 8.26 74.9854 8.544 74.5774 8.76C74.1694 8.976 73.6814 9.084 73.1134 9.084ZM79.9806 9.084C79.4286 9.084 78.9406 8.988 78.5166 8.796C78.1006 8.604 77.7726 8.336 77.5326 7.992C77.2926 7.648 77.1646 7.264 77.1486 6.84H78.0366C78.0766 7.248 78.2566 7.608 78.5766 7.92C78.8966 8.224 79.3646 8.376 79.9806 8.376C80.5486 8.376 80.9966 8.232 81.3246 7.944C81.6606 7.648 81.8286 7.276 81.8286 6.828C81.8286 6.468 81.7366 6.18 81.5526 5.964C81.3686 5.74 81.1406 5.576 80.8686 5.472C80.5966 5.36 80.2206 5.24 79.7406 5.112C79.1806 4.96 78.7366 4.812 78.4086 4.668C78.0806 4.524 77.8006 4.3 77.5686 3.996C77.3366 3.692 77.2206 3.28 77.2206 2.76C77.2206 2.328 77.3326 1.944 77.5566 1.608C77.7806 1.264 78.0966 0.996 78.5046 0.804C78.9126 0.612 79.3806 0.516 79.9086 0.516C80.6846 0.516 81.3086 0.708 81.7806 1.092C82.2606 1.468 82.5366 1.956 82.6086 2.556H81.6966C81.6406 2.212 81.4526 1.908 81.1326 1.644C80.8126 1.372 80.3806 1.236 79.8366 1.236C79.3326 1.236 78.9126 1.372 78.5766 1.644C78.2406 1.908 78.0726 2.272 78.0726 2.736C78.0726 3.088 78.1646 3.372 78.3486 3.588C78.5326 3.804 78.7606 3.968 79.0326 4.08C79.3126 4.192 79.6886 4.312 80.1606 4.44C80.7046 4.592 81.1446 4.744 81.4806 4.896C81.8166 5.04 82.1006 5.264 82.3326 5.568C82.5646 5.872 82.6806 6.28 82.6806 6.792C82.6806 7.184 82.5766 7.556 82.3686 7.908C82.1606 8.26 81.8526 8.544 81.4446 8.76C81.0366 8.976 80.5486 9.084 79.9806 9.084Z" fill="#333333" fill-opacity="0.6"/>
</svg>
