<svg width="147" height="147" viewBox="0 0 147 147" fill="none" xmlns="http://www.w3.org/2000/svg">
<path d="M39.7619 68.8074C39.5349 68.5975 39.3532 68.3747 39.2211 68.1445L39.7619 68.8074Z" fill="#B76028"/>
<path d="M102.86 50.8876L102.926 51.4092C102.928 55.6529 89.9829 62.5847 73.1114 67.2539C56.2398 71.9231 41.5774 72.6347 39.3985 68.9838L39.185 68.4986L102.86 50.8876Z" fill="#B76028"/>
<path d="M102.424 50.4765L39.3518 68.1578C38.2148 63.9845 51.4066 56.6457 68.8212 51.7642C86.2359 46.8827 101.282 46.3028 102.424 50.4765Z" fill="#B76028"/>
<path d="M102.928 51.5025L102.387 50.8396C102.687 51.0654 102.869 51.2884 102.928 51.5025V51.5025Z" fill="#B76028"/>
<path d="M50.1146 39.7764L46.7919 40.6958L55.9876 73.9276L59.3103 73.0081L50.1146 39.7764Z" fill="#EDD398"/>
<path d="M57.5172 73.5923L54.19 74.5272L48.3626 53.0941L45.0325 40.8266L48.3552 39.8861L51.7461 52.3623L57.5172 73.5923Z" fill="#FFE6A9"/>
<path d="M71.8487 45.3789L68.129 45.6904L71.2465 82.9128L74.9662 82.6012L71.8487 45.3789Z" fill="#EDD398"/>
<path d="M73.0357 82.4454L69.4052 82.7589L67.4908 59.4041L66.3923 46.0407L70.0273 45.7327L71.1431 59.3201L73.0357 82.4454Z" fill="#FFE6A9"/>
<path d="M80.6939 33.8386L76.9743 34.1501L80.0918 71.3725L83.8115 71.061L80.6939 33.8386Z" fill="#EDD398"/>
<path d="M82.0817 71.1918L78.4451 71.5158L76.5686 47.7883L75.4967 34.2122L79.1332 33.8882L80.2216 47.697L82.0817 71.1918Z" fill="#FFE6A9"/>
<path d="M82.6905 40.7041L79.0737 41.6272L88.3109 77.8197L91.9277 76.8966L82.6905 40.7041Z" fill="#EDD398"/>
<path d="M89.9566 77.4758L86.3406 78.3966L80.4706 55.4218L77.1112 42.2717L80.7277 41.3459L84.1409 54.7212L89.9566 77.4758Z" fill="#FFE6A9"/>
<path d="M71.3658 33.3241L67.7682 34.3196L77.7299 70.3194L81.3274 69.3239L71.3658 33.3241Z" fill="#EDD398"/>
<path d="M79.8029 69.6791L76.2229 70.6823L69.9366 47.7099L66.3404 34.5649L69.9204 33.5617L73.5807 46.929L79.8029 69.6791Z" fill="#FFE6A9"/>
<path d="M65.1373 37.0968L61.5398 38.0923L71.5015 74.0921L75.099 73.0966L65.1373 37.0968Z" fill="#EDD398"/>
<path d="M73.3549 73.3037L69.7771 74.2846L63.4532 51.6826L59.8358 38.7466L63.4136 37.7658L67.0954 50.9205L73.3549 73.3037Z" fill="#FFE6A9"/>
<path d="M45.0994 47.0595L41.9758 48.5186L56.5684 79.759L59.692 78.2999L45.0994 47.0595Z" fill="#EDD398"/>
<path d="M58.1607 79.2347L55.0434 80.694L45.8033 60.7844L40.5161 49.384L43.629 47.919L49.0092 59.5084L58.1607 79.2347Z" fill="#FFE6A9"/>
<path d="M40.3815 51.7038L37.2579 53.1628L51.8505 84.4033L54.9741 82.9442L40.3815 51.7038Z" fill="#EDD398"/>
<path d="M53.46 83.6173L50.3473 85.082L41.1023 65.1698L35.815 53.7711L38.9328 52.3069L44.3081 63.8941L53.46 83.6173Z" fill="#FFE6A9"/>
<path d="M86.38 34.2291L82.7824 35.2246L92.7441 71.2245L96.3417 70.229L86.38 34.2291Z" fill="#EDD398"/>
<path d="M94.9097 70.603L91.2014 71.5934L84.6155 48.5926L80.8453 35.4281L84.5482 34.4372L88.3804 47.8237L94.9097 70.603Z" fill="#FFE6A9"/>
<path d="M99.293 37.6153L94.8272 37.8796L97.041 75.2731L101.507 75.0087L99.293 37.6153Z" fill="#EDD398"/>
<path d="M98.5794 70.3904L94.2311 70.685L92.8021 47.0296L91.9863 33.4904L96.3342 33.201L97.1625 46.9611L98.5794 70.3904Z" fill="#FFE6A9"/>
<path d="M56.5293 43.2322L53.0887 43.4521L55.2884 77.8625L58.7289 77.6426L56.5293 43.2322Z" fill="#EDD398"/>
<path d="M57.0798 77.902L53.6332 78.1188L52.2228 56.2914L51.4185 43.8034L54.86 43.586L55.6839 56.2852L57.0798 77.902Z" fill="#FFE6A9"/>
<path d="M91.2732 26.4262L87.5481 26.6643L90.5228 73.2003L94.248 72.9622L91.2732 26.4262Z" fill="#EDD398"/>
<path d="M92.2442 72.9046L88.6635 73.1602L86.9614 43.605L85.9879 26.6899L89.5685 26.4343L90.557 43.6373L92.2442 72.9046Z" fill="#FFE6A9"/>
<path d="M57.9697 36.3044L53.8792 37.9114L68.3007 74.6208L72.3911 73.0139L57.9697 36.3044Z" fill="#EDD398"/>
<path d="M70.2907 73.5406L66.2358 75.1411L57.148 51.9106L51.945 38.6139L56.005 37.0139L61.292 50.5331L70.2907 73.5406Z" fill="#FFE6A9"/>
<path d="M57.738 48.9158L54.4854 51.3435L76.2675 80.5264L79.5201 78.0987L57.738 48.9158Z" fill="#EDD398"/>
<path d="M78.242 79.0717L74.9672 81.4992L60.9948 62.8924L52.9947 52.2421L56.2752 49.81L64.4069 60.6377L78.242 79.0717Z" fill="#FFE6A9"/>
<path d="M58.4046 57.7507L55.5947 60.2312L77.8479 85.4392L80.6577 82.9587L58.4046 57.7507Z" fill="#EDD398"/>
<path d="M79.5584 84.0791L76.7499 86.5441L62.5902 70.611L54.4886 61.4937L57.2967 59.0338L65.5365 68.3023L79.5584 84.0791Z" fill="#FFE6A9"/>
<path d="M102.747 51.4841L108.927 98.5882C109.124 100.15 108.752 101.729 107.879 103.04C107.006 104.351 105.69 105.306 104.17 105.732L66.6121 116.072C65.0843 116.497 63.4535 116.355 62.0213 115.674C60.5891 114.993 59.4524 113.819 58.8214 112.369L39.7616 68.8086C41.9487 72.4066 56.4589 71.7075 73.1711 67.1133C89.8834 62.5192 102.751 55.6741 102.747 51.4841Z" fill="#D16B28"/>
</svg>
