<svg width="147" height="147" viewBox="0 0 147 147" fill="none" xmlns="http://www.w3.org/2000/svg">
<g clip-path="url(#clip0_254_2864)">
<path d="M26.0746 73.2646C26.0746 73.1596 26.0746 73.0557 26.0746 72.953C26.0746 71.2011 26.9439 69.5138 28.5482 67.9375H28.5986C28.9565 67.9179 29.314 67.9828 29.6458 68.1274C29.7689 68.1882 29.8753 68.282 29.9546 68.3996C30.0501 68.5484 30.1016 68.7244 30.1022 68.9048C30.1425 70.0368 28.9443 72.0358 28.659 74.2785C28.659 74.343 28.6422 74.4074 28.6355 74.4755C28.6114 74.7135 28.5991 74.9527 28.5986 75.192C28.6331 76.295 28.8608 77.3812 29.2699 78.3947L29.3873 78.7064L29.2363 78.5775C29.1658 78.5201 29.0987 78.4592 29.0316 78.3983L28.8335 78.2192L28.6456 78.0401C28.5214 77.9219 28.3972 77.8001 28.2831 77.6818C28.169 77.5636 28.0783 77.4597 27.981 77.3487C27.6208 76.9455 27.2961 76.5078 27.011 76.0411L26.9271 75.8978C26.8023 75.6834 26.6902 75.4608 26.5915 75.2314C26.5411 75.1168 26.4941 75.0021 26.4505 74.8732C26.427 74.8087 26.4035 74.7442 26.3834 74.6797C26.3632 74.6152 26.3397 74.5472 26.3196 74.4827C26.2354 74.1961 26.1737 73.9025 26.135 73.605C26.135 73.5512 26.135 73.5011 26.135 73.4473C26.135 73.3936 26.135 73.3435 26.135 73.2933C26.1364 73.2838 26.1364 73.2741 26.135 73.2646H26.0746Z" fill="#BF4E49"/>
<path d="M29.9007 80.1324C30.2766 81.2501 30.9076 84.0731 29.2596 84.0731C28.7797 84.0731 28.1722 84.0731 27.4875 84.0731C23.3625 84.0122 15.7401 80.7593 16.3309 74.7586V74.4004C16.8679 78.9967 22.7684 80.401 26.5611 80.4906C27.3499 80.4906 28.048 80.4906 28.5749 80.4906C29.2798 80.4763 29.6893 80.3581 29.9007 80.1324Z" fill="#353535"/>
<path d="M121.711 73.2646C121.711 73.2646 121.711 73.2969 121.711 73.3112C121.711 73.3255 121.711 73.4151 121.711 73.4652C121.711 73.5154 121.711 73.5691 121.711 73.6229C121.672 73.9204 121.611 74.2139 121.527 74.5006C121.506 74.5651 121.486 74.6295 121.463 74.6976C121.439 74.7657 121.419 74.8266 121.396 74.8911C121.352 75.0093 121.305 75.1239 121.255 75.2493C121.156 75.4787 121.044 75.7012 120.919 75.9156L120.835 76.0589C120.55 76.5256 120.225 76.9634 119.865 77.3666C119.767 77.4788 119.666 77.5899 119.563 77.6997C119.449 77.8215 119.325 77.9433 119.201 78.058L119.013 78.2371L118.815 78.4162C118.748 78.4771 118.68 78.538 118.61 78.5953L118.365 78.8031L118.147 78.9787C117.929 79.1542 117.697 79.3369 117.459 79.5017L117.053 79.7847C116.626 80.0785 116.173 80.3687 115.71 80.6481L115.428 80.8129C112.606 82.3584 109.643 83.5889 106.584 84.4849C106.151 84.6175 105.711 84.7465 105.262 84.8754L104.946 84.965L104.335 85.1334C103.943 85.2409 103.543 85.3447 103.14 85.4486C102.254 85.6707 101.348 85.8857 100.415 86.0935L100.032 86.1723C99.2067 86.3514 98.3631 86.521 97.5016 86.681C97.0687 86.7634 96.6357 86.8422 96.196 86.9175L95.4509 87.0428C95.1152 87.1002 94.7796 87.1503 94.444 87.2041C93.813 87.3044 93.1753 87.3987 92.5308 87.4871C91.3225 87.6566 90.0919 87.8083 88.8388 87.942C88.3219 87.9994 87.8017 88.0531 87.2747 88.1033C85.5764 88.2645 83.8378 88.397 82.069 88.4973C81.0252 88.5546 79.9679 88.6048 78.9006 88.6406H78.6791C77.9306 88.6621 77.1754 88.6836 76.4169 88.6944C75.5979 88.7087 74.7734 88.7159 73.9432 88.7159C73.1131 88.7159 72.2885 88.7087 71.4696 88.6944C70.711 88.6944 69.9558 88.6621 69.2074 88.6406H68.9858C67.9185 88.6048 66.8613 88.5546 65.8174 88.4973L64.4144 88.4113L64.0452 88.3863L63.2833 88.3289L62.6322 88.2788L62.1657 88.2394L60.6285 88.1033C60.1015 88.0531 59.5813 87.9994 59.0644 87.942L58.5274 87.8847L57.7252 87.7916L57.215 87.7307H57.1378L56.6612 87.6698H56.5706L55.7181 87.5551L55.3119 87.5014L54.4426 87.376L53.3988 87.2184L52.9222 87.1431L52.4053 87.0572L51.6602 86.9318C51.2205 86.8566 50.7876 86.7777 50.3546 86.6953C49.4909 86.5353 48.6473 86.3658 47.8239 86.1866L47.4412 86.1078C46.5082 85.9 45.6019 85.6851 44.7159 85.463C44.3131 85.3591 43.9137 85.2552 43.521 85.1477L42.9101 84.9793L42.5946 84.8898C42.1449 84.7608 41.7052 84.6318 41.2722 84.4993C38.2049 83.598 35.2332 82.3602 32.4047 80.8057L32.1227 80.6409C31.6428 80.3615 31.1897 80.0713 30.7802 79.7776L30.3741 79.4945L30.0686 79.2724C29.9377 79.1757 29.8102 79.0754 29.686 78.9751L29.4678 78.7995L29.3739 78.7207L29.2228 78.5918C29.1523 78.5344 29.0852 78.4735 29.0181 78.4126L28.82 78.2335L28.6321 78.0544C28.5079 77.9362 28.3837 77.8144 28.2696 77.6961C28.1555 77.5779 28.0649 77.474 27.9675 77.363C27.6073 76.9598 27.2826 76.5221 26.9975 76.0554L26.9136 75.9121C26.7888 75.6977 26.6767 75.4751 26.578 75.2457C26.5276 75.1311 26.4807 75.0164 26.437 74.8875C26.4135 74.823 26.39 74.7585 26.3699 74.694C26.3498 74.6295 26.3263 74.5615 26.3061 74.497C26.222 74.2104 26.1602 73.9168 26.1215 73.6193C26.1215 73.5655 26.1215 73.5154 26.1215 73.4616C26.1215 73.4079 26.1215 73.3578 26.1215 73.3076C26.123 73.2981 26.123 73.2884 26.1215 73.2789V73.2789C26.2457 70.8106 27.4976 69.1842 29.6826 68.1417C29.8169 68.0808 29.9545 68.0163 30.0988 67.959C30.6314 67.729 31.1774 67.5363 31.7334 67.3822C39.7887 65.204 55.6577 67.5864 73.9029 67.5864C92.1482 67.5864 108 65.1969 116.062 67.3822C119.53 68.3136 121.553 70.0941 121.711 73.2646Z" fill="#353535"/>
<path d="M121.721 72.9529C121.721 73.0579 121.721 73.1618 121.721 73.2645C121.721 73.2645 121.721 73.2968 121.721 73.3111H119.372C119.389 73.1458 119.398 72.9795 119.398 72.8131C119.398 70.8893 118.224 69.0551 116.089 67.3749C109.343 62.0621 93.0039 58.3148 73.9195 58.3148C54.8352 58.3148 38.4695 62.0621 31.7332 67.3821C31.146 67.8367 30.5999 68.3488 30.102 68.9118C29.9055 69.1278 29.7227 69.3576 29.5549 69.5996C28.8508 70.5092 28.4525 71.6444 28.4238 72.8239C28.4243 72.9903 28.4333 73.1565 28.4507 73.3218H26.1012C26.1026 73.3124 26.1026 73.3027 26.1012 73.2932V73.2932C26.1012 73.1881 26.1012 73.0842 26.1012 72.9815C26.1012 71.2297 26.9705 69.5423 28.5748 67.966C28.9807 67.5687 29.4076 67.1967 29.8536 66.8519C37.1101 61.1916 54.1135 57.2186 73.9296 57.2186C100.307 57.1899 121.721 64.2474 121.721 72.9529Z" fill="#444444"/>
<path d="M72.8859 111.644C95.7788 111.644 114.337 107.554 114.337 102.509C114.337 97.4633 95.7788 93.3733 72.8859 93.3733C49.993 93.3733 31.4346 97.4633 31.4346 102.509C31.4346 107.554 49.993 111.644 72.8859 111.644Z" fill="#CECECE"/>
<path d="M73.8928 87.3044C99.0101 87.3044 119.372 80.8149 119.372 72.8097C119.372 64.8045 99.0101 58.3149 73.8928 58.3149C48.7755 58.3149 28.4138 64.8045 28.4138 72.8097C28.4138 80.8149 48.7755 87.3044 73.8928 87.3044Z" fill="#C6C6C6"/>
<path d="M28.4407 73.3113C28.4407 73.3113 46.7598 66.8378 51.2372 66.1464C55.7146 65.4549 72.6241 66.6515 75.0675 65.7881C77.511 64.9247 89.4832 66.0711 98.8978 67.5794C102.432 68.1454 119.372 68.7293 119.372 72.8098C119.372 76.8902 117.257 91.0625 72.6811 87.5589C28.1051 84.0552 30.4814 84.0588 28.4407 73.3113Z" fill="#47201A"/>
<path d="M62.5852 69.6643C62.5852 71.5666 57.9534 73.3113 53.2914 73.3113C48.6294 73.3113 45.7026 71.5666 45.7026 69.6643C45.7026 68.2313 47.8843 65.6985 50.9789 64.57C51.6701 64.3142 52.3862 64.1423 53.1135 64.0577C53.4099 64.021 53.7079 64.0007 54.0063 63.9968H54.1439C54.5299 63.9964 54.9155 64.0215 55.2985 64.0721C59.4168 64.6166 62.5852 67.9232 62.5852 69.6643Z" fill="#4F2518"/>
<path d="M55.2985 64.0721C55.2075 64.5041 55.0795 64.9262 54.9159 65.3331C54.6674 65.96 54.3792 66.568 54.0533 67.153C52.9859 69.0732 51.6031 70.628 51.2037 69.4637C50.8916 68.543 51.5158 67.2426 52.3583 66.0317C52.764 65.4565 53.1999 64.9063 53.6639 64.3837C53.778 64.2476 53.8899 64.1186 53.9996 63.9968H54.1372C54.5254 63.9961 54.9132 64.0212 55.2985 64.0721V64.0721Z" fill="#F4F4F4"/>
<path d="M57.5137 67.9876C57.0438 68.4891 55.52 67.9876 54.0533 67.1529C53.469 66.8233 52.9081 66.4486 52.3751 66.0316C51.8267 65.6499 51.3572 65.1525 50.9956 64.5699C51.6869 64.3141 52.4029 64.1422 53.1303 64.0576C53.3189 64.156 53.5027 64.2648 53.6807 64.3836C54.1163 64.6717 54.5344 64.9888 54.9326 65.333C55.8532 66.1486 56.716 67.0359 57.5137 67.9876V67.9876Z" fill="#F4F4F4"/>
<path d="M74.6949 39.8258C73.6175 45.0312 69.3515 43.0931 69.0226 47.6321C68.6937 52.1711 63.7329 47.5783 64.035 52.3824C64.3371 57.1865 61.9306 55.4992 62.1252 58.315C62.3199 61.1309 62.9475 64.5808 62.9475 64.5808C62.9475 64.5808 59.9537 71.366 60.296 73.7699C60.6384 76.1737 60.0476 79.1436 59.5039 81.2501C58.9602 83.3566 60.4202 85.1048 60.4202 85.1048C60.4202 85.1048 62.4609 80.1646 64.2364 75.8405C66.0119 71.5165 64.572 63.9538 69.1501 61.8259C73.7282 59.6979 79.6892 59.8197 79.0582 53.4894C78.4272 47.1592 82.4582 42.1437 83.4651 40.3525C84.472 38.5612 81.2902 35.8564 81.2902 35.8564C81.2902 35.8564 75.3158 36.7915 74.6949 39.8258Z" fill="#0E5110"/>
<path d="M76.3163 44.834C76.3163 44.834 65.6732 57.2974 65.3342 63.513C64.9952 69.7287 64.4146 73.544 64.4146 73.544C64.4146 73.544 68.1066 59.7013 70.0835 56.3051C72.0604 52.9089 76.3163 44.834 76.3163 44.834Z" fill="#377C37"/>
<path d="M78.8501 47.0766C78.5145 52.393 74.017 51.1463 74.319 55.6745C74.6211 60.2028 69.0797 56.4519 70.0397 61.1593C70.9996 65.8667 68.3917 64.5698 68.9723 67.3248C69.553 70.0797 70.6505 73.3935 70.6505 73.3935C70.6505 73.3935 68.6367 80.5764 69.308 82.9014C69.9792 85.2264 69.8047 88.2751 69.5563 90.4246C69.308 92.5741 70.9962 94.0931 70.9962 94.0931C70.9962 94.0931 72.3388 88.8841 73.49 84.3308C74.6412 79.7775 72.181 72.5086 76.4168 69.6928C80.6525 66.8769 86.5631 66.053 85.0662 59.8875C83.5692 53.7221 86.8618 48.1298 87.6103 46.2024C88.3588 44.2751 84.848 42.0969 84.848 42.0969C84.848 42.0969 79.0582 43.9777 78.8501 47.0766Z" fill="#0E5110"/>
<path d="M81.1525 51.7734C81.1525 51.7734 72.3453 65.7738 72.8689 71.9751C73.3925 78.1763 73.3522 82.0239 73.3522 82.0239C73.3522 82.0239 75.0976 67.7406 76.571 64.0828C78.0445 60.4251 81.1525 51.7734 81.1525 51.7734Z" fill="#377C37"/>
<path d="M84.6836 53.1491C84.3983 57.5413 80.6929 56.5131 80.9446 60.2639C81.1963 64.0148 76.6182 60.9052 77.4103 64.7922C78.2024 68.6792 76.0376 67.608 76.5276 69.8901C77.0176 72.1721 77.9104 74.9055 77.9104 74.9055C77.9104 74.9055 76.2323 80.8346 76.7961 82.7548C77.36 84.675 77.2056 87.1899 77.0009 88.9668C76.7961 90.7437 78.1857 91.9976 78.1857 91.9976C78.1857 91.9976 79.2899 87.6986 80.2498 83.9334C81.2098 80.1682 79.1657 74.1819 82.6631 71.8497C86.1604 69.5175 91.054 68.844 89.8055 63.7533C88.5569 58.6626 91.289 54.0448 91.9065 52.4506C92.5241 50.8563 89.6242 49.0615 89.6242 49.0615C89.6242 49.0615 84.8514 50.5912 84.6836 53.1491Z" fill="#0E5110"/>
<path d="M86.5864 57.0322C86.5864 57.0322 79.3132 68.5893 79.7461 73.7087C80.1791 78.828 80.1355 82.0093 80.1355 82.0093C80.1355 82.0093 81.5854 70.2229 82.8004 67.1921C84.0154 64.1614 86.5864 57.0322 86.5864 57.0322Z" fill="#377C37"/>
<path d="M91.2687 45.6437C90.9331 50.9601 86.4355 49.7134 86.7376 54.2417C87.0397 58.7699 81.4983 55.0191 82.4582 59.7264C83.4182 64.4338 80.8102 63.137 81.3909 65.8919C81.9716 68.6468 83.0691 71.9606 83.0691 71.9606C83.0691 71.9606 81.0553 79.1435 81.7265 81.4685C82.3978 83.7936 82.2233 86.8423 81.9749 88.9917C81.7265 91.1412 83.4148 92.6602 83.4148 92.6602C83.4148 92.6602 84.7574 87.4513 85.9086 82.8979C87.0598 78.3446 84.5996 71.0757 88.8354 68.2599C93.0711 65.4441 98.9817 64.6201 97.4847 58.4547C95.9878 52.2892 99.2804 46.697 100.029 44.7696C100.777 42.8422 97.2666 40.6641 97.2666 40.6641C97.2666 40.6641 91.4768 42.5449 91.2687 45.6437Z" fill="#0E5110"/>
<path d="M93.571 50.3403C93.571 50.3403 84.7639 64.3407 85.2875 70.5419C85.8111 76.7432 85.7708 80.5908 85.7708 80.5908C85.7708 80.5908 87.5161 66.3075 88.9896 62.6497C90.463 58.992 93.571 50.3403 93.571 50.3403Z" fill="#377C37"/>
<path d="M97.1022 51.716C96.8169 56.1082 93.1115 55.08 93.3632 58.8308C93.6149 62.5817 89.0368 59.4721 89.8289 63.3591C90.621 67.2461 88.4562 66.1749 88.9462 68.457C89.4362 70.739 90.329 73.4724 90.329 73.4724C90.329 73.4724 88.6508 79.4014 89.2147 81.3217C89.7786 83.2419 89.6242 85.7568 89.4194 87.5337C89.2147 89.3106 90.6042 90.5645 90.6042 90.5645C90.6042 90.5645 91.7085 86.2655 92.6684 82.5003C93.6283 78.7351 91.5843 72.7488 95.0817 70.4166C98.579 68.0844 103.473 67.4109 102.224 62.3202C100.975 57.2295 103.708 52.6116 104.325 51.0174C104.943 49.4232 102.043 47.6284 102.043 47.6284C102.043 47.6284 97.27 49.1581 97.1022 51.716Z" fill="#0E5110"/>
<path d="M99.0052 55.5994C99.0052 55.5994 91.7319 67.1565 92.1649 72.2758C92.5979 77.3952 92.5542 80.5764 92.5542 80.5764C92.5542 80.5764 94.0042 68.7901 95.2192 65.7593C96.4342 62.7285 99.0052 55.5994 99.0052 55.5994Z" fill="#377C37"/>
<path d="M63.045 49.3336C63.2833 54.0159 67.2405 52.9913 66.9115 56.9929C66.5826 60.9945 71.5064 57.7596 70.6035 61.883C69.7007 66.0064 72.0065 64.9102 71.4561 67.3248C70.9056 69.7394 69.8987 72.6376 69.8987 72.6376C69.8987 72.6376 71.5769 78.9858 70.956 81.017C70.335 83.0483 70.4458 85.7316 70.6203 87.6303C70.7949 89.529 69.3046 90.8545 69.3046 90.8545C69.3046 90.8545 68.2004 86.251 67.2438 82.2279C66.2872 78.2048 68.5595 71.8602 64.8742 69.3095C61.1889 66.7588 56.01 65.9133 57.4096 60.5181C58.8092 55.1229 55.9966 50.1468 55.3622 48.438C54.7279 46.7291 57.8493 44.8555 57.8493 44.8555C57.8493 44.8555 62.9074 46.6037 63.045 49.3336Z" fill="#0E5110"/>
<path d="M60.9541 53.4285C60.9541 53.4285 68.506 65.8812 67.9589 71.3409C67.4118 76.8006 67.4084 80.1717 67.4084 80.1717C67.4084 80.1717 66.0659 67.59 64.8139 64.3407C63.562 61.0914 60.9541 53.4285 60.9541 53.4285Z" fill="#377C37"/>
<path d="M70.882 88.1607C70.882 88.1607 78.6655 69.4351 81.2868 67.2068" stroke="#EFE6DA" stroke-width="1.62984" stroke-miterlimit="10"/>
<path d="M82.1023 67.9697C81.9077 68.4175 81.3438 68.1882 80.6725 67.8551C80.0012 67.5219 79.4709 67.2102 79.6656 66.7803C79.8603 66.3504 80.5651 66.2394 81.2397 66.5725C81.9144 66.9057 82.297 67.5219 82.1023 67.9697Z" fill="#EFE6DA"/>
<path d="M72.8021 91.5963C72.8021 91.5963 78.8436 72.1577 81.2602 69.6643" stroke="#EFE6DA" stroke-width="1.62984" stroke-miterlimit="10"/>
<path d="M82.136 70.3521C81.9816 70.8214 81.401 70.6459 80.7028 70.3843C80.0047 70.1228 79.4509 69.8685 79.6019 69.4027C79.753 68.937 80.4478 68.7722 81.1492 69.0445C81.8507 69.3168 82.2904 69.89 82.136 70.3521Z" fill="#EFE6DA"/>
<path d="M68.9288 90.3101C68.9288 90.3101 74.9703 70.8716 77.3835 68.3782" stroke="#EFE6DA" stroke-width="1.62984" stroke-miterlimit="10"/>
<path d="M78.2628 69.0694C78.1084 69.5387 77.5278 69.3668 76.8296 69.1017C76.1315 68.8366 75.5744 68.5894 75.7288 68.1201C75.8831 67.6508 76.5746 67.4896 77.2727 67.7618C77.9708 68.0341 78.4172 68.6037 78.2628 69.0694Z" fill="#EFE6DA"/>
<path d="M72.8892 95.1966C72.8892 95.1966 78.9306 75.7545 81.3472 73.2646" stroke="#EFE6DA" stroke-width="1.62984" stroke-miterlimit="10"/>
<path d="M82.2268 73.9526C82.0724 74.4183 81.4918 74.2463 80.7903 73.9848C80.0888 73.7233 79.5383 73.4689 79.6927 73.0032C79.8471 72.5375 80.5385 72.3691 81.2367 72.645C81.9348 72.9208 82.3778 73.4725 82.2268 73.9526Z" fill="#EFE6DA"/>
<path d="M74.3861 93.5343C74.3861 93.5343 80.4276 74.0957 82.8442 71.6023" stroke="#EFE6DA" stroke-width="1.62984" stroke-miterlimit="10"/>
<path d="M83.7204 72.3045C83.5694 72.7738 82.9887 72.5983 82.2872 72.3367C81.5857 72.0752 81.0353 71.8209 81.1897 71.3551C81.3441 70.8894 82.0321 70.7246 82.7336 70.9969C83.4351 71.2692 83.8748 71.8388 83.7204 72.3045Z" fill="#EFE6DA"/>
<path d="M68.0091 88.2718C68.0091 88.2718 74.0505 68.8333 76.4671 66.3398" stroke="#EFE6DA" stroke-width="1.62984" stroke-miterlimit="10"/>
<path d="M77.3429 67.024C77.1918 67.4933 76.6112 67.3178 75.9097 67.0563C75.2082 66.7947 74.6578 66.544 74.8088 66.0747C74.9599 65.6054 75.6546 65.4441 76.3561 65.7164C77.0576 65.9887 77.4973 66.5619 77.3429 67.024Z" fill="#EFE6DA"/>
<path d="M73.9699 90.5611C73.9699 90.5611 81.7534 71.8391 84.3747 69.6072" stroke="#EFE6DA" stroke-width="1.62984" stroke-miterlimit="10"/>
<path d="M85.1902 70.3843C84.9955 70.8321 84.4316 70.6028 83.7604 70.2696C83.0891 69.9364 82.5588 69.6248 82.7535 69.1949C82.9481 68.765 83.653 68.6539 84.3242 68.9871C84.9955 69.3203 85.3849 69.9364 85.1902 70.3843Z" fill="#EFE6DA"/>
<path d="M70.4289 89.6401C70.4289 89.6401 76.7154 70.2947 79.1555 67.8264" stroke="#EFE6DA" stroke-width="1.62984" stroke-miterlimit="10"/>
<path d="M80.025 68.5287C79.8672 68.9944 79.2866 68.8117 78.5918 68.5287C77.897 68.2456 77.3432 67.9985 77.5043 67.5327C77.6654 67.067 78.3569 66.913 79.0516 67.1745C79.7464 67.436 80.1827 68.0629 80.025 68.5287Z" fill="#EFE6DA"/>
<path d="M73.6879 91.7681C73.6879 91.7681 79.9744 72.4227 82.4145 69.9543" stroke="#EFE6DA" stroke-width="1.62984" stroke-miterlimit="10"/>
<path d="M83.2907 70.6566C83.1329 71.1223 82.5523 70.9396 81.8575 70.6566C81.1627 70.3736 80.6089 70.1264 80.77 69.6607C80.9311 69.1949 81.6225 69.0409 82.3173 69.3024C83.0121 69.5639 83.4518 70.1909 83.2907 70.6566Z" fill="#EFE6DA"/>
<path d="M70.929 92.9324C70.929 92.9324 76.9705 73.4939 79.3871 71.0005" stroke="#EFE6DA" stroke-width="1.62984" stroke-miterlimit="10"/>
<path d="M80.2666 71.6812C80.1122 72.1505 79.5316 71.975 78.8301 71.7134C78.1286 71.4519 77.5782 71.1976 77.7326 70.7318C77.887 70.2661 78.5784 70.1013 79.2765 70.3736C79.9746 70.6459 80.4177 71.2226 80.2666 71.6812Z" fill="#EFE6DA"/>
<path d="M70.11 93.2263C70.11 93.2263 74.3054 73.3042 76.4871 70.5564" stroke="#EFE6DA" stroke-width="1.62984" stroke-miterlimit="10"/>
<path d="M77.4371 71.1329C77.3264 71.613 76.729 71.5127 75.9973 71.3336C75.2656 71.1544 74.6883 70.9753 74.7957 70.4953C74.9031 70.0152 75.5844 69.7788 76.3161 69.9471C77.0478 70.1155 77.5479 70.6565 77.4371 71.1329Z" fill="#EFE6DA"/>
<path d="M67.0995 92.008C67.0995 92.008 73.1409 72.5659 75.5542 70.0725" stroke="#EFE6DA" stroke-width="1.62984" stroke-miterlimit="10"/>
<path d="M76.4337 70.7641C76.2793 71.2298 75.6986 71.0579 75.0005 70.7963C74.3024 70.5348 73.7452 70.2805 73.8996 69.8147C74.054 69.349 74.7454 69.1806 75.4436 69.4565C76.1417 69.7323 76.5881 70.2948 76.4337 70.7641Z" fill="#EFE6DA"/>
<path d="M68.556 92.5206C68.556 92.5206 72.7514 72.5984 74.9331 69.8542" stroke="#EFE6DA" stroke-width="1.62984" stroke-miterlimit="10"/>
<path d="M75.883 70.4309C75.7756 70.9073 75.1748 70.7891 74.4465 70.6315C73.7182 70.4739 73.1342 70.2732 73.2449 69.7896C73.3557 69.306 74.0337 69.0731 74.762 69.2415C75.4903 69.4099 75.9938 69.9508 75.883 70.4309Z" fill="#EFE6DA"/>
<path d="M68.7273 94.3153C68.7273 94.3153 74.7687 74.8731 77.182 72.3833" stroke="#EFE6DA" stroke-width="1.62984" stroke-miterlimit="10"/>
<path d="M78.0514 73.0712C77.897 73.5369 77.3164 73.365 76.6183 73.1035C75.9201 72.8419 75.363 72.5876 75.5174 72.1219C75.6718 71.6561 76.3632 71.4878 77.0613 71.7636C77.7594 72.0395 78.2159 72.6055 78.0514 73.0712Z" fill="#EFE6DA"/>
<path d="M67.8948 93.0365C67.8948 93.0365 70.7578 72.7847 69.667 69.3921" stroke="#EFE6DA" stroke-width="1.62984" stroke-miterlimit="10"/>
<path d="M68.593 69.5855C68.5326 70.0763 69.1233 70.2017 69.8584 70.302C70.5934 70.4023 71.2009 70.4489 71.2546 69.9438C71.3083 69.4386 70.768 68.9729 70.0329 68.869C69.2979 68.7651 68.6534 69.0947 68.593 69.5855Z" fill="#EFE6DA"/>
<path d="M68.7677 91.8363C68.7677 91.8363 71.6307 71.5809 70.5399 68.1919" stroke="#EFE6DA" stroke-width="1.62984" stroke-miterlimit="10"/>
<path d="M69.4656 68.3819C69.4052 68.8727 69.9925 69.0017 70.7276 69.0984C71.4626 69.1951 72.0701 69.2453 72.1272 68.7402C72.1843 68.235 71.6405 67.7693 70.9055 67.6654C70.1704 67.5615 69.526 67.8911 69.4656 68.3819Z" fill="#EFE6DA"/>
<path d="M70.3519 93.7887C70.3519 93.7887 73.2149 73.5333 72.1241 70.1443" stroke="#EFE6DA" stroke-width="1.62984" stroke-miterlimit="10"/>
<path d="M71.0499 70.3343C70.9895 70.8251 71.5803 70.9541 72.3153 71.0508C73.0503 71.1475 73.6579 71.1977 73.7116 70.6925C73.7653 70.1874 73.2282 69.7217 72.4932 69.6178C71.7581 69.5139 71.1104 69.8435 71.0499 70.3343Z" fill="#EFE6DA"/>
<path d="M67.6467 90.4785C67.6467 90.4785 71.8388 70.5564 74.0238 67.8086" stroke="#EFE6DA" stroke-width="1.62984" stroke-miterlimit="10"/>
<path d="M74.9667 68.3889C74.8559 68.8653 74.2551 68.7471 73.5268 68.5895C72.7985 68.4319 72.2145 68.2312 72.3252 67.7476C72.436 67.264 73.114 67.0311 73.8423 67.1995C74.5706 67.3679 75.0741 67.9088 74.9667 68.3889Z" fill="#EFE6DA"/>
<path d="M63.8337 82.7869C63.8337 82.7869 71.6172 64.0613 74.2385 61.833" stroke="#EFE6DA" stroke-width="1.62984" stroke-miterlimit="10"/>
<path d="M75.054 62.5962C74.8594 63.044 74.2955 62.8147 73.6242 62.4815C72.953 62.1484 72.4226 61.8367 72.6173 61.4068C72.812 60.9769 73.5168 60.8658 74.1915 61.199C74.8661 61.5322 75.2487 62.1484 75.054 62.5962Z" fill="#EFE6DA"/>
<path d="M65.7537 86.2225C65.7537 86.2225 71.7951 66.7839 74.2117 64.2905" stroke="#EFE6DA" stroke-width="1.62984" stroke-miterlimit="10"/>
<path d="M75.0876 64.9783C74.9332 65.4476 74.3525 65.2721 73.6544 65.0106C72.9562 64.749 72.4024 64.4947 72.5535 64.029C72.7045 63.5632 73.3993 63.3984 74.1008 63.6707C74.8023 63.943 75.2419 64.5162 75.0876 64.9783Z" fill="#EFE6DA"/>
<path d="M61.8803 84.9366C61.8803 84.9366 67.9218 65.498 70.335 63.0046" stroke="#EFE6DA" stroke-width="1.62984" stroke-miterlimit="10"/>
<path d="M71.2145 63.6959C71.0602 64.1652 70.4795 63.9932 69.7814 63.7281C69.0832 63.463 68.5261 63.2158 68.6805 62.7465C68.8349 62.2772 69.5263 62.116 70.2244 62.3883C70.9225 62.6606 71.3689 63.2302 71.2145 63.6959Z" fill="#EFE6DA"/>
<path d="M65.8409 89.8228C65.8409 89.8228 71.8824 70.3807 74.299 67.8909" stroke="#EFE6DA" stroke-width="1.62984" stroke-miterlimit="10"/>
<path d="M75.1783 68.5788C75.024 69.0445 74.4433 68.8726 73.7418 68.611C73.0403 68.3495 72.4899 68.0952 72.6443 67.6294C72.7987 67.1637 73.4901 66.9953 74.1882 67.2712C74.8863 67.547 75.3294 68.0987 75.1783 68.5788Z" fill="#EFE6DA"/>
<path d="M67.3378 88.1605C67.3378 88.1605 73.3793 68.7219 75.7959 66.2285" stroke="#EFE6DA" stroke-width="1.62984" stroke-miterlimit="10"/>
<path d="M76.6719 66.9307C76.5209 67.4 75.9402 67.2245 75.2388 66.963C74.5373 66.7014 73.9868 66.4471 74.1412 65.9814C74.2956 65.5156 74.9837 65.3508 75.6852 65.6231C76.3866 65.8954 76.8263 66.465 76.6719 66.9307Z" fill="#EFE6DA"/>
<path d="M60.9606 82.898C60.9606 82.898 67.0021 63.4595 69.4187 60.9661" stroke="#EFE6DA" stroke-width="1.62984" stroke-miterlimit="10"/>
<path d="M70.2946 61.6502C70.1436 62.1196 69.5629 61.944 68.8615 61.6825C68.16 61.421 67.6095 61.1702 67.7606 60.7009C67.9116 60.2316 68.6064 60.0704 69.3079 60.3426C70.0093 60.6149 70.449 61.1881 70.2946 61.6502Z" fill="#EFE6DA"/>
<path d="M66.9216 85.1873C66.9216 85.1873 74.7051 66.4653 77.3264 64.2334" stroke="#EFE6DA" stroke-width="1.62984" stroke-miterlimit="10"/>
<path d="M78.1419 65.0105C77.9473 65.4583 77.3834 65.229 76.7121 64.8958C76.0408 64.5627 75.5105 64.251 75.7052 63.8211C75.8999 63.3912 76.6047 63.2801 77.276 63.6133C77.9473 63.9465 78.3366 64.5627 78.1419 65.0105Z" fill="#EFE6DA"/>
<path d="M63.3806 84.2664C63.3806 84.2664 69.6671 64.921 72.1072 62.4526" stroke="#EFE6DA" stroke-width="1.62984" stroke-miterlimit="10"/>
<path d="M72.9765 63.1551C72.8188 63.6209 72.2381 63.4381 71.5433 63.1551C70.8486 62.8721 70.2948 62.6249 70.4559 62.1592C70.617 61.6935 71.3084 61.5394 72.0032 61.8009C72.6979 62.0625 73.1343 62.6894 72.9765 63.1551Z" fill="#EFE6DA"/>
<path d="M66.6396 86.3943C66.6396 86.3943 72.9261 67.0489 75.3662 64.5806" stroke="#EFE6DA" stroke-width="1.62984" stroke-miterlimit="10"/>
<path d="M76.2422 65.2828C76.0845 65.7485 75.5038 65.5658 74.809 65.2828C74.1143 64.9998 73.5605 64.7526 73.7216 64.2869C73.8827 63.8212 74.5741 63.6671 75.2689 63.9286C75.9636 64.1902 76.4033 64.8171 76.2422 65.2828Z" fill="#EFE6DA"/>
<path d="M63.8807 87.5587C63.8807 87.5587 69.9222 68.1201 72.3388 65.6267" stroke="#EFE6DA" stroke-width="1.62984" stroke-miterlimit="10"/>
<path d="M73.218 66.3077C73.0636 66.777 72.4829 66.6014 71.7815 66.3399C71.08 66.0784 70.5295 65.824 70.6839 65.3583C70.8383 64.8926 71.5297 64.7278 72.2279 65.0001C72.926 65.2723 73.369 65.8491 73.218 66.3077Z" fill="#EFE6DA"/>
<path d="M63.0617 87.8526C63.0617 87.8526 67.2571 67.9304 69.4388 65.1826" stroke="#EFE6DA" stroke-width="1.62984" stroke-miterlimit="10"/>
<path d="M70.3887 65.7592C70.2779 66.2392 69.6805 66.1389 68.9488 65.9598C68.2171 65.7807 67.6398 65.6015 67.7472 65.1215C67.8546 64.6414 68.536 64.405 69.2677 64.5734C69.9993 64.7417 70.4994 65.2827 70.3887 65.7592Z" fill="#EFE6DA"/>
<path d="M60.0512 86.6345C60.0512 86.6345 66.0927 67.1924 68.5059 64.699" stroke="#EFE6DA" stroke-width="1.62984" stroke-miterlimit="10"/>
<path d="M69.3852 65.3906C69.2308 65.8563 68.6502 65.6843 67.9521 65.4228C67.2539 65.1613 66.6968 64.9069 66.8512 64.4412C67.0056 63.9755 67.697 63.8071 68.3951 64.083C69.0932 64.3588 69.5396 64.9213 69.3852 65.3906Z" fill="#EFE6DA"/>
<path d="M61.5077 87.1468C61.5077 87.1468 65.7032 67.2246 67.8848 64.4805" stroke="#EFE6DA" stroke-width="1.62984" stroke-miterlimit="10"/>
<path d="M68.8348 65.0571C68.7274 65.5336 68.1266 65.4153 67.3982 65.2577C66.6699 65.1001 66.0859 64.8995 66.1966 64.4158C66.3074 63.9322 66.9854 63.6993 67.7137 63.8677C68.4421 64.0361 68.9455 64.577 68.8348 65.0571Z" fill="#EFE6DA"/>
<path d="M61.679 88.9417C61.679 88.9417 67.7205 69.4996 70.1337 67.0098" stroke="#EFE6DA" stroke-width="1.62984" stroke-miterlimit="10"/>
<path d="M71.0028 67.6974C70.8484 68.1632 70.2677 67.9912 69.5696 67.7297C68.8715 67.4682 68.3143 67.2138 68.4687 66.7481C68.6231 66.2824 69.3145 66.114 70.0127 66.3898C70.7108 66.6657 71.1672 67.2317 71.0028 67.6974Z" fill="#EFE6DA"/>
<path d="M60.8466 87.6627C60.8466 87.6627 63.7095 67.4109 62.6187 64.0183" stroke="#EFE6DA" stroke-width="1.62984" stroke-miterlimit="10"/>
<path d="M61.5446 64.2117C61.4842 64.7025 62.0749 64.8279 62.8099 64.9282C63.545 65.0285 64.1525 65.0751 64.2062 64.57C64.2599 64.0649 63.7195 63.5991 62.9845 63.4952C62.2494 63.3914 61.605 63.7209 61.5446 64.2117Z" fill="#EFE6DA"/>
<path d="M61.7193 86.4625C61.7193 86.4625 64.5823 66.2071 63.4914 62.8181" stroke="#EFE6DA" stroke-width="1.62984" stroke-miterlimit="10"/>
<path d="M62.4173 63.0081C62.3569 63.4989 62.9443 63.6279 63.6793 63.7246C64.4143 63.8214 65.0219 63.8715 65.0789 63.3664C65.136 62.8612 64.5922 62.3955 63.8572 62.2916C63.1221 62.1877 62.4777 62.5173 62.4173 63.0081Z" fill="#EFE6DA"/>
<path d="M63.3034 88.4151C63.3034 88.4151 66.1664 68.1598 65.0756 64.7708" stroke="#EFE6DA" stroke-width="1.62984" stroke-miterlimit="10"/>
<path d="M64.0017 64.9605C63.9413 65.4513 64.532 65.5803 65.267 65.677C66.0021 65.7737 66.6096 65.8239 66.6633 65.3188C66.717 64.8136 66.18 64.3479 65.4449 64.244C64.7099 64.1401 64.0621 64.4697 64.0017 64.9605Z" fill="#EFE6DA"/>
<path d="M60.5981 85.1048C60.5981 85.1048 64.7902 65.1826 66.9752 62.4348" stroke="#EFE6DA" stroke-width="1.62984" stroke-miterlimit="10"/>
<path d="M67.9184 63.0153C67.8077 63.4918 67.2069 63.3736 66.4785 63.216C65.7502 63.0583 65.1662 62.8577 65.277 62.3741C65.3877 61.8904 66.0657 61.6576 66.794 61.826C67.5224 61.9943 68.0258 62.5353 67.9184 63.0153Z" fill="#EFE6DA"/>
<path d="M104.03 66.053C104.127 65.559 104.257 65.073 104.419 64.5985C105.063 62.6783 106.097 61.0662 106.674 60.9372C106.939 60.8769 107.213 60.8845 107.475 60.9592C107.736 61.0339 107.977 61.1737 108.178 61.3671C107.607 62.393 107.09 63.4514 106.627 64.5376C105.285 67.6186 107.131 69.288 108.698 70.0869C109.769 70.6314 112.699 70.3878 114.454 70.1765C114.626 70.767 114.68 71.3894 114.612 72.0035C114.458 73.4365 114.048 74.0993 111.343 74.1279C111.152 74.1279 110.957 74.1279 110.762 74.1279C109.944 74.0998 109.133 73.9565 108.349 73.7016C108.349 73.7016 108.349 73.7016 108.349 73.7016C107.795 73.5199 107.264 73.2622 106.772 72.935C106.193 72.5522 105.679 72.0677 105.251 71.502C104.894 71.0361 104.594 70.5232 104.358 69.9758C104.265 69.7609 104.174 69.528 104.093 69.288C103.941 68.8273 103.861 68.3433 103.855 67.855C103.846 67.2491 103.905 66.6442 104.03 66.053V66.053Z" fill="#F4D3CE"/>
<path d="M109.813 71.3588C110.733 71.2585 110.558 72.1469 110.682 73.4259C110.702 73.6659 110.733 73.8952 110.763 74.1173C109.944 74.0892 109.133 73.9458 108.349 73.691C108.349 73.691 108.349 73.691 108.349 73.691C108.296 72.4837 108.93 71.4555 109.813 71.3588Z" fill="#E88C80"/>
<path d="M105.238 71.4912C105.671 70.7102 106.44 70.3161 107.067 70.5956C107.769 70.9144 107.316 71.4768 106.933 72.4513C106.869 72.6089 106.812 72.7701 106.758 72.9206C106.18 72.5389 105.666 72.0556 105.238 71.4912V71.4912Z" fill="#E88C80"/>
<path d="M103.855 67.8517C104.099 67.6796 104.388 67.5954 104.68 67.6116C104.971 67.6277 105.251 67.7432 105.476 67.9412C105.99 68.4822 105.406 68.8118 104.748 69.5247C104.614 69.668 104.483 69.822 104.359 69.9653C104.265 69.7504 104.174 69.5175 104.094 69.2775C103.942 68.8191 103.862 68.3376 103.855 67.8517V67.8517Z" fill="#E88C80"/>
<path d="M104.03 66.0531C104.127 65.5591 104.257 65.0731 104.419 64.5987C105.09 64.5485 105.657 64.9569 105.691 65.505C105.725 66.0531 105.268 65.9421 104.597 65.9922C104.399 66.0066 104.204 66.0352 104.03 66.0531Z" fill="#E88C80"/>
<path d="M106.628 64.5377C107.09 63.4515 107.608 62.3931 108.178 61.3672C108.302 61.4717 108.402 61.606 108.468 61.7591C108.535 61.9122 108.566 62.0798 108.561 62.2485C108.484 62.965 107.819 62.879 107.437 66.44C107.054 70.001 111.545 69.1053 112.914 68.9119C113.713 68.8008 114.213 69.3884 114.455 70.1765C112.699 70.3879 109.756 70.6315 108.699 70.0869C107.131 69.2881 105.285 67.6186 106.628 64.5377Z" fill="#EAC8C5"/>
<path d="M108.561 62.2483C108.561 62.2483 111.944 59.0563 111.39 57.9063C111.175 57.4585 109.272 58.759 109.199 59.4432C109.199 59.4432 110.135 57.0322 109.799 56.9928C109.464 56.9534 106.668 60.0272 106.675 60.9335L108.561 62.2483Z" fill="#D15F56"/>
<path d="M108.85 58.3186C108.85 58.3186 108.01 60.0454 107.974 61.0162Z" fill="#BF4E49"/>
<path d="M110.353 59.3037C110.353 59.3037 108.809 60.3355 108.313 61.1487Z" fill="#BF4E49"/>
<path d="M106.46 70.2483C106.56 69.7619 106.69 69.2832 106.849 68.8153C107.493 66.8915 108.527 65.2794 109.108 65.154C109.37 65.0905 109.642 65.0937 109.903 65.1634C110.164 65.2331 110.405 65.3674 110.608 65.5552C110.036 66.5808 109.517 67.6393 109.054 68.7257C107.712 71.8102 109.561 73.4761 111.125 74.2786C112.196 74.8231 115.129 74.5795 116.885 74.3681C117.054 74.958 117.106 75.5789 117.039 76.1916C116.888 77.6246 116.479 78.2874 113.77 78.316C113.579 78.316 113.387 78.316 113.193 78.316C112.374 78.2887 111.562 78.1441 110.779 77.8861C110.224 77.7069 109.694 77.4503 109.202 77.1231C108.622 76.7406 108.107 76.2561 107.678 75.6901C107.322 75.2248 107.024 74.7132 106.789 74.1675C106.695 73.949 106.604 73.7161 106.52 73.4761C106.369 73.0152 106.29 72.5312 106.285 72.0431C106.277 71.4396 106.335 70.8371 106.46 70.2483V70.2483Z" fill="#F4D3CE"/>
<path d="M112.243 75.5502C113.162 75.4463 112.991 76.3348 113.112 77.6173C113.136 77.8538 113.166 78.0831 113.196 78.3087C112.377 78.2814 111.565 78.1368 110.783 77.8789C110.783 77.8789 110.783 77.8789 110.783 77.8789C110.729 76.6716 111.363 75.6434 112.243 75.5502Z" fill="#E88C80"/>
<path d="M107.681 75.6793C108.118 74.9019 108.886 74.5042 109.51 74.7872C110.212 75.1025 109.762 75.6685 109.376 76.6429C109.316 76.8006 109.259 76.9582 109.205 77.1122C108.625 76.7298 108.11 76.2453 107.681 75.6793V75.6793Z" fill="#E88C80"/>
<path d="M106.288 72.0394C106.531 71.867 106.82 71.7827 107.111 71.7988C107.403 71.815 107.681 71.9307 107.906 72.1289C108.42 72.6663 107.839 72.9959 107.181 73.7088C107.047 73.8557 106.916 74.0061 106.792 74.153C106.698 73.9345 106.607 73.7016 106.523 73.4616C106.374 73.0042 106.294 72.5239 106.288 72.0394V72.0394Z" fill="#E88C80"/>
<path d="M106.46 70.2483C106.56 69.7619 106.69 69.2832 106.849 68.8153C107.52 68.7615 108.088 69.1735 108.125 69.7216C108.161 70.2697 107.698 70.1551 107.027 70.2053L106.46 70.2483Z" fill="#E88C80"/>
<path d="M109.057 68.7257C109.519 67.6393 110.037 66.5809 110.608 65.5552C110.732 65.661 110.831 65.796 110.897 65.9496C110.963 66.1031 110.995 66.271 110.991 66.44C110.913 67.1565 110.246 67.0706 109.866 70.628C109.487 74.1854 113.964 73.2933 115.347 73.1142C116.146 73.0032 116.643 73.5907 116.888 74.3824C115.132 74.5938 112.189 74.8374 111.128 74.2928C109.564 73.4725 107.715 71.8102 109.057 68.7257Z" fill="#EAC8C5"/>
<path d="M110.994 66.4402C110.994 66.4402 114.374 63.2446 113.824 62.0982C113.606 61.6468 111.706 62.9473 111.632 63.6315C111.632 63.6315 112.565 61.2241 112.233 61.1811C111.9 61.1381 109.101 64.2155 109.108 65.1218L110.994 66.4402Z" fill="#D15F56"/>
<path d="M111.279 62.51C111.279 62.51 110.444 64.2332 110.403 65.204Z" fill="#BF4E49"/>
<path d="M112.783 63.4951C112.783 63.4951 111.239 64.5233 110.746 65.3401Z" fill="#BF4E49"/>
<path d="M99.7638 67.9339C99.8629 67.4415 99.993 66.9568 100.153 66.483C100.798 64.5592 101.831 62.9471 102.409 62.8217C102.674 62.7609 102.948 62.7679 103.21 62.842C103.472 62.9161 103.714 63.0552 103.916 63.248C103.344 64.2737 102.825 65.3321 102.362 66.4185C101.019 69.5031 102.868 71.1689 104.433 71.9714C105.503 72.5159 108.433 72.2723 110.192 72.0609C110.361 72.6509 110.414 73.2717 110.346 73.8844C110.195 75.3174 109.783 75.9802 107.077 76.0088C106.886 76.0088 106.695 76.0088 106.497 76.0088C105.678 75.9812 104.866 75.8366 104.083 75.5789C104.083 75.5789 104.083 75.5789 104.083 75.5789C103.529 75.3997 102.998 75.1431 102.506 74.8159C101.926 74.4334 101.411 73.9489 100.982 73.3829C100.627 72.9176 100.328 72.406 100.093 71.8603C99.9954 71.6418 99.9082 71.4089 99.8242 71.1689C99.6735 70.7081 99.5941 70.224 99.5893 69.7359C99.5803 69.13 99.6389 68.5251 99.7638 67.9339Z" fill="#F4D3CE"/>
<path d="M105.547 73.2431C106.466 73.1392 106.295 74.0277 106.416 75.3102C106.44 75.5466 106.47 75.7759 106.497 76.0016C105.678 75.974 104.866 75.8294 104.083 75.5717C104.083 75.5717 104.083 75.5717 104.083 75.5717C104.033 74.3644 104.664 73.3363 105.547 73.2431Z" fill="#E88C80"/>
<path d="M100.985 73.3721C101.422 72.5947 102.19 72.1971 102.815 72.4801C103.516 72.7953 103.066 73.3614 102.68 74.3358C102.62 74.4934 102.563 74.6511 102.509 74.8051C101.929 74.4226 101.414 73.9381 100.985 73.3721V73.3721Z" fill="#E88C80"/>
<path d="M99.5925 69.7359C99.8355 69.5636 100.124 69.4792 100.415 69.4954C100.707 69.5115 100.985 69.6272 101.21 69.8255C101.724 70.3628 101.14 70.6924 100.485 71.4053C100.351 71.5522 100.22 71.7027 100.096 71.8496C99.9987 71.631 99.9114 71.3982 99.8275 71.1581C99.6778 70.7007 99.5984 70.2204 99.5925 69.7359V69.7359Z" fill="#E88C80"/>
<path d="M99.7638 67.9339C99.8629 67.4415 99.9929 66.9567 100.153 66.483C100.824 66.4292 101.392 66.8412 101.429 67.3894C101.466 67.9375 101.002 67.8228 100.331 67.873L99.7638 67.9339Z" fill="#E88C80"/>
<path d="M102.362 66.4185C102.825 65.3321 103.344 64.2737 103.916 63.248C104.039 63.3539 104.138 63.4889 104.205 63.6424C104.271 63.796 104.303 63.9639 104.298 64.1329C104.221 64.8494 103.553 64.7634 103.174 68.3208C102.795 71.8782 107.279 70.9862 108.652 70.7928C109.45 70.6817 109.947 71.2692 110.192 72.061C108.433 72.2723 105.493 72.5159 104.433 71.9714C102.868 71.1689 101.019 69.5031 102.362 66.4185Z" fill="#EAC8C5"/>
<path d="M104.298 64.1331C104.298 64.1331 107.678 60.9375 107.128 59.7911C106.909 59.3397 105.01 60.6401 104.936 61.3244C104.936 61.3244 105.869 58.917 105.537 58.874C105.204 58.831 102.402 61.9083 102.408 62.8147L104.298 64.1331Z" fill="#D15F56"/>
<path d="M104.61 60.2422C104.61 60.2422 103.775 61.9654 103.734 62.9362Z" fill="#BF4E49"/>
<path d="M106.114 61.2275C106.114 61.2275 104.567 62.2593 104.077 63.0833Z" fill="#BF4E49"/>
<path d="M91.5137 73.8486C91.514 74.165 91.4779 74.4802 91.4063 74.7872C91.243 75.4225 90.9432 76.0084 90.5307 76.4985C90.1182 76.9885 89.6044 77.3692 89.03 77.6102C88.4868 77.8477 87.9053 77.9694 87.3182 77.9684C85.0023 77.9684 83.1228 76.1235 83.1228 73.8486C83.1228 71.6669 84.0491 68.5644 87.0833 68.6289C87.2108 68.6289 87.3485 68.6289 87.4861 68.654C88.0282 68.7109 88.5628 68.831 89.0803 69.0122C91.5003 69.8505 91.5137 71.9284 91.5137 73.8486Z" fill="#CEBFBE"/>
<path d="M93.192 73.4904C93.1914 74.0463 93.0768 74.5953 92.8564 75.0989C92.3591 75.0816 91.868 74.9762 91.4031 74.7873C91.4747 74.4803 91.5107 74.165 91.5105 73.8487C91.5105 71.9284 91.5105 69.8506 89.0771 68.9944C89.1362 68.7628 89.209 68.5354 89.2953 68.3137C93.1719 68.7794 93.192 71.2406 93.192 73.4904Z" fill="#B2A4A4"/>
<path d="M91.5139 75.2815C91.5142 75.5979 91.4781 75.9131 91.4065 76.2201C90.6663 75.9394 90.0234 75.4253 89.5631 74.7459C89.1028 74.0664 88.8467 73.2538 88.8288 72.4155C88.8282 71.7437 88.9129 71.0748 89.0805 70.4272C91.5005 71.2835 91.5139 73.3613 91.5139 75.2815Z" fill="#CEBFBE"/>
<path d="M97.2198 70.9827C97.2198 73.2576 95.3402 75.1026 93.0243 75.1026H92.8598C93.0802 74.5989 93.1948 74.0499 93.1955 73.494C93.1955 71.2442 93.1753 68.7831 89.3021 68.3173C89.8827 66.8019 91.0642 65.566 93.1955 65.8096C97.1996 66.2144 97.2198 68.7078 97.2198 70.9827Z" fill="#CEBFBE"/>
<path d="M100.24 74.5651C100.24 75.1209 100.125 75.6699 99.9047 76.1736C99.4075 76.1562 98.9163 76.0509 98.4514 75.8619C98.523 75.5549 98.5591 75.2397 98.5588 74.9233C98.5588 73.0031 98.5588 70.9252 96.1254 70.069C96.1556 69.9508 94.4204 69.7574 94.5311 69.7108C95.8737 69.3525 95.5381 69.3525 96.3436 69.3525C100.22 69.8541 100.24 72.3153 100.24 74.5651Z" fill="#D1CBCB"/>
<path d="M96.1288 70.0691C95.6112 69.8879 95.0766 69.7678 94.5345 69.7109C94.3969 69.7109 94.2593 69.6858 94.1318 69.6858C91.111 69.6213 90.1712 72.7237 90.1712 74.9055C90.1712 77.1804 92.0508 79.0253 94.3667 79.0253C94.9537 79.0263 95.5353 78.9046 96.0785 78.6671C96.6529 78.426 97.1667 78.0454 97.5792 77.5554C97.9917 77.0653 98.2915 76.4794 98.4548 75.8441C98.5264 75.5371 98.5625 75.2219 98.5622 74.9055C98.5622 73.0032 98.5488 70.9253 96.1288 70.0691Z" fill="#8C8585"/>
<path d="M104.268 72.0574C104.268 74.3323 102.388 76.1773 100.073 76.1773H99.9081C100.128 75.6736 100.243 75.1246 100.244 74.5687C100.244 72.3189 100.224 69.8578 96.3503 69.392C96.931 67.8767 98.1124 66.6407 100.244 66.8843C104.248 67.2891 104.268 69.7825 104.268 72.0574Z" fill="#E8E6E6"/>
<path opacity="0.53" d="M102.472 74.6367C94.0411 73.2789 89.8356 73.6694 84.1297 76.1772C78.0211 78.8604 69.4691 83.206 69.6973 85.4916C69.9255 87.7772 72.6509 84.3309 73.7719 85.1907C74.893 86.0505 92.4737 80.0498 97.4579 80.6123C102.442 81.1747 111.441 76.084 102.472 74.6367Z" fill="#994633"/>
<path d="M104.631 75.2638C96.1994 73.8917 92.9605 73.8308 87.1775 77.4492C81.3944 81.0675 73.9634 81.5583 74.1782 83.9478C74.393 86.3373 74.7521 85.585 75.8564 86.4806C76.9606 87.3762 94.5984 80.9958 99.5826 81.5439C104.567 82.092 113.596 76.7219 104.631 75.2638Z" fill="#BC5C3F"/>
<path d="M91.5038 77.1374C91.3561 76.9117 94.7561 76.0627 98.2165 75.9158C101.153 75.7797 104.174 76.231 104.547 76.8078C102.334 76.3636 100.085 76.1608 97.8339 76.2024C94.6285 76.3385 91.6347 77.3452 91.5038 77.1374Z" fill="#EFDBD3"/>
<path d="M79.7933 81.8912C79.743 82.0417 81.8407 81.5652 83.8612 80.752C85.5864 80.057 87.268 79.0467 87.3955 78.667C86.1829 79.4596 84.911 80.1438 83.5927 80.7126C81.7434 81.4721 79.8369 81.7551 79.7933 81.8912Z" fill="#EFDBD3"/>
<path d="M95.2429 78.2299C95.2597 78.5273 96.0786 78.3589 97.0956 78.298C98.1126 78.2371 98.9282 77.9397 98.9114 77.6496C98.8946 77.3594 98.0757 77.5206 97.0587 77.5815C96.0417 77.6424 95.2295 77.9326 95.2429 78.2299Z" fill="#EFDBD3"/>
<path d="M91.1647 78.4486C91.1814 78.746 91.7856 78.5919 92.5374 78.5489C93.2892 78.5059 93.88 78.2265 93.88 77.9292C93.88 77.6318 93.259 77.7859 92.5072 77.8324C91.7554 77.879 91.1412 78.1549 91.1647 78.4486Z" fill="#EFDBD3"/>
<path d="M92.6415 80.433C92.6583 80.7303 93.2624 80.5763 94.0143 80.5297C94.7661 80.4832 95.3568 80.2109 95.3568 79.9135C95.3568 79.6162 94.7392 79.7702 93.9874 79.8168C93.2356 79.8634 92.6247 80.1392 92.6415 80.433Z" fill="#EFDBD3"/>
<path d="M88.0063 80.4905C88.0768 80.7771 88.6407 80.4905 89.3724 80.3042C90.1041 80.1179 90.6377 79.7095 90.5706 79.4229C90.5035 79.1363 89.9363 79.4229 89.2046 79.6092C88.4729 79.7955 87.9392 80.2039 88.0063 80.4905Z" fill="#EFDBD3"/>
<path d="M84.217 82.0705C84.3076 82.3499 84.7909 82.049 85.4286 81.8161C86.0663 81.5833 86.5127 81.1641 86.4355 80.8847C86.3583 80.6053 85.8616 80.8847 85.2239 81.1391C84.5862 81.3934 84.1264 81.7839 84.217 82.0705Z" fill="#EFDBD3"/>
<path d="M77.511 83.9764C77.568 84.2666 78.0815 84.0373 78.7427 83.894C79.404 83.7507 79.8973 83.3997 79.8436 83.1095C79.7899 82.8193 79.2731 83.0486 78.6118 83.1919C77.9506 83.3352 77.4573 83.6863 77.511 83.9764Z" fill="#EFDBD3"/>
<path d="M80.9613 83.3171C81.015 83.6072 81.3641 83.4138 81.8172 83.3171C82.2703 83.2203 82.5992 82.9015 82.5422 82.6006C82.4851 82.2996 82.1394 82.5038 81.6863 82.6006C81.2332 82.6973 80.9076 83.0269 80.9613 83.3171Z" fill="#EFDBD3"/>
<path d="M82.9416 83.9619C83.0088 84.2485 83.3477 84.0371 83.7975 83.9117C84.2473 83.7864 84.556 83.4604 84.4889 83.1702C84.4218 82.88 84.0828 83.0949 83.633 83.2203C83.1833 83.3457 82.8745 83.6753 82.9416 83.9619Z" fill="#EFDBD3"/>
<path d="M99.1059 80.186C99.0623 80.4798 99.4415 80.4261 99.9081 80.5049C100.375 80.5837 100.774 80.4117 100.818 80.118C100.861 79.8242 100.482 79.878 100.015 79.7991C99.5489 79.7203 99.1495 79.8923 99.1059 80.186Z" fill="#EFDBD3"/>
<path d="M87.1135 82.6006C87.1605 82.8908 87.6808 82.6758 88.3453 82.5505C89.0099 82.4251 89.5133 82.0883 89.463 81.7946C89.4126 81.5008 88.8958 81.7193 88.2312 81.8447C87.5666 81.9701 87.0598 82.3068 87.1135 82.6006Z" fill="#EFDBD3"/>
<path d="M101.546 78.814C101.442 79.4266 102.351 79.3478 103.425 79.552C104.5 79.7562 105.439 79.423 105.55 78.814C105.661 78.2049 105.282 77.7106 104.208 77.5064C103.133 77.3022 101.65 78.2014 101.546 78.814Z" fill="#EFDBD3"/>
<path d="M96.2396 76.5212C87.7412 75.7187 84.5091 75.8799 78.9375 79.878C73.3659 83.876 65.9919 84.8719 66.351 87.24C66.7102 89.608 67.0223 88.8377 68.187 89.6546C69.3516 90.4714 86.5632 82.9087 91.5742 83.1344C96.5853 83.3601 105.272 77.3774 96.2396 76.5212Z" fill="#BC5C3F"/>
<path d="M83.2504 79.2796C83.0927 79.0647 86.4323 78.0043 89.8625 77.6102C92.7859 77.2735 95.8301 77.5242 96.2396 78.0723C94.0026 77.7769 91.7432 77.7265 89.4967 77.9219C86.3215 78.2694 83.3948 79.4767 83.2504 79.2796Z" fill="#EFDBD3"/>
<path d="M71.842 84.8146C71.8017 84.965 73.8558 84.3524 75.8394 83.3995C77.5176 82.5898 79.1354 81.4721 79.2394 81.0852C78.0765 81.9588 76.8472 82.7269 75.5642 83.3816C73.7518 84.2665 71.8789 84.6749 71.842 84.8146Z" fill="#EFDBD3"/>
<path d="M87.0465 80.1179C87.0801 80.4116 87.889 80.1895 88.8993 80.0605C89.9095 79.9316 90.7084 79.5877 90.6748 79.2939C90.6412 79.0001 89.8323 79.2187 88.8221 79.3476C87.8118 79.4766 87.0163 79.8241 87.0465 80.1179Z" fill="#EFDBD3"/>
<path d="M82.9918 80.6123C83.0254 80.9061 83.6161 80.7127 84.3646 80.6123C85.113 80.512 85.7071 80.2004 85.6601 79.8958C85.6131 79.5913 85.0358 79.7955 84.2874 79.8958C83.5389 79.9962 82.9582 80.3186 82.9918 80.6123Z" fill="#EFDBD3"/>
<path d="M84.5795 82.4932C84.6131 82.787 85.2071 82.5935 85.9556 82.4932C86.7041 82.3929 87.2982 82.0812 87.2512 81.7767C87.2042 81.4722 86.6235 81.6764 85.8751 81.7767C85.1266 81.877 84.5493 82.1994 84.5795 82.4932Z" fill="#EFDBD3"/>
<path d="M79.958 82.8622C80.0452 83.1452 80.5923 82.8299 81.3005 82.5827C82.0087 82.3355 82.5289 81.9056 82.4417 81.6226C82.3544 81.3396 81.8107 81.6549 81.0991 81.9021C80.3876 82.1493 79.874 82.5792 79.958 82.8622Z" fill="#EFDBD3"/>
<path d="M76.269 84.689C76.3764 84.9649 76.8396 84.6317 77.4639 84.3559C78.0882 84.08 78.5044 83.6394 78.4003 83.3563C78.2963 83.0733 77.8297 83.4172 77.2054 83.6931C76.5812 83.9689 76.165 84.4168 76.269 84.689Z" fill="#EFDBD3"/>
<path d="M69.6905 87.0465C69.7643 87.3331 70.2644 87.068 70.9156 86.8817C71.5667 86.6954 72.0366 86.3121 71.9661 86.0255C71.8956 85.7389 71.3922 86.004 70.741 86.1903C70.0899 86.3766 69.62 86.7599 69.6905 87.0465Z" fill="#EFDBD3"/>
<path d="M73.0939 86.1581C73.1677 86.4447 73.5 86.2262 73.9497 86.0972C74.3995 85.9683 74.7016 85.6351 74.621 85.3485C74.5405 85.0619 74.2149 85.2768 73.7651 85.4058C73.3154 85.5348 73.0167 85.8715 73.0939 86.1581Z" fill="#EFDBD3"/>
<path d="M75.1078 86.6667C75.1951 86.9497 75.5173 86.7133 75.9603 86.5628C76.4034 86.4123 76.692 86.0577 76.6048 85.7747C76.5175 85.4916 76.1953 85.7281 75.7522 85.8786C75.3092 86.029 75.0306 86.3694 75.1078 86.6667Z" fill="#EFDBD3"/>
<path d="M91.0169 81.8088C90.9901 82.1061 91.3761 82.0273 91.8359 82.0739C92.2957 82.1204 92.6951 81.9234 92.722 81.6261C92.7488 81.3287 92.3629 81.4075 91.903 81.361C91.4432 81.3144 91.0438 81.515 91.0169 81.8088Z" fill="#EFDBD3"/>
<path d="M79.1858 85.026C79.2495 85.3162 79.7563 85.0654 80.4142 84.8934C81.072 84.7215 81.5487 84.3561 81.4849 84.0659C81.4211 83.7757 80.9109 84.0301 80.2564 84.1984C79.602 84.3668 79.1186 84.7394 79.1858 85.026Z" fill="#EFDBD3"/>
<path d="M93.3732 80.2792C93.3094 80.899 94.2123 80.7592 95.293 80.8918C96.3738 81.0243 97.3069 80.6267 97.3706 80.0069C97.4344 79.3871 97.035 78.9322 95.9542 78.796C94.8735 78.6599 93.4403 79.6594 93.3732 80.2792Z" fill="#EFDBD3"/>
<path d="M108.994 77.5959C100.495 76.7934 97.2631 76.9546 91.6915 80.9527C86.1199 84.9507 78.746 85.9466 79.1051 88.3147C79.4642 90.6827 79.7764 89.9125 80.941 90.7293C82.1057 91.5461 99.3172 83.9834 104.328 84.2091C109.339 84.4348 118.026 78.4521 108.994 77.5959Z" fill="#BC5C3F"/>
<path d="M96.0047 80.3543C95.847 80.1394 99.1866 79.079 102.617 78.6849C105.54 78.3482 108.584 78.5989 108.994 79.1471C106.757 78.8516 104.498 78.8012 102.251 78.9966C99.0758 79.3441 96.149 80.5514 96.0047 80.3543Z" fill="#EFDBD3"/>
<path d="M84.5963 85.8893C84.556 86.0397 86.6101 85.4271 88.5937 84.4742C90.2719 83.6646 91.8897 82.5468 91.9937 82.1599C90.8309 83.0335 89.6015 83.8016 88.3185 84.4563C86.5061 85.3412 84.6332 85.7496 84.5963 85.8893Z" fill="#EFDBD3"/>
<path d="M99.8006 81.1926C99.8342 81.4863 100.643 81.2642 101.653 81.1352C102.664 81.0063 103.462 80.6624 103.429 80.3686C103.395 80.0748 102.586 80.2934 101.576 80.4223C100.566 80.5513 99.7704 80.8988 99.8006 81.1926Z" fill="#EFDBD3"/>
<path d="M95.7459 81.6873C95.7795 81.9811 96.3702 81.7876 97.1187 81.6873C97.8672 81.587 98.4612 81.2753 98.4142 80.9708C98.3673 80.6663 97.79 80.8705 97.0415 80.9708C96.293 81.0711 95.7124 81.3935 95.7459 81.6873Z" fill="#EFDBD3"/>
<path d="M97.3338 83.5679C97.3673 83.8617 97.9614 83.6682 98.7099 83.5679C99.4584 83.4676 100.052 83.1559 100.005 82.8514C99.9585 82.5469 99.3778 82.7511 98.6293 82.8514C97.8809 82.9517 97.3036 83.2741 97.3338 83.5679Z" fill="#EFDBD3"/>
<path d="M92.712 83.9369C92.7993 84.2199 93.3464 83.9046 94.0546 83.6574C94.7628 83.4103 95.283 82.9804 95.1958 82.6973C95.1085 82.4143 94.5648 82.7296 93.8532 82.9768C93.1417 83.224 92.6281 83.6539 92.712 83.9369Z" fill="#EFDBD3"/>
<path d="M89.0235 85.764C89.1309 86.0398 89.5941 85.7067 90.2183 85.4308C90.8426 85.155 91.2588 84.7143 91.1548 84.4313C91.0507 84.1483 90.5842 84.4922 89.9599 84.768C89.3356 85.0439 88.9194 85.4917 89.0235 85.764Z" fill="#EFDBD3"/>
<path d="M82.445 88.1212C82.5188 88.4078 83.0189 88.1427 83.67 87.9564C84.3212 87.7701 84.7911 87.3868 84.7206 87.1002C84.6501 86.8136 84.1466 87.0787 83.4955 87.265C82.8444 87.4513 82.3745 87.8346 82.445 88.1212Z" fill="#EFDBD3"/>
<path d="M85.8481 87.2328C85.922 87.5194 86.2542 87.3009 86.704 87.1719C87.1537 87.043 87.4558 86.7098 87.3753 86.4232C87.2947 86.1366 86.9691 86.3515 86.5194 86.4805C86.0696 86.6095 85.7709 86.9462 85.8481 87.2328Z" fill="#EFDBD3"/>
<path d="M87.8621 87.7416C87.9494 88.0247 88.2716 87.7882 88.7146 87.6378C89.1577 87.4873 89.4463 87.1326 89.359 86.8496C89.2718 86.5666 88.9496 86.803 88.5065 86.9535C88.0635 87.104 87.7849 87.4443 87.8621 87.7416Z" fill="#EFDBD3"/>
<path d="M103.771 82.8837C103.744 83.1811 104.13 83.1023 104.59 83.1488C105.05 83.1954 105.449 82.9984 105.476 82.701C105.503 82.4037 105.117 82.4825 104.657 82.4359C104.197 82.3893 103.798 82.59 103.771 82.8837Z" fill="#EFDBD3"/>
<path d="M91.9399 86.1007C92.0036 86.3909 92.5104 86.1401 93.1683 85.9681C93.8261 85.7962 94.3027 85.4308 94.239 85.1406C94.1752 84.8504 93.665 85.1048 93.0105 85.2731C92.356 85.4415 91.8727 85.8141 91.9399 86.1007Z" fill="#EFDBD3"/>
<path d="M106.127 81.3539C106.064 81.9737 106.967 81.8339 108.047 81.9665C109.128 82.099 110.061 81.7014 110.125 81.0816C110.189 80.4618 109.789 80.0069 108.709 79.8707C107.628 79.7346 106.195 80.7341 106.127 81.3539Z" fill="#EFDBD3"/>
<path opacity="0.53" d="M101.546 79.706C93.1113 78.3339 89.8758 78.273 84.0927 81.8913C78.3097 85.5096 70.8585 86.0111 71.0733 88.3899C71.2881 90.7687 71.6473 90.0271 72.7515 90.9227C73.8558 91.8183 91.4902 85.4308 96.4778 85.9897C101.465 86.5485 110.504 81.1676 101.546 79.706Z" fill="#994633"/>
<path d="M103.623 80.9955C95.1923 79.6234 91.9534 79.5625 86.1703 83.1808C80.3873 86.7992 72.9562 87.2899 73.1711 89.6795C73.3859 92.069 73.745 91.3167 74.8492 92.2123C75.9535 93.1079 93.5913 86.7275 98.5755 87.2756C103.56 87.8237 112.588 82.4536 103.623 80.9955Z" fill="#BC5C3F"/>
<path d="M90.4966 82.8693C90.349 82.6436 93.749 81.8125 97.2094 81.6477C100.146 81.5116 103.167 81.963 103.54 82.5398C101.327 82.0955 99.0778 81.8927 96.8268 81.9343C93.6214 82.0705 90.6275 83.0771 90.4966 82.8693Z" fill="#EFDBD3"/>
<path d="M78.7864 87.6232C78.736 87.7736 80.8337 87.2972 82.8543 86.4839C84.5795 85.7889 86.261 84.7787 86.3885 84.3989C85.176 85.1915 83.904 85.8757 82.5858 86.4445C80.7364 87.204 78.83 87.487 78.7864 87.6232Z" fill="#EFDBD3"/>
<path d="M94.2358 83.9621C94.2526 84.2594 95.0715 84.0911 96.0885 84.0302C97.1055 83.9693 97.9211 83.6719 97.9043 83.3817C97.8875 83.0916 97.0686 83.2528 96.0516 83.3137C95.0346 83.3746 94.2224 83.6647 94.2358 83.9621Z" fill="#EFDBD3"/>
<path d="M90.1577 84.1803C90.1745 84.4777 90.7786 84.3236 91.5305 84.2806C92.2823 84.2376 92.873 83.9582 92.873 83.6609C92.873 83.3635 92.2521 83.5176 91.5002 83.5641C90.7484 83.6107 90.1342 83.8866 90.1577 84.1803Z" fill="#EFDBD3"/>
<path d="M91.6346 86.1652C91.6514 86.4625 92.2555 86.3085 93.0074 86.2619C93.7592 86.2153 94.3499 85.9431 94.3499 85.6457C94.3499 85.3484 93.7324 85.5024 92.9805 85.549C92.2287 85.5956 91.6178 85.8714 91.6346 86.1652Z" fill="#EFDBD3"/>
<path d="M86.9992 86.2227C87.0697 86.5092 87.6336 86.2227 88.3653 86.0364C89.097 85.8501 89.6306 85.4417 89.5635 85.1551C89.4964 84.8685 88.9291 85.1551 88.1975 85.3414C87.4658 85.5277 86.9321 85.9361 86.9992 86.2227Z" fill="#EFDBD3"/>
<path d="M83.21 87.8022C83.3007 88.0816 83.784 87.7807 84.4217 87.5478C85.0594 87.315 85.5058 86.8958 85.4286 86.6164C85.3514 86.337 84.8547 86.6164 84.217 86.8707C83.5792 87.1251 83.1194 87.5156 83.21 87.8022Z" fill="#EFDBD3"/>
<path d="M76.5041 89.7084C76.5611 89.9986 77.0746 89.7693 77.7359 89.626C78.3971 89.4827 78.8904 89.1316 78.8367 88.8414C78.783 88.5512 78.2662 88.7805 77.605 88.9238C76.9437 89.0671 76.4504 89.4182 76.5041 89.7084Z" fill="#EFDBD3"/>
<path d="M79.9546 89.0492C80.0083 89.3394 80.3574 89.146 80.8105 89.0492C81.2636 88.9525 81.5925 88.6337 81.5354 88.3327C81.4784 88.0318 81.1327 88.236 80.6796 88.3327C80.2265 88.4295 79.9009 88.7591 79.9546 89.0492Z" fill="#EFDBD3"/>
<path d="M81.9345 89.6941C82.0016 89.9807 82.3406 89.7693 82.7904 89.6439C83.2401 89.5185 83.5489 89.1925 83.4818 88.9023C83.4147 88.6122 83.0757 88.8271 82.6259 88.9525C82.1762 89.0779 81.8674 89.4075 81.9345 89.6941Z" fill="#EFDBD3"/>
<path d="M98.099 85.918C98.0554 86.2117 98.4346 86.158 98.9012 86.2368C99.3677 86.3156 99.7671 86.1437 99.8108 85.8499C99.8544 85.5562 99.4751 85.6099 99.0086 85.5311C98.542 85.4523 98.1426 85.6242 98.099 85.918Z" fill="#EFDBD3"/>
<path d="M86.1068 88.3325C86.1538 88.6227 86.674 88.4078 87.3386 88.2824C88.0032 88.157 88.5066 87.8203 88.4563 87.5265C88.4059 87.2327 87.889 87.4513 87.2245 87.5766C86.5599 87.702 86.0531 88.0388 86.1068 88.3325Z" fill="#EFDBD3"/>
<path d="M100.539 84.5459C100.435 85.1585 101.345 85.0797 102.419 85.2839C103.493 85.4881 104.433 85.1549 104.543 84.5459C104.654 83.9369 104.275 83.4425 103.201 83.2383C102.127 83.0341 100.643 83.9333 100.539 84.5459Z" fill="#EFDBD3"/>
<path d="M64.901 78.7852C64.901 82.7259 60.2289 87.9993 54.8319 86.9747C49.6832 85.9967 44.5244 83.7684 44.5244 79.8098C44.5244 75.8511 50.3209 70.0869 55.5635 70.0869C60.8062 70.0869 64.901 74.8301 64.901 78.7852Z" fill="#68321F"/>
<path d="M55.5635 71.366C55.5635 71.366 49.569 76.994 50.529 79.8099C51.4889 82.6257 56.99 72.8993 55.5635 71.366Z" fill="#F4F4F4"/>
<path d="M58.4937 77.2304C58.4937 77.2304 52.8752 72.1791 50.0659 72.9888C47.2566 73.7984 56.9632 78.4449 58.4937 77.2304Z" fill="#F4F4F4"/>
<path opacity="0.15" d="M27.511 73.5691C27.511 73.5691 45.8301 67.0956 50.3075 66.4042C54.7849 65.7127 71.6943 66.9057 74.1378 66.0459C76.5812 65.1861 88.5534 66.3289 97.9681 67.8371C101.502 68.4032 118.442 68.9871 118.442 73.0676C118.442 77.148 116.314 91.3203 71.738 87.8023C27.1619 84.2843 29.5516 84.3166 27.511 73.5691Z" fill="#47201A"/>
<path d="M37.9358 86.4733C37.4492 86.4733 32.2837 82.8549 31.6963 81.816C31.109 80.7771 30.1289 72.4299 30.6189 71.9069C31.109 71.3838 37.4391 77.0979 37.4391 77.0979C37.4391 77.0979 38.4259 86.4733 37.9358 86.4733Z" fill="#E2E2E2"/>
<path d="M49.0018 81.354C49.0018 81.354 38.4259 86.4626 37.9258 86.4626C37.4257 86.4626 37.4391 77.098 37.4391 77.098C37.4391 77.098 48.6863 71.323 49.1864 71.8532C49.6865 72.3835 49.1864 81.0351 49.1864 81.0351C49.1838 81.1007 49.1654 81.1645 49.1331 81.2203C49.1008 81.2761 49.0556 81.3222 49.0018 81.354V81.354Z" fill="#E8EAE9"/>
<path d="M49.1866 71.8747L42.4369 67.6366C42.3276 67.5696 42.2038 67.5344 42.0778 67.5344C41.9518 67.5344 41.828 67.5696 41.7187 67.6366C41.7187 67.6366 30.6191 71.3803 30.6191 71.8997C30.6191 72.4192 37.4393 77.0979 37.4393 77.0979L49.1866 71.8747Z" fill="#EFEFEF"/>
<path d="M33.9217 71.932C33.9217 71.932 41.0238 68.6541 41.8394 68.6541C41.8394 68.6541 34.0627 72.3476 33.9217 71.932Z" fill="#D8D8D8"/>
<path d="M35.2642 73.3686C35.2642 73.3686 42.0675 70.4453 42.8462 70.4453C42.8462 70.4453 35.3984 73.7376 35.2642 73.3686Z" fill="#D8D8D8"/>
<path d="M37.9494 74.4396C37.9494 74.4396 45.0515 71.1616 45.8671 71.1616C45.8671 71.1616 38.0904 74.8552 37.9494 74.4396Z" fill="#D8D8D8"/>
<path d="M121.721 73.6695C121.721 84.7501 116.351 107.703 73.8927 107.703C38.295 107.703 29.122 93.4233 26.8161 81.9092C26.7188 81.4255 26.6349 80.9455 26.5611 80.4762C27.3498 80.4762 28.0479 80.4762 28.5749 80.4762C29.2663 80.4762 30.5384 79.9854 30.7498 79.7597C30.9613 79.534 30.1121 79.6379 30.045 79.2725C29.9141 79.1758 29.7865 79.0754 29.6623 78.9751L29.4442 78.7996L29.3502 78.7208L29.1992 78.5918C29.1287 78.5345 29.0616 78.4736 28.9944 78.4127L28.7964 78.2336L28.6084 78.0544C28.4843 77.9362 28.3601 77.8144 28.246 77.6962C28.1318 77.578 28.0412 77.4741 27.9439 77.363C27.5837 76.9598 27.259 76.5221 26.9739 76.0554L26.89 75.9121C26.7652 75.6977 26.6531 75.4751 26.5543 75.2458C26.504 75.1311 26.457 75.0165 26.4134 74.8875C26.3899 74.823 26.3664 74.7586 26.3462 74.6941C26.3261 74.6296 26.3026 74.5615 26.2825 74.497C26.1983 74.2104 26.1366 73.9168 26.0979 73.6193C26.0979 73.5656 26.0979 73.5154 26.0979 73.4617C26.0979 73.408 26.0979 73.3578 26.0979 73.3076C26.0993 73.2982 26.0993 73.2885 26.0979 73.279C26.1247 73.2539 26.1885 73.279 26.2556 73.3076C26.3227 73.3363 26.4201 73.3721 26.4234 73.3076C26.5275 75.0989 27.521 76.8113 29.2696 78.4019C29.508 78.6205 29.763 78.839 30.0349 79.0539C34.3982 82.5218 42.3595 85.3555 52.4454 87.0357C52.9892 87.1253 53.5463 87.2113 54.1236 87.2972L55.3353 87.4764L55.7414 87.5301L56.5939 87.6447H56.6342L57.1108 87.7056H57.188L57.6982 87.7665L58.5004 87.8597L59.0374 87.917C59.5543 87.9743 60.0745 88.0281 60.6014 88.0782L62.1387 88.2144L62.6052 88.2538C63.0796 88.292 63.5562 88.3278 64.035 88.3612L64.4042 88.3863L65.8072 88.4723C66.851 88.5296 67.9083 88.5798 68.9756 88.6156H69.1971C69.9456 88.6371 70.7008 88.6586 71.4593 88.6693C72.2783 88.6837 73.1028 88.6908 73.933 88.6908C74.7631 88.6908 75.5877 88.6837 76.4066 88.6693C77.1652 88.6693 77.9204 88.6371 78.6688 88.6156H78.8904C79.9577 88.5798 81.015 88.5296 82.0588 88.4723C83.8276 88.372 85.5662 88.2394 87.2645 88.0782C87.7915 88.0281 88.3117 87.9743 88.8286 87.917C90.0884 87.7833 91.319 87.6316 92.5206 87.462C93.165 87.3737 93.8028 87.2793 94.4338 87.179C94.7694 87.1253 95.105 87.0751 95.4407 87.0178L96.1858 86.8924C96.6255 86.8172 97.0584 86.7384 97.4914 86.656C98.3551 86.496 99.1987 86.3264 100.022 86.1473L100.405 86.0684C101.336 85.8607 102.244 85.6457 103.13 85.4236C103.533 85.3197 103.932 85.2158 104.325 85.1083L104.936 84.94L105.251 84.8504C105.701 84.7214 106.141 84.5925 106.574 84.4599C109.632 83.5639 112.596 82.3333 115.418 80.7879L115.643 80.6374C116.123 80.358 116.576 80.0678 116.985 79.774L117.391 79.491C117.63 79.3191 117.861 79.1328 118.079 78.968C118.153 78.9106 118.227 78.8533 118.298 78.7924L118.543 78.5846C118.613 78.5273 118.68 78.4664 118.747 78.4055L118.945 78.2264L119.133 78.0473C119.258 77.929 119.382 77.8072 119.496 77.689C119.61 77.5708 119.701 77.4669 119.798 77.3558C120.158 76.9526 120.483 76.5149 120.768 76.0482L120.852 75.9049C120.977 75.6905 121.089 75.468 121.187 75.2386C121.238 75.124 121.285 75.0093 121.328 74.8804C121.352 74.8159 121.375 74.7514 121.396 74.6869C121.416 74.6224 121.439 74.5543 121.459 74.4899C121.543 74.2032 121.605 73.9097 121.644 73.6122C121.644 73.5584 121.644 73.5083 121.644 73.4545C121.644 73.4008 121.644 73.3506 121.644 73.3005C121.644 73.2503 121.644 73.2682 121.644 73.2539C121.718 73.3972 121.721 73.5333 121.721 73.6695Z" fill="#353535"/>
<path d="M119.335 73.3113C118.509 81.0853 98.4748 87.308 73.8826 87.308C50.3276 87.308 30.9545 81.5976 28.6386 74.2857C28.6184 74.2309 28.6015 74.1746 28.5883 74.1173C28.5127 73.8544 28.4598 73.5846 28.4306 73.3113H26.0811C26.0811 73.3614 26.0811 73.4152 26.0811 73.4653C26.0811 73.5155 26.0811 73.5692 26.0811 73.623C26.1198 73.9205 26.1815 74.214 26.2657 74.5007C26.2858 74.5652 26.306 74.6296 26.3295 74.6977C26.353 74.7658 26.3731 74.8267 26.3966 74.8912C26.4402 75.0094 26.4872 75.124 26.5376 75.2494C26.6363 75.4788 26.7484 75.7013 26.8732 75.9157L26.9571 76.059C27.2422 76.5257 27.5669 76.9635 27.9271 77.3667C28.0255 77.4789 28.1262 77.59 28.2292 77.6998C28.3433 77.8216 28.4675 77.9434 28.5917 78.0581L28.7796 78.2372L28.9776 78.4163C29.0448 78.4772 29.1119 78.5381 29.1824 78.5954L29.3334 78.7244L29.4274 78.8032L29.6456 78.9788C29.7697 79.0791 29.8973 79.1794 30.0282 79.2761L30.3336 79.4982C30.4645 79.595 30.6021 79.6881 30.7397 79.7812C31.166 80.075 31.6191 80.3652 32.0823 80.6446L32.3642 80.8094C35.1861 82.3549 38.1498 83.5854 41.2083 84.4815C41.6413 84.614 42.0809 84.743 42.5307 84.872L42.8462 84.9615L43.4571 85.1299C43.8498 85.2374 44.2492 85.3413 44.6519 85.4452C45.538 85.6673 46.4442 85.8822 47.3773 86.09L47.7599 86.1688C48.5856 86.3479 49.4292 86.5175 50.2906 86.6775C50.7236 86.7599 51.1566 86.8387 51.5963 86.914L52.3414 87.0394H52.375L52.8583 87.1218L53.3349 87.197L54.3787 87.3546L55.248 87.48L55.6541 87.5337L56.5067 87.6484H56.5704L57.0638 87.7093H57.141L57.6512 87.7702L58.4534 87.8633L58.9904 87.9206C59.5073 87.978 60.0309 88.0317 60.5545 88.0819L62.0917 88.218L63.2093 88.3076L64.3404 88.39L65.7434 88.4759C66.7872 88.5333 67.8445 88.5834 68.9118 88.6192H69.1334C69.8818 88.6407 70.637 88.6622 71.3956 88.673C72.2145 88.6873 73.0391 88.6945 73.8692 88.6945C74.6993 88.6945 75.5239 88.6873 76.3429 88.673C77.1014 88.673 77.8566 88.6407 78.6051 88.6192H78.8266C79.8939 88.5834 80.9512 88.5333 81.995 88.4759C83.7638 88.3756 85.5024 88.2431 87.2007 88.0819C87.7243 88.0317 88.2479 87.978 88.7648 87.9206C90.0246 87.7869 91.2553 87.6352 92.4568 87.4657C93.1013 87.3773 93.739 87.283 94.37 87.1827C94.7056 87.1289 95.0412 87.0788 95.3769 87.0214L96.122 86.8961C96.5617 86.8208 96.9947 86.742 97.4276 86.6596C98.2913 86.4996 99.1349 86.33 99.9583 86.1509L100.341 86.0721C101.274 85.8643 102.18 85.6494 103.066 85.4272C103.469 85.3233 103.869 85.2195 104.261 85.112L104.872 84.9436L105.188 84.854C105.637 84.7251 106.077 84.5961 106.51 84.4635C109.569 83.5675 112.532 82.337 115.354 80.7915L115.643 80.6375C116.123 80.358 116.576 80.0678 116.985 79.7741L117.391 79.4911C117.63 79.3191 117.861 79.1328 118.079 78.968L118.298 78.7925L118.543 78.5847C118.613 78.5274 118.68 78.4665 118.747 78.4056L118.945 78.2264L119.133 78.0473C119.258 77.9291 119.382 77.8073 119.496 77.6891C119.61 77.5709 119.701 77.467 119.798 77.3559C120.158 76.9527 120.483 76.515 120.768 76.0483L120.852 75.905C120.977 75.6906 121.089 75.468 121.187 75.2387C121.238 75.124 121.285 75.0094 121.328 74.8804C121.352 74.8159 121.375 74.7514 121.396 74.687C121.416 74.6225 121.439 74.5544 121.459 74.4899C121.543 74.2033 121.605 73.9097 121.644 73.6122C121.644 73.5585 121.644 73.5083 121.644 73.4546C121.644 73.4008 121.644 73.3507 121.644 73.3005L119.335 73.3113Z" fill="#444444"/>
<path d="M30.7633 79.7597C30.5518 79.9854 29.2797 80.4762 28.5883 80.4762C28.0479 80.4762 27.3498 80.4762 26.5745 80.4762C22.7818 80.3974 16.8846 79.7597 16.3476 75.1777C16.2971 74.7135 16.2971 74.2447 16.3476 73.7805C16.7101 69.9222 25.2017 66.5045 28.5883 66.5045C29.0199 66.4577 29.4535 66.5702 29.8168 66.8234C29.3708 67.1682 28.9438 67.5402 28.538 67.9375C26.9336 69.5138 26.0643 71.2012 26.0643 72.953C26.0643 73.0581 26.0643 73.162 26.0643 73.2647C26.0658 73.2742 26.0658 73.2838 26.0643 73.2933C26.0643 73.3435 26.0643 73.3972 26.0643 73.4474C26.0643 73.4975 26.0643 73.5513 26.0643 73.605C26.103 73.9025 26.1648 74.1961 26.2489 74.4827C26.2691 74.5472 26.2892 74.6153 26.3127 74.6797C26.3362 74.7442 26.3563 74.8087 26.3798 74.8732C26.4235 74.9914 26.4704 75.1061 26.5208 75.2314C26.6195 75.4608 26.7316 75.6834 26.8564 75.8978L26.9403 76.0411C27.2254 76.5078 27.5501 76.9455 27.9103 77.3487C28.0088 77.4609 28.1095 77.572 28.2124 77.6819C28.3265 77.8037 28.4507 77.9255 28.5749 78.0401L28.7629 78.2192L28.9609 78.3984C29.028 78.4593 29.0951 78.5202 29.1656 78.5775L29.3167 78.7065L29.4106 78.7853C29.4811 78.8462 29.555 78.9035 29.6288 78.9608C29.753 79.0611 30.5854 79.294 30.7163 79.3907C30.7476 79.4065 30.7747 79.4304 30.7952 79.4603C30.8157 79.4901 30.8289 79.5249 30.8335 79.5616C30.8382 79.5983 30.8342 79.6356 30.8219 79.6702C30.8097 79.7048 30.7895 79.7355 30.7633 79.7597V79.7597Z" fill="#444444"/>
<path d="M117.6 80.1324C117.224 81.2501 116.609 84.0731 118.241 84.0731C118.721 84.0731 119.328 84.0731 120.013 84.0731C124.138 84.0122 131.76 80.7593 131.169 74.7586V74.4004C130.632 78.9967 124.732 80.401 120.939 80.4906C120.15 80.4906 119.452 80.4906 118.925 80.4906C118.221 80.4763 117.811 80.3581 117.6 80.1324Z" fill="#353535"/>
<path d="M116.737 79.7597C116.948 79.9854 118.221 80.4762 118.912 80.4762C119.452 80.4762 120.15 80.4762 120.926 80.4762C124.718 80.3974 130.616 79.7597 131.153 75.1777C131.203 74.7135 131.203 74.2447 131.153 73.7805C130.773 69.9329 122.282 66.5153 118.895 66.5153C118.464 66.4684 118.03 66.581 117.667 66.8341C118.113 67.1789 118.54 67.5509 118.945 67.9483C120.55 69.5245 121.419 71.2119 121.419 72.9637C121.419 73.0688 121.419 73.1727 121.419 73.2754C121.418 73.2849 121.418 73.2946 121.419 73.3041C121.419 73.3542 121.419 73.408 121.419 73.4581C121.419 73.5083 121.419 73.562 121.402 73.6157C121.364 73.9133 121.302 74.2068 121.218 74.4934C121.198 74.5579 121.177 74.626 121.154 74.6905C121.131 74.755 121.11 74.8195 121.087 74.8839C121.043 75.0022 120.996 75.1168 120.946 75.2422C120.847 75.4716 120.735 75.6941 120.61 75.9085L120.526 76.0518C120.241 76.5185 119.917 76.9562 119.556 77.3594C119.458 77.4717 119.357 77.5827 119.254 77.6926C119.14 77.8144 119.016 77.9362 118.892 78.0509L118.704 78.23L118.506 78.4091C118.439 78.47 118.372 78.5309 118.301 78.5882L118.15 78.7172L118.056 78.796C117.986 78.8569 117.912 78.9142 117.838 78.9716C117.764 79.0289 116.881 79.3047 116.75 79.4014C116.723 79.4209 116.701 79.447 116.685 79.4775C116.669 79.508 116.66 79.542 116.659 79.5769C116.657 79.6118 116.664 79.6466 116.677 79.6783C116.691 79.7101 116.711 79.738 116.737 79.7597V79.7597Z" fill="#444444"/>
<path d="M30.0114 79.0574C30.0282 79.1291 30.0449 79.2007 30.0584 79.2688C29.9275 79.1721 29.7999 79.0717 29.6757 78.9714L29.4576 78.7959L29.3636 78.7171L29.2126 78.5881C29.1421 78.5308 29.0749 78.4699 29.0078 78.409L28.8098 78.2299L28.6218 78.0507C28.4977 77.9325 28.3735 77.8107 28.2593 77.6925C28.1452 77.5743 28.0546 77.4704 27.9573 77.3593C27.5971 76.9561 27.2724 76.5184 26.9873 76.0517L26.9034 75.9084C26.7786 75.694 26.6665 75.4715 26.5677 75.2421C26.5174 75.1274 26.4704 75.0128 26.4268 74.8838C26.4033 74.8193 26.3798 74.7549 26.3596 74.6904C26.3395 74.6259 26.316 74.5578 26.2959 74.4933C26.2117 74.2067 26.15 73.9131 26.1113 73.6156C26.1113 73.5619 26.1113 73.5117 26.1113 73.458C26.1113 73.4043 26.1113 73.3541 26.1113 73.3039C26.1127 73.2945 26.1127 73.2848 26.1113 73.2753V73.2753C26.1113 73.1702 26.1113 73.0663 26.1113 72.9636C26.1113 71.2118 26.9806 69.5244 28.5849 67.9481C28.9907 67.5508 29.4177 67.1788 29.8637 66.834C30.1423 67.0776 30.1993 67.4609 30.0986 67.9553C30.0718 68.095 30.0349 68.2491 29.9912 68.4103C29.8905 68.7685 29.7462 69.1698 29.5918 69.6032C29.1622 70.8034 28.6353 72.2579 28.6353 73.7804C28.6353 73.8986 28.6353 74.0133 28.6353 74.1387C28.6353 74.2641 28.6353 74.3823 28.6621 74.4969C28.8232 76.3813 29.7194 77.9862 30.0114 79.0574Z" fill="#444444"/>
</g>
<defs>
<clipPath id="clip0_254_2864">
<rect width="146.685" height="146.685" fill="white"/>
</clipPath>
</defs>
</svg>
