<svg width="77" height="15" viewBox="0 0 77 15" fill="none" xmlns="http://www.w3.org/2000/svg">
<path d="M10.1105 1.4547V11.1427H8.83652V3.9187L5.61652 11.1427H4.72052L1.48652 3.9047V11.1427H0.212522V1.4547H1.58452L5.16852 9.4627L8.75252 1.4547H10.1105ZM18.8791 3.4707L14.2591 14.7547H12.9431L14.4551 11.0587L11.3611 3.4707H12.7751L15.1831 9.6867L17.5631 3.4707H18.8791ZM23.4162 7.2787C23.4162 6.4947 23.5749 5.8087 23.8922 5.2207C24.2095 4.62337 24.6435 4.16137 25.1942 3.8347C25.7542 3.50803 26.3795 3.3447 27.0702 3.3447C27.6675 3.3447 28.2229 3.4847 28.7362 3.7647C29.2495 4.03537 29.6415 4.3947 29.9122 4.8427V0.7827H31.2002V11.1427H29.9122V9.7007C29.6602 10.158 29.2869 10.536 28.7922 10.8347C28.2975 11.124 27.7189 11.2687 27.0562 11.2687C26.3749 11.2687 25.7542 11.1007 25.1942 10.7647C24.6435 10.4287 24.2095 9.95737 23.8922 9.3507C23.5749 8.74403 23.4162 8.05337 23.4162 7.2787ZM29.9122 7.2927C29.9122 6.71403 29.7955 6.21003 29.5622 5.7807C29.3289 5.35137 29.0115 5.0247 28.6102 4.8007C28.2182 4.56737 27.7842 4.4507 27.3082 4.4507C26.8322 4.4507 26.3982 4.5627 26.0062 4.7867C25.6142 5.0107 25.3015 5.33737 25.0682 5.7667C24.8349 6.19603 24.7182 6.70003 24.7182 7.2787C24.7182 7.8667 24.8349 8.38003 25.0682 8.8187C25.3015 9.24803 25.6142 9.57937 26.0062 9.8127C26.3982 10.0367 26.8322 10.1487 27.3082 10.1487C27.7842 10.1487 28.2182 10.0367 28.6102 9.8127C29.0115 9.57937 29.3289 9.24803 29.5622 8.8187C29.7955 8.38003 29.9122 7.87137 29.9122 7.2927ZM40.3531 7.0127C40.3531 7.25537 40.3391 7.51203 40.3111 7.7827H34.1791C34.2258 8.5387 34.4825 9.13137 34.9491 9.5607C35.4251 9.9807 35.9991 10.1907 36.6711 10.1907C37.2218 10.1907 37.6791 10.0647 38.0431 9.8127C38.4165 9.55137 38.6778 9.20603 38.8271 8.7767H40.1991C39.9938 9.51403 39.5831 10.116 38.9671 10.5827C38.3511 11.04 37.5858 11.2687 36.6711 11.2687C35.9431 11.2687 35.2898 11.1054 34.7111 10.7787C34.1418 10.452 33.6938 9.99003 33.3671 9.3927C33.0405 8.78603 32.8771 8.08603 32.8771 7.2927C32.8771 6.49937 33.0358 5.80403 33.3531 5.2067C33.6705 4.60937 34.1138 4.15203 34.6831 3.8347C35.2618 3.50803 35.9245 3.3447 36.6711 3.3447C37.3991 3.3447 38.0431 3.50337 38.6031 3.8207C39.1631 4.13803 39.5925 4.5767 39.8911 5.1367C40.1991 5.68737 40.3531 6.3127 40.3531 7.0127ZM39.0371 6.7467C39.0371 6.26137 38.9298 5.84603 38.7151 5.5007C38.5005 5.14603 38.2065 4.88003 37.8331 4.7027C37.4691 4.51603 37.0631 4.4227 36.6151 4.4227C35.9711 4.4227 35.4205 4.62803 34.9631 5.0387C34.5151 5.44937 34.2585 6.0187 34.1931 6.7467H39.0371ZM44.8908 9.9667L47.2708 3.4707H48.6288L45.6188 11.1427H44.1348L41.1248 3.4707H42.4968L44.8908 9.9667ZM50.5404 2.2247C50.2978 2.2247 50.0924 2.1407 49.9244 1.9727C49.7564 1.8047 49.6724 1.59937 49.6724 1.3567C49.6724 1.11403 49.7564 0.9087 49.9244 0.7407C50.0924 0.5727 50.2978 0.4887 50.5404 0.4887C50.7738 0.4887 50.9698 0.5727 51.1284 0.7407C51.2964 0.9087 51.3804 1.11403 51.3804 1.3567C51.3804 1.59937 51.2964 1.8047 51.1284 1.9727C50.9698 2.1407 50.7738 2.2247 50.5404 2.2247ZM51.1564 3.4707V11.1427H49.8824V3.4707H51.1564ZM52.8518 7.2927C52.8518 6.49937 53.0104 5.8087 53.3278 5.2207C53.6451 4.62337 54.0838 4.16137 54.6438 3.8347C55.2131 3.50803 55.8618 3.3447 56.5898 3.3447C57.5324 3.3447 58.3071 3.57337 58.9138 4.0307C59.5298 4.48803 59.9358 5.1227 60.1318 5.9347H58.7598C58.6291 5.46803 58.3724 5.09937 57.9898 4.8287C57.6164 4.55803 57.1498 4.4227 56.5898 4.4227C55.8618 4.4227 55.2738 4.6747 54.8258 5.1787C54.3778 5.67337 54.1538 6.37803 54.1538 7.2927C54.1538 8.2167 54.3778 8.9307 54.8258 9.4347C55.2738 9.9387 55.8618 10.1907 56.5898 10.1907C57.1498 10.1907 57.6164 10.06 57.9898 9.7987C58.3631 9.53737 58.6198 9.16403 58.7598 8.6787H60.1318C59.9264 9.4627 59.5158 10.0927 58.8998 10.5687C58.2838 11.0354 57.5138 11.2687 56.5898 11.2687C55.8618 11.2687 55.2131 11.1054 54.6438 10.7787C54.0838 10.452 53.6451 9.99003 53.3278 9.3927C53.0104 8.79537 52.8518 8.09537 52.8518 7.2927ZM68.8317 7.0127C68.8317 7.25537 68.8177 7.51203 68.7897 7.7827H62.6577C62.7043 8.5387 62.961 9.13137 63.4277 9.5607C63.9037 9.9807 64.4777 10.1907 65.1497 10.1907C65.7003 10.1907 66.1577 10.0647 66.5217 9.8127C66.895 9.55137 67.1563 9.20603 67.3057 8.7767H68.6777C68.4723 9.51403 68.0617 10.116 67.4457 10.5827C66.8297 11.04 66.0643 11.2687 65.1497 11.2687C64.4217 11.2687 63.7683 11.1054 63.1897 10.7787C62.6203 10.452 62.1723 9.99003 61.8457 9.3927C61.519 8.78603 61.3557 8.08603 61.3557 7.2927C61.3557 6.49937 61.5143 5.80403 61.8317 5.2067C62.149 4.60937 62.5923 4.15203 63.1617 3.8347C63.7403 3.50803 64.403 3.3447 65.1497 3.3447C65.8777 3.3447 66.5217 3.50337 67.0817 3.8207C67.6417 4.13803 68.071 4.5767 68.3697 5.1367C68.6777 5.68737 68.8317 6.3127 68.8317 7.0127ZM67.5157 6.7467C67.5157 6.26137 67.4083 5.84603 67.1937 5.5007C66.979 5.14603 66.685 4.88003 66.3117 4.7027C65.9477 4.51603 65.5417 4.4227 65.0937 4.4227C64.4497 4.4227 63.899 4.62803 63.4417 5.0387C62.9937 5.44937 62.737 6.0187 62.6717 6.7467H67.5157ZM73.2293 11.2687C72.6413 11.2687 72.114 11.1707 71.6473 10.9747C71.1806 10.7694 70.812 10.4894 70.5413 10.1347C70.2706 9.7707 70.1213 9.35537 70.0933 8.8887H71.4093C71.4466 9.27137 71.624 9.58403 71.9413 9.8267C72.268 10.0694 72.6926 10.1907 73.2153 10.1907C73.7006 10.1907 74.0833 10.0834 74.3633 9.8687C74.6433 9.65403 74.7833 9.38337 74.7833 9.0567C74.7833 8.7207 74.634 8.47337 74.3353 8.3147C74.0366 8.1467 73.5746 7.98337 72.9493 7.8247C72.38 7.67537 71.9133 7.52603 71.5493 7.3767C71.1946 7.21803 70.8866 6.98937 70.6253 6.6907C70.3733 6.3827 70.2473 5.98137 70.2473 5.4867C70.2473 5.0947 70.364 4.73537 70.5973 4.4087C70.8306 4.08203 71.162 3.82537 71.5913 3.6387C72.0206 3.4427 72.5106 3.3447 73.0613 3.3447C73.9106 3.3447 74.5966 3.55937 75.1193 3.9887C75.642 4.41803 75.922 5.00603 75.9593 5.7527H74.6853C74.6573 5.35137 74.494 5.02937 74.1953 4.7867C73.906 4.54403 73.514 4.4227 73.0193 4.4227C72.562 4.4227 72.198 4.5207 71.9273 4.7167C71.6566 4.9127 71.5213 5.16937 71.5213 5.4867C71.5213 5.7387 71.6006 5.9487 71.7593 6.1167C71.9273 6.27537 72.1326 6.40603 72.3753 6.5087C72.6273 6.60203 72.9726 6.70937 73.4113 6.8307C73.962 6.98003 74.41 7.12937 74.7553 7.2787C75.1006 7.4187 75.3946 7.63337 75.6373 7.9227C75.8893 8.21203 76.02 8.59003 76.0293 9.0567C76.0293 9.4767 75.9126 9.8547 75.6793 10.1907C75.446 10.5267 75.1146 10.7927 74.6853 10.9887C74.2653 11.1754 73.78 11.2687 73.2293 11.2687Z" fill="#333333"/>
</svg>
