<svg width="100" height="15" viewBox="0 0 100 15" fill="none" xmlns="http://www.w3.org/2000/svg">
<path d="M10.1105 1.4547V11.1427H8.83652V3.9187L5.61652 11.1427H4.72052L1.48652 3.9047V11.1427H0.212522V1.4547H1.58452L5.16852 9.4627L8.75252 1.4547H10.1105ZM18.8791 3.4707L14.2591 14.7547H12.9431L14.4551 11.0587L11.3611 3.4707H12.7751L15.1831 9.6867L17.5631 3.4707H18.8791ZM27.0562 3.3447C27.7189 3.3447 28.2975 3.48937 28.7922 3.7787C29.2962 4.06803 29.6695 4.43203 29.9122 4.8707V3.4707H31.2002V11.3107C31.2002 12.0107 31.0509 12.6314 30.7522 13.1727C30.4535 13.7234 30.0242 14.1527 29.4642 14.4607C28.9135 14.7687 28.2695 14.9227 27.5322 14.9227C26.5242 14.9227 25.6842 14.6847 25.0122 14.2087C24.3402 13.7327 23.9435 13.084 23.8222 12.2627H25.0822C25.2222 12.7294 25.5115 13.1027 25.9502 13.3827C26.3889 13.672 26.9162 13.8167 27.5322 13.8167C28.2322 13.8167 28.8015 13.5974 29.2402 13.1587C29.6882 12.72 29.9122 12.104 29.9122 11.3107V9.7007C29.6602 10.1487 29.2869 10.522 28.7922 10.8207C28.2975 11.1194 27.7189 11.2687 27.0562 11.2687C26.3749 11.2687 25.7542 11.1007 25.1942 10.7647C24.6435 10.4287 24.2095 9.95737 23.8922 9.3507C23.5749 8.74403 23.4162 8.05337 23.4162 7.2787C23.4162 6.4947 23.5749 5.8087 23.8922 5.2207C24.2095 4.62337 24.6435 4.16137 25.1942 3.8347C25.7542 3.50803 26.3749 3.3447 27.0562 3.3447ZM29.9122 7.2927C29.9122 6.71403 29.7955 6.21003 29.5622 5.7807C29.3289 5.35137 29.0115 5.0247 28.6102 4.8007C28.2182 4.56737 27.7842 4.4507 27.3082 4.4507C26.8322 4.4507 26.3982 4.5627 26.0062 4.7867C25.6142 5.0107 25.3015 5.33737 25.0682 5.7667C24.8349 6.19603 24.7182 6.70003 24.7182 7.2787C24.7182 7.8667 24.8349 8.38003 25.0682 8.8187C25.3015 9.24803 25.6142 9.57937 26.0062 9.8127C26.3982 10.0367 26.8322 10.1487 27.3082 10.1487C27.7842 10.1487 28.2182 10.0367 28.6102 9.8127C29.0115 9.57937 29.3289 9.24803 29.5622 8.8187C29.7955 8.38003 29.9122 7.87137 29.9122 7.2927ZM34.6271 4.7167C34.8511 4.27803 35.1685 3.93737 35.5791 3.6947C35.9991 3.45203 36.5078 3.3307 37.1051 3.3307V4.6467H36.7691C35.3411 4.6467 34.6271 5.42137 34.6271 6.9707V11.1427H33.3531V3.4707H34.6271V4.7167ZM41.9218 11.2687C41.2031 11.2687 40.5498 11.1054 39.9618 10.7787C39.3831 10.452 38.9258 9.99003 38.5898 9.3927C38.2631 8.78603 38.0998 8.08603 38.0998 7.2927C38.0998 6.5087 38.2678 5.81803 38.6038 5.2207C38.9491 4.61403 39.4158 4.15203 40.0038 3.8347C40.5918 3.50803 41.2498 3.3447 41.9778 3.3447C42.7058 3.3447 43.3638 3.50803 43.9518 3.8347C44.5398 4.15203 45.0018 4.60937 45.3378 5.2067C45.6831 5.80403 45.8558 6.49937 45.8558 7.2927C45.8558 8.08603 45.6785 8.78603 45.3238 9.3927C44.9785 9.99003 44.5071 10.452 43.9098 10.7787C43.3125 11.1054 42.6498 11.2687 41.9218 11.2687ZM41.9218 10.1487C42.3791 10.1487 42.8085 10.0414 43.2098 9.8267C43.6111 9.61203 43.9331 9.29003 44.1758 8.8607C44.4278 8.43137 44.5538 7.9087 44.5538 7.2927C44.5538 6.6767 44.4325 6.15403 44.1898 5.7247C43.9471 5.29537 43.6298 4.97803 43.2378 4.7727C42.8458 4.55803 42.4211 4.4507 41.9638 4.4507C41.4971 4.4507 41.0678 4.55803 40.6758 4.7727C40.2931 4.97803 39.9851 5.29537 39.7518 5.7247C39.5185 6.15403 39.4018 6.6767 39.4018 7.2927C39.4018 7.91803 39.5138 8.44537 39.7378 8.8747C39.9711 9.30403 40.2791 9.62603 40.6618 9.8407C41.0445 10.046 41.4645 10.1487 41.9218 10.1487ZM47.0549 7.2927C47.0549 6.49937 47.2135 5.8087 47.5309 5.2207C47.8482 4.62337 48.2869 4.16137 48.8469 3.8347C49.4162 3.50803 50.0649 3.3447 50.7929 3.3447C51.7355 3.3447 52.5102 3.57337 53.1169 4.0307C53.7329 4.48803 54.1389 5.1227 54.3349 5.9347H52.9629C52.8322 5.46803 52.5755 5.09937 52.1929 4.8287C51.8195 4.55803 51.3529 4.4227 50.7929 4.4227C50.0649 4.4227 49.4769 4.6747 49.0289 5.1787C48.5809 5.67337 48.3569 6.37803 48.3569 7.2927C48.3569 8.2167 48.5809 8.9307 49.0289 9.4347C49.4769 9.9387 50.0649 10.1907 50.7929 10.1907C51.3529 10.1907 51.8195 10.06 52.1929 9.7987C52.5662 9.53737 52.8229 9.16403 52.9629 8.6787H54.3349C54.1295 9.4627 53.7189 10.0927 53.1029 10.5687C52.4869 11.0354 51.7169 11.2687 50.7929 11.2687C50.0649 11.2687 49.4162 11.1054 48.8469 10.7787C48.2869 10.452 47.8482 9.99003 47.5309 9.3927C47.2135 8.79537 47.0549 8.09537 47.0549 7.2927ZM63.0348 7.0127C63.0348 7.25537 63.0208 7.51203 62.9928 7.7827H56.8608C56.9075 8.5387 57.1641 9.13137 57.6308 9.5607C58.1068 9.9807 58.6808 10.1907 59.3528 10.1907C59.9035 10.1907 60.3608 10.0647 60.7248 9.8127C61.0981 9.55137 61.3595 9.20603 61.5088 8.7767H62.8808C62.6755 9.51403 62.2648 10.116 61.6488 10.5827C61.0328 11.04 60.2675 11.2687 59.3528 11.2687C58.6248 11.2687 57.9715 11.1054 57.3928 10.7787C56.8235 10.452 56.3755 9.99003 56.0488 9.3927C55.7221 8.78603 55.5588 8.08603 55.5588 7.2927C55.5588 6.49937 55.7175 5.80403 56.0348 5.2067C56.3521 4.60937 56.7955 4.15203 57.3648 3.8347C57.9435 3.50803 58.6061 3.3447 59.3528 3.3447C60.0808 3.3447 60.7248 3.50337 61.2848 3.8207C61.8448 4.13803 62.2741 4.5767 62.5728 5.1367C62.8808 5.68737 63.0348 6.3127 63.0348 7.0127ZM61.7188 6.7467C61.7188 6.26137 61.6115 5.84603 61.3968 5.5007C61.1821 5.14603 60.8881 4.88003 60.5148 4.7027C60.1508 4.51603 59.7448 4.4227 59.2968 4.4227C58.6528 4.4227 58.1021 4.62803 57.6448 5.0387C57.1968 5.44937 56.9401 6.0187 56.8748 6.7467H61.7188ZM65.9904 4.7167C66.2144 4.27803 66.5318 3.93737 66.9424 3.6947C67.3624 3.45203 67.8711 3.3307 68.4684 3.3307V4.6467H68.1324C66.7044 4.6467 65.9904 5.42137 65.9904 6.9707V11.1427H64.7164V3.4707H65.9904V4.7167ZM76.5471 3.4707L71.9271 14.7547H70.6111L72.1231 11.0587L69.0291 3.4707H70.4431L72.8511 9.6867L75.2311 3.4707H76.5471ZM82.8342 0.7827V11.1427H81.5602V0.7827H82.8342ZM85.6635 2.2247C85.4208 2.2247 85.2155 2.1407 85.0475 1.9727C84.8795 1.8047 84.7955 1.59937 84.7955 1.3567C84.7955 1.11403 84.8795 0.9087 85.0475 0.7407C85.2155 0.5727 85.4208 0.4887 85.6635 0.4887C85.8968 0.4887 86.0928 0.5727 86.2515 0.7407C86.4195 0.9087 86.5035 1.11403 86.5035 1.3567C86.5035 1.59937 86.4195 1.8047 86.2515 1.9727C86.0928 2.1407 85.8968 2.2247 85.6635 2.2247ZM86.2795 3.4707V11.1427H85.0055V3.4707H86.2795ZM91.1668 11.2687C90.5788 11.2687 90.0515 11.1707 89.5848 10.9747C89.1181 10.7694 88.7495 10.4894 88.4788 10.1347C88.2081 9.7707 88.0588 9.35537 88.0308 8.8887H89.3468C89.3841 9.27137 89.5615 9.58403 89.8788 9.8267C90.2055 10.0694 90.6301 10.1907 91.1528 10.1907C91.6381 10.1907 92.0208 10.0834 92.3008 9.8687C92.5808 9.65403 92.7208 9.38337 92.7208 9.0567C92.7208 8.7207 92.5715 8.47337 92.2728 8.3147C91.9741 8.1467 91.5121 7.98337 90.8868 7.8247C90.3175 7.67537 89.8508 7.52603 89.4868 7.3767C89.1321 7.21803 88.8241 6.98937 88.5628 6.6907C88.3108 6.3827 88.1848 5.98137 88.1848 5.4867C88.1848 5.0947 88.3015 4.73537 88.5348 4.4087C88.7681 4.08203 89.0995 3.82537 89.5288 3.6387C89.9581 3.4427 90.4481 3.3447 90.9988 3.3447C91.8481 3.3447 92.5341 3.55937 93.0568 3.9887C93.5795 4.41803 93.8595 5.00603 93.8968 5.7527H92.6228C92.5948 5.35137 92.4315 5.02937 92.1328 4.7867C91.8435 4.54403 91.4515 4.4227 90.9568 4.4227C90.4995 4.4227 90.1355 4.5207 89.8648 4.7167C89.5941 4.9127 89.4588 5.16937 89.4588 5.4867C89.4588 5.7387 89.5381 5.9487 89.6968 6.1167C89.8648 6.27537 90.0701 6.40603 90.3128 6.5087C90.5648 6.60203 90.9101 6.70937 91.3488 6.8307C91.8995 6.98003 92.3475 7.12937 92.6928 7.2787C93.0381 7.4187 93.3321 7.63337 93.5748 7.9227C93.8268 8.21203 93.9575 8.59003 93.9668 9.0567C93.9668 9.4767 93.8501 9.8547 93.6168 10.1907C93.3835 10.5267 93.0521 10.7927 92.6228 10.9887C92.2028 11.1754 91.7175 11.2687 91.1668 11.2687ZM97.3193 4.5207V9.0427C97.3193 9.41603 97.3986 9.68203 97.5573 9.8407C97.7159 9.99003 97.9913 10.0647 98.3833 10.0647H99.3213V11.1427H98.1733C97.4639 11.1427 96.9319 10.9794 96.5773 10.6527C96.2226 10.326 96.0453 9.78937 96.0453 9.0427V4.5207H95.0513V3.4707H96.0453V1.5387H97.3193V3.4707H99.3213V4.5207H97.3193Z" fill="black"/>
</svg>
