<svg width="88" height="14" viewBox="0 0 88 14" fill="none" xmlns="http://www.w3.org/2000/svg">
<path d="M10.1105 0.4547V10.1427H8.83652V2.9187L5.61652 10.1427H4.72052L1.48652 2.9047V10.1427H0.212522V0.4547H1.58452L5.16852 8.4627L8.75252 0.4547H10.1105ZM18.8791 2.4707L14.2591 13.7547H12.9431L14.4551 10.0587L11.3611 2.4707H12.7751L15.1831 8.6867L17.5631 2.4707H18.8791ZM25.1662 0.3847V10.1427H23.8922V0.3847H25.1662ZM31.0755 2.3307C32.0089 2.3307 32.7649 2.61537 33.3435 3.1847C33.9222 3.7447 34.2115 4.5567 34.2115 5.6207V10.1427H32.9515V5.8027C32.9515 5.03737 32.7602 4.45403 32.3775 4.0527C31.9949 3.64203 31.4722 3.4367 30.8095 3.4367C30.1375 3.4367 29.6009 3.6467 29.1995 4.0667C28.8075 4.4867 28.6115 5.09803 28.6115 5.9007V10.1427H27.3375V2.4707H28.6115V3.5627C28.8635 3.1707 29.2042 2.86737 29.6335 2.6527C30.0722 2.43803 30.5529 2.3307 31.0755 2.3307ZM39.1486 8.9667L41.5286 2.4707H42.8866L39.8766 10.1427H38.3926L35.3826 2.4707H36.7546L39.1486 8.9667ZM51.1403 6.0127C51.1403 6.25537 51.1263 6.51203 51.0983 6.7827H44.9663C45.0129 7.5387 45.2696 8.13137 45.7363 8.5607C46.2123 8.9807 46.7863 9.1907 47.4583 9.1907C48.0089 9.1907 48.4663 9.0647 48.8303 8.8127C49.2036 8.55137 49.4649 8.20603 49.6143 7.7767H50.9863C50.7809 8.51403 50.3703 9.11603 49.7543 9.5827C49.1383 10.04 48.3729 10.2687 47.4583 10.2687C46.7303 10.2687 46.0769 10.1054 45.4983 9.7787C44.9289 9.45203 44.4809 8.99003 44.1543 8.3927C43.8276 7.78603 43.6643 7.08603 43.6643 6.2927C43.6643 5.49937 43.8229 4.80403 44.1403 4.2067C44.4576 3.60937 44.9009 3.15203 45.4703 2.8347C46.0489 2.50803 46.7116 2.3447 47.4583 2.3447C48.1863 2.3447 48.8303 2.50337 49.3903 2.8207C49.9503 3.13803 50.3796 3.5767 50.6783 4.1367C50.9863 4.68737 51.1403 5.3127 51.1403 6.0127ZM49.8243 5.7467C49.8243 5.26137 49.7169 4.84603 49.5023 4.5007C49.2876 4.14603 48.9936 3.88003 48.6203 3.7027C48.2563 3.51603 47.8503 3.4227 47.4023 3.4227C46.7583 3.4227 46.2076 3.62803 45.7503 4.0387C45.3023 4.44937 45.0456 5.0187 44.9803 5.7467H49.8243ZM56.5599 2.3307C57.4932 2.3307 58.2492 2.61537 58.8279 3.1847C59.4066 3.7447 59.6959 4.5567 59.6959 5.6207V10.1427H58.4359V5.8027C58.4359 5.03737 58.2446 4.45403 57.8619 4.0527C57.4792 3.64203 56.9566 3.4367 56.2939 3.4367C55.6219 3.4367 55.0852 3.6467 54.6839 4.0667C54.2919 4.4867 54.0959 5.09803 54.0959 5.9007V10.1427H52.8219V2.4707H54.0959V3.5627C54.3479 3.1707 54.6886 2.86737 55.1179 2.6527C55.5566 2.43803 56.0372 2.3307 56.5599 2.3307ZM63.331 3.5207V8.0427C63.331 8.41603 63.4103 8.68203 63.569 8.8407C63.7276 8.99003 64.003 9.0647 64.395 9.0647H65.333V10.1427H64.185C63.4756 10.1427 62.9436 9.97937 62.589 9.6527C62.2343 9.32603 62.057 8.78937 62.057 8.0427V3.5207H61.063V2.4707H62.057V0.5387H63.331V2.4707H65.333V3.5207H63.331ZM70.2226 10.2687C69.5039 10.2687 68.8506 10.1054 68.2626 9.7787C67.6839 9.45203 67.2266 8.99003 66.8906 8.3927C66.5639 7.78603 66.4006 7.08603 66.4006 6.2927C66.4006 5.5087 66.5686 4.81803 66.9046 4.2207C67.2499 3.61403 67.7166 3.15203 68.3046 2.8347C68.8926 2.50803 69.5506 2.3447 70.2786 2.3447C71.0066 2.3447 71.6646 2.50803 72.2526 2.8347C72.8406 3.15203 73.3026 3.60937 73.6386 4.2067C73.9839 4.80403 74.1566 5.49937 74.1566 6.2927C74.1566 7.08603 73.9793 7.78603 73.6246 8.3927C73.2793 8.99003 72.8079 9.45203 72.2106 9.7787C71.6133 10.1054 70.9506 10.2687 70.2226 10.2687ZM70.2226 9.1487C70.6799 9.1487 71.1093 9.04137 71.5106 8.8267C71.9119 8.61203 72.2339 8.29003 72.4766 7.8607C72.7286 7.43137 72.8546 6.9087 72.8546 6.2927C72.8546 5.6767 72.7333 5.15403 72.4906 4.7247C72.2479 4.29537 71.9306 3.97803 71.5386 3.7727C71.1466 3.55803 70.7219 3.4507 70.2646 3.4507C69.7979 3.4507 69.3686 3.55803 68.9766 3.7727C68.5939 3.97803 68.2859 4.29537 68.0526 4.7247C67.8193 5.15403 67.7026 5.6767 67.7026 6.2927C67.7026 6.91803 67.8146 7.44537 68.0386 7.8747C68.2719 8.30403 68.5799 8.62603 68.9626 8.8407C69.3453 9.04603 69.7653 9.1487 70.2226 9.1487ZM77.1057 3.7167C77.3297 3.27803 77.647 2.93737 78.0577 2.6947C78.4777 2.45203 78.9863 2.3307 79.5837 2.3307V3.6467H79.2477C77.8197 3.6467 77.1057 4.42137 77.1057 5.9707V10.1427H75.8317V2.4707H77.1057V3.7167ZM87.6623 2.4707L83.0423 13.7547H81.7263L83.2383 10.0587L80.1443 2.4707H81.5583L83.9663 8.6867L86.3463 2.4707H87.6623Z" fill="#333333"/>
</svg>
