<svg width="147" height="147" viewBox="0 0 147 147" fill="none" xmlns="http://www.w3.org/2000/svg">
<path d="M135.396 83.7906C135.38 70.7405 107.863 60.1947 73.9347 60.236C40.0062 60.2773 12.5146 70.8899 12.5305 83.94C12.5464 96.9901 40.0637 107.536 73.9922 107.495C107.921 107.453 135.412 96.8407 135.396 83.7906Z" fill="#ABABAB"/>
<path d="M135.4 81.9561C135.385 68.906 107.867 58.3602 73.9387 58.4015C40.0102 58.4428 12.5186 69.0554 12.5345 82.1055C12.5503 95.1556 40.0677 105.701 73.9962 105.66C107.925 105.619 135.416 95.0062 135.4 81.9561Z" fill="#F5F5F5"/>
<path d="M103.665 89.1775C103.814 84.4285 89.7787 80.1361 72.3171 79.5903C54.8554 79.0445 40.5796 82.452 40.4312 87.2011C40.2827 91.9501 54.3179 96.2425 71.7795 96.7883C89.2411 97.3341 103.517 93.9266 103.665 89.1775Z" fill="#F8EBB6"/>
<path d="M103.986 78.6337L40.7523 76.6572L40.423 87.1945L103.657 89.171L103.986 78.6337Z" fill="#F8EBB6"/>
<path d="M103.994 78.6338C104.143 73.8848 90.1074 69.5924 72.6458 69.0466C55.1841 68.5008 40.9083 71.9083 40.7599 76.6574C40.6114 81.4064 54.6466 85.6988 72.1082 86.2446C89.5699 86.7904 103.846 83.3829 103.994 78.6338Z" fill="#E0B876"/>
<path d="M104.053 76.5982C104.202 71.8491 90.1665 67.5568 72.7048 67.011C55.2432 66.4652 40.9674 69.8726 40.8189 74.6217C40.6705 79.3708 54.7056 83.6632 72.1673 84.2089C89.6289 84.7547 103.905 81.3473 104.053 76.5982Z" fill="#F8EBB6"/>
<path d="M104.376 66.0602L41.142 64.0837L40.8127 74.621L104.047 76.5975L104.376 66.0602Z" fill="#F8EBB6"/>
<path d="M104.387 66.0594C104.535 61.3103 90.5001 57.0179 73.0384 56.4721C55.5768 55.9264 41.301 59.3338 41.1526 64.0829C41.0041 68.832 55.0392 73.1243 72.5009 73.6701C89.9625 74.2159 104.238 70.8085 104.387 66.0594Z" fill="#E0B876"/>
<path d="M104.446 64.1504C104.594 59.4014 90.5592 55.109 73.0975 54.5632C55.6359 54.0174 41.3601 57.4249 41.2116 62.174C41.0632 66.923 55.0983 71.2154 72.56 71.7612C90.0216 72.307 104.297 68.8995 104.446 64.1504Z" fill="#F8EBB6"/>
<path d="M104.769 53.6061L41.5352 51.6296L41.2058 62.1669L104.44 64.1434L104.769 53.6061Z" fill="#F8EBB6"/>
<path d="M104.775 53.6067C104.923 48.8577 90.8879 44.5653 73.4262 44.0195C55.9646 43.4737 41.6888 46.8812 41.5403 51.6303C41.3919 56.3793 55.427 60.6717 72.8887 61.2175C90.3503 61.7633 104.626 58.3558 104.775 53.6067Z" fill="#D6A661"/>
<path opacity="0.65" d="M54.0964 46.5836C51.9033 47.7978 45.1479 48.4287 46.0287 51.5101C46.9096 54.5916 52.7742 59.7535 52.8125 65.4645C52.8509 71.1755 57.7458 71.8743 59.3144 65.6689C60.883 59.4635 62.0149 82.4084 68.9908 81.1135C75.9668 79.8186 69.5502 67.2709 70.7265 65.2049C71.9027 63.1388 81.826 60.9256 82.6754 69.3704C83.5249 77.8152 82.4726 85.2795 86.15 82.4849C89.8273 79.6903 88.2278 69.2274 90.9468 66.5399C93.6658 63.8524 101.448 59.193 101.427 55.4661C101.406 51.7392 103.229 50.8512 103.229 50.8512C103.229 50.8512 100.96 45.5656 80.2764 44.4602C59.5932 43.3548 58.8964 43.9209 54.0964 46.5836Z" fill="#7F5222"/>
<path d="M74.6067 48.5972L65.3996 48.1243L65.2493 51.0506L74.4564 51.5235L74.6067 48.5972Z" fill="#F6ECC9"/>
<path d="M78.5144 50.2794L74.4908 51.4865L74.6435 48.5586L78.6672 47.3515L78.5144 50.2794Z" fill="#EFE5CA"/>
<path d="M74.6434 48.5586L65.4371 48.0876L69.4608 46.8804L78.667 47.3514L74.6434 48.5586Z" fill="#FEF7DD"/>
</svg>
