<svg width="249" height="19" viewBox="0 0 249 19" fill="none" xmlns="http://www.w3.org/2000/svg">
<path d="M14.976 1.248L9.312 12.168V18H5.952V12.168L0.264 1.248H4.056L7.656 8.904L11.232 1.248H14.976ZM22.8178 18.216C21.5378 18.216 20.3858 17.936 19.3618 17.376C18.3378 16.8 17.5298 15.992 16.9378 14.952C16.3618 13.912 16.0738 12.712 16.0738 11.352C16.0738 9.992 16.3698 8.792 16.9618 7.752C17.5698 6.712 18.3938 5.912 19.4338 5.352C20.4738 4.776 21.6338 4.488 22.9138 4.488C24.1938 4.488 25.3538 4.776 26.3938 5.352C27.4338 5.912 28.2498 6.712 28.8418 7.752C29.4498 8.792 29.7538 9.992 29.7538 11.352C29.7538 12.712 29.4418 13.912 28.8178 14.952C28.2098 15.992 27.3778 16.8 26.3218 17.376C25.2818 17.936 24.1138 18.216 22.8178 18.216ZM22.8178 15.288C23.4258 15.288 23.9938 15.144 24.5218 14.856C25.0658 14.552 25.4978 14.104 25.8178 13.512C26.1378 12.92 26.2978 12.2 26.2978 11.352C26.2978 10.088 25.9618 9.12 25.2898 8.448C24.6338 7.76 23.8258 7.416 22.8658 7.416C21.9058 7.416 21.0978 7.76 20.4418 8.448C19.8018 9.12 19.4818 10.088 19.4818 11.352C19.4818 12.616 19.7938 13.592 20.4178 14.28C21.0578 14.952 21.8578 15.288 22.8178 15.288ZM44.7705 4.704V18H41.3865V16.32C40.9545 16.896 40.3865 17.352 39.6825 17.688C38.9945 18.008 38.2425 18.168 37.4265 18.168C36.3865 18.168 35.4665 17.952 34.6665 17.52C33.8665 17.072 33.2345 16.424 32.7705 15.576C32.3225 14.712 32.0985 13.688 32.0985 12.504V4.704H35.4585V12.024C35.4585 13.08 35.7225 13.896 36.2505 14.472C36.7785 15.032 37.4985 15.312 38.4105 15.312C39.3385 15.312 40.0665 15.032 40.5945 14.472C41.1225 13.896 41.3865 13.08 41.3865 12.024V4.704H44.7705ZM51.4457 6.768C51.8777 6.064 52.4377 5.512 53.1257 5.112C53.8297 4.712 54.6297 4.512 55.5257 4.512V8.04H54.6377C53.5817 8.04 52.7817 8.288 52.2377 8.784C51.7097 9.28 51.4457 10.144 51.4457 11.376V18H48.0857V4.704H51.4457V6.768ZM75.7236 6.432C75.7236 7.328 75.5076 8.168 75.0756 8.952C74.6596 9.736 73.9956 10.368 73.0836 10.848C72.1876 11.328 71.0516 11.568 69.6756 11.568H66.8676V18H63.5076V1.248H69.6756C70.9716 1.248 72.0756 1.472 72.9876 1.92C73.8996 2.368 74.5796 2.984 75.0276 3.768C75.4916 4.552 75.7236 5.44 75.7236 6.432ZM69.5316 8.856C70.4596 8.856 71.1476 8.648 71.5956 8.232C72.0436 7.8 72.2676 7.2 72.2676 6.432C72.2676 4.8 71.3556 3.984 69.5316 3.984H66.8676V8.856H69.5316ZM85.5971 4.512C86.6051 4.512 87.5011 4.736 88.2851 5.184C89.0691 5.616 89.6771 6.264 90.1091 7.128C90.5571 7.976 90.7811 9 90.7811 10.2V18H87.4211V10.656C87.4211 9.6 87.1571 8.792 86.6291 8.232C86.1011 7.656 85.3811 7.368 84.4691 7.368C83.5411 7.368 82.8051 7.656 82.2611 8.232C81.7331 8.792 81.4691 9.6 81.4691 10.656V18H78.1091V0.24H81.4691V6.36C81.9011 5.784 82.4771 5.336 83.1971 5.016C83.9171 4.68 84.7171 4.512 85.5971 4.512ZM99.8803 18.216C98.6003 18.216 97.4483 17.936 96.4243 17.376C95.4003 16.8 94.5923 15.992 94.0003 14.952C93.4243 13.912 93.1363 12.712 93.1363 11.352C93.1363 9.992 93.4323 8.792 94.0243 7.752C94.6323 6.712 95.4563 5.912 96.4963 5.352C97.5363 4.776 98.6963 4.488 99.9763 4.488C101.256 4.488 102.416 4.776 103.456 5.352C104.496 5.912 105.312 6.712 105.904 7.752C106.512 8.792 106.816 9.992 106.816 11.352C106.816 12.712 106.504 13.912 105.88 14.952C105.272 15.992 104.44 16.8 103.384 17.376C102.344 17.936 101.176 18.216 99.8803 18.216ZM99.8803 15.288C100.488 15.288 101.056 15.144 101.584 14.856C102.128 14.552 102.56 14.104 102.88 13.512C103.2 12.92 103.36 12.2 103.36 11.352C103.36 10.088 103.024 9.12 102.352 8.448C101.696 7.76 100.888 7.416 99.9283 7.416C98.9683 7.416 98.1603 7.76 97.5043 8.448C96.8643 9.12 96.5443 10.088 96.5443 11.352C96.5443 12.616 96.8563 13.592 97.4803 14.28C98.1203 14.952 98.9203 15.288 99.8803 15.288ZM116.649 4.512C118.233 4.512 119.513 5.016 120.489 6.024C121.465 7.016 121.953 8.408 121.953 10.2V18H118.593V10.656C118.593 9.6 118.329 8.792 117.801 8.232C117.273 7.656 116.553 7.368 115.641 7.368C114.713 7.368 113.977 7.656 113.433 8.232C112.905 8.792 112.641 9.6 112.641 10.656V18H109.281V4.704H112.641V6.36C113.089 5.784 113.657 5.336 114.345 5.016C115.049 4.68 115.817 4.512 116.649 4.512ZM137.508 11.064C137.508 11.544 137.476 11.976 137.412 12.36H127.692C127.772 13.32 128.108 14.072 128.7 14.616C129.292 15.16 130.02 15.432 130.884 15.432C132.132 15.432 133.02 14.896 133.548 13.824H137.172C136.788 15.104 136.052 16.16 134.964 16.992C133.876 17.808 132.54 18.216 130.956 18.216C129.676 18.216 128.524 17.936 127.5 17.376C126.492 16.8 125.7 15.992 125.124 14.952C124.564 13.912 124.284 12.712 124.284 11.352C124.284 9.976 124.564 8.768 125.124 7.728C125.684 6.688 126.468 5.888 127.476 5.328C128.484 4.768 129.644 4.488 130.956 4.488C132.22 4.488 133.348 4.76 134.34 5.304C135.348 5.848 136.124 6.624 136.668 7.632C137.228 8.624 137.508 9.768 137.508 11.064ZM134.028 10.104C134.012 9.24 133.7 8.552 133.092 8.04C132.484 7.512 131.74 7.248 130.86 7.248C130.028 7.248 129.324 7.504 128.748 8.016C128.188 8.512 127.844 9.208 127.716 10.104H134.028ZM160.007 18H156.647L149.039 6.504V18H145.679V1.224H149.039L156.647 12.744V1.224H160.007V18ZM175.88 4.704V18H172.496V16.32C172.064 16.896 171.496 17.352 170.792 17.688C170.104 18.008 169.352 18.168 168.536 18.168C167.496 18.168 166.576 17.952 165.776 17.52C164.976 17.072 164.344 16.424 163.88 15.576C163.432 14.712 163.208 13.688 163.208 12.504V4.704H166.568V12.024C166.568 13.08 166.832 13.896 167.36 14.472C167.888 15.032 168.608 15.312 169.52 15.312C170.448 15.312 171.176 15.032 171.704 14.472C172.232 13.896 172.496 13.08 172.496 12.024V4.704H175.88ZM195.707 4.512C197.339 4.512 198.651 5.016 199.643 6.024C200.651 7.016 201.155 8.408 201.155 10.2V18H197.795V10.656C197.795 9.616 197.531 8.824 197.003 8.28C196.475 7.72 195.755 7.44 194.843 7.44C193.931 7.44 193.203 7.72 192.659 8.28C192.131 8.824 191.867 9.616 191.867 10.656V18H188.507V10.656C188.507 9.616 188.243 8.824 187.715 8.28C187.187 7.72 186.467 7.44 185.555 7.44C184.627 7.44 183.891 7.72 183.347 8.28C182.819 8.824 182.555 9.616 182.555 10.656V18H179.195V4.704H182.555V6.312C182.987 5.752 183.539 5.312 184.211 4.992C184.899 4.672 185.651 4.512 186.467 4.512C187.507 4.512 188.435 4.736 189.251 5.184C190.067 5.616 190.699 6.24 191.147 7.056C191.579 6.288 192.203 5.672 193.019 5.208C193.851 4.744 194.747 4.512 195.707 4.512ZM207.704 6.648C208.136 6.008 208.728 5.488 209.48 5.088C210.248 4.688 211.12 4.488 212.096 4.488C213.232 4.488 214.256 4.768 215.168 5.328C216.096 5.888 216.824 6.688 217.352 7.728C217.896 8.752 218.168 9.944 218.168 11.304C218.168 12.664 217.896 13.872 217.352 14.928C216.824 15.968 216.096 16.776 215.168 17.352C214.256 17.928 213.232 18.216 212.096 18.216C211.104 18.216 210.232 18.024 209.48 17.64C208.744 17.24 208.152 16.728 207.704 16.104V18H204.344V0.24H207.704V6.648ZM214.736 11.304C214.736 10.504 214.568 9.816 214.232 9.24C213.912 8.648 213.48 8.2 212.936 7.896C212.408 7.592 211.832 7.44 211.208 7.44C210.6 7.44 210.024 7.6 209.48 7.92C208.952 8.224 208.52 8.672 208.184 9.264C207.864 9.856 207.704 10.552 207.704 11.352C207.704 12.152 207.864 12.848 208.184 13.44C208.52 14.032 208.952 14.488 209.48 14.808C210.024 15.112 210.6 15.264 211.208 15.264C211.832 15.264 212.408 15.104 212.936 14.784C213.48 14.464 213.912 14.008 214.232 13.416C214.568 12.824 214.736 12.12 214.736 11.304ZM232.969 11.064C232.969 11.544 232.937 11.976 232.873 12.36H223.153C223.233 13.32 223.569 14.072 224.161 14.616C224.753 15.16 225.481 15.432 226.345 15.432C227.593 15.432 228.481 14.896 229.009 13.824H232.633C232.249 15.104 231.513 16.16 230.425 16.992C229.337 17.808 228.001 18.216 226.417 18.216C225.137 18.216 223.985 17.936 222.961 17.376C221.953 16.8 221.161 15.992 220.585 14.952C220.025 13.912 219.745 12.712 219.745 11.352C219.745 9.976 220.025 8.768 220.585 7.728C221.145 6.688 221.929 5.888 222.937 5.328C223.945 4.768 225.105 4.488 226.417 4.488C227.681 4.488 228.809 4.76 229.801 5.304C230.809 5.848 231.585 6.624 232.129 7.632C232.689 8.624 232.969 9.768 232.969 11.064ZM229.489 10.104C229.473 9.24 229.161 8.552 228.553 8.04C227.945 7.512 227.201 7.248 226.321 7.248C225.489 7.248 224.785 7.504 224.209 8.016C223.649 8.512 223.305 9.208 223.177 10.104H229.489ZM238.782 6.768C239.214 6.064 239.774 5.512 240.462 5.112C241.166 4.712 241.966 4.512 242.862 4.512V8.04H241.974C240.918 8.04 240.118 8.288 239.574 8.784C239.046 9.28 238.782 10.144 238.782 11.376V18H235.422V4.704H238.782V6.768ZM246.613 18.168C246.005 18.168 245.501 17.984 245.101 17.616C244.717 17.232 244.525 16.76 244.525 16.2C244.525 15.64 244.717 15.176 245.101 14.808C245.501 14.424 246.005 14.232 246.613 14.232C247.205 14.232 247.693 14.424 248.077 14.808C248.461 15.176 248.653 15.64 248.653 16.2C248.653 16.76 248.461 17.232 248.077 17.616C247.693 17.984 247.205 18.168 246.613 18.168ZM246.613 8.232C246.005 8.232 245.501 8.048 245.101 7.68C244.717 7.296 244.525 6.824 244.525 6.264C244.525 5.704 244.717 5.24 245.101 4.872C245.501 4.488 246.005 4.296 246.613 4.296C247.205 4.296 247.693 4.488 248.077 4.872C248.461 5.24 248.653 5.704 248.653 6.264C248.653 6.824 248.461 7.296 248.077 7.68C247.693 8.048 247.205 8.232 246.613 8.232Z" fill="black"/>
</svg>
