<svg width="85" height="10" viewBox="0 0 85 10" fill="none" xmlns="http://www.w3.org/2000/svg">
<path d="M6.324 3.024C6.324 3.744 6.088 4.324 5.616 4.764C5.144 5.204 4.436 5.424 3.492 5.424H1.8V9H0.96V0.611999H3.492C4.428 0.611999 5.132 0.831999 5.604 1.272C6.084 1.712 6.324 2.296 6.324 3.024ZM3.492 4.704C4.804 4.704 5.46 4.144 5.46 3.024C5.46 2.464 5.304 2.04 4.992 1.752C4.68 1.464 4.18 1.32 3.492 1.32H1.8V4.704H3.492ZM13.9614 0.611999V9H13.1214V5.076H8.57344V9H7.73344V0.611999H8.57344V4.38H13.1214V0.611999H13.9614ZM19.646 9.084C18.87 9.084 18.166 8.904 17.534 8.544C16.902 8.176 16.402 7.668 16.034 7.02C15.674 6.364 15.494 5.624 15.494 4.8C15.494 3.976 15.674 3.24 16.034 2.592C16.402 1.936 16.902 1.428 17.534 1.068C18.166 0.7 18.87 0.516 19.646 0.516C20.43 0.516 21.138 0.7 21.77 1.068C22.402 1.428 22.898 1.936 23.258 2.592C23.618 3.24 23.798 3.976 23.798 4.8C23.798 5.624 23.618 6.364 23.258 7.02C22.898 7.668 22.402 8.176 21.77 8.544C21.138 8.904 20.43 9.084 19.646 9.084ZM19.646 8.352C20.27 8.352 20.83 8.208 21.326 7.92C21.822 7.632 22.214 7.22 22.502 6.684C22.79 6.14 22.934 5.512 22.934 4.8C22.934 4.088 22.79 3.464 22.502 2.928C22.214 2.392 21.822 1.98 21.326 1.692C20.83 1.404 20.27 1.26 19.646 1.26C19.022 1.26 18.462 1.404 17.966 1.692C17.47 1.98 17.078 2.392 16.79 2.928C16.502 3.464 16.358 4.088 16.358 4.8C16.358 5.512 16.502 6.14 16.79 6.684C17.078 7.22 17.47 7.632 17.966 7.92C18.462 8.208 19.022 8.352 19.646 8.352ZM31.659 9H30.819L26.175 1.944V9H25.335V0.611999H26.175L30.819 7.656V0.611999H31.659V9ZM34.4016 1.296V4.428H37.5816V5.124H34.4016V8.304H37.9416V9H33.5616V0.599999H37.9416V1.296H34.4016ZM45.9207 9H45.0807L40.4367 1.944V9H39.5967V0.611999H40.4367L45.0807 7.656V0.611999H45.9207V9ZM48.6273 0.611999V5.892C48.6273 6.724 48.8233 7.34 49.2153 7.74C49.6153 8.14 50.1593 8.34 50.8473 8.34C51.5353 8.34 52.0713 8.144 52.4553 7.752C52.8473 7.352 53.0433 6.732 53.0433 5.892V0.611999H53.8833V5.88C53.8833 6.944 53.5993 7.744 53.0313 8.28C52.4713 8.816 51.7393 9.084 50.8353 9.084C49.9313 9.084 49.1953 8.816 48.6273 8.28C48.0673 7.744 47.7873 6.944 47.7873 5.88V0.611999H48.6273ZM63.9529 0.719999V9H63.1129V2.388L60.1609 9H59.5489L56.5969 2.412V9H55.7569V0.719999H56.6449L59.8489 7.896L63.0529 0.719999H63.9529ZM69.7824 4.668C70.2544 4.756 70.6544 4.996 70.9824 5.388C71.3104 5.78 71.4744 6.236 71.4744 6.756C71.4744 7.18 71.3664 7.564 71.1504 7.908C70.9424 8.244 70.6344 8.512 70.2264 8.712C69.8184 8.904 69.3304 9 68.7624 9H65.8584V0.611999H68.6784C69.5264 0.611999 70.1704 0.807999 70.6104 1.2C71.0584 1.592 71.2824 2.1 71.2824 2.724C71.2824 3.244 71.1424 3.668 70.8624 3.996C70.5824 4.316 70.2224 4.54 69.7824 4.668ZM66.6984 4.32H68.6544C69.2224 4.32 69.6584 4.188 69.9624 3.924C70.2744 3.652 70.4304 3.28 70.4304 2.808C70.4304 2.344 70.2744 1.98 69.9624 1.716C69.6584 1.452 69.2104 1.32 68.6184 1.32H66.6984V4.32ZM68.7024 8.292C69.3104 8.292 69.7824 8.148 70.1184 7.86C70.4624 7.572 70.6344 7.176 70.6344 6.672C70.6344 6.168 70.4544 5.768 70.0944 5.472C69.7424 5.168 69.2664 5.016 68.6664 5.016H66.6984V8.292H68.7024ZM73.8586 1.296V4.428H77.0386V5.124H73.8586V8.304H77.3986V9H73.0186V0.599999H77.3986V1.296H73.8586ZM83.5178 9L81.4418 5.496H79.8938V9H79.0538V0.611999H81.5738C82.5098 0.611999 83.2178 0.835999 83.6978 1.284C84.1858 1.732 84.4297 2.32 84.4297 3.048C84.4297 3.656 84.2538 4.176 83.9018 4.608C83.5578 5.032 83.0458 5.308 82.3658 5.436L84.5258 9H83.5178ZM79.8938 4.812H81.5858C82.2418 4.812 82.7338 4.652 83.0618 4.332C83.3978 4.012 83.5658 3.584 83.5658 3.048C83.5658 2.496 83.4058 2.072 83.0858 1.776C82.7658 1.472 82.2618 1.32 81.5738 1.32H79.8938V4.812Z" fill="#333333" fill-opacity="0.6"/>
</svg>
