<svg width="147" height="147" viewBox="0 0 147 147" fill="none" xmlns="http://www.w3.org/2000/svg">
<path d="M125.045 61.7772C125.056 62.5556 124.974 63.3326 124.8 64.0914C124.877 63.3068 124.973 62.5437 125.045 61.7772Z" fill="#5E422B"/>
<path d="M123.217 67.8306C117.092 77.645 96.2441 85.3653 71.2642 86.0911C46.2842 86.8168 24.9859 80.4205 18.2679 70.9913C20.6333 67.2046 25.1861 63.7263 31.3479 60.8432C41.1227 56.2578 54.9019 53.1638 70.2602 52.718C82.9934 52.3304 94.7683 53.8122 104.141 56.6069C113.138 59.3006 119.928 63.2051 123.217 67.8306Z" fill="#4C371D"/>
<path d="M125.046 61.6127C125.051 61.6723 125.052 61.7321 125.05 61.7918C124.978 62.5584 124.9 63.3265 124.805 64.106C124.491 65.4325 123.955 66.6966 123.222 67.8453C119.938 63.2183 113.142 59.3154 104.126 56.6281C94.7532 53.8334 82.9783 52.3516 70.2451 52.7391C54.8917 53.1998 41.1076 56.279 31.3327 60.8645C25.171 63.7475 20.633 67.2209 18.2527 71.0125C16.9463 69.2727 16.184 67.1852 16.0618 65.013C16.0506 64.9784 16.0393 64.9438 16.0296 64.9142C15.6496 52.2878 39.7442 41.3401 69.8319 40.4131C99.7042 39.5126 124.265 48.8605 124.992 61.3463C125.036 61.4139 125.039 61.5059 125.046 61.6127Z" fill="#5E422B"/>
<path d="M125.073 62.5493C125.076 62.6094 125.075 62.6698 125.072 62.7299C125.003 63.4899 124.922 64.2646 124.83 65.0376C124.518 66.3661 123.983 67.6321 123.248 68.7819C119.964 64.1548 113.167 60.247 104.146 57.5613C94.7796 54.7699 83.0048 53.2881 70.27 53.6708C54.9132 54.138 41.1291 57.2172 31.3543 61.8026C25.1925 64.6856 20.6545 68.1591 18.2743 71.9507C16.9656 70.2121 16.203 68.1239 16.0834 65.9511C16.0698 65.9192 16.0591 65.8861 16.0512 65.8524C15.6711 53.2259 39.7608 42.2799 69.8534 41.3512C99.7208 40.4523 124.286 49.7987 125.009 62.2861C125.035 62.3725 125.057 62.4603 125.073 62.5493V62.5493Z" fill="#AC5226"/>
<path d="M125.045 61.7441C125.045 61.7441 125.045 61.7441 125.055 61.7737C125.057 61.714 125.056 61.6542 125.051 61.5947C125.024 61.5107 125.046 61.4107 125.037 61.3154C125.062 61.4569 125.065 61.6016 125.045 61.7441V61.7441Z" fill="#5E422B"/>
<path d="M48.1528 65.6563C48.0328 62.6909 69.596 61.7735 71.4718 56.5185C73.3476 51.2635 86.5848 50.1598 88.9483 53.6557C95.52 63.3566 105.892 56.1127 106.576 57.8073C107.259 59.5019 98.4906 71.4291 93.7676 68.3365C89.0445 65.2439 73.4268 75.165 75.4957 69.2625C77.5646 63.36 64.4787 74.16 62.3124 69.6602C60.146 65.1604 48.6112 76.6129 48.1528 65.6563Z" stroke="#E5CA76" stroke-width="2.30622" stroke-miterlimit="10"/>
<path d="M42.0807 71.8479C41.9413 68.0693 63.5017 67.0927 65.3324 60.443C67.1632 53.7932 81.3836 50.2932 83.4318 55.0336C85.4799 59.7741 101.204 61.8584 101.905 64.0064C102.605 66.1544 92.481 79.5888 87.7309 75.6255C82.9807 71.6622 67.4416 84.1197 69.4385 76.6728C71.4355 69.2259 58.4611 82.7975 56.2602 77.069C54.0592 71.3404 42.6067 85.7596 42.0807 71.8479Z" stroke="#E5CA76" stroke-width="2.59959" stroke-miterlimit="10"/>
<path d="M85.1226 71.9636C84.9947 74.9225 67.2532 74.1241 65.2883 79.206C63.3233 84.288 51.424 85.977 50.0911 82.1232C48.7582 78.2694 36.0558 75.4676 35.6353 73.7254C35.2148 71.9833 44.4737 62.1961 48.0693 65.6509C51.6649 69.1056 65.2785 60.4771 63.1074 66.1835C60.9362 71.8899 72.5219 62.1853 73.9137 66.8393C75.3054 71.4933 85.6825 61.0138 85.1226 71.9636Z" stroke="#E5CA76" stroke-width="1.39351" stroke-miterlimit="10"/>
<path d="M110.136 66.0478C110.008 69.0067 88.4251 67.9695 86.0891 73.0358C83.753 78.1022 69.3042 79.6282 67.6378 75.7739C65.9715 71.9196 50.465 68.9284 49.9329 67.179C49.4007 65.4296 60.5329 55.7582 64.9592 59.2644C69.3856 62.7706 85.8346 54.3102 83.2678 59.9926C80.7011 65.675 94.6772 56.1143 96.4268 60.7937C98.1765 65.4731 110.673 55.0945 110.136 66.0478Z" stroke="#E5CA76" stroke-width="2.30622" stroke-miterlimit="10"/>
<path d="M106.301 72.8978C106.173 75.8567 84.5962 74.8228 82.2535 79.8858C79.9109 84.9489 65.4703 86.4831 63.8072 82.6223C62.1442 78.7614 46.6279 75.7735 46.1023 74.0274C45.5767 72.2813 56.7007 62.6016 61.1221 66.1095C65.5435 69.6173 81.9974 61.1552 79.4323 66.8426C76.8671 72.53 90.8417 62.9643 92.5897 67.6387C94.3377 72.3132 106.838 61.9445 106.301 72.8978Z" stroke="#E5CA76" stroke-width="2.30622" stroke-miterlimit="10"/>
<path d="M114.005 73.4069C113.877 76.3657 92.2942 75.3285 89.9581 80.3949C87.6221 85.4613 73.1651 86.9626 71.5068 83.133C69.8485 79.3033 54.3324 76.2826 53.8019 74.5381C53.2713 72.7936 64.4019 63.1172 68.8283 66.6234C73.2546 70.1296 89.7036 61.6692 87.1368 67.3516C84.5701 73.0341 98.5462 63.4734 100.296 68.1527C102.045 72.8321 114.545 62.4635 114.005 73.4069Z" stroke="#E5CA76" stroke-width="2.30622" stroke-miterlimit="10"/>
<path d="M115.206 69.3334C115.078 72.2922 93.4952 71.255 91.1542 76.323C88.8132 81.391 74.3612 82.8907 72.7078 79.0595C71.0544 75.2282 55.5334 72.2091 55.0029 70.4646C54.4723 68.7201 65.6029 59.0437 70.0243 62.5515C74.4457 66.0594 90.9046 57.5957 88.3329 63.2798C85.7612 68.9638 99.7472 59.3999 101.497 64.0793C103.246 68.7586 115.743 58.3801 115.206 69.3334Z" stroke="#E5CA76" stroke-width="2.30622" stroke-miterlimit="10"/>
<path d="M118.452 76.7426C118.326 79.7064 96.7428 78.6692 94.4068 83.7356C92.0707 88.8019 77.6137 90.3033 75.9554 86.4736C74.2971 82.644 58.781 79.6232 58.2505 77.8787C57.72 76.1342 68.8489 66.453 73.2752 69.9592C77.7016 73.4654 94.1506 65.005 91.5805 70.6939C89.0104 76.3829 102.995 66.814 104.743 71.4885C106.491 76.1629 118.984 65.7745 118.452 76.7426Z" stroke="#E5CA76" stroke-width="2.30622" stroke-miterlimit="10"/>
<path d="M92.5533 66.9243C92.4254 69.8832 70.8471 68.8444 68.5061 73.9124C66.1651 78.9804 51.7211 80.5048 50.0597 76.6488C48.3983 72.7929 32.8804 69.8 32.3548 68.0539C31.8292 66.3078 42.9548 56.6331 47.3762 60.1409C51.7976 63.6487 68.2516 55.1867 65.6848 60.8691C63.118 66.5516 77.0991 56.9893 78.8487 61.6686C80.5983 66.348 93.0902 55.9711 92.5533 66.9243Z" stroke="#E5CA76" stroke-width="2.30622" stroke-miterlimit="10"/>
<path d="M104.818 78.3362C104.69 81.295 83.1068 80.2578 80.7707 85.3242C78.4346 90.3906 63.9777 91.8919 62.3194 88.0623C60.6611 84.2326 45.1466 81.2168 44.6145 79.4674C44.0824 77.7179 55.2145 68.0465 59.6359 71.5543C64.0573 75.0622 80.5162 66.5985 77.9445 72.2826C75.3727 77.9666 89.3588 68.4027 91.1084 73.0821C92.858 77.7614 105.355 67.3829 104.818 78.3362Z" stroke="#E5CA76" stroke-width="2.30622" stroke-miterlimit="10"/>
<path d="M111.83 77.5085C111.702 80.4674 90.1203 79.4351 87.7826 84.4966C85.4449 89.558 70.9993 91.0939 69.3314 87.2346C67.6634 83.3754 52.1569 80.3842 51.6264 78.6397C51.0959 76.8952 62.2248 67.2139 66.6512 70.7202C71.0775 74.2264 87.5265 65.766 84.9613 71.4533C82.3962 77.1407 96.3708 67.575 98.1188 72.2495C99.8668 76.9239 112.367 66.5553 111.83 77.5085Z" stroke="#E5CA76" stroke-width="2.30622" stroke-miterlimit="10"/>
<path d="M118.753 72.553C118.625 75.5118 97.0432 74.4796 94.7055 79.541C92.3679 84.6025 77.9222 86.1383 76.2543 82.2791C74.5863 78.4198 59.0798 75.4286 58.5493 73.6841C58.0188 71.9396 69.1477 62.2584 73.5741 65.7646C78.0004 69.2708 94.4494 60.8104 91.8842 66.4978C89.3191 72.1851 103.294 62.6195 105.042 67.2939C106.79 71.9683 119.29 61.5997 118.753 72.553Z" stroke="#E5CA76" stroke-width="1.53205" stroke-miterlimit="10"/>
<path d="M86.5495 73.5251C86.4216 76.484 64.8384 75.4468 62.4974 80.5148C60.1564 85.5828 45.714 87.1121 44.051 83.2512C42.388 79.3904 26.8782 76.4057 26.3461 74.6563C25.8139 72.9069 36.9461 63.2355 41.3675 66.7433C45.7889 70.2511 62.2478 61.7875 59.6761 67.4715C57.1044 73.1556 71.0904 63.5916 72.84 68.271C74.5897 72.9504 87.0864 62.5718 86.5495 73.5251Z" stroke="#E5CA76" stroke-width="1.53205" stroke-miterlimit="10"/>
<path d="M98.6621 65.5881C98.5359 68.5519 76.9526 67.5147 74.6149 72.5761C72.2772 77.6376 57.8316 79.1734 56.1636 75.3142C54.4957 71.4549 38.9892 68.4638 38.4587 66.7193C37.9282 64.9748 49.0571 55.2935 53.4834 58.7997C57.9098 62.306 74.3588 53.8455 71.7887 59.5345C69.2185 65.2235 83.203 55.6546 84.951 60.3291C86.699 65.0035 99.199 54.6348 98.6621 65.5881Z" stroke="#E5CA76" stroke-width="2.30622" stroke-miterlimit="10"/>
<path d="M85.6653 59.3366C86.0161 62.9425 64.5348 65.1334 63.0714 71.6196C61.6079 78.1059 47.5916 82.2824 45.2916 77.8753C42.9917 73.4683 27.1853 72.3722 26.3675 70.3498C25.5498 68.3275 34.9348 54.8555 39.8899 58.375C44.845 61.8946 59.6855 49.0366 58.097 56.3121C56.5084 63.5875 68.7222 49.7941 71.2294 55.1552C73.7367 60.5162 84.37 46.0308 85.6653 59.3366Z" stroke="#E5CA76" stroke-width="1.69503" stroke-miterlimit="10"/>
<path d="M100.462 72.5508C100.278 76.1235 76.6042 75.0085 74 81.1292C71.3959 87.2499 55.5236 89.1854 53.7147 84.5253C51.9058 79.8653 34.8899 76.3829 34.3207 74.2851C33.7514 72.1872 46.0387 60.4457 50.8464 64.6525C55.6541 68.8592 73.8104 58.5475 70.9532 65.4171C68.0961 72.2868 83.5148 60.6661 85.4027 66.2892C87.2907 71.9122 101.122 59.3448 100.462 72.5508Z" stroke="#E5CA76" stroke-width="2.64848" stroke-miterlimit="10"/>
<path d="M81.9338 71.0638C81.8076 74.0276 60.2292 72.9888 57.8882 78.0568C55.5472 83.1248 41.1033 84.6491 39.4419 80.7932C37.7805 76.9373 22.2625 73.9444 21.7369 72.1983C21.2113 70.4522 32.3353 60.7725 36.7567 64.2804C41.1781 67.7882 57.6321 59.3262 55.0669 65.0135C52.5017 70.7009 66.4813 61.1336 68.2293 65.8081C69.9773 70.4825 82.4707 60.1105 81.9338 71.0638Z" stroke="#E5CA76" stroke-width="2.30622" stroke-miterlimit="10"/>
<path d="M76.0409 60.8524L75.2057 59.4941L74.2368 60.0899L75.072 61.4482L76.0409 60.8524Z" fill="#43B549"/>
<path d="M75.0583 61.4407C75.1951 61.3566 75.1196 60.9853 74.8898 60.6115C74.6599 60.2376 74.3626 60.0028 74.2258 60.0869C74.0889 60.171 74.1644 60.5423 74.3942 60.9162C74.6241 61.29 74.9214 61.5249 75.0583 61.4407Z" fill="#43B549"/>
<path d="M76.028 60.8438C76.1648 60.7597 76.0894 60.3884 75.8595 60.0145C75.6296 59.6407 75.3323 59.4059 75.1955 59.49C75.0587 59.5741 75.1341 59.9454 75.364 60.3192C75.5939 60.6931 75.8911 60.928 76.028 60.8438Z" fill="#389B47"/>
<path d="M71.8163 61.428L70.875 59.8972L69.7866 60.5665L70.7279 62.0972L71.8163 61.428Z" fill="#43B549"/>
<path d="M70.7091 62.0959C70.8655 61.9998 70.7816 61.5791 70.5216 61.1564C70.2617 60.7337 69.9242 60.469 69.7678 60.5651C69.6114 60.6613 69.6954 61.0819 69.9553 61.5046C70.2152 61.9274 70.5528 62.1921 70.7091 62.0959Z" fill="#43B549"/>
<path d="M71.8013 61.4253C71.9577 61.3291 71.8737 60.9085 71.6137 60.4858C71.3538 60.0631 71.0164 59.7983 70.86 59.8945C70.7036 59.9906 70.7875 60.4113 71.0475 60.834C71.3074 61.2567 71.6449 61.5215 71.8013 61.4253Z" fill="#389B47"/>
<path d="M71.4892 64.5192L70.654 63.1609L69.6851 63.7567L70.5203 65.115L71.4892 64.5192Z" fill="#43B549"/>
<path d="M70.5084 65.104C70.6452 65.0199 70.5697 64.6486 70.3399 64.2748C70.11 63.9009 69.8127 63.6661 69.6759 63.7502C69.5391 63.8344 69.6145 64.2056 69.8443 64.5795C70.0742 64.9533 70.3715 65.1882 70.5084 65.104Z" fill="#43B549"/>
<path d="M71.4735 64.5098C71.6103 64.4257 71.5349 64.0544 71.305 63.6806C71.0751 63.3067 70.7778 63.0718 70.641 63.156C70.5042 63.2401 70.5796 63.6114 70.8095 63.9852C71.0393 64.3591 71.3367 64.5939 71.4735 64.5098Z" fill="#389B47"/>
<path d="M76.3827 67.2135L75.5475 65.8552L74.5786 66.451L75.4137 67.8092L76.3827 67.2135Z" fill="#43B549"/>
<path d="M75.4062 67.7901C75.543 67.7059 75.4676 67.3347 75.2377 66.9608C75.0078 66.587 74.7106 66.3521 74.5737 66.4363C74.4369 66.5204 74.5123 66.8917 74.7422 67.2655C74.9721 67.6394 75.2694 67.8742 75.4062 67.7901Z" fill="#43B549"/>
<path d="M76.3732 67.201C76.51 67.1168 76.4346 66.7456 76.2047 66.3717C75.9748 65.9979 75.6775 65.763 75.5407 65.8471C75.4039 65.9313 75.4793 66.3026 75.7092 66.6764C75.939 67.0503 76.2363 67.2851 76.3732 67.201Z" fill="#389B47"/>
<path d="M74.2832 60.9735L72.7599 60.5024L72.4239 61.5891L73.9472 62.0602L74.2832 60.9735Z" fill="#43B549"/>
<path d="M74.0378 62.0493C74.0852 61.8959 73.7838 61.6663 73.3645 61.5367C72.9452 61.407 72.5669 61.4264 72.5194 61.5798C72.472 61.7333 72.7734 61.9628 73.1927 62.0924C73.612 62.2221 73.9903 62.2028 74.0378 62.0493Z" fill="#43B549"/>
<path d="M74.3688 60.9624C74.4162 60.8089 74.1148 60.5794 73.6956 60.4498C73.2763 60.3201 72.8979 60.3394 72.8504 60.4929C72.803 60.6464 73.1044 60.8759 73.5237 61.0055C73.943 61.1352 74.3213 61.1159 74.3688 60.9624Z" fill="#389B47"/>
<path d="M76.1985 62.3197L74.8939 61.4031L74.24 62.3338L75.5446 63.2504L76.1985 62.3197Z" fill="#43B549"/>
<path d="M75.5677 63.2516C75.66 63.1202 75.4438 62.8091 75.0847 62.5568C74.7256 62.3045 74.3596 62.2065 74.2673 62.338C74.1749 62.4694 74.3912 62.7805 74.7503 63.0328C75.1094 63.2851 75.4753 63.3831 75.5677 63.2516Z" fill="#43B549"/>
<path d="M76.2139 62.3244C76.3063 62.193 76.0901 61.8819 75.731 61.6296C75.3719 61.3773 75.0059 61.2793 74.9135 61.4107C74.8212 61.5422 75.0374 61.8532 75.3965 62.1055C75.7556 62.3578 76.1216 62.4558 76.2139 62.3244Z" fill="#389B47"/>
<path d="M75.0819 62.9255L73.4878 62.8887L73.4616 64.0258L75.0557 64.0626L75.0819 62.9255Z" fill="#43B549"/>
<path d="M75.0119 64.0772C75.0156 63.9166 74.6629 63.7782 74.2242 63.7681C73.7854 63.758 73.4268 63.88 73.423 64.0406C73.4193 64.2011 73.772 64.3395 74.2108 64.3496C74.6495 64.3598 75.0082 64.2378 75.0119 64.0772Z" fill="#43B549"/>
<path d="M75.0398 62.9466C75.0435 62.786 74.6908 62.6476 74.252 62.6375C73.8133 62.6273 73.4546 62.7494 73.4509 62.9099C73.4472 63.0705 73.7998 63.2089 74.2386 63.219C74.6773 63.2291 75.036 63.1072 75.0398 62.9466Z" fill="#389B47"/>
<path d="M77.3831 64.1769L76.5479 62.8186L75.579 63.4144L76.4142 64.7727L77.3831 64.1769Z" fill="#43B549"/>
<path d="M76.4053 64.7581C76.5421 64.674 76.4667 64.3027 76.2368 63.9289C76.0069 63.555 75.7096 63.3201 75.5728 63.4043C75.436 63.4884 75.5114 63.8597 75.7413 64.2336C75.9712 64.6074 76.2685 64.8422 76.4053 64.7581Z" fill="#43B549"/>
<path d="M77.3708 64.1639C77.5077 64.0797 77.4322 63.7085 77.2023 63.3346C76.9724 62.9608 76.6752 62.7259 76.5383 62.81C76.4015 62.8942 76.4769 63.2655 76.7068 63.6393C76.9367 64.0132 77.234 64.248 77.3708 64.1639Z" fill="#389B47"/>
<path d="M77.8057 66.1723L77.9339 64.583L76.8002 64.4915L76.672 66.0808L77.8057 66.1723Z" fill="#43B549"/>
<path d="M77.1565 65.3697C77.1918 64.9322 77.0906 64.5672 76.9305 64.5543C76.7703 64.5413 76.6119 64.8854 76.5767 65.3229C76.5414 65.7604 76.6426 66.1255 76.8027 66.1384C76.9628 66.1513 77.1212 65.8071 77.1565 65.3697Z" fill="#43B549"/>
<path d="M78.2856 65.4654C78.3209 65.0279 78.2197 64.6629 78.0596 64.65C77.8995 64.637 77.7411 64.9812 77.7058 65.4186C77.6705 65.8561 77.7717 66.2212 77.9318 66.2341C78.0919 66.247 78.2503 65.9028 78.2856 65.4654Z" fill="#389B47"/>
<path d="M79.1285 63.9349L79.1653 62.3408L78.0281 62.3146L77.9914 63.9086L79.1285 63.9349Z" fill="#43B549"/>
<path d="M78.2413 63.094C78.2514 62.6552 78.1295 62.2965 77.9689 62.2928C77.8083 62.2891 77.6699 62.6418 77.6598 63.0805C77.6496 63.5193 77.7716 63.878 77.9322 63.8817C78.0928 63.8854 78.2312 63.5327 78.2413 63.094Z" fill="#43B549"/>
<path d="M79.3772 63.1219C79.3873 62.6831 79.2654 62.3244 79.1048 62.3207C78.9442 62.317 78.8058 62.6697 78.7957 63.1084C78.7855 63.5472 78.9075 63.9058 79.0681 63.9095C79.2287 63.9132 79.3671 63.5606 79.3772 63.1219Z" fill="#389B47"/>
<path d="M78.8499 62.0023L78.0148 60.644L77.0458 61.2398L77.881 62.5981L78.8499 62.0023Z" fill="#43B549"/>
<path d="M77.8678 62.5852C78.0047 62.5011 77.9292 62.1298 77.6993 61.756C77.4694 61.3821 77.1722 61.1473 77.0354 61.2314C76.8985 61.3156 76.9739 61.6868 77.2038 62.0607C77.4337 62.4345 77.731 62.6694 77.8678 62.5852Z" fill="#43B549"/>
<path d="M78.8344 61.9956C78.9713 61.9115 78.8958 61.5403 78.6659 61.1664C78.436 60.7926 78.1388 60.5577 78.0019 60.6418C77.8651 60.726 77.9405 61.0973 78.1704 61.4711C78.4003 61.845 78.6976 62.0798 78.8344 61.9956Z" fill="#389B47"/>
<path d="M69.2665 61.277L68.0171 59.9854L67.0987 60.8737L68.3481 62.1653L69.2665 61.277Z" fill="#43B549"/>
<path d="M68.3215 62.1604C68.4535 62.0327 68.2808 61.6401 67.9358 61.2834C67.5908 60.9268 67.2041 60.7411 67.0721 60.8687C66.9402 60.9964 67.1129 61.389 67.4579 61.7457C67.8029 62.1023 68.1896 62.288 68.3215 62.1604Z" fill="#43B549"/>
<path d="M69.2442 61.2676C69.3761 61.1399 69.2034 60.7473 68.8584 60.3906C68.5134 60.0339 68.1267 59.8483 67.9948 59.9759C67.8628 60.1036 68.0355 60.4962 68.3805 60.8528C68.7256 61.2095 69.1122 61.3952 69.2442 61.2676Z" fill="#389B47"/>
<path d="M66.4973 64.2499L65.6621 62.8916L64.6932 63.4874L65.5284 64.8457L66.4973 64.2499Z" fill="#43B549"/>
<path d="M65.5179 64.8328C65.6548 64.7487 65.5794 64.3774 65.3495 64.0036C65.1196 63.6297 64.8223 63.3949 64.6854 63.479C64.5486 63.5632 64.6241 63.9344 64.854 64.3083C65.0838 64.6821 65.3811 64.917 65.5179 64.8328Z" fill="#43B549"/>
<path d="M66.4834 64.2384C66.6203 64.1542 66.5449 63.7829 66.315 63.4091C66.0851 63.0352 65.7878 62.8004 65.6509 62.8845C65.5141 62.9687 65.5896 63.3399 65.8195 63.7138C66.0493 64.0876 66.3466 64.3225 66.4834 64.2384Z" fill="#389B47"/>
<path d="M66.9111 66.4215L66.0759 65.0632L65.107 65.659L65.9421 67.0173L66.9111 66.4215Z" fill="#43B549"/>
<path d="M65.9274 67.0054C66.0642 66.9213 65.9888 66.55 65.7589 66.1762C65.529 65.8023 65.2318 65.5674 65.0949 65.6516C64.9581 65.7357 65.0335 66.107 65.2634 66.4809C65.4933 66.8547 65.7906 67.0896 65.9274 67.0054Z" fill="#43B549"/>
<path d="M66.8972 66.4082C67.034 66.3241 66.9585 65.9528 66.7286 65.579C66.4988 65.2051 66.2015 64.9703 66.0647 65.0544C65.9278 65.1386 66.0032 65.5098 66.2331 65.8837C66.463 66.2575 66.7603 66.4924 66.8972 66.4082Z" fill="#389B47"/>
<path d="M70.4231 67.9493L69.5879 66.5911L68.619 67.1869L69.4542 68.5451L70.4231 67.9493Z" fill="#43B549"/>
<path d="M69.4483 68.5342C69.5851 68.4501 69.5097 68.0788 69.2798 67.705C69.0499 67.3311 68.7526 67.0963 68.6158 67.1804C68.479 67.2645 68.5544 67.6358 68.7843 68.0097C69.0141 68.3835 69.3114 68.6184 69.4483 68.5342Z" fill="#43B549"/>
<path d="M70.4091 67.9417C70.5459 67.8576 70.4705 67.4863 70.2406 67.1125C70.0107 66.7386 69.7134 66.5037 69.5766 66.5879C69.4398 66.672 69.5152 67.0433 69.7451 67.4172C69.9749 67.791 70.2722 68.0258 70.4091 67.9417Z" fill="#389B47"/>
<path d="M69.4335 62.7084L67.7167 62.1775L67.3392 63.3981L69.0561 63.929L69.4335 62.7084Z" fill="#43B549"/>
<path d="M69.153 63.9169C69.2072 63.7415 68.8669 63.4805 68.3928 63.3339C67.9187 63.1873 67.4904 63.2107 67.4362 63.386C67.3819 63.5614 67.7223 63.8224 68.1964 63.969C68.6705 64.1156 69.0988 64.0923 69.153 63.9169Z" fill="#43B549"/>
<path d="M69.5243 62.6947C69.5785 62.5193 69.2381 62.2584 68.764 62.1118C68.2899 61.9652 67.8617 61.9885 67.8074 62.1639C67.7532 62.3393 68.0936 62.6003 68.5677 62.7469C69.0418 62.8935 69.47 62.8701 69.5243 62.6947Z" fill="#389B47"/>
<path d="M67.3465 62.1935L65.8761 61.1604L65.1416 62.2058L66.612 63.2389L67.3465 62.1935Z" fill="#43B549"/>
<path d="M66.6394 63.2455C66.745 63.0953 66.5014 62.7423 66.0953 62.457C65.6893 62.1717 65.2746 62.0622 65.169 62.2124C65.0635 62.3626 65.3071 62.7157 65.7131 63.0009C66.1192 63.2862 66.5339 63.3957 66.6394 63.2455Z" fill="#43B549"/>
<path d="M67.3738 62.2001C67.4794 62.0499 67.2358 61.6968 66.8297 61.4115C66.4237 61.1263 66.009 61.0168 65.9034 61.167C65.7979 61.3172 66.0415 61.6702 66.4475 61.9555C66.8536 62.2408 67.2683 62.3503 67.3738 62.2001Z" fill="#389B47"/>
<path d="M69.161 64.7775L67.567 64.7407L67.5407 65.8779L69.1348 65.9147L69.161 64.7775Z" fill="#43B549"/>
<path d="M69.0942 65.9282C69.0979 65.7677 68.7452 65.6293 68.3065 65.6192C67.8677 65.609 67.5091 65.731 67.5054 65.8916C67.5016 66.0522 67.8543 66.1906 68.2931 66.2007C68.7318 66.2108 69.0905 66.0888 69.0942 65.9282Z" fill="#43B549"/>
<path d="M69.1222 64.7925C69.1259 64.6319 68.7732 64.4935 68.3345 64.4834C67.8957 64.4733 67.537 64.5952 67.5333 64.7558C67.5296 64.9164 67.8823 65.0548 68.321 65.065C68.7598 65.0751 69.1185 64.9531 69.1222 64.7925Z" fill="#389B47"/>
<path d="M72.9269 66.3242L71.9856 64.7935L70.8972 65.4627L71.8385 66.9935L72.9269 66.3242Z" fill="#43B549"/>
<path d="M71.8301 66.9839C71.9864 66.8877 71.9025 66.4671 71.6426 66.0444C71.3826 65.6216 71.0451 65.3569 70.8888 65.4531C70.7324 65.5492 70.8163 65.9699 71.0762 66.3926C71.3362 66.8153 71.6737 67.08 71.8301 66.9839Z" fill="#43B549"/>
<path d="M72.9154 66.3115C73.0718 66.2154 72.9878 65.7948 72.7278 65.372C72.4679 64.9493 72.1304 64.6846 71.9741 64.7807C71.8177 64.8769 71.9016 65.2975 72.1616 65.7203C72.4215 66.143 72.759 66.4077 72.9154 66.3115Z" fill="#389B47"/>
<path d="M73.2301 68.0773L73.3583 66.488L72.2245 66.3966L72.0963 67.9859L73.2301 68.0773Z" fill="#43B549"/>
<path d="M72.5781 67.2742C72.6133 66.8368 72.5122 66.4717 72.3521 66.4587C72.1919 66.4458 72.0335 66.79 71.9982 67.2274C71.963 67.6649 72.0641 68.03 72.2243 68.0429C72.3844 68.0558 72.5428 67.7117 72.5781 67.2742Z" fill="#43B549"/>
<path d="M73.7129 67.365C73.7482 66.9276 73.647 66.5625 73.4869 66.5496C73.3268 66.5367 73.1684 66.8808 73.1331 67.3183C73.0978 67.7557 73.199 68.1208 73.3591 68.1337C73.5192 68.1467 73.6776 67.8025 73.7129 67.365Z" fill="#389B47"/>
<path d="M76.7191 63.052L76.7592 61.2622L75.4867 61.2336L75.4465 63.0235L76.7191 63.052Z" fill="#43B549"/>
<path d="M73.9094 65.1088C73.9209 64.6127 73.7814 64.207 73.5978 64.2028C73.4143 64.1985 73.2562 64.5973 73.2448 65.0934C73.2333 65.5895 73.3728 65.9951 73.5564 65.9994C73.7399 66.0036 73.898 65.6049 73.9094 65.1088Z" fill="#43B549"/>
<path d="M75.1842 65.1412C75.1957 64.6451 75.0562 64.2395 74.8727 64.2353C74.6892 64.2311 74.5311 64.6298 74.5196 65.1259C74.5082 65.622 74.6477 66.0276 74.8312 66.0318C75.0148 66.0361 75.1728 65.6373 75.1842 65.1412Z" fill="#389B47"/>
<path d="M72.7603 63.4193L71.9251 62.061L70.9561 62.6568L71.7913 64.0151L72.7603 63.4193Z" fill="#43B549"/>
<path d="M71.7756 64.0066C71.9124 63.9225 71.837 63.5512 71.6071 63.1774C71.3772 62.8035 71.0799 62.5687 70.9431 62.6528C70.8063 62.737 70.8817 63.1082 71.1116 63.4821C71.3414 63.8559 71.6388 64.0908 71.7756 64.0066Z" fill="#43B549"/>
<path d="M72.7457 63.4097C72.8826 63.3256 72.8071 62.9543 72.5772 62.5805C72.3473 62.2066 72.0501 61.9717 71.9133 62.0559C71.7764 62.14 71.8518 62.5113 72.0817 62.8852C72.3116 63.259 72.6089 63.4939 72.7457 63.4097Z" fill="#389B47"/>
<path d="M61.9769 59.7177C61.1523 64.2258 57.9927 65.1412 54.4247 64.4853C50.8566 63.8295 48.2237 61.8527 49.0499 57.3496C49.8762 52.8465 53.8172 48.2457 57.3885 48.895C60.9599 49.5442 62.7867 55.2145 61.9769 59.7177Z" fill="#FCEFCE"/>
<path d="M56.7298 63.6631C58.8706 62.9651 60.0403 60.6638 59.3423 58.523C58.6443 56.3821 56.343 55.2125 54.2022 55.9105C52.0614 56.6085 50.8917 58.9098 51.5896 61.0506C52.2876 63.1914 54.589 64.3611 56.7298 63.6631Z" fill="#F6C048"/>
<path d="M47.1708 59.1425C48.5907 63.4978 46.2186 65.8062 42.7606 66.9118C39.3025 68.0174 36.052 67.5148 34.6568 63.1515C33.2615 58.7881 34.5816 52.8676 38.0446 51.7603C41.5076 50.6531 45.7819 54.7989 47.1708 59.1425Z" fill="#FCEFCE"/>
<path d="M42.7456 66.1626C44.8864 65.4646 46.0561 63.1633 45.3581 61.0225C44.6601 58.8817 42.3588 57.712 40.2179 58.41C38.0771 59.108 36.9075 61.4093 37.6055 63.5501C38.3035 65.6909 40.6048 66.8606 42.7456 66.1626Z" fill="#F6C048"/>
<path d="M102.768 63.7359C99.8721 63.2702 96.9048 63.5852 94.1715 64.6483C86.0748 67.7962 81.4476 75.3522 83.8393 81.5485C84.237 82.6996 84.9208 83.7307 85.8265 84.5449C86.7322 85.3591 87.83 85.9296 89.0168 86.2028C86.155 85.803 83.9344 84.32 82.7796 81.3477C80.3763 75.1661 84.9954 67.6018 93.1118 64.4475C96.1871 63.2514 99.5502 63.0035 102.768 63.7359V63.7359Z" fill="#896929"/>
<path d="M100.22 84.1234C96.0228 85.7596 92.1378 86.6111 89.0412 86.1949C87.8544 85.9216 86.7565 85.3511 85.8508 84.5369C84.9451 83.7228 84.2613 82.6917 83.8636 81.5406C81.4604 75.359 86.0844 67.793 94.1959 64.6404C96.9291 63.5772 99.8964 63.2623 102.792 63.7279C107.336 64.7482 111.123 67.6162 112.562 71.3262C114.941 77.5158 108.317 80.9756 100.22 84.1234Z" fill="#E0B762"/>
<path d="M87.6728 75.0433C88.9254 69.3851 94.7668 65.5194 100.705 66.4241C105.467 67.1387 108.518 71.3881 107.519 75.9147C106.717 79.5359 102.954 82.0192 99.1705 81.4391C96.1202 80.9805 94.1639 78.2642 94.8087 75.3662C95.0994 74.2176 95.8078 73.2186 96.7955 72.5642C97.7832 71.9099 98.9793 71.6472 100.15 71.8274C100.599 71.8784 101.031 72.0227 101.421 72.2511C101.81 72.4795 102.147 72.787 102.41 73.1536C102.673 73.5202 102.856 73.9378 102.948 74.3796C103.04 74.8214 103.038 75.2776 102.943 75.7187C102.756 76.4534 102.303 77.0922 101.67 77.5105C101.038 77.9287 100.273 78.0964 99.5234 77.9808C99.2373 77.9468 98.9615 77.8537 98.7133 77.7074C98.4652 77.5611 98.2502 77.3647 98.082 77.1308C97.9137 76.897 97.796 76.6307 97.7362 76.3489C97.6765 76.0671 97.676 75.7759 97.7348 75.4938C97.8529 75.0229 98.1427 74.6131 98.5474 74.3447C98.952 74.0764 99.4424 73.9688 99.9222 74.0432C100.106 74.0638 100.283 74.1227 100.443 74.2161C100.603 74.3094 100.741 74.4351 100.849 74.5851C100.957 74.7351 101.032 74.9061 101.07 75.087C101.109 75.268 101.108 75.4549 101.07 75.6357" stroke="#E5CA76" stroke-width="0.554144" stroke-miterlimit="10" stroke-linecap="round"/>
<path d="M84.8583 67.9034C81.9628 67.4377 78.9955 67.7527 76.2622 68.8158C68.1606 71.9653 63.5383 79.5197 65.93 85.716C66.328 86.8668 67.0125 87.8973 67.9189 88.7104C68.8253 89.5235 69.9238 90.0925 71.1109 90.3638C68.2507 89.9688 66.03 88.4858 64.8703 85.5152C62.467 79.3336 67.0861 71.7693 75.2025 68.615C78.2778 67.4189 81.6409 67.171 84.8583 67.9034V67.9034Z" fill="#896929"/>
<path d="M82.3064 88.2923C78.7002 89.6975 75.3261 90.5245 72.4817 90.463C72.0299 90.4511 71.5789 90.4158 71.1307 90.3573V90.3573C69.9433 90.0844 68.8448 89.5144 67.9383 88.7005C67.0318 87.8866 66.347 86.8557 65.9482 85.7046C63.5498 79.5213 68.1705 71.962 76.282 68.8093C79.0144 67.7453 81.981 67.4286 84.8765 67.8919C86.071 68.1571 87.2308 68.5599 88.3325 69.0923C91.2812 70.5127 93.592 72.7748 94.6417 75.4918C97.0286 81.6733 90.408 85.1429 82.3064 88.2923Z" fill="#E0B762"/>
<path opacity="0.58" d="M86.2387 89.5615C82.0413 91.1977 78.1563 92.0492 75.0597 91.633C74.1389 91.4153 73.2687 91.022 72.4969 90.4746C75.3412 90.536 78.7153 89.7091 82.3216 88.3039C90.4232 85.1544 97.0453 81.6898 94.6371 75.5098C93.5874 72.7928 91.2766 70.5307 88.3279 69.1103L88.7956 69.1709C93.3417 70.1961 97.1284 73.0641 98.5674 76.7741C100.956 82.9441 94.3322 86.4038 86.2387 89.5615Z" fill="#C0964B"/>
<path d="M69.7637 79.2108C71.0098 73.5492 76.8528 69.6885 82.7959 70.5916C87.5625 71.3046 90.6142 75.554 89.6104 80.0822C88.813 83.7018 85.0748 86.1771 81.2615 85.6067C80.5613 85.5268 79.8855 85.3012 79.2777 84.9444C78.6699 84.5876 78.1436 84.1075 77.7325 83.535C77.3215 82.9624 77.0349 82.3102 76.8912 81.6202C76.7475 80.9302 76.7498 80.2178 76.8981 79.5288C77.1909 78.3814 77.9001 77.384 78.8878 76.7308C79.8755 76.0776 81.0709 75.8153 82.2413 75.9949C82.6893 76.0454 83.1218 76.1893 83.5108 76.4172C83.8998 76.6452 84.2366 76.9522 84.4997 77.3184C84.7627 77.6846 84.9459 78.1019 85.0377 78.5434C85.1295 78.9848 85.1278 79.4405 85.0325 79.8812C84.8469 80.6166 84.3933 81.2561 83.7608 81.6746C83.1282 82.093 82.3622 82.2602 81.6128 82.1434C81.327 82.1088 81.0515 82.0152 80.8038 81.8685C80.5561 81.7218 80.3416 81.5252 80.1739 81.2912C80.0062 81.0573 79.8889 80.791 79.8295 80.5093C79.7702 80.2276 79.77 79.9366 79.8291 79.6548C79.9493 79.1851 80.2401 78.7769 80.6447 78.5096C81.0493 78.2424 81.5389 78.1353 82.0181 78.2091C82.2016 78.2303 82.3786 78.2897 82.5378 78.3834C82.6969 78.4771 82.8347 78.6031 82.9423 78.7532C83.0499 78.9033 83.1249 79.0743 83.1625 79.2551C83.2001 79.4359 83.1995 79.6226 83.1606 79.8032" stroke="#E5CA76" stroke-width="0.554144" stroke-miterlimit="10" stroke-linecap="round"/>
<path d="M124.8 64.0913C123.072 78.7815 118.871 94.1962 101.876 102.573C85.1013 110.839 61.0042 112.932 39.8689 101.724C21.4311 91.937 16.2165 70.6985 16.0435 65.0408L16.0323 65.0062C16.1544 67.1785 16.9167 69.266 18.2232 71.0058C24.9264 80.4398 46.2114 86.8623 71.2195 86.1055C96.2276 85.3487 117.082 77.6482 123.172 67.845C123.923 66.6948 124.474 65.4255 124.8 64.0913V64.0913Z" fill="#5E422B"/>
<path d="M32.2478 75.0811L32.2064 76.3783C32.2064 76.3783 33.7071 75.9546 36.9054 75.3926C40.1036 74.8306 44.7521 75.2816 44.7521 75.2816C44.7521 75.2816 45.7467 74.646 45.5214 73.9383C45.2961 73.2305 34.9057 73.7666 32.2478 75.0811Z" fill="#D2A432"/>
<path d="M32.2297 75.5787L31.8688 77.0184C31.8688 77.0184 33.3711 76.5996 36.5678 76.0326C39.7645 75.4657 44.4146 75.9217 44.4146 75.9217L45.4302 74.5799C45.4302 74.5799 34.8893 74.2691 32.2297 75.5787Z" fill="#E2B73C"/>
<path d="M34.757 78.136L34.6319 79.4279C34.6319 79.4279 36.1664 79.1078 39.3846 78.7578C42.6028 78.4078 47.2179 79.1921 47.2179 79.1921C47.2179 79.1921 48.2514 78.6256 48.0756 77.8854C47.8998 77.1451 37.499 77.0126 34.757 78.136Z" fill="#D2A432"/>
<path d="M34.7058 78.6336L34.2432 80.0464C34.2432 80.0464 35.7777 79.7263 38.9959 79.3763C42.2141 79.0263 46.8342 79.809 46.8342 79.809L47.938 78.5368C47.938 78.5368 37.4479 77.5102 34.7058 78.6336Z" fill="#E2B73C"/>
<path d="M39.1441 75.3401L38.8072 76.619C38.8072 76.619 40.3514 76.5635 43.6088 76.7524C46.8662 76.9414 51.2759 78.4864 51.2759 78.4864C51.2759 78.4864 52.3968 78.121 52.3395 77.3421C52.2823 76.5632 42.0358 74.6923 39.1441 75.3401Z" fill="#D2A432"/>
<path d="M39.013 75.8252L38.3474 77.1348C38.3474 77.1348 39.8917 77.0793 43.1442 77.2699C46.3966 77.4605 50.8113 79.0039 50.8113 79.0039L52.1027 77.9382C52.1027 77.9382 41.8899 75.1823 39.013 75.8252Z" fill="#E2B73C"/>
<path d="M38.3751 78.6609L38.0301 79.9151C38.0301 79.9151 39.5744 79.8596 42.8269 80.0501C46.0793 80.2407 50.4923 81.7792 50.4923 81.7792C50.4923 81.7792 51.6132 81.4137 51.5526 80.6414C51.492 79.869 41.2635 78.0032 38.3751 78.6609Z" fill="#D2A432"/>
<path d="M38.2621 79.135L37.5965 80.4446C37.5965 80.4446 39.1408 80.3891 42.3932 80.5797C45.6457 80.7703 50.0587 82.3087 50.0587 82.3087L51.3517 81.248C51.3517 81.248 41.1341 78.4937 38.2621 79.135Z" fill="#E2B73C"/>
<path d="M36.1622 71.7891L35.8172 73.0432C35.8172 73.0432 37.3615 72.9877 40.6139 73.1783C43.8664 73.3689 48.281 74.9123 48.281 74.9123C48.281 74.9123 49.4019 74.5468 49.3397 73.7696C49.2774 72.9923 39.0539 71.1413 36.1622 71.7891Z" fill="#D2A432"/>
<path d="M36.0256 72.2759L35.36 73.5855C35.36 73.5855 36.9042 73.53 40.1567 73.7205C43.4091 73.9111 47.8237 75.4545 47.8237 75.4545L49.1152 74.3889C49.1152 74.3889 38.9222 71.6265 36.0256 72.2759Z" fill="#E2B73C"/>
<path d="M30.8236 75.8569L30.4786 77.1111C30.4786 77.1111 32.0229 77.0556 35.2754 77.2462C38.5278 77.4367 42.9424 78.9801 42.9424 78.9801C42.9424 78.9801 44.0634 78.6147 44.0011 77.8374C43.9389 77.0601 33.7054 75.2123 30.8236 75.8569Z" fill="#D2A432"/>
<path d="M30.6907 76.3372L30.0251 77.6468C30.0251 77.6468 31.5693 77.5912 34.8218 77.7818C38.0742 77.9724 42.4888 79.5158 42.4888 79.5158L43.7802 78.4501C43.7802 78.4501 33.5774 75.691 30.6907 76.3372Z" fill="#E2B73C"/>
</svg>
