<svg width="87" height="11" viewBox="0 0 87 11" fill="none" xmlns="http://www.w3.org/2000/svg">
<path d="M4.172 10.8122C3.528 10.8122 2.94933 10.7002 2.436 10.4762C1.932 10.2429 1.53533 9.92557 1.246 9.52423C0.956667 9.11357 0.807333 8.64223 0.798 8.11023H2.156C2.20267 8.56757 2.38933 8.9549 2.716 9.27223C3.052 9.58023 3.53733 9.73423 4.172 9.73423C4.77867 9.73423 5.25467 9.5849 5.6 9.28623C5.95467 8.97823 6.132 8.58623 6.132 8.11023C6.132 7.7369 6.02933 7.43357 5.824 7.20023C5.61867 6.9669 5.362 6.78957 5.054 6.66823C4.746 6.5469 4.33067 6.41623 3.808 6.27623C3.164 6.10823 2.646 5.94023 2.254 5.77223C1.87133 5.60423 1.54 5.3429 1.26 4.98823C0.989333 4.62423 0.854 4.1389 0.854 3.53223C0.854 3.00023 0.989333 2.5289 1.26 2.11823C1.53067 1.70757 1.90867 1.39023 2.394 1.16623C2.88867 0.942233 3.45333 0.830233 4.088 0.830233C5.00267 0.830233 5.74933 1.0589 6.328 1.51623C6.916 1.97357 7.24733 2.58023 7.322 3.33623H5.922C5.87533 2.9629 5.67933 2.63623 5.334 2.35623C4.98867 2.0669 4.53133 1.92223 3.962 1.92223C3.43 1.92223 2.996 2.06223 2.66 2.34223C2.324 2.6129 2.156 2.99557 2.156 3.49023C2.156 3.8449 2.254 4.13423 2.45 4.35823C2.65533 4.58223 2.90267 4.7549 3.192 4.87623C3.49067 4.98823 3.906 5.1189 4.438 5.26823C5.082 5.44557 5.6 5.6229 5.992 5.80023C6.384 5.96823 6.72 6.23423 7 6.59823C7.28 6.9529 7.42 7.43823 7.42 8.05423C7.42 8.53023 7.294 8.97823 7.042 9.39823C6.79 9.81823 6.41667 10.1589 5.922 10.4202C5.42733 10.6816 4.844 10.8122 4.172 10.8122ZM18.5208 2.90223C19.1181 2.90223 19.6501 3.02823 20.1168 3.28023C20.5835 3.5229 20.9521 3.89157 21.2228 4.38623C21.4935 4.8809 21.6288 5.4829 21.6288 6.19223V10.7142H20.3688V6.37423C20.3688 5.6089 20.1775 5.02557 19.7948 4.62423C19.4215 4.21357 18.9128 4.00823 18.2688 4.00823C17.6061 4.00823 17.0788 4.2229 16.6868 4.65223C16.2948 5.07223 16.0988 5.68357 16.0988 6.48623V10.7142H14.8388V6.37423C14.8388 5.6089 14.6475 5.02557 14.2648 4.62423C13.8915 4.21357 13.3828 4.00823 12.7388 4.00823C12.0761 4.00823 11.5488 4.2229 11.1568 4.65223C10.7648 5.07223 10.5688 5.68357 10.5688 6.48623V10.7142H9.2948V3.04223H10.5688V4.14823C10.8208 3.7469 11.1568 3.4389 11.5768 3.22423C12.0061 3.00957 12.4775 2.90223 12.9908 2.90223C13.6348 2.90223 14.2041 3.0469 14.6988 3.33623C15.1935 3.62557 15.5621 4.05023 15.8048 4.61023C16.0195 4.0689 16.3741 3.6489 16.8688 3.35023C17.3635 3.05157 17.9141 2.90223 18.5208 2.90223ZM23.2426 6.85023C23.2426 6.06623 23.4013 5.38023 23.7186 4.79223C24.036 4.1949 24.47 3.7329 25.0206 3.40623C25.5806 3.07957 26.2013 2.91623 26.8826 2.91623C27.5546 2.91623 28.138 3.0609 28.6326 3.35023C29.1273 3.63957 29.496 4.00357 29.7386 4.44223V3.04223H31.0266V10.7142H29.7386V9.28623C29.4866 9.73423 29.1086 10.1076 28.6046 10.4062C28.11 10.6956 27.5313 10.8402 26.8686 10.8402C26.1873 10.8402 25.5713 10.6722 25.0206 10.3362C24.47 10.0002 24.036 9.5289 23.7186 8.92223C23.4013 8.31557 23.2426 7.6249 23.2426 6.85023ZM29.7386 6.86423C29.7386 6.28557 29.622 5.78157 29.3886 5.35223C29.1553 4.9229 28.838 4.59623 28.4366 4.37223C28.0446 4.1389 27.6106 4.02223 27.1346 4.02223C26.6586 4.02223 26.2246 4.13423 25.8326 4.35823C25.4406 4.58223 25.128 4.9089 24.8946 5.33823C24.6613 5.76757 24.5446 6.27157 24.5446 6.85023C24.5446 7.43823 24.6613 7.95157 24.8946 8.39023C25.128 8.81957 25.4406 9.1509 25.8326 9.38423C26.2246 9.60823 26.6586 9.72023 27.1346 9.72023C27.6106 9.72023 28.0446 9.60823 28.4366 9.38423C28.838 9.1509 29.1553 8.81957 29.3886 8.39023C29.622 7.95157 29.7386 7.4429 29.7386 6.86423ZM34.4536 4.28823C34.6776 3.84957 34.9949 3.5089 35.4056 3.26623C35.8256 3.02357 36.3342 2.90223 36.9316 2.90223V4.21823H36.5956C35.1676 4.21823 34.4536 4.9929 34.4536 6.54223V10.7142H33.1796V3.04223H34.4536V4.28823ZM39.9562 4.09223V8.61423C39.9562 8.98757 40.0356 9.25357 40.1942 9.41223C40.3529 9.56157 40.6282 9.63623 41.0202 9.63623H41.9582V10.7142H40.8102C40.1009 10.7142 39.5689 10.5509 39.2142 10.2242C38.8596 9.89757 38.6822 9.3609 38.6822 8.61423V4.09223H37.6882V3.04223H38.6822V1.11023H39.9562V3.04223H41.9582V4.09223H39.9562ZM56.4603 2.90223C57.0576 2.90223 57.5896 3.02823 58.0563 3.28023C58.5229 3.5229 58.8916 3.89157 59.1623 4.38623C59.4329 4.8809 59.5683 5.4829 59.5683 6.19223V10.7142H58.3083V6.37423C58.3083 5.6089 58.1169 5.02557 57.7343 4.62423C57.3609 4.21357 56.8523 4.00823 56.2083 4.00823C55.5456 4.00823 55.0183 4.2229 54.6263 4.65223C54.2343 5.07223 54.0383 5.68357 54.0383 6.48623V10.7142H52.7783V6.37423C52.7783 5.6089 52.5869 5.02557 52.2043 4.62423C51.8309 4.21357 51.3223 4.00823 50.6783 4.00823C50.0156 4.00823 49.4883 4.2229 49.0963 4.65223C48.7043 5.07223 48.5083 5.68357 48.5083 6.48623V10.7142H47.2343V3.04223H48.5083V4.14823C48.7603 3.7469 49.0963 3.4389 49.5163 3.22423C49.9456 3.00957 50.4169 2.90223 50.9303 2.90223C51.5743 2.90223 52.1436 3.0469 52.6383 3.33623C53.1329 3.62557 53.5016 4.05023 53.7443 4.61023C53.9589 4.0689 54.3136 3.6489 54.8083 3.35023C55.3029 3.05157 55.8536 2.90223 56.4603 2.90223ZM68.6581 6.58423C68.6581 6.8269 68.6441 7.08357 68.6161 7.35423H62.4841C62.5307 8.11023 62.7874 8.7029 63.2541 9.13223C63.7301 9.55223 64.3041 9.76223 64.9761 9.76223C65.5267 9.76223 65.9841 9.63623 66.3481 9.38423C66.7214 9.1229 66.9827 8.77757 67.1321 8.34823H68.5041C68.2987 9.08557 67.8881 9.68757 67.2721 10.1542C66.6561 10.6116 65.8907 10.8402 64.9761 10.8402C64.2481 10.8402 63.5947 10.6769 63.0161 10.3502C62.4467 10.0236 61.9987 9.56157 61.6721 8.96423C61.3454 8.35757 61.1821 7.65757 61.1821 6.86423C61.1821 6.0709 61.3407 5.37557 61.6581 4.77823C61.9754 4.1809 62.4187 3.72357 62.9881 3.40623C63.5667 3.07957 64.2294 2.91623 64.9761 2.91623C65.7041 2.91623 66.3481 3.0749 66.9081 3.39223C67.4681 3.70957 67.8974 4.14823 68.1961 4.70823C68.5041 5.2589 68.6581 5.88423 68.6581 6.58423ZM67.3421 6.31823C67.3421 5.8329 67.2347 5.41757 67.0201 5.07223C66.8054 4.71757 66.5114 4.45157 66.1381 4.27423C65.7741 4.08757 65.3681 3.99423 64.9201 3.99423C64.2761 3.99423 63.7254 4.19957 63.2681 4.61023C62.8201 5.0209 62.5634 5.59023 62.4981 6.31823H67.3421ZM74.0777 2.90223C75.0111 2.90223 75.7671 3.1869 76.3457 3.75623C76.9244 4.31623 77.2137 5.12823 77.2137 6.19223V10.7142H75.9537V6.37423C75.9537 5.6089 75.7624 5.02557 75.3797 4.62423C74.9971 4.21357 74.4744 4.00823 73.8117 4.00823C73.1397 4.00823 72.6031 4.21823 72.2017 4.63823C71.8097 5.05823 71.6137 5.66957 71.6137 6.47223V10.7142H70.3397V3.04223H71.6137V4.13423C71.8657 3.74223 72.2064 3.4389 72.6357 3.22423C73.0744 3.00957 73.5551 2.90223 74.0777 2.90223ZM86.0988 3.04223V10.7142H84.8248V9.58023C84.5821 9.97223 84.2415 10.2802 83.8028 10.5042C83.3735 10.7189 82.8975 10.8262 82.3748 10.8262C81.7775 10.8262 81.2408 10.7049 80.7648 10.4622C80.2888 10.2102 79.9108 9.8369 79.6308 9.34223C79.3601 8.84757 79.2248 8.24557 79.2248 7.53623V3.04223H80.4848V7.36823C80.4848 8.12423 80.6761 8.70757 81.0588 9.11823C81.4415 9.51957 81.9641 9.72023 82.6268 9.72023C83.3081 9.72023 83.8448 9.51023 84.2368 9.09023C84.6288 8.67023 84.8248 8.0589 84.8248 7.25623V3.04223H86.0988Z" fill="#333333"/>
</svg>
