<svg width="147" height="147" viewBox="0 0 147 147" fill="none" xmlns="http://www.w3.org/2000/svg">
<path d="M66.3505 75.9148C66.3111 72.2488 59.6896 69.3476 51.5609 69.435C43.4321 69.5223 36.8745 72.5651 36.9139 76.2311C36.9533 79.8972 43.5748 82.7983 51.7035 82.711C59.8322 82.6236 66.3899 79.5809 66.3505 75.9148Z" fill="#364323"/>
<path d="M66.0592 52.3339L36.6284 52.6501L36.8815 76.2018L66.3123 75.8856L66.0592 52.3339Z" fill="#364323"/>
<path d="M66.0988 52.3616C66.0594 48.6955 59.4379 45.7944 51.3092 45.8817C43.1805 45.9691 36.6228 49.0118 36.6622 52.6779C36.7016 56.344 43.3231 59.2451 51.4518 59.1578C59.5805 59.0704 66.1382 56.0277 66.0988 52.3616Z" fill="#FEF5F0" stroke="#243A1C" stroke-width="0.228177" stroke-miterlimit="10"/>
<path d="M58.5978 52.4421C58.5785 50.6443 55.3316 49.2216 51.3456 49.2644C47.3596 49.3072 44.144 50.7994 44.1633 52.5972C44.1826 54.3951 47.4296 55.8178 51.4155 55.775C55.4015 55.7322 58.6171 54.24 58.5978 52.4421Z" fill="#E3994C"/>
<path d="M51.7834 89.7569C51.744 86.0908 45.1224 83.1897 36.9937 83.277C28.865 83.3643 22.3073 86.4071 22.3467 90.0732C22.3861 93.7392 29.0076 96.6404 37.1363 96.553C45.265 96.4657 51.8228 93.4229 51.7834 89.7569Z" fill="#364323"/>
<path d="M51.4943 66.1698L22.0635 66.4861L22.3165 90.0377L51.7474 89.7215L51.4943 66.1698Z" fill="#364323"/>
<path d="M51.5291 66.198C51.4897 62.532 44.8681 59.6308 36.7394 59.7182C28.6107 59.8055 22.053 62.8483 22.0924 66.5143C22.1318 70.1804 28.7534 73.0815 36.8821 72.9942C45.0108 72.9069 51.5685 69.8641 51.5291 66.198Z" fill="#FEF5F0" stroke="#243A1C" stroke-width="0.228177" stroke-miterlimit="10"/>
<path d="M44.0281 66.2788C44.0088 64.481 40.7618 63.0582 36.7758 63.1011C32.7899 63.1439 29.5742 64.6361 29.5936 66.4339C29.6129 68.2318 32.8598 69.6545 36.8458 69.6117C40.8318 69.5688 44.0474 68.0767 44.0281 66.2788Z" fill="#E3994C"/>
<path d="M95.8123 78.4756C95.7729 74.8095 89.1514 71.9084 81.0227 71.9958C72.894 72.0831 66.3363 75.1258 66.3757 78.7919C66.4151 82.458 73.0366 85.3591 81.1653 85.2718C89.294 85.1844 95.8517 82.1417 95.8123 78.4756Z" fill="#364323"/>
<path d="M95.5207 54.894L66.0898 55.2102L66.3429 78.7619L95.7738 78.4456L95.5207 54.894Z" fill="#364323"/>
<path d="M95.5666 54.9222C95.5272 51.2561 88.9057 48.3549 80.777 48.4423C72.6483 48.5296 66.0906 51.5724 66.13 55.2384C66.1693 58.9045 72.7909 61.8057 80.9196 61.7183C89.0483 61.631 95.606 58.5882 95.5666 54.9222Z" fill="#FEF5F0" stroke="#243A1C" stroke-width="0.228177" stroke-miterlimit="10"/>
<path d="M88.0656 55.0029C88.0463 53.2051 84.7994 51.7824 80.8134 51.8252C76.8274 51.868 73.6118 53.3602 73.6311 55.158C73.6504 56.9559 76.8974 58.3786 80.8833 58.3358C84.8693 58.293 88.0849 56.8008 88.0656 55.0029Z" fill="#E3994C"/>
<path d="M81.2452 92.3174C81.2058 88.6513 74.5842 85.7502 66.4555 85.8375C58.3268 85.9249 51.7691 88.9676 51.8085 92.6337C51.8479 96.2998 58.4695 99.2009 66.5982 99.1136C74.7269 99.0262 81.2846 95.9835 81.2452 92.3174Z" fill="#364323"/>
<path d="M80.9505 68.7328L51.5196 69.0491L51.7727 92.6007L81.2035 92.2845L80.9505 68.7328Z" fill="#364323"/>
<path d="M80.9909 68.7588C80.9515 65.0927 74.33 62.1916 66.2013 62.279C58.0726 62.3663 51.5149 65.409 51.5542 69.0751C51.5936 72.7412 58.2152 75.6423 66.3439 75.555C74.4726 75.4676 81.0303 72.4249 80.9909 68.7588Z" fill="#FEF5F0" stroke="#243A1C" stroke-width="0.228177" stroke-miterlimit="10"/>
<path d="M73.4899 68.8396C73.4706 67.0418 70.2236 65.619 66.2377 65.6619C62.2517 65.7047 59.0361 67.1969 59.0554 68.9947C59.0747 70.7926 62.3217 72.2153 66.3076 72.1725C70.2936 72.1296 73.5092 70.6375 73.4899 68.8396Z" fill="#E3994C"/>
<path d="M125.266 79.9124C125.227 76.2463 118.605 73.3452 110.477 73.4325C102.348 73.5199 95.7904 76.5626 95.8298 80.2287C95.8691 83.8948 102.491 86.7959 110.619 86.7085C118.748 86.6212 125.306 83.5785 125.266 79.9124Z" fill="#364323"/>
<path d="M124.971 56.3344L95.5406 56.6506L95.7936 80.2023L125.224 79.886L124.971 56.3344Z" fill="#364323"/>
<path d="M125.009 56.3618C124.97 52.6958 118.348 49.7946 110.22 49.882C102.091 49.9693 95.5334 53.0121 95.5728 56.6781C95.6121 60.3442 102.234 63.2454 110.362 63.158C118.491 63.0707 125.049 60.0279 125.009 56.3618Z" fill="#FEF5F0" stroke="#243A1C" stroke-width="0.228177" stroke-miterlimit="10"/>
<path d="M117.508 56.4426C117.489 54.6448 114.242 53.2221 110.256 53.2649C106.27 53.3077 103.055 54.7999 103.074 56.5977C103.093 58.3956 106.34 59.8183 110.326 59.7755C114.312 59.7326 117.528 58.2405 117.508 56.4426Z" fill="#E3994C"/>
<path d="M110.691 93.3484C110.652 89.6823 104.03 86.7812 95.9017 86.8685C87.773 86.9559 81.2153 89.9986 81.2547 93.6647C81.294 97.3308 87.9156 100.232 96.0443 100.145C104.173 100.057 110.731 97.0145 110.691 93.3484Z" fill="#364323"/>
<path d="M110.403 69.7687L80.9719 70.085L81.225 93.6366L110.656 93.3203L110.403 69.7687Z" fill="#364323"/>
<path d="M110.443 69.7901C110.404 66.124 103.782 63.2229 95.6533 63.3102C87.5246 63.3975 80.9669 66.4403 81.0063 70.1064C81.0457 73.7724 87.6673 76.6736 95.796 76.5862C103.925 76.4989 110.482 73.4561 110.443 69.7901Z" fill="#FEF5F0" stroke="#243A1C" stroke-width="0.228177" stroke-miterlimit="10"/>
<path d="M102.942 69.8706C102.923 68.0728 99.6757 66.65 95.6897 66.6929C91.7038 66.7357 88.4882 68.2279 88.5075 70.0257C88.5268 71.8236 91.7737 73.2463 95.7597 73.2035C99.7457 73.1606 102.961 71.6685 102.942 69.8706Z" fill="#E3994C"/>
</svg>
