<svg width="60" height="10" viewBox="0 0 60 10" fill="none" xmlns="http://www.w3.org/2000/svg">
<path d="M1.764 0.611999V5.892C1.764 6.724 1.96 7.34 2.352 7.74C2.752 8.14 3.296 8.34 3.984 8.34C4.672 8.34 5.208 8.144 5.592 7.752C5.984 7.352 6.18 6.732 6.18 5.892V0.611999H7.02V5.88C7.02 6.944 6.736 7.744 6.168 8.28C5.608 8.816 4.876 9.084 3.972 9.084C3.068 9.084 2.332 8.816 1.764 8.28C1.204 7.744 0.924 6.944 0.924 5.88V0.611999H1.764ZM11.4376 9.084C10.8856 9.084 10.3976 8.988 9.97359 8.796C9.55759 8.604 9.22959 8.336 8.98959 7.992C8.74959 7.648 8.62159 7.264 8.60559 6.84H9.49359C9.53359 7.248 9.71359 7.608 10.0336 7.92C10.3536 8.224 10.8216 8.376 11.4376 8.376C12.0056 8.376 12.4536 8.232 12.7816 7.944C13.1176 7.648 13.2856 7.276 13.2856 6.828C13.2856 6.468 13.1936 6.18 13.0096 5.964C12.8256 5.74 12.5976 5.576 12.3256 5.472C12.0536 5.36 11.6776 5.24 11.1976 5.112C10.6376 4.96 10.1936 4.812 9.86559 4.668C9.53759 4.524 9.25759 4.3 9.02559 3.996C8.79359 3.692 8.67759 3.28 8.67759 2.76C8.67759 2.328 8.78959 1.944 9.01359 1.608C9.23759 1.264 9.55359 0.996 9.96159 0.804C10.3696 0.612 10.8376 0.516 11.3656 0.516C12.1416 0.516 12.7656 0.708 13.2376 1.092C13.7176 1.468 13.9936 1.956 14.0656 2.556H13.1536C13.0976 2.212 12.9096 1.908 12.5896 1.644C12.2696 1.372 11.8376 1.236 11.2936 1.236C10.7896 1.236 10.3696 1.372 10.0336 1.644C9.69759 1.908 9.52959 2.272 9.52959 2.736C9.52959 3.088 9.62159 3.372 9.80559 3.588C9.98959 3.804 10.2176 3.968 10.4896 4.08C10.7696 4.192 11.1456 4.312 11.6176 4.44C12.1616 4.592 12.6016 4.744 12.9376 4.896C13.2736 5.04 13.5576 5.264 13.7896 5.568C14.0216 5.872 14.1376 6.28 14.1376 6.792C14.1376 7.184 14.0336 7.556 13.8256 7.908C13.6176 8.26 13.3096 8.544 12.9016 8.76C12.4936 8.976 12.0056 9.084 11.4376 9.084ZM16.6008 1.296V4.428H19.7808V5.124H16.6008V8.304H20.1408V9H15.7608V0.599999H20.1408V1.296H16.6008ZM26.2599 9L24.1839 5.496H22.6359V9H21.7959V0.611999H24.3159C25.2519 0.611999 25.9599 0.835999 26.4399 1.284C26.9279 1.732 27.1719 2.32 27.1719 3.048C27.1719 3.656 26.9959 4.176 26.6439 4.608C26.2999 5.032 25.7879 5.308 25.1079 5.436L27.2679 9H26.2599ZM22.6359 4.812H24.3279C24.9839 4.812 25.4759 4.652 25.8039 4.332C26.1399 4.012 26.3079 3.584 26.3079 3.048C26.3079 2.496 26.1479 2.072 25.8279 1.776C25.5079 1.472 25.0039 1.32 24.3159 1.32H22.6359V4.812ZM35.1629 9H34.3229L29.6789 1.944V9H28.8389V0.611999H29.6789L34.3229 7.656V0.611999H35.1629V9ZM41.9255 7.008H38.1095L37.3775 9H36.4895L39.5495 0.719999H40.4975L43.5455 9H42.6575L41.9255 7.008ZM41.6735 6.312L40.0175 1.776L38.3615 6.312H41.6735ZM53.0896 0.719999V9H52.2496V2.388L49.2976 9H48.6856L45.7336 2.412V9H44.8936V0.719999H45.7816L48.9856 7.896L52.1896 0.719999H53.0896ZM55.8352 1.296V4.428H59.0152V5.124H55.8352V8.304H59.3752V9H54.9952V0.599999H59.3752V1.296H55.8352Z" fill="#333333" fill-opacity="0.6"/>
</svg>
