<svg width="201" height="18" viewBox="0 0 201 18" fill="none" xmlns="http://www.w3.org/2000/svg">
<path d="M14.976 0.248L9.312 11.168V17H5.952V11.168L0.264 0.248H4.056L7.656 7.904L11.232 0.248H14.976ZM22.8178 17.216C21.5378 17.216 20.3858 16.936 19.3618 16.376C18.3378 15.8 17.5298 14.992 16.9378 13.952C16.3618 12.912 16.0738 11.712 16.0738 10.352C16.0738 8.992 16.3698 7.792 16.9618 6.752C17.5698 5.712 18.3938 4.912 19.4338 4.352C20.4738 3.776 21.6338 3.488 22.9138 3.488C24.1938 3.488 25.3538 3.776 26.3938 4.352C27.4338 4.912 28.2498 5.712 28.8418 6.752C29.4498 7.792 29.7538 8.992 29.7538 10.352C29.7538 11.712 29.4418 12.912 28.8178 13.952C28.2098 14.992 27.3778 15.8 26.3218 16.376C25.2818 16.936 24.1138 17.216 22.8178 17.216ZM22.8178 14.288C23.4258 14.288 23.9938 14.144 24.5218 13.856C25.0658 13.552 25.4978 13.104 25.8178 12.512C26.1378 11.92 26.2978 11.2 26.2978 10.352C26.2978 9.088 25.9618 8.12 25.2898 7.448C24.6338 6.76 23.8258 6.416 22.8658 6.416C21.9058 6.416 21.0978 6.76 20.4418 7.448C19.8018 8.12 19.4818 9.088 19.4818 10.352C19.4818 11.616 19.7938 12.592 20.4178 13.28C21.0578 13.952 21.8578 14.288 22.8178 14.288ZM44.7705 3.704V17H41.3865V15.32C40.9545 15.896 40.3865 16.352 39.6825 16.688C38.9945 17.008 38.2425 17.168 37.4265 17.168C36.3865 17.168 35.4665 16.952 34.6665 16.52C33.8665 16.072 33.2345 15.424 32.7705 14.576C32.3225 13.712 32.0985 12.688 32.0985 11.504V3.704H35.4585V11.024C35.4585 12.08 35.7225 12.896 36.2505 13.472C36.7785 14.032 37.4985 14.312 38.4105 14.312C39.3385 14.312 40.0665 14.032 40.5945 13.472C41.1225 12.896 41.3865 12.08 41.3865 11.024V3.704H44.7705ZM51.4457 5.768C51.8777 5.064 52.4377 4.512 53.1257 4.112C53.8297 3.712 54.6297 3.512 55.5257 3.512V7.04H54.6377C53.5817 7.04 52.7817 7.288 52.2377 7.784C51.7097 8.28 51.4457 9.144 51.4457 10.376V17H48.0857V3.704H51.4457V5.768ZM66.8196 0.248V10.616C66.8196 11.752 67.1156 12.624 67.7076 13.232C68.2996 13.824 69.1316 14.12 70.2036 14.12C71.2916 14.12 72.1316 13.824 72.7236 13.232C73.3156 12.624 73.6116 11.752 73.6116 10.616V0.248H76.9956V10.592C76.9956 12.016 76.6836 13.224 76.0596 14.216C75.4516 15.192 74.6276 15.928 73.5876 16.424C72.5636 16.92 71.4196 17.168 70.1556 17.168C68.9076 17.168 67.7716 16.92 66.7476 16.424C65.7396 15.928 64.9396 15.192 64.3476 14.216C63.7556 13.224 63.4596 12.016 63.4596 10.592V0.248H66.8196ZM85.3299 17.216C84.2419 17.216 83.2659 17.024 82.4019 16.64C81.5379 16.24 80.8499 15.704 80.3379 15.032C79.8419 14.36 79.5699 13.616 79.5219 12.8H82.9059C82.9699 13.312 83.2179 13.736 83.6499 14.072C84.0979 14.408 84.6499 14.576 85.3059 14.576C85.9459 14.576 86.4419 14.448 86.7939 14.192C87.1619 13.936 87.3459 13.608 87.3459 13.208C87.3459 12.776 87.1219 12.456 86.6739 12.248C86.2419 12.024 85.5459 11.784 84.5859 11.528C83.5939 11.288 82.7779 11.04 82.1379 10.784C81.5139 10.528 80.9699 10.136 80.5059 9.608C80.0579 9.08 79.8339 8.368 79.8339 7.472C79.8339 6.736 80.0419 6.064 80.4579 5.456C80.8899 4.848 81.4979 4.368 82.2819 4.016C83.0819 3.664 84.0179 3.488 85.0899 3.488C86.6739 3.488 87.9379 3.888 88.8819 4.688C89.8259 5.472 90.3459 6.536 90.4419 7.88H87.2259C87.1779 7.352 86.9539 6.936 86.5539 6.632C86.1699 6.312 85.6499 6.152 84.9939 6.152C84.3859 6.152 83.9139 6.264 83.5779 6.488C83.2579 6.712 83.0979 7.024 83.0979 7.424C83.0979 7.872 83.3219 8.216 83.7699 8.456C84.2179 8.68 84.9139 8.912 85.8579 9.152C86.8179 9.392 87.6099 9.64 88.2339 9.896C88.8579 10.152 89.3939 10.552 89.8419 11.096C90.3059 11.624 90.5459 12.328 90.5619 13.208C90.5619 13.976 90.3459 14.664 89.9139 15.272C89.4979 15.88 88.8899 16.36 88.0899 16.712C87.3059 17.048 86.3859 17.216 85.3299 17.216ZM105.68 10.064C105.68 10.544 105.648 10.976 105.584 11.36H95.8641C95.9441 12.32 96.2801 13.072 96.8721 13.616C97.4641 14.16 98.1921 14.432 99.0561 14.432C100.304 14.432 101.192 13.896 101.72 12.824H105.344C104.96 14.104 104.224 15.16 103.136 15.992C102.048 16.808 100.712 17.216 99.1281 17.216C97.8481 17.216 96.6961 16.936 95.6721 16.376C94.6641 15.8 93.8721 14.992 93.2961 13.952C92.7361 12.912 92.4561 11.712 92.4561 10.352C92.4561 8.976 92.7361 7.768 93.2961 6.728C93.8561 5.688 94.6401 4.888 95.6481 4.328C96.6561 3.768 97.8161 3.488 99.1281 3.488C100.392 3.488 101.52 3.76 102.512 4.304C103.52 4.848 104.296 5.624 104.84 6.632C105.4 7.624 105.68 8.768 105.68 10.064ZM102.2 9.104C102.184 8.24 101.872 7.552 101.264 7.04C100.656 6.512 99.9121 6.248 99.0321 6.248C98.2001 6.248 97.4961 6.504 96.9201 7.016C96.3601 7.512 96.0161 8.208 95.8881 9.104H102.2ZM111.493 5.768C111.925 5.064 112.485 4.512 113.173 4.112C113.877 3.712 114.677 3.512 115.573 3.512V7.04H114.685C113.629 7.04 112.829 7.288 112.285 7.784C111.757 8.28 111.493 9.144 111.493 10.376V17H108.133V3.704H111.493V5.768ZM137.882 17H134.522L126.914 5.504V17H123.554V0.223999H126.914L134.522 11.744V0.223999H137.882V17ZM140.339 10.304C140.339 8.96 140.603 7.768 141.131 6.728C141.675 5.688 142.403 4.888 143.315 4.328C144.243 3.768 145.275 3.488 146.411 3.488C147.403 3.488 148.267 3.688 149.003 4.088C149.755 4.488 150.355 4.992 150.803 5.6V3.704H154.187V17H150.803V15.056C150.371 15.68 149.771 16.2 149.003 16.616C148.251 17.016 147.379 17.216 146.387 17.216C145.267 17.216 144.243 16.928 143.315 16.352C142.403 15.776 141.675 14.968 141.131 13.928C140.603 12.872 140.339 11.664 140.339 10.304ZM150.803 10.352C150.803 9.536 150.643 8.84 150.323 8.264C150.003 7.672 149.571 7.224 149.027 6.92C148.483 6.6 147.899 6.44 147.275 6.44C146.651 6.44 146.075 6.592 145.547 6.896C145.019 7.2 144.587 7.648 144.251 8.24C143.931 8.816 143.771 9.504 143.771 10.304C143.771 11.104 143.931 11.808 144.251 12.416C144.587 13.008 145.019 13.464 145.547 13.784C146.091 14.104 146.667 14.264 147.275 14.264C147.899 14.264 148.483 14.112 149.027 13.808C149.571 13.488 150.003 13.04 150.323 12.464C150.643 11.872 150.803 11.168 150.803 10.352ZM173.981 3.512C175.613 3.512 176.925 4.016 177.917 5.024C178.925 6.016 179.429 7.408 179.429 9.2V17H176.069V9.656C176.069 8.616 175.805 7.824 175.277 7.28C174.749 6.72 174.029 6.44 173.117 6.44C172.205 6.44 171.477 6.72 170.933 7.28C170.405 7.824 170.141 8.616 170.141 9.656V17H166.781V9.656C166.781 8.616 166.517 7.824 165.989 7.28C165.461 6.72 164.741 6.44 163.829 6.44C162.901 6.44 162.165 6.72 161.621 7.28C161.093 7.824 160.829 8.616 160.829 9.656V17H157.469V3.704H160.829V5.312C161.261 4.752 161.813 4.312 162.485 3.992C163.173 3.672 163.925 3.512 164.741 3.512C165.781 3.512 166.709 3.736 167.525 4.184C168.341 4.616 168.973 5.24 169.421 6.056C169.853 5.288 170.477 4.672 171.293 4.208C172.125 3.744 173.021 3.512 173.981 3.512ZM194.977 10.064C194.977 10.544 194.945 10.976 194.881 11.36H185.161C185.241 12.32 185.577 13.072 186.169 13.616C186.761 14.16 187.489 14.432 188.353 14.432C189.601 14.432 190.489 13.896 191.017 12.824H194.641C194.257 14.104 193.521 15.16 192.433 15.992C191.345 16.808 190.009 17.216 188.425 17.216C187.145 17.216 185.993 16.936 184.969 16.376C183.961 15.8 183.169 14.992 182.593 13.952C182.033 12.912 181.753 11.712 181.753 10.352C181.753 8.976 182.033 7.768 182.593 6.728C183.153 5.688 183.937 4.888 184.945 4.328C185.953 3.768 187.113 3.488 188.425 3.488C189.689 3.488 190.817 3.76 191.809 4.304C192.817 4.848 193.593 5.624 194.137 6.632C194.697 7.624 194.977 8.768 194.977 10.064ZM191.497 9.104C191.481 8.24 191.169 7.552 190.561 7.04C189.953 6.512 189.209 6.248 188.329 6.248C187.497 6.248 186.793 6.504 186.217 7.016C185.657 7.512 185.313 8.208 185.185 9.104H191.497ZM198.917 17.168C198.309 17.168 197.805 16.984 197.405 16.616C197.021 16.232 196.829 15.76 196.829 15.2C196.829 14.64 197.021 14.176 197.405 13.808C197.805 13.424 198.309 13.232 198.917 13.232C199.509 13.232 199.997 13.424 200.381 13.808C200.765 14.176 200.957 14.64 200.957 15.2C200.957 15.76 200.765 16.232 200.381 16.616C199.997 16.984 199.509 17.168 198.917 17.168ZM198.917 7.232C198.309 7.232 197.805 7.048 197.405 6.68C197.021 6.296 196.829 5.824 196.829 5.264C196.829 4.704 197.021 4.24 197.405 3.872C197.805 3.488 198.309 3.296 198.917 3.296C199.509 3.296 199.997 3.488 200.381 3.872C200.765 4.24 200.957 4.704 200.957 5.264C200.957 5.824 200.765 6.296 200.381 6.68C199.997 7.048 199.509 7.232 198.917 7.232Z" fill="black"/>
</svg>
