<svg width="252" height="35" viewBox="0 0 252 35" fill="none" xmlns="http://www.w3.org/2000/svg">
<path d="M6.936 0.495999V21.232C6.936 23.504 7.528 25.248 8.712 26.464C9.896 27.648 11.56 28.24 13.704 28.24C15.88 28.24 17.56 27.648 18.744 26.464C19.928 25.248 20.52 23.504 20.52 21.232V0.495999H27.288V21.184C27.288 24.032 26.664 26.448 25.416 28.432C24.2 30.384 22.552 31.856 20.472 32.848C18.424 33.84 16.136 34.336 13.608 34.336C11.112 34.336 8.84 33.84 6.792 32.848C4.776 31.856 3.176 30.384 1.992 28.432C0.808 26.448 0.216 24.032 0.216 21.184V0.495999H6.936ZM45.3488 34.336C43.0128 34.336 40.9008 33.936 39.0128 33.136C37.1568 32.336 35.6848 31.184 34.5968 29.68C33.5088 28.176 32.9488 26.4 32.9168 24.352H40.1168C40.2128 25.728 40.6928 26.816 41.5568 27.616C42.4528 28.416 43.6688 28.816 45.2048 28.816C46.7728 28.816 48.0048 28.448 48.9008 27.712C49.7968 26.944 50.2448 25.952 50.2448 24.736C50.2448 23.744 49.9408 22.928 49.3328 22.288C48.7248 21.648 47.9568 21.152 47.0288 20.8C46.1328 20.416 44.8848 20 43.2848 19.552C41.1088 18.912 39.3328 18.288 37.9568 17.68C36.6128 17.04 35.4448 16.096 34.4528 14.848C33.4928 13.568 33.0128 11.872 33.0128 9.76C33.0128 7.776 33.5088 6.048 34.5008 4.576C35.4928 3.104 36.8848 1.984 38.6768 1.216C40.4688 0.415999 42.5168 0.0159998 44.8208 0.0159998C48.2768 0.0159998 51.0768 0.863999 53.2208 2.56C55.3968 4.224 56.5968 6.56 56.8208 9.568H49.4288C49.3648 8.416 48.8688 7.472 47.9408 6.736C47.0448 5.968 45.8448 5.584 44.3408 5.584C43.0288 5.584 41.9728 5.92 41.1728 6.592C40.4048 7.264 40.0208 8.24 40.0208 9.52C40.0208 10.416 40.3088 11.168 40.8848 11.776C41.4928 12.352 42.2288 12.832 43.0928 13.216C43.9888 13.568 45.2368 13.984 46.8368 14.464C49.0128 15.104 50.7888 15.744 52.1648 16.384C53.5408 17.024 54.7248 17.984 55.7168 19.264C56.7088 20.544 57.2048 22.224 57.2048 24.304C57.2048 26.096 56.7408 27.76 55.8127 29.296C54.8848 30.832 53.5248 32.064 51.7328 32.992C49.9408 33.888 47.8128 34.336 45.3488 34.336ZM69.7508 5.92V14.32H81.0308V19.648H69.7508V28.528H82.4708V34H63.0308V0.447997H82.4708V5.92H69.7508ZM105.858 34L98.4656 20.944H95.2976V34H88.5776V0.495999H101.154C103.746 0.495999 105.954 0.959999 107.778 1.888C109.602 2.784 110.962 4.016 111.858 5.584C112.786 7.12 113.25 8.848 113.25 10.768C113.25 12.976 112.61 14.976 111.33 16.768C110.05 18.528 108.146 19.744 105.618 20.416L113.634 34H105.858ZM95.2976 15.904H100.914C102.738 15.904 104.098 15.472 104.994 14.608C105.89 13.712 106.338 12.48 106.338 10.912C106.338 9.376 105.89 8.192 104.994 7.36C104.098 6.496 102.738 6.064 100.914 6.064H95.2976V15.904ZM147.984 34H141.264L126.048 11.008V34H119.328V0.447997H126.048L141.264 23.488V0.447997H147.984V34ZM175.169 27.616H161.825L159.617 34H152.561L164.609 0.447997H172.433L184.481 34H177.377L175.169 27.616ZM173.345 22.24L168.497 8.224L163.648 22.24H173.345ZM225.512 0.495999V34H218.792V12.208L209.816 34H204.728L195.704 12.208V34H188.984V0.495999H196.616L207.272 25.408L217.928 0.495999H225.512ZM238.876 5.92V14.32H250.156V19.648H238.876V28.528H251.596V34H232.156V0.447997H251.596V5.92H238.876Z" fill="black"/>
</svg>
