<svg width="291" height="121" viewBox="0 0 291 121" fill="none" xmlns="http://www.w3.org/2000/svg">
<path d="M48.096 2.496L38.736 36H30.816L24.528 12.144L17.952 36L10.08 36.048L1.056 2.496H8.256L14.16 28.512L20.976 2.496H28.464L34.896 28.368L40.848 2.496H48.096ZM77.2039 22.128C77.2039 23.088 77.1399 23.952 77.0119 24.72H57.5719C57.7319 26.64 58.4039 28.144 59.5879 29.232C60.7719 30.32 62.2279 30.864 63.9559 30.864C66.4519 30.864 68.2279 29.792 69.2839 27.648H76.5319C75.7639 30.208 74.2919 32.32 72.1159 33.984C69.9399 35.616 67.2679 36.432 64.0999 36.432C61.5399 36.432 59.2359 35.872 57.1879 34.752C55.1719 33.6 53.5879 31.984 52.4359 29.904C51.3159 27.824 50.7559 25.424 50.7559 22.704C50.7559 19.952 51.3159 17.536 52.4359 15.456C53.5559 13.376 55.1239 11.776 57.1399 10.656C59.1559 9.536 61.4759 8.976 64.0999 8.976C66.6279 8.976 68.8839 9.52 70.8679 10.608C72.8839 11.696 74.4359 13.248 75.5239 15.264C76.6439 17.248 77.2039 19.536 77.2039 22.128ZM70.2439 20.208C70.2119 18.48 69.5879 17.104 68.3719 16.08C67.1559 15.024 65.6679 14.496 63.9079 14.496C62.2439 14.496 60.8359 15.008 59.6839 16.032C58.5639 17.024 57.8759 18.416 57.6199 20.208H70.2439ZM88.8289 0.48V36H82.1089V0.48H88.8289ZM93.7402 22.704C93.7402 19.952 94.3003 17.552 95.4203 15.504C96.5403 13.424 98.0923 11.824 100.076 10.704C102.06 9.552 104.332 8.976 106.892 8.976C110.188 8.976 112.908 9.808 115.052 11.472C117.228 13.104 118.684 15.408 119.42 18.384H112.172C111.788 17.232 111.132 16.336 110.204 15.696C109.308 15.024 108.188 14.688 106.844 14.688C104.924 14.688 103.404 15.392 102.284 16.8C101.164 18.176 100.604 20.144 100.604 22.704C100.604 25.232 101.164 27.2 102.284 28.608C103.404 29.984 104.924 30.672 106.844 30.672C109.564 30.672 111.34 29.456 112.172 27.024H119.42C118.684 29.904 117.228 32.192 115.052 33.888C112.876 35.584 110.156 36.432 106.892 36.432C104.332 36.432 102.06 35.872 100.076 34.752C98.0923 33.6 96.5403 32 95.4203 29.952C94.3003 27.872 93.7402 25.456 93.7402 22.704ZM136.151 36.432C133.591 36.432 131.287 35.872 129.239 34.752C127.191 33.6 125.575 31.984 124.391 29.904C123.239 27.824 122.663 25.424 122.663 22.704C122.663 19.984 123.255 17.584 124.439 15.504C125.655 13.424 127.303 11.824 129.383 10.704C131.463 9.552 133.783 8.976 136.343 8.976C138.903 8.976 141.223 9.552 143.303 10.704C145.383 11.824 147.015 13.424 148.199 15.504C149.415 17.584 150.023 19.984 150.023 22.704C150.023 25.424 149.399 27.824 148.151 29.904C146.935 31.984 145.271 33.6 143.159 34.752C141.079 35.872 138.743 36.432 136.151 36.432ZM136.151 30.576C137.367 30.576 138.503 30.288 139.559 29.712C140.647 29.104 141.511 28.208 142.151 27.024C142.791 25.84 143.111 24.4 143.111 22.704C143.111 20.176 142.439 18.24 141.095 16.896C139.783 15.52 138.167 14.832 136.247 14.832C134.327 14.832 132.711 15.52 131.399 16.896C130.119 18.24 129.479 20.176 129.479 22.704C129.479 25.232 130.103 27.184 131.351 28.56C132.631 29.904 134.231 30.576 136.151 30.576ZM187.977 9.024C191.241 9.024 193.865 10.032 195.849 12.048C197.865 14.032 198.873 16.816 198.873 20.4V36H192.153V21.312C192.153 19.232 191.625 17.648 190.569 16.56C189.513 15.44 188.073 14.88 186.249 14.88C184.425 14.88 182.969 15.44 181.881 16.56C180.825 17.648 180.297 19.232 180.297 21.312V36H173.577V21.312C173.577 19.232 173.049 17.648 171.993 16.56C170.937 15.44 169.497 14.88 167.673 14.88C165.817 14.88 164.345 15.44 163.257 16.56C162.201 17.648 161.673 19.232 161.673 21.312V36H154.953V9.408H161.673V12.624C162.537 11.504 163.641 10.624 164.985 9.984C166.361 9.344 167.865 9.024 169.497 9.024C171.577 9.024 173.433 9.472 175.065 10.368C176.697 11.232 177.961 12.48 178.857 14.112C179.721 12.576 180.969 11.344 182.601 10.416C184.265 9.488 186.057 9.024 187.977 9.024ZM229.97 22.128C229.97 23.088 229.906 23.952 229.778 24.72H210.338C210.498 26.64 211.17 28.144 212.354 29.232C213.538 30.32 214.994 30.864 216.722 30.864C219.218 30.864 220.994 29.792 222.05 27.648H229.298C228.53 30.208 227.058 32.32 224.882 33.984C222.706 35.616 220.034 36.432 216.866 36.432C214.306 36.432 212.002 35.872 209.954 34.752C207.938 33.6 206.354 31.984 205.202 29.904C204.082 27.824 203.521 25.424 203.521 22.704C203.521 19.952 204.082 17.536 205.202 15.456C206.322 13.376 207.89 11.776 209.906 10.656C211.922 9.536 214.242 8.976 216.866 8.976C219.394 8.976 221.65 9.52 223.634 10.608C225.65 11.696 227.202 13.248 228.29 15.264C229.41 17.248 229.97 19.536 229.97 22.128ZM223.01 20.208C222.978 18.48 222.354 17.104 221.138 16.08C219.922 15.024 218.434 14.496 216.674 14.496C215.01 14.496 213.602 15.008 212.45 16.032C211.33 17.024 210.642 18.416 210.386 20.208H223.01ZM254.136 14.928V27.792C254.136 28.688 254.344 29.344 254.76 29.76C255.208 30.144 255.944 30.336 256.968 30.336H260.088V36H255.864C250.2 36 247.368 33.248 247.368 27.744V14.928H244.2V9.408H247.368V2.832H254.136V9.408H260.088V14.928H254.136ZM276.729 36.432C274.169 36.432 271.865 35.872 269.817 34.752C267.769 33.6 266.153 31.984 264.969 29.904C263.817 27.824 263.241 25.424 263.241 22.704C263.241 19.984 263.833 17.584 265.017 15.504C266.233 13.424 267.881 11.824 269.961 10.704C272.041 9.552 274.361 8.976 276.921 8.976C279.481 8.976 281.801 9.552 283.881 10.704C285.961 11.824 287.593 13.424 288.777 15.504C289.993 17.584 290.601 19.984 290.601 22.704C290.601 25.424 289.977 27.824 288.729 29.904C287.513 31.984 285.849 33.6 283.737 34.752C281.657 35.872 279.321 36.432 276.729 36.432ZM276.729 30.576C277.945 30.576 279.081 30.288 280.137 29.712C281.225 29.104 282.089 28.208 282.729 27.024C283.369 25.84 283.689 24.4 283.689 22.704C283.689 20.176 283.017 18.24 281.673 16.896C280.361 15.52 278.745 14.832 276.825 14.832C274.905 14.832 273.289 15.52 271.977 16.896C270.697 18.24 270.057 20.176 270.057 22.704C270.057 25.232 270.681 27.184 271.929 28.56C273.209 29.904 274.809 30.576 276.729 30.576ZM28.752 81.408L12.288 120.576H5.136L10.896 107.328L0.24 81.408H7.776L14.64 99.984L21.6 81.408H28.752ZM44.1825 108.432C41.6225 108.432 39.3185 107.872 37.2705 106.752C35.2225 105.6 33.6065 103.984 32.4225 101.904C31.2705 99.824 30.6945 97.424 30.6945 94.704C30.6945 91.984 31.2865 89.584 32.4705 87.504C33.6865 85.424 35.3345 83.824 37.4145 82.704C39.4945 81.552 41.8145 80.976 44.3745 80.976C46.9345 80.976 49.2545 81.552 51.3345 82.704C53.4145 83.824 55.0465 85.424 56.2305 87.504C57.4465 89.584 58.0545 91.984 58.0545 94.704C58.0545 97.424 57.4305 99.824 56.1825 101.904C54.9665 103.984 53.3025 105.6 51.1905 106.752C49.1105 107.872 46.7745 108.432 44.1825 108.432ZM44.1825 102.576C45.3985 102.576 46.5345 102.288 47.5905 101.712C48.6785 101.104 49.5425 100.208 50.1825 99.024C50.8225 97.84 51.1425 96.4 51.1425 94.704C51.1425 92.176 50.4705 90.24 49.1265 88.896C47.8145 87.52 46.1985 86.832 44.2785 86.832C42.3585 86.832 40.7425 87.52 39.4305 88.896C38.1505 90.24 37.5105 92.176 37.5105 94.704C37.5105 97.232 38.1345 99.184 39.3825 100.56C40.6625 101.904 42.2625 102.576 44.1825 102.576ZM88.0879 81.408V108H81.3199V104.64C80.4559 105.792 79.3199 106.704 77.9119 107.376C76.5359 108.016 75.0319 108.336 73.3999 108.336C71.3199 108.336 69.4799 107.904 67.8799 107.04C66.2799 106.144 65.0159 104.848 64.0879 103.152C63.1919 101.424 62.7439 99.376 62.7439 97.008V81.408H69.4639V96.048C69.4639 98.16 69.9919 99.792 71.0479 100.944C72.1039 102.064 73.5439 102.624 75.3679 102.624C77.2239 102.624 78.6799 102.064 79.7359 100.944C80.7919 99.792 81.3199 98.16 81.3199 96.048V81.408H88.0879ZM101.438 85.536C102.302 84.128 103.422 83.024 104.798 82.224C106.206 81.424 107.806 81.024 109.598 81.024V88.08H107.822C105.71 88.08 104.11 88.576 103.022 89.568C101.966 90.56 101.438 92.288 101.438 94.752V108H94.7183V81.408H101.438V85.536ZM132.282 85.248C133.146 84.032 134.33 83.024 135.834 82.224C137.37 81.392 139.114 80.976 141.066 80.976C143.338 80.976 145.386 81.536 147.21 82.656C149.066 83.776 150.522 85.376 151.578 87.456C152.666 89.504 153.21 91.888 153.21 94.608C153.21 97.328 152.666 99.744 151.578 101.856C150.522 103.936 149.066 105.552 147.21 106.704C145.386 107.856 143.338 108.432 141.066 108.432C139.114 108.432 137.386 108.032 135.882 107.232C134.41 106.432 133.21 105.424 132.282 104.208V120.672H125.562V81.408H132.282V85.248ZM146.346 94.608C146.346 93.008 146.01 91.632 145.338 90.48C144.698 89.296 143.834 88.4 142.746 87.792C141.69 87.184 140.538 86.88 139.29 86.88C138.074 86.88 136.922 87.2 135.834 87.84C134.778 88.448 133.914 89.344 133.242 90.528C132.602 91.712 132.282 93.104 132.282 94.704C132.282 96.304 132.602 97.696 133.242 98.88C133.914 100.064 134.778 100.976 135.834 101.616C136.922 102.224 138.074 102.528 139.29 102.528C140.538 102.528 141.69 102.208 142.746 101.568C143.834 100.928 144.698 100.016 145.338 98.832C146.01 97.648 146.346 96.24 146.346 94.608ZM164.813 85.536C165.677 84.128 166.797 83.024 168.173 82.224C169.581 81.424 171.181 81.024 172.973 81.024V88.08H171.197C169.085 88.08 167.485 88.576 166.397 89.568C165.341 90.56 164.813 92.288 164.813 94.752V108H158.093V81.408H164.813V85.536ZM189.308 108.432C186.748 108.432 184.444 107.872 182.396 106.752C180.348 105.6 178.732 103.984 177.548 101.904C176.396 99.824 175.82 97.424 175.82 94.704C175.82 91.984 176.412 89.584 177.596 87.504C178.812 85.424 180.46 83.824 182.54 82.704C184.62 81.552 186.94 80.976 189.5 80.976C192.06 80.976 194.38 81.552 196.46 82.704C198.54 83.824 200.172 85.424 201.356 87.504C202.572 89.584 203.18 91.984 203.18 94.704C203.18 97.424 202.556 99.824 201.307 101.904C200.092 103.984 198.428 105.6 196.316 106.752C194.236 107.872 191.9 108.432 189.308 108.432ZM189.308 102.576C190.524 102.576 191.66 102.288 192.716 101.712C193.804 101.104 194.668 100.208 195.308 99.024C195.948 97.84 196.268 96.4 196.268 94.704C196.268 92.176 195.596 90.24 194.252 88.896C192.94 87.52 191.324 86.832 189.404 86.832C187.484 86.832 185.868 87.52 184.556 88.896C183.276 90.24 182.636 92.176 182.636 94.704C182.636 97.232 183.26 99.184 184.508 100.56C185.788 101.904 187.388 102.576 189.308 102.576ZM220.301 86.928H215.645V108H208.829V86.928H205.805V81.408H208.829V80.064C208.829 76.8 209.757 74.4 211.613 72.864C213.469 71.328 216.269 70.608 220.013 70.704V76.368C218.381 76.336 217.245 76.608 216.605 77.184C215.965 77.76 215.645 78.8 215.645 80.304V81.408H220.301V86.928ZM228.064 78.24C226.88 78.24 225.888 77.872 225.088 77.136C224.32 76.368 223.936 75.424 223.936 74.304C223.936 73.184 224.32 72.256 225.088 71.52C225.888 70.752 226.88 70.368 228.064 70.368C229.248 70.368 230.224 70.752 230.992 71.52C231.792 72.256 232.192 73.184 232.192 74.304C232.192 75.424 231.792 76.368 230.992 77.136C230.224 77.872 229.248 78.24 228.064 78.24ZM231.376 81.408V108H224.656V81.408H231.376ZM244.735 72.48V108H238.015V72.48H244.735ZM276.095 94.128C276.095 95.088 276.031 95.952 275.903 96.72H256.463C256.623 98.64 257.295 100.144 258.479 101.232C259.663 102.32 261.119 102.864 262.847 102.864C265.343 102.864 267.119 101.792 268.175 99.648H275.423C274.655 102.208 273.183 104.32 271.007 105.984C268.831 107.616 266.159 108.432 262.991 108.432C260.431 108.432 258.127 107.872 256.079 106.752C254.063 105.6 252.479 103.984 251.327 101.904C250.207 99.824 249.646 97.424 249.646 94.704C249.646 91.952 250.207 89.536 251.327 87.456C252.447 85.376 254.015 83.776 256.031 82.656C258.047 81.536 260.367 80.976 262.991 80.976C265.519 80.976 267.775 81.52 269.759 82.608C271.775 83.696 273.327 85.248 274.415 87.264C275.535 89.248 276.095 91.536 276.095 94.128ZM269.135 92.208C269.103 90.48 268.479 89.104 267.263 88.08C266.047 87.024 264.559 86.496 262.799 86.496C261.135 86.496 259.727 87.008 258.575 88.032C257.455 89.024 256.767 90.416 256.511 92.208H269.135ZM288.344 100.944L282.728 114.432H278.408L281.528 100.944H288.344Z" fill="black"/>
</svg>
