<svg width="108" height="107" viewBox="0 0 108 107" fill="none" xmlns="http://www.w3.org/2000/svg">
<ellipse cx="53.7196" cy="53.2441" rx="53.7177" ry="53.2441" fill="#FC9A63"/>
<path d="M45.8639 39.1274L83.6355 49.6356L24.6732 53.8526L45.8639 39.1274Z" fill="#5F3D16"/>
<path d="M24.8551 56.9701L83.4808 52.8677L83.6354 49.6357L24.6731 53.8526L24.8551 56.9701Z" fill="#4C3016"/>
<path d="M25.1712 62.2071L83.2508 58.1405L83.4014 54.9079L24.9858 59.0858L25.1712 62.2071Z" fill="#4C3016"/>
<path d="M25.0109 59.6324L83.343 55.5486L83.4947 52.564L24.8295 56.5116L25.0109 59.6324Z" fill="#372413"/>
<path d="M25.3736 67.3339L83.0059 63.2993L83.1559 60.07L25.1921 64.2131L25.3736 67.3339Z" fill="#4C3016"/>
<path d="M25.2173 64.7597L83.0981 60.7074L83.2458 57.7222L25.0319 61.6384L25.2173 64.7597Z" fill="#372413"/>
<path d="M44.4608 42.7124C43.42 42.7296 42.6694 42.6193 42.6688 41.4172C42.6787 39.928 45.2819 37.8478 45.2819 37.8478L45.3526 37.9048C45.0757 38.3024 43.5234 40.5874 43.9133 41.8889C43.9786 42.2069 44.1716 42.4972 44.4608 42.7124Z" fill="#7F6656"/>
<path d="M47.8466 41.3173C47.8805 41.6636 47.7676 42.0089 47.5274 42.2932C47.2166 42.5913 46.7 42.6649 46.0842 42.6812C45.8178 42.6864 45.5366 42.6828 45.2649 42.6941C44.9932 42.7053 44.7147 42.7089 44.4443 42.7136C44.1567 42.498 43.9652 42.208 43.9007 41.8906C43.5109 40.5891 45.0619 38.3108 45.3401 37.9065C45.778 38.24 47.8688 39.9757 47.8466 41.3173Z" fill="#9B816F"/>
<path d="M42.2231 44.3592C41.1817 44.3798 40.4311 44.2694 40.4305 43.0673C40.4364 41.5776 43.0396 39.4974 43.0396 39.4974L43.1143 39.5549C42.834 39.9487 41.2811 42.237 41.6756 43.5357C41.7391 43.8543 41.9324 44.145 42.2231 44.3592Z" fill="#7F6656"/>
<path d="M45.6222 42.9795C45.6571 43.3259 45.5441 43.6715 45.303 43.9555C44.9962 44.254 44.4802 44.3244 43.8604 44.3401L43.0411 44.353C42.762 44.3599 42.4943 44.3717 42.2205 44.3725C41.933 44.1576 41.7426 43.8674 41.6809 43.5501C41.2865 42.2513 42.8381 39.9697 43.1196 39.5693C43.537 39.9034 45.6318 41.6396 45.6222 42.9795Z" fill="#9B816F"/>
<path d="M39.1522 46.5976C38.0379 46.6152 37.2355 46.4979 37.2423 45.2154C37.2488 43.617 40.0233 41.39 40.0233 41.39L40.1013 41.4513C39.8033 41.8733 38.1422 44.3203 38.5632 45.7142C38.6319 46.0561 38.8399 46.368 39.1522 46.5976Z" fill="#7F6656"/>
<path d="M42.7961 45.1147C42.8321 45.4855 42.7102 45.855 42.4516 46.1586C42.1178 46.4909 41.5587 46.5521 40.9091 46.5741C40.6261 46.5804 40.3244 46.5775 40.0089 46.5829L39.1505 46.6076C38.843 46.3769 38.6394 46.0658 38.5734 45.7258C38.1524 44.3319 39.8136 41.8849 40.1115 41.4629C40.5629 41.8117 42.8057 43.6696 42.7961 45.1147Z" fill="#9B816F"/>
<path d="M36.1887 48.8095C35.0578 48.8283 34.2395 48.7089 34.2468 47.4027C34.2571 45.7845 37.0871 43.5241 37.0871 43.5241L37.165 43.5854C36.8612 44.0168 35.1725 46.5009 35.6022 47.913C35.6687 48.2588 35.8757 48.5752 36.1887 48.8095Z" fill="#7F6656"/>
<path d="M39.904 47.2955C39.9386 47.6718 39.8158 48.0464 39.5562 48.356C39.2178 48.6911 38.6614 48.7594 37.9886 48.7749L37.0758 48.7854L36.2048 48.8118C35.8918 48.5774 35.6848 48.261 35.6183 47.9152C35.1892 46.4998 36.8792 44.0091 37.1812 43.5877C37.6339 43.9503 39.9115 45.8399 39.904 47.2955Z" fill="#9B816F"/>
<path d="M33.3541 50.7978C32.1941 50.8195 31.332 50.6942 31.3622 49.3537C31.3688 47.6909 34.2766 45.3661 34.2766 45.3661L34.3579 45.4313C34.0482 45.8721 32.3135 48.4247 32.7515 49.8787C32.8212 50.233 33.0336 50.5571 33.3541 50.7978Z" fill="#7F6656"/>
<path d="M37.1512 49.2403C37.1893 49.6272 37.0628 50.0128 36.7937 50.33C36.4487 50.6778 35.8724 50.7435 35.1831 50.7602C34.8874 50.7682 34.5732 50.767 34.2457 50.7708L33.3502 50.7973C33.0297 50.5567 32.8173 50.2326 32.7476 49.8782C32.3096 48.4243 34.0443 45.8717 34.354 45.4309C34.8214 45.8022 37.1558 47.7572 37.1512 49.2403Z" fill="#9B816F"/>
<path d="M30.204 52.6862C28.9744 52.7088 28.0725 52.5783 28.0788 51.1497C28.09 49.3788 31.1817 46.9055 31.1817 46.9055L31.2704 46.975C30.9389 47.4435 29.0907 50.1609 29.5394 51.7079C29.6189 52.0879 29.8537 52.4334 30.204 52.6862Z" fill="#7F6656"/>
<path d="M34.2449 51.0288C34.2872 51.441 34.1528 51.8524 33.8654 52.1902C33.4961 52.5586 32.886 52.6299 32.1449 52.6396C31.8287 52.6484 31.4945 52.6445 31.1459 52.6523C30.7972 52.6601 30.4923 52.6737 30.1973 52.6785C29.8614 52.4224 29.6397 52.0792 29.5685 51.705C29.1 50.1553 30.9481 47.4379 31.2995 46.9721C31.7645 47.3771 34.2541 49.4376 34.2449 51.0288Z" fill="#9B816F"/>
</svg>
