<svg width="218" height="33" viewBox="0 0 218 33" fill="none" xmlns="http://www.w3.org/2000/svg">
<path d="M6.324 15.024C6.324 15.744 6.088 16.324 5.616 16.764C5.144 17.204 4.436 17.424 3.492 17.424H1.8V21H0.96V12.612H3.492C4.428 12.612 5.132 12.832 5.604 13.272C6.084 13.712 6.324 14.296 6.324 15.024ZM3.492 16.704C4.804 16.704 5.46 16.144 5.46 15.024C5.46 14.464 5.304 14.04 4.992 13.752C4.68 13.464 4.18 13.32 3.492 13.32H1.8V16.704H3.492ZM8.57344 15.612C8.75744 15.204 9.03744 14.888 9.41344 14.664C9.79744 14.44 10.2654 14.328 10.8174 14.328V15.204H10.5894C9.98144 15.204 9.49344 15.368 9.12544 15.696C8.75744 16.024 8.57344 16.572 8.57344 17.34V21H7.73344V14.448H8.57344V15.612ZM14.9491 21.096C14.3331 21.096 13.7771 20.96 13.2811 20.688C12.7931 20.408 12.4051 20.016 12.1171 19.512C11.8371 19 11.6971 18.404 11.6971 17.724C11.6971 17.044 11.8411 16.452 12.1291 15.948C12.4171 15.436 12.8091 15.044 13.3051 14.772C13.8011 14.492 14.3571 14.352 14.9731 14.352C15.5891 14.352 16.1451 14.492 16.6411 14.772C17.1451 15.044 17.5371 15.436 17.8171 15.948C18.1051 16.452 18.2491 17.044 18.2491 17.724C18.2491 18.396 18.1051 18.988 17.8171 19.5C17.5291 20.012 17.1331 20.408 16.6291 20.688C16.1251 20.96 15.5651 21.096 14.9491 21.096ZM14.9491 20.364C15.3811 20.364 15.7811 20.268 16.1491 20.076C16.5171 19.876 16.8131 19.58 17.0371 19.188C17.2691 18.788 17.3851 18.3 17.3851 17.724C17.3851 17.148 17.2731 16.664 17.0491 16.272C16.8251 15.872 16.5291 15.576 16.1611 15.384C15.7931 15.184 15.3931 15.084 14.9611 15.084C14.5291 15.084 14.1291 15.184 13.7611 15.384C13.3931 15.576 13.0971 15.872 12.8731 16.272C12.6571 16.664 12.5491 17.148 12.5491 17.724C12.5491 18.3 12.6571 18.788 12.8731 19.188C13.0971 19.58 13.3891 19.876 13.7491 20.076C14.1171 20.268 14.5171 20.364 14.9491 20.364ZM22.3603 15.156H20.8363V21H19.9963V15.156H19.0843V14.448H19.9963V13.992C19.9963 13.28 20.1763 12.756 20.5363 12.42C20.9043 12.084 21.4963 11.916 22.3123 11.916V12.636C21.7683 12.636 21.3843 12.74 21.1603 12.948C20.9443 13.156 20.8363 13.504 20.8363 13.992V14.448H22.3603V15.156ZM24.1027 13.212C23.9347 13.212 23.7907 13.152 23.6707 13.032C23.5507 12.912 23.4907 12.764 23.4907 12.588C23.4907 12.412 23.5507 12.268 23.6707 12.156C23.7907 12.036 23.9347 11.976 24.1027 11.976C24.2707 11.976 24.4147 12.036 24.5347 12.156C24.6547 12.268 24.7147 12.412 24.7147 12.588C24.7147 12.764 24.6547 12.912 24.5347 13.032C24.4147 13.152 24.2707 13.212 24.1027 13.212ZM24.5227 14.448V21H23.6827V14.448H24.5227ZM27.2648 12.12V21H26.4248V12.12H27.2648ZM35.095 17.388C35.095 17.676 35.087 17.896 35.071 18.048H29.635C29.659 18.544 29.779 18.968 29.995 19.32C30.211 19.672 30.495 19.94 30.847 20.124C31.199 20.3 31.583 20.388 31.999 20.388C32.543 20.388 32.999 20.256 33.367 19.992C33.743 19.728 33.991 19.372 34.111 18.924H34.999C34.839 19.564 34.495 20.088 33.967 20.496C33.447 20.896 32.791 21.096 31.999 21.096C31.383 21.096 30.831 20.96 30.343 20.688C29.855 20.408 29.471 20.016 29.191 19.512C28.919 19 28.783 18.404 28.783 17.724C28.783 17.044 28.919 16.448 29.191 15.936C29.463 15.424 29.843 15.032 30.331 14.76C30.819 14.488 31.375 14.352 31.999 14.352C32.623 14.352 33.167 14.488 33.631 14.76C34.103 15.032 34.463 15.4 34.711 15.864C34.967 16.32 35.095 16.828 35.095 17.388ZM34.243 17.364C34.251 16.876 34.151 16.46 33.943 16.116C33.743 15.772 33.467 15.512 33.115 15.336C32.763 15.16 32.379 15.072 31.963 15.072C31.339 15.072 30.807 15.272 30.367 15.672C29.927 16.072 29.683 16.636 29.635 17.364H34.243ZM46.2488 21H45.4088L40.7648 13.944V21H39.9248V12.612H40.7648L45.4088 19.656V12.612H46.2488V21ZM47.7674 17.712C47.7674 17.04 47.8994 16.452 48.1634 15.948C48.4354 15.436 48.8074 15.044 49.2794 14.772C49.7594 14.492 50.2994 14.352 50.8994 14.352C51.5234 14.352 52.0594 14.496 52.5074 14.784C52.9634 15.072 53.2914 15.44 53.4914 15.888V14.448H54.3314V21H53.4914V19.548C53.2834 19.996 52.9514 20.368 52.4954 20.664C52.0474 20.952 51.5114 21.096 50.8874 21.096C50.2954 21.096 49.7594 20.956 49.2794 20.676C48.8074 20.396 48.4354 20 48.1634 19.488C47.8994 18.976 47.7674 18.384 47.7674 17.712ZM53.4914 17.724C53.4914 17.196 53.3834 16.732 53.1674 16.332C52.9514 15.932 52.6554 15.624 52.2794 15.408C51.9114 15.192 51.5034 15.084 51.0554 15.084C50.5914 15.084 50.1754 15.188 49.8074 15.396C49.4394 15.604 49.1474 15.908 48.9314 16.308C48.7234 16.7 48.6194 17.168 48.6194 17.712C48.6194 18.248 48.7234 18.72 48.9314 19.128C49.1474 19.528 49.4394 19.836 49.8074 20.052C50.1754 20.26 50.5914 20.364 51.0554 20.364C51.5034 20.364 51.9114 20.256 52.2794 20.04C52.6554 19.824 52.9514 19.516 53.1674 19.116C53.3834 18.716 53.4914 18.252 53.4914 17.724ZM64.0491 14.328C64.8171 14.328 65.4411 14.572 65.9211 15.06C66.4091 15.54 66.6531 16.24 66.6531 17.16V21H65.8251V17.256C65.8251 16.544 65.6531 16 65.3091 15.624C64.9651 15.248 64.4971 15.06 63.9051 15.06C63.2891 15.06 62.7971 15.264 62.4291 15.672C62.0611 16.08 61.8771 16.672 61.8771 17.448V21H61.0491V17.256C61.0491 16.544 60.8771 16 60.5331 15.624C60.1891 15.248 59.7171 15.06 59.1171 15.06C58.5011 15.06 58.0091 15.264 57.6411 15.672C57.2731 16.08 57.0891 16.672 57.0891 17.448V21H56.2491V14.448H57.0891V15.576C57.2971 15.168 57.5931 14.86 57.9771 14.652C58.3611 14.436 58.7891 14.328 59.2611 14.328C59.8291 14.328 60.3251 14.464 60.7491 14.736C61.1811 15.008 61.4931 15.408 61.6851 15.936C61.8611 15.416 62.1611 15.02 62.5851 14.748C63.0171 14.468 63.5051 14.328 64.0491 14.328ZM74.4466 17.388C74.4466 17.676 74.4386 17.896 74.4226 18.048H68.9866C69.0106 18.544 69.1306 18.968 69.3466 19.32C69.5626 19.672 69.8466 19.94 70.1986 20.124C70.5506 20.3 70.9346 20.388 71.3506 20.388C71.8946 20.388 72.3506 20.256 72.7186 19.992C73.0946 19.728 73.3426 19.372 73.4626 18.924H74.3506C74.1906 19.564 73.8466 20.088 73.3186 20.496C72.7986 20.896 72.1426 21.096 71.3506 21.096C70.7346 21.096 70.1826 20.96 69.6946 20.688C69.2066 20.408 68.8226 20.016 68.5426 19.512C68.2706 19 68.1346 18.404 68.1346 17.724C68.1346 17.044 68.2706 16.448 68.5426 15.936C68.8146 15.424 69.1946 15.032 69.6826 14.76C70.1706 14.488 70.7266 14.352 71.3506 14.352C71.9746 14.352 72.5186 14.488 72.9826 14.76C73.4546 15.032 73.8146 15.4 74.0626 15.864C74.3186 16.32 74.4466 16.828 74.4466 17.388ZM73.5946 17.364C73.6026 16.876 73.5026 16.46 73.2946 16.116C73.0946 15.772 72.8186 15.512 72.4666 15.336C72.1146 15.16 71.7306 15.072 71.3146 15.072C70.6906 15.072 70.1586 15.272 69.7186 15.672C69.2786 16.072 69.0346 16.636 68.9866 17.364H73.5946Z" fill="#333333" fill-opacity="0.6"/>
</svg>
