<svg width="218" height="33" viewBox="0 0 218 33" fill="none" xmlns="http://www.w3.org/2000/svg">
<path d="M6.324 15.024C6.324 15.744 6.088 16.324 5.616 16.764C5.144 17.204 4.436 17.424 3.492 17.424H1.8V21H0.96V12.612H3.492C4.428 12.612 5.132 12.832 5.604 13.272C6.084 13.712 6.324 14.296 6.324 15.024ZM3.492 16.704C4.804 16.704 5.46 16.144 5.46 15.024C5.46 14.464 5.304 14.04 4.992 13.752C4.68 13.464 4.18 13.32 3.492 13.32H1.8V16.704H3.492ZM7.34944 17.712C7.34944 17.04 7.48144 16.452 7.74544 15.948C8.01744 15.436 8.38944 15.044 8.86144 14.772C9.34144 14.492 9.88144 14.352 10.4814 14.352C11.1054 14.352 11.6414 14.496 12.0894 14.784C12.5454 15.072 12.8734 15.44 13.0734 15.888V14.448H13.9134V21H13.0734V19.548C12.8654 19.996 12.5334 20.368 12.0774 20.664C11.6294 20.952 11.0934 21.096 10.4694 21.096C9.87744 21.096 9.34144 20.956 8.86144 20.676C8.38944 20.396 8.01744 20 7.74544 19.488C7.48144 18.976 7.34944 18.384 7.34944 17.712ZM13.0734 17.724C13.0734 17.196 12.9654 16.732 12.7494 16.332C12.5334 15.932 12.2374 15.624 11.8614 15.408C11.4934 15.192 11.0854 15.084 10.6374 15.084C10.1734 15.084 9.75744 15.188 9.38944 15.396C9.02144 15.604 8.72944 15.908 8.51344 16.308C8.30544 16.7 8.20144 17.168 8.20144 17.712C8.20144 18.248 8.30544 18.72 8.51344 19.128C8.72944 19.528 9.02144 19.836 9.38944 20.052C9.75744 20.26 10.1734 20.364 10.6374 20.364C11.0854 20.364 11.4934 20.256 11.8614 20.04C12.2374 19.824 12.5334 19.516 12.7494 19.116C12.9654 18.716 13.0734 18.252 13.0734 17.724ZM18.0871 21.096C17.3351 21.096 16.7191 20.924 16.2391 20.58C15.7671 20.228 15.5031 19.752 15.4471 19.152H16.3111C16.3511 19.52 16.5231 19.82 16.8271 20.052C17.1391 20.276 17.5551 20.388 18.0751 20.388C18.5311 20.388 18.8871 20.28 19.1431 20.064C19.4071 19.848 19.5391 19.58 19.5391 19.26C19.5391 19.036 19.4671 18.852 19.3231 18.708C19.1791 18.564 18.9951 18.452 18.7711 18.372C18.5551 18.284 18.2591 18.192 17.8831 18.096C17.3951 17.968 16.9991 17.84 16.6951 17.712C16.3911 17.584 16.1311 17.396 15.9151 17.148C15.7071 16.892 15.6031 16.552 15.6031 16.128C15.6031 15.808 15.6991 15.512 15.8911 15.24C16.0831 14.968 16.3551 14.752 16.7071 14.592C17.0591 14.432 17.4591 14.352 17.9071 14.352C18.6111 14.352 19.1791 14.532 19.6111 14.892C20.0431 15.244 20.2751 15.732 20.3071 16.356H19.4671C19.4431 15.972 19.2911 15.664 19.0111 15.432C18.7391 15.192 18.3631 15.072 17.8831 15.072C17.4591 15.072 17.1151 15.172 16.8511 15.372C16.5871 15.572 16.4551 15.82 16.4551 16.116C16.4551 16.372 16.5311 16.584 16.6831 16.752C16.8431 16.912 17.0391 17.04 17.2711 17.136C17.5031 17.224 17.8151 17.324 18.2071 17.436C18.6791 17.564 19.0551 17.688 19.3351 17.808C19.6151 17.928 19.8551 18.104 20.0551 18.336C20.2551 18.568 20.3591 18.876 20.3671 19.26C20.3671 19.612 20.2711 19.928 20.0791 20.208C19.8871 20.48 19.6191 20.696 19.2751 20.856C18.9311 21.016 18.5351 21.096 18.0871 21.096ZM24.2043 21.096C23.4523 21.096 22.8363 20.924 22.3563 20.58C21.8843 20.228 21.6203 19.752 21.5643 19.152H22.4283C22.4683 19.52 22.6403 19.82 22.9443 20.052C23.2563 20.276 23.6723 20.388 24.1923 20.388C24.6483 20.388 25.0043 20.28 25.2603 20.064C25.5243 19.848 25.6563 19.58 25.6563 19.26C25.6563 19.036 25.5843 18.852 25.4403 18.708C25.2963 18.564 25.1123 18.452 24.8883 18.372C24.6723 18.284 24.3763 18.192 24.0003 18.096C23.5123 17.968 23.1163 17.84 22.8123 17.712C22.5083 17.584 22.2483 17.396 22.0323 17.148C21.8243 16.892 21.7203 16.552 21.7203 16.128C21.7203 15.808 21.8163 15.512 22.0083 15.24C22.2003 14.968 22.4723 14.752 22.8243 14.592C23.1763 14.432 23.5763 14.352 24.0243 14.352C24.7283 14.352 25.2963 14.532 25.7283 14.892C26.1603 15.244 26.3923 15.732 26.4243 16.356H25.5843C25.5603 15.972 25.4083 15.664 25.1283 15.432C24.8563 15.192 24.4803 15.072 24.0003 15.072C23.5763 15.072 23.2323 15.172 22.9683 15.372C22.7043 15.572 22.5723 15.82 22.5723 16.116C22.5723 16.372 22.6483 16.584 22.8003 16.752C22.9603 16.912 23.1563 17.04 23.3883 17.136C23.6203 17.224 23.9323 17.324 24.3243 17.436C24.7963 17.564 25.1723 17.688 25.4523 17.808C25.7323 17.928 25.9723 18.104 26.1723 18.336C26.3723 18.568 26.4763 18.876 26.4843 19.26C26.4843 19.612 26.3883 19.928 26.1963 20.208C26.0043 20.48 25.7363 20.696 25.3923 20.856C25.0483 21.016 24.6523 21.096 24.2043 21.096ZM36.7055 14.448L34.6535 21H33.8135L32.0015 15.504L30.1895 21H29.3375L27.2855 14.448H28.1375L29.7695 20.148L31.6055 14.448H32.4455L34.2575 20.16L35.8775 14.448H36.7055ZM40.7186 21.096C40.1026 21.096 39.5466 20.96 39.0506 20.688C38.5626 20.408 38.1746 20.016 37.8866 19.512C37.6066 19 37.4666 18.404 37.4666 17.724C37.4666 17.044 37.6106 16.452 37.8986 15.948C38.1866 15.436 38.5786 15.044 39.0746 14.772C39.5706 14.492 40.1266 14.352 40.7426 14.352C41.3586 14.352 41.9146 14.492 42.4106 14.772C42.9146 15.044 43.3066 15.436 43.5866 15.948C43.8746 16.452 44.0186 17.044 44.0186 17.724C44.0186 18.396 43.8746 18.988 43.5866 19.5C43.2986 20.012 42.9026 20.408 42.3986 20.688C41.8946 20.96 41.3346 21.096 40.7186 21.096ZM40.7186 20.364C41.1506 20.364 41.5506 20.268 41.9186 20.076C42.2866 19.876 42.5826 19.58 42.8066 19.188C43.0386 18.788 43.1546 18.3 43.1546 17.724C43.1546 17.148 43.0426 16.664 42.8186 16.272C42.5946 15.872 42.2986 15.576 41.9306 15.384C41.5626 15.184 41.1626 15.084 40.7306 15.084C40.2986 15.084 39.8986 15.184 39.5306 15.384C39.1626 15.576 38.8666 15.872 38.6426 16.272C38.4266 16.664 38.3186 17.148 38.3186 17.724C38.3186 18.3 38.4266 18.788 38.6426 19.188C38.8666 19.58 39.1586 19.876 39.5186 20.076C39.8866 20.268 40.2866 20.364 40.7186 20.364ZM46.3898 15.612C46.5738 15.204 46.8538 14.888 47.2298 14.664C47.6138 14.44 48.0818 14.328 48.6338 14.328V15.204H48.4058C47.7978 15.204 47.3098 15.368 46.9418 15.696C46.5738 16.024 46.3898 16.572 46.3898 17.34V21H45.5498V14.448H46.3898V15.612ZM49.5135 17.712C49.5135 17.04 49.6495 16.452 49.9215 15.948C50.1935 15.436 50.5655 15.044 51.0375 14.772C51.5175 14.492 52.0575 14.352 52.6575 14.352C53.2335 14.352 53.7535 14.492 54.2175 14.772C54.6815 15.052 55.0215 15.416 55.2375 15.864V12.12H56.0775V21H55.2375V19.536C55.0375 19.992 54.7095 20.368 54.2535 20.664C53.7975 20.952 53.2615 21.096 52.6455 21.096C52.0455 21.096 51.5055 20.956 51.0255 20.676C50.5535 20.396 50.1815 20 49.9095 19.488C49.6455 18.976 49.5135 18.384 49.5135 17.712ZM55.2375 17.724C55.2375 17.196 55.1295 16.732 54.9135 16.332C54.6975 15.932 54.4015 15.624 54.0255 15.408C53.6575 15.192 53.2495 15.084 52.8015 15.084C52.3375 15.084 51.9215 15.188 51.5535 15.396C51.1855 15.604 50.8935 15.908 50.6775 16.308C50.4695 16.7 50.3655 17.168 50.3655 17.712C50.3655 18.248 50.4695 18.72 50.6775 19.128C50.8935 19.528 51.1855 19.836 51.5535 20.052C51.9215 20.26 52.3375 20.364 52.8015 20.364C53.2495 20.364 53.6575 20.256 54.0255 20.04C54.4015 19.824 54.6975 19.516 54.9135 19.116C55.1295 18.716 55.2375 18.252 55.2375 17.724Z" fill="#333333" fill-opacity="0.6"/>
</svg>
