<svg width="218" height="33" viewBox="0 0 218 33" fill="none" xmlns="http://www.w3.org/2000/svg">
<path d="M1.8 13.296V16.428H4.98V17.124H1.8V20.304H5.34V21H0.96V12.6H5.34V13.296H1.8ZM14.7952 14.328C15.5632 14.328 16.1872 14.572 16.6672 15.06C17.1552 15.54 17.3992 16.24 17.3992 17.16V21H16.5712V17.256C16.5712 16.544 16.3992 16 16.0552 15.624C15.7112 15.248 15.2432 15.06 14.6512 15.06C14.0352 15.06 13.5432 15.264 13.1752 15.672C12.8072 16.08 12.6232 16.672 12.6232 17.448V21H11.7952V17.256C11.7952 16.544 11.6232 16 11.2792 15.624C10.9352 15.248 10.4632 15.06 9.86316 15.06C9.24716 15.06 8.75516 15.264 8.38716 15.672C8.01916 16.08 7.83516 16.672 7.83516 17.448V21H6.99516V14.448H7.83516V15.576C8.04316 15.168 8.33916 14.86 8.72316 14.652C9.10716 14.436 9.53516 14.328 10.0072 14.328C10.5752 14.328 11.0712 14.464 11.4952 14.736C11.9272 15.008 12.2392 15.408 12.4312 15.936C12.6072 15.416 12.9072 15.02 13.3312 14.748C13.7632 14.468 14.2512 14.328 14.7952 14.328ZM18.8807 17.712C18.8807 17.04 19.0127 16.452 19.2767 15.948C19.5487 15.436 19.9207 15.044 20.3927 14.772C20.8727 14.492 21.4127 14.352 22.0127 14.352C22.6367 14.352 23.1727 14.496 23.6207 14.784C24.0767 15.072 24.4047 15.44 24.6047 15.888V14.448H25.4447V21H24.6047V19.548C24.3967 19.996 24.0647 20.368 23.6087 20.664C23.1607 20.952 22.6247 21.096 22.0007 21.096C21.4087 21.096 20.8727 20.956 20.3927 20.676C19.9207 20.396 19.5487 20 19.2767 19.488C19.0127 18.976 18.8807 18.384 18.8807 17.712ZM24.6047 17.724C24.6047 17.196 24.4967 16.732 24.2807 16.332C24.0647 15.932 23.7687 15.624 23.3927 15.408C23.0247 15.192 22.6167 15.084 22.1687 15.084C21.7047 15.084 21.2887 15.188 20.9207 15.396C20.5527 15.604 20.2607 15.908 20.0447 16.308C19.8367 16.7 19.7327 17.168 19.7327 17.712C19.7327 18.248 19.8367 18.72 20.0447 19.128C20.2607 19.528 20.5527 19.836 20.9207 20.052C21.2887 20.26 21.7047 20.364 22.1687 20.364C22.6167 20.364 23.0247 20.256 23.3927 20.04C23.7687 19.824 24.0647 19.516 24.2807 19.116C24.4967 18.716 24.6047 18.252 24.6047 17.724ZM27.7823 13.212C27.6143 13.212 27.4703 13.152 27.3503 13.032C27.2303 12.912 27.1703 12.764 27.1703 12.588C27.1703 12.412 27.2303 12.268 27.3503 12.156C27.4703 12.036 27.6143 11.976 27.7823 11.976C27.9503 11.976 28.0943 12.036 28.2143 12.156C28.3343 12.268 28.3943 12.412 28.3943 12.588C28.3943 12.764 28.3343 12.912 28.2143 13.032C28.0943 13.152 27.9503 13.212 27.7823 13.212ZM28.2023 14.448V21H27.3623V14.448H28.2023ZM30.9445 12.12V21H30.1045V12.12H30.9445Z" fill="#333333" fill-opacity="0.6"/>
</svg>
