<svg width="218" height="35" viewBox="0 0 218 35" fill="none" xmlns="http://www.w3.org/2000/svg">
<rect width="218" height="35" rx="17.5" fill="#FC9A63"/>
<path d="M61.0503 17.776C61.0503 16.944 61.2303 16.204 61.5903 15.556C61.9503 14.9 62.4503 14.392 63.0903 14.032C63.7383 13.664 64.4703 13.48 65.2863 13.48C66.2863 13.48 67.1423 13.744 67.8543 14.272C68.5663 14.8 69.0423 15.52 69.2823 16.432H67.0263C66.8583 16.08 66.6183 15.812 66.3063 15.628C66.0023 15.444 65.6543 15.352 65.2623 15.352C64.6303 15.352 64.1183 15.572 63.7263 16.012C63.3343 16.452 63.1383 17.04 63.1383 17.776C63.1383 18.512 63.3343 19.1 63.7263 19.54C64.1183 19.98 64.6303 20.2 65.2623 20.2C65.6543 20.2 66.0023 20.108 66.3063 19.924C66.6183 19.74 66.8583 19.472 67.0263 19.12H69.2823C69.0423 20.032 68.5663 20.752 67.8543 21.28C67.1423 21.8 66.2863 22.06 65.2863 22.06C64.4703 22.06 63.7383 21.88 63.0903 21.52C62.4503 21.152 61.9503 20.644 61.5903 19.996C61.2303 19.348 61.0503 18.608 61.0503 17.776ZM72.5909 16.42C72.8309 16.052 73.1309 15.764 73.4909 15.556C73.8509 15.34 74.2509 15.232 74.6909 15.232V17.404H74.1269C73.6149 17.404 73.2309 17.516 72.9749 17.74C72.7189 17.956 72.5909 18.34 72.5909 18.892V22H70.5389V15.304H72.5909V16.42ZM81.9837 18.544C81.9837 18.736 81.9717 18.936 81.9477 19.144H77.3037C77.3357 19.56 77.4677 19.88 77.6997 20.104C77.9397 20.32 78.2317 20.428 78.5757 20.428C79.0877 20.428 79.4437 20.212 79.6437 19.78H81.8277C81.7157 20.22 81.5117 20.616 81.2157 20.968C80.9277 21.32 80.5637 21.596 80.1237 21.796C79.6837 21.996 79.1917 22.096 78.6477 22.096C77.9917 22.096 77.4077 21.956 76.8957 21.676C76.3837 21.396 75.9837 20.996 75.6957 20.476C75.4077 19.956 75.2637 19.348 75.2637 18.652C75.2637 17.956 75.4037 17.348 75.6837 16.828C75.9717 16.308 76.3717 15.908 76.8837 15.628C77.3957 15.348 77.9837 15.208 78.6477 15.208C79.2957 15.208 79.8717 15.344 80.3757 15.616C80.8797 15.888 81.2717 16.276 81.5517 16.78C81.8397 17.284 81.9837 17.872 81.9837 18.544ZM79.8837 18.004C79.8837 17.652 79.7637 17.372 79.5237 17.164C79.2837 16.956 78.9837 16.852 78.6237 16.852C78.2797 16.852 77.9877 16.952 77.7477 17.152C77.5157 17.352 77.3717 17.636 77.3157 18.004H79.8837ZM82.6583 18.64C82.6583 17.952 82.7863 17.348 83.0423 16.828C83.3063 16.308 83.6623 15.908 84.1103 15.628C84.5583 15.348 85.0583 15.208 85.6103 15.208C86.0823 15.208 86.4943 15.304 86.8463 15.496C87.2063 15.688 87.4823 15.94 87.6743 16.252V15.304H89.7263V22H87.6743V21.052C87.4743 21.364 87.1943 21.616 86.8343 21.808C86.4823 22 86.0703 22.096 85.5983 22.096C85.0543 22.096 84.5583 21.956 84.1103 21.676C83.6623 21.388 83.3063 20.984 83.0423 20.464C82.7863 19.936 82.6583 19.328 82.6583 18.64ZM87.6743 18.652C87.6743 18.14 87.5303 17.736 87.2423 17.44C86.9623 17.144 86.6183 16.996 86.2103 16.996C85.8023 16.996 85.4543 17.144 85.1663 17.44C84.8863 17.728 84.7463 18.128 84.7463 18.64C84.7463 19.152 84.8863 19.56 85.1663 19.864C85.4543 20.16 85.8023 20.308 86.2103 20.308C86.6183 20.308 86.9623 20.16 87.2423 19.864C87.5303 19.568 87.6743 19.164 87.6743 18.652ZM94.9428 20.26V22H93.8988C93.1548 22 92.5748 21.82 92.1588 21.46C91.7428 21.092 91.5348 20.496 91.5348 19.672V17.008H90.7188V15.304H91.5348V13.672H93.5868V15.304H94.9308V17.008H93.5868V19.696C93.5868 19.896 93.6348 20.04 93.7308 20.128C93.8268 20.216 93.9868 20.26 94.2108 20.26H94.9428ZM102.398 18.544C102.398 18.736 102.386 18.936 102.362 19.144H97.7178C97.7498 19.56 97.8818 19.88 98.1138 20.104C98.3538 20.32 98.6458 20.428 98.9898 20.428C99.5018 20.428 99.8578 20.212 100.058 19.78H102.242C102.13 20.22 101.926 20.616 101.63 20.968C101.342 21.32 100.978 21.596 100.538 21.796C100.098 21.996 99.6058 22.096 99.0618 22.096C98.4058 22.096 97.8218 21.956 97.3098 21.676C96.7978 21.396 96.3978 20.996 96.1098 20.476C95.8218 19.956 95.6778 19.348 95.6778 18.652C95.6778 17.956 95.8178 17.348 96.0978 16.828C96.3858 16.308 96.7858 15.908 97.2978 15.628C97.8098 15.348 98.3978 15.208 99.0618 15.208C99.7098 15.208 100.286 15.344 100.79 15.616C101.294 15.888 101.686 16.276 101.966 16.78C102.254 17.284 102.398 17.872 102.398 18.544ZM100.298 18.004C100.298 17.652 100.178 17.372 99.9378 17.164C99.6978 16.956 99.3978 16.852 99.0378 16.852C98.6938 16.852 98.4018 16.952 98.1618 17.152C97.9298 17.352 97.7858 17.636 97.7298 18.004H100.298ZM111.267 20.512H108.123L107.619 22H105.471L108.519 13.576H110.895L113.943 22H111.771L111.267 20.512ZM110.739 18.928L109.695 15.844L108.663 18.928H110.739ZM114.463 18.652C114.463 17.956 114.603 17.348 114.883 16.828C115.171 16.308 115.567 15.908 116.071 15.628C116.583 15.348 117.167 15.208 117.823 15.208C118.663 15.208 119.363 15.428 119.923 15.868C120.491 16.308 120.863 16.928 121.039 17.728H118.855C118.671 17.216 118.315 16.96 117.787 16.96C117.411 16.96 117.111 17.108 116.887 17.404C116.663 17.692 116.551 18.108 116.551 18.652C116.551 19.196 116.663 19.616 116.887 19.912C117.111 20.2 117.411 20.344 117.787 20.344C118.315 20.344 118.671 20.088 118.855 19.576H121.039C120.863 20.36 120.491 20.976 119.923 21.424C119.355 21.872 118.655 22.096 117.823 22.096C117.167 22.096 116.583 21.956 116.071 21.676C115.567 21.396 115.171 20.996 114.883 20.476C114.603 19.956 114.463 19.348 114.463 18.652ZM121.729 18.652C121.729 17.956 121.869 17.348 122.149 16.828C122.437 16.308 122.833 15.908 123.337 15.628C123.849 15.348 124.433 15.208 125.089 15.208C125.929 15.208 126.629 15.428 127.189 15.868C127.757 16.308 128.129 16.928 128.305 17.728H126.121C125.937 17.216 125.581 16.96 125.053 16.96C124.677 16.96 124.377 17.108 124.153 17.404C123.929 17.692 123.817 18.108 123.817 18.652C123.817 19.196 123.929 19.616 124.153 19.912C124.377 20.2 124.677 20.344 125.053 20.344C125.581 20.344 125.937 20.088 126.121 19.576H128.305C128.129 20.36 127.757 20.976 127.189 21.424C126.621 21.872 125.921 22.096 125.089 22.096C124.433 22.096 123.849 21.956 123.337 21.676C122.833 21.396 122.437 20.996 122.149 20.476C121.869 19.956 121.729 19.348 121.729 18.652ZM132.45 22.096C131.794 22.096 131.202 21.956 130.674 21.676C130.154 21.396 129.742 20.996 129.438 20.476C129.142 19.956 128.994 19.348 128.994 18.652C128.994 17.964 129.146 17.36 129.45 16.84C129.754 16.312 130.17 15.908 130.698 15.628C131.226 15.348 131.818 15.208 132.474 15.208C133.13 15.208 133.722 15.348 134.25 15.628C134.778 15.908 135.194 16.312 135.498 16.84C135.802 17.36 135.954 17.964 135.954 18.652C135.954 19.34 135.798 19.948 135.486 20.476C135.182 20.996 134.762 21.396 134.226 21.676C133.698 21.956 133.106 22.096 132.45 22.096ZM132.45 20.32C132.842 20.32 133.174 20.176 133.446 19.888C133.726 19.6 133.866 19.188 133.866 18.652C133.866 18.116 133.73 17.704 133.458 17.416C133.194 17.128 132.866 16.984 132.474 16.984C132.074 16.984 131.742 17.128 131.478 17.416C131.214 17.696 131.082 18.108 131.082 18.652C131.082 19.188 131.21 19.6 131.466 19.888C131.73 20.176 132.058 20.32 132.45 20.32ZM143.655 15.304V22H141.603V21.088C141.395 21.384 141.111 21.624 140.751 21.808C140.399 21.984 140.007 22.072 139.575 22.072C139.063 22.072 138.611 21.96 138.219 21.736C137.827 21.504 137.523 21.172 137.307 20.74C137.091 20.308 136.983 19.8 136.983 19.216V15.304H139.023V18.94C139.023 19.388 139.139 19.736 139.371 19.984C139.603 20.232 139.915 20.356 140.307 20.356C140.707 20.356 141.023 20.232 141.255 19.984C141.487 19.736 141.603 19.388 141.603 18.94V15.304H143.655ZM149.209 15.232C149.993 15.232 150.617 15.488 151.081 16C151.553 16.504 151.789 17.2 151.789 18.088V22H149.749V18.364C149.749 17.916 149.633 17.568 149.401 17.32C149.169 17.072 148.857 16.948 148.465 16.948C148.073 16.948 147.761 17.072 147.529 17.32C147.297 17.568 147.181 17.916 147.181 18.364V22H145.129V15.304H147.181V16.192C147.389 15.896 147.669 15.664 148.021 15.496C148.373 15.32 148.769 15.232 149.209 15.232ZM156.947 20.26V22H155.903C155.159 22 154.579 21.82 154.163 21.46C153.747 21.092 153.539 20.496 153.539 19.672V17.008H152.723V15.304H153.539V13.672H155.591V15.304H156.935V17.008H155.591V19.696C155.591 19.896 155.639 20.04 155.735 20.128C155.831 20.216 155.991 20.26 156.215 20.26H156.947Z" fill="black"/>
</svg>
