<svg width="218" height="33" viewBox="0 0 218 33" fill="none" xmlns="http://www.w3.org/2000/svg">
<path d="M6.324 15.024C6.324 15.744 6.088 16.324 5.616 16.764C5.144 17.204 4.436 17.424 3.492 17.424H1.8V21H0.96V12.612H3.492C4.428 12.612 5.132 12.832 5.604 13.272C6.084 13.712 6.324 14.296 6.324 15.024ZM3.492 16.704C4.804 16.704 5.46 16.144 5.46 15.024C5.46 14.464 5.304 14.04 4.992 13.752C4.68 13.464 4.18 13.32 3.492 13.32H1.8V16.704H3.492ZM10.8534 14.328C11.3494 14.328 11.7934 14.432 12.1854 14.64C12.5854 14.848 12.8974 15.168 13.1214 15.6C13.3534 16.024 13.4694 16.544 13.4694 17.16V21H12.6414V17.256C12.6414 16.544 12.4614 16 12.1014 15.624C11.7494 15.248 11.2654 15.06 10.6494 15.06C10.0174 15.06 9.51344 15.26 9.13744 15.66C8.76144 16.06 8.57344 16.648 8.57344 17.424V21H7.73344V12.12H8.57344V15.564C8.78144 15.172 9.08544 14.868 9.48544 14.652C9.89344 14.436 10.3494 14.328 10.8534 14.328ZM18.1952 21.096C17.5792 21.096 17.0232 20.96 16.5272 20.688C16.0392 20.408 15.6512 20.016 15.3632 19.512C15.0832 19 14.9432 18.404 14.9432 17.724C14.9432 17.044 15.0872 16.452 15.3752 15.948C15.6632 15.436 16.0552 15.044 16.5512 14.772C17.0472 14.492 17.6032 14.352 18.2192 14.352C18.8352 14.352 19.3912 14.492 19.8872 14.772C20.3912 15.044 20.7832 15.436 21.0632 15.948C21.3512 16.452 21.4952 17.044 21.4952 17.724C21.4952 18.396 21.3512 18.988 21.0632 19.5C20.7752 20.012 20.3792 20.408 19.8752 20.688C19.3712 20.96 18.8112 21.096 18.1952 21.096ZM18.1952 20.364C18.6272 20.364 19.0272 20.268 19.3952 20.076C19.7632 19.876 20.0592 19.58 20.2832 19.188C20.5152 18.788 20.6312 18.3 20.6312 17.724C20.6312 17.148 20.5192 16.664 20.2952 16.272C20.0712 15.872 19.7752 15.576 19.4072 15.384C19.0392 15.184 18.6392 15.084 18.2072 15.084C17.7752 15.084 17.3752 15.184 17.0072 15.384C16.6392 15.576 16.3432 15.872 16.1192 16.272C15.9032 16.664 15.7952 17.148 15.7952 17.724C15.7952 18.3 15.9032 18.788 16.1192 19.188C16.3432 19.58 16.6352 19.876 16.9952 20.076C17.3632 20.268 17.7632 20.364 18.1952 20.364ZM26.0984 14.328C26.8824 14.328 27.5224 14.572 28.0184 15.06C28.5144 15.54 28.7624 16.24 28.7624 17.16V21H27.9344V17.256C27.9344 16.544 27.7544 16 27.3944 15.624C27.0424 15.248 26.5584 15.06 25.9424 15.06C25.3104 15.06 24.8064 15.26 24.4304 15.66C24.0544 16.06 23.8664 16.648 23.8664 17.424V21H23.0264V14.448H23.8664V15.564C24.0744 15.164 24.3744 14.86 24.7664 14.652C25.1584 14.436 25.6024 14.328 26.0984 14.328ZM36.5482 17.388C36.5482 17.676 36.5402 17.896 36.5242 18.048H31.0882C31.1122 18.544 31.2322 18.968 31.4482 19.32C31.6642 19.672 31.9482 19.94 32.3002 20.124C32.6522 20.3 33.0362 20.388 33.4522 20.388C33.9962 20.388 34.4522 20.256 34.8202 19.992C35.1962 19.728 35.4442 19.372 35.5642 18.924H36.4522C36.2922 19.564 35.9482 20.088 35.4202 20.496C34.9002 20.896 34.2442 21.096 33.4522 21.096C32.8362 21.096 32.2842 20.96 31.7962 20.688C31.3082 20.408 30.9242 20.016 30.6442 19.512C30.3722 19 30.2362 18.404 30.2362 17.724C30.2362 17.044 30.3722 16.448 30.6442 15.936C30.9162 15.424 31.2962 15.032 31.7842 14.76C32.2722 14.488 32.8282 14.352 33.4522 14.352C34.0762 14.352 34.6202 14.488 35.0842 14.76C35.5562 15.032 35.9162 15.4 36.1642 15.864C36.4202 16.32 36.5482 16.828 36.5482 17.388ZM35.6962 17.364C35.7042 16.876 35.6042 16.46 35.3962 16.116C35.1962 15.772 34.9202 15.512 34.5682 15.336C34.2162 15.16 33.8322 15.072 33.4162 15.072C32.7922 15.072 32.2602 15.272 31.8202 15.672C31.3802 16.072 31.1362 16.636 31.0882 17.364H35.6962ZM47.702 21H46.862L42.218 13.944V21H41.378V12.612H42.218L46.862 19.656V12.612H47.702V21ZM55.2805 14.448V21H54.4405V19.848C54.2485 20.256 53.9525 20.568 53.5525 20.784C53.1525 21 52.7045 21.108 52.2085 21.108C51.4245 21.108 50.7845 20.868 50.2885 20.388C49.7925 19.9 49.5445 19.196 49.5445 18.276V14.448H50.3725V18.18C50.3725 18.892 50.5485 19.436 50.9005 19.812C51.2605 20.188 51.7485 20.376 52.3645 20.376C52.9965 20.376 53.5005 20.176 53.8765 19.776C54.2525 19.376 54.4405 18.788 54.4405 18.012V14.448H55.2805ZM64.9983 14.328C65.7663 14.328 66.3903 14.572 66.8703 15.06C67.3583 15.54 67.6023 16.24 67.6023 17.16V21H66.7743V17.256C66.7743 16.544 66.6023 16 66.2583 15.624C65.9143 15.248 65.4463 15.06 64.8543 15.06C64.2383 15.06 63.7463 15.264 63.3783 15.672C63.0103 16.08 62.8263 16.672 62.8263 17.448V21H61.9983V17.256C61.9983 16.544 61.8263 16 61.4823 15.624C61.1383 15.248 60.6663 15.06 60.0663 15.06C59.4503 15.06 58.9583 15.264 58.5903 15.672C58.2223 16.08 58.0383 16.672 58.0383 17.448V21H57.1983V14.448H58.0383V15.576C58.2463 15.168 58.5423 14.86 58.9263 14.652C59.3103 14.436 59.7383 14.328 60.2103 14.328C60.7783 14.328 61.2743 14.464 61.6983 14.736C62.1303 15.008 62.4423 15.408 62.6343 15.936C62.8103 15.416 63.1103 15.02 63.5343 14.748C63.9663 14.468 64.4543 14.328 64.9983 14.328ZM70.2958 15.9C70.5118 15.444 70.8438 15.072 71.2918 14.784C71.7478 14.496 72.2838 14.352 72.8998 14.352C73.4998 14.352 74.0358 14.492 74.5078 14.772C74.9798 15.044 75.3478 15.436 75.6118 15.948C75.8838 16.452 76.0198 17.04 76.0198 17.712C76.0198 18.384 75.8838 18.976 75.6118 19.488C75.3478 20 74.9758 20.396 74.4958 20.676C74.0238 20.956 73.4918 21.096 72.8998 21.096C72.2758 21.096 71.7358 20.956 71.2798 20.676C70.8318 20.388 70.5038 20.016 70.2958 19.56V21H69.4678V12.12H70.2958V15.9ZM75.1678 17.712C75.1678 17.168 75.0598 16.7 74.8438 16.308C74.6358 15.908 74.3478 15.604 73.9798 15.396C73.6118 15.188 73.1958 15.084 72.7318 15.084C72.2838 15.084 71.8718 15.192 71.4958 15.408C71.1278 15.624 70.8358 15.932 70.6198 16.332C70.4038 16.732 70.2958 17.196 70.2958 17.724C70.2958 18.252 70.4038 18.716 70.6198 19.116C70.8358 19.516 71.1278 19.824 71.4958 20.04C71.8718 20.256 72.2838 20.364 72.7318 20.364C73.1958 20.364 73.6118 20.26 73.9798 20.052C74.3478 19.836 74.6358 19.528 74.8438 19.128C75.0598 18.72 75.1678 18.248 75.1678 17.712ZM83.4935 17.388C83.4935 17.676 83.4855 17.896 83.4695 18.048H78.0335C78.0575 18.544 78.1775 18.968 78.3935 19.32C78.6095 19.672 78.8935 19.94 79.2455 20.124C79.5975 20.3 79.9815 20.388 80.3975 20.388C80.9415 20.388 81.3975 20.256 81.7655 19.992C82.1415 19.728 82.3895 19.372 82.5095 18.924H83.3975C83.2375 19.564 82.8935 20.088 82.3655 20.496C81.8455 20.896 81.1895 21.096 80.3975 21.096C79.7815 21.096 79.2295 20.96 78.7415 20.688C78.2535 20.408 77.8695 20.016 77.5895 19.512C77.3175 19 77.1815 18.404 77.1815 17.724C77.1815 17.044 77.3175 16.448 77.5895 15.936C77.8615 15.424 78.2415 15.032 78.7295 14.76C79.2175 14.488 79.7735 14.352 80.3975 14.352C81.0215 14.352 81.5655 14.488 82.0295 14.76C82.5015 15.032 82.8615 15.4 83.1095 15.864C83.3655 16.32 83.4935 16.828 83.4935 17.388ZM82.6415 17.364C82.6495 16.876 82.5495 16.46 82.3415 16.116C82.1415 15.772 81.8655 15.512 81.5135 15.336C81.1615 15.16 80.7775 15.072 80.3615 15.072C79.7375 15.072 79.2055 15.272 78.7655 15.672C78.3255 16.072 78.0815 16.636 78.0335 17.364H82.6415ZM85.8703 15.612C86.0543 15.204 86.3343 14.888 86.7103 14.664C87.0943 14.44 87.5623 14.328 88.1143 14.328V15.204H87.8863C87.2783 15.204 86.7903 15.368 86.4223 15.696C86.0543 16.024 85.8703 16.572 85.8703 17.34V21H85.0303V14.448H85.8703V15.612ZM95.2629 23.232C94.5109 22.488 93.9189 21.536 93.4869 20.376C93.0549 19.208 92.8389 17.94 92.8389 16.572C92.8389 15.188 93.0629 13.904 93.5109 12.72C93.9589 11.536 94.5869 10.56 95.3949 9.792H96.2709V9.876C95.4149 10.716 94.7629 11.72 94.3149 12.888C93.8749 14.056 93.6549 15.284 93.6549 16.572C93.6549 17.844 93.8669 19.048 94.2909 20.184C94.7149 21.32 95.3349 22.308 96.1509 23.148V23.232H95.2629ZM100.578 21.096C99.962 21.096 99.406 20.96 98.91 20.688C98.422 20.408 98.034 20.016 97.746 19.512C97.466 19 97.326 18.404 97.326 17.724C97.326 17.044 97.47 16.452 97.758 15.948C98.046 15.436 98.438 15.044 98.934 14.772C99.43 14.492 99.986 14.352 100.602 14.352C101.218 14.352 101.774 14.492 102.27 14.772C102.774 15.044 103.166 15.436 103.446 15.948C103.734 16.452 103.878 17.044 103.878 17.724C103.878 18.396 103.734 18.988 103.446 19.5C103.158 20.012 102.762 20.408 102.258 20.688C101.754 20.96 101.194 21.096 100.578 21.096ZM100.578 20.364C101.01 20.364 101.41 20.268 101.778 20.076C102.146 19.876 102.442 19.58 102.666 19.188C102.898 18.788 103.014 18.3 103.014 17.724C103.014 17.148 102.902 16.664 102.678 16.272C102.454 15.872 102.158 15.576 101.79 15.384C101.422 15.184 101.022 15.084 100.59 15.084C100.158 15.084 99.758 15.184 99.39 15.384C99.022 15.576 98.726 15.872 98.502 16.272C98.286 16.664 98.178 17.148 98.178 17.724C98.178 18.3 98.286 18.788 98.502 19.188C98.726 19.58 99.018 19.876 99.378 20.076C99.746 20.268 100.146 20.364 100.578 20.364ZM106.237 15.888C106.445 15.448 106.773 15.084 107.221 14.796C107.677 14.5 108.217 14.352 108.841 14.352C109.433 14.352 109.965 14.492 110.437 14.772C110.917 15.044 111.289 15.436 111.553 15.948C111.825 16.452 111.961 17.04 111.961 17.712C111.961 18.384 111.825 18.976 111.553 19.488C111.289 20 110.917 20.396 110.437 20.676C109.965 20.956 109.433 21.096 108.841 21.096C108.225 21.096 107.689 20.952 107.233 20.664C106.777 20.368 106.445 20 106.237 19.56V24.096H105.409V14.448H106.237V15.888ZM111.109 17.712C111.109 17.168 111.001 16.7 110.785 16.308C110.577 15.908 110.289 15.604 109.921 15.396C109.553 15.188 109.137 15.084 108.673 15.084C108.225 15.084 107.813 15.192 107.437 15.408C107.069 15.624 106.777 15.932 106.561 16.332C106.345 16.732 106.237 17.196 106.237 17.724C106.237 18.252 106.345 18.716 106.561 19.116C106.777 19.516 107.069 19.824 107.437 20.04C107.813 20.256 108.225 20.364 108.673 20.364C109.137 20.364 109.553 20.26 109.921 20.052C110.289 19.836 110.577 19.528 110.785 19.128C111.001 18.72 111.109 18.248 111.109 17.712ZM114.599 15.156V19.224C114.599 19.624 114.675 19.9 114.827 20.052C114.979 20.204 115.247 20.28 115.631 20.28H116.399V21H115.499C114.907 21 114.467 20.864 114.179 20.592C113.891 20.312 113.747 19.856 113.747 19.224V15.156H112.835V14.448H113.747V12.804H114.599V14.448H116.399V15.156H114.599ZM118.204 13.212C118.036 13.212 117.892 13.152 117.772 13.032C117.652 12.912 117.592 12.764 117.592 12.588C117.592 12.412 117.652 12.268 117.772 12.156C117.892 12.036 118.036 11.976 118.204 11.976C118.372 11.976 118.516 12.036 118.636 12.156C118.756 12.268 118.816 12.412 118.816 12.588C118.816 12.764 118.756 12.912 118.636 13.032C118.516 13.152 118.372 13.212 118.204 13.212ZM118.624 14.448V21H117.784V14.448H118.624ZM123.394 21.096C122.778 21.096 122.222 20.96 121.726 20.688C121.238 20.408 120.85 20.016 120.562 19.512C120.282 19 120.142 18.404 120.142 17.724C120.142 17.044 120.286 16.452 120.574 15.948C120.862 15.436 121.254 15.044 121.75 14.772C122.246 14.492 122.802 14.352 123.418 14.352C124.034 14.352 124.59 14.492 125.086 14.772C125.59 15.044 125.982 15.436 126.262 15.948C126.55 16.452 126.694 17.044 126.694 17.724C126.694 18.396 126.55 18.988 126.262 19.5C125.974 20.012 125.578 20.408 125.074 20.688C124.57 20.96 124.01 21.096 123.394 21.096ZM123.394 20.364C123.826 20.364 124.226 20.268 124.594 20.076C124.962 19.876 125.258 19.58 125.482 19.188C125.714 18.788 125.83 18.3 125.83 17.724C125.83 17.148 125.718 16.664 125.494 16.272C125.27 15.872 124.974 15.576 124.606 15.384C124.238 15.184 123.838 15.084 123.406 15.084C122.974 15.084 122.574 15.184 122.206 15.384C121.838 15.576 121.542 15.872 121.318 16.272C121.102 16.664 120.994 17.148 120.994 17.724C120.994 18.3 121.102 18.788 121.318 19.188C121.542 19.58 121.834 19.876 122.194 20.076C122.562 20.268 122.962 20.364 123.394 20.364ZM131.298 14.328C132.082 14.328 132.722 14.572 133.218 15.06C133.714 15.54 133.962 16.24 133.962 17.16V21H133.134V17.256C133.134 16.544 132.954 16 132.594 15.624C132.242 15.248 131.758 15.06 131.142 15.06C130.51 15.06 130.006 15.26 129.63 15.66C129.254 16.06 129.066 16.648 129.066 17.424V21H128.226V14.448H129.066V15.564C129.274 15.164 129.574 14.86 129.966 14.652C130.358 14.436 130.802 14.328 131.298 14.328ZM135.435 17.712C135.435 17.04 135.567 16.452 135.831 15.948C136.103 15.436 136.475 15.044 136.947 14.772C137.427 14.492 137.967 14.352 138.567 14.352C139.191 14.352 139.727 14.496 140.175 14.784C140.631 15.072 140.959 15.44 141.159 15.888V14.448H141.999V21H141.159V19.548C140.951 19.996 140.619 20.368 140.163 20.664C139.715 20.952 139.179 21.096 138.555 21.096C137.963 21.096 137.427 20.956 136.947 20.676C136.475 20.396 136.103 20 135.831 19.488C135.567 18.976 135.435 18.384 135.435 17.712ZM141.159 17.724C141.159 17.196 141.051 16.732 140.835 16.332C140.619 15.932 140.323 15.624 139.947 15.408C139.579 15.192 139.171 15.084 138.723 15.084C138.259 15.084 137.843 15.188 137.475 15.396C137.107 15.604 136.815 15.908 136.599 16.308C136.391 16.7 136.287 17.168 136.287 17.712C136.287 18.248 136.391 18.72 136.599 19.128C136.815 19.528 137.107 19.836 137.475 20.052C137.843 20.26 138.259 20.364 138.723 20.364C139.171 20.364 139.579 20.256 139.947 20.04C140.323 19.824 140.619 19.516 140.835 19.116C141.051 18.716 141.159 18.252 141.159 17.724ZM144.757 12.12V21H143.917V12.12H144.757ZM146.299 23.232V23.148C147.115 22.308 147.735 21.32 148.159 20.184C148.583 19.048 148.795 17.844 148.795 16.572C148.795 15.284 148.571 14.056 148.123 12.888C147.683 11.72 147.035 10.716 146.179 9.876V9.792H147.055C147.863 10.56 148.491 11.536 148.939 12.72C149.387 13.904 149.611 15.188 149.611 16.572C149.611 17.94 149.395 19.208 148.963 20.376C148.531 21.536 147.939 22.488 147.187 23.232H146.299Z" fill="#333333" fill-opacity="0.6"/>
</svg>
