<svg width="64" height="43" viewBox="0 0 64 43" fill="none" xmlns="http://www.w3.org/2000/svg">
<g filter="url(#filter0_d_210_2033)">
<path d="M60 17.5C60 27.165 49.6762 35 36.9412 35C24.2061 35 4 27.165 4 17.5C4 7.83502 24.2061 0 36.9412 0C49.6762 0 60 7.83502 60 17.5Z" fill="#C4C4C4"/>
<path d="M59.9 17.5C59.9 22.2945 57.3396 26.6423 53.1858 29.7947C49.0319 32.9472 43.2889 34.9 36.9412 34.9C30.5903 34.9 22.3697 32.9454 15.738 29.7841C12.4224 28.2036 9.50949 26.324 7.42691 24.2411C5.34384 22.1577 4.1 19.8797 4.1 17.5C4.1 15.1203 5.34384 12.8423 7.42691 10.7589C9.50949 8.67598 12.4224 6.7964 15.738 5.2159C22.3697 2.05462 30.5903 0.1 36.9412 0.1C43.2889 0.1 49.0319 2.05277 53.1858 5.20529C57.3396 8.35775 59.9 12.7055 59.9 17.5Z" stroke="black" stroke-width="0.2"/>
</g>
<defs>
<filter id="filter0_d_210_2033" x="0" y="0" width="64" height="43" filterUnits="userSpaceOnUse" color-interpolation-filters="sRGB">
<feFlood flood-opacity="0" result="BackgroundImageFix"/>
<feColorMatrix in="SourceAlpha" type="matrix" values="0 0 0 0 0 0 0 0 0 0 0 0 0 0 0 0 0 0 127 0" result="hardAlpha"/>
<feOffset dy="4"/>
<feGaussianBlur stdDeviation="2"/>
<feComposite in2="hardAlpha" operator="out"/>
<feColorMatrix type="matrix" values="0 0 0 0 0.988235 0 0 0 0 0.603922 0 0 0 0 0.388235 0 0 0 0.5 0"/>
<feBlend mode="normal" in2="BackgroundImageFix" result="effect1_dropShadow_210_2033"/>
<feBlend mode="normal" in="SourceGraphic" in2="effect1_dropShadow_210_2033" result="shape"/>
</filter>
</defs>
</svg>
