<svg width="66" height="17" viewBox="0 0 66 17" fill="none" xmlns="http://www.w3.org/2000/svg">
<path d="M9 2.04V4.3H3.18V7.88H7.64V10.1H3.18V16H0.38V2.04H9ZM15.9055 16.18C14.8388 16.18 13.8788 15.9467 13.0255 15.48C12.1721 15 11.4988 14.3267 11.0055 13.46C10.5255 12.5933 10.2855 11.5933 10.2855 10.46C10.2855 9.32667 10.5321 8.32667 11.0255 7.46C11.5321 6.59333 12.2188 5.92667 13.0855 5.46C13.9521 4.98 14.9188 4.74 15.9855 4.74C17.0521 4.74 18.0188 4.98 18.8855 5.46C19.7521 5.92667 20.4321 6.59333 20.9255 7.46C21.4321 8.32667 21.6855 9.32667 21.6855 10.46C21.6855 11.5933 21.4255 12.5933 20.9055 13.46C20.3988 14.3267 19.7055 15 18.8255 15.48C17.9588 15.9467 16.9855 16.18 15.9055 16.18ZM15.9055 13.74C16.4121 13.74 16.8855 13.62 17.3255 13.38C17.7788 13.1267 18.1388 12.7533 18.4055 12.26C18.6721 11.7667 18.8055 11.1667 18.8055 10.46C18.8055 9.40667 18.5255 8.6 17.9655 8.04C17.4188 7.46667 16.7455 7.18 15.9455 7.18C15.1455 7.18 14.4721 7.46667 13.9255 8.04C13.3921 8.6 13.1255 9.40667 13.1255 10.46C13.1255 11.5133 13.3855 12.3267 13.9055 12.9C14.4388 13.46 15.1055 13.74 15.9055 13.74ZM28.6594 16.18C27.5927 16.18 26.6327 15.9467 25.7794 15.48C24.926 15 24.2527 14.3267 23.7594 13.46C23.2794 12.5933 23.0394 11.5933 23.0394 10.46C23.0394 9.32667 23.286 8.32667 23.7794 7.46C24.286 6.59333 24.9727 5.92667 25.8394 5.46C26.706 4.98 27.6727 4.74 28.7394 4.74C29.806 4.74 30.7727 4.98 31.6394 5.46C32.506 5.92667 33.186 6.59333 33.6794 7.46C34.186 8.32667 34.4394 9.32667 34.4394 10.46C34.4394 11.5933 34.1794 12.5933 33.6594 13.46C33.1527 14.3267 32.4594 15 31.5794 15.48C30.7127 15.9467 29.7394 16.18 28.6594 16.18ZM28.6594 13.74C29.166 13.74 29.6394 13.62 30.0794 13.38C30.5327 13.1267 30.8927 12.7533 31.1594 12.26C31.426 11.7667 31.5594 11.1667 31.5594 10.46C31.5594 9.40667 31.2794 8.6 30.7194 8.04C30.1727 7.46667 29.4994 7.18 28.6994 7.18C27.8994 7.18 27.226 7.46667 26.6794 8.04C26.146 8.6 25.8794 9.40667 25.8794 10.46C25.8794 11.5133 26.1394 12.3267 26.6594 12.9C27.1927 13.46 27.8594 13.74 28.6594 13.74ZM35.7733 10.42C35.7733 9.3 35.9933 8.30667 36.4333 7.44C36.8866 6.57333 37.4999 5.90667 38.2733 5.44C39.0466 4.97333 39.9066 4.74 40.8533 4.74C41.5733 4.74 42.2599 4.9 42.9133 5.22C43.5666 5.52667 44.0866 5.94 44.4733 6.46V1.2H47.3133V16H44.4733V14.36C44.1266 14.9067 43.6399 15.3467 43.0133 15.68C42.3866 16.0133 41.6599 16.18 40.8333 16.18C39.8999 16.18 39.0466 15.94 38.2733 15.46C37.4999 14.98 36.8866 14.3067 36.4333 13.44C35.9933 12.56 35.7733 11.5533 35.7733 10.42ZM44.4933 10.46C44.4933 9.78 44.3599 9.2 44.0933 8.72C43.8266 8.22667 43.4666 7.85333 43.0133 7.6C42.5599 7.33333 42.0733 7.2 41.5533 7.2C41.0333 7.2 40.5533 7.32667 40.1133 7.58C39.6733 7.83333 39.3133 8.20667 39.0333 8.7C38.7666 9.18 38.6333 9.75333 38.6333 10.42C38.6333 11.0867 38.7666 11.6733 39.0333 12.18C39.3133 12.6733 39.6733 13.0533 40.1133 13.32C40.5666 13.5867 41.0466 13.72 41.5533 13.72C42.0733 13.72 42.5599 13.5933 43.0133 13.34C43.4666 13.0733 43.8266 12.7 44.0933 12.22C44.3599 11.7267 44.4933 11.14 44.4933 10.46ZM51.468 3.6C50.9746 3.6 50.5613 3.44667 50.228 3.14C49.908 2.82 49.748 2.42667 49.748 1.96C49.748 1.49333 49.908 1.10667 50.228 0.799999C50.5613 0.479999 50.9746 0.319999 51.468 0.319999C51.9613 0.319999 52.368 0.479999 52.688 0.799999C53.0213 1.10667 53.188 1.49333 53.188 1.96C53.188 2.42667 53.0213 2.82 52.688 3.14C52.368 3.44667 51.9613 3.6 51.468 3.6ZM52.848 4.92V16H50.048V4.92H52.848ZM65.9144 10.22C65.9144 10.62 65.8877 10.98 65.8344 11.3H57.7344C57.801 12.1 58.081 12.7267 58.5744 13.18C59.0677 13.6333 59.6744 13.86 60.3944 13.86C61.4344 13.86 62.1744 13.4133 62.6144 12.52H65.6344C65.3144 13.5867 64.701 14.4667 63.7944 15.16C62.8877 15.84 61.7744 16.18 60.4544 16.18C59.3877 16.18 58.4277 15.9467 57.5744 15.48C56.7344 15 56.0744 14.3267 55.5944 13.46C55.1277 12.5933 54.8944 11.5933 54.8944 10.46C54.8944 9.31333 55.1277 8.30667 55.5944 7.44C56.061 6.57333 56.7144 5.90667 57.5544 5.44C58.3944 4.97333 59.361 4.74 60.4544 4.74C61.5077 4.74 62.4477 4.96667 63.2744 5.42C64.1144 5.87333 64.761 6.52 65.2144 7.36C65.681 8.18667 65.9144 9.14 65.9144 10.22ZM63.0144 9.42C63.001 8.7 62.741 8.12667 62.2344 7.7C61.7277 7.26 61.1077 7.04 60.3744 7.04C59.681 7.04 59.0944 7.25333 58.6144 7.68C58.1477 8.09333 57.861 8.67333 57.7544 9.42H63.0144Z" fill="#333333"/>
</svg>
