<svg width="435" height="41" viewBox="0 0 435 41" fill="none" xmlns="http://www.w3.org/2000/svg">
<rect width="435" height="41" rx="20.5" fill="#FC9A63" fill-opacity="0.75"/>
<path d="M40.5797 16.576C41.4677 16.576 42.2437 16.752 42.9077 17.104C43.5717 17.456 44.0837 17.952 44.4437 18.592C44.8117 19.224 44.9957 19.956 44.9957 20.788C44.9957 21.612 44.8117 22.344 44.4437 22.984C44.0837 23.624 43.5677 24.12 42.8957 24.472C42.2317 24.824 41.4597 25 40.5797 25H37.4237V16.576H40.5797ZM40.4477 23.224C41.2237 23.224 41.8277 23.012 42.2597 22.588C42.6917 22.164 42.9077 21.564 42.9077 20.788C42.9077 20.012 42.6917 19.408 42.2597 18.976C41.8277 18.544 41.2237 18.328 40.4477 18.328H39.4757V23.224H40.4477ZM49.1904 25.096C48.5344 25.096 47.9424 24.956 47.4144 24.676C46.8944 24.396 46.4824 23.996 46.1784 23.476C45.8824 22.956 45.7344 22.348 45.7344 21.652C45.7344 20.964 45.8864 20.36 46.1904 19.84C46.4944 19.312 46.9104 18.908 47.4384 18.628C47.9664 18.348 48.5584 18.208 49.2144 18.208C49.8704 18.208 50.4624 18.348 50.9904 18.628C51.5184 18.908 51.9344 19.312 52.2384 19.84C52.5424 20.36 52.6944 20.964 52.6944 21.652C52.6944 22.34 52.5384 22.948 52.2264 23.476C51.9224 23.996 51.5024 24.396 50.9664 24.676C50.4384 24.956 49.8464 25.096 49.1904 25.096ZM49.1904 23.32C49.5824 23.32 49.9144 23.176 50.1864 22.888C50.4664 22.6 50.6064 22.188 50.6064 21.652C50.6064 21.116 50.4704 20.704 50.1984 20.416C49.9344 20.128 49.6064 19.984 49.2144 19.984C48.8144 19.984 48.4824 20.128 48.2184 20.416C47.9544 20.696 47.8224 21.108 47.8224 21.652C47.8224 22.188 47.9504 22.6 48.2064 22.888C48.4704 23.176 48.7984 23.32 49.1904 23.32ZM57.8631 18.232C58.6471 18.232 59.2711 18.488 59.7351 19C60.2071 19.504 60.4431 20.2 60.4431 21.088V25H58.4031V21.364C58.4031 20.916 58.2871 20.568 58.0551 20.32C57.8231 20.072 57.5111 19.948 57.1191 19.948C56.7271 19.948 56.4151 20.072 56.1831 20.32C55.9511 20.568 55.8351 20.916 55.8351 21.364V25H53.7831V18.304H55.8351V19.192C56.0431 18.896 56.3231 18.664 56.6751 18.496C57.0271 18.32 57.4231 18.232 57.8631 18.232ZM62.337 16.576H64.437L63.093 19.792H61.713L62.337 16.576ZM69.3744 23.26V25H68.3304C67.5864 25 67.0064 24.82 66.5904 24.46C66.1744 24.092 65.9664 23.496 65.9664 22.672V20.008H65.1504V18.304H65.9664V16.672H68.0184V18.304H69.3624V20.008H68.0184V22.696C68.0184 22.896 68.0664 23.04 68.1624 23.128C68.2584 23.216 68.4184 23.26 68.6424 23.26H69.3744ZM77.1524 25L75.1124 22.192V25H73.0604V16.12H75.1124V21.028L77.1404 18.304H79.6724L76.8884 21.664L79.6964 25H77.1524ZM84.5584 18.232C85.3424 18.232 85.9664 18.488 86.4304 19C86.9024 19.504 87.1384 20.2 87.1384 21.088V25H85.0984V21.364C85.0984 20.916 84.9824 20.568 84.7504 20.32C84.5184 20.072 84.2064 19.948 83.8144 19.948C83.4224 19.948 83.1104 20.072 82.8784 20.32C82.6464 20.568 82.5304 20.916 82.5304 21.364V25H80.4784V18.304H82.5304V19.192C82.7384 18.896 83.0184 18.664 83.3704 18.496C83.7224 18.32 84.1184 18.232 84.5584 18.232ZM91.6123 25.096C90.9563 25.096 90.3643 24.956 89.8363 24.676C89.3163 24.396 88.9043 23.996 88.6003 23.476C88.3043 22.956 88.1563 22.348 88.1563 21.652C88.1563 20.964 88.3083 20.36 88.6123 19.84C88.9163 19.312 89.3323 18.908 89.8603 18.628C90.3883 18.348 90.9803 18.208 91.6363 18.208C92.2923 18.208 92.8843 18.348 93.4123 18.628C93.9403 18.908 94.3563 19.312 94.6603 19.84C94.9643 20.36 95.1163 20.964 95.1163 21.652C95.1163 22.34 94.9603 22.948 94.6483 23.476C94.3443 23.996 93.9243 24.396 93.3883 24.676C92.8603 24.956 92.2683 25.096 91.6123 25.096ZM91.6123 23.32C92.0043 23.32 92.3363 23.176 92.6083 22.888C92.8883 22.6 93.0283 22.188 93.0283 21.652C93.0283 21.116 92.8923 20.704 92.6203 20.416C92.3563 20.128 92.0283 19.984 91.6363 19.984C91.2363 19.984 90.9043 20.128 90.6403 20.416C90.3763 20.696 90.2443 21.108 90.2443 21.652C90.2443 22.188 90.3723 22.6 90.6283 22.888C90.8923 23.176 91.2203 23.32 91.6123 23.32ZM105.817 18.304L104.005 25H101.737L100.681 20.656L99.5889 25H97.3329L95.5089 18.304H97.5609L98.5089 23.092L99.6369 18.304H101.809L102.949 23.068L103.885 18.304H105.817ZM118.754 18.304L116.942 25H114.674L113.618 20.656L112.526 25H110.27L108.446 18.304H110.498L111.446 23.092L112.574 18.304H114.746L115.886 23.068L116.822 18.304H118.754ZM123.653 18.232C124.421 18.232 125.037 18.488 125.501 19C125.965 19.504 126.197 20.2 126.197 21.088V25H124.157V21.364C124.157 20.916 124.041 20.568 123.809 20.32C123.577 20.072 123.265 19.948 122.873 19.948C122.481 19.948 122.169 20.072 121.937 20.32C121.705 20.568 121.589 20.916 121.589 21.364V25H119.537V16.12H121.589V19.204C121.797 18.908 122.081 18.672 122.441 18.496C122.801 18.32 123.205 18.232 123.653 18.232ZM127.215 21.64C127.215 20.952 127.343 20.348 127.599 19.828C127.863 19.308 128.219 18.908 128.667 18.628C129.115 18.348 129.615 18.208 130.167 18.208C130.639 18.208 131.051 18.304 131.403 18.496C131.763 18.688 132.039 18.94 132.231 19.252V18.304H134.283V25H132.231V24.052C132.031 24.364 131.751 24.616 131.391 24.808C131.039 25 130.627 25.096 130.155 25.096C129.611 25.096 129.115 24.956 128.667 24.676C128.219 24.388 127.863 23.984 127.599 23.464C127.343 22.936 127.215 22.328 127.215 21.64ZM132.231 21.652C132.231 21.14 132.087 20.736 131.799 20.44C131.519 20.144 131.175 19.996 130.767 19.996C130.359 19.996 130.011 20.144 129.723 20.44C129.443 20.728 129.303 21.128 129.303 21.64C129.303 22.152 129.443 22.56 129.723 22.864C130.011 23.16 130.359 23.308 130.767 23.308C131.175 23.308 131.519 23.16 131.799 22.864C132.087 22.568 132.231 22.164 132.231 21.652ZM139.499 23.26V25H138.455C137.711 25 137.131 24.82 136.715 24.46C136.299 24.092 136.091 23.496 136.091 22.672V20.008H135.275V18.304H136.091V16.672H138.143V18.304H139.487V20.008H138.143V22.696C138.143 22.896 138.191 23.04 138.287 23.128C138.383 23.216 138.543 23.26 138.767 23.26H139.499ZM146.917 23.26V25H145.873C145.129 25 144.549 24.82 144.133 24.46C143.717 24.092 143.509 23.496 143.509 22.672V20.008H142.693V18.304H143.509V16.672H145.561V18.304H146.905V20.008H145.561V22.696C145.561 22.896 145.609 23.04 145.705 23.128C145.801 23.216 145.961 23.26 146.185 23.26H146.917ZM151.108 25.096C150.452 25.096 149.86 24.956 149.332 24.676C148.812 24.396 148.4 23.996 148.096 23.476C147.8 22.956 147.652 22.348 147.652 21.652C147.652 20.964 147.804 20.36 148.108 19.84C148.412 19.312 148.828 18.908 149.356 18.628C149.884 18.348 150.476 18.208 151.132 18.208C151.788 18.208 152.38 18.348 152.908 18.628C153.436 18.908 153.852 19.312 154.156 19.84C154.46 20.36 154.612 20.964 154.612 21.652C154.612 22.34 154.456 22.948 154.144 23.476C153.84 23.996 153.42 24.396 152.884 24.676C152.356 24.956 151.764 25.096 151.108 25.096ZM151.108 23.32C151.5 23.32 151.832 23.176 152.104 22.888C152.384 22.6 152.524 22.188 152.524 21.652C152.524 21.116 152.388 20.704 152.116 20.416C151.852 20.128 151.524 19.984 151.132 19.984C150.732 19.984 150.4 20.128 150.136 20.416C149.872 20.696 149.74 21.108 149.74 21.652C149.74 22.188 149.868 22.6 150.124 22.888C150.388 23.176 150.716 23.32 151.108 23.32ZM164.556 21.544C164.556 21.736 164.544 21.936 164.52 22.144H159.876C159.908 22.56 160.04 22.88 160.272 23.104C160.512 23.32 160.804 23.428 161.148 23.428C161.66 23.428 162.016 23.212 162.216 22.78H164.4C164.288 23.22 164.084 23.616 163.788 23.968C163.5 24.32 163.136 24.596 162.696 24.796C162.256 24.996 161.764 25.096 161.22 25.096C160.564 25.096 159.98 24.956 159.468 24.676C158.956 24.396 158.556 23.996 158.268 23.476C157.98 22.956 157.836 22.348 157.836 21.652C157.836 20.956 157.976 20.348 158.256 19.828C158.544 19.308 158.944 18.908 159.456 18.628C159.968 18.348 160.556 18.208 161.22 18.208C161.868 18.208 162.444 18.344 162.948 18.616C163.452 18.888 163.844 19.276 164.124 19.78C164.412 20.284 164.556 20.872 164.556 21.544ZM162.456 21.004C162.456 20.652 162.336 20.372 162.096 20.164C161.856 19.956 161.556 19.852 161.196 19.852C160.852 19.852 160.56 19.952 160.32 20.152C160.088 20.352 159.944 20.636 159.888 21.004H162.456ZM165.231 21.64C165.231 20.952 165.359 20.348 165.615 19.828C165.879 19.308 166.235 18.908 166.683 18.628C167.131 18.348 167.631 18.208 168.183 18.208C168.655 18.208 169.067 18.304 169.419 18.496C169.779 18.688 170.055 18.94 170.247 19.252V18.304H172.299V25H170.247V24.052C170.047 24.364 169.767 24.616 169.407 24.808C169.055 25 168.643 25.096 168.171 25.096C167.627 25.096 167.131 24.956 166.683 24.676C166.235 24.388 165.879 23.984 165.615 23.464C165.359 22.936 165.231 22.328 165.231 21.64ZM170.247 21.652C170.247 21.14 170.103 20.736 169.815 20.44C169.535 20.144 169.191 19.996 168.783 19.996C168.375 19.996 168.027 20.144 167.739 20.44C167.459 20.728 167.319 21.128 167.319 21.64C167.319 22.152 167.459 22.56 167.739 22.864C168.027 23.16 168.375 23.308 168.783 23.308C169.191 23.308 169.535 23.16 169.815 22.864C170.103 22.568 170.247 22.164 170.247 21.652ZM177.515 23.26V25H176.471C175.727 25 175.147 24.82 174.731 24.46C174.315 24.092 174.107 23.496 174.107 22.672V20.008H173.291V18.304H174.107V16.672H176.159V18.304H177.503V20.008H176.159V22.696C176.159 22.896 176.207 23.04 176.303 23.128C176.399 23.216 176.559 23.26 176.783 23.26H177.515ZM181.118 16.108C181.974 16.108 182.658 16.332 183.17 16.78C183.69 17.228 183.95 17.86 183.95 18.676C183.95 19.428 183.702 20.016 183.206 20.44C182.718 20.856 182.07 21.068 181.262 21.076L181.202 21.976H179.402L179.342 19.744H180.062C180.678 19.744 181.146 19.668 181.466 19.516C181.794 19.364 181.958 19.088 181.958 18.688C181.958 18.408 181.882 18.188 181.73 18.028C181.578 17.868 181.366 17.788 181.094 17.788C180.806 17.788 180.582 17.872 180.422 18.04C180.262 18.2 180.182 18.42 180.182 18.7H178.25C178.234 18.212 178.334 17.772 178.55 17.38C178.774 16.988 179.102 16.68 179.534 16.456C179.974 16.224 180.502 16.108 181.118 16.108ZM180.326 25.096C179.966 25.096 179.67 24.992 179.438 24.784C179.214 24.568 179.102 24.304 179.102 23.992C179.102 23.672 179.214 23.404 179.438 23.188C179.67 22.972 179.966 22.864 180.326 22.864C180.678 22.864 180.966 22.972 181.19 23.188C181.422 23.404 181.538 23.672 181.538 23.992C181.538 24.304 181.422 24.568 181.19 24.784C180.966 24.992 180.678 25.096 180.326 25.096ZM189.71 23.416H192.398V25H187.658V16.576H189.71V23.416ZM199.689 21.544C199.689 21.736 199.677 21.936 199.653 22.144H195.009C195.041 22.56 195.173 22.88 195.405 23.104C195.645 23.32 195.937 23.428 196.281 23.428C196.793 23.428 197.149 23.212 197.349 22.78H199.533C199.421 23.22 199.217 23.616 198.921 23.968C198.633 24.32 198.269 24.596 197.829 24.796C197.389 24.996 196.897 25.096 196.353 25.096C195.697 25.096 195.113 24.956 194.601 24.676C194.089 24.396 193.689 23.996 193.401 23.476C193.113 22.956 192.969 22.348 192.969 21.652C192.969 20.956 193.109 20.348 193.389 19.828C193.677 19.308 194.077 18.908 194.589 18.628C195.101 18.348 195.689 18.208 196.353 18.208C197.001 18.208 197.577 18.344 198.081 18.616C198.585 18.888 198.977 19.276 199.257 19.78C199.545 20.284 199.689 20.872 199.689 21.544ZM197.589 21.004C197.589 20.652 197.469 20.372 197.229 20.164C196.989 19.956 196.689 19.852 196.329 19.852C195.985 19.852 195.693 19.952 195.453 20.152C195.221 20.352 195.077 20.636 195.021 21.004H197.589ZM204.503 23.26V25H203.459C202.715 25 202.135 24.82 201.719 24.46C201.303 24.092 201.095 23.496 201.095 22.672V20.008H200.279V18.304H201.095V16.672H203.147V18.304H204.491V20.008H203.147V22.696C203.147 22.896 203.195 23.04 203.291 23.128C203.387 23.216 203.547 23.26 203.771 23.26H204.503ZM214.801 18.304V25H212.749V24.088C212.541 24.384 212.257 24.624 211.897 24.808C211.545 24.984 211.153 25.072 210.721 25.072C210.209 25.072 209.757 24.96 209.365 24.736C208.973 24.504 208.669 24.172 208.453 23.74C208.237 23.308 208.129 22.8 208.129 22.216V18.304H210.169V21.94C210.169 22.388 210.285 22.736 210.517 22.984C210.749 23.232 211.061 23.356 211.453 23.356C211.853 23.356 212.169 23.232 212.401 22.984C212.633 22.736 212.749 22.388 212.749 21.94V18.304H214.801ZM218.999 25.096C218.415 25.096 217.895 24.996 217.439 24.796C216.983 24.596 216.623 24.324 216.359 23.98C216.095 23.628 215.947 23.236 215.915 22.804H217.943C217.967 23.036 218.075 23.224 218.267 23.368C218.459 23.512 218.695 23.584 218.975 23.584C219.231 23.584 219.427 23.536 219.563 23.44C219.707 23.336 219.779 23.204 219.779 23.044C219.779 22.852 219.679 22.712 219.479 22.624C219.279 22.528 218.955 22.424 218.507 22.312C218.027 22.2 217.627 22.084 217.307 21.964C216.987 21.836 216.711 21.64 216.479 21.376C216.247 21.104 216.131 20.74 216.131 20.284C216.131 19.9 216.235 19.552 216.443 19.24C216.659 18.92 216.971 18.668 217.379 18.484C217.795 18.3 218.287 18.208 218.855 18.208C219.695 18.208 220.355 18.416 220.835 18.832C221.323 19.248 221.603 19.8 221.675 20.488H219.779C219.747 20.256 219.643 20.072 219.467 19.936C219.299 19.8 219.075 19.732 218.795 19.732C218.555 19.732 218.371 19.78 218.243 19.876C218.115 19.964 218.051 20.088 218.051 20.248C218.051 20.44 218.151 20.584 218.351 20.68C218.559 20.776 218.879 20.872 219.311 20.968C219.807 21.096 220.211 21.224 220.523 21.352C220.835 21.472 221.107 21.672 221.339 21.952C221.579 22.224 221.703 22.592 221.711 23.056C221.711 23.448 221.599 23.8 221.375 24.112C221.159 24.416 220.843 24.656 220.427 24.832C220.019 25.008 219.543 25.096 218.999 25.096ZM227.562 19.252C227.754 18.94 228.03 18.688 228.39 18.496C228.75 18.304 229.162 18.208 229.626 18.208C230.178 18.208 230.678 18.348 231.126 18.628C231.574 18.908 231.926 19.308 232.182 19.828C232.446 20.348 232.578 20.952 232.578 21.64C232.578 22.328 232.446 22.936 232.182 23.464C231.926 23.984 231.574 24.388 231.126 24.676C230.678 24.956 230.178 25.096 229.626 25.096C229.154 25.096 228.742 25.004 228.39 24.82C228.038 24.628 227.762 24.376 227.562 24.064V25H225.51V16.12H227.562V19.252ZM230.49 21.64C230.49 21.128 230.346 20.728 230.058 20.44C229.778 20.144 229.43 19.996 229.014 19.996C228.606 19.996 228.258 20.144 227.97 20.44C227.69 20.736 227.55 21.14 227.55 21.652C227.55 22.164 227.69 22.568 227.97 22.864C228.258 23.16 228.606 23.308 229.014 23.308C229.422 23.308 229.77 23.16 230.058 22.864C230.346 22.56 230.49 22.152 230.49 21.64ZM235.706 19.42C235.946 19.052 236.246 18.764 236.606 18.556C236.966 18.34 237.366 18.232 237.806 18.232V20.404H237.242C236.73 20.404 236.346 20.516 236.09 20.74C235.834 20.956 235.706 21.34 235.706 21.892V25H233.654V18.304H235.706V19.42ZM239.819 17.608C239.459 17.608 239.163 17.504 238.931 17.296C238.707 17.08 238.595 16.816 238.595 16.504C238.595 16.184 238.707 15.92 238.931 15.712C239.163 15.496 239.459 15.388 239.819 15.388C240.171 15.388 240.459 15.496 240.683 15.712C240.915 15.92 241.031 16.184 241.031 16.504C241.031 16.816 240.915 17.08 240.683 17.296C240.459 17.504 240.171 17.608 239.819 17.608ZM240.839 18.304V25H238.787V18.304H240.839ZM246.406 18.232C247.19 18.232 247.814 18.488 248.278 19C248.75 19.504 248.986 20.2 248.986 21.088V25H246.946V21.364C246.946 20.916 246.83 20.568 246.598 20.32C246.366 20.072 246.054 19.948 245.662 19.948C245.27 19.948 244.958 20.072 244.726 20.32C244.494 20.568 244.378 20.916 244.378 21.364V25H242.326V18.304H244.378V19.192C244.586 18.896 244.866 18.664 245.218 18.496C245.57 18.32 245.966 18.232 246.406 18.232ZM252.956 18.208C253.428 18.208 253.84 18.304 254.192 18.496C254.552 18.688 254.828 18.94 255.02 19.252V18.304H257.072V24.988C257.072 25.604 256.948 26.16 256.7 26.656C256.46 27.16 256.088 27.56 255.584 27.856C255.088 28.152 254.468 28.3 253.724 28.3C252.732 28.3 251.928 28.064 251.312 27.592C250.696 27.128 250.344 26.496 250.256 25.696H252.284C252.348 25.952 252.5 26.152 252.74 26.296C252.98 26.448 253.276 26.524 253.628 26.524C254.052 26.524 254.388 26.4 254.636 26.152C254.892 25.912 255.02 25.524 255.02 24.988V24.04C254.82 24.352 254.544 24.608 254.192 24.808C253.84 25 253.428 25.096 252.956 25.096C252.404 25.096 251.904 24.956 251.456 24.676C251.008 24.388 250.652 23.984 250.388 23.464C250.132 22.936 250.004 22.328 250.004 21.64C250.004 20.952 250.132 20.348 250.388 19.828C250.652 19.308 251.008 18.908 251.456 18.628C251.904 18.348 252.404 18.208 252.956 18.208ZM255.02 21.652C255.02 21.14 254.876 20.736 254.588 20.44C254.308 20.144 253.964 19.996 253.556 19.996C253.148 19.996 252.8 20.144 252.512 20.44C252.232 20.728 252.092 21.128 252.092 21.64C252.092 22.152 252.232 22.56 252.512 22.864C252.8 23.16 253.148 23.308 253.556 23.308C253.964 23.308 254.308 23.16 254.588 22.864C254.876 22.568 255.02 22.164 255.02 21.652ZM267.939 18.304L263.739 28.18H261.531L263.067 24.772L260.343 18.304H262.635L264.183 22.492L265.719 18.304H267.939ZM271.73 25.096C271.074 25.096 270.482 24.956 269.954 24.676C269.434 24.396 269.022 23.996 268.718 23.476C268.422 22.956 268.274 22.348 268.274 21.652C268.274 20.964 268.426 20.36 268.729 19.84C269.034 19.312 269.45 18.908 269.978 18.628C270.506 18.348 271.098 18.208 271.754 18.208C272.41 18.208 273.002 18.348 273.53 18.628C274.058 18.908 274.474 19.312 274.778 19.84C275.082 20.36 275.234 20.964 275.234 21.652C275.234 22.34 275.078 22.948 274.766 23.476C274.462 23.996 274.042 24.396 273.506 24.676C272.978 24.956 272.386 25.096 271.73 25.096ZM271.73 23.32C272.122 23.32 272.454 23.176 272.726 22.888C273.006 22.6 273.146 22.188 273.146 21.652C273.146 21.116 273.01 20.704 272.738 20.416C272.474 20.128 272.146 19.984 271.754 19.984C271.354 19.984 271.022 20.128 270.758 20.416C270.494 20.696 270.362 21.108 270.362 21.652C270.362 22.188 270.49 22.6 270.746 22.888C271.01 23.176 271.338 23.32 271.73 23.32ZM282.934 18.304V25H280.882V24.088C280.674 24.384 280.39 24.624 280.03 24.808C279.678 24.984 279.286 25.072 278.854 25.072C278.342 25.072 277.89 24.96 277.498 24.736C277.106 24.504 276.802 24.172 276.586 23.74C276.37 23.308 276.262 22.8 276.262 22.216V18.304H278.302V21.94C278.302 22.388 278.418 22.736 278.65 22.984C278.882 23.232 279.194 23.356 279.586 23.356C279.986 23.356 280.302 23.232 280.534 22.984C280.766 22.736 280.882 22.388 280.882 21.94V18.304H282.934ZM289.675 25.096C289.091 25.096 288.571 24.996 288.115 24.796C287.659 24.596 287.299 24.324 287.035 23.98C286.771 23.628 286.623 23.236 286.591 22.804H288.619C288.643 23.036 288.751 23.224 288.943 23.368C289.135 23.512 289.371 23.584 289.651 23.584C289.907 23.584 290.103 23.536 290.239 23.44C290.383 23.336 290.455 23.204 290.455 23.044C290.455 22.852 290.355 22.712 290.155 22.624C289.955 22.528 289.631 22.424 289.183 22.312C288.703 22.2 288.303 22.084 287.983 21.964C287.663 21.836 287.387 21.64 287.155 21.376C286.923 21.104 286.807 20.74 286.807 20.284C286.807 19.9 286.911 19.552 287.119 19.24C287.335 18.92 287.647 18.668 288.055 18.484C288.471 18.3 288.963 18.208 289.531 18.208C290.371 18.208 291.031 18.416 291.511 18.832C291.999 19.248 292.279 19.8 292.351 20.488H290.455C290.423 20.256 290.319 20.072 290.143 19.936C289.975 19.8 289.751 19.732 289.471 19.732C289.231 19.732 289.047 19.78 288.919 19.876C288.791 19.964 288.727 20.088 288.727 20.248C288.727 20.44 288.827 20.584 289.027 20.68C289.235 20.776 289.555 20.872 289.987 20.968C290.483 21.096 290.887 21.224 291.199 21.352C291.511 21.472 291.783 21.672 292.015 21.952C292.255 22.224 292.379 22.592 292.387 23.056C292.387 23.448 292.275 23.8 292.051 24.112C291.835 24.416 291.519 24.656 291.103 24.832C290.695 25.008 290.219 25.096 289.675 25.096ZM296.69 25.096C296.034 25.096 295.442 24.956 294.914 24.676C294.394 24.396 293.982 23.996 293.678 23.476C293.382 22.956 293.234 22.348 293.234 21.652C293.234 20.964 293.386 20.36 293.69 19.84C293.994 19.312 294.41 18.908 294.938 18.628C295.466 18.348 296.058 18.208 296.714 18.208C297.37 18.208 297.962 18.348 298.49 18.628C299.018 18.908 299.434 19.312 299.738 19.84C300.042 20.36 300.194 20.964 300.194 21.652C300.194 22.34 300.038 22.948 299.726 23.476C299.422 23.996 299.002 24.396 298.466 24.676C297.938 24.956 297.346 25.096 296.69 25.096ZM296.69 23.32C297.082 23.32 297.414 23.176 297.686 22.888C297.966 22.6 298.106 22.188 298.106 21.652C298.106 21.116 297.97 20.704 297.698 20.416C297.434 20.128 297.106 19.984 296.714 19.984C296.314 19.984 295.982 20.128 295.718 20.416C295.454 20.696 295.322 21.108 295.322 21.652C295.322 22.188 295.45 22.6 295.706 22.888C295.97 23.176 296.298 23.32 296.69 23.32ZM309.827 18.232C310.659 18.232 311.319 18.484 311.807 18.988C312.303 19.492 312.551 20.192 312.551 21.088V25H310.511V21.364C310.511 20.932 310.395 20.6 310.163 20.368C309.939 20.128 309.627 20.008 309.227 20.008C308.827 20.008 308.511 20.128 308.279 20.368C308.055 20.6 307.943 20.932 307.943 21.364V25H305.903V21.364C305.903 20.932 305.787 20.6 305.555 20.368C305.331 20.128 305.019 20.008 304.619 20.008C304.219 20.008 303.903 20.128 303.671 20.368C303.447 20.6 303.335 20.932 303.335 21.364V25H301.283V18.304H303.335V19.144C303.543 18.864 303.815 18.644 304.151 18.484C304.487 18.316 304.867 18.232 305.291 18.232C305.795 18.232 306.243 18.34 306.635 18.556C307.035 18.772 307.347 19.08 307.571 19.48C307.803 19.112 308.119 18.812 308.519 18.58C308.919 18.348 309.355 18.232 309.827 18.232ZM320.298 21.544C320.298 21.736 320.286 21.936 320.262 22.144H315.618C315.65 22.56 315.782 22.88 316.014 23.104C316.254 23.32 316.546 23.428 316.89 23.428C317.402 23.428 317.758 23.212 317.958 22.78H320.142C320.03 23.22 319.826 23.616 319.53 23.968C319.242 24.32 318.878 24.596 318.438 24.796C317.998 24.996 317.506 25.096 316.962 25.096C316.306 25.096 315.722 24.956 315.21 24.676C314.698 24.396 314.298 23.996 314.01 23.476C313.722 22.956 313.578 22.348 313.578 21.652C313.578 20.956 313.718 20.348 313.998 19.828C314.286 19.308 314.686 18.908 315.198 18.628C315.71 18.348 316.298 18.208 316.962 18.208C317.61 18.208 318.186 18.344 318.69 18.616C319.194 18.888 319.586 19.276 319.866 19.78C320.154 20.284 320.298 20.872 320.298 21.544ZM318.198 21.004C318.198 20.652 318.078 20.372 317.838 20.164C317.598 19.956 317.298 19.852 316.938 19.852C316.594 19.852 316.302 19.952 316.062 20.152C315.83 20.352 315.686 20.636 315.63 21.004H318.198ZM327.284 20.008H326.18V25H324.128V20.008H323.384V18.304H324.128V18.112C324.128 17.288 324.364 16.664 324.836 16.24C325.308 15.808 326 15.592 326.912 15.592C327.064 15.592 327.176 15.596 327.248 15.604V17.344C326.856 17.32 326.58 17.376 326.42 17.512C326.26 17.648 326.18 17.892 326.18 18.244V18.304H327.284V20.008ZM330.3 19.42C330.54 19.052 330.84 18.764 331.2 18.556C331.56 18.34 331.96 18.232 332.4 18.232V20.404H331.836C331.324 20.404 330.94 20.516 330.684 20.74C330.428 20.956 330.3 21.34 330.3 21.892V25H328.248V18.304H330.3V19.42ZM339.693 21.544C339.693 21.736 339.681 21.936 339.657 22.144H335.013C335.045 22.56 335.177 22.88 335.409 23.104C335.649 23.32 335.941 23.428 336.285 23.428C336.797 23.428 337.153 23.212 337.353 22.78H339.537C339.425 23.22 339.221 23.616 338.925 23.968C338.637 24.32 338.273 24.596 337.833 24.796C337.393 24.996 336.901 25.096 336.357 25.096C335.701 25.096 335.117 24.956 334.605 24.676C334.093 24.396 333.693 23.996 333.405 23.476C333.117 22.956 332.973 22.348 332.973 21.652C332.973 20.956 333.113 20.348 333.393 19.828C333.681 19.308 334.081 18.908 334.593 18.628C335.105 18.348 335.693 18.208 336.357 18.208C337.005 18.208 337.581 18.344 338.085 18.616C338.589 18.888 338.981 19.276 339.261 19.78C339.549 20.284 339.693 20.872 339.693 21.544ZM337.593 21.004C337.593 20.652 337.473 20.372 337.233 20.164C336.993 19.956 336.693 19.852 336.333 19.852C335.989 19.852 335.697 19.952 335.457 20.152C335.225 20.352 335.081 20.636 335.025 21.004H337.593ZM343.499 25.096C342.915 25.096 342.395 24.996 341.939 24.796C341.483 24.596 341.123 24.324 340.859 23.98C340.595 23.628 340.447 23.236 340.415 22.804H342.443C342.467 23.036 342.575 23.224 342.767 23.368C342.959 23.512 343.195 23.584 343.475 23.584C343.731 23.584 343.927 23.536 344.063 23.44C344.207 23.336 344.279 23.204 344.279 23.044C344.279 22.852 344.179 22.712 343.979 22.624C343.779 22.528 343.455 22.424 343.007 22.312C342.527 22.2 342.127 22.084 341.807 21.964C341.487 21.836 341.211 21.64 340.979 21.376C340.747 21.104 340.631 20.74 340.631 20.284C340.631 19.9 340.735 19.552 340.943 19.24C341.159 18.92 341.471 18.668 341.879 18.484C342.295 18.3 342.787 18.208 343.355 18.208C344.195 18.208 344.855 18.416 345.335 18.832C345.823 19.248 346.103 19.8 346.175 20.488H344.279C344.247 20.256 344.143 20.072 343.967 19.936C343.799 19.8 343.575 19.732 343.295 19.732C343.055 19.732 342.871 19.78 342.743 19.876C342.615 19.964 342.551 20.088 342.551 20.248C342.551 20.44 342.651 20.584 342.851 20.68C343.059 20.776 343.379 20.872 343.811 20.968C344.307 21.096 344.711 21.224 345.023 21.352C345.335 21.472 345.607 21.672 345.839 21.952C346.079 22.224 346.203 22.592 346.211 23.056C346.211 23.448 346.099 23.8 345.875 24.112C345.659 24.416 345.343 24.656 344.927 24.832C344.519 25.008 344.043 25.096 343.499 25.096ZM351.583 18.232C352.351 18.232 352.967 18.488 353.431 19C353.895 19.504 354.127 20.2 354.127 21.088V25H352.087V21.364C352.087 20.916 351.971 20.568 351.739 20.32C351.507 20.072 351.195 19.948 350.803 19.948C350.411 19.948 350.099 20.072 349.867 20.32C349.635 20.568 349.519 20.916 349.519 21.364V25H347.467V16.12H349.519V19.204C349.727 18.908 350.011 18.672 350.371 18.496C350.731 18.32 351.135 18.232 351.583 18.232ZM366.64 18.232C367.472 18.232 368.132 18.484 368.62 18.988C369.116 19.492 369.364 20.192 369.364 21.088V25H367.324V21.364C367.324 20.932 367.208 20.6 366.976 20.368C366.752 20.128 366.44 20.008 366.04 20.008C365.64 20.008 365.324 20.128 365.092 20.368C364.868 20.6 364.756 20.932 364.756 21.364V25H362.716V21.364C362.716 20.932 362.6 20.6 362.368 20.368C362.144 20.128 361.832 20.008 361.432 20.008C361.032 20.008 360.716 20.128 360.484 20.368C360.26 20.6 360.148 20.932 360.148 21.364V25H358.096V18.304H360.148V19.144C360.356 18.864 360.628 18.644 360.964 18.484C361.3 18.316 361.68 18.232 362.104 18.232C362.608 18.232 363.056 18.34 363.448 18.556C363.848 18.772 364.16 19.08 364.384 19.48C364.616 19.112 364.932 18.812 365.332 18.58C365.732 18.348 366.168 18.232 366.64 18.232ZM377.111 21.544C377.111 21.736 377.099 21.936 377.075 22.144H372.431C372.463 22.56 372.595 22.88 372.827 23.104C373.067 23.32 373.359 23.428 373.703 23.428C374.215 23.428 374.571 23.212 374.771 22.78H376.955C376.843 23.22 376.639 23.616 376.343 23.968C376.055 24.32 375.691 24.596 375.251 24.796C374.811 24.996 374.319 25.096 373.775 25.096C373.119 25.096 372.535 24.956 372.023 24.676C371.511 24.396 371.111 23.996 370.823 23.476C370.535 22.956 370.391 22.348 370.391 21.652C370.391 20.956 370.531 20.348 370.811 19.828C371.099 19.308 371.499 18.908 372.011 18.628C372.523 18.348 373.111 18.208 373.775 18.208C374.423 18.208 374.999 18.344 375.503 18.616C376.007 18.888 376.399 19.276 376.679 19.78C376.967 20.284 377.111 20.872 377.111 21.544ZM375.011 21.004C375.011 20.652 374.891 20.372 374.651 20.164C374.411 19.956 374.111 19.852 373.751 19.852C373.407 19.852 373.115 19.952 372.875 20.152C372.643 20.352 372.499 20.636 372.443 21.004H375.011ZM382.273 18.232C383.057 18.232 383.681 18.488 384.145 19C384.617 19.504 384.853 20.2 384.853 21.088V25H382.813V21.364C382.813 20.916 382.697 20.568 382.465 20.32C382.233 20.072 381.921 19.948 381.529 19.948C381.137 19.948 380.825 20.072 380.593 20.32C380.361 20.568 380.245 20.916 380.245 21.364V25H378.193V18.304H380.245V19.192C380.453 18.896 380.733 18.664 381.085 18.496C381.437 18.32 381.833 18.232 382.273 18.232ZM392.891 18.304V25H390.839V24.088C390.631 24.384 390.347 24.624 389.987 24.808C389.635 24.984 389.243 25.072 388.811 25.072C388.299 25.072 387.847 24.96 387.455 24.736C387.063 24.504 386.759 24.172 386.543 23.74C386.327 23.308 386.219 22.8 386.219 22.216V18.304H388.259V21.94C388.259 22.388 388.375 22.736 388.607 22.984C388.839 23.232 389.151 23.356 389.543 23.356C389.943 23.356 390.259 23.232 390.491 22.984C390.723 22.736 390.839 22.388 390.839 21.94V18.304H392.891ZM397.065 16.276L396.825 22.024H395.085L394.845 16.276H397.065ZM395.985 25.096C395.625 25.096 395.329 24.992 395.097 24.784C394.873 24.568 394.761 24.304 394.761 23.992C394.761 23.672 394.873 23.404 395.097 23.188C395.329 22.972 395.625 22.864 395.985 22.864C396.337 22.864 396.625 22.972 396.849 23.188C397.081 23.404 397.197 23.672 397.197 23.992C397.197 24.304 397.081 24.568 396.849 24.784C396.625 24.992 396.337 25.096 395.985 25.096Z" fill="#333333"/>
</svg>
