<svg width="397" height="41" viewBox="0 0 397 41" fill="none" xmlns="http://www.w3.org/2000/svg">
<rect width="392.251" height="41" rx="20.5" fill="#FC9A63" fill-opacity="0.75"/>
<path d="M36.6545 20.68C37.1425 20.784 37.5345 21.028 37.8305 21.412C38.1265 21.788 38.2745 22.22 38.2745 22.708C38.2745 23.412 38.0265 23.972 37.5305 24.388C37.0425 24.796 36.3585 25 35.4785 25H31.5545V16.576H35.3465C36.2025 16.576 36.8705 16.772 37.3505 17.164C37.8385 17.556 38.0825 18.088 38.0825 18.76C38.0825 19.256 37.9505 19.668 37.6865 19.996C37.4305 20.324 37.0865 20.552 36.6545 20.68ZM33.6065 19.984H34.9505C35.2865 19.984 35.5425 19.912 35.7185 19.768C35.9025 19.616 35.9945 19.396 35.9945 19.108C35.9945 18.82 35.9025 18.6 35.7185 18.448C35.5425 18.296 35.2865 18.22 34.9505 18.22H33.6065V19.984ZM35.1185 23.344C35.4625 23.344 35.7265 23.268 35.9105 23.116C36.1025 22.956 36.1985 22.728 36.1985 22.432C36.1985 22.136 36.0985 21.904 35.8985 21.736C35.7065 21.568 35.4385 21.484 35.0945 21.484H33.6065V23.344H35.1185ZM42.5127 25.096C41.8567 25.096 41.2647 24.956 40.7367 24.676C40.2167 24.396 39.8047 23.996 39.5007 23.476C39.2047 22.956 39.0567 22.348 39.0567 21.652C39.0567 20.964 39.2087 20.36 39.5127 19.84C39.8167 19.312 40.2327 18.908 40.7607 18.628C41.2887 18.348 41.8807 18.208 42.5367 18.208C43.1927 18.208 43.7847 18.348 44.3127 18.628C44.8407 18.908 45.2567 19.312 45.5607 19.84C45.8647 20.36 46.0167 20.964 46.0167 21.652C46.0167 22.34 45.8607 22.948 45.5487 23.476C45.2447 23.996 44.8247 24.396 44.2887 24.676C43.7607 24.956 43.1687 25.096 42.5127 25.096ZM42.5127 23.32C42.9047 23.32 43.2367 23.176 43.5087 22.888C43.7887 22.6 43.9287 22.188 43.9287 21.652C43.9287 21.116 43.7927 20.704 43.5207 20.416C43.2567 20.128 42.9287 19.984 42.5367 19.984C42.1367 19.984 41.8047 20.128 41.5407 20.416C41.2767 20.696 41.1447 21.108 41.1447 21.652C41.1447 22.188 41.2727 22.6 41.5287 22.888C41.7927 23.176 42.1207 23.32 42.5127 23.32ZM53.7173 18.304V25H51.6653V24.088C51.4573 24.384 51.1733 24.624 50.8133 24.808C50.4613 24.984 50.0693 25.072 49.6373 25.072C49.1253 25.072 48.6733 24.96 48.2813 24.736C47.8893 24.504 47.5853 24.172 47.3693 23.74C47.1533 23.308 47.0453 22.8 47.0453 22.216V18.304H49.0853V21.94C49.0853 22.388 49.2013 22.736 49.4333 22.984C49.6653 23.232 49.9773 23.356 50.3693 23.356C50.7693 23.356 51.0853 23.232 51.3173 22.984C51.5493 22.736 51.6653 22.388 51.6653 21.94V18.304H53.7173ZM57.7353 18.208C58.2073 18.208 58.6193 18.304 58.9713 18.496C59.3313 18.688 59.6073 18.94 59.7993 19.252V18.304H61.8513V24.988C61.8513 25.604 61.7273 26.16 61.4793 26.656C61.2393 27.16 60.8673 27.56 60.3633 27.856C59.8673 28.152 59.2473 28.3 58.5033 28.3C57.5113 28.3 56.7073 28.064 56.0913 27.592C55.4753 27.128 55.1233 26.496 55.0353 25.696H57.0633C57.1273 25.952 57.2793 26.152 57.5193 26.296C57.7593 26.448 58.0553 26.524 58.4073 26.524C58.8313 26.524 59.1673 26.4 59.4153 26.152C59.6713 25.912 59.7993 25.524 59.7993 24.988V24.04C59.5993 24.352 59.3233 24.608 58.9713 24.808C58.6193 25 58.2073 25.096 57.7353 25.096C57.1833 25.096 56.6833 24.956 56.2353 24.676C55.7873 24.388 55.4313 23.984 55.1673 23.464C54.9113 22.936 54.7833 22.328 54.7833 21.64C54.7833 20.952 54.9113 20.348 55.1673 19.828C55.4313 19.308 55.7873 18.908 56.2353 18.628C56.6833 18.348 57.1833 18.208 57.7353 18.208ZM59.7993 21.652C59.7993 21.14 59.6553 20.736 59.3673 20.44C59.0873 20.144 58.7433 19.996 58.3353 19.996C57.9273 19.996 57.5793 20.144 57.2913 20.44C57.0113 20.728 56.8713 21.128 56.8713 21.64C56.8713 22.152 57.0113 22.56 57.2913 22.864C57.5793 23.16 57.9273 23.308 58.3353 23.308C58.7433 23.308 59.0873 23.16 59.3673 22.864C59.6553 22.568 59.7993 22.164 59.7993 21.652ZM67.4518 18.232C68.2198 18.232 68.8358 18.488 69.2998 19C69.7638 19.504 69.9958 20.2 69.9958 21.088V25H67.9558V21.364C67.9558 20.916 67.8398 20.568 67.6078 20.32C67.3758 20.072 67.0638 19.948 66.6718 19.948C66.2798 19.948 65.9678 20.072 65.7358 20.32C65.5038 20.568 65.3878 20.916 65.3878 21.364V25H63.3358V16.12H65.3878V19.204C65.5958 18.908 65.8798 18.672 66.2398 18.496C66.5998 18.32 67.0038 18.232 67.4518 18.232ZM75.1537 23.26V25H74.1097C73.3657 25 72.7857 24.82 72.3697 24.46C71.9537 24.092 71.7457 23.496 71.7457 22.672V20.008H70.9297V18.304H71.7457V16.672H73.7977V18.304H75.1417V20.008H73.7977V22.696C73.7977 22.896 73.8457 23.04 73.9417 23.128C74.0377 23.216 74.1977 23.26 74.4217 23.26H75.1537ZM78.4317 21.64C78.4317 20.952 78.5597 20.348 78.8157 19.828C79.0797 19.308 79.4357 18.908 79.8837 18.628C80.3317 18.348 80.8317 18.208 81.3837 18.208C81.8557 18.208 82.2677 18.304 82.6197 18.496C82.9797 18.688 83.2557 18.94 83.4477 19.252V18.304H85.4997V25H83.4477V24.052C83.2477 24.364 82.9677 24.616 82.6077 24.808C82.2557 25 81.8437 25.096 81.3717 25.096C80.8277 25.096 80.3317 24.956 79.8837 24.676C79.4357 24.388 79.0797 23.984 78.8157 23.464C78.5597 22.936 78.4317 22.328 78.4317 21.64ZM83.4477 21.652C83.4477 21.14 83.3037 20.736 83.0157 20.44C82.7357 20.144 82.3917 19.996 81.9837 19.996C81.5757 19.996 81.2277 20.144 80.9397 20.44C80.6597 20.728 80.5197 21.128 80.5197 21.64C80.5197 22.152 80.6597 22.56 80.9397 22.864C81.2277 23.16 81.5757 23.308 81.9837 23.308C82.3917 23.308 82.7357 23.16 83.0157 22.864C83.3037 22.568 83.4477 22.164 83.4477 21.652ZM93.6072 18.232C94.3912 18.232 95.0152 18.488 95.4792 19C95.9512 19.504 96.1872 20.2 96.1872 21.088V25H94.1472V21.364C94.1472 20.916 94.0312 20.568 93.7992 20.32C93.5672 20.072 93.2552 19.948 92.8632 19.948C92.4712 19.948 92.1592 20.072 91.9272 20.32C91.6952 20.568 91.5792 20.916 91.5792 21.364V25H89.5272V18.304H91.5792V19.192C91.7872 18.896 92.0672 18.664 92.4192 18.496C92.7712 18.32 93.1672 18.232 93.6072 18.232ZM103.925 21.544C103.925 21.736 103.913 21.936 103.889 22.144H99.2451C99.2771 22.56 99.4091 22.88 99.6411 23.104C99.8811 23.32 100.173 23.428 100.517 23.428C101.029 23.428 101.385 23.212 101.585 22.78H103.769C103.657 23.22 103.453 23.616 103.157 23.968C102.869 24.32 102.505 24.596 102.065 24.796C101.625 24.996 101.133 25.096 100.589 25.096C99.9331 25.096 99.3491 24.956 98.8371 24.676C98.3251 24.396 97.9251 23.996 97.6371 23.476C97.3491 22.956 97.2051 22.348 97.2051 21.652C97.2051 20.956 97.3451 20.348 97.6251 19.828C97.9131 19.308 98.3131 18.908 98.8251 18.628C99.3371 18.348 99.9251 18.208 100.589 18.208C101.237 18.208 101.813 18.344 102.317 18.616C102.821 18.888 103.213 19.276 103.493 19.78C103.781 20.284 103.925 20.872 103.925 21.544ZM101.825 21.004C101.825 20.652 101.705 20.372 101.465 20.164C101.225 19.956 100.925 19.852 100.565 19.852C100.221 19.852 99.9291 19.952 99.6891 20.152C99.4571 20.352 99.3131 20.636 99.2571 21.004H101.825ZM114.62 18.304L112.808 25H110.54L109.484 20.656L108.392 25H106.136L104.312 18.304H106.364L107.312 23.092L108.44 18.304H110.612L111.752 23.068L112.688 18.304H114.62ZM117.537 21.64C117.537 20.952 117.665 20.348 117.921 19.828C118.185 19.308 118.541 18.908 118.989 18.628C119.437 18.348 119.937 18.208 120.489 18.208C120.929 18.208 121.329 18.3 121.689 18.484C122.057 18.668 122.345 18.916 122.553 19.228V16.12H124.605V25H122.553V24.04C122.361 24.36 122.085 24.616 121.725 24.808C121.373 25 120.961 25.096 120.489 25.096C119.937 25.096 119.437 24.956 118.989 24.676C118.541 24.388 118.185 23.984 117.921 23.464C117.665 22.936 117.537 22.328 117.537 21.64ZM122.553 21.652C122.553 21.14 122.409 20.736 122.121 20.44C121.841 20.144 121.497 19.996 121.089 19.996C120.681 19.996 120.333 20.144 120.045 20.44C119.765 20.728 119.625 21.128 119.625 21.64C119.625 22.152 119.765 22.56 120.045 22.864C120.333 23.16 120.681 23.308 121.089 23.308C121.497 23.308 121.841 23.16 122.121 22.864C122.409 22.568 122.553 22.164 122.553 21.652ZM132.402 21.544C132.402 21.736 132.39 21.936 132.366 22.144H127.722C127.754 22.56 127.886 22.88 128.118 23.104C128.358 23.32 128.65 23.428 128.994 23.428C129.506 23.428 129.862 23.212 130.062 22.78H132.246C132.134 23.22 131.93 23.616 131.634 23.968C131.346 24.32 130.982 24.596 130.542 24.796C130.102 24.996 129.61 25.096 129.066 25.096C128.41 25.096 127.826 24.956 127.314 24.676C126.802 24.396 126.402 23.996 126.114 23.476C125.826 22.956 125.682 22.348 125.682 21.652C125.682 20.956 125.822 20.348 126.102 19.828C126.39 19.308 126.79 18.908 127.302 18.628C127.814 18.348 128.402 18.208 129.066 18.208C129.714 18.208 130.29 18.344 130.794 18.616C131.298 18.888 131.69 19.276 131.97 19.78C132.258 20.284 132.402 20.872 132.402 21.544ZM130.302 21.004C130.302 20.652 130.182 20.372 129.942 20.164C129.702 19.956 129.402 19.852 129.042 19.852C128.698 19.852 128.406 19.952 128.166 20.152C127.934 20.352 127.79 20.636 127.734 21.004H130.302ZM136.496 23.08L137.948 18.304H140.132L137.756 25H135.224L132.848 18.304H135.044L136.496 23.08ZM142.028 17.608C141.668 17.608 141.372 17.504 141.14 17.296C140.916 17.08 140.804 16.816 140.804 16.504C140.804 16.184 140.916 15.92 141.14 15.712C141.372 15.496 141.668 15.388 142.028 15.388C142.38 15.388 142.668 15.496 142.892 15.712C143.124 15.92 143.24 16.184 143.24 16.504C143.24 16.816 143.124 17.08 142.892 17.296C142.668 17.504 142.38 17.608 142.028 17.608ZM143.048 18.304V25H140.996V18.304H143.048ZM144.127 21.652C144.127 20.956 144.267 20.348 144.547 19.828C144.835 19.308 145.231 18.908 145.735 18.628C146.247 18.348 146.831 18.208 147.487 18.208C148.327 18.208 149.027 18.428 149.587 18.868C150.155 19.308 150.527 19.928 150.703 20.728H148.519C148.335 20.216 147.979 19.96 147.451 19.96C147.075 19.96 146.775 20.108 146.551 20.404C146.327 20.692 146.215 21.108 146.215 21.652C146.215 22.196 146.327 22.616 146.551 22.912C146.775 23.2 147.075 23.344 147.451 23.344C147.979 23.344 148.335 23.088 148.519 22.576H150.703C150.527 23.36 150.155 23.976 149.587 24.424C149.019 24.872 148.319 25.096 147.487 25.096C146.831 25.096 146.247 24.956 145.735 24.676C145.231 24.396 144.835 23.996 144.547 23.476C144.267 22.956 144.127 22.348 144.127 21.652ZM158.113 21.544C158.113 21.736 158.101 21.936 158.077 22.144H153.433C153.465 22.56 153.597 22.88 153.829 23.104C154.069 23.32 154.361 23.428 154.705 23.428C155.217 23.428 155.573 23.212 155.773 22.78H157.957C157.845 23.22 157.641 23.616 157.345 23.968C157.057 24.32 156.693 24.596 156.253 24.796C155.813 24.996 155.321 25.096 154.777 25.096C154.121 25.096 153.537 24.956 153.025 24.676C152.513 24.396 152.113 23.996 151.825 23.476C151.537 22.956 151.393 22.348 151.393 21.652C151.393 20.956 151.533 20.348 151.813 19.828C152.101 19.308 152.501 18.908 153.013 18.628C153.525 18.348 154.113 18.208 154.777 18.208C155.425 18.208 156.001 18.344 156.505 18.616C157.009 18.888 157.401 19.276 157.681 19.78C157.969 20.284 158.113 20.872 158.113 21.544ZM156.013 21.004C156.013 20.652 155.893 20.372 155.653 20.164C155.413 19.956 155.113 19.852 154.753 19.852C154.409 19.852 154.117 19.952 153.877 20.152C153.645 20.352 153.501 20.636 153.445 21.004H156.013ZM161.895 16.276L161.655 22.024H159.915L159.675 16.276H161.895ZM160.815 25.096C160.455 25.096 160.159 24.992 159.927 24.784C159.703 24.568 159.591 24.304 159.591 23.992C159.591 23.672 159.703 23.404 159.927 23.188C160.159 22.972 160.455 22.864 160.815 22.864C161.167 22.864 161.455 22.972 161.679 23.188C161.911 23.404 162.027 23.672 162.027 23.992C162.027 24.304 161.911 24.568 161.679 24.784C161.455 24.992 161.167 25.096 160.815 25.096ZM178.029 16.576L175.833 25H173.349L172.005 19.456L170.613 25H168.129L165.993 16.576H168.189L169.401 22.708L170.901 16.576H173.157L174.597 22.708L175.821 16.576H178.029ZM178.65 21.64C178.65 20.952 178.778 20.348 179.034 19.828C179.298 19.308 179.654 18.908 180.102 18.628C180.55 18.348 181.05 18.208 181.602 18.208C182.074 18.208 182.486 18.304 182.838 18.496C183.198 18.688 183.474 18.94 183.666 19.252V18.304H185.718V25H183.666V24.052C183.466 24.364 183.186 24.616 182.826 24.808C182.474 25 182.062 25.096 181.59 25.096C181.046 25.096 180.55 24.956 180.102 24.676C179.654 24.388 179.298 23.984 179.034 23.464C178.778 22.936 178.65 22.328 178.65 21.64ZM183.666 21.652C183.666 21.14 183.522 20.736 183.234 20.44C182.954 20.144 182.61 19.996 182.202 19.996C181.794 19.996 181.446 20.144 181.158 20.44C180.878 20.728 180.738 21.128 180.738 21.64C180.738 22.152 180.878 22.56 181.158 22.864C181.446 23.16 181.794 23.308 182.202 23.308C182.61 23.308 182.954 23.16 183.234 22.864C183.522 22.568 183.666 22.164 183.666 21.652ZM191.283 18.232C192.067 18.232 192.691 18.488 193.155 19C193.627 19.504 193.863 20.2 193.863 21.088V25H191.823V21.364C191.823 20.916 191.707 20.568 191.475 20.32C191.243 20.072 190.931 19.948 190.539 19.948C190.147 19.948 189.835 20.072 189.603 20.32C189.371 20.568 189.255 20.916 189.255 21.364V25H187.203V18.304H189.255V19.192C189.463 18.896 189.743 18.664 190.095 18.496C190.447 18.32 190.843 18.232 191.283 18.232ZM199.369 18.232C200.153 18.232 200.777 18.488 201.241 19C201.713 19.504 201.949 20.2 201.949 21.088V25H199.909V21.364C199.909 20.916 199.793 20.568 199.561 20.32C199.329 20.072 199.017 19.948 198.625 19.948C198.233 19.948 197.921 20.072 197.689 20.32C197.457 20.568 197.341 20.916 197.341 21.364V25H195.289V18.304H197.341V19.192C197.549 18.896 197.829 18.664 198.181 18.496C198.533 18.32 198.929 18.232 199.369 18.232ZM202.967 21.64C202.967 20.952 203.095 20.348 203.351 19.828C203.615 19.308 203.971 18.908 204.419 18.628C204.867 18.348 205.367 18.208 205.919 18.208C206.391 18.208 206.803 18.304 207.155 18.496C207.515 18.688 207.791 18.94 207.983 19.252V18.304H210.035V25H207.983V24.052C207.783 24.364 207.503 24.616 207.143 24.808C206.791 25 206.379 25.096 205.907 25.096C205.363 25.096 204.867 24.956 204.419 24.676C203.971 24.388 203.615 23.984 203.351 23.464C203.095 22.936 202.967 22.328 202.967 21.64ZM207.983 21.652C207.983 21.14 207.839 20.736 207.551 20.44C207.271 20.144 206.927 19.996 206.519 19.996C206.111 19.996 205.763 20.144 205.475 20.44C205.195 20.728 205.055 21.128 205.055 21.64C205.055 22.152 205.195 22.56 205.475 22.864C205.763 23.16 206.111 23.308 206.519 23.308C206.927 23.308 207.271 23.16 207.551 22.864C207.839 22.568 207.983 22.164 207.983 21.652ZM213.654 21.64C213.654 20.952 213.782 20.348 214.038 19.828C214.302 19.308 214.658 18.908 215.106 18.628C215.554 18.348 216.054 18.208 216.606 18.208C217.078 18.208 217.49 18.304 217.842 18.496C218.202 18.688 218.478 18.94 218.67 19.252V18.304H220.722V25H218.67V24.052C218.47 24.364 218.19 24.616 217.83 24.808C217.478 25 217.066 25.096 216.594 25.096C216.05 25.096 215.554 24.956 215.106 24.676C214.658 24.388 214.302 23.984 214.038 23.464C213.782 22.936 213.654 22.328 213.654 21.64ZM218.67 21.652C218.67 21.14 218.526 20.736 218.238 20.44C217.958 20.144 217.614 19.996 217.206 19.996C216.798 19.996 216.45 20.144 216.162 20.44C215.882 20.728 215.742 21.128 215.742 21.64C215.742 22.152 215.882 22.56 216.162 22.864C216.45 23.16 216.798 23.308 217.206 23.308C217.614 23.308 217.958 23.16 218.238 22.864C218.526 22.568 218.67 22.164 218.67 21.652ZM221.799 21.64C221.799 20.952 221.927 20.348 222.183 19.828C222.447 19.308 222.803 18.908 223.251 18.628C223.699 18.348 224.199 18.208 224.751 18.208C225.191 18.208 225.591 18.3 225.951 18.484C226.319 18.668 226.607 18.916 226.815 19.228V16.12H228.867V25H226.815V24.04C226.623 24.36 226.347 24.616 225.987 24.808C225.635 25 225.223 25.096 224.751 25.096C224.199 25.096 223.699 24.956 223.251 24.676C222.803 24.388 222.447 23.984 222.183 23.464C221.927 22.936 221.799 22.328 221.799 21.64ZM226.815 21.652C226.815 21.14 226.671 20.736 226.383 20.44C226.103 20.144 225.759 19.996 225.351 19.996C224.943 19.996 224.595 20.144 224.307 20.44C224.027 20.728 223.887 21.128 223.887 21.64C223.887 22.152 224.027 22.56 224.307 22.864C224.595 23.16 224.943 23.308 225.351 23.308C225.759 23.308 226.103 23.16 226.383 22.864C226.671 22.568 226.815 22.164 226.815 21.652ZM229.943 21.64C229.943 20.952 230.071 20.348 230.327 19.828C230.591 19.308 230.947 18.908 231.395 18.628C231.843 18.348 232.343 18.208 232.895 18.208C233.335 18.208 233.735 18.3 234.095 18.484C234.463 18.668 234.751 18.916 234.959 19.228V16.12H237.011V25H234.959V24.04C234.767 24.36 234.491 24.616 234.131 24.808C233.779 25 233.367 25.096 232.895 25.096C232.343 25.096 231.843 24.956 231.395 24.676C230.947 24.388 230.591 23.984 230.327 23.464C230.071 22.936 229.943 22.328 229.943 21.64ZM234.959 21.652C234.959 21.14 234.815 20.736 234.527 20.44C234.247 20.144 233.903 19.996 233.495 19.996C233.087 19.996 232.739 20.144 232.451 20.44C232.171 20.728 232.031 21.128 232.031 21.64C232.031 22.152 232.171 22.56 232.451 22.864C232.739 23.16 233.087 23.308 233.495 23.308C233.903 23.308 234.247 23.16 234.527 22.864C234.815 22.568 234.959 22.164 234.959 21.652ZM242.071 17.608C241.711 17.608 241.415 17.504 241.183 17.296C240.959 17.08 240.847 16.816 240.847 16.504C240.847 16.184 240.959 15.92 241.183 15.712C241.415 15.496 241.711 15.388 242.071 15.388C242.423 15.388 242.711 15.496 242.935 15.712C243.167 15.92 243.283 16.184 243.283 16.504C243.283 16.816 243.167 17.08 242.935 17.296C242.711 17.504 242.423 17.608 242.071 17.608ZM243.091 18.304V25H241.039V18.304H243.091ZM248.31 23.26V25H247.266C246.522 25 245.942 24.82 245.526 24.46C245.11 24.092 244.902 23.496 244.902 22.672V20.008H244.086V18.304H244.902V16.672H246.954V18.304H248.298V20.008H246.954V22.696C246.954 22.896 247.002 23.04 247.098 23.128C247.194 23.216 247.354 23.26 247.578 23.26H248.31ZM255.728 23.26V25H254.684C253.94 25 253.36 24.82 252.944 24.46C252.528 24.092 252.32 23.496 252.32 22.672V20.008H251.504V18.304H252.32V16.672H254.372V18.304H255.716V20.008H254.372V22.696C254.372 22.896 254.42 23.04 254.516 23.128C254.612 23.216 254.772 23.26 254.996 23.26H255.728ZM259.919 25.096C259.263 25.096 258.671 24.956 258.143 24.676C257.623 24.396 257.211 23.996 256.907 23.476C256.611 22.956 256.463 22.348 256.463 21.652C256.463 20.964 256.615 20.36 256.919 19.84C257.223 19.312 257.639 18.908 258.167 18.628C258.695 18.348 259.287 18.208 259.943 18.208C260.599 18.208 261.191 18.348 261.719 18.628C262.247 18.908 262.663 19.312 262.967 19.84C263.271 20.36 263.423 20.964 263.423 21.652C263.423 22.34 263.267 22.948 262.955 23.476C262.651 23.996 262.231 24.396 261.695 24.676C261.167 24.956 260.575 25.096 259.919 25.096ZM259.919 23.32C260.311 23.32 260.643 23.176 260.915 22.888C261.195 22.6 261.335 22.188 261.335 21.652C261.335 21.116 261.199 20.704 260.927 20.416C260.663 20.128 260.335 19.984 259.943 19.984C259.543 19.984 259.211 20.128 258.947 20.416C258.683 20.696 258.551 21.108 258.551 21.652C258.551 22.188 258.679 22.6 258.935 22.888C259.199 23.176 259.527 23.32 259.919 23.32ZM273.895 18.304L269.695 28.18H267.487L269.023 24.772L266.299 18.304H268.591L270.139 22.492L271.675 18.304H273.895ZM277.685 25.096C277.029 25.096 276.437 24.956 275.909 24.676C275.389 24.396 274.977 23.996 274.673 23.476C274.377 22.956 274.229 22.348 274.229 21.652C274.229 20.964 274.381 20.36 274.685 19.84C274.989 19.312 275.405 18.908 275.933 18.628C276.461 18.348 277.053 18.208 277.709 18.208C278.365 18.208 278.957 18.348 279.485 18.628C280.013 18.908 280.429 19.312 280.733 19.84C281.037 20.36 281.189 20.964 281.189 21.652C281.189 22.34 281.033 22.948 280.721 23.476C280.417 23.996 279.997 24.396 279.461 24.676C278.933 24.956 278.341 25.096 277.685 25.096ZM277.685 23.32C278.077 23.32 278.409 23.176 278.681 22.888C278.961 22.6 279.101 22.188 279.101 21.652C279.101 21.116 278.965 20.704 278.693 20.416C278.429 20.128 278.101 19.984 277.709 19.984C277.309 19.984 276.977 20.128 276.713 20.416C276.449 20.696 276.317 21.108 276.317 21.652C276.317 22.188 276.445 22.6 276.701 22.888C276.965 23.176 277.293 23.32 277.685 23.32ZM288.889 18.304V25H286.837V24.088C286.629 24.384 286.345 24.624 285.985 24.808C285.633 24.984 285.241 25.072 284.809 25.072C284.297 25.072 283.845 24.96 283.453 24.736C283.061 24.504 282.757 24.172 282.541 23.74C282.325 23.308 282.217 22.8 282.217 22.216V18.304H284.257V21.94C284.257 22.388 284.373 22.736 284.605 22.984C284.837 23.232 285.149 23.356 285.541 23.356C285.941 23.356 286.257 23.232 286.489 22.984C286.721 22.736 286.837 22.388 286.837 21.94V18.304H288.889ZM292.415 19.42C292.655 19.052 292.955 18.764 293.315 18.556C293.675 18.34 294.075 18.232 294.515 18.232V20.404H293.951C293.439 20.404 293.055 20.516 292.799 20.74C292.543 20.956 292.415 21.34 292.415 21.892V25H290.363V18.304H292.415V19.42ZM297.631 21.64C297.631 20.952 297.759 20.348 298.015 19.828C298.279 19.308 298.635 18.908 299.083 18.628C299.531 18.348 300.031 18.208 300.583 18.208C301.023 18.208 301.423 18.3 301.783 18.484C302.151 18.668 302.439 18.916 302.647 19.228V16.12H304.699V25H302.647V24.04C302.455 24.36 302.179 24.616 301.819 24.808C301.467 25 301.055 25.096 300.583 25.096C300.031 25.096 299.531 24.956 299.083 24.676C298.635 24.388 298.279 23.984 298.015 23.464C297.759 22.936 297.631 22.328 297.631 21.64ZM302.647 21.652C302.647 21.14 302.503 20.736 302.215 20.44C301.935 20.144 301.591 19.996 301.183 19.996C300.775 19.996 300.427 20.144 300.139 20.44C299.859 20.728 299.719 21.128 299.719 21.64C299.719 22.152 299.859 22.56 300.139 22.864C300.427 23.16 300.775 23.308 301.183 23.308C301.591 23.308 301.935 23.16 302.215 22.864C302.503 22.568 302.647 22.164 302.647 21.652ZM312.495 21.544C312.495 21.736 312.483 21.936 312.459 22.144H307.815C307.847 22.56 307.979 22.88 308.211 23.104C308.451 23.32 308.743 23.428 309.087 23.428C309.599 23.428 309.955 23.212 310.155 22.78H312.339C312.227 23.22 312.023 23.616 311.727 23.968C311.439 24.32 311.075 24.596 310.635 24.796C310.195 24.996 309.703 25.096 309.159 25.096C308.503 25.096 307.919 24.956 307.407 24.676C306.895 24.396 306.495 23.996 306.207 23.476C305.919 22.956 305.775 22.348 305.775 21.652C305.775 20.956 305.915 20.348 306.195 19.828C306.483 19.308 306.883 18.908 307.395 18.628C307.907 18.348 308.495 18.208 309.159 18.208C309.807 18.208 310.383 18.344 310.887 18.616C311.391 18.888 311.783 19.276 312.063 19.78C312.351 20.284 312.495 20.872 312.495 21.544ZM310.395 21.004C310.395 20.652 310.275 20.372 310.035 20.164C309.795 19.956 309.495 19.852 309.135 19.852C308.791 19.852 308.499 19.952 308.259 20.152C308.027 20.352 307.883 20.636 307.827 21.004H310.395ZM316.59 23.08L318.042 18.304H320.226L317.85 25H315.318L312.942 18.304H315.138L316.59 23.08ZM322.122 17.608C321.762 17.608 321.466 17.504 321.234 17.296C321.01 17.08 320.898 16.816 320.898 16.504C320.898 16.184 321.01 15.92 321.234 15.712C321.466 15.496 321.762 15.388 322.122 15.388C322.474 15.388 322.762 15.496 322.986 15.712C323.218 15.92 323.334 16.184 323.334 16.504C323.334 16.816 323.218 17.08 322.986 17.296C322.762 17.504 322.474 17.608 322.122 17.608ZM323.142 18.304V25H321.09V18.304H323.142ZM324.221 21.652C324.221 20.956 324.361 20.348 324.641 19.828C324.929 19.308 325.325 18.908 325.829 18.628C326.341 18.348 326.925 18.208 327.581 18.208C328.421 18.208 329.121 18.428 329.681 18.868C330.249 19.308 330.621 19.928 330.797 20.728H328.613C328.429 20.216 328.073 19.96 327.545 19.96C327.169 19.96 326.869 20.108 326.645 20.404C326.421 20.692 326.309 21.108 326.309 21.652C326.309 22.196 326.421 22.616 326.645 22.912C326.869 23.2 327.169 23.344 327.545 23.344C328.073 23.344 328.429 23.088 328.613 22.576H330.797C330.621 23.36 330.249 23.976 329.681 24.424C329.113 24.872 328.413 25.096 327.581 25.096C326.925 25.096 326.341 24.956 325.829 24.676C325.325 24.396 324.929 23.996 324.641 23.476C324.361 22.956 324.221 22.348 324.221 21.652ZM338.206 21.544C338.206 21.736 338.194 21.936 338.17 22.144H333.526C333.558 22.56 333.69 22.88 333.922 23.104C334.162 23.32 334.454 23.428 334.798 23.428C335.31 23.428 335.666 23.212 335.866 22.78H338.05C337.938 23.22 337.734 23.616 337.438 23.968C337.15 24.32 336.786 24.596 336.346 24.796C335.906 24.996 335.414 25.096 334.87 25.096C334.214 25.096 333.63 24.956 333.118 24.676C332.606 24.396 332.206 23.996 331.918 23.476C331.63 22.956 331.486 22.348 331.486 21.652C331.486 20.956 331.626 20.348 331.906 19.828C332.194 19.308 332.594 18.908 333.106 18.628C333.618 18.348 334.206 18.208 334.87 18.208C335.518 18.208 336.094 18.344 336.598 18.616C337.102 18.888 337.494 19.276 337.774 19.78C338.062 20.284 338.206 20.872 338.206 21.544ZM336.106 21.004C336.106 20.652 335.986 20.372 335.746 20.164C335.506 19.956 335.206 19.852 334.846 19.852C334.502 19.852 334.21 19.952 333.97 20.152C333.738 20.352 333.594 20.636 333.538 21.004H336.106ZM343.884 16.12V25H341.832V16.12H343.884ZM346.403 17.608C346.043 17.608 345.747 17.504 345.515 17.296C345.291 17.08 345.179 16.816 345.179 16.504C345.179 16.184 345.291 15.92 345.515 15.712C345.747 15.496 346.043 15.388 346.403 15.388C346.755 15.388 347.043 15.496 347.267 15.712C347.499 15.92 347.615 16.184 347.615 16.504C347.615 16.816 347.499 17.08 347.267 17.296C347.043 17.504 346.755 17.608 346.403 17.608ZM347.423 18.304V25H345.371V18.304H347.423ZM351.634 25.096C351.05 25.096 350.53 24.996 350.074 24.796C349.618 24.596 349.258 24.324 348.994 23.98C348.73 23.628 348.582 23.236 348.55 22.804H350.578C350.602 23.036 350.71 23.224 350.902 23.368C351.094 23.512 351.33 23.584 351.61 23.584C351.866 23.584 352.062 23.536 352.198 23.44C352.342 23.336 352.414 23.204 352.414 23.044C352.414 22.852 352.314 22.712 352.114 22.624C351.914 22.528 351.59 22.424 351.142 22.312C350.662 22.2 350.262 22.084 349.942 21.964C349.622 21.836 349.346 21.64 349.114 21.376C348.882 21.104 348.766 20.74 348.766 20.284C348.766 19.9 348.87 19.552 349.078 19.24C349.294 18.92 349.606 18.668 350.014 18.484C350.43 18.3 350.922 18.208 351.49 18.208C352.33 18.208 352.99 18.416 353.47 18.832C353.958 19.248 354.238 19.8 354.31 20.488H352.414C352.382 20.256 352.278 20.072 352.102 19.936C351.934 19.8 351.71 19.732 351.43 19.732C351.19 19.732 351.006 19.78 350.878 19.876C350.75 19.964 350.686 20.088 350.686 20.248C350.686 20.44 350.786 20.584 350.986 20.68C351.194 20.776 351.514 20.872 351.946 20.968C352.442 21.096 352.846 21.224 353.158 21.352C353.47 21.472 353.742 21.672 353.974 21.952C354.214 22.224 354.338 22.592 354.346 23.056C354.346 23.448 354.234 23.8 354.01 24.112C353.794 24.416 353.478 24.656 353.062 24.832C352.654 25.008 352.178 25.096 351.634 25.096ZM359.333 23.26V25H358.289C357.545 25 356.965 24.82 356.549 24.46C356.133 24.092 355.925 23.496 355.925 22.672V20.008H355.109V18.304H355.925V16.672H357.977V18.304H359.321V20.008H357.977V22.696C357.977 22.896 358.025 23.04 358.121 23.128C358.217 23.216 358.377 23.26 358.601 23.26H359.333ZM362.936 16.108C363.792 16.108 364.476 16.332 364.988 16.78C365.508 17.228 365.768 17.86 365.768 18.676C365.768 19.428 365.52 20.016 365.024 20.44C364.536 20.856 363.888 21.068 363.08 21.076L363.02 21.976H361.22L361.16 19.744H361.88C362.496 19.744 362.964 19.668 363.284 19.516C363.612 19.364 363.776 19.088 363.776 18.688C363.776 18.408 363.7 18.188 363.548 18.028C363.396 17.868 363.184 17.788 362.912 17.788C362.624 17.788 362.4 17.872 362.24 18.04C362.08 18.2 362 18.42 362 18.7H360.068C360.052 18.212 360.152 17.772 360.368 17.38C360.592 16.988 360.92 16.68 361.352 16.456C361.792 16.224 362.32 16.108 362.936 16.108ZM362.144 25.096C361.784 25.096 361.488 24.992 361.256 24.784C361.032 24.568 360.92 24.304 360.92 23.992C360.92 23.672 361.032 23.404 361.256 23.188C361.488 22.972 361.784 22.864 362.144 22.864C362.496 22.864 362.784 22.972 363.008 23.188C363.24 23.404 363.356 23.672 363.356 23.992C363.356 24.304 363.24 24.568 363.008 24.784C362.784 24.992 362.496 25.096 362.144 25.096Z" fill="#333333"/>
</svg>
