<svg width="199" height="41" viewBox="0 0 199 41" fill="none" xmlns="http://www.w3.org/2000/svg">
<rect width="199" height="41" rx="20.5" fill="#FC9A63" fill-opacity="0.75"/>
<path d="M32.6105 16.576V25H30.5585V16.576H32.6105ZM38.1775 18.232C38.9615 18.232 39.5855 18.488 40.0495 19C40.5215 19.504 40.7575 20.2 40.7575 21.088V25H38.7175V21.364C38.7175 20.916 38.6015 20.568 38.3695 20.32C38.1375 20.072 37.8255 19.948 37.4335 19.948C37.0415 19.948 36.7295 20.072 36.4975 20.32C36.2655 20.568 36.1495 20.916 36.1495 21.364V25H34.0975V18.304H36.1495V19.192C36.3575 18.896 36.6375 18.664 36.9895 18.496C37.3415 18.32 37.7375 18.232 38.1775 18.232ZM44.9075 25.096C44.3235 25.096 43.8035 24.996 43.3475 24.796C42.8915 24.596 42.5315 24.324 42.2675 23.98C42.0035 23.628 41.8555 23.236 41.8235 22.804H43.8515C43.8755 23.036 43.9835 23.224 44.1755 23.368C44.3675 23.512 44.6035 23.584 44.8835 23.584C45.1395 23.584 45.3355 23.536 45.4715 23.44C45.6155 23.336 45.6875 23.204 45.6875 23.044C45.6875 22.852 45.5875 22.712 45.3875 22.624C45.1875 22.528 44.8635 22.424 44.4155 22.312C43.9355 22.2 43.5355 22.084 43.2155 21.964C42.8955 21.836 42.6195 21.64 42.3875 21.376C42.1555 21.104 42.0395 20.74 42.0395 20.284C42.0395 19.9 42.1435 19.552 42.3515 19.24C42.5675 18.92 42.8795 18.668 43.2875 18.484C43.7035 18.3 44.1955 18.208 44.7635 18.208C45.6035 18.208 46.2635 18.416 46.7435 18.832C47.2315 19.248 47.5115 19.8 47.5835 20.488H45.6875C45.6555 20.256 45.5515 20.072 45.3755 19.936C45.2075 19.8 44.9835 19.732 44.7035 19.732C44.4635 19.732 44.2795 19.78 44.1515 19.876C44.0235 19.964 43.9595 20.088 43.9595 20.248C43.9595 20.44 44.0595 20.584 44.2595 20.68C44.4675 20.776 44.7875 20.872 45.2195 20.968C45.7155 21.096 46.1195 21.224 46.4315 21.352C46.7435 21.472 47.0155 21.672 47.2475 21.952C47.4875 22.224 47.6115 22.592 47.6195 23.056C47.6195 23.448 47.5075 23.8 47.2835 24.112C47.0675 24.416 46.7515 24.656 46.3355 24.832C45.9275 25.008 45.4515 25.096 44.9075 25.096ZM50.9269 19.252C51.1269 18.94 51.4029 18.688 51.7549 18.496C52.1069 18.304 52.5189 18.208 52.9909 18.208C53.5429 18.208 54.0429 18.348 54.4909 18.628C54.9389 18.908 55.2909 19.308 55.5469 19.828C55.8109 20.348 55.9429 20.952 55.9429 21.64C55.9429 22.328 55.8109 22.936 55.5469 23.464C55.2909 23.984 54.9389 24.388 54.4909 24.676C54.0429 24.956 53.5429 25.096 52.9909 25.096C52.5269 25.096 52.1149 25 51.7549 24.808C51.4029 24.616 51.1269 24.368 50.9269 24.064V28.192H48.8749V18.304H50.9269V19.252ZM53.8549 21.64C53.8549 21.128 53.7109 20.728 53.4229 20.44C53.1429 20.144 52.7949 19.996 52.3789 19.996C51.9709 19.996 51.6229 20.144 51.3349 20.44C51.0549 20.736 50.9149 21.14 50.9149 21.652C50.9149 22.164 51.0549 22.568 51.3349 22.864C51.6229 23.16 51.9709 23.308 52.3789 23.308C52.7869 23.308 53.1349 23.16 53.4229 22.864C53.7109 22.56 53.8549 22.152 53.8549 21.64ZM63.3314 21.544C63.3314 21.736 63.3194 21.936 63.2954 22.144H58.6514C58.6834 22.56 58.8154 22.88 59.0474 23.104C59.2874 23.32 59.5794 23.428 59.9234 23.428C60.4354 23.428 60.7914 23.212 60.9914 22.78H63.1754C63.0634 23.22 62.8594 23.616 62.5634 23.968C62.2754 24.32 61.9114 24.596 61.4714 24.796C61.0314 24.996 60.5394 25.096 59.9954 25.096C59.3394 25.096 58.7554 24.956 58.2434 24.676C57.7314 24.396 57.3314 23.996 57.0434 23.476C56.7554 22.956 56.6114 22.348 56.6114 21.652C56.6114 20.956 56.7514 20.348 57.0314 19.828C57.3194 19.308 57.7194 18.908 58.2314 18.628C58.7434 18.348 59.3314 18.208 59.9954 18.208C60.6434 18.208 61.2194 18.344 61.7234 18.616C62.2274 18.888 62.6194 19.276 62.8994 19.78C63.1874 20.284 63.3314 20.872 63.3314 21.544ZM61.2314 21.004C61.2314 20.652 61.1114 20.372 60.8714 20.164C60.6314 19.956 60.3314 19.852 59.9714 19.852C59.6274 19.852 59.3354 19.952 59.0954 20.152C58.8634 20.352 58.7194 20.636 58.6634 21.004H61.2314ZM64.0059 21.652C64.0059 20.956 64.1459 20.348 64.4259 19.828C64.7139 19.308 65.1099 18.908 65.6139 18.628C66.1259 18.348 66.7099 18.208 67.3659 18.208C68.2059 18.208 68.9059 18.428 69.4659 18.868C70.0339 19.308 70.4059 19.928 70.5819 20.728H68.3979C68.2139 20.216 67.8579 19.96 67.3299 19.96C66.9539 19.96 66.6539 20.108 66.4299 20.404C66.2059 20.692 66.0939 21.108 66.0939 21.652C66.0939 22.196 66.2059 22.616 66.4299 22.912C66.6539 23.2 66.9539 23.344 67.3299 23.344C67.8579 23.344 68.2139 23.088 68.3979 22.576H70.5819C70.4059 23.36 70.0339 23.976 69.4659 24.424C68.8979 24.872 68.1979 25.096 67.3659 25.096C66.7099 25.096 66.1259 24.956 65.6139 24.676C65.1099 24.396 64.7139 23.996 64.4259 23.476C64.1459 22.956 64.0059 22.348 64.0059 21.652ZM75.4115 23.26V25H74.3675C73.6235 25 73.0435 24.82 72.6275 24.46C72.2115 24.092 72.0035 23.496 72.0035 22.672V20.008H71.1875V18.304H72.0035V16.672H74.0555V18.304H75.3995V20.008H74.0555V22.696C74.0555 22.896 74.1035 23.04 74.1995 23.128C74.2955 23.216 74.4555 23.26 74.6795 23.26H75.4115ZM85.9375 18.304L81.7375 28.18H79.5295L81.0655 24.772L78.3415 18.304H80.6335L82.1815 22.492L83.7175 18.304H85.9375ZM89.7275 25.096C89.0715 25.096 88.4795 24.956 87.9515 24.676C87.4315 24.396 87.0195 23.996 86.7155 23.476C86.4195 22.956 86.2715 22.348 86.2715 21.652C86.2715 20.964 86.4235 20.36 86.7275 19.84C87.0315 19.312 87.4475 18.908 87.9755 18.628C88.5035 18.348 89.0955 18.208 89.7515 18.208C90.4075 18.208 90.9995 18.348 91.5275 18.628C92.0555 18.908 92.4715 19.312 92.7755 19.84C93.0795 20.36 93.2315 20.964 93.2315 21.652C93.2315 22.34 93.0755 22.948 92.7635 23.476C92.4595 23.996 92.0395 24.396 91.5035 24.676C90.9755 24.956 90.3835 25.096 89.7275 25.096ZM89.7275 23.32C90.1195 23.32 90.4515 23.176 90.7235 22.888C91.0035 22.6 91.1435 22.188 91.1435 21.652C91.1435 21.116 91.0075 20.704 90.7355 20.416C90.4715 20.128 90.1435 19.984 89.7515 19.984C89.3515 19.984 89.0195 20.128 88.7555 20.416C88.4915 20.696 88.3595 21.108 88.3595 21.652C88.3595 22.188 88.4875 22.6 88.7435 22.888C89.0075 23.176 89.3355 23.32 89.7275 23.32ZM100.932 18.304V25H98.8802V24.088C98.6722 24.384 98.3882 24.624 98.0282 24.808C97.6762 24.984 97.2842 25.072 96.8522 25.072C96.3402 25.072 95.8882 24.96 95.4962 24.736C95.1042 24.504 94.8002 24.172 94.5842 23.74C94.3682 23.308 94.2602 22.8 94.2602 22.216V18.304H96.3002V21.94C96.3002 22.388 96.4162 22.736 96.6482 22.984C96.8802 23.232 97.1922 23.356 97.5842 23.356C97.9842 23.356 98.3002 23.232 98.5322 22.984C98.7642 22.736 98.8802 22.388 98.8802 21.94V18.304H100.932ZM104.458 19.42C104.698 19.052 104.998 18.764 105.358 18.556C105.718 18.34 106.118 18.232 106.558 18.232V20.404H105.994C105.482 20.404 105.098 20.516 104.842 20.74C104.586 20.956 104.458 21.34 104.458 21.892V25H102.406V18.304H104.458V19.42ZM112.134 16.576V25H110.082V16.576H112.134ZM117.701 18.232C118.485 18.232 119.109 18.488 119.573 19C120.045 19.504 120.281 20.2 120.281 21.088V25H118.241V21.364C118.241 20.916 118.125 20.568 117.893 20.32C117.661 20.072 117.349 19.948 116.957 19.948C116.565 19.948 116.253 20.072 116.021 20.32C115.789 20.568 115.673 20.916 115.673 21.364V25H113.621V18.304H115.673V19.192C115.881 18.896 116.161 18.664 116.513 18.496C116.865 18.32 117.261 18.232 117.701 18.232ZM124.719 23.08L126.171 18.304H128.355L125.979 25H123.447L121.071 18.304H123.267L124.719 23.08ZM135.531 21.544C135.531 21.736 135.519 21.936 135.495 22.144H130.851C130.883 22.56 131.015 22.88 131.247 23.104C131.487 23.32 131.779 23.428 132.123 23.428C132.635 23.428 132.991 23.212 133.191 22.78H135.375C135.263 23.22 135.059 23.616 134.763 23.968C134.475 24.32 134.111 24.596 133.671 24.796C133.231 24.996 132.739 25.096 132.195 25.096C131.539 25.096 130.955 24.956 130.443 24.676C129.931 24.396 129.531 23.996 129.243 23.476C128.955 22.956 128.811 22.348 128.811 21.652C128.811 20.956 128.951 20.348 129.231 19.828C129.519 19.308 129.919 18.908 130.431 18.628C130.943 18.348 131.531 18.208 132.195 18.208C132.843 18.208 133.419 18.344 133.923 18.616C134.427 18.888 134.819 19.276 135.099 19.78C135.387 20.284 135.531 20.872 135.531 21.544ZM133.431 21.004C133.431 20.652 133.311 20.372 133.071 20.164C132.831 19.956 132.531 19.852 132.171 19.852C131.827 19.852 131.535 19.952 131.295 20.152C131.063 20.352 130.919 20.636 130.863 21.004H133.431ZM140.693 18.232C141.477 18.232 142.101 18.488 142.565 19C143.037 19.504 143.273 20.2 143.273 21.088V25H141.233V21.364C141.233 20.916 141.117 20.568 140.885 20.32C140.653 20.072 140.341 19.948 139.949 19.948C139.557 19.948 139.245 20.072 139.013 20.32C138.781 20.568 138.665 20.916 138.665 21.364V25H136.613V18.304H138.665V19.192C138.873 18.896 139.153 18.664 139.505 18.496C139.857 18.32 140.253 18.232 140.693 18.232ZM148.431 23.26V25H147.387C146.643 25 146.063 24.82 145.647 24.46C145.231 24.092 145.023 23.496 145.023 22.672V20.008H144.207V18.304H145.023V16.672H147.075V18.304H148.419V20.008H147.075V22.696C147.075 22.896 147.123 23.04 147.219 23.128C147.315 23.216 147.475 23.26 147.699 23.26H148.431ZM152.622 25.096C151.966 25.096 151.374 24.956 150.846 24.676C150.326 24.396 149.914 23.996 149.61 23.476C149.314 22.956 149.166 22.348 149.166 21.652C149.166 20.964 149.318 20.36 149.622 19.84C149.926 19.312 150.342 18.908 150.87 18.628C151.398 18.348 151.99 18.208 152.646 18.208C153.302 18.208 153.894 18.348 154.422 18.628C154.95 18.908 155.366 19.312 155.67 19.84C155.974 20.36 156.126 20.964 156.126 21.652C156.126 22.34 155.97 22.948 155.658 23.476C155.354 23.996 154.934 24.396 154.398 24.676C153.87 24.956 153.278 25.096 152.622 25.096ZM152.622 23.32C153.014 23.32 153.346 23.176 153.618 22.888C153.898 22.6 154.038 22.188 154.038 21.652C154.038 21.116 153.902 20.704 153.63 20.416C153.366 20.128 153.038 19.984 152.646 19.984C152.246 19.984 151.914 20.128 151.65 20.416C151.386 20.696 151.254 21.108 151.254 21.652C151.254 22.188 151.382 22.6 151.638 22.888C151.902 23.176 152.23 23.32 152.622 23.32ZM159.267 19.42C159.507 19.052 159.807 18.764 160.167 18.556C160.527 18.34 160.927 18.232 161.367 18.232V20.404H160.803C160.291 20.404 159.907 20.516 159.651 20.74C159.395 20.956 159.267 21.34 159.267 21.892V25H157.215V18.304H159.267V19.42ZM169.188 18.304L164.988 28.18H162.78L164.316 24.772L161.592 18.304H163.884L165.432 22.492L166.968 18.304H169.188Z" fill="#333333"/>
</svg>
