<svg width="377" height="41" viewBox="0 0 377 41" fill="none" xmlns="http://www.w3.org/2000/svg">
<rect width="377" height="41" rx="20.5" fill="#FC9A63" fill-opacity="0.75"/>
<path d="M34.9326 25.084C34.3166 25.084 33.7646 24.984 33.2766 24.784C32.7886 24.584 32.3966 24.288 32.1006 23.896C31.8126 23.504 31.6606 23.032 31.6446 22.48H33.8286C33.8606 22.792 33.9686 23.032 34.1526 23.2C34.3366 23.36 34.5766 23.44 34.8726 23.44C35.1766 23.44 35.4166 23.372 35.5926 23.236C35.7686 23.092 35.8566 22.896 35.8566 22.648C35.8566 22.44 35.7846 22.268 35.6406 22.132C35.5046 21.996 35.3326 21.884 35.1246 21.796C34.9246 21.708 34.6366 21.608 34.2606 21.496C33.7166 21.328 33.2726 21.16 32.9286 20.992C32.5846 20.824 32.2886 20.576 32.0406 20.248C31.7926 19.92 31.6686 19.492 31.6686 18.964C31.6686 18.18 31.9526 17.568 32.5206 17.128C33.0886 16.68 33.8286 16.456 34.7406 16.456C35.6686 16.456 36.4166 16.68 36.9846 17.128C37.5526 17.568 37.8566 18.184 37.8966 18.976H35.6766C35.6606 18.704 35.5606 18.492 35.3766 18.34C35.1926 18.18 34.9566 18.1 34.6686 18.1C34.4206 18.1 34.2206 18.168 34.0686 18.304C33.9166 18.432 33.8406 18.62 33.8406 18.868C33.8406 19.14 33.9686 19.352 34.2246 19.504C34.4806 19.656 34.8806 19.82 35.4246 19.996C35.9686 20.18 36.4086 20.356 36.7446 20.524C37.0886 20.692 37.3846 20.936 37.6326 21.256C37.8806 21.576 38.0046 21.988 38.0046 22.492C38.0046 22.972 37.8806 23.408 37.6326 23.8C37.3926 24.192 37.0406 24.504 36.5766 24.736C36.1126 24.968 35.5646 25.084 34.9326 25.084ZM43.3834 18.232C44.1514 18.232 44.7674 18.488 45.2314 19C45.6954 19.504 45.9274 20.2 45.9274 21.088V25H43.8874V21.364C43.8874 20.916 43.7714 20.568 43.5394 20.32C43.3074 20.072 42.9954 19.948 42.6034 19.948C42.2114 19.948 41.8994 20.072 41.6674 20.32C41.4354 20.568 41.3194 20.916 41.3194 21.364V25H39.2674V16.12H41.3194V19.204C41.5274 18.908 41.8114 18.672 42.1714 18.496C42.5314 18.32 42.9354 18.232 43.3834 18.232ZM50.4014 25.096C49.7454 25.096 49.1534 24.956 48.6254 24.676C48.1054 24.396 47.6934 23.996 47.3894 23.476C47.0934 22.956 46.9454 22.348 46.9454 21.652C46.9454 20.964 47.0974 20.36 47.4014 19.84C47.7054 19.312 48.1214 18.908 48.6494 18.628C49.1774 18.348 49.7694 18.208 50.4254 18.208C51.0814 18.208 51.6734 18.348 52.2014 18.628C52.7294 18.908 53.1454 19.312 53.4494 19.84C53.7534 20.36 53.9054 20.964 53.9054 21.652C53.9054 22.34 53.7494 22.948 53.4374 23.476C53.1334 23.996 52.7134 24.396 52.1774 24.676C51.6494 24.956 51.0574 25.096 50.4014 25.096ZM50.4014 23.32C50.7934 23.32 51.1254 23.176 51.3974 22.888C51.6774 22.6 51.8174 22.188 51.8174 21.652C51.8174 21.116 51.6814 20.704 51.4094 20.416C51.1454 20.128 50.8174 19.984 50.4254 19.984C50.0254 19.984 49.6934 20.128 49.4294 20.416C49.1654 20.696 49.0334 21.108 49.0334 21.652C49.0334 22.188 49.1614 22.6 49.4174 22.888C49.6814 23.176 50.0094 23.32 50.4014 23.32ZM57.046 19.252C57.246 18.94 57.522 18.688 57.874 18.496C58.226 18.304 58.638 18.208 59.11 18.208C59.662 18.208 60.162 18.348 60.61 18.628C61.058 18.908 61.41 19.308 61.666 19.828C61.93 20.348 62.062 20.952 62.062 21.64C62.062 22.328 61.93 22.936 61.666 23.464C61.41 23.984 61.058 24.388 60.61 24.676C60.162 24.956 59.662 25.096 59.11 25.096C58.646 25.096 58.234 25 57.874 24.808C57.522 24.616 57.246 24.368 57.046 24.064V28.192H54.994V18.304H57.046V19.252ZM59.974 21.64C59.974 21.128 59.83 20.728 59.542 20.44C59.262 20.144 58.914 19.996 58.498 19.996C58.09 19.996 57.742 20.144 57.454 20.44C57.174 20.736 57.034 21.14 57.034 21.652C57.034 22.164 57.174 22.568 57.454 22.864C57.742 23.16 58.09 23.308 58.498 23.308C58.906 23.308 59.254 23.16 59.542 22.864C59.83 22.56 59.974 22.152 59.974 21.64ZM65.1905 19.252C65.3905 18.94 65.6665 18.688 66.0185 18.496C66.3705 18.304 66.7825 18.208 67.2545 18.208C67.8065 18.208 68.3065 18.348 68.7545 18.628C69.2025 18.908 69.5545 19.308 69.8105 19.828C70.0745 20.348 70.2065 20.952 70.2065 21.64C70.2065 22.328 70.0745 22.936 69.8105 23.464C69.5545 23.984 69.2025 24.388 68.7545 24.676C68.3065 24.956 67.8065 25.096 67.2545 25.096C66.7905 25.096 66.3785 25 66.0185 24.808C65.6665 24.616 65.3905 24.368 65.1905 24.064V28.192H63.1385V18.304H65.1905V19.252ZM68.1185 21.64C68.1185 21.128 67.9745 20.728 67.6865 20.44C67.4065 20.144 67.0585 19.996 66.6425 19.996C66.2345 19.996 65.8865 20.144 65.5985 20.44C65.3185 20.736 65.1785 21.14 65.1785 21.652C65.1785 22.164 65.3185 22.568 65.5985 22.864C65.8865 23.16 66.2345 23.308 66.6425 23.308C67.0505 23.308 67.3985 23.16 67.6865 22.864C67.9745 22.56 68.1185 22.152 68.1185 21.64ZM72.3151 17.608C71.9551 17.608 71.6591 17.504 71.4271 17.296C71.2031 17.08 71.0911 16.816 71.0911 16.504C71.0911 16.184 71.2031 15.92 71.4271 15.712C71.6591 15.496 71.9551 15.388 72.3151 15.388C72.6671 15.388 72.9551 15.496 73.1791 15.712C73.4111 15.92 73.5271 16.184 73.5271 16.504C73.5271 16.816 73.4111 17.08 73.1791 17.296C72.9551 17.504 72.6671 17.608 72.3151 17.608ZM73.3351 18.304V25H71.2831V18.304H73.3351ZM78.9021 18.232C79.6861 18.232 80.3101 18.488 80.7741 19C81.2461 19.504 81.4821 20.2 81.4821 21.088V25H79.4421V21.364C79.4421 20.916 79.3261 20.568 79.0941 20.32C78.8621 20.072 78.5501 19.948 78.1581 19.948C77.7661 19.948 77.4541 20.072 77.2221 20.32C76.9901 20.568 76.8741 20.916 76.8741 21.364V25H74.8221V18.304H76.8741V19.192C77.0821 18.896 77.3621 18.664 77.7141 18.496C78.0661 18.32 78.4621 18.232 78.9021 18.232ZM85.4521 18.208C85.9241 18.208 86.3361 18.304 86.6881 18.496C87.0481 18.688 87.3241 18.94 87.5161 19.252V18.304H89.5681V24.988C89.5681 25.604 89.4441 26.16 89.1961 26.656C88.9561 27.16 88.5841 27.56 88.0801 27.856C87.5841 28.152 86.9641 28.3 86.2201 28.3C85.2281 28.3 84.4241 28.064 83.8081 27.592C83.1921 27.128 82.8401 26.496 82.7521 25.696H84.7801C84.8441 25.952 84.9961 26.152 85.2361 26.296C85.4761 26.448 85.7721 26.524 86.1241 26.524C86.5481 26.524 86.8841 26.4 87.1321 26.152C87.3881 25.912 87.5161 25.524 87.5161 24.988V24.04C87.3161 24.352 87.0401 24.608 86.6881 24.808C86.3361 25 85.9241 25.096 85.4521 25.096C84.9001 25.096 84.4001 24.956 83.9521 24.676C83.5041 24.388 83.1481 23.984 82.8841 23.464C82.6281 22.936 82.5001 22.328 82.5001 21.64C82.5001 20.952 82.6281 20.348 82.8841 19.828C83.1481 19.308 83.5041 18.908 83.9521 18.628C84.4001 18.348 84.9001 18.208 85.4521 18.208ZM87.5161 21.652C87.5161 21.14 87.3721 20.736 87.0841 20.44C86.8041 20.144 86.4601 19.996 86.0521 19.996C85.6441 19.996 85.2961 20.144 85.0081 20.44C84.7281 20.728 84.5881 21.128 84.5881 21.64C84.5881 22.152 84.7281 22.56 85.0081 22.864C85.2961 23.16 85.6441 23.308 86.0521 23.308C86.4601 23.308 86.8041 23.16 87.0841 22.864C87.3721 22.568 87.5161 22.164 87.5161 21.652ZM97.3276 23.26V25H96.2836C95.5396 25 94.9596 24.82 94.5436 24.46C94.1276 24.092 93.9196 23.496 93.9196 22.672V20.008H93.1036V18.304H93.9196V16.672H95.9716V18.304H97.3156V20.008H95.9716V22.696C95.9716 22.896 96.0196 23.04 96.1156 23.128C96.2116 23.216 96.3716 23.26 96.5956 23.26H97.3276ZM101.519 25.096C100.863 25.096 100.271 24.956 99.7426 24.676C99.2226 24.396 98.8106 23.996 98.5066 23.476C98.2106 22.956 98.0626 22.348 98.0626 21.652C98.0626 20.964 98.2146 20.36 98.5186 19.84C98.8226 19.312 99.2386 18.908 99.7666 18.628C100.295 18.348 100.887 18.208 101.543 18.208C102.199 18.208 102.791 18.348 103.319 18.628C103.847 18.908 104.263 19.312 104.567 19.84C104.871 20.36 105.023 20.964 105.023 21.652C105.023 22.34 104.867 22.948 104.555 23.476C104.251 23.996 103.831 24.396 103.295 24.676C102.767 24.956 102.175 25.096 101.519 25.096ZM101.519 23.32C101.911 23.32 102.243 23.176 102.515 22.888C102.795 22.6 102.935 22.188 102.935 21.652C102.935 21.116 102.799 20.704 102.527 20.416C102.263 20.128 101.935 19.984 101.543 19.984C101.143 19.984 100.811 20.128 100.547 20.416C100.283 20.696 100.151 21.108 100.151 21.652C100.151 22.188 100.279 22.6 100.535 22.888C100.799 23.176 101.127 23.32 101.519 23.32ZM105.703 21.64C105.703 20.952 105.831 20.348 106.087 19.828C106.351 19.308 106.707 18.908 107.155 18.628C107.603 18.348 108.103 18.208 108.655 18.208C109.095 18.208 109.495 18.3 109.855 18.484C110.223 18.668 110.511 18.916 110.719 19.228V16.12H112.771V25H110.719V24.04C110.527 24.36 110.251 24.616 109.891 24.808C109.539 25 109.127 25.096 108.655 25.096C108.103 25.096 107.603 24.956 107.155 24.676C106.707 24.388 106.351 23.984 106.087 23.464C105.831 22.936 105.703 22.328 105.703 21.64ZM110.719 21.652C110.719 21.14 110.575 20.736 110.287 20.44C110.007 20.144 109.663 19.996 109.255 19.996C108.847 19.996 108.499 20.144 108.211 20.44C107.931 20.728 107.791 21.128 107.791 21.64C107.791 22.152 107.931 22.56 108.211 22.864C108.499 23.16 108.847 23.308 109.255 23.308C109.663 23.308 110.007 23.16 110.287 22.864C110.575 22.568 110.719 22.164 110.719 21.652ZM113.848 21.64C113.848 20.952 113.976 20.348 114.232 19.828C114.496 19.308 114.852 18.908 115.3 18.628C115.748 18.348 116.248 18.208 116.8 18.208C117.272 18.208 117.684 18.304 118.036 18.496C118.396 18.688 118.672 18.94 118.864 19.252V18.304H120.916V25H118.864V24.052C118.664 24.364 118.384 24.616 118.024 24.808C117.672 25 117.26 25.096 116.788 25.096C116.244 25.096 115.748 24.956 115.3 24.676C114.852 24.388 114.496 23.984 114.232 23.464C113.976 22.936 113.848 22.328 113.848 21.64ZM118.864 21.652C118.864 21.14 118.72 20.736 118.432 20.44C118.152 20.144 117.808 19.996 117.4 19.996C116.992 19.996 116.644 20.144 116.356 20.44C116.076 20.728 115.936 21.128 115.936 21.64C115.936 22.152 116.076 22.56 116.356 22.864C116.644 23.16 116.992 23.308 117.4 23.308C117.808 23.308 118.152 23.16 118.432 22.864C118.72 22.568 118.864 22.164 118.864 21.652ZM129.24 18.304L125.04 28.18H122.832L124.368 24.772L121.644 18.304H123.936L125.484 22.492L127.02 18.304H129.24ZM132.442 16.108C133.298 16.108 133.982 16.332 134.494 16.78C135.014 17.228 135.274 17.86 135.274 18.676C135.274 19.428 135.026 20.016 134.53 20.44C134.042 20.856 133.394 21.068 132.586 21.076L132.526 21.976H130.726L130.666 19.744H131.386C132.002 19.744 132.47 19.668 132.79 19.516C133.118 19.364 133.282 19.088 133.282 18.688C133.282 18.408 133.206 18.188 133.054 18.028C132.902 17.868 132.69 17.788 132.418 17.788C132.13 17.788 131.906 17.872 131.746 18.04C131.586 18.2 131.506 18.42 131.506 18.7H129.574C129.558 18.212 129.658 17.772 129.874 17.38C130.098 16.988 130.426 16.68 130.858 16.456C131.298 16.224 131.826 16.108 132.442 16.108ZM131.65 25.096C131.29 25.096 130.994 24.992 130.762 24.784C130.538 24.568 130.426 24.304 130.426 23.992C130.426 23.672 130.538 23.404 130.762 23.188C130.994 22.972 131.29 22.864 131.65 22.864C132.002 22.864 132.29 22.972 132.514 23.188C132.746 23.404 132.862 23.672 132.862 23.992C132.862 24.304 132.746 24.568 132.514 24.784C132.29 24.992 132.002 25.096 131.65 25.096ZM138.634 20.776C138.634 19.944 138.814 19.204 139.174 18.556C139.534 17.9 140.034 17.392 140.674 17.032C141.322 16.664 142.054 16.48 142.87 16.48C143.87 16.48 144.726 16.744 145.438 17.272C146.15 17.8 146.626 18.52 146.866 19.432H144.61C144.442 19.08 144.202 18.812 143.89 18.628C143.586 18.444 143.238 18.352 142.846 18.352C142.214 18.352 141.702 18.572 141.31 19.012C140.918 19.452 140.722 20.04 140.722 20.776C140.722 21.512 140.918 22.1 141.31 22.54C141.702 22.98 142.214 23.2 142.846 23.2C143.238 23.2 143.586 23.108 143.89 22.924C144.202 22.74 144.442 22.472 144.61 22.12H146.866C146.626 23.032 146.15 23.752 145.438 24.28C144.726 24.8 143.87 25.06 142.87 25.06C142.054 25.06 141.322 24.88 140.674 24.52C140.034 24.152 139.534 23.644 139.174 22.996C138.814 22.348 138.634 21.608 138.634 20.776ZM151.171 25.096C150.515 25.096 149.923 24.956 149.395 24.676C148.875 24.396 148.463 23.996 148.159 23.476C147.863 22.956 147.715 22.348 147.715 21.652C147.715 20.964 147.867 20.36 148.171 19.84C148.475 19.312 148.891 18.908 149.419 18.628C149.947 18.348 150.539 18.208 151.195 18.208C151.851 18.208 152.443 18.348 152.971 18.628C153.499 18.908 153.915 19.312 154.219 19.84C154.523 20.36 154.675 20.964 154.675 21.652C154.675 22.34 154.519 22.948 154.207 23.476C153.903 23.996 153.483 24.396 152.947 24.676C152.419 24.956 151.827 25.096 151.171 25.096ZM151.171 23.32C151.563 23.32 151.895 23.176 152.167 22.888C152.447 22.6 152.587 22.188 152.587 21.652C152.587 21.116 152.451 20.704 152.179 20.416C151.915 20.128 151.587 19.984 151.195 19.984C150.795 19.984 150.463 20.128 150.199 20.416C149.935 20.696 149.803 21.108 149.803 21.652C149.803 22.188 149.931 22.6 150.187 22.888C150.451 23.176 150.779 23.32 151.171 23.32ZM164.308 18.232C165.14 18.232 165.8 18.484 166.288 18.988C166.784 19.492 167.032 20.192 167.032 21.088V25H164.992V21.364C164.992 20.932 164.876 20.6 164.644 20.368C164.42 20.128 164.108 20.008 163.708 20.008C163.308 20.008 162.992 20.128 162.76 20.368C162.536 20.6 162.424 20.932 162.424 21.364V25H160.384V21.364C160.384 20.932 160.268 20.6 160.036 20.368C159.812 20.128 159.5 20.008 159.1 20.008C158.7 20.008 158.384 20.128 158.152 20.368C157.928 20.6 157.816 20.932 157.816 21.364V25H155.764V18.304H157.816V19.144C158.024 18.864 158.296 18.644 158.632 18.484C158.968 18.316 159.348 18.232 159.772 18.232C160.276 18.232 160.724 18.34 161.116 18.556C161.516 18.772 161.828 19.08 162.052 19.48C162.284 19.112 162.6 18.812 163 18.58C163.4 18.348 163.836 18.232 164.308 18.232ZM174.779 21.544C174.779 21.736 174.767 21.936 174.743 22.144H170.099C170.131 22.56 170.263 22.88 170.495 23.104C170.735 23.32 171.027 23.428 171.371 23.428C171.883 23.428 172.239 23.212 172.439 22.78H174.623C174.511 23.22 174.307 23.616 174.011 23.968C173.723 24.32 173.359 24.596 172.919 24.796C172.479 24.996 171.987 25.096 171.443 25.096C170.787 25.096 170.203 24.956 169.691 24.676C169.179 24.396 168.779 23.996 168.491 23.476C168.203 22.956 168.059 22.348 168.059 21.652C168.059 20.956 168.199 20.348 168.479 19.828C168.767 19.308 169.167 18.908 169.679 18.628C170.191 18.348 170.779 18.208 171.443 18.208C172.091 18.208 172.667 18.344 173.171 18.616C173.675 18.888 174.067 19.276 174.347 19.78C174.635 20.284 174.779 20.872 174.779 21.544ZM172.679 21.004C172.679 20.652 172.559 20.372 172.319 20.164C172.079 19.956 171.779 19.852 171.419 19.852C171.075 19.852 170.783 19.952 170.543 20.152C170.311 20.352 170.167 20.636 170.111 21.004H172.679ZM181.128 25.096C180.544 25.096 180.024 24.996 179.568 24.796C179.112 24.596 178.752 24.324 178.488 23.98C178.224 23.628 178.076 23.236 178.044 22.804H180.072C180.096 23.036 180.204 23.224 180.396 23.368C180.588 23.512 180.824 23.584 181.104 23.584C181.36 23.584 181.556 23.536 181.692 23.44C181.836 23.336 181.908 23.204 181.908 23.044C181.908 22.852 181.808 22.712 181.608 22.624C181.408 22.528 181.084 22.424 180.636 22.312C180.156 22.2 179.756 22.084 179.436 21.964C179.116 21.836 178.84 21.64 178.608 21.376C178.376 21.104 178.26 20.74 178.26 20.284C178.26 19.9 178.364 19.552 178.572 19.24C178.788 18.92 179.1 18.668 179.508 18.484C179.924 18.3 180.416 18.208 180.984 18.208C181.824 18.208 182.484 18.416 182.964 18.832C183.452 19.248 183.732 19.8 183.804 20.488H181.908C181.876 20.256 181.772 20.072 181.596 19.936C181.428 19.8 181.204 19.732 180.924 19.732C180.684 19.732 180.5 19.78 180.372 19.876C180.244 19.964 180.18 20.088 180.18 20.248C180.18 20.44 180.28 20.584 180.48 20.68C180.688 20.776 181.008 20.872 181.44 20.968C181.936 21.096 182.34 21.224 182.652 21.352C182.964 21.472 183.236 21.672 183.468 21.952C183.708 22.224 183.832 22.592 183.84 23.056C183.84 23.448 183.728 23.8 183.504 24.112C183.288 24.416 182.972 24.656 182.556 24.832C182.148 25.008 181.672 25.096 181.128 25.096ZM191.408 21.544C191.408 21.736 191.396 21.936 191.372 22.144H186.728C186.76 22.56 186.892 22.88 187.124 23.104C187.364 23.32 187.656 23.428 188 23.428C188.512 23.428 188.868 23.212 189.068 22.78H191.252C191.14 23.22 190.936 23.616 190.64 23.968C190.352 24.32 189.988 24.596 189.548 24.796C189.108 24.996 188.616 25.096 188.072 25.096C187.416 25.096 186.832 24.956 186.32 24.676C185.808 24.396 185.408 23.996 185.12 23.476C184.832 22.956 184.688 22.348 184.688 21.652C184.688 20.956 184.828 20.348 185.108 19.828C185.396 19.308 185.796 18.908 186.308 18.628C186.82 18.348 187.408 18.208 188.072 18.208C188.72 18.208 189.296 18.344 189.8 18.616C190.304 18.888 190.696 19.276 190.976 19.78C191.264 20.284 191.408 20.872 191.408 21.544ZM189.308 21.004C189.308 20.652 189.188 20.372 188.948 20.164C188.708 19.956 188.408 19.852 188.048 19.852C187.704 19.852 187.412 19.952 187.172 20.152C186.94 20.352 186.796 20.636 186.74 21.004H189.308ZM198.802 21.544C198.802 21.736 198.79 21.936 198.766 22.144H194.122C194.154 22.56 194.286 22.88 194.518 23.104C194.758 23.32 195.05 23.428 195.394 23.428C195.906 23.428 196.262 23.212 196.462 22.78H198.646C198.534 23.22 198.33 23.616 198.034 23.968C197.746 24.32 197.382 24.596 196.942 24.796C196.502 24.996 196.01 25.096 195.466 25.096C194.81 25.096 194.226 24.956 193.714 24.676C193.202 24.396 192.802 23.996 192.514 23.476C192.226 22.956 192.082 22.348 192.082 21.652C192.082 20.956 192.222 20.348 192.502 19.828C192.79 19.308 193.19 18.908 193.702 18.628C194.214 18.348 194.802 18.208 195.466 18.208C196.114 18.208 196.69 18.344 197.194 18.616C197.698 18.888 198.09 19.276 198.37 19.78C198.658 20.284 198.802 20.872 198.802 21.544ZM196.702 21.004C196.702 20.652 196.582 20.372 196.342 20.164C196.102 19.956 195.802 19.852 195.442 19.852C195.098 19.852 194.806 19.952 194.566 20.152C194.334 20.352 194.19 20.636 194.134 21.004H196.702ZM205.476 25.096C204.82 25.096 204.228 24.956 203.7 24.676C203.18 24.396 202.768 23.996 202.464 23.476C202.168 22.956 202.02 22.348 202.02 21.652C202.02 20.964 202.172 20.36 202.476 19.84C202.78 19.312 203.196 18.908 203.724 18.628C204.252 18.348 204.844 18.208 205.5 18.208C206.156 18.208 206.748 18.348 207.276 18.628C207.804 18.908 208.22 19.312 208.524 19.84C208.828 20.36 208.98 20.964 208.98 21.652C208.98 22.34 208.824 22.948 208.512 23.476C208.208 23.996 207.788 24.396 207.252 24.676C206.724 24.956 206.132 25.096 205.476 25.096ZM205.476 23.32C205.868 23.32 206.2 23.176 206.472 22.888C206.752 22.6 206.892 22.188 206.892 21.652C206.892 21.116 206.756 20.704 206.484 20.416C206.22 20.128 205.892 19.984 205.5 19.984C205.1 19.984 204.768 20.128 204.504 20.416C204.24 20.696 204.108 21.108 204.108 21.652C204.108 22.188 204.236 22.6 204.492 22.888C204.756 23.176 205.084 23.32 205.476 23.32ZM216.68 18.304V25H214.628V24.088C214.42 24.384 214.136 24.624 213.776 24.808C213.424 24.984 213.032 25.072 212.6 25.072C212.088 25.072 211.636 24.96 211.244 24.736C210.852 24.504 210.548 24.172 210.332 23.74C210.116 23.308 210.008 22.8 210.008 22.216V18.304H212.048V21.94C212.048 22.388 212.164 22.736 212.396 22.984C212.628 23.232 212.94 23.356 213.332 23.356C213.732 23.356 214.048 23.232 214.28 22.984C214.512 22.736 214.628 22.388 214.628 21.94V18.304H216.68ZM220.206 19.42C220.446 19.052 220.746 18.764 221.106 18.556C221.466 18.34 221.866 18.232 222.306 18.232V20.404H221.742C221.23 20.404 220.846 20.516 220.59 20.74C220.334 20.956 220.206 21.34 220.206 21.892V25H218.154V18.304H220.206V19.42ZM228.554 25.096C227.97 25.096 227.45 24.996 226.994 24.796C226.538 24.596 226.178 24.324 225.914 23.98C225.65 23.628 225.502 23.236 225.47 22.804H227.498C227.522 23.036 227.63 23.224 227.822 23.368C228.014 23.512 228.25 23.584 228.53 23.584C228.786 23.584 228.982 23.536 229.118 23.44C229.262 23.336 229.334 23.204 229.334 23.044C229.334 22.852 229.234 22.712 229.034 22.624C228.834 22.528 228.51 22.424 228.062 22.312C227.582 22.2 227.182 22.084 226.862 21.964C226.542 21.836 226.266 21.64 226.034 21.376C225.802 21.104 225.686 20.74 225.686 20.284C225.686 19.9 225.79 19.552 225.998 19.24C226.214 18.92 226.526 18.668 226.934 18.484C227.35 18.3 227.842 18.208 228.41 18.208C229.25 18.208 229.91 18.416 230.39 18.832C230.878 19.248 231.158 19.8 231.23 20.488H229.334C229.302 20.256 229.198 20.072 229.022 19.936C228.854 19.8 228.63 19.732 228.35 19.732C228.11 19.732 227.926 19.78 227.798 19.876C227.67 19.964 227.606 20.088 227.606 20.248C227.606 20.44 227.706 20.584 227.906 20.68C228.114 20.776 228.434 20.872 228.866 20.968C229.362 21.096 229.766 21.224 230.078 21.352C230.39 21.472 230.662 21.672 230.894 21.952C231.134 22.224 231.258 22.592 231.266 23.056C231.266 23.448 231.154 23.8 230.93 24.112C230.714 24.416 230.398 24.656 229.982 24.832C229.574 25.008 229.098 25.096 228.554 25.096ZM241.065 18.232C241.897 18.232 242.557 18.484 243.045 18.988C243.541 19.492 243.789 20.192 243.789 21.088V25H241.749V21.364C241.749 20.932 241.633 20.6 241.401 20.368C241.177 20.128 240.865 20.008 240.465 20.008C240.065 20.008 239.749 20.128 239.517 20.368C239.293 20.6 239.181 20.932 239.181 21.364V25H237.141V21.364C237.141 20.932 237.025 20.6 236.793 20.368C236.569 20.128 236.257 20.008 235.857 20.008C235.457 20.008 235.141 20.128 234.909 20.368C234.685 20.6 234.573 20.932 234.573 21.364V25H232.521V18.304H234.573V19.144C234.781 18.864 235.053 18.644 235.389 18.484C235.725 18.316 236.105 18.232 236.529 18.232C237.033 18.232 237.481 18.34 237.873 18.556C238.273 18.772 238.585 19.08 238.809 19.48C239.041 19.112 239.357 18.812 239.757 18.58C240.157 18.348 240.593 18.232 241.065 18.232ZM244.816 21.64C244.816 20.952 244.944 20.348 245.2 19.828C245.464 19.308 245.82 18.908 246.268 18.628C246.716 18.348 247.216 18.208 247.768 18.208C248.24 18.208 248.652 18.304 249.004 18.496C249.364 18.688 249.64 18.94 249.832 19.252V18.304H251.884V25H249.832V24.052C249.632 24.364 249.352 24.616 248.992 24.808C248.64 25 248.228 25.096 247.756 25.096C247.212 25.096 246.716 24.956 246.268 24.676C245.82 24.388 245.464 23.984 245.2 23.464C244.944 22.936 244.816 22.328 244.816 21.64ZM249.832 21.652C249.832 21.14 249.688 20.736 249.4 20.44C249.12 20.144 248.776 19.996 248.368 19.996C247.96 19.996 247.612 20.144 247.324 20.44C247.044 20.728 246.904 21.128 246.904 21.64C246.904 22.152 247.044 22.56 247.324 22.864C247.612 23.16 247.96 23.308 248.368 23.308C248.776 23.308 249.12 23.16 249.4 22.864C249.688 22.568 249.832 22.164 249.832 21.652ZM255.421 19.42C255.661 19.052 255.961 18.764 256.321 18.556C256.681 18.34 257.081 18.232 257.521 18.232V20.404H256.957C256.445 20.404 256.061 20.516 255.805 20.74C255.549 20.956 255.421 21.34 255.421 21.892V25H253.369V18.304H255.421V19.42ZM262.234 23.26V25H261.19C260.446 25 259.866 24.82 259.45 24.46C259.034 24.092 258.826 23.496 258.826 22.672V20.008H258.01V18.304H258.826V16.672H260.878V18.304H262.222V20.008H260.878V22.696C260.878 22.896 260.926 23.04 261.022 23.128C261.118 23.216 261.278 23.26 261.502 23.26H262.234ZM268.644 25.096C268.06 25.096 267.54 24.996 267.084 24.796C266.628 24.596 266.268 24.324 266.004 23.98C265.74 23.628 265.592 23.236 265.56 22.804H267.588C267.612 23.036 267.72 23.224 267.912 23.368C268.104 23.512 268.34 23.584 268.62 23.584C268.876 23.584 269.072 23.536 269.208 23.44C269.352 23.336 269.424 23.204 269.424 23.044C269.424 22.852 269.324 22.712 269.124 22.624C268.924 22.528 268.6 22.424 268.152 22.312C267.672 22.2 267.272 22.084 266.952 21.964C266.632 21.836 266.356 21.64 266.124 21.376C265.892 21.104 265.776 20.74 265.776 20.284C265.776 19.9 265.88 19.552 266.088 19.24C266.304 18.92 266.616 18.668 267.024 18.484C267.44 18.3 267.932 18.208 268.5 18.208C269.34 18.208 270 18.416 270.48 18.832C270.968 19.248 271.248 19.8 271.32 20.488H269.424C269.392 20.256 269.288 20.072 269.112 19.936C268.944 19.8 268.72 19.732 268.44 19.732C268.2 19.732 268.016 19.78 267.888 19.876C267.76 19.964 267.696 20.088 267.696 20.248C267.696 20.44 267.796 20.584 267.996 20.68C268.204 20.776 268.524 20.872 268.956 20.968C269.452 21.096 269.856 21.224 270.168 21.352C270.48 21.472 270.752 21.672 270.984 21.952C271.224 22.224 271.348 22.592 271.356 23.056C271.356 23.448 271.244 23.8 271.02 24.112C270.804 24.416 270.488 24.656 270.072 24.832C269.664 25.008 269.188 25.096 268.644 25.096ZM279.223 18.304V25H277.171V24.088C276.963 24.384 276.679 24.624 276.319 24.808C275.967 24.984 275.575 25.072 275.143 25.072C274.631 25.072 274.179 24.96 273.787 24.736C273.395 24.504 273.091 24.172 272.875 23.74C272.659 23.308 272.551 22.8 272.551 22.216V18.304H274.591V21.94C274.591 22.388 274.707 22.736 274.939 22.984C275.171 23.232 275.483 23.356 275.875 23.356C276.275 23.356 276.591 23.232 276.823 22.984C277.055 22.736 277.171 22.388 277.171 21.94V18.304H279.223ZM283.241 18.208C283.713 18.208 284.125 18.304 284.477 18.496C284.837 18.688 285.113 18.94 285.305 19.252V18.304H287.357V24.988C287.357 25.604 287.233 26.16 286.985 26.656C286.745 27.16 286.373 27.56 285.869 27.856C285.373 28.152 284.753 28.3 284.009 28.3C283.017 28.3 282.213 28.064 281.597 27.592C280.981 27.128 280.629 26.496 280.541 25.696H282.569C282.633 25.952 282.785 26.152 283.025 26.296C283.265 26.448 283.561 26.524 283.913 26.524C284.337 26.524 284.673 26.4 284.921 26.152C285.177 25.912 285.305 25.524 285.305 24.988V24.04C285.105 24.352 284.829 24.608 284.477 24.808C284.125 25 283.713 25.096 283.241 25.096C282.689 25.096 282.189 24.956 281.741 24.676C281.293 24.388 280.937 23.984 280.673 23.464C280.417 22.936 280.289 22.328 280.289 21.64C280.289 20.952 280.417 20.348 280.673 19.828C280.937 19.308 281.293 18.908 281.741 18.628C282.189 18.348 282.689 18.208 283.241 18.208ZM285.305 21.652C285.305 21.14 285.161 20.736 284.873 20.44C284.593 20.144 284.249 19.996 283.841 19.996C283.433 19.996 283.085 20.144 282.797 20.44C282.517 20.728 282.377 21.128 282.377 21.64C282.377 22.152 282.517 22.56 282.797 22.864C283.085 23.16 283.433 23.308 283.841 23.308C284.249 23.308 284.593 23.16 284.873 22.864C285.161 22.568 285.305 22.164 285.305 21.652ZM291.386 18.208C291.858 18.208 292.27 18.304 292.622 18.496C292.982 18.688 293.258 18.94 293.45 19.252V18.304H295.502V24.988C295.502 25.604 295.378 26.16 295.13 26.656C294.89 27.16 294.518 27.56 294.014 27.856C293.518 28.152 292.898 28.3 292.154 28.3C291.162 28.3 290.358 28.064 289.742 27.592C289.126 27.128 288.774 26.496 288.686 25.696H290.714C290.778 25.952 290.93 26.152 291.17 26.296C291.41 26.448 291.706 26.524 292.058 26.524C292.482 26.524 292.818 26.4 293.066 26.152C293.322 25.912 293.45 25.524 293.45 24.988V24.04C293.25 24.352 292.974 24.608 292.622 24.808C292.27 25 291.858 25.096 291.386 25.096C290.834 25.096 290.334 24.956 289.886 24.676C289.438 24.388 289.082 23.984 288.818 23.464C288.562 22.936 288.434 22.328 288.434 21.64C288.434 20.952 288.562 20.348 288.818 19.828C289.082 19.308 289.438 18.908 289.886 18.628C290.334 18.348 290.834 18.208 291.386 18.208ZM293.45 21.652C293.45 21.14 293.306 20.736 293.018 20.44C292.738 20.144 292.394 19.996 291.986 19.996C291.578 19.996 291.23 20.144 290.942 20.44C290.662 20.728 290.522 21.128 290.522 21.64C290.522 22.152 290.662 22.56 290.942 22.864C291.23 23.16 291.578 23.308 291.986 23.308C292.394 23.308 292.738 23.16 293.018 22.864C293.306 22.568 293.45 22.164 293.45 21.652ZM303.298 21.544C303.298 21.736 303.286 21.936 303.262 22.144H298.618C298.65 22.56 298.782 22.88 299.014 23.104C299.254 23.32 299.546 23.428 299.89 23.428C300.402 23.428 300.758 23.212 300.958 22.78H303.142C303.03 23.22 302.826 23.616 302.53 23.968C302.242 24.32 301.878 24.596 301.438 24.796C300.998 24.996 300.506 25.096 299.962 25.096C299.306 25.096 298.722 24.956 298.21 24.676C297.698 24.396 297.298 23.996 297.01 23.476C296.722 22.956 296.578 22.348 296.578 21.652C296.578 20.956 296.718 20.348 296.998 19.828C297.286 19.308 297.686 18.908 298.198 18.628C298.71 18.348 299.298 18.208 299.962 18.208C300.61 18.208 301.186 18.344 301.69 18.616C302.194 18.888 302.586 19.276 302.866 19.78C303.154 20.284 303.298 20.872 303.298 21.544ZM301.198 21.004C301.198 20.652 301.078 20.372 300.838 20.164C300.598 19.956 300.298 19.852 299.938 19.852C299.594 19.852 299.302 19.952 299.062 20.152C298.83 20.352 298.686 20.636 298.63 21.004H301.198ZM307.105 25.096C306.521 25.096 306.001 24.996 305.545 24.796C305.089 24.596 304.729 24.324 304.465 23.98C304.201 23.628 304.053 23.236 304.021 22.804H306.049C306.073 23.036 306.181 23.224 306.373 23.368C306.565 23.512 306.801 23.584 307.081 23.584C307.337 23.584 307.533 23.536 307.669 23.44C307.813 23.336 307.885 23.204 307.885 23.044C307.885 22.852 307.785 22.712 307.585 22.624C307.385 22.528 307.061 22.424 306.613 22.312C306.133 22.2 305.733 22.084 305.413 21.964C305.093 21.836 304.817 21.64 304.585 21.376C304.353 21.104 304.237 20.74 304.237 20.284C304.237 19.9 304.341 19.552 304.549 19.24C304.765 18.92 305.077 18.668 305.485 18.484C305.901 18.3 306.393 18.208 306.961 18.208C307.801 18.208 308.461 18.416 308.941 18.832C309.429 19.248 309.709 19.8 309.781 20.488H307.885C307.853 20.256 307.749 20.072 307.573 19.936C307.405 19.8 307.181 19.732 306.901 19.732C306.661 19.732 306.477 19.78 306.349 19.876C306.221 19.964 306.157 20.088 306.157 20.248C306.157 20.44 306.257 20.584 306.457 20.68C306.665 20.776 306.985 20.872 307.417 20.968C307.913 21.096 308.317 21.224 308.629 21.352C308.941 21.472 309.213 21.672 309.445 21.952C309.685 22.224 309.809 22.592 309.817 23.056C309.817 23.448 309.705 23.8 309.481 24.112C309.265 24.416 308.949 24.656 308.533 24.832C308.125 25.008 307.649 25.096 307.105 25.096ZM314.804 23.26V25H313.76C313.016 25 312.436 24.82 312.02 24.46C311.604 24.092 311.396 23.496 311.396 22.672V20.008H310.58V18.304H311.396V16.672H313.448V18.304H314.792V20.008H313.448V22.696C313.448 22.896 313.496 23.04 313.592 23.128C313.688 23.216 313.848 23.26 314.072 23.26H314.804ZM316.979 17.608C316.619 17.608 316.323 17.504 316.091 17.296C315.867 17.08 315.755 16.816 315.755 16.504C315.755 16.184 315.867 15.92 316.091 15.712C316.323 15.496 316.619 15.388 316.979 15.388C317.331 15.388 317.619 15.496 317.843 15.712C318.075 15.92 318.191 16.184 318.191 16.504C318.191 16.816 318.075 17.08 317.843 17.296C317.619 17.504 317.331 17.608 316.979 17.608ZM317.999 18.304V25H315.947V18.304H317.999ZM322.534 25.096C321.878 25.096 321.286 24.956 320.758 24.676C320.238 24.396 319.826 23.996 319.522 23.476C319.226 22.956 319.078 22.348 319.078 21.652C319.078 20.964 319.23 20.36 319.534 19.84C319.838 19.312 320.254 18.908 320.782 18.628C321.31 18.348 321.902 18.208 322.558 18.208C323.214 18.208 323.806 18.348 324.334 18.628C324.862 18.908 325.278 19.312 325.582 19.84C325.886 20.36 326.038 20.964 326.038 21.652C326.038 22.34 325.882 22.948 325.57 23.476C325.266 23.996 324.846 24.396 324.31 24.676C323.782 24.956 323.19 25.096 322.534 25.096ZM322.534 23.32C322.926 23.32 323.258 23.176 323.53 22.888C323.81 22.6 323.95 22.188 323.95 21.652C323.95 21.116 323.814 20.704 323.542 20.416C323.278 20.128 322.95 19.984 322.558 19.984C322.158 19.984 321.826 20.128 321.562 20.416C321.298 20.696 321.166 21.108 321.166 21.652C321.166 22.188 321.294 22.6 321.55 22.888C321.814 23.176 322.142 23.32 322.534 23.32ZM331.207 18.232C331.991 18.232 332.615 18.488 333.079 19C333.551 19.504 333.787 20.2 333.787 21.088V25H331.747V21.364C331.747 20.916 331.631 20.568 331.399 20.32C331.167 20.072 330.855 19.948 330.463 19.948C330.071 19.948 329.759 20.072 329.527 20.32C329.295 20.568 329.179 20.916 329.179 21.364V25H327.127V18.304H329.179V19.192C329.387 18.896 329.667 18.664 330.019 18.496C330.371 18.32 330.767 18.232 331.207 18.232ZM337.937 25.096C337.353 25.096 336.833 24.996 336.377 24.796C335.921 24.596 335.561 24.324 335.297 23.98C335.033 23.628 334.885 23.236 334.853 22.804H336.881C336.905 23.036 337.013 23.224 337.205 23.368C337.397 23.512 337.633 23.584 337.913 23.584C338.169 23.584 338.365 23.536 338.501 23.44C338.645 23.336 338.717 23.204 338.717 23.044C338.717 22.852 338.617 22.712 338.417 22.624C338.217 22.528 337.893 22.424 337.445 22.312C336.965 22.2 336.565 22.084 336.245 21.964C335.925 21.836 335.649 21.64 335.417 21.376C335.185 21.104 335.069 20.74 335.069 20.284C335.069 19.9 335.173 19.552 335.381 19.24C335.597 18.92 335.909 18.668 336.317 18.484C336.733 18.3 337.225 18.208 337.793 18.208C338.633 18.208 339.293 18.416 339.773 18.832C340.261 19.248 340.541 19.8 340.613 20.488H338.717C338.685 20.256 338.581 20.072 338.405 19.936C338.237 19.8 338.013 19.732 337.733 19.732C337.493 19.732 337.309 19.78 337.181 19.876C337.053 19.964 336.989 20.088 336.989 20.248C336.989 20.44 337.089 20.584 337.289 20.68C337.497 20.776 337.817 20.872 338.249 20.968C338.745 21.096 339.149 21.224 339.461 21.352C339.773 21.472 340.045 21.672 340.277 21.952C340.517 22.224 340.641 22.592 340.649 23.056C340.649 23.448 340.537 23.8 340.313 24.112C340.097 24.416 339.781 24.656 339.365 24.832C338.957 25.008 338.481 25.096 337.937 25.096ZM344.604 16.276L344.364 22.024H342.624L342.384 16.276H344.604ZM343.524 25.096C343.164 25.096 342.868 24.992 342.636 24.784C342.412 24.568 342.3 24.304 342.3 23.992C342.3 23.672 342.412 23.404 342.636 23.188C342.868 22.972 343.164 22.864 343.524 22.864C343.876 22.864 344.164 22.972 344.388 23.188C344.62 23.404 344.736 23.672 344.736 23.992C344.736 24.304 344.62 24.568 344.388 24.784C344.164 24.992 343.876 25.096 343.524 25.096Z" fill="#333333"/>
</svg>
