<svg width="108" height="23" viewBox="0 0 108 23" fill="none" xmlns="http://www.w3.org/2000/svg">
<g filter="url(#filter0_d_210_2032)">
<path d="M15.5317 5.66V14H14.1637V8.288L11.6197 14H10.6717L8.11566 8.288V14H6.74766V5.66H8.22366L11.1517 12.2L14.0677 5.66H15.5317ZM23.3897 10.532C23.3897 10.78 23.3737 11.004 23.3417 11.204H18.2897C18.3297 11.732 18.5257 12.156 18.8777 12.476C19.2297 12.796 19.6617 12.956 20.1737 12.956C20.9097 12.956 21.4297 12.648 21.7337 12.032H23.2097C23.0097 12.64 22.6457 13.14 22.1177 13.532C21.5977 13.916 20.9497 14.108 20.1737 14.108C19.5417 14.108 18.9737 13.968 18.4697 13.688C17.9737 13.4 17.5817 13 17.2937 12.488C17.0137 11.968 16.8737 11.368 16.8737 10.688C16.8737 10.008 17.0097 9.412 17.2817 8.9C17.5617 8.38 17.9497 7.98 18.4457 7.7C18.9497 7.42 19.5257 7.28 20.1737 7.28C20.7977 7.28 21.3537 7.416 21.8417 7.688C22.3297 7.96 22.7097 8.344 22.9817 8.84C23.2537 9.328 23.3897 9.892 23.3897 10.532ZM21.9617 10.1C21.9537 9.596 21.7737 9.192 21.4217 8.888C21.0697 8.584 20.6337 8.432 20.1137 8.432C19.6417 8.432 19.2377 8.584 18.9017 8.888C18.5657 9.184 18.3657 9.588 18.3017 10.1H21.9617ZM27.5679 10.652L29.7039 14H28.1559L26.7279 11.756L25.3839 14H23.9559L26.0919 10.748L23.9559 7.388H25.5039L26.9319 9.632L28.2759 7.388H29.7039L27.5679 10.652ZM31.4202 6.512C31.1722 6.512 30.9642 6.428 30.7962 6.26C30.6282 6.092 30.5442 5.884 30.5442 5.636C30.5442 5.388 30.6282 5.18 30.7962 5.012C30.9642 4.844 31.1722 4.76 31.4202 4.76C31.6602 4.76 31.8642 4.844 32.0322 5.012C32.2002 5.18 32.2842 5.388 32.2842 5.636C32.2842 5.884 32.2002 6.092 32.0322 6.26C31.8642 6.428 31.6602 6.512 31.4202 6.512ZM32.0922 7.388V14H30.7242V7.388H32.0922ZM33.4323 10.688C33.4323 10.008 33.5683 9.412 33.8403 8.9C34.1203 8.38 34.5043 7.98 34.9923 7.7C35.4803 7.42 36.0403 7.28 36.6723 7.28C37.4723 7.28 38.1323 7.472 38.6523 7.856C39.1803 8.232 39.5363 8.772 39.7203 9.476H38.2443C38.1243 9.148 37.9323 8.892 37.6683 8.708C37.4043 8.524 37.0723 8.432 36.6723 8.432C36.1123 8.432 35.6643 8.632 35.3283 9.032C35.0003 9.424 34.8363 9.976 34.8363 10.688C34.8363 11.4 35.0003 11.956 35.3283 12.356C35.6643 12.756 36.1123 12.956 36.6723 12.956C37.4643 12.956 37.9883 12.608 38.2443 11.912H39.7203C39.5283 12.584 39.1683 13.12 38.6403 13.52C38.1123 13.912 37.4563 14.108 36.6723 14.108C36.0403 14.108 35.4803 13.968 34.9923 13.688C34.5043 13.4 34.1203 13 33.8403 12.488C33.5683 11.968 33.4323 11.368 33.4323 10.688ZM40.6276 10.664C40.6276 10 40.7636 9.412 41.0356 8.9C41.3156 8.388 41.6916 7.992 42.1636 7.712C42.6436 7.424 43.1716 7.28 43.7476 7.28C44.2676 7.28 44.7196 7.384 45.1036 7.592C45.4956 7.792 45.8076 8.044 46.0396 8.348V7.388H47.4196V14H46.0396V13.016C45.8076 13.328 45.4916 13.588 45.0916 13.796C44.6916 14.004 44.2356 14.108 43.7236 14.108C43.1556 14.108 42.6356 13.964 42.1636 13.676C41.6916 13.38 41.3156 12.972 41.0356 12.452C40.7636 11.924 40.6276 11.328 40.6276 10.664ZM46.0396 10.688C46.0396 10.232 45.9436 9.836 45.7516 9.5C45.5676 9.164 45.3236 8.908 45.0196 8.732C44.7156 8.556 44.3876 8.468 44.0356 8.468C43.6836 8.468 43.3556 8.556 43.0516 8.732C42.7476 8.9 42.4996 9.152 42.3076 9.488C42.1236 9.816 42.0316 10.208 42.0316 10.664C42.0316 11.12 42.1236 11.52 42.3076 11.864C42.4996 12.208 42.7476 12.472 43.0516 12.656C43.3636 12.832 43.6916 12.92 44.0356 12.92C44.3876 12.92 44.7156 12.832 45.0196 12.656C45.3236 12.48 45.5676 12.224 45.7516 11.888C45.9436 11.544 46.0396 11.144 46.0396 10.688ZM52.5524 7.28C53.0724 7.28 53.5364 7.388 53.9444 7.604C54.3604 7.82 54.6844 8.14 54.9164 8.564C55.1484 8.988 55.2644 9.5 55.2644 10.1V14H53.9084V10.304C53.9084 9.712 53.7604 9.26 53.4644 8.948C53.1684 8.628 52.7644 8.468 52.2524 8.468C51.7404 8.468 51.3324 8.628 51.0284 8.948C50.7324 9.26 50.5844 9.712 50.5844 10.304V14H49.2164V7.388H50.5844V8.144C50.8084 7.872 51.0924 7.66 51.4364 7.508C51.7884 7.356 52.1604 7.28 52.5524 7.28ZM59.6706 10.688C59.6706 10.008 59.8066 9.412 60.0786 8.9C60.3586 8.38 60.7426 7.98 61.2306 7.7C61.7186 7.42 62.2786 7.28 62.9106 7.28C63.7106 7.28 64.3706 7.472 64.8906 7.856C65.4186 8.232 65.7746 8.772 65.9586 9.476H64.4826C64.3626 9.148 64.1706 8.892 63.9066 8.708C63.6426 8.524 63.3106 8.432 62.9106 8.432C62.3506 8.432 61.9026 8.632 61.5666 9.032C61.2386 9.424 61.0746 9.976 61.0746 10.688C61.0746 11.4 61.2386 11.956 61.5666 12.356C61.9026 12.756 62.3506 12.956 62.9106 12.956C63.7026 12.956 64.2266 12.608 64.4826 11.912H65.9586C65.7666 12.584 65.4066 13.12 64.8786 13.52C64.3506 13.912 63.6946 14.108 62.9106 14.108C62.2786 14.108 61.7186 13.968 61.2306 13.688C60.7426 13.4 60.3586 13 60.0786 12.488C59.8066 11.968 59.6706 11.368 59.6706 10.688ZM73.3099 7.388V14H71.9419V13.22C71.7259 13.492 71.4419 13.708 71.0899 13.868C70.7459 14.02 70.3779 14.096 69.9859 14.096C69.4659 14.096 68.9979 13.988 68.5819 13.772C68.1739 13.556 67.8499 13.236 67.6099 12.812C67.3779 12.388 67.2619 11.876 67.2619 11.276V7.388H68.6179V11.072C68.6179 11.664 68.7659 12.12 69.0619 12.44C69.3579 12.752 69.7619 12.908 70.2739 12.908C70.7859 12.908 71.1899 12.752 71.4859 12.44C71.7899 12.12 71.9419 11.664 71.9419 11.072V7.388H73.3099ZM75.8108 6.512C75.5628 6.512 75.3548 6.428 75.1868 6.26C75.0188 6.092 74.9348 5.884 74.9348 5.636C74.9348 5.388 75.0188 5.18 75.1868 5.012C75.3548 4.844 75.5628 4.76 75.8108 4.76C76.0508 4.76 76.2548 4.844 76.4228 5.012C76.5908 5.18 76.6748 5.388 76.6748 5.636C76.6748 5.884 76.5908 6.092 76.4228 6.26C76.2548 6.428 76.0508 6.512 75.8108 6.512ZM76.4828 7.388V14H75.1148V7.388H76.4828ZM80.6789 14.108C80.1589 14.108 79.6909 14.016 79.2749 13.832C78.8669 13.64 78.5429 13.384 78.3029 13.064C78.0629 12.736 77.9349 12.372 77.9189 11.972H79.3349C79.3589 12.252 79.4909 12.488 79.7309 12.68C79.9789 12.864 80.2869 12.956 80.6549 12.956C81.0389 12.956 81.3349 12.884 81.5429 12.74C81.7589 12.588 81.8669 12.396 81.8669 12.164C81.8669 11.916 81.7469 11.732 81.5069 11.612C81.2749 11.492 80.9029 11.36 80.3909 11.216C79.8949 11.08 79.4909 10.948 79.1789 10.82C78.8669 10.692 78.5949 10.496 78.3629 10.232C78.1389 9.968 78.0269 9.62 78.0269 9.188C78.0269 8.836 78.1309 8.516 78.3389 8.228C78.5469 7.932 78.8429 7.7 79.2269 7.532C79.6189 7.364 80.0669 7.28 80.5709 7.28C81.3229 7.28 81.9269 7.472 82.3829 7.856C82.8469 8.232 83.0949 8.748 83.1269 9.404H81.7589C81.7349 9.108 81.6149 8.872 81.3989 8.696C81.1829 8.52 80.8909 8.432 80.5229 8.432C80.1629 8.432 79.8869 8.5 79.6949 8.636C79.5029 8.772 79.4069 8.952 79.4069 9.176C79.4069 9.352 79.4709 9.5 79.5989 9.62C79.7269 9.74 79.8829 9.836 80.0669 9.908C80.2509 9.972 80.5229 10.056 80.8829 10.16C81.3629 10.288 81.7549 10.42 82.0589 10.556C82.3709 10.684 82.6389 10.876 82.8629 11.132C83.0869 11.388 83.2029 11.728 83.2109 12.152C83.2109 12.528 83.1069 12.864 82.8989 13.16C82.6909 13.456 82.3949 13.688 82.0109 13.856C81.6349 14.024 81.1909 14.108 80.6789 14.108ZM85.3851 6.512C85.1371 6.512 84.9291 6.428 84.7611 6.26C84.5931 6.092 84.5091 5.884 84.5091 5.636C84.5091 5.388 84.5931 5.18 84.7611 5.012C84.9291 4.844 85.1371 4.76 85.3851 4.76C85.6251 4.76 85.8291 4.844 85.9971 5.012C86.1651 5.18 86.2491 5.388 86.2491 5.636C86.2491 5.884 86.1651 6.092 85.9971 6.26C85.8291 6.428 85.6251 6.512 85.3851 6.512ZM86.0571 7.388V14H84.6891V7.388H86.0571ZM91.1891 7.28C91.7091 7.28 92.1731 7.388 92.5811 7.604C92.9971 7.82 93.3211 8.14 93.5531 8.564C93.7851 8.988 93.9011 9.5 93.9011 10.1V14H92.5451V10.304C92.5451 9.712 92.3971 9.26 92.1011 8.948C91.8051 8.628 91.4011 8.468 90.8891 8.468C90.3771 8.468 89.9691 8.628 89.6651 8.948C89.3691 9.26 89.2211 9.712 89.2211 10.304V14H87.8531V7.388H89.2211V8.144C89.4451 7.872 89.7291 7.66 90.0731 7.508C90.4251 7.356 90.7971 7.28 91.1891 7.28ZM101.706 10.532C101.706 10.78 101.69 11.004 101.658 11.204H96.6061C96.6461 11.732 96.8421 12.156 97.1941 12.476C97.5461 12.796 97.9781 12.956 98.4901 12.956C99.2261 12.956 99.7461 12.648 100.05 12.032H101.526C101.326 12.64 100.962 13.14 100.434 13.532C99.9141 13.916 99.2661 14.108 98.4901 14.108C97.8581 14.108 97.2901 13.968 96.7861 13.688C96.2901 13.4 95.8981 13 95.6101 12.488C95.3301 11.968 95.1901 11.368 95.1901 10.688C95.1901 10.008 95.3261 9.412 95.5981 8.9C95.8781 8.38 96.2661 7.98 96.7621 7.7C97.2661 7.42 97.8421 7.28 98.4901 7.28C99.1141 7.28 99.6701 7.416 100.158 7.688C100.646 7.96 101.026 8.344 101.298 8.84C101.57 9.328 101.706 9.892 101.706 10.532ZM100.278 10.1C100.27 9.596 100.09 9.192 99.7381 8.888C99.3861 8.584 98.9501 8.432 98.4301 8.432C97.9581 8.432 97.5541 8.584 97.2181 8.888C96.8821 9.184 96.6821 9.588 96.6181 10.1H100.278Z" fill="#333333" fill-opacity="0.75" shape-rendering="crispEdges"/>
</g>
<defs>
<filter id="filter0_d_210_2032" x="0.747681" y="0.76001" width="106.958" height="21.3479" filterUnits="userSpaceOnUse" color-interpolation-filters="sRGB">
<feFlood flood-opacity="0" result="BackgroundImageFix"/>
<feColorMatrix in="SourceAlpha" type="matrix" values="0 0 0 0 0 0 0 0 0 0 0 0 0 0 0 0 0 0 127 0" result="hardAlpha"/>
<feOffset dy="2"/>
<feGaussianBlur stdDeviation="3"/>
<feComposite in2="hardAlpha" operator="out"/>
<feColorMatrix type="matrix" values="0 0 0 0 0 0 0 0 0 0 0 0 0 0 0 0 0 0 0.25 0"/>
<feBlend mode="normal" in2="BackgroundImageFix" result="effect1_dropShadow_210_2032"/>
<feBlend mode="normal" in="SourceGraphic" in2="effect1_dropShadow_210_2032" result="shape"/>
</filter>
</defs>
</svg>
