<svg width="77" height="16" viewBox="0 0 77 16" fill="none" xmlns="http://www.w3.org/2000/svg">
<path d="M10.1105 1.812V11.5H8.83652V4.276L5.61652 11.5H4.72052L1.48652 4.262V11.5H0.212522V1.812H1.58452L5.16852 9.82L8.75252 1.812H10.1105ZM18.8791 3.828L14.2591 15.112H12.9431L14.4551 11.416L11.3611 3.828H12.7751L15.1831 10.044L17.5631 3.828H18.8791ZM23.4162 7.636C23.4162 6.852 23.5749 6.166 23.8922 5.578C24.2095 4.98067 24.6435 4.51867 25.1942 4.192C25.7542 3.86533 26.3795 3.702 27.0702 3.702C27.6675 3.702 28.2229 3.842 28.7362 4.122C29.2495 4.39267 29.6415 4.752 29.9122 5.2V1.14H31.2002V11.5H29.9122V10.058C29.6602 10.5153 29.2869 10.8933 28.7922 11.192C28.2975 11.4813 27.7189 11.626 27.0562 11.626C26.3749 11.626 25.7542 11.458 25.1942 11.122C24.6435 10.786 24.2095 10.3147 23.8922 9.708C23.5749 9.10133 23.4162 8.41067 23.4162 7.636ZM29.9122 7.65C29.9122 7.07133 29.7955 6.56733 29.5622 6.138C29.3289 5.70867 29.0115 5.382 28.6102 5.158C28.2182 4.92467 27.7842 4.808 27.3082 4.808C26.8322 4.808 26.3982 4.92 26.0062 5.144C25.6142 5.368 25.3015 5.69467 25.0682 6.124C24.8349 6.55333 24.7182 7.05733 24.7182 7.636C24.7182 8.224 24.8349 8.73733 25.0682 9.176C25.3015 9.60533 25.6142 9.93667 26.0062 10.17C26.3982 10.394 26.8322 10.506 27.3082 10.506C27.7842 10.506 28.2182 10.394 28.6102 10.17C29.0115 9.93667 29.3289 9.60533 29.5622 9.176C29.7955 8.73733 29.9122 8.22867 29.9122 7.65ZM40.3531 7.37C40.3531 7.61267 40.3391 7.86933 40.3111 8.14H34.1791C34.2258 8.896 34.4825 9.48867 34.9491 9.918C35.4251 10.338 35.9991 10.548 36.6711 10.548C37.2218 10.548 37.6791 10.422 38.0431 10.17C38.4165 9.90867 38.6778 9.56333 38.8271 9.134H40.1991C39.9938 9.87133 39.5831 10.4733 38.9671 10.94C38.3511 11.3973 37.5858 11.626 36.6711 11.626C35.9431 11.626 35.2898 11.4627 34.7111 11.136C34.1418 10.8093 33.6938 10.3473 33.3671 9.75C33.0405 9.14333 32.8771 8.44333 32.8771 7.65C32.8771 6.85667 33.0358 6.16133 33.3531 5.564C33.6705 4.96667 34.1138 4.50933 34.6831 4.192C35.2618 3.86533 35.9245 3.702 36.6711 3.702C37.3991 3.702 38.0431 3.86067 38.6031 4.178C39.1631 4.49533 39.5925 4.934 39.8911 5.494C40.1991 6.04467 40.3531 6.67 40.3531 7.37ZM39.0371 7.104C39.0371 6.61867 38.9298 6.20333 38.7151 5.858C38.5005 5.50333 38.2065 5.23733 37.8331 5.06C37.4691 4.87333 37.0631 4.78 36.6151 4.78C35.9711 4.78 35.4205 4.98533 34.9631 5.396C34.5151 5.80667 34.2585 6.376 34.1931 7.104H39.0371ZM44.8908 10.324L47.2708 3.828H48.6288L45.6188 11.5H44.1348L41.1248 3.828H42.4968L44.8908 10.324ZM50.5404 2.582C50.2978 2.582 50.0924 2.498 49.9244 2.33C49.7564 2.162 49.6724 1.95667 49.6724 1.714C49.6724 1.47133 49.7564 1.266 49.9244 1.098C50.0924 0.93 50.2978 0.845999 50.5404 0.845999C50.7738 0.845999 50.9698 0.93 51.1284 1.098C51.2964 1.266 51.3804 1.47133 51.3804 1.714C51.3804 1.95667 51.2964 2.162 51.1284 2.33C50.9698 2.498 50.7738 2.582 50.5404 2.582ZM51.1564 3.828V11.5H49.8824V3.828H51.1564ZM52.8518 7.65C52.8518 6.85667 53.0104 6.166 53.3278 5.578C53.6451 4.98067 54.0838 4.51867 54.6438 4.192C55.2131 3.86533 55.8618 3.702 56.5898 3.702C57.5324 3.702 58.3071 3.93067 58.9138 4.388C59.5298 4.84533 59.9358 5.48 60.1318 6.292H58.7598C58.6291 5.82533 58.3724 5.45667 57.9898 5.186C57.6164 4.91533 57.1498 4.78 56.5898 4.78C55.8618 4.78 55.2738 5.032 54.8258 5.536C54.3778 6.03067 54.1538 6.73533 54.1538 7.65C54.1538 8.574 54.3778 9.288 54.8258 9.792C55.2738 10.296 55.8618 10.548 56.5898 10.548C57.1498 10.548 57.6164 10.4173 57.9898 10.156C58.3631 9.89467 58.6198 9.52133 58.7598 9.036H60.1318C59.9264 9.82 59.5158 10.45 58.8998 10.926C58.2838 11.3927 57.5138 11.626 56.5898 11.626C55.8618 11.626 55.2131 11.4627 54.6438 11.136C54.0838 10.8093 53.6451 10.3473 53.3278 9.75C53.0104 9.15267 52.8518 8.45267 52.8518 7.65ZM68.8317 7.37C68.8317 7.61267 68.8177 7.86933 68.7897 8.14H62.6577C62.7043 8.896 62.961 9.48867 63.4277 9.918C63.9037 10.338 64.4777 10.548 65.1497 10.548C65.7003 10.548 66.1577 10.422 66.5217 10.17C66.895 9.90867 67.1563 9.56333 67.3057 9.134H68.6777C68.4723 9.87133 68.0617 10.4733 67.4457 10.94C66.8297 11.3973 66.0643 11.626 65.1497 11.626C64.4217 11.626 63.7683 11.4627 63.1897 11.136C62.6203 10.8093 62.1723 10.3473 61.8457 9.75C61.519 9.14333 61.3557 8.44333 61.3557 7.65C61.3557 6.85667 61.5143 6.16133 61.8317 5.564C62.149 4.96667 62.5923 4.50933 63.1617 4.192C63.7403 3.86533 64.403 3.702 65.1497 3.702C65.8777 3.702 66.5217 3.86067 67.0817 4.178C67.6417 4.49533 68.071 4.934 68.3697 5.494C68.6777 6.04467 68.8317 6.67 68.8317 7.37ZM67.5157 7.104C67.5157 6.61867 67.4083 6.20333 67.1937 5.858C66.979 5.50333 66.685 5.23733 66.3117 5.06C65.9477 4.87333 65.5417 4.78 65.0937 4.78C64.4497 4.78 63.899 4.98533 63.4417 5.396C62.9937 5.80667 62.737 6.376 62.6717 7.104H67.5157ZM73.2293 11.626C72.6413 11.626 72.114 11.528 71.6473 11.332C71.1806 11.1267 70.812 10.8467 70.5413 10.492C70.2706 10.128 70.1213 9.71267 70.0933 9.246H71.4093C71.4466 9.62867 71.624 9.94133 71.9413 10.184C72.268 10.4267 72.6926 10.548 73.2153 10.548C73.7006 10.548 74.0833 10.4407 74.3633 10.226C74.6433 10.0113 74.7833 9.74067 74.7833 9.414C74.7833 9.078 74.634 8.83067 74.3353 8.672C74.0366 8.504 73.5746 8.34067 72.9493 8.182C72.38 8.03267 71.9133 7.88333 71.5493 7.734C71.1946 7.57533 70.8866 7.34667 70.6253 7.048C70.3733 6.74 70.2473 6.33867 70.2473 5.844C70.2473 5.452 70.364 5.09267 70.5973 4.766C70.8306 4.43933 71.162 4.18267 71.5913 3.996C72.0206 3.8 72.5106 3.702 73.0613 3.702C73.9106 3.702 74.5966 3.91667 75.1193 4.346C75.642 4.77533 75.922 5.36333 75.9593 6.11H74.6853C74.6573 5.70867 74.494 5.38667 74.1953 5.144C73.906 4.90133 73.514 4.78 73.0193 4.78C72.562 4.78 72.198 4.878 71.9273 5.074C71.6566 5.27 71.5213 5.52667 71.5213 5.844C71.5213 6.096 71.6006 6.306 71.7593 6.474C71.9273 6.63267 72.1326 6.76333 72.3753 6.866C72.6273 6.95933 72.9726 7.06667 73.4113 7.188C73.962 7.33733 74.41 7.48667 74.7553 7.636C75.1006 7.776 75.3946 7.99067 75.6373 8.28C75.8893 8.56933 76.02 8.94733 76.0293 9.414C76.0293 9.834 75.9126 10.212 75.6793 10.548C75.446 10.884 75.1146 11.15 74.6853 11.346C74.2653 11.5327 73.78 11.626 73.2293 11.626Z" fill="#333333"/>
</svg>
