<svg width="100" height="16" viewBox="0 0 100 16" fill="none" xmlns="http://www.w3.org/2000/svg">
<path d="M10.1105 1.812V11.5H8.83652V4.276L5.61652 11.5H4.72052L1.48652 4.262V11.5H0.212522V1.812H1.58452L5.16852 9.82L8.75252 1.812H10.1105ZM18.8791 3.828L14.2591 15.112H12.9431L14.4551 11.416L11.3611 3.828H12.7751L15.1831 10.044L17.5631 3.828H18.8791ZM27.0562 3.702C27.7189 3.702 28.2975 3.84667 28.7922 4.136C29.2962 4.42533 29.6695 4.78933 29.9122 5.228V3.828H31.2002V11.668C31.2002 12.368 31.0509 12.9887 30.7522 13.53C30.4535 14.0807 30.0242 14.51 29.4642 14.818C28.9135 15.126 28.2695 15.28 27.5322 15.28C26.5242 15.28 25.6842 15.042 25.0122 14.566C24.3402 14.09 23.9435 13.4413 23.8222 12.62H25.0822C25.2222 13.0867 25.5115 13.46 25.9502 13.74C26.3889 14.0293 26.9162 14.174 27.5322 14.174C28.2322 14.174 28.8015 13.9547 29.2402 13.516C29.6882 13.0773 29.9122 12.4613 29.9122 11.668V10.058C29.6602 10.506 29.2869 10.8793 28.7922 11.178C28.2975 11.4767 27.7189 11.626 27.0562 11.626C26.3749 11.626 25.7542 11.458 25.1942 11.122C24.6435 10.786 24.2095 10.3147 23.8922 9.708C23.5749 9.10133 23.4162 8.41067 23.4162 7.636C23.4162 6.852 23.5749 6.166 23.8922 5.578C24.2095 4.98067 24.6435 4.51867 25.1942 4.192C25.7542 3.86533 26.3749 3.702 27.0562 3.702ZM29.9122 7.65C29.9122 7.07133 29.7955 6.56733 29.5622 6.138C29.3289 5.70867 29.0115 5.382 28.6102 5.158C28.2182 4.92467 27.7842 4.808 27.3082 4.808C26.8322 4.808 26.3982 4.92 26.0062 5.144C25.6142 5.368 25.3015 5.69467 25.0682 6.124C24.8349 6.55333 24.7182 7.05733 24.7182 7.636C24.7182 8.224 24.8349 8.73733 25.0682 9.176C25.3015 9.60533 25.6142 9.93667 26.0062 10.17C26.3982 10.394 26.8322 10.506 27.3082 10.506C27.7842 10.506 28.2182 10.394 28.6102 10.17C29.0115 9.93667 29.3289 9.60533 29.5622 9.176C29.7955 8.73733 29.9122 8.22867 29.9122 7.65ZM34.6271 5.074C34.8511 4.63533 35.1685 4.29467 35.5791 4.052C35.9991 3.80933 36.5078 3.688 37.1051 3.688V5.004H36.7691C35.3411 5.004 34.6271 5.77867 34.6271 7.328V11.5H33.3531V3.828H34.6271V5.074ZM41.9218 11.626C41.2031 11.626 40.5498 11.4627 39.9618 11.136C39.3831 10.8093 38.9258 10.3473 38.5898 9.75C38.2631 9.14333 38.0998 8.44333 38.0998 7.65C38.0998 6.866 38.2678 6.17533 38.6038 5.578C38.9491 4.97133 39.4158 4.50933 40.0038 4.192C40.5918 3.86533 41.2498 3.702 41.9778 3.702C42.7058 3.702 43.3638 3.86533 43.9518 4.192C44.5398 4.50933 45.0018 4.96667 45.3378 5.564C45.6831 6.16133 45.8558 6.85667 45.8558 7.65C45.8558 8.44333 45.6785 9.14333 45.3238 9.75C44.9785 10.3473 44.5071 10.8093 43.9098 11.136C43.3125 11.4627 42.6498 11.626 41.9218 11.626ZM41.9218 10.506C42.3791 10.506 42.8085 10.3987 43.2098 10.184C43.6111 9.96933 43.9331 9.64733 44.1758 9.218C44.4278 8.78867 44.5538 8.266 44.5538 7.65C44.5538 7.034 44.4325 6.51133 44.1898 6.082C43.9471 5.65267 43.6298 5.33533 43.2378 5.13C42.8458 4.91533 42.4211 4.808 41.9638 4.808C41.4971 4.808 41.0678 4.91533 40.6758 5.13C40.2931 5.33533 39.9851 5.65267 39.7518 6.082C39.5185 6.51133 39.4018 7.034 39.4018 7.65C39.4018 8.27533 39.5138 8.80267 39.7378 9.232C39.9711 9.66133 40.2791 9.98333 40.6618 10.198C41.0445 10.4033 41.4645 10.506 41.9218 10.506ZM47.0549 7.65C47.0549 6.85667 47.2135 6.166 47.5309 5.578C47.8482 4.98067 48.2869 4.51867 48.8469 4.192C49.4162 3.86533 50.0649 3.702 50.7929 3.702C51.7355 3.702 52.5102 3.93067 53.1169 4.388C53.7329 4.84533 54.1389 5.48 54.3349 6.292H52.9629C52.8322 5.82533 52.5755 5.45667 52.1929 5.186C51.8195 4.91533 51.3529 4.78 50.7929 4.78C50.0649 4.78 49.4769 5.032 49.0289 5.536C48.5809 6.03067 48.3569 6.73533 48.3569 7.65C48.3569 8.574 48.5809 9.288 49.0289 9.792C49.4769 10.296 50.0649 10.548 50.7929 10.548C51.3529 10.548 51.8195 10.4173 52.1929 10.156C52.5662 9.89467 52.8229 9.52133 52.9629 9.036H54.3349C54.1295 9.82 53.7189 10.45 53.1029 10.926C52.4869 11.3927 51.7169 11.626 50.7929 11.626C50.0649 11.626 49.4162 11.4627 48.8469 11.136C48.2869 10.8093 47.8482 10.3473 47.5309 9.75C47.2135 9.15267 47.0549 8.45267 47.0549 7.65ZM63.0348 7.37C63.0348 7.61267 63.0208 7.86933 62.9928 8.14H56.8608C56.9075 8.896 57.1641 9.48867 57.6308 9.918C58.1068 10.338 58.6808 10.548 59.3528 10.548C59.9035 10.548 60.3608 10.422 60.7248 10.17C61.0981 9.90867 61.3595 9.56333 61.5088 9.134H62.8808C62.6755 9.87133 62.2648 10.4733 61.6488 10.94C61.0328 11.3973 60.2675 11.626 59.3528 11.626C58.6248 11.626 57.9715 11.4627 57.3928 11.136C56.8235 10.8093 56.3755 10.3473 56.0488 9.75C55.7221 9.14333 55.5588 8.44333 55.5588 7.65C55.5588 6.85667 55.7175 6.16133 56.0348 5.564C56.3521 4.96667 56.7955 4.50933 57.3648 4.192C57.9435 3.86533 58.6061 3.702 59.3528 3.702C60.0808 3.702 60.7248 3.86067 61.2848 4.178C61.8448 4.49533 62.2741 4.934 62.5728 5.494C62.8808 6.04467 63.0348 6.67 63.0348 7.37ZM61.7188 7.104C61.7188 6.61867 61.6115 6.20333 61.3968 5.858C61.1821 5.50333 60.8881 5.23733 60.5148 5.06C60.1508 4.87333 59.7448 4.78 59.2968 4.78C58.6528 4.78 58.1021 4.98533 57.6448 5.396C57.1968 5.80667 56.9401 6.376 56.8748 7.104H61.7188ZM65.9904 5.074C66.2144 4.63533 66.5318 4.29467 66.9424 4.052C67.3624 3.80933 67.8711 3.688 68.4684 3.688V5.004H68.1324C66.7044 5.004 65.9904 5.77867 65.9904 7.328V11.5H64.7164V3.828H65.9904V5.074ZM76.5471 3.828L71.9271 15.112H70.6111L72.1231 11.416L69.0291 3.828H70.4431L72.8511 10.044L75.2311 3.828H76.5471ZM82.8342 1.14V11.5H81.5602V1.14H82.8342ZM85.6635 2.582C85.4208 2.582 85.2155 2.498 85.0475 2.33C84.8795 2.162 84.7955 1.95667 84.7955 1.714C84.7955 1.47133 84.8795 1.266 85.0475 1.098C85.2155 0.93 85.4208 0.845999 85.6635 0.845999C85.8968 0.845999 86.0928 0.93 86.2515 1.098C86.4195 1.266 86.5035 1.47133 86.5035 1.714C86.5035 1.95667 86.4195 2.162 86.2515 2.33C86.0928 2.498 85.8968 2.582 85.6635 2.582ZM86.2795 3.828V11.5H85.0055V3.828H86.2795ZM91.1668 11.626C90.5788 11.626 90.0515 11.528 89.5848 11.332C89.1181 11.1267 88.7495 10.8467 88.4788 10.492C88.2081 10.128 88.0588 9.71267 88.0308 9.246H89.3468C89.3841 9.62867 89.5615 9.94133 89.8788 10.184C90.2055 10.4267 90.6301 10.548 91.1528 10.548C91.6381 10.548 92.0208 10.4407 92.3008 10.226C92.5808 10.0113 92.7208 9.74067 92.7208 9.414C92.7208 9.078 92.5715 8.83067 92.2728 8.672C91.9741 8.504 91.5121 8.34067 90.8868 8.182C90.3175 8.03267 89.8508 7.88333 89.4868 7.734C89.1321 7.57533 88.8241 7.34667 88.5628 7.048C88.3108 6.74 88.1848 6.33867 88.1848 5.844C88.1848 5.452 88.3015 5.09267 88.5348 4.766C88.7681 4.43933 89.0995 4.18267 89.5288 3.996C89.9581 3.8 90.4481 3.702 90.9988 3.702C91.8481 3.702 92.5341 3.91667 93.0568 4.346C93.5795 4.77533 93.8595 5.36333 93.8968 6.11H92.6228C92.5948 5.70867 92.4315 5.38667 92.1328 5.144C91.8435 4.90133 91.4515 4.78 90.9568 4.78C90.4995 4.78 90.1355 4.878 89.8648 5.074C89.5941 5.27 89.4588 5.52667 89.4588 5.844C89.4588 6.096 89.5381 6.306 89.6968 6.474C89.8648 6.63267 90.0701 6.76333 90.3128 6.866C90.5648 6.95933 90.9101 7.06667 91.3488 7.188C91.8995 7.33733 92.3475 7.48667 92.6928 7.636C93.0381 7.776 93.3321 7.99067 93.5748 8.28C93.8268 8.56933 93.9575 8.94733 93.9668 9.414C93.9668 9.834 93.8501 10.212 93.6168 10.548C93.3835 10.884 93.0521 11.15 92.6228 11.346C92.2028 11.5327 91.7175 11.626 91.1668 11.626ZM97.3193 4.878V9.4C97.3193 9.77333 97.3986 10.0393 97.5573 10.198C97.7159 10.3473 97.9913 10.422 98.3833 10.422H99.3213V11.5H98.1733C97.4639 11.5 96.9319 11.3367 96.5773 11.01C96.2226 10.6833 96.0453 10.1467 96.0453 9.4V4.878H95.0513V3.828H96.0453V1.896H97.3193V3.828H99.3213V4.878H97.3193Z" fill="black"/>
</svg>
