<svg width="88" height="15" viewBox="0 0 88 15" fill="none" xmlns="http://www.w3.org/2000/svg">
<path d="M10.1105 0.812V10.5H8.83652V3.276L5.61652 10.5H4.72052L1.48652 3.262V10.5H0.212522V0.812H1.58452L5.16852 8.82L8.75252 0.812H10.1105ZM18.8791 2.828L14.2591 14.112H12.9431L14.4551 10.416L11.3611 2.828H12.7751L15.1831 9.044L17.5631 2.828H18.8791ZM25.1662 0.742V10.5H23.8922V0.742H25.1662ZM31.0755 2.688C32.0089 2.688 32.7649 2.97267 33.3435 3.542C33.9222 4.102 34.2115 4.914 34.2115 5.978V10.5H32.9515V6.16C32.9515 5.39467 32.7602 4.81133 32.3775 4.41C31.9949 3.99933 31.4722 3.794 30.8095 3.794C30.1375 3.794 29.6009 4.004 29.1995 4.424C28.8075 4.844 28.6115 5.45533 28.6115 6.258V10.5H27.3375V2.828H28.6115V3.92C28.8635 3.528 29.2042 3.22467 29.6335 3.01C30.0722 2.79533 30.5529 2.688 31.0755 2.688ZM39.1486 9.324L41.5286 2.828H42.8866L39.8766 10.5H38.3926L35.3826 2.828H36.7546L39.1486 9.324ZM51.1403 6.37C51.1403 6.61267 51.1263 6.86933 51.0983 7.14H44.9663C45.0129 7.896 45.2696 8.48867 45.7363 8.918C46.2123 9.338 46.7863 9.548 47.4583 9.548C48.0089 9.548 48.4663 9.422 48.8303 9.17C49.2036 8.90867 49.4649 8.56333 49.6143 8.134H50.9863C50.7809 8.87133 50.3703 9.47333 49.7543 9.94C49.1383 10.3973 48.3729 10.626 47.4583 10.626C46.7303 10.626 46.0769 10.4627 45.4983 10.136C44.9289 9.80933 44.4809 9.34733 44.1543 8.75C43.8276 8.14333 43.6643 7.44333 43.6643 6.65C43.6643 5.85667 43.8229 5.16133 44.1403 4.564C44.4576 3.96667 44.9009 3.50933 45.4703 3.192C46.0489 2.86533 46.7116 2.702 47.4583 2.702C48.1863 2.702 48.8303 2.86067 49.3903 3.178C49.9503 3.49533 50.3796 3.934 50.6783 4.494C50.9863 5.04467 51.1403 5.67 51.1403 6.37ZM49.8243 6.104C49.8243 5.61867 49.7169 5.20333 49.5023 4.858C49.2876 4.50333 48.9936 4.23733 48.6203 4.06C48.2563 3.87333 47.8503 3.78 47.4023 3.78C46.7583 3.78 46.2076 3.98533 45.7503 4.396C45.3023 4.80667 45.0456 5.376 44.9803 6.104H49.8243ZM56.5599 2.688C57.4932 2.688 58.2492 2.97267 58.8279 3.542C59.4066 4.102 59.6959 4.914 59.6959 5.978V10.5H58.4359V6.16C58.4359 5.39467 58.2446 4.81133 57.8619 4.41C57.4792 3.99933 56.9566 3.794 56.2939 3.794C55.6219 3.794 55.0852 4.004 54.6839 4.424C54.2919 4.844 54.0959 5.45533 54.0959 6.258V10.5H52.8219V2.828H54.0959V3.92C54.3479 3.528 54.6886 3.22467 55.1179 3.01C55.5566 2.79533 56.0372 2.688 56.5599 2.688ZM63.331 3.878V8.4C63.331 8.77333 63.4103 9.03933 63.569 9.198C63.7276 9.34733 64.003 9.422 64.395 9.422H65.333V10.5H64.185C63.4756 10.5 62.9436 10.3367 62.589 10.01C62.2343 9.68333 62.057 9.14667 62.057 8.4V3.878H61.063V2.828H62.057V0.895999H63.331V2.828H65.333V3.878H63.331ZM70.2226 10.626C69.5039 10.626 68.8506 10.4627 68.2626 10.136C67.6839 9.80933 67.2266 9.34733 66.8906 8.75C66.5639 8.14333 66.4006 7.44333 66.4006 6.65C66.4006 5.866 66.5686 5.17533 66.9046 4.578C67.2499 3.97133 67.7166 3.50933 68.3046 3.192C68.8926 2.86533 69.5506 2.702 70.2786 2.702C71.0066 2.702 71.6646 2.86533 72.2526 3.192C72.8406 3.50933 73.3026 3.96667 73.6386 4.564C73.9839 5.16133 74.1566 5.85667 74.1566 6.65C74.1566 7.44333 73.9793 8.14333 73.6246 8.75C73.2793 9.34733 72.8079 9.80933 72.2106 10.136C71.6133 10.4627 70.9506 10.626 70.2226 10.626ZM70.2226 9.506C70.6799 9.506 71.1093 9.39867 71.5106 9.184C71.9119 8.96933 72.2339 8.64733 72.4766 8.218C72.7286 7.78867 72.8546 7.266 72.8546 6.65C72.8546 6.034 72.7333 5.51133 72.4906 5.082C72.2479 4.65267 71.9306 4.33533 71.5386 4.13C71.1466 3.91533 70.7219 3.808 70.2646 3.808C69.7979 3.808 69.3686 3.91533 68.9766 4.13C68.5939 4.33533 68.2859 4.65267 68.0526 5.082C67.8193 5.51133 67.7026 6.034 67.7026 6.65C67.7026 7.27533 67.8146 7.80267 68.0386 8.232C68.2719 8.66133 68.5799 8.98333 68.9626 9.198C69.3453 9.40333 69.7653 9.506 70.2226 9.506ZM77.1057 4.074C77.3297 3.63533 77.647 3.29467 78.0577 3.052C78.4777 2.80933 78.9863 2.688 79.5837 2.688V4.004H79.2477C77.8197 4.004 77.1057 4.77867 77.1057 6.328V10.5H75.8317V2.828H77.1057V4.074ZM87.6623 2.828L83.0423 14.112H81.7263L83.2383 10.416L80.1443 2.828H81.5583L83.9663 9.044L86.3463 2.828H87.6623Z" fill="#333333"/>
</svg>
