<svg width="87" height="11" viewBox="0 0 87 11" fill="none" xmlns="http://www.w3.org/2000/svg">
<path d="M4.30652 10.598C3.66252 10.598 3.08386 10.486 2.57052 10.262C2.06652 10.0287 1.66985 9.71133 1.38052 9.31C1.09119 8.89933 0.941855 8.428 0.932522 7.896H2.29052C2.33719 8.35333 2.52385 8.74067 2.85052 9.058C3.18652 9.366 3.67185 9.52 4.30652 9.52C4.91319 9.52 5.38919 9.37067 5.73452 9.072C6.08919 8.764 6.26652 8.372 6.26652 7.896C6.26652 7.52267 6.16386 7.21933 5.95852 6.986C5.75319 6.75267 5.49652 6.57533 5.18852 6.454C4.88052 6.33267 4.46519 6.202 3.94252 6.062C3.29852 5.894 2.78052 5.726 2.38852 5.558C2.00585 5.39 1.67452 5.12867 1.39452 4.774C1.12385 4.41 0.988522 3.92467 0.988522 3.318C0.988522 2.786 1.12385 2.31467 1.39452 1.904C1.66519 1.49333 2.04319 1.176 2.52852 0.951999C3.02319 0.728 3.58786 0.616 4.22252 0.616C5.13719 0.616 5.88386 0.844666 6.46252 1.302C7.05052 1.75933 7.38186 2.366 7.45652 3.122H6.05652C6.00985 2.74867 5.81385 2.422 5.46852 2.142C5.12319 1.85267 4.66586 1.708 4.09652 1.708C3.56452 1.708 3.13052 1.848 2.79452 2.128C2.45852 2.39867 2.29052 2.78133 2.29052 3.276C2.29052 3.63067 2.38852 3.92 2.58452 4.144C2.78985 4.368 3.03719 4.54067 3.32652 4.662C3.62519 4.774 4.04052 4.90467 4.57252 5.054C5.21652 5.23133 5.73452 5.40867 6.12652 5.586C6.51852 5.754 6.85452 6.02 7.13452 6.384C7.41452 6.73867 7.55452 7.224 7.55452 7.84C7.55452 8.316 7.42852 8.764 7.17652 9.184C6.92452 9.604 6.55119 9.94467 6.05652 10.206C5.56185 10.4673 4.97852 10.598 4.30652 10.598ZM18.6553 2.688C19.2527 2.688 19.7847 2.814 20.2513 3.066C20.718 3.30867 21.0867 3.67733 21.3573 4.172C21.628 4.66667 21.7633 5.26867 21.7633 5.978V10.5H20.5033V6.16C20.5033 5.39467 20.312 4.81133 19.9293 4.41C19.556 3.99933 19.0473 3.794 18.4033 3.794C17.7407 3.794 17.2133 4.00867 16.8213 4.438C16.4293 4.858 16.2333 5.46933 16.2333 6.272V10.5H14.9733V6.16C14.9733 5.39467 14.782 4.81133 14.3993 4.41C14.026 3.99933 13.5173 3.794 12.8733 3.794C12.2107 3.794 11.6833 4.00867 11.2913 4.438C10.8993 4.858 10.7033 5.46933 10.7033 6.272V10.5H9.42932V2.828H10.7033V3.934C10.9553 3.53267 11.2913 3.22467 11.7113 3.01C12.1407 2.79533 12.612 2.688 13.1253 2.688C13.7693 2.688 14.3387 2.83267 14.8333 3.122C15.328 3.41133 15.6967 3.836 15.9393 4.396C16.154 3.85467 16.5087 3.43467 17.0033 3.136C17.498 2.83733 18.0487 2.688 18.6553 2.688ZM23.3771 6.636C23.3771 5.852 23.5358 5.166 23.8531 4.578C24.1705 3.98067 24.6045 3.51867 25.1551 3.192C25.7151 2.86533 26.3358 2.702 27.0171 2.702C27.6891 2.702 28.2725 2.84667 28.7671 3.136C29.2618 3.42533 29.6305 3.78933 29.8731 4.228V2.828H31.1611V10.5H29.8731V9.072C29.6211 9.52 29.2431 9.89333 28.7391 10.192C28.2445 10.4813 27.6658 10.626 27.0031 10.626C26.3218 10.626 25.7058 10.458 25.1551 10.122C24.6045 9.786 24.1705 9.31467 23.8531 8.708C23.5358 8.10133 23.3771 7.41067 23.3771 6.636ZM29.8731 6.65C29.8731 6.07133 29.7565 5.56733 29.5231 5.138C29.2898 4.70867 28.9725 4.382 28.5711 4.158C28.1791 3.92467 27.7451 3.808 27.2691 3.808C26.7931 3.808 26.3591 3.92 25.9671 4.144C25.5751 4.368 25.2625 4.69467 25.0291 5.124C24.7958 5.55333 24.6791 6.05733 24.6791 6.636C24.6791 7.224 24.7958 7.73733 25.0291 8.176C25.2625 8.60533 25.5751 8.93667 25.9671 9.17C26.3591 9.394 26.7931 9.506 27.2691 9.506C27.7451 9.506 28.1791 9.394 28.5711 9.17C28.9725 8.93667 29.2898 8.60533 29.5231 8.176C29.7565 7.73733 29.8731 7.22867 29.8731 6.65ZM34.5881 4.074C34.8121 3.63533 35.1294 3.29467 35.5401 3.052C35.9601 2.80933 36.4688 2.688 37.0661 2.688V4.004H36.7301C35.3021 4.004 34.5881 4.77867 34.5881 6.328V10.5H33.3141V2.828H34.5881V4.074ZM40.0907 3.878V8.4C40.0907 8.77333 40.1701 9.03933 40.3287 9.198C40.4874 9.34733 40.7627 9.422 41.1547 9.422H42.0927V10.5H40.9447C40.2354 10.5 39.7034 10.3367 39.3487 10.01C38.9941 9.68333 38.8167 9.14667 38.8167 8.4V3.878H37.8227V2.828H38.8167V0.895999H40.0907V2.828H42.0927V3.878H40.0907ZM56.5948 2.688C57.1921 2.688 57.7241 2.814 58.1908 3.066C58.6574 3.30867 59.0261 3.67733 59.2968 4.172C59.5674 4.66667 59.7028 5.26867 59.7028 5.978V10.5H58.4428V6.16C58.4428 5.39467 58.2514 4.81133 57.8688 4.41C57.4954 3.99933 56.9868 3.794 56.3428 3.794C55.6801 3.794 55.1528 4.00867 54.7608 4.438C54.3688 4.858 54.1728 5.46933 54.1728 6.272V10.5H52.9128V6.16C52.9128 5.39467 52.7214 4.81133 52.3388 4.41C51.9654 3.99933 51.4568 3.794 50.8128 3.794C50.1501 3.794 49.6228 4.00867 49.2308 4.438C48.8388 4.858 48.6428 5.46933 48.6428 6.272V10.5H47.3688V2.828H48.6428V3.934C48.8948 3.53267 49.2308 3.22467 49.6508 3.01C50.0801 2.79533 50.5514 2.688 51.0648 2.688C51.7088 2.688 52.2781 2.83267 52.7728 3.122C53.2674 3.41133 53.6361 3.836 53.8788 4.396C54.0934 3.85467 54.4481 3.43467 54.9428 3.136C55.4374 2.83733 55.9881 2.688 56.5948 2.688ZM68.7926 6.37C68.7926 6.61267 68.7786 6.86933 68.7506 7.14H62.6186C62.6653 7.896 62.9219 8.48867 63.3886 8.918C63.8646 9.338 64.4386 9.548 65.1106 9.548C65.6613 9.548 66.1186 9.422 66.4826 9.17C66.8559 8.90867 67.1173 8.56333 67.2666 8.134H68.6386C68.4333 8.87133 68.0226 9.47333 67.4066 9.94C66.7906 10.3973 66.0253 10.626 65.1106 10.626C64.3826 10.626 63.7293 10.4627 63.1506 10.136C62.5813 9.80933 62.1333 9.34733 61.8066 8.75C61.4799 8.14333 61.3166 7.44333 61.3166 6.65C61.3166 5.85667 61.4753 5.16133 61.7926 4.564C62.1099 3.96667 62.5533 3.50933 63.1226 3.192C63.7013 2.86533 64.3639 2.702 65.1106 2.702C65.8386 2.702 66.4826 2.86067 67.0426 3.178C67.6026 3.49533 68.0319 3.934 68.3306 4.494C68.6386 5.04467 68.7926 5.67 68.7926 6.37ZM67.4766 6.104C67.4766 5.61867 67.3693 5.20333 67.1546 4.858C66.9399 4.50333 66.6459 4.23733 66.2726 4.06C65.9086 3.87333 65.5026 3.78 65.0546 3.78C64.4106 3.78 63.8599 3.98533 63.4026 4.396C62.9546 4.80667 62.6979 5.376 62.6326 6.104H67.4766ZM74.2122 2.688C75.1456 2.688 75.9016 2.97267 76.4802 3.542C77.0589 4.102 77.3482 4.914 77.3482 5.978V10.5H76.0882V6.16C76.0882 5.39467 75.8969 4.81133 75.5142 4.41C75.1316 3.99933 74.6089 3.794 73.9462 3.794C73.2742 3.794 72.7376 4.004 72.3362 4.424C71.9442 4.844 71.7482 5.45533 71.7482 6.258V10.5H70.4742V2.828H71.7482V3.92C72.0002 3.528 72.3409 3.22467 72.7702 3.01C73.2089 2.79533 73.6896 2.688 74.2122 2.688ZM86.2333 2.828V10.5H84.9593V9.366C84.7167 9.758 84.376 10.066 83.9373 10.29C83.508 10.5047 83.032 10.612 82.5093 10.612C81.912 10.612 81.3753 10.4907 80.8993 10.248C80.4233 9.996 80.0453 9.62267 79.7653 9.128C79.4947 8.63333 79.3593 8.03133 79.3593 7.322V2.828H80.6193V7.154C80.6193 7.91 80.8107 8.49333 81.1933 8.904C81.576 9.30533 82.0987 9.506 82.7613 9.506C83.4427 9.506 83.9793 9.296 84.3713 8.876C84.7633 8.456 84.9593 7.84467 84.9593 7.042V2.828H86.2333Z" fill="#333333"/>
</svg>
