<svg width="229" height="109" viewBox="0 0 229 109" fill="none" xmlns="http://www.w3.org/2000/svg">
<path d="M47.096 2.496L37.736 36H29.816L23.528 12.144L16.952 36L9.08 36.048L0.0560001 2.496H7.256L13.16 28.512L19.976 2.496H27.464L33.896 28.368L39.848 2.496H47.096ZM76.2039 22.128C76.2039 23.088 76.1399 23.952 76.0119 24.72H56.5719C56.7319 26.64 57.4039 28.144 58.5879 29.232C59.7719 30.32 61.2279 30.864 62.9559 30.864C65.4519 30.864 67.2279 29.792 68.2839 27.648H75.5319C74.7639 30.208 73.2919 32.32 71.1159 33.984C68.9399 35.616 66.2679 36.432 63.0999 36.432C60.5399 36.432 58.2359 35.872 56.1879 34.752C54.1719 33.6 52.5879 31.984 51.4359 29.904C50.3159 27.824 49.7559 25.424 49.7559 22.704C49.7559 19.952 50.3159 17.536 51.4359 15.456C52.5559 13.376 54.1239 11.776 56.1399 10.656C58.1559 9.536 60.4759 8.976 63.0999 8.976C65.6279 8.976 67.8839 9.52 69.8679 10.608C71.8839 11.696 73.4359 13.248 74.5239 15.264C75.6439 17.248 76.2039 19.536 76.2039 22.128ZM69.2439 20.208C69.2119 18.48 68.5879 17.104 67.3719 16.08C66.1559 15.024 64.6679 14.496 62.9079 14.496C61.2439 14.496 59.8359 15.008 58.6839 16.032C57.5639 17.024 56.8759 18.416 56.6199 20.208H69.2439ZM87.8289 0.48V36H81.1089V0.48H87.8289ZM92.7402 22.704C92.7402 19.952 93.3003 17.552 94.4203 15.504C95.5403 13.424 97.0923 11.824 99.0763 10.704C101.06 9.552 103.332 8.976 105.892 8.976C109.188 8.976 111.908 9.808 114.052 11.472C116.228 13.104 117.684 15.408 118.42 18.384H111.172C110.788 17.232 110.132 16.336 109.204 15.696C108.308 15.024 107.188 14.688 105.844 14.688C103.924 14.688 102.404 15.392 101.284 16.8C100.164 18.176 99.6043 20.144 99.6043 22.704C99.6043 25.232 100.164 27.2 101.284 28.608C102.404 29.984 103.924 30.672 105.844 30.672C108.564 30.672 110.34 29.456 111.172 27.024H118.42C117.684 29.904 116.228 32.192 114.052 33.888C111.876 35.584 109.156 36.432 105.892 36.432C103.332 36.432 101.06 35.872 99.0763 34.752C97.0923 33.6 95.5403 32 94.4203 29.952C93.3003 27.872 92.7402 25.456 92.7402 22.704ZM135.151 36.432C132.591 36.432 130.287 35.872 128.239 34.752C126.191 33.6 124.575 31.984 123.391 29.904C122.239 27.824 121.663 25.424 121.663 22.704C121.663 19.984 122.255 17.584 123.439 15.504C124.655 13.424 126.303 11.824 128.383 10.704C130.463 9.552 132.783 8.976 135.343 8.976C137.903 8.976 140.223 9.552 142.303 10.704C144.383 11.824 146.015 13.424 147.199 15.504C148.415 17.584 149.023 19.984 149.023 22.704C149.023 25.424 148.399 27.824 147.151 29.904C145.935 31.984 144.271 33.6 142.159 34.752C140.079 35.872 137.743 36.432 135.151 36.432ZM135.151 30.576C136.367 30.576 137.503 30.288 138.559 29.712C139.647 29.104 140.511 28.208 141.151 27.024C141.791 25.84 142.111 24.4 142.111 22.704C142.111 20.176 141.439 18.24 140.095 16.896C138.783 15.52 137.167 14.832 135.247 14.832C133.327 14.832 131.711 15.52 130.399 16.896C129.119 18.24 128.479 20.176 128.479 22.704C128.479 25.232 129.103 27.184 130.351 28.56C131.631 29.904 133.231 30.576 135.151 30.576ZM186.977 9.024C190.241 9.024 192.865 10.032 194.849 12.048C196.865 14.032 197.873 16.816 197.873 20.4V36H191.153V21.312C191.153 19.232 190.625 17.648 189.569 16.56C188.513 15.44 187.073 14.88 185.249 14.88C183.425 14.88 181.969 15.44 180.881 16.56C179.825 17.648 179.297 19.232 179.297 21.312V36H172.577V21.312C172.577 19.232 172.049 17.648 170.993 16.56C169.937 15.44 168.497 14.88 166.673 14.88C164.817 14.88 163.345 15.44 162.257 16.56C161.201 17.648 160.673 19.232 160.673 21.312V36H153.953V9.408H160.673V12.624C161.537 11.504 162.641 10.624 163.985 9.984C165.361 9.344 166.865 9.024 168.497 9.024C170.577 9.024 172.433 9.472 174.065 10.368C175.697 11.232 176.961 12.48 177.857 14.112C178.721 12.576 179.969 11.344 181.601 10.416C183.265 9.488 185.057 9.024 186.977 9.024ZM228.97 22.128C228.97 23.088 228.906 23.952 228.778 24.72H209.338C209.498 26.64 210.17 28.144 211.354 29.232C212.538 30.32 213.994 30.864 215.722 30.864C218.218 30.864 219.994 29.792 221.05 27.648H228.298C227.53 30.208 226.058 32.32 223.882 33.984C221.706 35.616 219.034 36.432 215.866 36.432C213.306 36.432 211.002 35.872 208.954 34.752C206.938 33.6 205.354 31.984 204.202 29.904C203.082 27.824 202.521 25.424 202.521 22.704C202.521 19.952 203.082 17.536 204.202 15.456C205.322 13.376 206.89 11.776 208.906 10.656C210.922 9.536 213.242 8.976 215.866 8.976C218.394 8.976 220.65 9.52 222.634 10.608C224.65 11.696 226.202 13.248 227.29 15.264C228.41 17.248 228.97 19.536 228.97 22.128ZM222.01 20.208C221.978 18.48 221.354 17.104 220.138 16.08C218.922 15.024 217.434 14.496 215.674 14.496C214.01 14.496 212.602 15.008 211.45 16.032C210.33 17.024 209.642 18.416 209.386 20.208H222.01ZM9.032 85.296C9.896 84.016 11.08 82.976 12.584 82.176C14.12 81.376 15.864 80.976 17.816 80.976C20.088 80.976 22.136 81.536 23.96 82.656C25.816 83.776 27.272 85.376 28.328 87.456C29.416 89.504 29.96 91.888 29.96 94.608C29.96 97.328 29.416 99.744 28.328 101.856C27.272 103.936 25.816 105.552 23.96 106.704C22.136 107.856 20.088 108.432 17.816 108.432C15.832 108.432 14.088 108.048 12.584 107.28C11.112 106.48 9.928 105.456 9.032 104.208V108H2.312V72.48H9.032V85.296ZM23.096 94.608C23.096 93.008 22.76 91.632 22.088 90.48C21.448 89.296 20.584 88.4 19.496 87.792C18.44 87.184 17.288 86.88 16.04 86.88C14.824 86.88 13.672 87.2 12.584 87.84C11.528 88.448 10.664 89.344 9.992 90.528C9.352 91.712 9.032 93.104 9.032 94.704C9.032 96.304 9.352 97.696 9.992 98.88C10.664 100.064 11.528 100.976 12.584 101.616C13.672 102.224 14.824 102.528 16.04 102.528C17.288 102.528 18.44 102.208 19.496 101.568C20.584 100.928 21.448 100.016 22.088 98.832C22.76 97.648 23.096 96.24 23.096 94.608ZM33.1152 94.608C33.1152 91.92 33.6432 89.536 34.6992 87.456C35.7873 85.376 37.2433 83.776 39.0673 82.656C40.9233 81.536 42.9873 80.976 45.2593 80.976C47.2433 80.976 48.9713 81.376 50.4433 82.176C51.9473 82.976 53.1473 83.984 54.0433 85.2V81.408H60.8113V108H54.0433V104.112C53.1793 105.36 51.9793 106.4 50.4433 107.232C48.9393 108.032 47.1953 108.432 45.2113 108.432C42.9713 108.432 40.9233 107.856 39.0673 106.704C37.2433 105.552 35.7873 103.936 34.6992 101.856C33.6432 99.744 33.1152 97.328 33.1152 94.608ZM54.0433 94.704C54.0433 93.072 53.7233 91.68 53.0833 90.528C52.4433 89.344 51.5793 88.448 50.4913 87.84C49.4033 87.2 48.2353 86.88 46.9873 86.88C45.7393 86.88 44.5873 87.184 43.5312 87.792C42.4753 88.4 41.6113 89.296 40.9393 90.48C40.2993 91.632 39.9793 93.008 39.9793 94.608C39.9793 96.208 40.2993 97.616 40.9393 98.832C41.6113 100.016 42.4753 100.928 43.5312 101.568C44.6193 102.208 45.7713 102.528 46.9873 102.528C48.2353 102.528 49.4033 102.224 50.4913 101.616C51.5793 100.976 52.4433 100.08 53.0833 98.928C53.7233 97.744 54.0433 96.336 54.0433 94.704ZM65.6465 94.704C65.6465 91.952 66.2065 89.552 67.3265 87.504C68.4465 85.424 69.9985 83.824 71.9825 82.704C73.9665 81.552 76.2385 80.976 78.7985 80.976C82.0945 80.976 84.8145 81.808 86.9585 83.472C89.1345 85.104 90.5905 87.408 91.3265 90.384H84.0785C83.6945 89.232 83.0385 88.336 82.1105 87.696C81.2145 87.024 80.0945 86.688 78.7505 86.688C76.8305 86.688 75.3105 87.392 74.1905 88.8C73.0705 90.176 72.5105 92.144 72.5105 94.704C72.5105 97.232 73.0705 99.2 74.1905 100.608C75.3105 101.984 76.8305 102.672 78.7505 102.672C81.4705 102.672 83.2465 101.456 84.0785 99.024H91.3265C90.5905 101.904 89.1345 104.192 86.9585 105.888C84.7825 107.584 82.0625 108.432 78.7985 108.432C76.2385 108.432 73.9665 107.872 71.9825 106.752C69.9985 105.6 68.4465 104 67.3265 101.952C66.2065 99.872 65.6465 97.456 65.6465 94.704ZM111.994 108L102.97 96.672V108H96.2495V72.48H102.97V92.688L111.898 81.408H120.634L108.922 94.752L120.73 108H111.994ZM132.969 73.92L132.201 97.104H126.537L125.721 73.92H132.969ZM129.513 108.336C128.297 108.336 127.289 107.968 126.489 107.232C125.721 106.464 125.337 105.52 125.337 104.4C125.337 103.28 125.721 102.352 126.489 101.616C127.289 100.848 128.297 100.464 129.513 100.464C130.697 100.464 131.673 100.848 132.441 101.616C133.209 102.352 133.593 103.28 133.593 104.4C133.593 105.52 133.209 106.464 132.441 107.232C131.673 107.968 130.697 108.336 129.513 108.336Z" fill="#FC9A63" fill-opacity="0.71"/>
</svg>
