<svg width="325" height="91" viewBox="0 0 325 91" fill="none" xmlns="http://www.w3.org/2000/svg">
<path opacity="0.85" d="M35.28 1.98L27.864 27H23.22L17.964 8.064L12.384 27L7.776 27.036L0.684 1.98H5.04L10.224 22.356L15.84 1.98H20.448L25.668 22.248L30.888 1.98H35.28ZM48.9248 6.84C50.4368 6.84 51.7808 7.164 52.9568 7.812C54.1568 8.46 55.0928 9.42 55.7648 10.692C56.4608 11.964 56.8088 13.5 56.8088 15.3V27H52.7408V15.912C52.7408 14.136 52.2968 12.78 51.4088 11.844C50.5208 10.884 49.3088 10.404 47.7728 10.404C46.2368 10.404 45.0128 10.884 44.1008 11.844C43.2128 12.78 42.7688 14.136 42.7688 15.912V27H38.6648V0.36H42.7688V9.468C43.4648 8.628 44.3408 7.98 45.3968 7.524C46.4768 7.068 47.6528 6.84 48.9248 6.84ZM60.6758 16.992C60.6758 15 61.0838 13.236 61.8998 11.7C62.7398 10.164 63.8678 8.976 65.2838 8.136C66.7238 7.272 68.3078 6.84 70.0358 6.84C71.5958 6.84 72.9518 7.152 74.1038 7.776C75.2798 8.376 76.2158 9.132 76.9118 10.044V7.164H81.0518V27H76.9118V24.048C76.2158 24.984 75.2678 25.764 74.0678 26.388C72.8678 27.012 71.4998 27.324 69.9638 27.324C68.2598 27.324 66.6998 26.892 65.2838 26.028C63.8678 25.14 62.7398 23.916 61.8998 22.356C61.0838 20.772 60.6758 18.984 60.6758 16.992ZM76.9118 17.064C76.9118 15.696 76.6238 14.508 76.0478 13.5C75.4958 12.492 74.7638 11.724 73.8518 11.196C72.9398 10.668 71.9558 10.404 70.8998 10.404C69.8438 10.404 68.8598 10.668 67.9478 11.196C67.0358 11.7 66.2918 12.456 65.7158 13.464C65.1638 14.448 64.8878 15.624 64.8878 16.992C64.8878 18.36 65.1638 19.56 65.7158 20.592C66.2918 21.624 67.0358 22.416 67.9478 22.968C68.8838 23.496 69.8678 23.76 70.8998 23.76C71.9558 23.76 72.9398 23.496 73.8518 22.968C74.7638 22.44 75.4958 21.672 76.0478 20.664C76.6238 19.632 76.9118 18.432 76.9118 17.064ZM91.2302 10.512V21.492C91.2302 22.236 91.3982 22.776 91.7342 23.112C92.0942 23.424 92.6942 23.58 93.5342 23.58H96.0542V27H92.8142C90.9662 27 89.5502 26.568 88.5662 25.704C87.5822 24.84 87.0902 23.436 87.0902 21.492V10.512H84.7502V7.164H87.0902V2.232H91.2302V7.164H96.0542V10.512H91.2302ZM107.82 17.064C107.82 15.024 108.228 13.236 109.044 11.7C109.884 10.14 111.036 8.94 112.5 8.1C113.964 7.26 115.644 6.84 117.54 6.84C119.94 6.84 121.92 7.416 123.48 8.568C125.064 9.696 126.132 11.316 126.684 13.428H122.256C121.896 12.444 121.32 11.676 120.528 11.124C119.736 10.572 118.74 10.296 117.54 10.296C115.86 10.296 114.516 10.896 113.508 12.096C112.524 13.272 112.032 14.928 112.032 17.064C112.032 19.2 112.524 20.868 113.508 22.068C114.516 23.268 115.86 23.868 117.54 23.868C119.916 23.868 121.488 22.824 122.256 20.736H126.684C126.108 22.752 125.028 24.36 123.444 25.56C121.86 26.736 119.892 27.324 117.54 27.324C115.644 27.324 113.964 26.904 112.5 26.064C111.036 25.2 109.884 24 109.044 22.464C108.228 20.904 107.82 19.104 107.82 17.064ZM129.406 16.992C129.406 15 129.814 13.236 130.63 11.7C131.47 10.164 132.598 8.976 134.014 8.136C135.454 7.272 137.038 6.84 138.766 6.84C140.326 6.84 141.682 7.152 142.834 7.776C144.01 8.376 144.946 9.132 145.642 10.044V7.164H149.782V27H145.642V24.048C144.946 24.984 143.998 25.764 142.798 26.388C141.598 27.012 140.23 27.324 138.694 27.324C136.99 27.324 135.43 26.892 134.014 26.028C132.598 25.14 131.47 23.916 130.63 22.356C129.814 20.772 129.406 18.984 129.406 16.992ZM145.642 17.064C145.642 15.696 145.354 14.508 144.778 13.5C144.226 12.492 143.494 11.724 142.582 11.196C141.67 10.668 140.686 10.404 139.63 10.404C138.574 10.404 137.59 10.668 136.678 11.196C135.766 11.7 135.022 12.456 134.446 13.464C133.894 14.448 133.618 15.624 133.618 16.992C133.618 18.36 133.894 19.56 134.446 20.592C135.022 21.624 135.766 22.416 136.678 22.968C137.614 23.496 138.598 23.76 139.63 23.76C140.686 23.76 141.67 23.496 142.582 22.968C143.494 22.44 144.226 21.672 144.778 20.664C145.354 19.632 145.642 18.432 145.642 17.064ZM165.181 6.84C166.741 6.84 168.133 7.164 169.357 7.812C170.605 8.46 171.577 9.42 172.273 10.692C172.969 11.964 173.317 13.5 173.317 15.3V27H169.249V15.912C169.249 14.136 168.805 12.78 167.917 11.844C167.029 10.884 165.817 10.404 164.281 10.404C162.745 10.404 161.521 10.884 160.609 11.844C159.721 12.78 159.277 14.136 159.277 15.912V27H155.173V7.164H159.277V9.432C159.949 8.616 160.801 7.98 161.833 7.524C162.889 7.068 164.005 6.84 165.181 6.84ZM214.543 7.164L208.387 27H204.067L200.071 12.348L196.075 27H191.755L185.563 7.164H189.739L193.879 23.112L198.091 7.164H202.375L206.407 23.04L210.511 7.164H214.543ZM235.79 16.596C235.79 17.34 235.742 18.012 235.646 18.612H220.49C220.61 20.196 221.198 21.468 222.254 22.428C223.31 23.388 224.606 23.868 226.142 23.868C228.35 23.868 229.91 22.944 230.822 21.096H235.25C234.65 22.92 233.558 24.42 231.974 25.596C230.414 26.748 228.47 27.324 226.142 27.324C224.246 27.324 222.542 26.904 221.03 26.064C219.542 25.2 218.366 24 217.502 22.464C216.662 20.904 216.242 19.104 216.242 17.064C216.242 15.024 216.65 13.236 217.466 11.7C218.306 10.14 219.47 8.94 220.958 8.1C222.47 7.26 224.198 6.84 226.142 6.84C228.014 6.84 229.682 7.248 231.146 8.064C232.61 8.88 233.75 10.032 234.566 11.52C235.382 12.984 235.79 14.676 235.79 16.596ZM231.506 15.3C231.482 13.788 230.942 12.576 229.886 11.664C228.83 10.752 227.522 10.296 225.962 10.296C224.546 10.296 223.334 10.752 222.326 11.664C221.318 12.552 220.718 13.764 220.526 15.3H231.506ZM259.44 6.84C260.952 6.84 262.296 7.164 263.472 7.812C264.672 8.46 265.608 9.42 266.28 10.692C266.976 11.964 267.324 13.5 267.324 15.3V27H263.256V15.912C263.256 14.136 262.812 12.78 261.924 11.844C261.036 10.884 259.824 10.404 258.288 10.404C256.752 10.404 255.528 10.884 254.616 11.844C253.728 12.78 253.284 14.136 253.284 15.912V27H249.18V0.36H253.284V9.468C253.98 8.628 254.856 7.98 255.912 7.524C256.992 7.068 258.168 6.84 259.44 6.84ZM290.739 16.596C290.739 17.34 290.691 18.012 290.595 18.612H275.439C275.559 20.196 276.147 21.468 277.203 22.428C278.259 23.388 279.555 23.868 281.091 23.868C283.299 23.868 284.859 22.944 285.771 21.096H290.199C289.599 22.92 288.507 24.42 286.923 25.596C285.363 26.748 283.419 27.324 281.091 27.324C279.195 27.324 277.491 26.904 275.979 26.064C274.491 25.2 273.315 24 272.451 22.464C271.611 20.904 271.191 19.104 271.191 17.064C271.191 15.024 271.599 13.236 272.415 11.7C273.255 10.14 274.419 8.94 275.907 8.1C277.419 7.26 279.147 6.84 281.091 6.84C282.963 6.84 284.631 7.248 286.095 8.064C287.559 8.88 288.699 10.032 289.515 11.52C290.331 12.984 290.739 14.676 290.739 16.596ZM286.455 15.3C286.431 13.788 285.891 12.576 284.835 11.664C283.779 10.752 282.471 10.296 280.911 10.296C279.495 10.296 278.283 10.752 277.275 11.664C276.267 12.552 275.667 13.764 275.475 15.3H286.455ZM298.882 0.36V27H294.778V0.36H298.882ZM308.374 10.08C309.07 9.168 310.018 8.4 311.218 7.776C312.418 7.152 313.774 6.84 315.286 6.84C317.014 6.84 318.586 7.272 320.002 8.136C321.442 8.976 322.57 10.164 323.386 11.7C324.202 13.236 324.61 15 324.61 16.992C324.61 18.984 324.202 20.772 323.386 22.356C322.57 23.916 321.442 25.14 320.002 26.028C318.586 26.892 317.014 27.324 315.286 27.324C313.774 27.324 312.43 27.024 311.254 26.424C310.078 25.8 309.118 25.032 308.374 24.12V36.432H304.27V7.164H308.374V10.08ZM320.434 16.992C320.434 15.624 320.146 14.448 319.57 13.464C319.018 12.456 318.274 11.7 317.338 11.196C316.426 10.668 315.442 10.404 314.386 10.404C313.354 10.404 312.37 10.668 311.434 11.196C310.522 11.724 309.778 12.492 309.202 13.5C308.65 14.508 308.374 15.696 308.374 17.064C308.374 18.432 308.65 19.632 309.202 20.664C309.778 21.672 310.522 22.44 311.434 22.968C312.37 23.496 313.354 23.76 314.386 23.76C315.442 23.76 316.426 23.496 317.338 22.968C318.274 22.416 319.018 21.624 319.57 20.592C320.146 19.56 320.434 18.36 320.434 16.992ZM29.34 61.164L23.184 81H18.864L14.868 66.348L10.872 81H6.552L0.36 61.164H4.536L8.676 77.112L12.888 61.164H17.172L21.204 77.04L25.308 61.164H29.34ZM34.495 58.536C33.751 58.536 33.127 58.284 32.623 57.78C32.119 57.276 31.867 56.652 31.867 55.908C31.867 55.164 32.119 54.54 32.623 54.036C33.127 53.532 33.751 53.28 34.495 53.28C35.215 53.28 35.827 53.532 36.331 54.036C36.835 54.54 37.087 55.164 37.087 55.908C37.087 56.652 36.835 57.276 36.331 57.78C35.827 58.284 35.215 58.536 34.495 58.536ZM36.511 61.164V81H32.407V61.164H36.511ZM46.6872 64.512V75.492C46.6872 76.236 46.8552 76.776 47.1912 77.112C47.5512 77.424 48.1512 77.58 48.9912 77.58H51.5112V81H48.2712C46.4232 81 45.0072 80.568 44.0232 79.704C43.0392 78.84 42.5472 77.436 42.5472 75.492V64.512H40.2072V61.164H42.5472V56.232H46.6872V61.164H51.5112V64.512H46.6872ZM65.5538 60.84C67.0658 60.84 68.4098 61.164 69.5858 61.812C70.7858 62.46 71.7218 63.42 72.3938 64.692C73.0898 65.964 73.4378 67.5 73.4378 69.3V81H69.3698V69.912C69.3698 68.136 68.9258 66.78 68.0378 65.844C67.1498 64.884 65.9378 64.404 64.4018 64.404C62.8658 64.404 61.6418 64.884 60.7298 65.844C59.8418 66.78 59.3978 68.136 59.3978 69.912V81H55.2938V54.36H59.3978V63.468C60.0938 62.628 60.9698 61.98 62.0258 61.524C63.1058 61.068 64.2818 60.84 65.5538 60.84ZM105.88 61.164L93.7122 90.324H89.4642L93.4962 80.676L85.6842 61.164H90.2562L95.8362 76.284L101.632 61.164H105.88ZM117.581 81.324C115.709 81.324 114.017 80.904 112.505 80.064C110.993 79.2 109.805 78 108.941 76.464C108.077 74.904 107.645 73.104 107.645 71.064C107.645 69.048 108.089 67.26 108.977 65.7C109.865 64.14 111.077 62.94 112.613 62.1C114.149 61.26 115.865 60.84 117.761 60.84C119.657 60.84 121.373 61.26 122.909 62.1C124.445 62.94 125.657 64.14 126.545 65.7C127.433 67.26 127.877 69.048 127.877 71.064C127.877 73.08 127.421 74.868 126.509 76.428C125.597 77.988 124.349 79.2 122.765 80.064C121.205 80.904 119.477 81.324 117.581 81.324ZM117.581 77.76C118.637 77.76 119.621 77.508 120.533 77.004C121.469 76.5 122.225 75.744 122.801 74.736C123.377 73.728 123.665 72.504 123.665 71.064C123.665 69.624 123.389 68.412 122.837 67.428C122.285 66.42 121.553 65.664 120.641 65.16C119.729 64.656 118.745 64.404 117.689 64.404C116.633 64.404 115.649 64.656 114.737 65.16C113.849 65.664 113.141 66.42 112.613 67.428C112.085 68.412 111.821 69.624 111.821 71.064C111.821 73.2 112.361 74.856 113.441 76.032C114.545 77.184 115.925 77.76 117.581 77.76ZM149.898 61.164V81H145.794V78.66C145.146 79.476 144.294 80.124 143.238 80.604C142.206 81.06 141.102 81.288 139.926 81.288C138.366 81.288 136.962 80.964 135.714 80.316C134.49 79.668 133.518 78.708 132.798 77.436C132.102 76.164 131.754 74.628 131.754 72.828V61.164H135.822V72.216C135.822 73.992 136.266 75.36 137.154 76.32C138.042 77.256 139.254 77.724 140.79 77.724C142.326 77.724 143.538 77.256 144.426 76.32C145.338 75.36 145.794 73.992 145.794 72.216V61.164H149.898ZM169.453 64.512V75.492C169.453 76.236 169.621 76.776 169.957 77.112C170.317 77.424 170.917 77.58 171.757 77.58H174.277V81H171.037C169.189 81 167.773 80.568 166.789 79.704C165.805 78.84 165.313 77.436 165.313 75.492V64.512H162.973V61.164H165.313V56.232H169.453V61.164H174.277V64.512H169.453ZM186.663 81.324C184.791 81.324 183.099 80.904 181.587 80.064C180.075 79.2 178.887 78 178.023 76.464C177.159 74.904 176.727 73.104 176.727 71.064C176.727 69.048 177.171 67.26 178.059 65.7C178.947 64.14 180.159 62.94 181.695 62.1C183.231 61.26 184.947 60.84 186.843 60.84C188.739 60.84 190.455 61.26 191.991 62.1C193.527 62.94 194.739 64.14 195.627 65.7C196.515 67.26 196.959 69.048 196.959 71.064C196.959 73.08 196.503 74.868 195.591 76.428C194.679 77.988 193.431 79.2 191.847 80.064C190.287 80.904 188.559 81.324 186.663 81.324ZM186.663 77.76C187.719 77.76 188.703 77.508 189.615 77.004C190.551 76.5 191.307 75.744 191.883 74.736C192.459 73.728 192.747 72.504 192.747 71.064C192.747 69.624 192.471 68.412 191.919 67.428C191.367 66.42 190.635 65.664 189.723 65.16C188.811 64.656 187.827 64.404 186.771 64.404C185.715 64.404 184.731 64.656 183.819 65.16C182.931 65.664 182.223 66.42 181.695 67.428C181.167 68.412 180.903 69.624 180.903 71.064C180.903 73.2 181.443 74.856 182.523 76.032C183.627 77.184 185.007 77.76 186.663 77.76ZM199.648 70.992C199.648 69 200.056 67.236 200.872 65.7C201.712 64.164 202.84 62.976 204.256 62.136C205.696 61.272 207.292 60.84 209.044 60.84C210.34 60.84 211.612 61.128 212.86 61.704C214.132 62.256 215.14 63 215.884 63.936V54.36H220.024V81H215.884V78.012C215.212 78.972 214.276 79.764 213.076 80.388C211.9 81.012 210.544 81.324 209.008 81.324C207.28 81.324 205.696 80.892 204.256 80.028C202.84 79.14 201.712 77.916 200.872 76.356C200.056 74.772 199.648 72.984 199.648 70.992ZM215.884 71.064C215.884 69.696 215.596 68.508 215.02 67.5C214.468 66.492 213.736 65.724 212.824 65.196C211.912 64.668 210.928 64.404 209.872 64.404C208.816 64.404 207.832 64.668 206.92 65.196C206.008 65.7 205.264 66.456 204.688 67.464C204.136 68.448 203.86 69.624 203.86 70.992C203.86 72.36 204.136 73.56 204.688 74.592C205.264 75.624 206.008 76.416 206.92 76.968C207.856 77.496 208.84 77.76 209.872 77.76C210.928 77.76 211.912 77.496 212.824 76.968C213.736 76.44 214.468 75.672 215.02 74.664C215.596 73.632 215.884 72.432 215.884 71.064ZM224.047 70.992C224.047 69 224.455 67.236 225.271 65.7C226.111 64.164 227.239 62.976 228.655 62.136C230.095 61.272 231.679 60.84 233.407 60.84C234.967 60.84 236.323 61.152 237.475 61.776C238.651 62.376 239.587 63.132 240.283 64.044V61.164H244.423V81H240.283V78.048C239.587 78.984 238.639 79.764 237.439 80.388C236.239 81.012 234.871 81.324 233.335 81.324C231.631 81.324 230.071 80.892 228.655 80.028C227.239 79.14 226.111 77.916 225.271 76.356C224.455 74.772 224.047 72.984 224.047 70.992ZM240.283 71.064C240.283 69.696 239.995 68.508 239.419 67.5C238.867 66.492 238.135 65.724 237.223 65.196C236.311 64.668 235.327 64.404 234.271 64.404C233.215 64.404 232.231 64.668 231.319 65.196C230.407 65.7 229.663 66.456 229.087 67.464C228.535 68.448 228.259 69.624 228.259 70.992C228.259 72.36 228.535 73.56 229.087 74.592C229.663 75.624 230.407 76.416 231.319 76.968C232.255 77.496 233.239 77.76 234.271 77.76C235.327 77.76 236.311 77.496 237.223 76.968C238.135 76.44 238.867 75.672 239.419 74.664C239.995 73.632 240.283 72.432 240.283 71.064ZM267.669 61.164L255.501 90.324H251.253L255.285 80.676L247.473 61.164H252.045L257.625 76.284L263.421 61.164H267.669ZM277.498 55.62C279.946 55.62 281.902 56.292 283.366 57.636C284.854 58.98 285.598 60.816 285.598 63.144C285.598 65.568 284.83 67.392 283.294 68.616C281.758 69.84 279.718 70.452 277.174 70.452L277.03 73.296H273.466L273.286 67.644H274.474C276.802 67.644 278.578 67.332 279.802 66.708C281.05 66.084 281.674 64.896 281.674 63.144C281.674 61.872 281.302 60.876 280.558 60.156C279.838 59.436 278.83 59.076 277.534 59.076C276.238 59.076 275.218 59.424 274.474 60.12C273.73 60.816 273.358 61.788 273.358 63.036H269.506C269.506 61.596 269.83 60.312 270.478 59.184C271.126 58.056 272.05 57.18 273.25 56.556C274.474 55.932 275.89 55.62 277.498 55.62ZM275.194 81.252C274.45 81.252 273.826 81 273.322 80.496C272.818 79.992 272.566 79.368 272.566 78.624C272.566 77.88 272.818 77.256 273.322 76.752C273.826 76.248 274.45 75.996 275.194 75.996C275.914 75.996 276.526 76.248 277.03 76.752C277.534 77.256 277.786 77.88 277.786 78.624C277.786 79.368 277.534 79.992 277.03 80.496C276.526 81 275.914 81.252 275.194 81.252Z" fill="#333333"/>
</svg>
