<svg width="77" height="15" viewBox="0 0 77 15" fill="none" xmlns="http://www.w3.org/2000/svg">
<path d="M10.1105 1.45458V11.1426H8.83652V3.91858L5.61652 11.1426H4.72052L1.48652 3.90458V11.1426H0.212522V1.45458H1.58452L5.16852 9.46258L8.75252 1.45458H10.1105ZM18.8791 3.47058L14.2591 14.7546H12.9431L14.4551 11.0586L11.3611 3.47058H12.7751L15.1831 9.68658L17.5631 3.47058H18.8791ZM23.4162 7.27858C23.4162 6.49458 23.5749 5.80858 23.8922 5.22058C24.2095 4.62324 24.6435 4.16124 25.1942 3.83458C25.7542 3.50791 26.3795 3.34458 27.0702 3.34458C27.6675 3.34458 28.2229 3.48458 28.7362 3.76458C29.2495 4.03524 29.6415 4.39458 29.9122 4.84258V0.782578H31.2002V11.1426H29.9122V9.70058C29.6602 10.1579 29.2869 10.5359 28.7922 10.8346C28.2975 11.1239 27.7189 11.2686 27.0562 11.2686C26.3749 11.2686 25.7542 11.1006 25.1942 10.7646C24.6435 10.4286 24.2095 9.95724 23.8922 9.35058C23.5749 8.74391 23.4162 8.05324 23.4162 7.27858ZM29.9122 7.29258C29.9122 6.71391 29.7955 6.20991 29.5622 5.78058C29.3289 5.35124 29.0115 5.02458 28.6102 4.80058C28.2182 4.56724 27.7842 4.45058 27.3082 4.45058C26.8322 4.45058 26.3982 4.56258 26.0062 4.78658C25.6142 5.01058 25.3015 5.33724 25.0682 5.76658C24.8349 6.19591 24.7182 6.69991 24.7182 7.27858C24.7182 7.86658 24.8349 8.37991 25.0682 8.81858C25.3015 9.24791 25.6142 9.57924 26.0062 9.81258C26.3982 10.0366 26.8322 10.1486 27.3082 10.1486C27.7842 10.1486 28.2182 10.0366 28.6102 9.81258C29.0115 9.57924 29.3289 9.24791 29.5622 8.81858C29.7955 8.37991 29.9122 7.87124 29.9122 7.29258ZM40.3531 7.01258C40.3531 7.25524 40.3391 7.51191 40.3111 7.78258H34.1791C34.2258 8.53858 34.4825 9.13124 34.9491 9.56058C35.4251 9.98058 35.9991 10.1906 36.6711 10.1906C37.2218 10.1906 37.6791 10.0646 38.0431 9.81258C38.4165 9.55124 38.6778 9.20591 38.8271 8.77658H40.1991C39.9938 9.51391 39.5831 10.1159 38.9671 10.5826C38.3511 11.0399 37.5858 11.2686 36.6711 11.2686C35.9431 11.2686 35.2898 11.1052 34.7111 10.7786C34.1418 10.4519 33.6938 9.98991 33.3671 9.39258C33.0405 8.78591 32.8771 8.08591 32.8771 7.29258C32.8771 6.49924 33.0358 5.80391 33.3531 5.20658C33.6705 4.60924 34.1138 4.15191 34.6831 3.83458C35.2618 3.50791 35.9245 3.34458 36.6711 3.34458C37.3991 3.34458 38.0431 3.50324 38.6031 3.82058C39.1631 4.13791 39.5925 4.57658 39.8911 5.13658C40.1991 5.68724 40.3531 6.31258 40.3531 7.01258ZM39.0371 6.74658C39.0371 6.26124 38.9298 5.84591 38.7151 5.50058C38.5005 5.14591 38.2065 4.87991 37.8331 4.70258C37.4691 4.51591 37.0631 4.42258 36.6151 4.42258C35.9711 4.42258 35.4205 4.62791 34.9631 5.03858C34.5151 5.44924 34.2585 6.01858 34.1931 6.74658H39.0371ZM44.8908 9.96658L47.2708 3.47058H48.6288L45.6188 11.1426H44.1348L41.1248 3.47058H42.4968L44.8908 9.96658ZM50.5404 2.22458C50.2978 2.22458 50.0924 2.14058 49.9244 1.97258C49.7564 1.80458 49.6724 1.59924 49.6724 1.35658C49.6724 1.11391 49.7564 0.908578 49.9244 0.740578C50.0924 0.572578 50.2978 0.488578 50.5404 0.488578C50.7738 0.488578 50.9698 0.572578 51.1284 0.740578C51.2964 0.908578 51.3804 1.11391 51.3804 1.35658C51.3804 1.59924 51.2964 1.80458 51.1284 1.97258C50.9698 2.14058 50.7738 2.22458 50.5404 2.22458ZM51.1564 3.47058V11.1426H49.8824V3.47058H51.1564ZM52.8518 7.29258C52.8518 6.49924 53.0104 5.80858 53.3278 5.22058C53.6451 4.62324 54.0838 4.16124 54.6438 3.83458C55.2131 3.50791 55.8618 3.34458 56.5898 3.34458C57.5324 3.34458 58.3071 3.57324 58.9138 4.03058C59.5298 4.48791 59.9358 5.12258 60.1318 5.93458H58.7598C58.6291 5.46791 58.3724 5.09924 57.9898 4.82858C57.6164 4.55791 57.1498 4.42258 56.5898 4.42258C55.8618 4.42258 55.2738 4.67458 54.8258 5.17858C54.3778 5.67324 54.1538 6.37791 54.1538 7.29258C54.1538 8.21658 54.3778 8.93058 54.8258 9.43458C55.2738 9.93858 55.8618 10.1906 56.5898 10.1906C57.1498 10.1906 57.6164 10.0599 57.9898 9.79858C58.3631 9.53724 58.6198 9.16391 58.7598 8.67858H60.1318C59.9264 9.46258 59.5158 10.0926 58.8998 10.5686C58.2838 11.0352 57.5138 11.2686 56.5898 11.2686C55.8618 11.2686 55.2131 11.1052 54.6438 10.7786C54.0838 10.4519 53.6451 9.98991 53.3278 9.39258C53.0104 8.79524 52.8518 8.09524 52.8518 7.29258ZM68.8317 7.01258C68.8317 7.25524 68.8177 7.51191 68.7897 7.78258H62.6577C62.7043 8.53858 62.961 9.13124 63.4277 9.56058C63.9037 9.98058 64.4777 10.1906 65.1497 10.1906C65.7003 10.1906 66.1577 10.0646 66.5217 9.81258C66.895 9.55124 67.1563 9.20591 67.3057 8.77658H68.6777C68.4723 9.51391 68.0617 10.1159 67.4457 10.5826C66.8297 11.0399 66.0643 11.2686 65.1497 11.2686C64.4217 11.2686 63.7683 11.1052 63.1897 10.7786C62.6203 10.4519 62.1723 9.98991 61.8457 9.39258C61.519 8.78591 61.3557 8.08591 61.3557 7.29258C61.3557 6.49924 61.5143 5.80391 61.8317 5.20658C62.149 4.60924 62.5923 4.15191 63.1617 3.83458C63.7403 3.50791 64.403 3.34458 65.1497 3.34458C65.8777 3.34458 66.5217 3.50324 67.0817 3.82058C67.6417 4.13791 68.071 4.57658 68.3697 5.13658C68.6777 5.68724 68.8317 6.31258 68.8317 7.01258ZM67.5157 6.74658C67.5157 6.26124 67.4083 5.84591 67.1937 5.50058C66.979 5.14591 66.685 4.87991 66.3117 4.70258C65.9477 4.51591 65.5417 4.42258 65.0937 4.42258C64.4497 4.42258 63.899 4.62791 63.4417 5.03858C62.9937 5.44924 62.737 6.01858 62.6717 6.74658H67.5157ZM73.2293 11.2686C72.6413 11.2686 72.114 11.1706 71.6473 10.9746C71.1806 10.7692 70.812 10.4892 70.5413 10.1346C70.2706 9.77058 70.1213 9.35524 70.0933 8.88858H71.4093C71.4466 9.27124 71.624 9.58391 71.9413 9.82658C72.268 10.0692 72.6926 10.1906 73.2153 10.1906C73.7006 10.1906 74.0833 10.0832 74.3633 9.86858C74.6433 9.65391 74.7833 9.38324 74.7833 9.05658C74.7833 8.72058 74.634 8.47324 74.3353 8.31458C74.0366 8.14658 73.5746 7.98324 72.9493 7.82458C72.38 7.67524 71.9133 7.52591 71.5493 7.37658C71.1946 7.21791 70.8866 6.98924 70.6253 6.69058C70.3733 6.38258 70.2473 5.98124 70.2473 5.48658C70.2473 5.09458 70.364 4.73524 70.5973 4.40858C70.8306 4.08191 71.162 3.82524 71.5913 3.63858C72.0206 3.44258 72.5106 3.34458 73.0613 3.34458C73.9106 3.34458 74.5966 3.55924 75.1193 3.98858C75.642 4.41791 75.922 5.00591 75.9593 5.75258H74.6853C74.6573 5.35124 74.494 5.02924 74.1953 4.78658C73.906 4.54391 73.514 4.42258 73.0193 4.42258C72.562 4.42258 72.198 4.52058 71.9273 4.71658C71.6566 4.91258 71.5213 5.16924 71.5213 5.48658C71.5213 5.73858 71.6006 5.94858 71.7593 6.11658C71.9273 6.27524 72.1326 6.40591 72.3753 6.50858C72.6273 6.60191 72.9726 6.70924 73.4113 6.83058C73.962 6.97991 74.41 7.12924 74.7553 7.27858C75.1006 7.41858 75.3946 7.63324 75.6373 7.92258C75.8893 8.21191 76.02 8.58991 76.0293 9.05658C76.0293 9.47658 75.9126 9.85458 75.6793 10.1906C75.446 10.5266 75.1146 10.7926 74.6853 10.9886C74.2653 11.1752 73.78 11.2686 73.2293 11.2686Z" fill="#333333"/>
</svg>
