<svg width="63" height="13" viewBox="0 0 63 13" fill="none" xmlns="http://www.w3.org/2000/svg">
<path d="M6.66338 0.576V2.22H4.43138V9H2.37938V2.22H0.147375V0.576H6.66338ZM10.7412 9.096C10.0852 9.096 9.49322 8.956 8.96522 8.676C8.44522 8.396 8.03322 7.996 7.72922 7.476C7.43322 6.956 7.28522 6.348 7.28522 5.652C7.28522 4.964 7.43722 4.36 7.74122 3.84C8.04522 3.312 8.46122 2.908 8.98922 2.628C9.51722 2.348 10.1092 2.208 10.7652 2.208C11.4212 2.208 12.0132 2.348 12.5412 2.628C13.0692 2.908 13.4852 3.312 13.7892 3.84C14.0932 4.36 14.2452 4.964 14.2452 5.652C14.2452 6.34 14.0892 6.948 13.7772 7.476C13.4732 7.996 13.0532 8.396 12.5172 8.676C11.9892 8.956 11.3972 9.096 10.7412 9.096ZM10.7412 7.32C11.1332 7.32 11.4652 7.176 11.7372 6.888C12.0172 6.6 12.1572 6.188 12.1572 5.652C12.1572 5.116 12.0212 4.704 11.7492 4.416C11.4852 4.128 11.1572 3.984 10.7652 3.984C10.3652 3.984 10.0332 4.128 9.76922 4.416C9.50522 4.696 9.37322 5.108 9.37322 5.652C9.37322 6.188 9.50122 6.6 9.75722 6.888C10.0212 7.176 10.3492 7.32 10.7412 7.32ZM24.2968 3.288C24.2968 3.776 24.1848 4.224 23.9608 4.632C23.7368 5.032 23.3928 5.356 22.9288 5.604C22.4648 5.852 21.8888 5.976 21.2008 5.976H19.9288V9H17.8768V0.576H21.2008C21.8728 0.576 22.4408 0.692 22.9048 0.924C23.3688 1.156 23.7168 1.476 23.9488 1.884C24.1808 2.292 24.2968 2.76 24.2968 3.288ZM21.0448 4.344C21.4368 4.344 21.7288 4.252 21.9208 4.068C22.1128 3.884 22.2088 3.624 22.2088 3.288C22.2088 2.952 22.1128 2.692 21.9208 2.508C21.7288 2.324 21.4368 2.232 21.0448 2.232H19.9288V4.344H21.0448ZM24.9571 5.64C24.9571 4.952 25.0851 4.348 25.3411 3.828C25.6051 3.308 25.9611 2.908 26.4091 2.628C26.8571 2.348 27.3571 2.208 27.9091 2.208C28.3811 2.208 28.7931 2.304 29.1451 2.496C29.5051 2.688 29.7811 2.94 29.9731 3.252V2.304H32.0251V9H29.9731V8.052C29.7731 8.364 29.4931 8.616 29.1331 8.808C28.7811 9 28.3691 9.096 27.8971 9.096C27.3531 9.096 26.8571 8.956 26.4091 8.676C25.9611 8.388 25.6051 7.984 25.3411 7.464C25.0851 6.936 24.9571 6.328 24.9571 5.64ZM29.9731 5.652C29.9731 5.14 29.8291 4.736 29.5411 4.44C29.2611 4.144 28.9171 3.996 28.5091 3.996C28.1011 3.996 27.7531 4.144 27.4651 4.44C27.1851 4.728 27.0451 5.128 27.0451 5.64C27.0451 6.152 27.1851 6.56 27.4651 6.864C27.7531 7.16 28.1011 7.308 28.5091 7.308C28.9171 7.308 29.2611 7.16 29.5411 6.864C29.8291 6.568 29.9731 6.164 29.9731 5.652ZM37.5896 2.232C38.3736 2.232 38.9976 2.488 39.4616 3C39.9336 3.504 40.1696 4.2 40.1696 5.088V9H38.1296V5.364C38.1296 4.916 38.0136 4.568 37.7816 4.32C37.5496 4.072 37.2376 3.948 36.8456 3.948C36.4536 3.948 36.1416 4.072 35.9096 4.32C35.6776 4.568 35.5616 4.916 35.5616 5.364V9H33.5096V2.304H35.5616V3.192C35.7696 2.896 36.0496 2.664 36.4016 2.496C36.7536 2.32 37.1496 2.232 37.5896 2.232ZM45.3276 7.26V9H44.2836C43.5396 9 42.9596 8.82 42.5436 8.46C42.1276 8.092 41.9196 7.496 41.9196 6.672V4.008H41.1036V2.304H41.9196V0.672H43.9716V2.304H45.3156V4.008H43.9716V6.696C43.9716 6.896 44.0196 7.04 44.1156 7.128C44.2116 7.216 44.3716 7.26 44.5956 7.26H45.3276ZM48.5226 3.42C48.7626 3.052 49.0626 2.764 49.4226 2.556C49.7826 2.34 50.1826 2.232 50.6226 2.232V4.404H50.0586C49.5466 4.404 49.1626 4.516 48.9066 4.74C48.6506 4.956 48.5226 5.34 48.5226 5.892V9H46.4706V2.304H48.5226V3.42ZM58.4434 2.304L54.2434 12.18H52.0354L53.5714 8.772L50.8474 2.304H53.1394L54.6874 6.492L56.2234 2.304H58.4434ZM61.8854 0.275999L61.6454 6.024H59.9054L59.6654 0.275999H61.8854ZM60.8054 9.096C60.4454 9.096 60.1494 8.992 59.9174 8.784C59.6934 8.568 59.5814 8.304 59.5814 7.992C59.5814 7.672 59.6934 7.404 59.9174 7.188C60.1494 6.972 60.4454 6.864 60.8054 6.864C61.1574 6.864 61.4454 6.972 61.6694 7.188C61.9014 7.404 62.0174 7.672 62.0174 7.992C62.0174 8.304 61.9014 8.568 61.6694 8.784C61.4454 8.992 61.1574 9.096 60.8054 9.096Z" fill="#333333"/>
</svg>
