<svg width="65" height="10" viewBox="0 0 65 10" fill="none" xmlns="http://www.w3.org/2000/svg">
<path d="M2.15538 2.22V3.924H4.90338V5.508H2.15538V7.356H5.26338V9H0.103375V0.576H5.26338V2.22H2.15538ZM10.6756 2.232C11.4596 2.232 12.0836 2.488 12.5476 3C13.0196 3.504 13.2556 4.2 13.2556 5.088V9H11.2156V5.364C11.2156 4.916 11.0996 4.568 10.8676 4.32C10.6356 4.072 10.3236 3.948 9.93156 3.948C9.53956 3.948 9.22756 4.072 8.99556 4.32C8.76356 4.568 8.64756 4.916 8.64756 5.364V9H6.59556V2.304H8.64756V3.192C8.85556 2.896 9.13556 2.664 9.48756 2.496C9.83956 2.32 10.2356 2.232 10.6756 2.232ZM18.4135 7.26V9H17.3695C16.6255 9 16.0455 8.82 15.6295 8.46C15.2135 8.092 15.0055 7.496 15.0055 6.672V4.008H14.1895V2.304H15.0055V0.672H17.0575V2.304H18.4015V4.008H17.0575V6.696C17.0575 6.896 17.1055 7.04 17.2015 7.128C17.2975 7.216 17.4575 7.26 17.6815 7.26H18.4135ZM25.8685 5.544C25.8685 5.736 25.8565 5.936 25.8325 6.144H21.1885C21.2205 6.56 21.3525 6.88 21.5845 7.104C21.8245 7.32 22.1165 7.428 22.4605 7.428C22.9725 7.428 23.3285 7.212 23.5285 6.78H25.7125C25.6005 7.22 25.3965 7.616 25.1005 7.968C24.8125 8.32 24.4485 8.596 24.0085 8.796C23.5685 8.996 23.0765 9.096 22.5325 9.096C21.8765 9.096 21.2925 8.956 20.7805 8.676C20.2685 8.396 19.8685 7.996 19.5805 7.476C19.2925 6.956 19.1485 6.348 19.1485 5.652C19.1485 4.956 19.2885 4.348 19.5685 3.828C19.8565 3.308 20.2565 2.908 20.7685 2.628C21.2805 2.348 21.8685 2.208 22.5325 2.208C23.1805 2.208 23.7565 2.344 24.2605 2.616C24.7645 2.888 25.1565 3.276 25.4365 3.78C25.7245 4.284 25.8685 4.872 25.8685 5.544ZM23.7685 5.004C23.7685 4.652 23.6485 4.372 23.4085 4.164C23.1685 3.956 22.8685 3.852 22.5085 3.852C22.1645 3.852 21.8725 3.952 21.6325 4.152C21.4005 4.352 21.2565 4.636 21.2005 5.004H23.7685ZM29.003 3.42C29.243 3.052 29.543 2.764 29.903 2.556C30.263 2.34 30.663 2.232 31.103 2.232V4.404H30.539C30.027 4.404 29.643 4.516 29.387 4.74C29.131 4.956 29.003 5.34 29.003 5.892V9H26.951V2.304H29.003V3.42ZM42.1628 9H40.1108L36.6788 3.804V9H34.6268V0.576H36.6788L40.1108 5.796V0.576H42.1628V9ZM46.6983 9.096C46.0423 9.096 45.4503 8.956 44.9223 8.676C44.4023 8.396 43.9903 7.996 43.6863 7.476C43.3903 6.956 43.2423 6.348 43.2423 5.652C43.2423 4.964 43.3943 4.36 43.6982 3.84C44.0023 3.312 44.4183 2.908 44.9463 2.628C45.4743 2.348 46.0663 2.208 46.7223 2.208C47.3783 2.208 47.9703 2.348 48.4983 2.628C49.0263 2.908 49.4423 3.312 49.7463 3.84C50.0503 4.36 50.2023 4.964 50.2023 5.652C50.2023 6.34 50.0463 6.948 49.7343 7.476C49.4303 7.996 49.0103 8.396 48.4743 8.676C47.9463 8.956 47.3543 9.096 46.6983 9.096ZM46.6983 7.32C47.0903 7.32 47.4223 7.176 47.6943 6.888C47.9743 6.6 48.1143 6.188 48.1143 5.652C48.1143 5.116 47.9783 4.704 47.7063 4.416C47.4423 4.128 47.1143 3.984 46.7223 3.984C46.3223 3.984 45.9903 4.128 45.7263 4.416C45.4623 4.696 45.3303 5.108 45.3303 5.652C45.3303 6.188 45.4583 6.6 45.7143 6.888C45.9783 7.176 46.3063 7.32 46.6983 7.32ZM60.9029 2.304L59.0909 9H56.8229L55.7669 4.656L54.6749 9H52.4189L50.5949 2.304H52.6469L53.5949 7.092L54.7229 2.304H56.8949L58.0349 7.068L58.9709 2.304H60.9029ZM64.3854 0.275999L64.1454 6.024H62.4054L62.1654 0.275999H64.3854ZM63.3054 9.096C62.9454 9.096 62.6494 8.992 62.4174 8.784C62.1934 8.568 62.0814 8.304 62.0814 7.992C62.0814 7.672 62.1934 7.404 62.4174 7.188C62.6494 6.972 62.9454 6.864 63.3054 6.864C63.6574 6.864 63.9454 6.972 64.1694 7.188C64.4014 7.404 64.5174 7.672 64.5174 7.992C64.5174 8.304 64.4014 8.568 64.1694 8.784C63.9454 8.992 63.6574 9.096 63.3054 9.096Z" fill="#333333"/>
</svg>
