<svg width="158" height="39" viewBox="0 0 158 39" fill="none" xmlns="http://www.w3.org/2000/svg">
<path d="M21 4.496V9.92H7.032V18.512H17.736V23.84H7.032V38H0.312V4.496H21ZM37.5731 38.432C35.0131 38.432 32.7091 37.872 30.6611 36.752C28.6131 35.6 26.9971 33.984 25.8131 31.904C24.6611 29.824 24.0851 27.424 24.0851 24.704C24.0851 21.984 24.6771 19.584 25.8611 17.504C27.0771 15.424 28.7251 13.824 30.8051 12.704C32.8851 11.552 35.2051 10.976 37.7651 10.976C40.3251 10.976 42.6451 11.552 44.7251 12.704C46.8051 13.824 48.4371 15.424 49.6211 17.504C50.8371 19.584 51.4451 21.984 51.4451 24.704C51.4451 27.424 50.8211 29.824 49.5731 31.904C48.3571 33.984 46.6931 35.6 44.5811 36.752C42.5011 37.872 40.1651 38.432 37.5731 38.432ZM37.5731 32.576C38.7891 32.576 39.9251 32.288 40.9811 31.712C42.0691 31.104 42.9331 30.208 43.5731 29.024C44.2131 27.84 44.5331 26.4 44.5331 24.704C44.5331 22.176 43.8611 20.24 42.5171 18.896C41.2051 17.52 39.5891 16.832 37.6691 16.832C35.7491 16.832 34.1331 17.52 32.8211 18.896C31.5411 20.24 30.9011 22.176 30.9011 24.704C30.9011 27.232 31.5251 29.184 32.7731 30.56C34.0531 31.904 35.6531 32.576 37.5731 32.576ZM68.1825 38.432C65.6225 38.432 63.3185 37.872 61.2705 36.752C59.2225 35.6 57.6065 33.984 56.4225 31.904C55.2705 29.824 54.6945 27.424 54.6945 24.704C54.6945 21.984 55.2865 19.584 56.4705 17.504C57.6865 15.424 59.3345 13.824 61.4145 12.704C63.4945 11.552 65.8145 10.976 68.3745 10.976C70.9345 10.976 73.2545 11.552 75.3345 12.704C77.4145 13.824 79.0465 15.424 80.2305 17.504C81.4465 19.584 82.0545 21.984 82.0545 24.704C82.0545 27.424 81.4305 29.824 80.1825 31.904C78.9665 33.984 77.3025 35.6 75.1905 36.752C73.1105 37.872 70.7745 38.432 68.1825 38.432ZM68.1825 32.576C69.3985 32.576 70.5345 32.288 71.5905 31.712C72.6785 31.104 73.5425 30.208 74.1825 29.024C74.8225 27.84 75.1425 26.4 75.1425 24.704C75.1425 22.176 74.4705 20.24 73.1265 18.896C71.8145 17.52 70.1985 16.832 68.2785 16.832C66.3585 16.832 64.7425 17.52 63.4305 18.896C62.1505 20.24 61.5105 22.176 61.5105 24.704C61.5105 27.232 62.1345 29.184 63.3825 30.56C64.6625 31.904 66.2625 32.576 68.1825 32.576ZM85.2559 24.608C85.2559 21.92 85.7839 19.536 86.8399 17.456C87.9279 15.376 89.3999 13.776 91.2559 12.656C93.1119 11.536 95.1759 10.976 97.4479 10.976C99.1759 10.976 100.824 11.36 102.392 12.128C103.96 12.864 105.208 13.856 106.136 15.104V2.48H112.952V38H106.136V34.064C105.304 35.376 104.136 36.432 102.632 37.232C101.128 38.032 99.3839 38.432 97.3999 38.432C95.1599 38.432 93.1119 37.856 91.2559 36.704C89.3999 35.552 87.9279 33.936 86.8399 31.856C85.7839 29.744 85.2559 27.328 85.2559 24.608ZM106.184 24.704C106.184 23.072 105.864 21.68 105.224 20.528C104.584 19.344 103.72 18.448 102.632 17.84C101.544 17.2 100.376 16.88 99.1279 16.88C97.8799 16.88 96.7279 17.184 95.6719 17.792C94.6159 18.4 93.7519 19.296 93.0799 20.48C92.4399 21.632 92.1199 23.008 92.1199 24.608C92.1199 26.208 92.4399 27.616 93.0799 28.832C93.7519 30.016 94.6159 30.928 95.6719 31.568C96.7599 32.208 97.9119 32.528 99.1279 32.528C100.376 32.528 101.544 32.224 102.632 31.616C103.72 30.976 104.584 30.08 105.224 28.928C105.864 27.744 106.184 26.336 106.184 24.704ZM122.923 8.24C121.739 8.24 120.747 7.872 119.947 7.136C119.179 6.368 118.795 5.424 118.795 4.304C118.795 3.184 119.179 2.256 119.947 1.52C120.747 0.751998 121.739 0.367998 122.923 0.367998C124.107 0.367998 125.083 0.751998 125.851 1.52C126.651 2.256 127.051 3.184 127.051 4.304C127.051 5.424 126.651 6.368 125.851 7.136C125.083 7.872 124.107 8.24 122.923 8.24ZM126.235 11.408V38H119.515V11.408H126.235ZM157.595 24.128C157.595 25.088 157.531 25.952 157.403 26.72H137.963C138.123 28.64 138.795 30.144 139.979 31.232C141.163 32.32 142.619 32.864 144.347 32.864C146.843 32.864 148.619 31.792 149.675 29.648H156.923C156.155 32.208 154.683 34.32 152.507 35.984C150.331 37.616 147.659 38.432 144.491 38.432C141.931 38.432 139.627 37.872 137.579 36.752C135.563 35.6 133.979 33.984 132.827 31.904C131.707 29.824 131.146 27.424 131.146 24.704C131.146 21.952 131.707 19.536 132.827 17.456C133.947 15.376 135.515 13.776 137.531 12.656C139.547 11.536 141.867 10.976 144.491 10.976C147.019 10.976 149.275 11.52 151.259 12.608C153.275 13.696 154.827 15.248 155.915 17.264C157.035 19.248 157.595 21.536 157.595 24.128ZM150.635 22.208C150.603 20.48 149.979 19.104 148.763 18.08C147.547 17.024 146.059 16.496 144.299 16.496C142.635 16.496 141.227 17.008 140.075 18.032C138.955 19.024 138.267 20.416 138.011 22.208H150.635Z" fill="#EFA662" fill-opacity="0.71"/>
</svg>
