<svg width="136" height="23" viewBox="0 0 136 23" fill="none" xmlns="http://www.w3.org/2000/svg">
<g filter="url(#filter0_d_109_208)">
<path d="M9.46245 14.084C8.90245 14.084 8.39845 13.988 7.95045 13.796C7.50245 13.596 7.15045 13.316 6.89445 12.956C6.63845 12.596 6.51045 12.176 6.51045 11.696H7.97445C8.00645 12.056 8.14645 12.352 8.39445 12.584C8.65045 12.816 9.00645 12.932 9.46245 12.932C9.93445 12.932 10.3025 12.82 10.5665 12.596C10.8305 12.364 10.9625 12.068 10.9625 11.708C10.9625 11.428 10.8785 11.2 10.7105 11.024C10.5505 10.848 10.3465 10.712 10.0985 10.616C9.85845 10.52 9.52245 10.416 9.09045 10.304C8.54645 10.16 8.10245 10.016 7.75845 9.872C7.42245 9.72 7.13445 9.488 6.89445 9.176C6.65445 8.864 6.53445 8.448 6.53445 7.928C6.53445 7.448 6.65445 7.028 6.89445 6.668C7.13445 6.308 7.47045 6.032 7.90245 5.84C8.33445 5.648 8.83445 5.552 9.40245 5.552C10.2105 5.552 10.8705 5.756 11.3825 6.164C11.9025 6.564 12.1905 7.116 12.2465 7.82H10.7345C10.7105 7.516 10.5665 7.256 10.3025 7.04C10.0385 6.824 9.69045 6.716 9.25845 6.716C8.86645 6.716 8.54645 6.816 8.29845 7.016C8.05045 7.216 7.92645 7.504 7.92645 7.88C7.92645 8.136 8.00245 8.348 8.15445 8.516C8.31445 8.676 8.51445 8.804 8.75445 8.9C8.99445 8.996 9.32245 9.1 9.73845 9.212C10.2905 9.364 10.7385 9.516 11.0825 9.668C11.4345 9.82 11.7305 10.056 11.9705 10.376C12.2185 10.688 12.3425 11.108 12.3425 11.636C12.3425 12.06 12.2265 12.46 11.9945 12.836C11.7705 13.212 11.4385 13.516 10.9985 13.748C10.5665 13.972 10.0545 14.084 9.46245 14.084ZM16.8246 14.108C16.2006 14.108 15.6366 13.968 15.1326 13.688C14.6286 13.4 14.2326 13 13.9446 12.488C13.6566 11.968 13.5126 11.368 13.5126 10.688C13.5126 10.016 13.6606 9.42 13.9566 8.9C14.2526 8.38 14.6566 7.98 15.1686 7.7C15.6806 7.42 16.2526 7.28 16.8846 7.28C17.5166 7.28 18.0886 7.42 18.6006 7.7C19.1126 7.98 19.5166 8.38 19.8126 8.9C20.1086 9.42 20.2566 10.016 20.2566 10.688C20.2566 11.36 20.1046 11.956 19.8006 12.476C19.4966 12.996 19.0806 13.4 18.5526 13.688C18.0326 13.968 17.4566 14.108 16.8246 14.108ZM16.8246 12.92C17.1766 12.92 17.5046 12.836 17.8086 12.668C18.1206 12.5 18.3726 12.248 18.5646 11.912C18.7566 11.576 18.8526 11.168 18.8526 10.688C18.8526 10.208 18.7606 9.804 18.5766 9.476C18.3926 9.14 18.1486 8.888 17.8446 8.72C17.5406 8.552 17.2126 8.468 16.8606 8.468C16.5086 8.468 16.1806 8.552 15.8766 8.72C15.5806 8.888 15.3446 9.14 15.1686 9.476C14.9926 9.804 14.9046 10.208 14.9046 10.688C14.9046 11.4 15.0846 11.952 15.4446 12.344C15.8126 12.728 16.2726 12.92 16.8246 12.92ZM27.597 7.388V14H26.229V13.22C26.013 13.492 25.729 13.708 25.377 13.868C25.033 14.02 24.665 14.096 24.273 14.096C23.753 14.096 23.285 13.988 22.869 13.772C22.461 13.556 22.137 13.236 21.897 12.812C21.665 12.388 21.549 11.876 21.549 11.276V7.388H22.905V11.072C22.905 11.664 23.053 12.12 23.349 12.44C23.645 12.752 24.049 12.908 24.561 12.908C25.073 12.908 25.477 12.752 25.773 12.44C26.077 12.12 26.229 11.664 26.229 11.072V7.388H27.597ZM30.998 8.504V12.164C30.998 12.412 31.054 12.592 31.166 12.704C31.286 12.808 31.486 12.86 31.766 12.86H32.606V14H31.526C30.91 14 30.438 13.856 30.11 13.568C29.782 13.28 29.618 12.812 29.618 12.164V8.504H28.838V7.388H29.618V5.744H30.998V7.388H32.606V8.504H30.998ZM37.2868 7.28C37.7908 7.28 38.2388 7.388 38.6308 7.604C39.0308 7.82 39.3428 8.14 39.5668 8.564C39.7988 8.988 39.9148 9.5 39.9148 10.1V14H38.5588V10.304C38.5588 9.712 38.4108 9.26 38.1148 8.948C37.8188 8.628 37.4148 8.468 36.9028 8.468C36.3908 8.468 35.9828 8.628 35.6788 8.948C35.3828 9.26 35.2348 9.712 35.2348 10.304V14H33.8668V5.12H35.2348V8.156C35.4668 7.876 35.7588 7.66 36.1108 7.508C36.4708 7.356 36.8628 7.28 37.2868 7.28ZM46.145 5.66V14H44.777V5.66H46.145ZM51.277 7.28C51.797 7.28 52.261 7.388 52.669 7.604C53.085 7.82 53.409 8.14 53.641 8.564C53.873 8.988 53.989 9.5 53.989 10.1V14H52.633V10.304C52.633 9.712 52.485 9.26 52.189 8.948C51.893 8.628 51.489 8.468 50.977 8.468C50.465 8.468 50.057 8.628 49.753 8.948C49.457 9.26 49.309 9.712 49.309 10.304V14H47.941V7.388H49.309V8.144C49.533 7.872 49.817 7.66 50.161 7.508C50.513 7.356 50.885 7.28 51.277 7.28ZM55.278 10.664C55.278 10 55.414 9.412 55.686 8.9C55.966 8.388 56.342 7.992 56.814 7.712C57.294 7.424 57.826 7.28 58.41 7.28C58.842 7.28 59.266 7.376 59.682 7.568C60.106 7.752 60.442 8 60.69 8.312V5.12H62.07V14H60.69V13.004C60.466 13.324 60.154 13.588 59.754 13.796C59.362 14.004 58.91 14.108 58.398 14.108C57.822 14.108 57.294 13.964 56.814 13.676C56.342 13.38 55.966 12.972 55.686 12.452C55.414 11.924 55.278 11.328 55.278 10.664ZM60.69 10.688C60.69 10.232 60.594 9.836 60.402 9.5C60.218 9.164 59.974 8.908 59.67 8.732C59.366 8.556 59.038 8.468 58.686 8.468C58.334 8.468 58.006 8.556 57.702 8.732C57.398 8.9 57.15 9.152 56.958 9.488C56.774 9.816 56.682 10.208 56.682 10.664C56.682 11.12 56.774 11.52 56.958 11.864C57.15 12.208 57.398 12.472 57.702 12.656C58.014 12.832 58.342 12.92 58.686 12.92C59.038 12.92 59.366 12.832 59.67 12.656C59.974 12.48 60.218 12.224 60.402 11.888C60.594 11.544 60.69 11.144 60.69 10.688ZM64.5628 6.512C64.3148 6.512 64.1068 6.428 63.9388 6.26C63.7708 6.092 63.6868 5.884 63.6868 5.636C63.6868 5.388 63.7708 5.18 63.9388 5.012C64.1068 4.844 64.3148 4.76 64.5628 4.76C64.8028 4.76 65.0068 4.844 65.1748 5.012C65.3428 5.18 65.4268 5.388 65.4268 5.636C65.4268 5.884 65.3428 6.092 65.1748 6.26C65.0068 6.428 64.8028 6.512 64.5628 6.512ZM65.2348 7.388V14H63.8668V7.388H65.2348ZM66.5749 10.664C66.5749 10 66.7109 9.412 66.9829 8.9C67.2629 8.388 67.6389 7.992 68.1109 7.712C68.5909 7.424 69.1189 7.28 69.6949 7.28C70.2149 7.28 70.6669 7.384 71.0509 7.592C71.4429 7.792 71.7549 8.044 71.9869 8.348V7.388H73.3669V14H71.9869V13.016C71.7549 13.328 71.4389 13.588 71.0389 13.796C70.6389 14.004 70.1829 14.108 69.6709 14.108C69.1029 14.108 68.5829 13.964 68.1109 13.676C67.6389 13.38 67.2629 12.972 66.9829 12.452C66.7109 11.924 66.5749 11.328 66.5749 10.664ZM71.9869 10.688C71.9869 10.232 71.8909 9.836 71.6989 9.5C71.5149 9.164 71.2709 8.908 70.9669 8.732C70.6629 8.556 70.3349 8.468 69.9829 8.468C69.6309 8.468 69.3029 8.556 68.9989 8.732C68.6949 8.9 68.4469 9.152 68.2549 9.488C68.0709 9.816 67.9789 10.208 67.9789 10.664C67.9789 11.12 68.0709 11.52 68.2549 11.864C68.4469 12.208 68.6949 12.472 68.9989 12.656C69.3109 12.832 69.6389 12.92 69.9829 12.92C70.3349 12.92 70.6629 12.832 70.9669 12.656C71.2709 12.48 71.5149 12.224 71.6989 11.888C71.8909 11.544 71.9869 11.144 71.9869 10.688ZM78.4997 7.28C79.0197 7.28 79.4837 7.388 79.8917 7.604C80.3077 7.82 80.6317 8.14 80.8637 8.564C81.0957 8.988 81.2117 9.5 81.2117 10.1V14H79.8557V10.304C79.8557 9.712 79.7077 9.26 79.4117 8.948C79.1157 8.628 78.7117 8.468 78.1997 8.468C77.6877 8.468 77.2797 8.628 76.9757 8.948C76.6797 9.26 76.5317 9.712 76.5317 10.304V14H75.1637V7.388H76.5317V8.144C76.7557 7.872 77.0397 7.66 77.3837 7.508C77.7357 7.356 78.1077 7.28 78.4997 7.28ZM85.6178 9.812C85.6178 8.996 85.8058 8.264 86.1818 7.616C86.5658 6.968 87.0818 6.464 87.7298 6.104C88.3858 5.736 89.1018 5.552 89.8778 5.552C90.7658 5.552 91.5538 5.772 92.2418 6.212C92.9378 6.644 93.4418 7.26 93.7538 8.06H92.1098C91.8938 7.62 91.5938 7.292 91.2098 7.076C90.8258 6.86 90.3818 6.752 89.8778 6.752C89.3258 6.752 88.8338 6.876 88.4018 7.124C87.9698 7.372 87.6298 7.728 87.3818 8.192C87.1418 8.656 87.0218 9.196 87.0218 9.812C87.0218 10.428 87.1418 10.968 87.3818 11.432C87.6298 11.896 87.9698 12.256 88.4018 12.512C88.8338 12.76 89.3258 12.884 89.8778 12.884C90.3818 12.884 90.8258 12.776 91.2098 12.56C91.5938 12.344 91.8938 12.016 92.1098 11.576H93.7538C93.4418 12.376 92.9378 12.992 92.2418 13.424C91.5538 13.856 90.7658 14.072 89.8778 14.072C89.0938 14.072 88.3778 13.892 87.7298 13.532C87.0818 13.164 86.5658 12.656 86.1818 12.008C85.8058 11.36 85.6178 10.628 85.6178 9.812ZM101.343 7.388V14H99.9751V13.22C99.7591 13.492 99.4751 13.708 99.1231 13.868C98.7791 14.02 98.4111 14.096 98.0191 14.096C97.4991 14.096 97.0311 13.988 96.6151 13.772C96.2071 13.556 95.8831 13.236 95.6431 12.812C95.4111 12.388 95.2951 11.876 95.2951 11.276V7.388H96.6511V11.072C96.6511 11.664 96.7991 12.12 97.0951 12.44C97.3911 12.752 97.7951 12.908 98.3071 12.908C98.8191 12.908 99.2231 12.752 99.5191 12.44C99.8231 12.12 99.9751 11.664 99.9751 11.072V7.388H101.343ZM103.844 6.512C103.596 6.512 103.388 6.428 103.22 6.26C103.052 6.092 102.968 5.884 102.968 5.636C102.968 5.388 103.052 5.18 103.22 5.012C103.388 4.844 103.596 4.76 103.844 4.76C104.084 4.76 104.288 4.844 104.456 5.012C104.624 5.18 104.708 5.388 104.708 5.636C104.708 5.884 104.624 6.092 104.456 6.26C104.288 6.428 104.084 6.512 103.844 6.512ZM104.516 7.388V14H103.148V7.388H104.516ZM108.712 14.108C108.192 14.108 107.724 14.016 107.308 13.832C106.9 13.64 106.576 13.384 106.336 13.064C106.096 12.736 105.968 12.372 105.952 11.972H107.368C107.392 12.252 107.524 12.488 107.764 12.68C108.012 12.864 108.32 12.956 108.688 12.956C109.072 12.956 109.368 12.884 109.576 12.74C109.792 12.588 109.9 12.396 109.9 12.164C109.9 11.916 109.78 11.732 109.54 11.612C109.308 11.492 108.936 11.36 108.424 11.216C107.928 11.08 107.524 10.948 107.212 10.82C106.9 10.692 106.628 10.496 106.396 10.232C106.172 9.968 106.06 9.62 106.06 9.188C106.06 8.836 106.164 8.516 106.372 8.228C106.58 7.932 106.876 7.7 107.26 7.532C107.652 7.364 108.1 7.28 108.604 7.28C109.356 7.28 109.96 7.472 110.416 7.856C110.88 8.232 111.128 8.748 111.16 9.404H109.792C109.768 9.108 109.648 8.872 109.432 8.696C109.216 8.52 108.924 8.432 108.556 8.432C108.196 8.432 107.92 8.5 107.728 8.636C107.536 8.772 107.44 8.952 107.44 9.176C107.44 9.352 107.504 9.5 107.632 9.62C107.76 9.74 107.916 9.836 108.1 9.908C108.284 9.972 108.556 10.056 108.916 10.16C109.396 10.288 109.788 10.42 110.092 10.556C110.404 10.684 110.672 10.876 110.896 11.132C111.12 11.388 111.236 11.728 111.244 12.152C111.244 12.528 111.14 12.864 110.932 13.16C110.724 13.456 110.428 13.688 110.044 13.856C109.668 14.024 109.224 14.108 108.712 14.108ZM113.418 6.512C113.17 6.512 112.962 6.428 112.794 6.26C112.626 6.092 112.542 5.884 112.542 5.636C112.542 5.388 112.626 5.18 112.794 5.012C112.962 4.844 113.17 4.76 113.418 4.76C113.658 4.76 113.862 4.844 114.03 5.012C114.198 5.18 114.282 5.388 114.282 5.636C114.282 5.884 114.198 6.092 114.03 6.26C113.862 6.428 113.658 6.512 113.418 6.512ZM114.09 7.388V14H112.722V7.388H114.09ZM119.222 7.28C119.742 7.28 120.206 7.388 120.614 7.604C121.03 7.82 121.354 8.14 121.586 8.564C121.818 8.988 121.934 9.5 121.934 10.1V14H120.578V10.304C120.578 9.712 120.43 9.26 120.134 8.948C119.838 8.628 119.434 8.468 118.922 8.468C118.41 8.468 118.002 8.628 117.698 8.948C117.402 9.26 117.254 9.712 117.254 10.304V14H115.886V7.388H117.254V8.144C117.478 7.872 117.762 7.66 118.106 7.508C118.458 7.356 118.83 7.28 119.222 7.28ZM129.739 10.532C129.739 10.78 129.723 11.004 129.691 11.204H124.639C124.679 11.732 124.875 12.156 125.227 12.476C125.579 12.796 126.011 12.956 126.523 12.956C127.259 12.956 127.779 12.648 128.083 12.032H129.559C129.359 12.64 128.995 13.14 128.467 13.532C127.947 13.916 127.299 14.108 126.523 14.108C125.891 14.108 125.323 13.968 124.819 13.688C124.323 13.4 123.931 13 123.643 12.488C123.363 11.968 123.223 11.368 123.223 10.688C123.223 10.008 123.359 9.412 123.631 8.9C123.911 8.38 124.299 7.98 124.795 7.7C125.299 7.42 125.875 7.28 126.523 7.28C127.147 7.28 127.703 7.416 128.191 7.688C128.679 7.96 129.059 8.344 129.331 8.84C129.603 9.328 129.739 9.892 129.739 10.532ZM128.311 10.1C128.303 9.596 128.123 9.192 127.771 8.888C127.419 8.584 126.983 8.432 126.463 8.432C125.991 8.432 125.587 8.584 125.251 8.888C124.915 9.184 124.715 9.588 124.651 10.1H128.311Z" fill="#333333" fill-opacity="0.75" shape-rendering="crispEdges"/>
</g>
<defs>
<filter id="filter0_d_109_208" x="0.510437" y="0.759999" width="135.229" height="21.348" filterUnits="userSpaceOnUse" color-interpolation-filters="sRGB">
<feFlood flood-opacity="0" result="BackgroundImageFix"/>
<feColorMatrix in="SourceAlpha" type="matrix" values="0 0 0 0 0 0 0 0 0 0 0 0 0 0 0 0 0 0 127 0" result="hardAlpha"/>
<feOffset dy="2"/>
<feGaussianBlur stdDeviation="3"/>
<feComposite in2="hardAlpha" operator="out"/>
<feColorMatrix type="matrix" values="0 0 0 0 0 0 0 0 0 0 0 0 0 0 0 0 0 0 0.25 0"/>
<feBlend mode="normal" in2="BackgroundImageFix" result="effect1_dropShadow_109_208"/>
<feBlend mode="normal" in="SourceGraphic" in2="effect1_dropShadow_109_208" result="shape"/>
</filter>
</defs>
</svg>
