<svg width="29" height="9" viewBox="0 0 29 9" fill="none" xmlns="http://www.w3.org/2000/svg">
<path d="M4.07 4.39C4.46333 4.46333 4.79667 4.66333 5.07 4.99C5.34333 5.31667 5.48 5.69667 5.48 6.13C5.48 6.48333 5.39 6.80333 5.21 7.09C5.03667 7.37 4.78 7.59333 4.44 7.76C4.1 7.92 3.69333 8 3.22 8H0.8V1.01H3.15C3.85667 1.01 4.39333 1.17333 4.76 1.5C5.13333 1.82667 5.32 2.25 5.32 2.77C5.32 3.20333 5.20333 3.55667 4.97 3.83C4.73667 4.09667 4.43667 4.28333 4.07 4.39ZM1.5 4.1H3.13C3.60333 4.1 3.96667 3.99 4.22 3.77C4.48 3.54333 4.61 3.23333 4.61 2.84C4.61 2.45333 4.48 2.15 4.22 1.93C3.96667 1.71 3.59333 1.6 3.1 1.6H1.5V4.1ZM3.17 7.41C3.67667 7.41 4.07 7.29 4.35 7.05C4.63667 6.81 4.78 6.48 4.78 6.06C4.78 5.64 4.63 5.30667 4.33 5.06C4.03667 4.80667 3.64 4.68 3.14 4.68H1.5V7.41H3.17ZM7.4668 3.51C7.62013 3.17 7.85346 2.90667 8.1668 2.72C8.4868 2.53333 8.8768 2.44 9.3368 2.44V3.17H9.1468C8.64013 3.17 8.23346 3.30667 7.9268 3.58C7.62013 3.85333 7.4668 4.31 7.4668 4.95V8H6.7668V2.54H7.4668V3.51ZM10.0698 5.26C10.0698 4.7 10.1798 4.21 10.3998 3.79C10.6265 3.36333 10.9365 3.03667 11.3298 2.81C11.7298 2.57667 12.1798 2.46 12.6798 2.46C13.1998 2.46 13.6465 2.58 14.0198 2.82C14.3998 3.06 14.6732 3.36667 14.8398 3.74V2.54H15.5398V8H14.8398V6.79C14.6665 7.16333 14.3898 7.47333 14.0098 7.72C13.6365 7.96 13.1898 8.08 12.6698 8.08C12.1765 8.08 11.7298 7.96333 11.3298 7.73C10.9365 7.49667 10.6265 7.16667 10.3998 6.74C10.1798 6.31333 10.0698 5.82 10.0698 5.26ZM14.8398 5.27C14.8398 4.83 14.7498 4.44333 14.5698 4.11C14.3898 3.77667 14.1432 3.52 13.8298 3.34C13.5232 3.16 13.1832 3.07 12.8098 3.07C12.4232 3.07 12.0765 3.15667 11.7698 3.33C11.4632 3.50333 11.2198 3.75667 11.0398 4.09C10.8665 4.41667 10.7798 4.80667 10.7798 5.26C10.7798 5.70667 10.8665 6.1 11.0398 6.44C11.2198 6.77333 11.4632 7.03 11.7698 7.21C12.0765 7.38333 12.4232 7.47 12.8098 7.47C13.1832 7.47 13.5232 7.38 13.8298 7.2C14.1432 7.02 14.3898 6.76333 14.5698 6.43C14.7498 6.09667 14.8398 5.71 14.8398 5.27ZM19.6979 2.44C20.3512 2.44 20.8846 2.64333 21.2979 3.05C21.7112 3.45 21.9179 4.03333 21.9179 4.8V8H21.2279V4.88C21.2279 4.28667 21.0779 3.83333 20.7779 3.52C20.4846 3.20667 20.0812 3.05 19.5679 3.05C19.0412 3.05 18.6212 3.21667 18.3079 3.55C17.9946 3.88333 17.8379 4.37333 17.8379 5.02V8H17.1379V2.54H17.8379V3.47C18.0112 3.13667 18.2612 2.88333 18.5879 2.71C18.9146 2.53 19.2846 2.44 19.6979 2.44ZM23.146 5.26C23.146 4.7 23.2593 4.21 23.486 3.79C23.7127 3.36333 24.0227 3.03667 24.416 2.81C24.816 2.57667 25.266 2.46 25.766 2.46C26.246 2.46 26.6793 2.57667 27.066 2.81C27.4527 3.04333 27.736 3.34667 27.916 3.72V0.6H28.616V8H27.916V6.78C27.7493 7.16 27.476 7.47333 27.096 7.72C26.716 7.96 26.2693 8.08 25.756 8.08C25.256 8.08 24.806 7.96333 24.406 7.73C24.0127 7.49667 23.7027 7.16667 23.476 6.74C23.256 6.31333 23.146 5.82 23.146 5.26ZM27.916 5.27C27.916 4.83 27.826 4.44333 27.646 4.11C27.466 3.77667 27.2193 3.52 26.906 3.34C26.5993 3.16 26.2593 3.07 25.886 3.07C25.4993 3.07 25.1527 3.15667 24.846 3.33C24.5393 3.50333 24.296 3.75667 24.116 4.09C23.9427 4.41667 23.856 4.80667 23.856 5.26C23.856 5.70667 23.9427 6.1 24.116 6.44C24.296 6.77333 24.5393 7.03 24.846 7.21C25.1527 7.38333 25.4993 7.47 25.886 7.47C26.2593 7.47 26.5993 7.38 26.906 7.2C27.2193 7.02 27.466 6.76333 27.646 6.43C27.826 6.09667 27.916 5.71 27.916 5.27Z" fill="#333333" fill-opacity="0.6"/>
</svg>
