<svg width="38" height="9" viewBox="0 0 38 9" fill="none" xmlns="http://www.w3.org/2000/svg">
<path d="M7.63 1.1V8H6.93V2.49L4.47 8H3.96L1.5 2.51V8H0.8V1.1H1.54L4.21 7.08L6.88 1.1H7.63ZM11.608 8.08C11.0946 8.08 10.6313 7.96667 10.218 7.74C9.8113 7.50667 9.48797 7.18 9.24797 6.76C9.01464 6.33333 8.89797 5.83667 8.89797 5.27C8.89797 4.70333 9.01797 4.21 9.25797 3.79C9.49797 3.36333 9.82464 3.03667 10.238 2.81C10.6513 2.57667 11.1146 2.46 11.628 2.46C12.1413 2.46 12.6046 2.57667 13.018 2.81C13.438 3.03667 13.7646 3.36333 13.998 3.79C14.238 4.21 14.358 4.70333 14.358 5.27C14.358 5.83 14.238 6.32333 13.998 6.75C13.758 7.17667 13.428 7.50667 13.008 7.74C12.588 7.96667 12.1213 8.08 11.608 8.08ZM11.608 7.47C11.968 7.47 12.3013 7.39 12.608 7.23C12.9146 7.06333 13.1613 6.81667 13.348 6.49C13.5413 6.15667 13.638 5.75 13.638 5.27C13.638 4.79 13.5446 4.38667 13.358 4.06C13.1713 3.72667 12.9246 3.48 12.618 3.32C12.3113 3.15333 11.978 3.07 11.618 3.07C11.258 3.07 10.9246 3.15333 10.618 3.32C10.3113 3.48 10.0646 3.72667 9.87797 4.06C9.69797 4.38667 9.60797 4.79 9.60797 5.27C9.60797 5.75 9.69797 6.15667 9.87797 6.49C10.0646 6.81667 10.308 7.06333 10.608 7.23C10.9146 7.39 11.248 7.47 11.608 7.47ZM15.314 5.26C15.314 4.7 15.4273 4.21 15.654 3.79C15.8807 3.36333 16.1907 3.03667 16.584 2.81C16.984 2.57667 17.434 2.46 17.934 2.46C18.414 2.46 18.8473 2.57667 19.234 2.81C19.6207 3.04333 19.904 3.34667 20.084 3.72V0.6H20.784V8H20.084V6.78C19.9173 7.16 19.644 7.47333 19.264 7.72C18.884 7.96 18.4373 8.08 17.924 8.08C17.424 8.08 16.974 7.96333 16.574 7.73C16.1807 7.49667 15.8707 7.16667 15.644 6.74C15.424 6.31333 15.314 5.82 15.314 5.26ZM20.084 5.27C20.084 4.83 19.994 4.44333 19.814 4.11C19.634 3.77667 19.3873 3.52 19.074 3.34C18.7673 3.16 18.4273 3.07 18.054 3.07C17.6673 3.07 17.3207 3.15667 17.014 3.33C16.7073 3.50333 16.464 3.75667 16.284 4.09C16.1107 4.41667 16.024 4.80667 16.024 5.26C16.024 5.70667 16.1107 6.1 16.284 6.44C16.464 6.77333 16.7073 7.03 17.014 7.21C17.3207 7.38333 17.6673 7.47 18.054 7.47C18.4273 7.47 18.7673 7.38 19.074 7.2C19.3873 7.02 19.634 6.76333 19.814 6.43C19.994 6.09667 20.084 5.71 20.084 5.27ZM27.322 4.99C27.322 5.23 27.3154 5.41333 27.302 5.54H22.772C22.792 5.95333 22.892 6.30667 23.072 6.6C23.252 6.89333 23.4887 7.11667 23.782 7.27C24.0754 7.41667 24.3954 7.49 24.742 7.49C25.1954 7.49 25.5754 7.38 25.882 7.16C26.1954 6.94 26.402 6.64333 26.502 6.27H27.242C27.1087 6.80333 26.822 7.24 26.382 7.58C25.9487 7.91333 25.402 8.08 24.742 8.08C24.2287 8.08 23.7687 7.96667 23.362 7.74C22.9554 7.50667 22.6354 7.18 22.402 6.76C22.1754 6.33333 22.062 5.83667 22.062 5.27C22.062 4.70333 22.1754 4.20667 22.402 3.78C22.6287 3.35333 22.9454 3.02667 23.352 2.8C23.7587 2.57333 24.222 2.46 24.742 2.46C25.262 2.46 25.7154 2.57333 26.102 2.8C26.4954 3.02667 26.7954 3.33333 27.002 3.72C27.2154 4.1 27.322 4.52333 27.322 4.99ZM26.612 4.97C26.6187 4.56333 26.5354 4.21667 26.362 3.93C26.1954 3.64333 25.9654 3.42667 25.672 3.28C25.3787 3.13333 25.0587 3.06 24.712 3.06C24.192 3.06 23.7487 3.22667 23.382 3.56C23.0154 3.89333 22.812 4.36333 22.772 4.97H26.612ZM29.3027 0.6V8H28.6027V0.6H29.3027ZM36.1079 3.39L35.7179 5.24H37.1479V5.86H35.5879L35.1279 8H34.4579L34.9179 5.86H32.6979L32.2379 8H31.5679L32.0279 5.86H30.4379V5.24H32.1579L32.5479 3.39H30.9879V2.77H32.6879L33.1479 0.6H33.8179L33.3579 2.77H35.5779L36.0379 0.6H36.7079L36.2479 2.77H37.6979V3.39H36.1079ZM35.4379 3.39H33.2179L32.8279 5.24H35.0479L35.4379 3.39Z" fill="#333333" fill-opacity="0.6"/>
</svg>
