<svg width="35" height="9" viewBox="0 0 35 9" fill="none" xmlns="http://www.w3.org/2000/svg">
<path d="M2.92 8.07C2.46 8.07 2.05333 7.99 1.7 7.83C1.35333 7.67 1.08 7.44667 0.88 7.16C0.68 6.87333 0.573333 6.55333 0.56 6.2H1.3C1.33333 6.54 1.48333 6.84 1.75 7.1C2.01667 7.35333 2.40667 7.48 2.92 7.48C3.39333 7.48 3.76667 7.36 4.04 7.12C4.32 6.87333 4.46 6.56333 4.46 6.19C4.46 5.89 4.38333 5.65 4.23 5.47C4.07667 5.28333 3.88667 5.14667 3.66 5.06C3.43333 4.96667 3.12 4.86667 2.72 4.76C2.25333 4.63333 1.88333 4.51 1.61 4.39C1.33667 4.27 1.10333 4.08333 0.91 3.83C0.716667 3.57667 0.62 3.23333 0.62 2.8C0.62 2.44 0.713333 2.12 0.9 1.84C1.08667 1.55333 1.35 1.33 1.69 1.17C2.03 1.01 2.42 0.93 2.86 0.93C3.50667 0.93 4.02667 1.09 4.42 1.41C4.82 1.72333 5.05 2.13 5.11 2.63H4.35C4.30333 2.34333 4.14667 2.09 3.88 1.87C3.61333 1.64333 3.25333 1.53 2.8 1.53C2.38 1.53 2.03 1.64333 1.75 1.87C1.47 2.09 1.33 2.39333 1.33 2.78C1.33 3.07333 1.40667 3.31 1.56 3.49C1.71333 3.67 1.90333 3.80667 2.13 3.9C2.36333 3.99333 2.67667 4.09333 3.07 4.2C3.52333 4.32667 3.89 4.45333 4.17 4.58C4.45 4.7 4.68667 4.88667 4.88 5.14C5.07333 5.39333 5.17 5.73333 5.17 6.16C5.17 6.48667 5.08333 6.79667 4.91 7.09C4.73667 7.38333 4.48 7.62 4.14 7.8C3.8 7.98 3.39333 8.07 2.92 8.07ZM11.4627 4.99C11.4627 5.23 11.456 5.41333 11.4427 5.54H6.91266C6.93266 5.95333 7.03266 6.30667 7.21266 6.6C7.39266 6.89333 7.62932 7.11667 7.92266 7.27C8.21599 7.41667 8.53599 7.49 8.88266 7.49C9.33599 7.49 9.71599 7.38 10.0227 7.16C10.336 6.94 10.5427 6.64333 10.6427 6.27H11.3827C11.2493 6.80333 10.9627 7.24 10.5227 7.58C10.0893 7.91333 9.54266 8.08 8.88266 8.08C8.36932 8.08 7.90932 7.96667 7.50266 7.74C7.09599 7.50667 6.77599 7.18 6.54266 6.76C6.31599 6.33333 6.20266 5.83667 6.20266 5.27C6.20266 4.70333 6.31599 4.20667 6.54266 3.78C6.76932 3.35333 7.08599 3.02667 7.49266 2.8C7.89932 2.57333 8.36266 2.46 8.88266 2.46C9.40266 2.46 9.85599 2.57333 10.2427 2.8C10.636 3.02667 10.936 3.33333 11.1427 3.72C11.356 4.1 11.4627 4.52333 11.4627 4.99ZM10.7527 4.97C10.7593 4.56333 10.676 4.21667 10.5027 3.93C10.336 3.64333 10.106 3.42667 9.81266 3.28C9.51932 3.13333 9.19932 3.06 8.85266 3.06C8.33266 3.06 7.88932 3.22667 7.52266 3.56C7.15599 3.89333 6.95266 4.36333 6.91266 4.97H10.7527ZM13.4434 3.51C13.5967 3.17 13.83 2.90667 14.1434 2.72C14.4634 2.53333 14.8534 2.44 15.3134 2.44V3.17H15.1234C14.6167 3.17 14.21 3.30667 13.9034 3.58C13.5967 3.85333 13.4434 4.31 13.4434 4.95V8H12.7434V2.54H13.4434V3.51ZM16.7164 1.51C16.5764 1.51 16.4564 1.46 16.3564 1.36C16.2564 1.26 16.2064 1.13667 16.2064 0.99C16.2064 0.843333 16.2564 0.723333 16.3564 0.63C16.4564 0.53 16.5764 0.48 16.7164 0.48C16.8564 0.48 16.9764 0.53 17.0764 0.63C17.1764 0.723333 17.2264 0.843333 17.2264 0.99C17.2264 1.13667 17.1764 1.26 17.0764 1.36C16.9764 1.46 16.8564 1.51 16.7164 1.51ZM17.0664 2.54V8H16.3664V2.54H17.0664ZM18.3316 5.26C18.3316 4.7 18.4416 4.21 18.6616 3.79C18.8882 3.36333 19.1982 3.03667 19.5916 2.81C19.9916 2.57667 20.4416 2.46 20.9416 2.46C21.4616 2.46 21.9082 2.58 22.2816 2.82C22.6616 3.06 22.9349 3.36667 23.1016 3.74V2.54H23.8016V8H23.1016V6.79C22.9282 7.16333 22.6516 7.47333 22.2716 7.72C21.8982 7.96 21.4516 8.08 20.9316 8.08C20.4382 8.08 19.9916 7.96333 19.5916 7.73C19.1982 7.49667 18.8882 7.16667 18.6616 6.74C18.4416 6.31333 18.3316 5.82 18.3316 5.26ZM23.1016 5.27C23.1016 4.83 23.0116 4.44333 22.8316 4.11C22.6516 3.77667 22.4049 3.52 22.0916 3.34C21.7849 3.16 21.4449 3.07 21.0716 3.07C20.6849 3.07 20.3382 3.15667 20.0316 3.33C19.7249 3.50333 19.4816 3.75667 19.3016 4.09C19.1282 4.41667 19.0416 4.80667 19.0416 5.26C19.0416 5.70667 19.1282 6.1 19.3016 6.44C19.4816 6.77333 19.7249 7.03 20.0316 7.21C20.3382 7.38333 20.6849 7.47 21.0716 7.47C21.4449 7.47 21.7849 7.38 22.0916 7.2C22.4049 7.02 22.6516 6.76333 22.8316 6.43C23.0116 6.09667 23.1016 5.71 23.1016 5.27ZM26.0996 0.6V8H25.3996V0.6H26.0996ZM32.9048 3.39L32.5148 5.24H33.9448V5.86H32.3848L31.9248 8H31.2548L31.7148 5.86H29.4948L29.0348 8H28.3648L28.8248 5.86H27.2348V5.24H28.9548L29.3448 3.39H27.7848V2.77H29.4848L29.9448 0.6H30.6148L30.1548 2.77H32.3748L32.8348 0.6H33.5048L33.0448 2.77H34.4948V3.39H32.9048ZM32.2348 3.39H30.0148L29.6248 5.24H31.8448L32.2348 3.39Z" fill="#333333" fill-opacity="0.6"/>
</svg>
