<svg width="205" height="13" viewBox="0 0 205 13" fill="none" xmlns="http://www.w3.org/2000/svg">
<path d="M2.88991 10L0.267756 0.545454H1.76811L3.61009 7.86719H3.6978L5.61364 0.545454H7.10014L9.01598 7.8718H9.10369L10.9411 0.545454H12.446L9.81925 10H8.38352L6.39382 2.91832H6.31996L4.33026 10H2.88991ZM15.9938 10.1431C15.2952 10.1431 14.6935 9.99384 14.1887 9.69531C13.6871 9.3937 13.2993 8.97053 13.0254 8.42578C12.7546 7.87796 12.6191 7.23627 12.6191 6.50071C12.6191 5.77438 12.7546 5.13423 13.0254 4.58026C13.2993 4.02628 13.6809 3.59387 14.1703 3.28303C14.6627 2.97218 15.2382 2.81676 15.8968 2.81676C16.2969 2.81676 16.6847 2.88293 17.0602 3.01527C17.4357 3.14761 17.7727 3.35535 18.0712 3.63849C18.3697 3.92164 18.6052 4.28942 18.7775 4.74183C18.9499 5.19117 19.036 5.73745 19.036 6.38068V6.87003H13.3993V5.83594H17.6834C17.6834 5.47277 17.6096 5.15116 17.4618 4.87109C17.3141 4.58795 17.1064 4.36482 16.8386 4.2017C16.5739 4.03859 16.2631 3.95703 15.9061 3.95703C15.5183 3.95703 15.1797 4.05244 14.8904 4.24325C14.6042 4.43099 14.3826 4.6772 14.2257 4.98189C14.0718 5.2835 13.9949 5.61127 13.9949 5.9652V6.77308C13.9949 7.24704 14.0779 7.65021 14.2441 7.9826C14.4134 8.31499 14.6489 8.56889 14.9505 8.74432C15.2521 8.91667 15.6045 9.00284 16.0076 9.00284C16.2692 9.00284 16.5078 8.96591 16.7232 8.89205C16.9386 8.8151 17.1248 8.70123 17.2818 8.55043C17.4387 8.39962 17.5588 8.21342 17.6419 7.99183L18.9483 8.22727C18.8437 8.61198 18.656 8.94898 18.3851 9.23828C18.1174 9.5245 17.7804 9.74763 17.3741 9.90767C16.9709 10.0646 16.5108 10.1431 15.9938 10.1431ZM21.9479 0.545454V10H20.5676V0.545454H21.9479ZM26.7917 10.1431C26.1054 10.1431 25.5145 9.98769 25.019 9.67685C24.5266 9.36293 24.148 8.93052 23.8833 8.37962C23.6187 7.82872 23.4863 7.1978 23.4863 6.48686C23.4863 5.76669 23.6217 5.13115 23.8926 4.58026C24.1634 4.02628 24.545 3.59387 25.0375 3.28303C25.5299 2.97218 26.11 2.81676 26.7779 2.81676C27.3165 2.81676 27.7966 2.91679 28.2182 3.11683C28.6399 3.3138 28.9799 3.59079 29.2385 3.9478C29.5001 4.30481 29.6555 4.72183 29.7047 5.19886H28.3613C28.2875 4.86648 28.1182 4.58026 27.8535 4.3402C27.5919 4.10014 27.2411 3.98011 26.801 3.98011C26.4163 3.98011 26.0792 4.08168 25.79 4.2848C25.5037 4.48485 25.2806 4.77107 25.1206 5.14347C24.9605 5.51278 24.8805 5.94981 24.8805 6.45455C24.8805 6.97159 24.959 7.41785 25.1159 7.79332C25.2729 8.1688 25.4945 8.45964 25.7807 8.66584C26.07 8.87204 26.4101 8.97514 26.801 8.97514C27.0626 8.97514 27.2995 8.92744 27.5119 8.83203C27.7273 8.73355 27.9074 8.59351 28.052 8.41193C28.1998 8.23035 28.3029 8.01184 28.3613 7.75639H29.7047C29.6555 8.21496 29.5062 8.62429 29.2569 8.98438C29.0076 9.34446 28.6737 9.6276 28.2551 9.83381C27.8397 10.04 27.3519 10.1431 26.7917 10.1431ZM34.1677 10.1431C33.5029 10.1431 32.9228 9.99077 32.4273 9.68608C31.9318 9.38139 31.5471 8.95514 31.2732 8.40732C30.9993 7.85949 30.8623 7.21934 30.8623 6.48686C30.8623 5.7513 30.9993 5.10807 31.2732 4.55717C31.5471 4.00627 31.9318 3.57848 32.4273 3.27379C32.9228 2.96911 33.5029 2.81676 34.1677 2.81676C34.8325 2.81676 35.4126 2.96911 35.9081 3.27379C36.4036 3.57848 36.7883 4.00627 37.0622 4.55717C37.3361 5.10807 37.4731 5.7513 37.4731 6.48686C37.4731 7.21934 37.3361 7.85949 37.0622 8.40732C36.7883 8.95514 36.4036 9.38139 35.9081 9.68608C35.4126 9.99077 34.8325 10.1431 34.1677 10.1431ZM34.1723 8.98438C34.6032 8.98438 34.9602 8.8705 35.2433 8.64276C35.5265 8.41501 35.7358 8.11186 35.8712 7.73331C36.0097 7.35476 36.0789 6.93774 36.0789 6.48224C36.0789 6.02983 36.0097 5.61435 35.8712 5.2358C35.7358 4.85417 35.5265 4.54794 35.2433 4.31712C34.9602 4.08629 34.6032 3.97088 34.1723 3.97088C33.7384 3.97088 33.3783 4.08629 33.0921 4.31712C32.8089 4.54794 32.5981 4.85417 32.4596 5.2358C32.3242 5.61435 32.2565 6.02983 32.2565 6.48224C32.2565 6.93774 32.3242 7.35476 32.4596 7.73331C32.5981 8.11186 32.8089 8.41501 33.0921 8.64276C33.3783 8.8705 33.7384 8.98438 34.1723 8.98438ZM39.0138 10V2.90909H40.3388V4.06321H40.4265C40.5742 3.67235 40.8158 3.36766 41.1513 3.14915C41.4867 2.92756 41.8884 2.81676 42.3562 2.81676C42.8301 2.81676 43.2272 2.92756 43.5472 3.14915C43.8704 3.37074 44.1089 3.67543 44.2628 4.06321H44.3366C44.5059 3.68466 44.7752 3.38305 45.1445 3.15838C45.5138 2.93063 45.954 2.81676 46.4648 2.81676C47.1081 2.81676 47.6328 3.01835 48.0391 3.42152C48.4484 3.82469 48.6531 4.43253 48.6531 5.24503V10H47.2727V5.37429C47.2727 4.89418 47.1419 4.5464 46.8803 4.33097C46.6187 4.11553 46.3063 4.00781 45.9432 4.00781C45.4938 4.00781 45.1445 4.14631 44.8952 4.4233C44.646 4.69721 44.5213 5.0496 44.5213 5.48047V10H43.1456V5.28658C43.1456 4.90187 43.0256 4.59257 42.7855 4.35866C42.5455 4.12476 42.2331 4.00781 41.8484 4.00781C41.5868 4.00781 41.3452 4.07706 41.1236 4.21555C40.9051 4.35097 40.7281 4.54025 40.5927 4.78338C40.4603 5.02652 40.3942 5.30812 40.3942 5.6282V10H39.0138ZM53.5592 10.1431C52.8606 10.1431 52.2589 9.99384 51.7542 9.69531C51.2525 9.3937 50.8647 8.97053 50.5908 8.42578C50.32 7.87796 50.1846 7.23627 50.1846 6.50071C50.1846 5.77438 50.32 5.13423 50.5908 4.58026C50.8647 4.02628 51.2464 3.59387 51.7357 3.28303C52.2281 2.97218 52.8037 2.81676 53.4623 2.81676C53.8624 2.81676 54.2501 2.88293 54.6256 3.01527C55.0011 3.14761 55.3381 3.35535 55.6366 3.63849C55.9352 3.92164 56.1706 4.28942 56.343 4.74183C56.5153 5.19117 56.6015 5.73745 56.6015 6.38068V6.87003H50.9648V5.83594H55.2488C55.2488 5.47277 55.175 5.15116 55.0273 4.87109C54.8795 4.58795 54.6718 4.36482 54.404 4.2017C54.1394 4.03859 53.8285 3.95703 53.4715 3.95703C53.0837 3.95703 52.7452 4.05244 52.4559 4.24325C52.1697 4.43099 51.9481 4.6772 51.7911 4.98189C51.6372 5.2835 51.5603 5.61127 51.5603 5.9652V6.77308C51.5603 7.24704 51.6434 7.65021 51.8096 7.9826C51.9788 8.31499 52.2143 8.56889 52.5159 8.74432C52.8175 8.91667 53.1699 9.00284 53.5731 9.00284C53.8347 9.00284 54.0732 8.96591 54.2886 8.89205C54.5041 8.8151 54.6903 8.70123 54.8472 8.55043C55.0042 8.39962 55.1242 8.21342 55.2073 7.99183L56.5138 8.22727C56.4091 8.61198 56.2214 8.94898 55.9506 9.23828C55.6828 9.5245 55.3458 9.74763 54.9395 9.90767C54.5364 10.0646 54.0763 10.1431 53.5592 10.1431ZM62.4459 12.6591C62.2397 12.6591 62.052 12.6422 61.8827 12.6083C61.7135 12.5775 61.5873 12.5437 61.5042 12.5067L61.8366 11.3757C62.0889 11.4434 62.3136 11.4727 62.5106 11.4634C62.7075 11.4542 62.8814 11.3803 63.0322 11.2418C63.1861 11.1033 63.3215 10.8771 63.4385 10.5632L63.6093 10.0923L61.0148 2.90909H62.4921L64.2879 8.41193H64.3618L66.1576 2.90909H67.6395L64.7172 10.9464C64.5818 11.3157 64.4095 11.6281 64.2002 11.8835C63.9909 12.142 63.7416 12.3359 63.4523 12.4652C63.163 12.5945 62.8276 12.6591 62.4459 12.6591ZM71.6824 10.1431C71.0176 10.1431 70.4374 9.99077 69.9419 9.68608C69.4464 9.38139 69.0617 8.95514 68.7878 8.40732C68.5139 7.85949 68.377 7.21934 68.377 6.48686C68.377 5.7513 68.5139 5.10807 68.7878 4.55717C69.0617 4.00627 69.4464 3.57848 69.9419 3.27379C70.4374 2.96911 71.0176 2.81676 71.6824 2.81676C72.3471 2.81676 72.9273 2.96911 73.4228 3.27379C73.9183 3.57848 74.303 4.00627 74.5769 4.55717C74.8508 5.10807 74.9877 5.7513 74.9877 6.48686C74.9877 7.21934 74.8508 7.85949 74.5769 8.40732C74.303 8.95514 73.9183 9.38139 73.4228 9.68608C72.9273 9.99077 72.3471 10.1431 71.6824 10.1431ZM71.687 8.98438C72.1178 8.98438 72.4748 8.8705 72.758 8.64276C73.0411 8.41501 73.2504 8.11186 73.3858 7.73331C73.5243 7.35476 73.5936 6.93774 73.5936 6.48224C73.5936 6.02983 73.5243 5.61435 73.3858 5.2358C73.2504 4.85417 73.0411 4.54794 72.758 4.31712C72.4748 4.08629 72.1178 3.97088 71.687 3.97088C71.253 3.97088 70.8929 4.08629 70.6067 4.31712C70.3236 4.54794 70.1127 4.85417 69.9743 5.2358C69.8388 5.61435 69.7711 6.02983 69.7711 6.48224C69.7711 6.93774 69.8388 7.35476 69.9743 7.73331C70.1127 8.11186 70.3236 8.41501 70.6067 8.64276C70.8929 8.8705 71.253 8.98438 71.687 8.98438ZM81.0203 7.0593V2.90909H82.4053V10H81.048V8.77202H80.9742C80.811 9.15057 80.5494 9.46603 80.1894 9.71839C79.8324 9.96768 79.3876 10.0923 78.8552 10.0923C78.3997 10.0923 77.9965 9.99231 77.6457 9.79226C77.2979 9.58913 77.024 9.28906 76.824 8.89205C76.627 8.49503 76.5285 8.00414 76.5285 7.41939V2.90909H77.9088V7.2532C77.9088 7.73639 78.0427 8.12109 78.3105 8.40732C78.5782 8.69354 78.926 8.83665 79.3538 8.83665C79.6123 8.83665 79.8693 8.77202 80.1247 8.64276C80.3833 8.51349 80.5972 8.31806 80.7664 8.05646C80.9388 7.79486 81.0234 7.46248 81.0203 7.0593ZM84.2599 10V2.90909H85.5941V4.03551H85.668C85.7972 3.65388 86.025 3.35381 86.3512 3.1353C86.6805 2.91371 87.0529 2.80291 87.4684 2.80291C87.5546 2.80291 87.6561 2.80599 87.7731 2.81214C87.8931 2.8183 87.987 2.82599 88.0547 2.83523V4.15554C87.9993 4.14015 87.9008 4.12322 87.7592 4.10476C87.6177 4.08321 87.4761 4.07244 87.3345 4.07244C87.0083 4.07244 86.7174 4.14169 86.462 4.28018C86.2096 4.4156 86.0096 4.60488 85.8619 4.84801C85.7141 5.08807 85.6403 5.36198 85.6403 5.66974V10H84.2599ZM94.07 5.78977V10H92.6896V2.90909H94.0146V4.06321H94.1023C94.2654 3.68774 94.5208 3.38613 94.8686 3.15838C95.2195 2.93063 95.6611 2.81676 96.1935 2.81676C96.6767 2.81676 97.0999 2.91832 97.4631 3.12145C97.8262 3.3215 98.1078 3.62003 98.3079 4.01705C98.5079 4.41406 98.608 4.90495 98.608 5.4897V10H97.2276V5.65589C97.2276 5.14193 97.0938 4.74029 96.826 4.45099C96.5582 4.15862 96.1905 4.01243 95.7227 4.01243C95.4026 4.01243 95.1179 4.08168 94.8686 4.22017C94.6224 4.35866 94.427 4.56179 94.2823 4.82955C94.1407 5.09422 94.07 5.4143 94.07 5.78977ZM103.515 10.1431C102.817 10.1431 102.215 9.99384 101.71 9.69531C101.209 9.3937 100.821 8.97053 100.547 8.42578C100.276 7.87796 100.141 7.23627 100.141 6.50071C100.141 5.77438 100.276 5.13423 100.547 4.58026C100.821 4.02628 101.202 3.59387 101.692 3.28303C102.184 2.97218 102.76 2.81676 103.418 2.81676C103.818 2.81676 104.206 2.88293 104.582 3.01527C104.957 3.14761 105.294 3.35535 105.593 3.63849C105.891 3.92164 106.127 4.28942 106.299 4.74183C106.471 5.19117 106.558 5.73745 106.558 6.38068V6.87003H100.921V5.83594H105.205C105.205 5.47277 105.131 5.15116 104.983 4.87109C104.836 4.58795 104.628 4.36482 104.36 4.2017C104.095 4.03859 103.785 3.95703 103.428 3.95703C103.04 3.95703 102.701 4.05244 102.412 4.24325C102.126 4.43099 101.904 4.6772 101.747 4.98189C101.593 5.2835 101.516 5.61127 101.516 5.9652V6.77308C101.516 7.24704 101.599 7.65021 101.766 7.9826C101.935 8.31499 102.17 8.56889 102.472 8.74432C102.774 8.91667 103.126 9.00284 103.529 9.00284C103.791 9.00284 104.029 8.96591 104.245 8.89205C104.46 8.8151 104.646 8.70123 104.803 8.55043C104.96 8.39962 105.08 8.21342 105.163 7.99183L106.47 8.22727C106.365 8.61198 106.177 8.94898 105.907 9.23828C105.639 9.5245 105.302 9.74763 104.896 9.90767C104.492 10.0646 104.032 10.1431 103.515 10.1431ZM109.614 10L107.527 2.90909H108.953L110.343 8.11648H110.412L111.806 2.90909H113.233L114.618 8.09339H114.687L116.067 2.90909H117.494L115.412 10H114.004L112.564 4.88033H112.457L111.017 10H109.614ZM125.619 2.90909V4.01705H121.612V2.90909H125.619ZM122.711 10V2.08736C122.711 1.64418 122.808 1.2764 123.001 0.98402C123.195 0.688565 123.452 0.468513 123.772 0.323864C124.092 0.176136 124.44 0.102272 124.816 0.102272C125.093 0.102272 125.33 0.125355 125.527 0.17152C125.724 0.214607 125.87 0.254616 125.965 0.291548L125.642 1.40874C125.577 1.39027 125.494 1.36873 125.393 1.34411C125.291 1.31641 125.168 1.30256 125.023 1.30256C124.688 1.30256 124.448 1.38565 124.303 1.55185C124.162 1.71804 124.091 1.9581 124.091 2.27202V10H122.711ZM128.891 10.157C128.442 10.157 128.035 10.0739 127.672 9.90767C127.309 9.7384 127.021 9.49373 126.809 9.17365C126.6 8.85357 126.495 8.46117 126.495 7.99645C126.495 7.59635 126.572 7.26705 126.726 7.00852C126.88 6.75 127.087 6.54534 127.349 6.39453C127.611 6.24373 127.903 6.12985 128.226 6.05291C128.549 5.97597 128.879 5.9175 129.214 5.87749C129.639 5.82824 129.983 5.78823 130.248 5.75746C130.513 5.7236 130.705 5.66974 130.825 5.59588C130.945 5.52202 131.005 5.40199 131.005 5.2358V5.20348C131.005 4.80031 130.891 4.48793 130.664 4.26633C130.439 4.04474 130.103 3.93395 129.657 3.93395C129.193 3.93395 128.826 4.03705 128.559 4.24325C128.294 4.44638 128.111 4.67259 128.009 4.92188L126.712 4.62642C126.866 4.19555 127.09 3.84777 127.386 3.5831C127.684 3.31534 128.028 3.12145 128.415 3.00142C128.803 2.87831 129.211 2.81676 129.639 2.81676C129.922 2.81676 130.222 2.85062 130.539 2.91832C130.859 2.98295 131.158 3.10298 131.435 3.27841C131.715 3.45383 131.944 3.70466 132.122 4.03089C132.301 4.35405 132.39 4.77415 132.39 5.29119V10H131.042V9.03054H130.987C130.898 9.20904 130.764 9.38447 130.585 9.55682C130.407 9.72917 130.177 9.87228 129.897 9.98615C129.617 10.1 129.282 10.157 128.891 10.157ZM129.191 9.04901C129.573 9.04901 129.899 8.9736 130.17 8.8228C130.444 8.67199 130.651 8.47502 130.793 8.23189C130.938 7.98568 131.01 7.72254 131.01 7.44247V6.52841C130.961 6.57765 130.865 6.62382 130.724 6.6669C130.585 6.70691 130.427 6.74231 130.248 6.77308C130.07 6.80078 129.896 6.82694 129.726 6.85156C129.557 6.87311 129.416 6.89157 129.302 6.90696C129.034 6.94081 128.789 6.99775 128.568 7.07777C128.349 7.15779 128.174 7.2732 128.041 7.42401C127.912 7.57173 127.848 7.7687 127.848 8.01491C127.848 8.35653 127.974 8.61506 128.226 8.79048C128.478 8.96283 128.8 9.04901 129.191 9.04901ZM134.229 10V2.90909H135.554V4.06321H135.641C135.789 3.67235 136.031 3.36766 136.366 3.14915C136.702 2.92756 137.103 2.81676 137.571 2.81676C138.045 2.81676 138.442 2.92756 138.762 3.14915C139.085 3.37074 139.324 3.67543 139.478 4.06321H139.551C139.721 3.68466 139.99 3.38305 140.359 3.15838C140.729 2.93063 141.169 2.81676 141.68 2.81676C142.323 2.81676 142.848 3.01835 143.254 3.42152C143.663 3.82469 143.868 4.43253 143.868 5.24503V10H142.488V5.37429C142.488 4.89418 142.357 4.5464 142.095 4.33097C141.834 4.11553 141.521 4.00781 141.158 4.00781C140.709 4.00781 140.359 4.14631 140.11 4.4233C139.861 4.69721 139.736 5.0496 139.736 5.48047V10H138.36V5.28658C138.36 4.90187 138.24 4.59257 138 4.35866C137.76 4.12476 137.448 4.00781 137.063 4.00781C136.802 4.00781 136.56 4.07706 136.338 4.21555C136.12 4.35097 135.943 4.54025 135.808 4.78338C135.675 5.02652 135.609 5.30812 135.609 5.6282V10H134.229ZM145.718 10V2.90909H147.098V10H145.718ZM146.415 1.81499C146.175 1.81499 145.969 1.73497 145.796 1.57493C145.627 1.41181 145.543 1.21792 145.543 0.993252C145.543 0.765506 145.627 0.571614 145.796 0.411576C145.969 0.248461 146.175 0.166903 146.415 0.166903C146.655 0.166903 146.86 0.248461 147.029 0.411576C147.201 0.571614 147.288 0.765506 147.288 0.993252C147.288 1.21792 147.201 1.41181 147.029 1.57493C146.86 1.73497 146.655 1.81499 146.415 1.81499ZM150.336 0.545454V10H148.955V0.545454H150.336ZM153.065 12.6591C152.859 12.6591 152.671 12.6422 152.502 12.6083C152.333 12.5775 152.206 12.5437 152.123 12.5067L152.456 11.3757C152.708 11.4434 152.933 11.4727 153.13 11.4634C153.327 11.4542 153.501 11.3803 153.651 11.2418C153.805 11.1033 153.941 10.8771 154.058 10.5632L154.228 10.0923L151.634 2.90909H153.111L154.907 8.41193H154.981L156.777 2.90909H158.259L155.336 10.9464C155.201 11.3157 155.029 11.6281 154.819 11.8835C154.61 12.142 154.361 12.3359 154.071 12.4652C153.782 12.5945 153.447 12.6591 153.065 12.6591ZM164.377 5.78977V10H162.996V0.545454H164.358V4.06321H164.446C164.612 3.68158 164.866 3.37843 165.208 3.15376C165.549 2.9291 165.995 2.81676 166.546 2.81676C167.033 2.81676 167.457 2.91679 167.82 3.11683C168.187 3.31688 168.47 3.61541 168.67 4.01243C168.873 4.40637 168.975 4.89879 168.975 5.4897V10H167.594V5.65589C167.594 5.13577 167.46 4.7326 167.193 4.44638C166.925 4.15708 166.552 4.01243 166.075 4.01243C165.749 4.01243 165.457 4.08168 165.198 4.22017C164.943 4.35866 164.741 4.56179 164.594 4.82955C164.449 5.09422 164.377 5.4143 164.377 5.78977ZM173.873 10.1431C173.174 10.1431 172.572 9.99384 172.068 9.69531C171.566 9.3937 171.178 8.97053 170.904 8.42578C170.633 7.87796 170.498 7.23627 170.498 6.50071C170.498 5.77438 170.633 5.13423 170.904 4.58026C171.178 4.02628 171.56 3.59387 172.049 3.28303C172.542 2.97218 173.117 2.81676 173.776 2.81676C174.176 2.81676 174.564 2.88293 174.939 3.01527C175.315 3.14761 175.652 3.35535 175.95 3.63849C176.249 3.92164 176.484 4.28942 176.656 4.74183C176.829 5.19117 176.915 5.73745 176.915 6.38068V6.87003H171.278V5.83594H175.562C175.562 5.47277 175.488 5.15116 175.341 4.87109C175.193 4.58795 174.985 4.36482 174.718 4.2017C174.453 4.03859 174.142 3.95703 173.785 3.95703C173.397 3.95703 173.059 4.05244 172.769 4.24325C172.483 4.43099 172.262 4.6772 172.105 4.98189C171.951 5.2835 171.874 5.61127 171.874 5.9652V6.77308C171.874 7.24704 171.957 7.65021 172.123 7.9826C172.292 8.31499 172.528 8.56889 172.829 8.74432C173.131 8.91667 173.483 9.00284 173.887 9.00284C174.148 9.00284 174.387 8.96591 174.602 8.89205C174.818 8.8151 175.004 8.70123 175.161 8.55043C175.318 8.39962 175.438 8.21342 175.521 7.99183L176.827 8.22727C176.723 8.61198 176.535 8.94898 176.264 9.23828C175.996 9.5245 175.659 9.74763 175.253 9.90767C174.85 10.0646 174.39 10.1431 173.873 10.1431ZM179.827 0.545454V10H178.446V0.545454H179.827ZM181.684 12.6591V2.90909H183.032V4.05859H183.147C183.227 3.91087 183.343 3.74006 183.493 3.54616C183.644 3.35227 183.854 3.183 184.121 3.03835C184.389 2.89062 184.743 2.81676 185.183 2.81676C185.756 2.81676 186.266 2.96141 186.716 3.25071C187.165 3.54001 187.517 3.95703 187.773 4.50178C188.031 5.04652 188.161 5.70206 188.161 6.46839C188.161 7.23473 188.033 7.89181 187.778 8.43963C187.522 8.98437 187.171 9.40447 186.725 9.69993C186.279 9.99231 185.769 10.1385 185.197 10.1385C184.766 10.1385 184.414 10.0662 184.14 9.92152C183.869 9.77687 183.657 9.6076 183.503 9.41371C183.349 9.21982 183.23 9.04747 183.147 8.89666H183.064V12.6591H181.684ZM183.036 6.45455C183.036 6.95312 183.109 7.39015 183.253 7.76562C183.398 8.1411 183.607 8.43501 183.881 8.64737C184.155 8.85665 184.491 8.96129 184.888 8.96129C185.3 8.96129 185.645 8.85204 185.922 8.63352C186.199 8.41193 186.408 8.11186 186.55 7.73331C186.694 7.35476 186.767 6.9285 186.767 6.45455C186.767 5.98674 186.696 5.56664 186.554 5.19425C186.416 4.82185 186.206 4.52794 185.926 4.3125C185.649 4.09706 185.303 3.98935 184.888 3.98935C184.488 3.98935 184.149 4.09245 183.872 4.29865C183.598 4.50485 183.39 4.79261 183.249 5.16193C183.107 5.53125 183.036 5.96212 183.036 6.45455ZM192.763 10.1431C192.065 10.1431 191.463 9.99384 190.958 9.69531C190.457 9.3937 190.069 8.97053 189.795 8.42578C189.524 7.87796 189.389 7.23627 189.389 6.50071C189.389 5.77438 189.524 5.13423 189.795 4.58026C190.069 4.02628 190.45 3.59387 190.94 3.28303C191.432 2.97218 192.008 2.81676 192.666 2.81676C193.066 2.81676 193.454 2.88293 193.83 3.01527C194.205 3.14761 194.542 3.35535 194.841 3.63849C195.139 3.92164 195.375 4.28942 195.547 4.74183C195.719 5.19117 195.806 5.73745 195.806 6.38068V6.87003H190.169V5.83594H194.453C194.453 5.47277 194.379 5.15116 194.231 4.87109C194.084 4.58795 193.876 4.36482 193.608 4.2017C193.343 4.03859 193.033 3.95703 192.676 3.95703C192.288 3.95703 191.949 4.05244 191.66 4.24325C191.374 4.43099 191.152 4.6772 190.995 4.98189C190.841 5.2835 190.764 5.61127 190.764 5.9652V6.77308C190.764 7.24704 190.847 7.65021 191.014 7.9826C191.183 8.31499 191.418 8.56889 191.72 8.74432C192.022 8.91667 192.374 9.00284 192.777 9.00284C193.039 9.00284 193.277 8.96591 193.493 8.89205C193.708 8.8151 193.894 8.70123 194.051 8.55043C194.208 8.39962 194.328 8.21342 194.411 7.99183L195.718 8.22727C195.613 8.61198 195.425 8.94898 195.155 9.23828C194.887 9.5245 194.55 9.74763 194.144 9.90767C193.74 10.0646 193.28 10.1431 192.763 10.1431ZM197.337 10V2.90909H198.671V4.03551H198.745C198.874 3.65388 199.102 3.35381 199.428 3.1353C199.758 2.91371 200.13 2.80291 200.546 2.80291C200.632 2.80291 200.733 2.80599 200.85 2.81214C200.97 2.8183 201.064 2.82599 201.132 2.83523V4.15554C201.076 4.14015 200.978 4.12322 200.836 4.10476C200.695 4.08321 200.553 4.07244 200.412 4.07244C200.085 4.07244 199.795 4.14169 199.539 4.28018C199.287 4.4156 199.087 4.60488 198.939 4.84801C198.791 5.08807 198.717 5.36198 198.717 5.66974V10H197.337ZM204.067 0.545454L203.947 7.28089H202.668L202.548 0.545454H204.067ZM203.31 10.0877C203.054 10.0877 202.836 9.99846 202.654 9.81996C202.473 9.63838 202.383 9.41986 202.386 9.16442C202.383 8.91205 202.473 8.69661 202.654 8.51811C202.836 8.33653 203.054 8.24574 203.31 8.24574C203.559 8.24574 203.774 8.33653 203.956 8.51811C204.138 8.69661 204.23 8.91205 204.233 9.16442C204.23 9.33369 204.185 9.48911 204.099 9.63068C204.016 9.76918 203.905 9.87997 203.767 9.96307C203.628 10.0462 203.476 10.0877 203.31 10.0877Z" fill="black"/>
</svg>
