<svg width="679" height="51" viewBox="0 0 679 51" fill="none" xmlns="http://www.w3.org/2000/svg">
<path d="M25.112 4.496V9.92H16.184V38H9.464V9.92H0.536V4.496H25.112ZM41.8231 38.432C39.2631 38.432 36.9591 37.872 34.9111 36.752C32.8631 35.6 31.2471 33.984 30.0631 31.904C28.9111 29.824 28.3351 27.424 28.3351 24.704C28.3351 21.984 28.9271 19.584 30.1111 17.504C31.3271 15.424 32.9751 13.824 35.0551 12.704C37.1351 11.552 39.4551 10.976 42.0151 10.976C44.5751 10.976 46.8951 11.552 48.9751 12.704C51.0551 13.824 52.6871 15.424 53.8711 17.504C55.0871 19.584 55.6951 21.984 55.6951 24.704C55.6951 27.424 55.0711 29.824 53.8231 31.904C52.6071 33.984 50.9431 35.6 48.8311 36.752C46.7511 37.872 44.4151 38.432 41.8231 38.432ZM41.8231 32.576C43.0391 32.576 44.1751 32.288 45.2311 31.712C46.3191 31.104 47.1831 30.208 47.8231 29.024C48.4631 27.84 48.7831 26.4 48.7831 24.704C48.7831 22.176 48.1111 20.24 46.7671 18.896C45.4551 17.52 43.8391 16.832 41.9191 16.832C39.9991 16.832 38.3831 17.52 37.0711 18.896C35.7911 20.24 35.1511 22.176 35.1511 24.704C35.1511 27.232 35.7751 29.184 37.0231 30.56C38.3031 31.904 39.9031 32.576 41.8231 32.576ZM58.8965 24.608C58.8965 21.92 59.4245 19.536 60.4805 17.456C61.5685 15.376 63.0405 13.776 64.8965 12.656C66.7525 11.536 68.8165 10.976 71.0885 10.976C72.8165 10.976 74.4645 11.36 76.0325 12.128C77.6005 12.864 78.8485 13.856 79.7765 15.104V2.48H86.5925V38H79.7765V34.064C78.9445 35.376 77.7765 36.432 76.2725 37.232C74.7685 38.032 73.0245 38.432 71.0405 38.432C68.8005 38.432 66.7525 37.856 64.8965 36.704C63.0405 35.552 61.5685 33.936 60.4805 31.856C59.4245 29.744 58.8965 27.328 58.8965 24.608ZM79.8245 24.704C79.8245 23.072 79.5045 21.68 78.8645 20.528C78.2245 19.344 77.3605 18.448 76.2725 17.84C75.1845 17.2 74.0165 16.88 72.7685 16.88C71.5205 16.88 70.3685 17.184 69.3125 17.792C68.2565 18.4 67.3925 19.296 66.7205 20.48C66.0805 21.632 65.7605 23.008 65.7605 24.608C65.7605 26.208 66.0805 27.616 66.7205 28.832C67.3925 30.016 68.2565 30.928 69.3125 31.568C70.4005 32.208 71.5525 32.528 72.7685 32.528C74.0165 32.528 75.1845 32.224 76.2725 31.616C77.3605 30.976 78.2245 30.08 78.8645 28.928C79.5045 27.744 79.8245 26.336 79.8245 24.704ZM91.4277 24.608C91.4277 21.92 91.9557 19.536 93.0117 17.456C94.0998 15.376 95.5558 13.776 97.3798 12.656C99.2358 11.536 101.3 10.976 103.572 10.976C105.556 10.976 107.284 11.376 108.756 12.176C110.26 12.976 111.46 13.984 112.356 15.2V11.408H119.124V38H112.356V34.112C111.492 35.36 110.292 36.4 108.756 37.232C107.252 38.032 105.508 38.432 103.524 38.432C101.284 38.432 99.2358 37.856 97.3798 36.704C95.5558 35.552 94.0998 33.936 93.0117 31.856C91.9557 29.744 91.4277 27.328 91.4277 24.608ZM112.356 24.704C112.356 23.072 112.036 21.68 111.396 20.528C110.756 19.344 109.892 18.448 108.804 17.84C107.716 17.2 106.548 16.88 105.3 16.88C104.052 16.88 102.9 17.184 101.844 17.792C100.788 18.4 99.9238 19.296 99.2518 20.48C98.6118 21.632 98.2918 23.008 98.2918 24.608C98.2918 26.208 98.6118 27.616 99.2518 28.832C99.9238 30.016 100.788 30.928 101.844 31.568C102.932 32.208 104.084 32.528 105.3 32.528C106.548 32.528 107.716 32.224 108.804 31.616C109.892 30.976 110.756 30.08 111.396 28.928C112.036 27.744 112.356 26.336 112.356 24.704ZM151.127 11.408L134.663 50.576H127.511L133.271 37.328L122.615 11.408H130.151L137.015 29.984L143.975 11.408H151.127ZM156.094 4.496H163.15L157.966 16.592H153.358L156.094 4.496ZM178.144 38.432C175.968 38.432 174.016 38.048 172.288 37.28C170.56 36.48 169.184 35.408 168.16 34.064C167.168 32.72 166.624 31.232 166.528 29.6H173.296C173.424 30.624 173.92 31.472 174.784 32.144C175.68 32.816 176.784 33.152 178.096 33.152C179.376 33.152 180.368 32.896 181.072 32.384C181.808 31.872 182.176 31.216 182.176 30.416C182.176 29.552 181.728 28.912 180.832 28.496C179.968 28.048 178.576 27.568 176.656 27.056C174.672 26.576 173.04 26.08 171.76 25.568C170.512 25.056 169.424 24.272 168.496 23.216C167.6 22.16 167.152 20.736 167.152 18.944C167.152 17.472 167.568 16.128 168.4 14.912C169.264 13.696 170.48 12.736 172.048 12.032C173.648 11.328 175.52 10.976 177.664 10.976C180.832 10.976 183.36 11.776 185.248 13.376C187.136 14.944 188.176 17.072 188.368 19.76H181.936C181.84 18.704 181.392 17.872 180.592 17.264C179.824 16.624 178.784 16.304 177.472 16.304C176.256 16.304 175.312 16.528 174.64 16.976C174 17.424 173.68 18.048 173.68 18.848C173.68 19.744 174.128 20.432 175.024 20.912C175.92 21.36 177.312 21.824 179.2 22.304C181.12 22.784 182.704 23.28 183.952 23.792C185.2 24.304 186.272 25.104 187.168 26.192C188.096 27.248 188.576 28.656 188.608 30.416C188.608 31.952 188.176 33.328 187.312 34.544C186.48 35.76 185.264 36.72 183.664 37.424C182.096 38.096 180.256 38.432 178.144 38.432ZM222.842 38L215.45 24.944H212.282V38H205.562V4.496H218.138C220.73 4.496 222.938 4.96 224.762 5.888C226.586 6.784 227.946 8.016 228.842 9.584C229.77 11.12 230.234 12.848 230.234 14.768C230.234 16.976 229.594 18.976 228.314 20.768C227.034 22.528 225.13 23.744 222.602 24.416L230.618 38H222.842ZM212.282 19.904H217.898C219.722 19.904 221.082 19.472 221.978 18.608C222.874 17.712 223.322 16.48 223.322 14.912C223.322 13.376 222.874 12.192 221.978 11.36C221.082 10.496 219.722 10.064 217.898 10.064H212.282V19.904ZM261.032 24.128C261.032 25.088 260.968 25.952 260.84 26.72H241.4C241.56 28.64 242.232 30.144 243.416 31.232C244.6 32.32 246.056 32.864 247.784 32.864C250.28 32.864 252.056 31.792 253.112 29.648H260.36C259.592 32.208 258.12 34.32 255.944 35.984C253.768 37.616 251.096 38.432 247.928 38.432C245.368 38.432 243.064 37.872 241.016 36.752C239 35.6 237.416 33.984 236.264 31.904C235.144 29.824 234.584 27.424 234.584 24.704C234.584 21.952 235.144 19.536 236.264 17.456C237.384 15.376 238.952 13.776 240.968 12.656C242.984 11.536 245.304 10.976 247.928 10.976C250.456 10.976 252.712 11.52 254.696 12.608C256.712 13.696 258.264 15.248 259.352 17.264C260.472 19.248 261.032 21.536 261.032 24.128ZM254.072 22.208C254.04 20.48 253.416 19.104 252.2 18.08C250.984 17.024 249.496 16.496 247.736 16.496C246.072 16.496 244.664 17.008 243.512 18.032C242.392 19.024 241.704 20.416 241.448 22.208H254.072ZM264.209 24.704C264.209 21.952 264.769 19.552 265.889 17.504C267.009 15.424 268.561 13.824 270.545 12.704C272.529 11.552 274.801 10.976 277.361 10.976C280.657 10.976 283.377 11.808 285.521 13.472C287.697 15.104 289.153 17.408 289.889 20.384H282.641C282.257 19.232 281.601 18.336 280.673 17.696C279.777 17.024 278.657 16.688 277.313 16.688C275.393 16.688 273.873 17.392 272.753 18.8C271.633 20.176 271.073 22.144 271.073 24.704C271.073 27.232 271.633 29.2 272.753 30.608C273.873 31.984 275.393 32.672 277.313 32.672C280.033 32.672 281.809 31.456 282.641 29.024H289.889C289.153 31.904 287.697 34.192 285.521 35.888C283.345 37.584 280.625 38.432 277.361 38.432C274.801 38.432 272.529 37.872 270.545 36.752C268.561 35.6 267.009 34 265.889 31.952C264.769 29.872 264.209 27.456 264.209 24.704ZM298.22 8.24C297.036 8.24 296.044 7.872 295.244 7.136C294.476 6.368 294.092 5.424 294.092 4.304C294.092 3.184 294.476 2.256 295.244 1.52C296.044 0.751998 297.036 0.367998 298.22 0.367998C299.404 0.367998 300.38 0.751998 301.148 1.52C301.948 2.256 302.348 3.184 302.348 4.304C302.348 5.424 301.948 6.368 301.148 7.136C300.38 7.872 299.404 8.24 298.22 8.24ZM301.532 11.408V38H294.812V11.408H301.532ZM314.891 15.248C315.755 14.032 316.939 13.024 318.443 12.224C319.979 11.392 321.723 10.976 323.675 10.976C325.947 10.976 327.995 11.536 329.819 12.656C331.675 13.776 333.131 15.376 334.187 17.456C335.275 19.504 335.819 21.888 335.819 24.608C335.819 27.328 335.275 29.744 334.187 31.856C333.131 33.936 331.675 35.552 329.819 36.704C327.995 37.856 325.947 38.432 323.675 38.432C321.723 38.432 319.995 38.032 318.491 37.232C317.019 36.432 315.819 35.424 314.891 34.208V50.672H308.171V11.408H314.891V15.248ZM328.955 24.608C328.955 23.008 328.619 21.632 327.947 20.48C327.307 19.296 326.443 18.4 325.355 17.792C324.299 17.184 323.147 16.88 321.899 16.88C320.683 16.88 319.531 17.2 318.443 17.84C317.387 18.448 316.523 19.344 315.851 20.528C315.211 21.712 314.891 23.104 314.891 24.704C314.891 26.304 315.211 27.696 315.851 28.88C316.523 30.064 317.387 30.976 318.443 31.616C319.531 32.224 320.683 32.528 321.899 32.528C323.147 32.528 324.299 32.208 325.355 31.568C326.443 30.928 327.307 30.016 327.947 28.832C328.619 27.648 328.955 26.24 328.955 24.608ZM365.423 24.128C365.423 25.088 365.359 25.952 365.231 26.72H345.791C345.951 28.64 346.623 30.144 347.807 31.232C348.991 32.32 350.447 32.864 352.175 32.864C354.671 32.864 356.447 31.792 357.503 29.648H364.751C363.983 32.208 362.511 34.32 360.335 35.984C358.159 37.616 355.487 38.432 352.319 38.432C349.759 38.432 347.455 37.872 345.407 36.752C343.391 35.6 341.807 33.984 340.655 31.904C339.535 29.824 338.975 27.424 338.975 24.704C338.975 21.952 339.535 19.536 340.655 17.456C341.775 15.376 343.343 13.776 345.359 12.656C347.375 11.536 349.695 10.976 352.319 10.976C354.847 10.976 357.103 11.52 359.087 12.608C361.103 13.696 362.655 15.248 363.743 17.264C364.863 19.248 365.423 21.536 365.423 24.128ZM358.463 22.208C358.431 20.48 357.807 19.104 356.591 18.08C355.375 17.024 353.887 16.496 352.127 16.496C350.463 16.496 349.055 17.008 347.903 18.032C346.783 19.024 346.095 20.416 345.839 22.208H358.463ZM397.317 38.336C394.181 38.336 391.301 37.6 388.677 36.128C386.053 34.656 383.973 32.624 382.437 30.032C380.901 27.408 380.133 24.448 380.133 21.152C380.133 17.888 380.901 14.96 382.437 12.368C383.973 9.744 386.053 7.696 388.677 6.224C391.301 4.752 394.181 4.016 397.317 4.016C400.485 4.016 403.365 4.752 405.957 6.224C408.581 7.696 410.645 9.744 412.149 12.368C413.685 14.96 414.453 17.888 414.453 21.152C414.453 24.448 413.685 27.408 412.149 30.032C410.645 32.624 408.581 34.656 405.957 36.128C403.333 37.6 400.453 38.336 397.317 38.336ZM397.317 32.336C399.333 32.336 401.109 31.888 402.645 30.992C404.181 30.064 405.381 28.752 406.245 27.056C407.109 25.36 407.541 23.392 407.541 21.152C407.541 18.912 407.109 16.96 406.245 15.296C405.381 13.6 404.181 12.304 402.645 11.408C401.109 10.512 399.333 10.064 397.317 10.064C395.301 10.064 393.509 10.512 391.941 11.408C390.405 12.304 389.205 13.6 388.341 15.296C387.477 16.96 387.045 18.912 387.045 21.152C387.045 23.392 387.477 25.36 388.341 27.056C389.205 28.752 390.405 30.064 391.941 30.992C393.509 31.888 395.301 32.336 397.317 32.336ZM434.189 11.024C437.357 11.024 439.917 12.032 441.869 14.048C443.821 16.032 444.797 18.816 444.797 22.4V38H438.077V23.312C438.077 21.2 437.549 19.584 436.493 18.464C435.437 17.312 433.997 16.736 432.173 16.736C430.317 16.736 428.845 17.312 427.757 18.464C426.701 19.584 426.173 21.2 426.173 23.312V38H419.453V11.408H426.173V14.72C427.069 13.568 428.205 12.672 429.581 12.032C430.989 11.36 432.525 11.024 434.189 11.024ZM457.907 2.48V38H451.187V2.48H457.907ZM489.986 11.408L473.522 50.576H466.37L472.13 37.328L461.474 11.408H469.01L475.874 29.984L482.834 11.408H489.986ZM525.734 4.496V9.92H511.766V18.512H522.47V23.84H511.766V38H505.046V4.496H525.734ZM542.308 38.432C539.748 38.432 537.444 37.872 535.396 36.752C533.348 35.6 531.732 33.984 530.548 31.904C529.396 29.824 528.82 27.424 528.82 24.704C528.82 21.984 529.412 19.584 530.596 17.504C531.812 15.424 533.46 13.824 535.54 12.704C537.62 11.552 539.94 10.976 542.5 10.976C545.06 10.976 547.38 11.552 549.46 12.704C551.54 13.824 553.172 15.424 554.356 17.504C555.572 19.584 556.18 21.984 556.18 24.704C556.18 27.424 555.556 29.824 554.307 31.904C553.092 33.984 551.428 35.6 549.316 36.752C547.236 37.872 544.9 38.432 542.308 38.432ZM542.308 32.576C543.524 32.576 544.66 32.288 545.716 31.712C546.804 31.104 547.668 30.208 548.308 29.024C548.948 27.84 549.268 26.4 549.268 24.704C549.268 22.176 548.596 20.24 547.252 18.896C545.94 17.52 544.324 16.832 542.404 16.832C540.484 16.832 538.868 17.52 537.556 18.896C536.276 20.24 535.636 22.176 535.636 24.704C535.636 27.232 536.26 29.184 537.508 30.56C538.788 31.904 540.388 32.576 542.308 32.576ZM567.829 15.536C568.693 14.128 569.813 13.024 571.189 12.224C572.597 11.424 574.197 11.024 575.989 11.024V18.08H574.213C572.101 18.08 570.501 18.576 569.413 19.568C568.357 20.56 567.829 22.288 567.829 24.752V38H561.109V11.408H567.829V15.536ZM618.593 4.496L607.265 26.336V38H600.545V26.336L589.169 4.496H596.753L603.953 19.808L611.105 4.496H618.593ZM634.276 38.432C631.716 38.432 629.412 37.872 627.364 36.752C625.316 35.6 623.7 33.984 622.516 31.904C621.364 29.824 620.788 27.424 620.788 24.704C620.788 21.984 621.38 19.584 622.564 17.504C623.78 15.424 625.428 13.824 627.508 12.704C629.588 11.552 631.908 10.976 634.468 10.976C637.028 10.976 639.348 11.552 641.428 12.704C643.508 13.824 645.14 15.424 646.324 17.504C647.54 19.584 648.148 21.984 648.148 24.704C648.148 27.424 647.524 29.824 646.276 31.904C645.06 33.984 643.396 35.6 641.284 36.752C639.204 37.872 636.868 38.432 634.276 38.432ZM634.276 32.576C635.492 32.576 636.628 32.288 637.684 31.712C638.772 31.104 639.636 30.208 640.276 29.024C640.916 27.84 641.236 26.4 641.236 24.704C641.236 22.176 640.564 20.24 639.22 18.896C637.908 17.52 636.292 16.832 634.372 16.832C632.452 16.832 630.836 17.52 629.524 18.896C628.244 20.24 627.604 22.176 627.604 24.704C627.604 27.232 628.228 29.184 629.476 30.56C630.756 31.904 632.356 32.576 634.276 32.576ZM678.182 11.408V38H671.414V34.64C670.55 35.792 669.414 36.704 668.006 37.376C666.63 38.016 665.126 38.336 663.494 38.336C661.414 38.336 659.574 37.904 657.974 37.04C656.374 36.144 655.11 34.848 654.182 33.152C653.286 31.424 652.838 29.376 652.838 27.008V11.408H659.558V26.048C659.558 28.16 660.086 29.792 661.142 30.944C662.198 32.064 663.638 32.624 665.462 32.624C667.318 32.624 668.774 32.064 669.83 30.944C670.886 29.792 671.414 28.16 671.414 26.048V11.408H678.182Z" fill="black"/>
</svg>
