<svg width="226" height="71" viewBox="0 0 226 71" fill="none" xmlns="http://www.w3.org/2000/svg">
<g filter="url(#filter0_d_203_1704)">
<rect x="4" y="28" width="218" height="35" rx="17.5" fill="#FC9A63"/>
<path d="M93.8291 50.084C93.2131 50.084 92.6611 49.984 92.1731 49.784C91.6851 49.584 91.2931 49.288 90.9971 48.896C90.7091 48.504 90.5571 48.032 90.5411 47.48H92.7251C92.7571 47.792 92.8651 48.032 93.0491 48.2C93.2331 48.36 93.4731 48.44 93.7691 48.44C94.0731 48.44 94.3131 48.372 94.4891 48.236C94.6651 48.092 94.7531 47.896 94.7531 47.648C94.7531 47.44 94.6811 47.268 94.5371 47.132C94.4011 46.996 94.2291 46.884 94.0211 46.796C93.8211 46.708 93.5331 46.608 93.1571 46.496C92.6131 46.328 92.1691 46.16 91.8251 45.992C91.4811 45.824 91.1851 45.576 90.9371 45.248C90.6891 44.92 90.5651 44.492 90.5651 43.964C90.5651 43.18 90.8491 42.568 91.4171 42.128C91.9851 41.68 92.7251 41.456 93.6371 41.456C94.5651 41.456 95.3131 41.68 95.8811 42.128C96.4491 42.568 96.7531 43.184 96.7931 43.976H94.5731C94.5571 43.704 94.4571 43.492 94.2731 43.34C94.0891 43.18 93.8531 43.1 93.5651 43.1C93.3171 43.1 93.1171 43.168 92.9651 43.304C92.8131 43.432 92.7371 43.62 92.7371 43.868C92.7371 44.14 92.8651 44.352 93.1211 44.504C93.3771 44.656 93.7771 44.82 94.3211 44.996C94.8651 45.18 95.3051 45.356 95.6411 45.524C95.9851 45.692 96.2811 45.936 96.5291 46.256C96.7771 46.576 96.9011 46.988 96.9011 47.492C96.9011 47.972 96.7771 48.408 96.5291 48.8C96.2891 49.192 95.9371 49.504 95.4731 49.736C95.0091 49.968 94.4611 50.084 93.8291 50.084ZM99.1959 42.608C98.8359 42.608 98.5399 42.504 98.3079 42.296C98.0839 42.08 97.9719 41.816 97.9719 41.504C97.9719 41.184 98.0839 40.92 98.3079 40.712C98.5399 40.496 98.8359 40.388 99.1959 40.388C99.5479 40.388 99.8359 40.496 100.06 40.712C100.292 40.92 100.408 41.184 100.408 41.504C100.408 41.816 100.292 42.08 100.06 42.296C99.8359 42.504 99.5479 42.608 99.1959 42.608ZM100.216 43.304V50H98.1639V43.304H100.216ZM104.247 43.208C104.719 43.208 105.131 43.304 105.483 43.496C105.843 43.688 106.119 43.94 106.311 44.252V43.304H108.363V49.988C108.363 50.604 108.239 51.16 107.991 51.656C107.751 52.16 107.379 52.56 106.875 52.856C106.379 53.152 105.759 53.3 105.015 53.3C104.023 53.3 103.219 53.064 102.603 52.592C101.987 52.128 101.635 51.496 101.547 50.696H103.575C103.639 50.952 103.791 51.152 104.031 51.296C104.271 51.448 104.567 51.524 104.919 51.524C105.343 51.524 105.679 51.4 105.927 51.152C106.183 50.912 106.311 50.524 106.311 49.988V49.04C106.111 49.352 105.835 49.608 105.483 49.808C105.131 50 104.719 50.096 104.247 50.096C103.695 50.096 103.195 49.956 102.747 49.676C102.299 49.388 101.943 48.984 101.679 48.464C101.423 47.936 101.295 47.328 101.295 46.64C101.295 45.952 101.423 45.348 101.679 44.828C101.943 44.308 102.299 43.908 102.747 43.628C103.195 43.348 103.695 43.208 104.247 43.208ZM106.311 46.652C106.311 46.14 106.167 45.736 105.879 45.44C105.599 45.144 105.255 44.996 104.847 44.996C104.439 44.996 104.091 45.144 103.803 45.44C103.523 45.728 103.383 46.128 103.383 46.64C103.383 47.152 103.523 47.56 103.803 47.864C104.091 48.16 104.439 48.308 104.847 48.308C105.255 48.308 105.599 48.16 105.879 47.864C106.167 47.568 106.311 47.164 106.311 46.652ZM113.928 43.232C114.712 43.232 115.336 43.488 115.8 44C116.272 44.504 116.508 45.2 116.508 46.088V50H114.468V46.364C114.468 45.916 114.352 45.568 114.12 45.32C113.888 45.072 113.576 44.948 113.184 44.948C112.792 44.948 112.48 45.072 112.248 45.32C112.016 45.568 111.9 45.916 111.9 46.364V50H109.848V43.304H111.9V44.192C112.108 43.896 112.388 43.664 112.74 43.496C113.092 43.32 113.488 43.232 113.928 43.232ZM127.088 43.304V50H125.036V49.088C124.828 49.384 124.544 49.624 124.184 49.808C123.832 49.984 123.44 50.072 123.008 50.072C122.496 50.072 122.044 49.96 121.652 49.736C121.26 49.504 120.956 49.172 120.74 48.74C120.524 48.308 120.416 47.8 120.416 47.216V43.304H122.456V46.94C122.456 47.388 122.572 47.736 122.804 47.984C123.036 48.232 123.348 48.356 123.74 48.356C124.14 48.356 124.456 48.232 124.688 47.984C124.92 47.736 125.036 47.388 125.036 46.94V43.304H127.088ZM130.614 44.252C130.814 43.94 131.09 43.688 131.442 43.496C131.794 43.304 132.206 43.208 132.678 43.208C133.23 43.208 133.73 43.348 134.178 43.628C134.626 43.908 134.978 44.308 135.234 44.828C135.498 45.348 135.63 45.952 135.63 46.64C135.63 47.328 135.498 47.936 135.234 48.464C134.978 48.984 134.626 49.388 134.178 49.676C133.73 49.956 133.23 50.096 132.678 50.096C132.214 50.096 131.802 50 131.442 49.808C131.09 49.616 130.814 49.368 130.614 49.064V53.192H128.562V43.304H130.614V44.252ZM133.542 46.64C133.542 46.128 133.398 45.728 133.11 45.44C132.83 45.144 132.482 44.996 132.066 44.996C131.658 44.996 131.31 45.144 131.022 45.44C130.742 45.736 130.602 46.14 130.602 46.652C130.602 47.164 130.742 47.568 131.022 47.864C131.31 48.16 131.658 48.308 132.066 48.308C132.474 48.308 132.822 48.16 133.11 47.864C133.398 47.56 133.542 47.152 133.542 46.64Z" fill="black"/>
</g>
<defs>
<filter id="filter0_d_203_1704" x="0" y="0" width="226" height="77" filterUnits="userSpaceOnUse" color-interpolation-filters="sRGB">
<feFlood flood-opacity="0" result="BackgroundImageFix"/>
<feColorMatrix in="SourceAlpha" type="matrix" values="0 0 0 0 0 0 0 0 0 0 0 0 0 0 0 0 0 0 127 0" result="hardAlpha"/>
<feOffset dy="4"/>
<feGaussianBlur stdDeviation="2"/>
<feComposite in2="hardAlpha" operator="out"/>
<feColorMatrix type="matrix" values="0 0 0 0 0 0 0 0 0 0 0 0 0 0 0 0 0 0 0.25 0"/>
<feBlend mode="normal" in2="BackgroundImageFix" result="effect1_dropShadow_203_1704"/>
<feBlend mode="normal" in="SourceGraphic" in2="effect1_dropShadow_203_1704" result="shape"/>
</filter>
</defs>
</svg>
