<svg width="31" height="11" viewBox="0 0 31 11" fill="none" xmlns="http://www.w3.org/2000/svg">
<path d="M1.8 2.296V5.428H4.98V6.124H1.8V9.304H5.34V10H0.96V1.6H5.34V2.296H1.8ZM14.7952 3.328C15.5632 3.328 16.1872 3.572 16.6672 4.06C17.1552 4.54 17.3992 5.24 17.3992 6.16V10H16.5712V6.256C16.5712 5.544 16.3992 5 16.0552 4.624C15.7112 4.248 15.2432 4.06 14.6512 4.06C14.0352 4.06 13.5432 4.264 13.1752 4.672C12.8072 5.08 12.6232 5.672 12.6232 6.448V10H11.7952V6.256C11.7952 5.544 11.6232 5 11.2792 4.624C10.9352 4.248 10.4632 4.06 9.86316 4.06C9.24716 4.06 8.75516 4.264 8.38716 4.672C8.01916 5.08 7.83516 5.672 7.83516 6.448V10H6.99516V3.448H7.83516V4.576C8.04316 4.168 8.33916 3.86 8.72316 3.652C9.10716 3.436 9.53516 3.328 10.0072 3.328C10.5752 3.328 11.0712 3.464 11.4952 3.736C11.9272 4.008 12.2392 4.408 12.4312 4.936C12.6072 4.416 12.9072 4.02 13.3312 3.748C13.7632 3.468 14.2512 3.328 14.7952 3.328ZM18.8807 6.712C18.8807 6.04 19.0127 5.452 19.2767 4.948C19.5487 4.436 19.9207 4.044 20.3927 3.772C20.8727 3.492 21.4127 3.352 22.0127 3.352C22.6367 3.352 23.1727 3.496 23.6207 3.784C24.0767 4.072 24.4047 4.44 24.6047 4.888V3.448H25.4447V10H24.6047V8.548C24.3967 8.996 24.0647 9.368 23.6087 9.664C23.1607 9.952 22.6247 10.096 22.0007 10.096C21.4087 10.096 20.8727 9.956 20.3927 9.676C19.9207 9.396 19.5487 9 19.2767 8.488C19.0127 7.976 18.8807 7.384 18.8807 6.712ZM24.6047 6.724C24.6047 6.196 24.4967 5.732 24.2807 5.332C24.0647 4.932 23.7687 4.624 23.3927 4.408C23.0247 4.192 22.6167 4.084 22.1687 4.084C21.7047 4.084 21.2887 4.188 20.9207 4.396C20.5527 4.604 20.2607 4.908 20.0447 5.308C19.8367 5.7 19.7327 6.168 19.7327 6.712C19.7327 7.248 19.8367 7.72 20.0447 8.128C20.2607 8.528 20.5527 8.836 20.9207 9.052C21.2887 9.26 21.7047 9.364 22.1687 9.364C22.6167 9.364 23.0247 9.256 23.3927 9.04C23.7687 8.824 24.0647 8.516 24.2807 8.116C24.4967 7.716 24.6047 7.252 24.6047 6.724ZM27.7823 2.212C27.6143 2.212 27.4703 2.152 27.3503 2.032C27.2303 1.912 27.1703 1.764 27.1703 1.588C27.1703 1.412 27.2303 1.268 27.3503 1.156C27.4703 1.036 27.6143 0.976 27.7823 0.976C27.9503 0.976 28.0943 1.036 28.2143 1.156C28.3343 1.268 28.3943 1.412 28.3943 1.588C28.3943 1.764 28.3343 1.912 28.2143 2.032C28.0943 2.152 27.9503 2.212 27.7823 2.212ZM28.2023 3.448V10H27.3623V3.448H28.2023ZM30.9445 1.12V10H30.1045V1.12H30.9445Z" fill="#333333" fill-opacity="0.6"/>
</svg>
