<svg width="371" height="33" viewBox="0 0 371 33" fill="none" xmlns="http://www.w3.org/2000/svg">
<g filter="url(#filter0_i_210_1900)">
<rect width="371" height="33" rx="14" fill="#F3F0ED"/>
</g>
<rect x="0.35" y="0.35" width="370.3" height="32.3" rx="13.65" stroke="#333333" stroke-opacity="0.25" stroke-width="0.7"/>
<path d="M16.8 13.296V16.428H19.98V17.124H16.8V20.304H20.34V21H15.96V12.6H20.34V13.296H16.8ZM29.7952 14.328C30.5632 14.328 31.1872 14.572 31.6672 15.06C32.1552 15.54 32.3992 16.24 32.3992 17.16V21H31.5712V17.256C31.5712 16.544 31.3992 16 31.0552 15.624C30.7112 15.248 30.2432 15.06 29.6512 15.06C29.0352 15.06 28.5432 15.264 28.1752 15.672C27.8072 16.08 27.6232 16.672 27.6232 17.448V21H26.7952V17.256C26.7952 16.544 26.6232 16 26.2792 15.624C25.9352 15.248 25.4632 15.06 24.8632 15.06C24.2472 15.06 23.7552 15.264 23.3872 15.672C23.0192 16.08 22.8352 16.672 22.8352 17.448V21H21.9952V14.448H22.8352V15.576C23.0432 15.168 23.3392 14.86 23.7232 14.652C24.1072 14.436 24.5352 14.328 25.0072 14.328C25.5752 14.328 26.0712 14.464 26.4952 14.736C26.9272 15.008 27.2392 15.408 27.4312 15.936C27.6072 15.416 27.9072 15.02 28.3312 14.748C28.7632 14.468 29.2512 14.328 29.7952 14.328ZM33.8807 17.712C33.8807 17.04 34.0127 16.452 34.2767 15.948C34.5487 15.436 34.9207 15.044 35.3927 14.772C35.8727 14.492 36.4127 14.352 37.0127 14.352C37.6367 14.352 38.1727 14.496 38.6207 14.784C39.0767 15.072 39.4047 15.44 39.6047 15.888V14.448H40.4447V21H39.6047V19.548C39.3967 19.996 39.0647 20.368 38.6087 20.664C38.1607 20.952 37.6247 21.096 37.0007 21.096C36.4087 21.096 35.8727 20.956 35.3927 20.676C34.9207 20.396 34.5487 20 34.2767 19.488C34.0127 18.976 33.8807 18.384 33.8807 17.712ZM39.6047 17.724C39.6047 17.196 39.4967 16.732 39.2807 16.332C39.0647 15.932 38.7687 15.624 38.3927 15.408C38.0247 15.192 37.6167 15.084 37.1687 15.084C36.7047 15.084 36.2887 15.188 35.9207 15.396C35.5527 15.604 35.2607 15.908 35.0447 16.308C34.8367 16.7 34.7327 17.168 34.7327 17.712C34.7327 18.248 34.8367 18.72 35.0447 19.128C35.2607 19.528 35.5527 19.836 35.9207 20.052C36.2887 20.26 36.7047 20.364 37.1687 20.364C37.6167 20.364 38.0247 20.256 38.3927 20.04C38.7687 19.824 39.0647 19.516 39.2807 19.116C39.4967 18.716 39.6047 18.252 39.6047 17.724ZM42.7823 13.212C42.6143 13.212 42.4703 13.152 42.3503 13.032C42.2303 12.912 42.1703 12.764 42.1703 12.588C42.1703 12.412 42.2303 12.268 42.3503 12.156C42.4703 12.036 42.6143 11.976 42.7823 11.976C42.9503 11.976 43.0943 12.036 43.2143 12.156C43.3343 12.268 43.3943 12.412 43.3943 12.588C43.3943 12.764 43.3343 12.912 43.2143 13.032C43.0943 13.152 42.9503 13.212 42.7823 13.212ZM43.2023 14.448V21H42.3623V14.448H43.2023ZM45.9445 12.12V21H45.1045V12.12H45.9445Z" fill="#333333" fill-opacity="0.6"/>
<defs>
<filter id="filter0_i_210_1900" x="0" y="0" width="371" height="37" filterUnits="userSpaceOnUse" color-interpolation-filters="sRGB">
<feFlood flood-opacity="0" result="BackgroundImageFix"/>
<feBlend mode="normal" in="SourceGraphic" in2="BackgroundImageFix" result="shape"/>
<feColorMatrix in="SourceAlpha" type="matrix" values="0 0 0 0 0 0 0 0 0 0 0 0 0 0 0 0 0 0 127 0" result="hardAlpha"/>
<feOffset dy="4"/>
<feGaussianBlur stdDeviation="2"/>
<feComposite in2="hardAlpha" operator="arithmetic" k2="-1" k3="1"/>
<feColorMatrix type="matrix" values="0 0 0 0 0.898039 0 0 0 0 0.898039 0 0 0 0 0.898039 0 0 0 1 0"/>
<feBlend mode="normal" in2="shape" result="effect1_innerShadow_210_1900"/>
</filter>
</defs>
</svg>
