<svg width="371" height="33" viewBox="0 0 371 33" fill="none" xmlns="http://www.w3.org/2000/svg">
<g filter="url(#filter0_i_210_1904)">
<rect width="371" height="33" rx="14" fill="#F3F0ED"/>
</g>
<rect x="0.35" y="0.35" width="370.3" height="32.3" rx="13.65" stroke="#333333" stroke-opacity="0.25" stroke-width="0.7"/>
<path d="M24.324 15.024C24.324 15.744 24.088 16.324 23.616 16.764C23.144 17.204 22.436 17.424 21.492 17.424H19.8V21H18.96V12.612H21.492C22.428 12.612 23.132 12.832 23.604 13.272C24.084 13.712 24.324 14.296 24.324 15.024ZM21.492 16.704C22.804 16.704 23.46 16.144 23.46 15.024C23.46 14.464 23.304 14.04 22.992 13.752C22.68 13.464 22.18 13.32 21.492 13.32H19.8V16.704H21.492ZM25.3494 17.712C25.3494 17.04 25.4814 16.452 25.7454 15.948C26.0174 15.436 26.3894 15.044 26.8614 14.772C27.3414 14.492 27.8814 14.352 28.4814 14.352C29.1054 14.352 29.6414 14.496 30.0894 14.784C30.5454 15.072 30.8734 15.44 31.0734 15.888V14.448H31.9134V21H31.0734V19.548C30.8654 19.996 30.5334 20.368 30.0774 20.664C29.6294 20.952 29.0934 21.096 28.4694 21.096C27.8774 21.096 27.3414 20.956 26.8614 20.676C26.3894 20.396 26.0174 20 25.7454 19.488C25.4814 18.976 25.3494 18.384 25.3494 17.712ZM31.0734 17.724C31.0734 17.196 30.9654 16.732 30.7494 16.332C30.5334 15.932 30.2374 15.624 29.8614 15.408C29.4934 15.192 29.0854 15.084 28.6374 15.084C28.1734 15.084 27.7574 15.188 27.3894 15.396C27.0214 15.604 26.7294 15.908 26.5134 16.308C26.3054 16.7 26.2014 17.168 26.2014 17.712C26.2014 18.248 26.3054 18.72 26.5134 19.128C26.7294 19.528 27.0214 19.836 27.3894 20.052C27.7574 20.26 28.1734 20.364 28.6374 20.364C29.0854 20.364 29.4934 20.256 29.8614 20.04C30.2374 19.824 30.5334 19.516 30.7494 19.116C30.9654 18.716 31.0734 18.252 31.0734 17.724ZM36.0871 21.096C35.3351 21.096 34.7191 20.924 34.2391 20.58C33.7671 20.228 33.5031 19.752 33.4471 19.152H34.3111C34.3511 19.52 34.5231 19.82 34.8271 20.052C35.1391 20.276 35.5551 20.388 36.0751 20.388C36.5311 20.388 36.8871 20.28 37.1431 20.064C37.4071 19.848 37.5391 19.58 37.5391 19.26C37.5391 19.036 37.4671 18.852 37.3231 18.708C37.1791 18.564 36.9951 18.452 36.7711 18.372C36.5551 18.284 36.2591 18.192 35.8831 18.096C35.3951 17.968 34.9991 17.84 34.6951 17.712C34.3911 17.584 34.1311 17.396 33.9151 17.148C33.7071 16.892 33.6031 16.552 33.6031 16.128C33.6031 15.808 33.6991 15.512 33.8911 15.24C34.0831 14.968 34.3551 14.752 34.7071 14.592C35.0591 14.432 35.4591 14.352 35.9071 14.352C36.6111 14.352 37.1791 14.532 37.6111 14.892C38.0431 15.244 38.2751 15.732 38.3071 16.356H37.4671C37.4431 15.972 37.2911 15.664 37.0111 15.432C36.7391 15.192 36.3631 15.072 35.8831 15.072C35.4591 15.072 35.1151 15.172 34.8511 15.372C34.5871 15.572 34.4551 15.82 34.4551 16.116C34.4551 16.372 34.5311 16.584 34.6831 16.752C34.8431 16.912 35.0391 17.04 35.2711 17.136C35.5031 17.224 35.8151 17.324 36.2071 17.436C36.6791 17.564 37.0551 17.688 37.3351 17.808C37.6151 17.928 37.8551 18.104 38.0551 18.336C38.2551 18.568 38.3591 18.876 38.3671 19.26C38.3671 19.612 38.2711 19.928 38.0791 20.208C37.8871 20.48 37.6191 20.696 37.2751 20.856C36.9311 21.016 36.5351 21.096 36.0871 21.096ZM42.2043 21.096C41.4523 21.096 40.8363 20.924 40.3563 20.58C39.8843 20.228 39.6203 19.752 39.5643 19.152H40.4283C40.4683 19.52 40.6403 19.82 40.9443 20.052C41.2563 20.276 41.6723 20.388 42.1923 20.388C42.6483 20.388 43.0043 20.28 43.2603 20.064C43.5243 19.848 43.6563 19.58 43.6563 19.26C43.6563 19.036 43.5843 18.852 43.4403 18.708C43.2963 18.564 43.1123 18.452 42.8883 18.372C42.6723 18.284 42.3763 18.192 42.0003 18.096C41.5123 17.968 41.1163 17.84 40.8123 17.712C40.5083 17.584 40.2483 17.396 40.0323 17.148C39.8243 16.892 39.7203 16.552 39.7203 16.128C39.7203 15.808 39.8163 15.512 40.0083 15.24C40.2003 14.968 40.4723 14.752 40.8243 14.592C41.1763 14.432 41.5763 14.352 42.0243 14.352C42.7283 14.352 43.2963 14.532 43.7283 14.892C44.1603 15.244 44.3923 15.732 44.4243 16.356H43.5843C43.5603 15.972 43.4083 15.664 43.1283 15.432C42.8563 15.192 42.4803 15.072 42.0003 15.072C41.5763 15.072 41.2323 15.172 40.9683 15.372C40.7043 15.572 40.5723 15.82 40.5723 16.116C40.5723 16.372 40.6483 16.584 40.8003 16.752C40.9603 16.912 41.1563 17.04 41.3883 17.136C41.6203 17.224 41.9323 17.324 42.3243 17.436C42.7963 17.564 43.1723 17.688 43.4523 17.808C43.7323 17.928 43.9723 18.104 44.1723 18.336C44.3723 18.568 44.4763 18.876 44.4843 19.26C44.4843 19.612 44.3883 19.928 44.1963 20.208C44.0043 20.48 43.7363 20.696 43.3923 20.856C43.0483 21.016 42.6523 21.096 42.2043 21.096ZM54.7055 14.448L52.6535 21H51.8135L50.0015 15.504L48.1895 21H47.3375L45.2855 14.448H46.1375L47.7695 20.148L49.6055 14.448H50.4455L52.2575 20.16L53.8775 14.448H54.7055ZM58.7186 21.096C58.1026 21.096 57.5466 20.96 57.0506 20.688C56.5626 20.408 56.1746 20.016 55.8866 19.512C55.6066 19 55.4666 18.404 55.4666 17.724C55.4666 17.044 55.6106 16.452 55.8986 15.948C56.1866 15.436 56.5786 15.044 57.0746 14.772C57.5706 14.492 58.1266 14.352 58.7426 14.352C59.3586 14.352 59.9146 14.492 60.4106 14.772C60.9146 15.044 61.3066 15.436 61.5866 15.948C61.8746 16.452 62.0186 17.044 62.0186 17.724C62.0186 18.396 61.8746 18.988 61.5866 19.5C61.2986 20.012 60.9026 20.408 60.3986 20.688C59.8946 20.96 59.3346 21.096 58.7186 21.096ZM58.7186 20.364C59.1506 20.364 59.5506 20.268 59.9186 20.076C60.2866 19.876 60.5826 19.58 60.8066 19.188C61.0386 18.788 61.1546 18.3 61.1546 17.724C61.1546 17.148 61.0426 16.664 60.8186 16.272C60.5946 15.872 60.2986 15.576 59.9306 15.384C59.5626 15.184 59.1626 15.084 58.7306 15.084C58.2986 15.084 57.8986 15.184 57.5306 15.384C57.1626 15.576 56.8666 15.872 56.6426 16.272C56.4266 16.664 56.3186 17.148 56.3186 17.724C56.3186 18.3 56.4266 18.788 56.6426 19.188C56.8666 19.58 57.1586 19.876 57.5186 20.076C57.8866 20.268 58.2866 20.364 58.7186 20.364ZM64.3898 15.612C64.5738 15.204 64.8538 14.888 65.2298 14.664C65.6138 14.44 66.0818 14.328 66.6338 14.328V15.204H66.4058C65.7978 15.204 65.3098 15.368 64.9418 15.696C64.5738 16.024 64.3898 16.572 64.3898 17.34V21H63.5498V14.448H64.3898V15.612ZM67.5135 17.712C67.5135 17.04 67.6495 16.452 67.9215 15.948C68.1935 15.436 68.5655 15.044 69.0375 14.772C69.5175 14.492 70.0575 14.352 70.6575 14.352C71.2335 14.352 71.7535 14.492 72.2175 14.772C72.6815 15.052 73.0215 15.416 73.2375 15.864V12.12H74.0775V21H73.2375V19.536C73.0375 19.992 72.7095 20.368 72.2535 20.664C71.7975 20.952 71.2615 21.096 70.6455 21.096C70.0455 21.096 69.5055 20.956 69.0255 20.676C68.5535 20.396 68.1815 20 67.9095 19.488C67.6455 18.976 67.5135 18.384 67.5135 17.712ZM73.2375 17.724C73.2375 17.196 73.1295 16.732 72.9135 16.332C72.6975 15.932 72.4015 15.624 72.0255 15.408C71.6575 15.192 71.2495 15.084 70.8015 15.084C70.3375 15.084 69.9215 15.188 69.5535 15.396C69.1855 15.604 68.8935 15.908 68.6775 16.308C68.4695 16.7 68.3655 17.168 68.3655 17.712C68.3655 18.248 68.4695 18.72 68.6775 19.128C68.8935 19.528 69.1855 19.836 69.5535 20.052C69.9215 20.26 70.3375 20.364 70.8015 20.364C71.2495 20.364 71.6575 20.256 72.0255 20.04C72.4015 19.824 72.6975 19.516 72.9135 19.116C73.1295 18.716 73.2375 18.252 73.2375 17.724Z" fill="#333333" fill-opacity="0.6"/>
<defs>
<filter id="filter0_i_210_1904" x="0" y="0" width="371" height="37" filterUnits="userSpaceOnUse" color-interpolation-filters="sRGB">
<feFlood flood-opacity="0" result="BackgroundImageFix"/>
<feBlend mode="normal" in="SourceGraphic" in2="BackgroundImageFix" result="shape"/>
<feColorMatrix in="SourceAlpha" type="matrix" values="0 0 0 0 0 0 0 0 0 0 0 0 0 0 0 0 0 0 127 0" result="hardAlpha"/>
<feOffset dy="4"/>
<feGaussianBlur stdDeviation="2"/>
<feComposite in2="hardAlpha" operator="arithmetic" k2="-1" k3="1"/>
<feColorMatrix type="matrix" values="0 0 0 0 0.898039 0 0 0 0 0.898039 0 0 0 0 0.898039 0 0 0 1 0"/>
<feBlend mode="normal" in2="shape" result="effect1_innerShadow_210_1904"/>
</filter>
</defs>
</svg>
