<svg width="113" height="43" viewBox="0 0 113 43" fill="none" xmlns="http://www.w3.org/2000/svg">
<path d="M53.0504 19.9155C54.042 19.4141 56.6202 18.3361 59 18.0353V16.5311C39.3333 14.4002 0 11.7177 0 18.0353C0 24.3529 35.3669 21.9211 53.0504 19.9155Z" fill="#C4C4C4"/>
<path fill-rule="evenodd" clip-rule="evenodd" d="M6.6856 15.979C5.56343 16.51 4.89986 17.1843 4.89986 18.0353C4.89986 18.8805 5.49337 19.5598 6.50701 20.1004C7.52255 20.6421 8.98544 21.0597 10.785 21.3749C14.386 22.0056 19.3668 22.2311 24.8944 22.1966C35.9515 22.1276 49.2179 21.0179 58.0615 20.0149L58.0794 20.0129L58.0954 20.0048C59.0817 19.5061 61.6483 18.4334 64.0124 18.1345L64.0999 18.1235V16.4414L64.0106 16.4317C54.1756 15.3661 39.4221 14.1624 27.1261 14.015C20.9789 13.9414 15.4411 14.1316 11.438 14.7365C9.43755 15.0388 7.81281 15.4457 6.6856 15.979ZM63.8999 16.6209C54.0684 15.558 39.3738 14.3618 27.1237 14.215C20.9792 14.1414 15.4545 14.3319 11.4679 14.9343C9.47362 15.2356 7.8718 15.639 6.77114 16.1598C5.66545 16.683 5.09985 17.3069 5.09985 18.0353C5.09985 18.7695 5.61156 19.3962 6.60113 19.924C7.58879 20.4507 9.0271 20.8639 10.8195 21.1779C14.4024 21.8054 19.3686 22.0311 24.8931 21.9966C35.933 21.9278 49.1814 20.8202 58.0212 19.8182C59.0173 19.3169 61.5418 18.2635 63.8999 17.9475V16.6209Z" fill="black"/>
<g filter="url(#filter0_d_210_1893)">
<path d="M51.8999 17.5C51.8999 27.165 62.408 35 75.3705 35C88.3329 35 108.9 27.165 108.9 17.5C108.9 7.83502 88.3329 0 75.3705 0C62.408 0 51.8999 7.83502 51.8999 17.5Z" fill="#C4C4C4"/>
<path d="M51.9999 17.5C51.9999 22.2937 54.6056 26.6414 58.8341 29.7942C63.0625 32.947 68.9087 34.9 75.3705 34.9C81.8354 34.9 90.2033 32.9452 96.9537 29.7838C100.329 28.2032 103.294 26.3235 105.414 24.2405C107.534 22.1568 108.8 19.8791 108.8 17.5C108.8 15.1209 107.534 12.8432 105.414 10.7595C103.294 8.67648 100.329 6.79678 96.9537 5.21619C90.2033 2.05477 81.8354 0.1 75.3705 0.1C68.9087 0.1 63.0625 2.05302 58.8341 5.2058C54.6056 8.35857 51.9999 12.7063 51.9999 17.5Z" stroke="black" stroke-width="0.2"/>
</g>
<defs>
<filter id="filter0_d_210_1893" x="47.8999" y="0" width="65" height="43" filterUnits="userSpaceOnUse" color-interpolation-filters="sRGB">
<feFlood flood-opacity="0" result="BackgroundImageFix"/>
<feColorMatrix in="SourceAlpha" type="matrix" values="0 0 0 0 0 0 0 0 0 0 0 0 0 0 0 0 0 0 127 0" result="hardAlpha"/>
<feOffset dy="4"/>
<feGaussianBlur stdDeviation="2"/>
<feComposite in2="hardAlpha" operator="out"/>
<feColorMatrix type="matrix" values="0 0 0 0 0.988235 0 0 0 0 0.603922 0 0 0 0 0.388235 0 0 0 0.5 0"/>
<feBlend mode="normal" in2="BackgroundImageFix" result="effect1_dropShadow_210_1893"/>
<feBlend mode="normal" in="SourceGraphic" in2="effect1_dropShadow_210_1893" result="shape"/>
</filter>
</defs>
</svg>
