<svg width="340" height="34" viewBox="0 0 340 34" fill="none" xmlns="http://www.w3.org/2000/svg">
<path d="M5.26832 21.04H11.9883V25H0.13832V3.94H5.26832V21.04ZM22.0552 25.24C20.4152 25.24 18.9352 24.89 17.6152 24.19C16.3152 23.49 15.2852 22.49 14.5252 21.19C13.7852 19.89 13.4152 18.37 13.4152 16.63C13.4152 14.91 13.7952 13.4 14.5552 12.1C15.3152 10.78 16.3552 9.77 17.6752 9.07C18.9952 8.37 20.4752 8.02 22.1152 8.02C23.7552 8.02 25.2352 8.37 26.5552 9.07C27.8752 9.77 28.9152 10.78 29.6752 12.1C30.4352 13.4 30.8152 14.91 30.8152 16.63C30.8152 18.35 30.4252 19.87 29.6452 21.19C28.8852 22.49 27.8352 23.49 26.4952 24.19C25.1752 24.89 23.6952 25.24 22.0552 25.24ZM22.0552 20.8C23.0352 20.8 23.8652 20.44 24.5452 19.72C25.2452 19 25.5952 17.97 25.5952 16.63C25.5952 15.29 25.2552 14.26 24.5752 13.54C23.9152 12.82 23.0952 12.46 22.1152 12.46C21.1152 12.46 20.2852 12.82 19.6252 13.54C18.9652 14.24 18.6352 15.27 18.6352 16.63C18.6352 17.97 18.9552 19 19.5952 19.72C20.2552 20.44 21.0752 20.8 22.0552 20.8ZM39.8968 8.02C41.0768 8.02 42.1068 8.26 42.9868 8.74C43.8868 9.22 44.5768 9.85 45.0568 10.63V8.26H50.1868V24.97C50.1868 26.51 49.8768 27.9 49.2568 29.14C48.6568 30.4 47.7268 31.4 46.4668 32.14C45.2268 32.88 43.6768 33.25 41.8168 33.25C39.3368 33.25 37.3268 32.66 35.7868 31.48C34.2468 30.32 33.3668 28.74 33.1468 26.74H38.2168C38.3768 27.38 38.7568 27.88 39.3568 28.24C39.9568 28.62 40.6968 28.81 41.5768 28.81C42.6368 28.81 43.4768 28.5 44.0968 27.88C44.7368 27.28 45.0568 26.31 45.0568 24.97V22.6C44.5568 23.38 43.8668 24.02 42.9868 24.52C42.1068 25 41.0768 25.24 39.8968 25.24C38.5168 25.24 37.2668 24.89 36.1468 24.19C35.0268 23.47 34.1368 22.46 33.4768 21.16C32.8368 19.84 32.5168 18.32 32.5168 16.6C32.5168 14.88 32.8368 13.37 33.4768 12.07C34.1368 10.77 35.0268 9.77 36.1468 9.07C37.2668 8.37 38.5168 8.02 39.8968 8.02ZM45.0568 16.63C45.0568 15.35 44.6968 14.34 43.9768 13.6C43.2768 12.86 42.4168 12.49 41.3968 12.49C40.3768 12.49 39.5068 12.86 38.7868 13.6C38.0868 14.32 37.7368 15.32 37.7368 16.6C37.7368 17.88 38.0868 18.9 38.7868 19.66C39.5068 20.4 40.3768 20.77 41.3968 20.77C42.4168 20.77 43.2768 20.4 43.9768 19.66C44.6968 18.92 45.0568 17.91 45.0568 16.63ZM62.8355 6.52C61.9355 6.52 61.1955 6.26 60.6155 5.74C60.0555 5.2 59.7755 4.54 59.7755 3.76C59.7755 2.96 60.0555 2.3 60.6155 1.78C61.1955 1.24 61.9355 0.969998 62.8355 0.969998C63.7155 0.969998 64.4355 1.24 64.9955 1.78C65.5755 2.3 65.8655 2.96 65.8655 3.76C65.8655 4.54 65.5755 5.2 64.9955 5.74C64.4355 6.26 63.7155 6.52 62.8355 6.52ZM65.3855 8.26V25H60.2555V8.26H65.3855ZM79.3032 8.08C81.2632 8.08 82.8232 8.72 83.9832 10C85.1632 11.26 85.7532 13 85.7532 15.22V25H80.6532V15.91C80.6532 14.79 80.3632 13.92 79.7832 13.3C79.2032 12.68 78.4232 12.37 77.4432 12.37C76.4632 12.37 75.6832 12.68 75.1032 13.3C74.5232 13.92 74.2332 14.79 74.2332 15.91V25H69.1032V8.26H74.2332V10.48C74.7532 9.74 75.4532 9.16 76.3332 8.74C77.2132 8.3 78.2032 8.08 79.3032 8.08ZM98.648 20.65V25H96.038C94.178 25 92.728 24.55 91.688 23.65C90.648 22.73 90.128 21.24 90.128 19.18V12.52H88.088V8.26H90.128V4.18H95.258V8.26H98.618V12.52H95.258V19.24C95.258 19.74 95.378 20.1 95.618 20.32C95.858 20.54 96.258 20.65 96.818 20.65H98.648ZM109.126 25.24C107.486 25.24 106.006 24.89 104.686 24.19C103.386 23.49 102.356 22.49 101.596 21.19C100.856 19.89 100.486 18.37 100.486 16.63C100.486 14.91 100.866 13.4 101.626 12.1C102.386 10.78 103.426 9.77 104.746 9.07C106.066 8.37 107.546 8.02 109.186 8.02C110.826 8.02 112.306 8.37 113.626 9.07C114.946 9.77 115.986 10.78 116.746 12.1C117.506 13.4 117.886 14.91 117.886 16.63C117.886 18.35 117.496 19.87 116.716 21.19C115.956 22.49 114.906 23.49 113.566 24.19C112.246 24.89 110.766 25.24 109.126 25.24ZM109.126 20.8C110.106 20.8 110.936 20.44 111.616 19.72C112.316 19 112.666 17.97 112.666 16.63C112.666 15.29 112.326 14.26 111.646 13.54C110.986 12.82 110.166 12.46 109.186 12.46C108.186 12.46 107.356 12.82 106.696 13.54C106.036 14.24 105.706 15.27 105.706 16.63C105.706 17.97 106.026 19 106.666 19.72C107.326 20.44 108.146 20.8 109.126 20.8ZM144.064 8.26L133.564 32.95H128.044L131.884 24.43L125.074 8.26H130.804L134.674 18.73L138.514 8.26H144.064ZM153.54 25.24C151.9 25.24 150.42 24.89 149.1 24.19C147.8 23.49 146.77 22.49 146.01 21.19C145.27 19.89 144.9 18.37 144.9 16.63C144.9 14.91 145.28 13.4 146.04 12.1C146.8 10.78 147.84 9.77 149.16 9.07C150.48 8.37 151.96 8.02 153.6 8.02C155.24 8.02 156.72 8.37 158.04 9.07C159.36 9.77 160.4 10.78 161.16 12.1C161.92 13.4 162.3 14.91 162.3 16.63C162.3 18.35 161.91 19.87 161.13 21.19C160.37 22.49 159.32 23.49 157.98 24.19C156.66 24.89 155.18 25.24 153.54 25.24ZM153.54 20.8C154.52 20.8 155.35 20.44 156.03 19.72C156.73 19 157.08 17.97 157.08 16.63C157.08 15.29 156.74 14.26 156.06 13.54C155.4 12.82 154.58 12.46 153.6 12.46C152.6 12.46 151.77 12.82 151.11 13.54C150.45 14.24 150.12 15.27 150.12 16.63C150.12 17.97 150.44 19 151.08 19.72C151.74 20.44 152.56 20.8 153.54 20.8ZM181.551 8.26V25H176.421V22.72C175.901 23.46 175.191 24.06 174.291 24.52C173.411 24.96 172.431 25.18 171.351 25.18C170.071 25.18 168.941 24.9 167.961 24.34C166.981 23.76 166.221 22.93 165.681 21.85C165.141 20.77 164.871 19.5 164.871 18.04V8.26H169.971V17.35C169.971 18.47 170.261 19.34 170.841 19.96C171.421 20.58 172.201 20.89 173.181 20.89C174.181 20.89 174.971 20.58 175.551 19.96C176.131 19.34 176.421 18.47 176.421 17.35V8.26H181.551ZM190.366 11.05C190.966 10.13 191.716 9.41 192.616 8.89C193.516 8.35 194.516 8.08 195.616 8.08V13.51H194.206C192.926 13.51 191.966 13.79 191.326 14.35C190.686 14.89 190.366 15.85 190.366 17.23V25H185.236V8.26H190.366V11.05ZM203.405 16.6C203.405 14.88 203.725 13.37 204.365 12.07C205.025 10.77 205.915 9.77 207.035 9.07C208.155 8.37 209.405 8.02 210.785 8.02C211.965 8.02 212.995 8.26 213.875 8.74C214.775 9.22 215.465 9.85 215.945 10.63V8.26H221.075V25H215.945V22.63C215.445 23.41 214.745 24.04 213.845 24.52C212.965 25 211.935 25.24 210.755 25.24C209.395 25.24 208.155 24.89 207.035 24.19C205.915 23.47 205.025 22.46 204.365 21.16C203.725 19.84 203.405 18.32 203.405 16.6ZM215.945 16.63C215.945 15.35 215.585 14.34 214.865 13.6C214.165 12.86 213.305 12.49 212.285 12.49C211.265 12.49 210.395 12.86 209.675 13.6C208.975 14.32 208.625 15.32 208.625 16.6C208.625 17.88 208.975 18.9 209.675 19.66C210.395 20.4 211.265 20.77 212.285 20.77C213.305 20.77 214.165 20.4 214.865 19.66C215.585 18.92 215.945 17.91 215.945 16.63ZM223.767 16.63C223.767 14.89 224.117 13.37 224.817 12.07C225.537 10.77 226.527 9.77 227.787 9.07C229.067 8.37 230.527 8.02 232.167 8.02C234.267 8.02 236.017 8.57 237.417 9.67C238.837 10.77 239.767 12.32 240.207 14.32H234.747C234.287 13.04 233.397 12.4 232.077 12.4C231.137 12.4 230.387 12.77 229.827 13.51C229.267 14.23 228.987 15.27 228.987 16.63C228.987 17.99 229.267 19.04 229.827 19.78C230.387 20.5 231.137 20.86 232.077 20.86C233.397 20.86 234.287 20.22 234.747 18.94H240.207C239.767 20.9 238.837 22.44 237.417 23.56C235.997 24.68 234.247 25.24 232.167 25.24C230.527 25.24 229.067 24.89 227.787 24.19C226.527 23.49 225.537 22.49 224.817 21.19C224.117 19.89 223.767 18.37 223.767 16.63ZM241.931 16.63C241.931 14.89 242.281 13.37 242.981 12.07C243.701 10.77 244.691 9.77 245.951 9.07C247.231 8.37 248.691 8.02 250.331 8.02C252.431 8.02 254.181 8.57 255.581 9.67C257.001 10.77 257.931 12.32 258.371 14.32H252.911C252.451 13.04 251.561 12.4 250.241 12.4C249.301 12.4 248.551 12.77 247.991 13.51C247.431 14.23 247.151 15.27 247.151 16.63C247.151 17.99 247.431 19.04 247.991 19.78C248.551 20.5 249.301 20.86 250.241 20.86C251.561 20.86 252.451 20.22 252.911 18.94H258.371C257.931 20.9 257.001 22.44 255.581 23.56C254.161 24.68 252.411 25.24 250.331 25.24C248.691 25.24 247.231 24.89 245.951 24.19C244.691 23.49 243.701 22.49 242.981 21.19C242.281 19.89 241.931 18.37 241.931 16.63ZM268.735 25.24C267.095 25.24 265.615 24.89 264.295 24.19C262.995 23.49 261.965 22.49 261.205 21.19C260.465 19.89 260.095 18.37 260.095 16.63C260.095 14.91 260.475 13.4 261.235 12.1C261.995 10.78 263.035 9.77 264.355 9.07C265.675 8.37 267.155 8.02 268.795 8.02C270.435 8.02 271.915 8.37 273.235 9.07C274.555 9.77 275.595 10.78 276.355 12.1C277.115 13.4 277.495 14.91 277.495 16.63C277.495 18.35 277.105 19.87 276.325 21.19C275.565 22.49 274.515 23.49 273.175 24.19C271.855 24.89 270.375 25.24 268.735 25.24ZM268.735 20.8C269.715 20.8 270.545 20.44 271.225 19.72C271.925 19 272.275 17.97 272.275 16.63C272.275 15.29 271.935 14.26 271.255 13.54C270.595 12.82 269.775 12.46 268.795 12.46C267.795 12.46 266.965 12.82 266.305 13.54C265.645 14.24 265.315 15.27 265.315 16.63C265.315 17.97 265.635 19 266.275 19.72C266.935 20.44 267.755 20.8 268.735 20.8ZM296.746 8.26V25H291.616V22.72C291.096 23.46 290.386 24.06 289.486 24.52C288.606 24.96 287.626 25.18 286.546 25.18C285.266 25.18 284.136 24.9 283.156 24.34C282.176 23.76 281.416 22.93 280.876 21.85C280.336 20.77 280.066 19.5 280.066 18.04V8.26H285.166V17.35C285.166 18.47 285.456 19.34 286.036 19.96C286.616 20.58 287.396 20.89 288.376 20.89C289.376 20.89 290.166 20.58 290.746 19.96C291.326 19.34 291.616 18.47 291.616 17.35V8.26H296.746ZM310.631 8.08C312.591 8.08 314.151 8.72 315.311 10C316.491 11.26 317.081 13 317.081 15.22V25H311.981V15.91C311.981 14.79 311.691 13.92 311.111 13.3C310.531 12.68 309.751 12.37 308.771 12.37C307.791 12.37 307.011 12.68 306.431 13.3C305.851 13.92 305.561 14.79 305.561 15.91V25H300.431V8.26H305.561V10.48C306.081 9.74 306.781 9.16 307.661 8.74C308.541 8.3 309.531 8.08 310.631 8.08ZM329.976 20.65V25H327.366C325.506 25 324.056 24.55 323.016 23.65C321.976 22.73 321.456 21.24 321.456 19.18V12.52H319.416V8.26H321.456V4.18H326.586V8.26H329.946V12.52H326.586V19.24C326.586 19.74 326.706 20.1 326.946 20.32C327.186 20.54 327.586 20.65 328.146 20.65H329.976ZM339.584 3.19L338.984 17.56H334.634L334.034 3.19H339.584ZM336.884 25.24C335.984 25.24 335.244 24.98 334.664 24.46C334.104 23.92 333.824 23.26 333.824 22.48C333.824 21.68 334.104 21.01 334.664 20.47C335.244 19.93 335.984 19.66 336.884 19.66C337.764 19.66 338.484 19.93 339.044 20.47C339.624 21.01 339.914 21.68 339.914 22.48C339.914 23.26 339.624 23.92 339.044 24.46C338.484 24.98 337.764 25.24 336.884 25.24Z" fill="black"/>
</svg>
