<svg width="57" height="10" viewBox="0 0 57 10" fill="none" xmlns="http://www.w3.org/2000/svg">
<path d="M6.324 3.024C6.324 3.744 6.088 4.324 5.616 4.764C5.144 5.204 4.436 5.424 3.492 5.424H1.8V9H0.96V0.611999H3.492C4.428 0.611999 5.132 0.831999 5.604 1.272C6.084 1.712 6.324 2.296 6.324 3.024ZM3.492 4.704C4.804 4.704 5.46 4.144 5.46 3.024C5.46 2.464 5.304 2.04 4.992 1.752C4.68 1.464 4.18 1.32 3.492 1.32H1.8V4.704H3.492ZM7.34944 5.712C7.34944 5.04 7.48144 4.452 7.74544 3.948C8.01744 3.436 8.38944 3.044 8.86144 2.772C9.34144 2.492 9.88144 2.352 10.4814 2.352C11.1054 2.352 11.6414 2.496 12.0894 2.784C12.5454 3.072 12.8734 3.44 13.0734 3.888V2.448H13.9134V9H13.0734V7.548C12.8654 7.996 12.5334 8.368 12.0774 8.664C11.6294 8.952 11.0934 9.096 10.4694 9.096C9.87744 9.096 9.34144 8.956 8.86144 8.676C8.38944 8.396 8.01744 8 7.74544 7.488C7.48144 6.976 7.34944 6.384 7.34944 5.712ZM13.0734 5.724C13.0734 5.196 12.9654 4.732 12.7494 4.332C12.5334 3.932 12.2374 3.624 11.8614 3.408C11.4934 3.192 11.0854 3.084 10.6374 3.084C10.1734 3.084 9.75744 3.188 9.38944 3.396C9.02144 3.604 8.72944 3.908 8.51344 4.308C8.30544 4.7 8.20144 5.168 8.20144 5.712C8.20144 6.248 8.30544 6.72 8.51344 7.128C8.72944 7.528 9.02144 7.836 9.38944 8.052C9.75744 8.26 10.1734 8.364 10.6374 8.364C11.0854 8.364 11.4934 8.256 11.8614 8.04C12.2374 7.824 12.5334 7.516 12.7494 7.116C12.9654 6.716 13.0734 6.252 13.0734 5.724ZM18.0871 9.096C17.3351 9.096 16.7191 8.924 16.2391 8.58C15.7671 8.228 15.5031 7.752 15.4471 7.152H16.3111C16.3511 7.52 16.5231 7.82 16.8271 8.052C17.1391 8.276 17.5551 8.388 18.0751 8.388C18.5311 8.388 18.8871 8.28 19.1431 8.064C19.4071 7.848 19.5391 7.58 19.5391 7.26C19.5391 7.036 19.4671 6.852 19.3231 6.708C19.1791 6.564 18.9951 6.452 18.7711 6.372C18.5551 6.284 18.2591 6.192 17.8831 6.096C17.3951 5.968 16.9991 5.84 16.6951 5.712C16.3911 5.584 16.1311 5.396 15.9151 5.148C15.7071 4.892 15.6031 4.552 15.6031 4.128C15.6031 3.808 15.6991 3.512 15.8911 3.24C16.0831 2.968 16.3551 2.752 16.7071 2.592C17.0591 2.432 17.4591 2.352 17.9071 2.352C18.6111 2.352 19.1791 2.532 19.6111 2.892C20.0431 3.244 20.2751 3.732 20.3071 4.356H19.4671C19.4431 3.972 19.2911 3.664 19.0111 3.432C18.7391 3.192 18.3631 3.072 17.8831 3.072C17.4591 3.072 17.1151 3.172 16.8511 3.372C16.5871 3.572 16.4551 3.82 16.4551 4.116C16.4551 4.372 16.5311 4.584 16.6831 4.752C16.8431 4.912 17.0391 5.04 17.2711 5.136C17.5031 5.224 17.8151 5.324 18.2071 5.436C18.6791 5.564 19.0551 5.688 19.3351 5.808C19.6151 5.928 19.8551 6.104 20.0551 6.336C20.2551 6.568 20.3591 6.876 20.3671 7.26C20.3671 7.612 20.2711 7.928 20.0791 8.208C19.8871 8.48 19.6191 8.696 19.2751 8.856C18.9311 9.016 18.5351 9.096 18.0871 9.096ZM24.2043 9.096C23.4523 9.096 22.8363 8.924 22.3563 8.58C21.8843 8.228 21.6203 7.752 21.5643 7.152H22.4283C22.4683 7.52 22.6403 7.82 22.9443 8.052C23.2563 8.276 23.6723 8.388 24.1923 8.388C24.6483 8.388 25.0043 8.28 25.2603 8.064C25.5243 7.848 25.6563 7.58 25.6563 7.26C25.6563 7.036 25.5843 6.852 25.4403 6.708C25.2963 6.564 25.1123 6.452 24.8883 6.372C24.6723 6.284 24.3763 6.192 24.0003 6.096C23.5123 5.968 23.1163 5.84 22.8123 5.712C22.5083 5.584 22.2483 5.396 22.0323 5.148C21.8243 4.892 21.7203 4.552 21.7203 4.128C21.7203 3.808 21.8163 3.512 22.0083 3.24C22.2003 2.968 22.4723 2.752 22.8243 2.592C23.1763 2.432 23.5763 2.352 24.0243 2.352C24.7283 2.352 25.2963 2.532 25.7283 2.892C26.1603 3.244 26.3923 3.732 26.4243 4.356H25.5843C25.5603 3.972 25.4083 3.664 25.1283 3.432C24.8563 3.192 24.4803 3.072 24.0003 3.072C23.5763 3.072 23.2323 3.172 22.9683 3.372C22.7043 3.572 22.5723 3.82 22.5723 4.116C22.5723 4.372 22.6483 4.584 22.8003 4.752C22.9603 4.912 23.1563 5.04 23.3883 5.136C23.6203 5.224 23.9323 5.324 24.3243 5.436C24.7963 5.564 25.1723 5.688 25.4523 5.808C25.7323 5.928 25.9723 6.104 26.1723 6.336C26.3723 6.568 26.4763 6.876 26.4843 7.26C26.4843 7.612 26.3883 7.928 26.1963 8.208C26.0043 8.48 25.7363 8.696 25.3923 8.856C25.0483 9.016 24.6523 9.096 24.2043 9.096ZM36.7055 2.448L34.6535 9H33.8135L32.0015 3.504L30.1895 9H29.3375L27.2855 2.448H28.1375L29.7695 8.148L31.6055 2.448H32.4455L34.2575 8.16L35.8775 2.448H36.7055ZM40.7186 9.096C40.1026 9.096 39.5466 8.96 39.0506 8.688C38.5626 8.408 38.1746 8.016 37.8866 7.512C37.6066 7 37.4666 6.404 37.4666 5.724C37.4666 5.044 37.6106 4.452 37.8986 3.948C38.1866 3.436 38.5786 3.044 39.0746 2.772C39.5706 2.492 40.1266 2.352 40.7426 2.352C41.3586 2.352 41.9146 2.492 42.4106 2.772C42.9146 3.044 43.3066 3.436 43.5866 3.948C43.8746 4.452 44.0186 5.044 44.0186 5.724C44.0186 6.396 43.8746 6.988 43.5866 7.5C43.2986 8.012 42.9026 8.408 42.3986 8.688C41.8946 8.96 41.3346 9.096 40.7186 9.096ZM40.7186 8.364C41.1506 8.364 41.5506 8.268 41.9186 8.076C42.2866 7.876 42.5826 7.58 42.8066 7.188C43.0386 6.788 43.1546 6.3 43.1546 5.724C43.1546 5.148 43.0426 4.664 42.8186 4.272C42.5946 3.872 42.2986 3.576 41.9306 3.384C41.5626 3.184 41.1626 3.084 40.7306 3.084C40.2986 3.084 39.8986 3.184 39.5306 3.384C39.1626 3.576 38.8666 3.872 38.6426 4.272C38.4266 4.664 38.3186 5.148 38.3186 5.724C38.3186 6.3 38.4266 6.788 38.6426 7.188C38.8666 7.58 39.1586 7.876 39.5186 8.076C39.8866 8.268 40.2866 8.364 40.7186 8.364ZM46.3898 3.612C46.5738 3.204 46.8538 2.888 47.2298 2.664C47.6138 2.44 48.0818 2.328 48.6338 2.328V3.204H48.4058C47.7978 3.204 47.3098 3.368 46.9418 3.696C46.5738 4.024 46.3898 4.572 46.3898 5.34V9H45.5498V2.448H46.3898V3.612ZM49.5135 5.712C49.5135 5.04 49.6495 4.452 49.9215 3.948C50.1935 3.436 50.5655 3.044 51.0375 2.772C51.5175 2.492 52.0575 2.352 52.6575 2.352C53.2335 2.352 53.7535 2.492 54.2175 2.772C54.6815 3.052 55.0215 3.416 55.2375 3.864V0.12H56.0775V9H55.2375V7.536C55.0375 7.992 54.7095 8.368 54.2535 8.664C53.7975 8.952 53.2615 9.096 52.6455 9.096C52.0455 9.096 51.5055 8.956 51.0255 8.676C50.5535 8.396 50.1815 8 49.9095 7.488C49.6455 6.976 49.5135 6.384 49.5135 5.712ZM55.2375 5.724C55.2375 5.196 55.1295 4.732 54.9135 4.332C54.6975 3.932 54.4015 3.624 54.0255 3.408C53.6575 3.192 53.2495 3.084 52.8015 3.084C52.3375 3.084 51.9215 3.188 51.5535 3.396C51.1855 3.604 50.8935 3.908 50.6775 4.308C50.4695 4.7 50.3655 5.168 50.3655 5.712C50.3655 6.248 50.4695 6.72 50.6775 7.128C50.8935 7.528 51.1855 7.836 51.5535 8.052C51.9215 8.26 52.3375 8.364 52.8015 8.364C53.2495 8.364 53.6575 8.256 54.0255 8.04C54.4015 7.824 54.6975 7.516 54.9135 7.116C55.1295 6.716 55.2375 6.252 55.2375 5.724Z" fill="#333333" fill-opacity="0.6"/>
</svg>
