<svg width="226" height="71" viewBox="0 0 226 71" fill="none" xmlns="http://www.w3.org/2000/svg">
<g filter="url(#filter0_d_204_3638)">
<rect x="4" y="28" width="218" height="35" rx="17.5" fill="#FC9A63"/>
<path d="M97.9601 48.416H100.648V50H95.9081V41.576H97.9601V48.416ZM104.675 50.096C104.019 50.096 103.427 49.956 102.899 49.676C102.379 49.396 101.967 48.996 101.663 48.476C101.367 47.956 101.219 47.348 101.219 46.652C101.219 45.964 101.371 45.36 101.675 44.84C101.979 44.312 102.395 43.908 102.923 43.628C103.451 43.348 104.043 43.208 104.699 43.208C105.355 43.208 105.947 43.348 106.475 43.628C107.003 43.908 107.419 44.312 107.723 44.84C108.027 45.36 108.179 45.964 108.179 46.652C108.179 47.34 108.023 47.948 107.711 48.476C107.407 48.996 106.987 49.396 106.451 49.676C105.923 49.956 105.331 50.096 104.675 50.096ZM104.675 48.32C105.067 48.32 105.399 48.176 105.671 47.888C105.951 47.6 106.091 47.188 106.091 46.652C106.091 46.116 105.955 45.704 105.683 45.416C105.419 45.128 105.091 44.984 104.699 44.984C104.299 44.984 103.967 45.128 103.703 45.416C103.439 45.696 103.307 46.108 103.307 46.652C103.307 47.188 103.435 47.6 103.691 47.888C103.955 48.176 104.283 48.32 104.675 48.32ZM111.811 43.208C112.283 43.208 112.695 43.304 113.047 43.496C113.407 43.688 113.683 43.94 113.875 44.252V43.304H115.927V49.988C115.927 50.604 115.803 51.16 115.555 51.656C115.315 52.16 114.943 52.56 114.439 52.856C113.943 53.152 113.323 53.3 112.579 53.3C111.587 53.3 110.783 53.064 110.167 52.592C109.551 52.128 109.199 51.496 109.111 50.696H111.139C111.203 50.952 111.355 51.152 111.595 51.296C111.835 51.448 112.131 51.524 112.483 51.524C112.907 51.524 113.243 51.4 113.491 51.152C113.747 50.912 113.875 50.524 113.875 49.988V49.04C113.675 49.352 113.399 49.608 113.047 49.808C112.695 50 112.283 50.096 111.811 50.096C111.259 50.096 110.759 49.956 110.311 49.676C109.863 49.388 109.507 48.984 109.243 48.464C108.987 47.936 108.859 47.328 108.859 46.64C108.859 45.952 108.987 45.348 109.243 44.828C109.507 44.308 109.863 43.908 110.311 43.628C110.759 43.348 111.259 43.208 111.811 43.208ZM113.875 46.652C113.875 46.14 113.731 45.736 113.443 45.44C113.163 45.144 112.819 44.996 112.411 44.996C112.003 44.996 111.655 45.144 111.367 45.44C111.087 45.728 110.947 46.128 110.947 46.64C110.947 47.152 111.087 47.56 111.367 47.864C111.655 48.16 112.003 48.308 112.411 48.308C112.819 48.308 113.163 48.16 113.443 47.864C113.731 47.568 113.875 47.164 113.875 46.652ZM120.987 42.608C120.627 42.608 120.331 42.504 120.099 42.296C119.875 42.08 119.763 41.816 119.763 41.504C119.763 41.184 119.875 40.92 120.099 40.712C120.331 40.496 120.627 40.388 120.987 40.388C121.339 40.388 121.627 40.496 121.851 40.712C122.083 40.92 122.199 41.184 122.199 41.504C122.199 41.816 122.083 42.08 121.851 42.296C121.627 42.504 121.339 42.608 120.987 42.608ZM122.007 43.304V50H119.955V43.304H122.007ZM127.574 43.232C128.358 43.232 128.982 43.488 129.446 44C129.918 44.504 130.154 45.2 130.154 46.088V50H128.114V46.364C128.114 45.916 127.998 45.568 127.766 45.32C127.534 45.072 127.222 44.948 126.83 44.948C126.438 44.948 126.126 45.072 125.894 45.32C125.662 45.568 125.546 45.916 125.546 46.364V50H123.494V43.304H125.546V44.192C125.754 43.896 126.034 43.664 126.386 43.496C126.738 43.32 127.134 43.232 127.574 43.232Z" fill="black"/>
</g>
<defs>
<filter id="filter0_d_204_3638" x="0" y="0" width="226" height="77" filterUnits="userSpaceOnUse" color-interpolation-filters="sRGB">
<feFlood flood-opacity="0" result="BackgroundImageFix"/>
<feColorMatrix in="SourceAlpha" type="matrix" values="0 0 0 0 0 0 0 0 0 0 0 0 0 0 0 0 0 0 127 0" result="hardAlpha"/>
<feOffset dy="4"/>
<feGaussianBlur stdDeviation="2"/>
<feComposite in2="hardAlpha" operator="out"/>
<feColorMatrix type="matrix" values="0 0 0 0 0 0 0 0 0 0 0 0 0 0 0 0 0 0 0.25 0"/>
<feBlend mode="normal" in2="BackgroundImageFix" result="effect1_dropShadow_204_3638"/>
<feBlend mode="normal" in="SourceGraphic" in2="effect1_dropShadow_204_3638" result="shape"/>
</filter>
</defs>
</svg>
