<svg width="299" height="321" viewBox="0 0 299 321" fill="none" xmlns="http://www.w3.org/2000/svg">
<g filter="url(#filter0_dddd_264_1578)">
<g clip-path="url(#clip0_264_1578)">
<rect x="96" y="67" width="91" height="100" rx="10" fill="white"/>
<rect x="95.5" y="66.5" width="92" height="41" fill="#F5F5F5"/>
<rect x="95.5" y="66.5" width="92" height="41" stroke="black"/>
<path d="M124.67 82.5455V92H123.359L118.553 85.0661H118.465V92H117.039V82.5455H118.359L123.169 89.4886H123.257V82.5455H124.67ZM128.703 92.157C128.254 92.157 127.848 92.0739 127.485 91.9077C127.121 91.7384 126.834 91.4937 126.621 91.1737C126.412 90.8536 126.307 90.4612 126.307 89.9964C126.307 89.5964 126.384 89.267 126.538 89.0085C126.692 88.75 126.9 88.5453 127.161 88.3945C127.423 88.2437 127.715 88.1299 128.039 88.0529C128.362 87.976 128.691 87.9175 129.027 87.8775C129.451 87.8282 129.796 87.7882 130.061 87.7575C130.325 87.7236 130.518 87.6697 130.638 87.5959C130.758 87.522 130.818 87.402 130.818 87.2358V87.2035C130.818 86.8003 130.704 86.4879 130.476 86.2663C130.251 86.0447 129.916 85.9339 129.47 85.9339C129.005 85.9339 128.639 86.037 128.371 86.2433C128.106 86.4464 127.923 86.6726 127.822 86.9219L126.524 86.6264C126.678 86.1955 126.903 85.8478 127.198 85.5831C127.497 85.3153 127.84 85.1214 128.228 85.0014C128.616 84.8783 129.023 84.8168 129.451 84.8168C129.734 84.8168 130.034 84.8506 130.351 84.9183C130.672 84.983 130.97 85.103 131.247 85.2784C131.527 85.4538 131.756 85.7047 131.935 86.0309C132.113 86.354 132.203 86.7741 132.203 87.2912V92H130.855V91.0305H130.799C130.71 91.209 130.576 91.3845 130.398 91.5568C130.219 91.7292 129.99 91.8723 129.71 91.9862C129.43 92.1 129.094 92.157 128.703 92.157ZM129.003 91.049C129.385 91.049 129.711 90.9736 129.982 90.8228C130.256 90.672 130.464 90.475 130.605 90.2319C130.75 89.9857 130.822 89.7225 130.822 89.4425V88.5284C130.773 88.5777 130.678 88.6238 130.536 88.6669C130.398 88.7069 130.239 88.7423 130.061 88.7731C129.882 88.8008 129.708 88.8269 129.539 88.8516C129.37 88.8731 129.228 88.8916 129.114 88.907C128.847 88.9408 128.602 88.9978 128.38 89.0778C128.162 89.1578 127.986 89.2732 127.854 89.424C127.725 89.5717 127.66 89.7687 127.66 90.0149C127.66 90.3565 127.786 90.6151 128.039 90.7905C128.291 90.9628 128.613 91.049 129.003 91.049ZM134.041 92V84.9091H135.366V86.0632H135.454C135.602 85.6723 135.843 85.3677 136.179 85.1491C136.514 84.9276 136.916 84.8168 137.384 84.8168C137.857 84.8168 138.254 84.9276 138.575 85.1491C138.898 85.3707 139.136 85.6754 139.29 86.0632H139.364C139.533 85.6847 139.803 85.383 140.172 85.1584C140.541 84.9306 140.981 84.8168 141.492 84.8168C142.135 84.8168 142.66 85.0183 143.066 85.4215C143.476 85.8247 143.68 86.4325 143.68 87.245V92H142.3V87.3743C142.3 86.8942 142.169 86.5464 141.908 86.331C141.646 86.1155 141.334 86.0078 140.971 86.0078C140.521 86.0078 140.172 86.1463 139.923 86.4233C139.673 86.6972 139.549 87.0496 139.549 87.4805V92H138.173V87.2866C138.173 86.9019 138.053 86.5926 137.813 86.3587C137.573 86.1248 137.26 86.0078 136.876 86.0078C136.614 86.0078 136.373 86.0771 136.151 86.2156C135.932 86.351 135.755 86.5402 135.62 86.7834C135.488 87.0265 135.422 87.3081 135.422 87.6282V92H134.041ZM148.587 92.1431C147.888 92.1431 147.286 91.9938 146.782 91.6953C146.28 91.3937 145.892 90.9705 145.618 90.4258C145.347 89.878 145.212 89.2363 145.212 88.5007C145.212 87.7744 145.347 87.1342 145.618 86.5803C145.892 86.0263 146.274 85.5939 146.763 85.283C147.255 84.9722 147.831 84.8168 148.49 84.8168C148.89 84.8168 149.277 84.8829 149.653 85.0153C150.028 85.1476 150.365 85.3554 150.664 85.6385C150.963 85.9216 151.198 86.2894 151.37 86.7418C151.543 87.1912 151.629 87.7375 151.629 88.3807V88.87H145.992V87.8359H150.276C150.276 87.4728 150.202 87.1512 150.055 86.8711C149.907 86.5879 149.699 86.3648 149.431 86.2017C149.167 86.0386 148.856 85.957 148.499 85.957C148.111 85.957 147.773 86.0524 147.483 86.2433C147.197 86.431 146.975 86.6772 146.818 86.9819C146.665 87.2835 146.588 87.6113 146.588 87.9652V88.7731C146.588 89.247 146.671 89.6502 146.837 89.9826C147.006 90.315 147.242 90.5689 147.543 90.7443C147.845 90.9167 148.197 91.0028 148.6 91.0028C148.862 91.0028 149.101 90.9659 149.316 90.892C149.531 90.8151 149.718 90.7012 149.875 90.5504C150.032 90.3996 150.152 90.2134 150.235 89.9918L151.541 90.2273C151.436 90.612 151.249 90.949 150.978 91.2383C150.71 91.5245 150.373 91.7476 149.967 91.9077C149.564 92.0646 149.104 92.1431 148.587 92.1431Z" fill="#0F1419"/>
<rect x="95.5" y="106.5" width="92" height="61" fill="white"/>
<rect x="95.5" y="106.5" width="92" height="61" stroke="#E1CFFF"/>
<path d="M117.533 142H116.332L119.804 132.545H120.986L124.457 142H123.257L120.432 134.041H120.358L117.533 142ZM117.976 138.307H122.814V139.322H117.976V138.307ZM125.93 142V132.545H129.125C129.866 132.545 130.473 132.679 130.944 132.947C131.417 133.212 131.768 133.57 131.996 134.023C132.224 134.475 132.338 134.98 132.338 135.537C132.338 136.094 132.224 136.6 131.996 137.056C131.771 137.511 131.424 137.874 130.953 138.145C130.482 138.413 129.879 138.547 129.143 138.547H126.853V137.531H129.106C129.614 137.531 130.022 137.444 130.33 137.268C130.637 137.093 130.86 136.856 130.999 136.557C131.141 136.256 131.211 135.915 131.211 135.537C131.211 135.158 131.141 134.82 130.999 134.521C130.86 134.223 130.636 133.989 130.325 133.82C130.014 133.647 129.602 133.561 129.088 133.561H127.075V142H125.93ZM134.182 142V132.545H137.377C138.118 132.545 138.725 132.679 139.195 132.947C139.669 133.212 140.02 133.57 140.248 134.023C140.476 134.475 140.59 134.98 140.59 135.537C140.59 136.094 140.476 136.6 140.248 137.056C140.023 137.511 139.676 137.874 139.205 138.145C138.734 138.413 138.131 138.547 137.395 138.547H135.105V137.531H137.358C137.866 137.531 138.274 137.444 138.581 137.268C138.889 137.093 139.112 136.856 139.251 136.557C139.392 136.256 139.463 135.915 139.463 135.537C139.463 135.158 139.392 134.82 139.251 134.521C139.112 134.223 138.888 133.989 138.577 133.82C138.266 133.647 137.854 133.561 137.34 133.561H135.327V142H134.182ZM142.434 142V132.545H143.579V140.984H147.974V142H142.434ZM149.746 142V132.545H155.452V133.561H150.891V136.756H155.157V137.771H150.891V140.984H155.526V142H149.746Z" fill="#333333"/>
</g>
</g>
<defs>
<filter id="filter0_dddd_264_1578" x="-16" y="0" width="315" height="324" filterUnits="userSpaceOnUse" color-interpolation-filters="sRGB">
<feFlood flood-opacity="0" result="BackgroundImageFix"/>
<feColorMatrix in="SourceAlpha" type="matrix" values="0 0 0 0 0 0 0 0 0 0 0 0 0 0 0 0 0 0 127 0" result="hardAlpha"/>
<feOffset dy="1.96875"/>
<feGaussianBlur stdDeviation="3.2375"/>
<feColorMatrix type="matrix" values="0 0 0 0 0 0 0 0 0 0 0 0 0 0 0 0 0 0 0.0195 0"/>
<feBlend mode="normal" in2="BackgroundImageFix" result="effect1_dropShadow_264_1578"/>
<feColorMatrix in="SourceAlpha" type="matrix" values="0 0 0 0 0 0 0 0 0 0 0 0 0 0 0 0 0 0 127 0" result="hardAlpha"/>
<feOffset dy="9"/>
<feGaussianBlur stdDeviation="9.1"/>
<feColorMatrix type="matrix" values="0 0 0 0 0 0 0 0 0 0 0 0 0 0 0 0 0 0 0.03 0"/>
<feBlend mode="normal" in2="effect1_dropShadow_264_1578" result="effect2_dropShadow_264_1578"/>
<feColorMatrix in="SourceAlpha" type="matrix" values="0 0 0 0 0 0 0 0 0 0 0 0 0 0 0 0 0 0 127 0" result="hardAlpha"/>
<feOffset dy="22.7812"/>
<feGaussianBlur stdDeviation="24.4125"/>
<feColorMatrix type="matrix" values="0 0 0 0 0 0 0 0 0 0 0 0 0 0 0 0 0 0 0.0405 0"/>
<feBlend mode="normal" in2="effect2_dropShadow_264_1578" result="effect3_dropShadow_264_1578"/>
<feColorMatrix in="SourceAlpha" type="matrix" values="0 0 0 0 0 0 0 0 0 0 0 0 0 0 0 0 0 0 127 0" result="hardAlpha"/>
<feOffset dy="45"/>
<feGaussianBlur stdDeviation="56"/>
<feColorMatrix type="matrix" values="0 0 0 0 0 0 0 0 0 0 0 0 0 0 0 0 0 0 0.06 0"/>
<feBlend mode="normal" in2="effect3_dropShadow_264_1578" result="effect4_dropShadow_264_1578"/>
<feBlend mode="normal" in="SourceGraphic" in2="effect4_dropShadow_264_1578" result="shape"/>
</filter>
<clipPath id="clip0_264_1578">
<rect x="96" y="67" width="91" height="100" rx="10" fill="white"/>
</clipPath>
</defs>
</svg>
