<svg width="557" height="124" viewBox="0 0 557 124" fill="none" xmlns="http://www.w3.org/2000/svg">
<path d="M25.64 14.576C24.872 13.168 23.816 12.096 22.472 11.36C21.128 10.624 19.56 10.256 17.768 10.256C15.784 10.256 14.024 10.704 12.488 11.6C10.952 12.496 9.752 13.776 8.888 15.44C8.024 17.104 7.592 19.024 7.592 21.2C7.592 23.44 8.024 25.392 8.888 27.056C9.784 28.72 11.016 30 12.584 30.896C14.152 31.792 15.976 32.24 18.056 32.24C20.616 32.24 22.712 31.568 24.344 30.224C25.976 28.848 27.048 26.944 27.56 24.512H16.04V19.376H34.184V25.232C33.736 27.568 32.776 29.728 31.304 31.712C29.832 33.696 27.928 35.296 25.592 36.512C23.288 37.696 20.696 38.288 17.816 38.288C14.584 38.288 11.656 37.568 9.032 36.128C6.44 34.656 4.392 32.624 2.888 30.032C1.416 27.44 0.68 24.496 0.68 21.2C0.68 17.904 1.416 14.96 2.888 12.368C4.392 9.744 6.44 7.712 9.032 6.272C11.656 4.8 14.568 4.064 17.768 4.064C21.544 4.064 24.824 4.992 27.608 6.848C30.392 8.672 32.312 11.248 33.368 14.576H25.64ZM45.8758 15.536C46.7398 14.128 47.8598 13.024 49.2358 12.224C50.6438 11.424 52.2438 11.024 54.0358 11.024V18.08H52.2598C50.1478 18.08 48.5478 18.576 47.4598 19.568C46.4038 20.56 45.8758 22.288 45.8758 24.752V38H39.1558V11.408H45.8758V15.536ZM70.37 38.432C67.81 38.432 65.506 37.872 63.458 36.752C61.41 35.6 59.794 33.984 58.61 31.904C57.458 29.824 56.882 27.424 56.882 24.704C56.882 21.984 57.474 19.584 58.658 17.504C59.874 15.424 61.522 13.824 63.602 12.704C65.682 11.552 68.002 10.976 70.562 10.976C73.122 10.976 75.442 11.552 77.522 12.704C79.602 13.824 81.234 15.424 82.418 17.504C83.634 19.584 84.242 21.984 84.242 24.704C84.242 27.424 83.618 29.824 82.37 31.904C81.154 33.984 79.49 35.6 77.378 36.752C75.298 37.872 72.962 38.432 70.37 38.432ZM70.37 32.576C71.586 32.576 72.722 32.288 73.778 31.712C74.866 31.104 75.73 30.208 76.37 29.024C77.01 27.84 77.33 26.4 77.33 24.704C77.33 22.176 76.658 20.24 75.314 18.896C74.002 17.52 72.386 16.832 70.466 16.832C68.546 16.832 66.93 17.52 65.618 18.896C64.338 20.24 63.698 22.176 63.698 24.704C63.698 27.232 64.322 29.184 65.57 30.56C66.85 31.904 68.45 32.576 70.37 32.576ZM87.4434 24.704C87.4434 21.952 88.0034 19.552 89.1234 17.504C90.2434 15.424 91.7954 13.824 93.7794 12.704C95.7634 11.552 98.0354 10.976 100.595 10.976C103.891 10.976 106.611 11.808 108.755 13.472C110.931 15.104 112.387 17.408 113.123 20.384H105.875C105.491 19.232 104.835 18.336 103.907 17.696C103.011 17.024 101.891 16.688 100.547 16.688C98.6274 16.688 97.1074 17.392 95.9874 18.8C94.8674 20.176 94.3074 22.144 94.3074 24.704C94.3074 27.232 94.8674 29.2 95.9874 30.608C97.1074 31.984 98.6274 32.672 100.547 32.672C103.267 32.672 105.043 31.456 105.875 29.024H113.123C112.387 31.904 110.931 34.192 108.755 35.888C106.579 37.584 103.859 38.432 100.595 38.432C98.0354 38.432 95.7634 37.872 93.7794 36.752C91.7954 35.6 90.2434 34 89.1234 31.952C88.0034 29.872 87.4434 27.456 87.4434 24.704ZM142.766 24.128C142.766 25.088 142.702 25.952 142.574 26.72H123.134C123.294 28.64 123.966 30.144 125.15 31.232C126.334 32.32 127.79 32.864 129.518 32.864C132.014 32.864 133.79 31.792 134.846 29.648H142.094C141.326 32.208 139.854 34.32 137.678 35.984C135.502 37.616 132.83 38.432 129.662 38.432C127.102 38.432 124.798 37.872 122.75 36.752C120.734 35.6 119.15 33.984 117.998 31.904C116.878 29.824 116.318 27.424 116.318 24.704C116.318 21.952 116.878 19.536 117.998 17.456C119.118 15.376 120.686 13.776 122.702 12.656C124.718 11.536 127.038 10.976 129.662 10.976C132.19 10.976 134.446 11.52 136.43 12.608C138.446 13.696 139.998 15.248 141.086 17.264C142.206 19.248 142.766 21.536 142.766 24.128ZM135.806 22.208C135.774 20.48 135.15 19.104 133.934 18.08C132.718 17.024 131.23 16.496 129.47 16.496C127.806 16.496 126.398 17.008 125.246 18.032C124.126 19.024 123.438 20.416 123.182 22.208H135.806ZM154.391 15.536C155.255 14.128 156.375 13.024 157.751 12.224C159.159 11.424 160.759 11.024 162.551 11.024V18.08H160.775C158.663 18.08 157.063 18.576 155.975 19.568C154.919 20.56 154.391 22.288 154.391 24.752V38H147.671V11.408H154.391V15.536ZM170.486 8.24C169.302 8.24 168.31 7.872 167.51 7.136C166.742 6.368 166.358 5.424 166.358 4.304C166.358 3.184 166.742 2.256 167.51 1.52C168.31 0.751998 169.302 0.367998 170.486 0.367998C171.67 0.367998 172.646 0.751998 173.414 1.52C174.214 2.256 174.614 3.184 174.614 4.304C174.614 5.424 174.214 6.368 173.414 7.136C172.646 7.872 171.67 8.24 170.486 8.24ZM173.798 11.408V38H167.078V11.408H173.798ZM205.157 24.128C205.157 25.088 205.093 25.952 204.965 26.72H185.525C185.685 28.64 186.357 30.144 187.541 31.232C188.725 32.32 190.181 32.864 191.909 32.864C194.405 32.864 196.181 31.792 197.237 29.648H204.485C203.717 32.208 202.245 34.32 200.069 35.984C197.893 37.616 195.221 38.432 192.053 38.432C189.493 38.432 187.189 37.872 185.141 36.752C183.125 35.6 181.541 33.984 180.389 31.904C179.269 29.824 178.709 27.424 178.709 24.704C178.709 21.952 179.269 19.536 180.389 17.456C181.509 15.376 183.077 13.776 185.093 12.656C187.109 11.536 189.429 10.976 192.053 10.976C194.581 10.976 196.837 11.52 198.821 12.608C200.837 13.696 202.389 15.248 203.477 17.264C204.597 19.248 205.157 21.536 205.157 24.128ZM198.197 22.208C198.165 20.48 197.541 19.104 196.325 18.08C195.109 17.024 193.621 16.496 191.861 16.496C190.197 16.496 188.789 17.008 187.637 18.032C186.517 19.024 185.829 20.416 185.573 22.208H198.197ZM220.238 38.432C218.062 38.432 216.11 38.048 214.382 37.28C212.654 36.48 211.278 35.408 210.254 34.064C209.262 32.72 208.718 31.232 208.622 29.6H215.39C215.518 30.624 216.014 31.472 216.878 32.144C217.774 32.816 218.878 33.152 220.19 33.152C221.47 33.152 222.462 32.896 223.166 32.384C223.902 31.872 224.27 31.216 224.27 30.416C224.27 29.552 223.822 28.912 222.926 28.496C222.062 28.048 220.67 27.568 218.75 27.056C216.766 26.576 215.134 26.08 213.854 25.568C212.606 25.056 211.518 24.272 210.59 23.216C209.694 22.16 209.246 20.736 209.246 18.944C209.246 17.472 209.662 16.128 210.494 14.912C211.358 13.696 212.574 12.736 214.142 12.032C215.742 11.328 217.614 10.976 219.758 10.976C222.926 10.976 225.454 11.776 227.342 13.376C229.23 14.944 230.27 17.072 230.462 19.76H224.03C223.934 18.704 223.486 17.872 222.686 17.264C221.918 16.624 220.878 16.304 219.566 16.304C218.35 16.304 217.406 16.528 216.734 16.976C216.094 17.424 215.774 18.048 215.774 18.848C215.774 19.744 216.222 20.432 217.118 20.912C218.014 21.36 219.406 21.824 221.294 22.304C223.214 22.784 224.798 23.28 226.046 23.792C227.294 24.304 228.366 25.104 229.262 26.192C230.19 27.248 230.67 28.656 230.702 30.416C230.702 31.952 230.27 33.328 229.406 34.544C228.574 35.76 227.358 36.72 225.758 37.424C224.19 38.096 222.35 38.432 220.238 38.432ZM254.376 15.536C255.24 14.128 256.36 13.024 257.736 12.224C259.144 11.424 260.744 11.024 262.536 11.024V18.08H260.76C258.648 18.08 257.048 18.576 255.96 19.568C254.904 20.56 254.376 22.288 254.376 24.752V38H247.656V11.408H254.376V15.536ZM292.166 11.408V38H285.398V34.64C284.534 35.792 283.398 36.704 281.99 37.376C280.614 38.016 279.11 38.336 277.478 38.336C275.398 38.336 273.558 37.904 271.958 37.04C270.358 36.144 269.094 34.848 268.166 33.152C267.27 31.424 266.822 29.376 266.822 27.008V11.408H273.542V26.048C273.542 28.16 274.07 29.792 275.126 30.944C276.182 32.064 277.622 32.624 279.446 32.624C281.302 32.624 282.758 32.064 283.814 30.944C284.87 29.792 285.398 28.16 285.398 26.048V11.408H292.166ZM313.532 11.024C316.7 11.024 319.26 12.032 321.212 14.048C323.164 16.032 324.14 18.816 324.14 22.4V38H317.42V23.312C317.42 21.2 316.892 19.584 315.836 18.464C314.78 17.312 313.34 16.736 311.516 16.736C309.66 16.736 308.188 17.312 307.1 18.464C306.044 19.584 305.516 21.2 305.516 23.312V38H298.796V11.408H305.516V14.72C306.412 13.568 307.548 12.672 308.924 12.032C310.332 11.36 311.868 11.024 313.532 11.024ZM345.267 11.024C348.435 11.024 350.995 12.032 352.947 14.048C354.899 16.032 355.875 18.816 355.875 22.4V38H349.155V23.312C349.155 21.2 348.627 19.584 347.571 18.464C346.515 17.312 345.075 16.736 343.251 16.736C341.395 16.736 339.923 17.312 338.835 18.464C337.779 19.584 337.251 21.2 337.251 23.312V38H330.531V11.408H337.251V14.72C338.147 13.568 339.283 12.672 340.659 12.032C342.067 11.36 343.603 11.024 345.267 11.024ZM365.673 8.24C364.489 8.24 363.497 7.872 362.697 7.136C361.929 6.368 361.545 5.424 361.545 4.304C361.545 3.184 361.929 2.256 362.697 1.52C363.497 0.751998 364.489 0.367998 365.673 0.367998C366.857 0.367998 367.833 0.751998 368.601 1.52C369.401 2.256 369.801 3.184 369.801 4.304C369.801 5.424 369.401 6.368 368.601 7.136C367.833 7.872 366.857 8.24 365.673 8.24ZM368.985 11.408V38H362.265V11.408H368.985ZM390.361 11.024C393.529 11.024 396.089 12.032 398.041 14.048C399.993 16.032 400.969 18.816 400.969 22.4V38H394.249V23.312C394.249 21.2 393.721 19.584 392.665 18.464C391.609 17.312 390.169 16.736 388.345 16.736C386.489 16.736 385.017 17.312 383.929 18.464C382.873 19.584 382.345 21.2 382.345 23.312V38H375.625V11.408H382.345V14.72C383.241 13.568 384.377 12.672 385.753 12.032C387.161 11.36 388.697 11.024 390.361 11.024ZM417.775 10.976C419.759 10.976 421.503 11.376 423.007 12.176C424.511 12.944 425.695 13.952 426.559 15.2V11.408H433.327V38.192C433.327 40.656 432.831 42.848 431.839 44.768C430.847 46.72 429.359 48.256 427.375 49.376C425.391 50.528 422.991 51.104 420.175 51.104C416.399 51.104 413.295 50.224 410.863 48.464C408.463 46.704 407.103 44.304 406.783 41.264H413.455C413.807 42.48 414.559 43.44 415.711 44.144C416.895 44.88 418.319 45.248 419.983 45.248C421.935 45.248 423.519 44.656 424.735 43.472C425.951 42.32 426.559 40.56 426.559 38.192V34.064C425.695 35.312 424.495 36.352 422.959 37.184C421.455 38.016 419.727 38.432 417.775 38.432C415.535 38.432 413.487 37.856 411.631 36.704C409.775 35.552 408.303 33.936 407.215 31.856C406.159 29.744 405.631 27.328 405.631 24.608C405.631 21.92 406.159 19.536 407.215 17.456C408.303 15.376 409.759 13.776 411.583 12.656C413.439 11.536 415.503 10.976 417.775 10.976ZM426.559 24.704C426.559 23.072 426.239 21.68 425.599 20.528C424.959 19.344 424.095 18.448 423.007 17.84C421.919 17.2 420.751 16.88 419.503 16.88C418.255 16.88 417.103 17.184 416.047 17.792C414.991 18.4 414.127 19.296 413.455 20.48C412.815 21.632 412.495 23.008 412.495 24.608C412.495 26.208 412.815 27.616 413.455 28.832C414.127 30.016 414.991 30.928 416.047 31.568C417.135 32.208 418.287 32.528 419.503 32.528C420.751 32.528 421.919 32.224 423.007 31.616C424.095 30.976 424.959 30.08 425.599 28.928C426.239 27.744 426.559 26.336 426.559 24.704ZM458.048 2.48V38H451.328V2.48H458.048ZM476.495 38.432C473.935 38.432 471.631 37.872 469.583 36.752C467.535 35.6 465.919 33.984 464.735 31.904C463.583 29.824 463.007 27.424 463.007 24.704C463.007 21.984 463.599 19.584 464.783 17.504C465.999 15.424 467.647 13.824 469.727 12.704C471.807 11.552 474.127 10.976 476.687 10.976C479.247 10.976 481.567 11.552 483.647 12.704C485.727 13.824 487.359 15.424 488.543 17.504C489.759 19.584 490.367 21.984 490.367 24.704C490.367 27.424 489.743 29.824 488.495 31.904C487.279 33.984 485.615 35.6 483.503 36.752C481.423 37.872 479.087 38.432 476.495 38.432ZM476.495 32.576C477.711 32.576 478.847 32.288 479.903 31.712C480.991 31.104 481.855 30.208 482.495 29.024C483.135 27.84 483.455 26.4 483.455 24.704C483.455 22.176 482.783 20.24 481.439 18.896C480.127 17.52 478.511 16.832 476.591 16.832C474.671 16.832 473.055 17.52 471.743 18.896C470.463 20.24 469.823 22.176 469.823 24.704C469.823 27.232 470.447 29.184 471.695 30.56C472.975 31.904 474.575 32.576 476.495 32.576ZM532.16 11.408L524.384 38H517.136L512.288 19.424L507.44 38H500.144L492.32 11.408H499.136L503.84 31.664L508.928 11.408H516.032L521.024 31.616L525.728 11.408H532.16ZM545.156 3.344C548.484 3.344 551.156 4.256 553.172 6.08C555.22 7.872 556.244 10.352 556.244 13.52C556.244 16.656 555.236 19.056 553.22 20.72C551.204 22.352 548.532 23.168 545.204 23.168L545.012 26.864H539.108L538.868 18.704H541.028C543.812 18.704 545.956 18.336 547.46 17.6C548.964 16.864 549.716 15.52 549.716 13.568C549.716 12.16 549.3 11.04 548.468 10.208C547.668 9.376 546.564 8.96 545.156 8.96C543.684 8.96 542.532 9.36 541.7 10.16C540.9 10.96 540.5 12.064 540.5 13.472H534.164C534.132 11.52 534.548 9.776 535.412 8.24C536.276 6.704 537.54 5.504 539.204 4.64C540.9 3.776 542.884 3.344 545.156 3.344ZM542.036 38.336C540.82 38.336 539.812 37.968 539.012 37.232C538.244 36.464 537.86 35.52 537.86 34.4C537.86 33.28 538.244 32.352 539.012 31.616C539.812 30.848 540.82 30.464 542.036 30.464C543.22 30.464 544.196 30.848 544.964 31.616C545.732 32.352 546.116 33.28 546.116 34.4C546.116 35.52 545.732 36.464 544.964 37.232C544.196 37.968 543.22 38.336 542.036 38.336ZM47.096 76.496L37.736 110H29.816L23.528 86.144L16.952 110L9.08 110.048L0.0560001 76.496H7.256L13.16 102.512L19.976 76.496H27.464L33.896 102.368L39.848 76.496H47.096ZM76.2039 96.128C76.2039 97.088 76.1399 97.952 76.0119 98.72H56.5719C56.7319 100.64 57.4039 102.144 58.5879 103.232C59.7719 104.32 61.2279 104.864 62.9559 104.864C65.4519 104.864 67.2279 103.792 68.2839 101.648H75.5319C74.7639 104.208 73.2919 106.32 71.1159 107.984C68.9399 109.616 66.2679 110.432 63.0999 110.432C60.5399 110.432 58.2359 109.872 56.1879 108.752C54.1719 107.6 52.5879 105.984 51.4359 103.904C50.3159 101.824 49.7559 99.424 49.7559 96.704C49.7559 93.952 50.3159 91.536 51.4359 89.456C52.5559 87.376 54.1239 85.776 56.1399 84.656C58.1559 83.536 60.4759 82.976 63.0999 82.976C65.6279 82.976 67.8839 83.52 69.8679 84.608C71.8839 85.696 73.4359 87.248 74.5239 89.264C75.6439 91.248 76.2039 93.536 76.2039 96.128ZM69.2439 94.208C69.2119 92.48 68.5879 91.104 67.3719 90.08C66.1559 89.024 64.6679 88.496 62.9079 88.496C61.2439 88.496 59.8359 89.008 58.6839 90.032C57.5639 91.024 56.8759 92.416 56.6199 94.208H69.2439ZM102.962 82.976C104.946 82.976 106.69 83.376 108.194 84.176C109.698 84.944 110.882 85.952 111.746 87.2V83.408H118.514V110.192C118.514 112.656 118.018 114.848 117.026 116.768C116.034 118.72 114.546 120.256 112.562 121.376C110.578 122.528 108.178 123.104 105.362 123.104C101.586 123.104 98.4824 122.224 96.0504 120.464C93.6504 118.704 92.2904 116.304 91.9704 113.264H98.6424C98.9944 114.48 99.7464 115.44 100.898 116.144C102.082 116.88 103.506 117.248 105.17 117.248C107.122 117.248 108.706 116.656 109.922 115.472C111.138 114.32 111.746 112.56 111.746 110.192V106.064C110.882 107.312 109.682 108.352 108.146 109.184C106.642 110.016 104.914 110.432 102.962 110.432C100.722 110.432 98.6744 109.856 96.8184 108.704C94.9624 107.552 93.4904 105.936 92.4024 103.856C91.3464 101.744 90.8184 99.328 90.8184 96.608C90.8184 93.92 91.3464 91.536 92.4024 89.456C93.4904 87.376 94.9464 85.776 96.7704 84.656C98.6264 83.536 100.69 82.976 102.962 82.976ZM111.746 96.704C111.746 95.072 111.426 93.68 110.786 92.528C110.146 91.344 109.282 90.448 108.194 89.84C107.106 89.2 105.938 88.88 104.69 88.88C103.442 88.88 102.29 89.184 101.234 89.792C100.178 90.4 99.3144 91.296 98.6424 92.48C98.0024 93.632 97.6824 95.008 97.6824 96.608C97.6824 98.208 98.0024 99.616 98.6424 100.832C99.3144 102.016 100.178 102.928 101.234 103.568C102.322 104.208 103.474 104.528 104.69 104.528C105.938 104.528 107.106 104.224 108.194 103.616C109.282 102.976 110.146 102.08 110.786 100.928C111.426 99.744 111.746 98.336 111.746 96.704ZM136.886 110.432C134.326 110.432 132.022 109.872 129.974 108.752C127.926 107.6 126.31 105.984 125.126 103.904C123.974 101.824 123.398 99.424 123.398 96.704C123.398 93.984 123.99 91.584 125.174 89.504C126.39 87.424 128.038 85.824 130.118 84.704C132.198 83.552 134.518 82.976 137.078 82.976C139.638 82.976 141.958 83.552 144.038 84.704C146.118 85.824 147.75 87.424 148.934 89.504C150.15 91.584 150.758 93.984 150.758 96.704C150.758 99.424 150.134 101.824 148.886 103.904C147.67 105.984 146.006 107.6 143.894 108.752C141.814 109.872 139.478 110.432 136.886 110.432ZM136.886 104.576C138.102 104.576 139.238 104.288 140.294 103.712C141.382 103.104 142.246 102.208 142.886 101.024C143.526 99.84 143.846 98.4 143.846 96.704C143.846 94.176 143.174 92.24 141.83 90.896C140.518 89.52 138.902 88.832 136.982 88.832C135.062 88.832 133.446 89.52 132.134 90.896C130.854 92.24 130.214 94.176 130.214 96.704C130.214 99.232 130.838 101.184 132.086 102.56C133.366 103.904 134.966 104.576 136.886 104.576ZM163.511 88.928V101.792C163.511 102.688 163.719 103.344 164.135 103.76C164.583 104.144 165.319 104.336 166.343 104.336H169.463V110H165.239C159.575 110 156.743 107.248 156.743 101.744V88.928H153.575V83.408H156.743V76.832H163.511V83.408H169.463V88.928H163.511ZM211.174 83.408L194.71 122.576H187.558L193.318 109.328L182.662 83.408H190.198L197.062 101.984L204.022 83.408H211.174ZM226.604 110.432C224.044 110.432 221.74 109.872 219.692 108.752C217.644 107.6 216.028 105.984 214.844 103.904C213.692 101.824 213.116 99.424 213.116 96.704C213.116 93.984 213.708 91.584 214.892 89.504C216.108 87.424 217.756 85.824 219.836 84.704C221.916 83.552 224.236 82.976 226.796 82.976C229.356 82.976 231.676 83.552 233.756 84.704C235.836 85.824 237.468 87.424 238.652 89.504C239.868 91.584 240.476 93.984 240.476 96.704C240.476 99.424 239.852 101.824 238.604 103.904C237.388 105.984 235.724 107.6 233.612 108.752C231.532 109.872 229.196 110.432 226.604 110.432ZM226.604 104.576C227.82 104.576 228.956 104.288 230.012 103.712C231.1 103.104 231.964 102.208 232.604 101.024C233.244 99.84 233.564 98.4 233.564 96.704C233.564 94.176 232.892 92.24 231.548 90.896C230.236 89.52 228.62 88.832 226.7 88.832C224.78 88.832 223.164 89.52 221.852 90.896C220.572 92.24 219.932 94.176 219.932 96.704C219.932 99.232 220.556 101.184 221.804 102.56C223.084 103.904 224.684 104.576 226.604 104.576ZM270.51 83.408V110H263.742V106.64C262.878 107.792 261.742 108.704 260.334 109.376C258.958 110.016 257.454 110.336 255.822 110.336C253.742 110.336 251.902 109.904 250.302 109.04C248.702 108.144 247.438 106.848 246.51 105.152C245.614 103.424 245.166 101.376 245.166 99.008V83.408H251.886V98.048C251.886 100.16 252.414 101.792 253.47 102.944C254.526 104.064 255.966 104.624 257.79 104.624C259.646 104.624 261.102 104.064 262.158 102.944C263.214 101.792 263.742 100.16 263.742 98.048V83.408H270.51ZM286.85 96.704C286.85 93.952 287.41 91.552 288.53 89.504C289.65 87.424 291.202 85.824 293.186 84.704C295.17 83.552 297.442 82.976 300.002 82.976C303.298 82.976 306.018 83.808 308.162 85.472C310.338 87.104 311.794 89.408 312.53 92.384H305.282C304.898 91.232 304.242 90.336 303.314 89.696C302.418 89.024 301.298 88.688 299.954 88.688C298.034 88.688 296.514 89.392 295.394 90.8C294.274 92.176 293.714 94.144 293.714 96.704C293.714 99.232 294.274 101.2 295.394 102.608C296.514 103.984 298.034 104.672 299.954 104.672C302.674 104.672 304.45 103.456 305.282 101.024H312.53C311.794 103.904 310.338 106.192 308.162 107.888C305.986 109.584 303.266 110.432 300.002 110.432C297.442 110.432 295.17 109.872 293.186 108.752C291.202 107.6 289.65 106 288.53 103.952C287.41 101.872 286.85 99.456 286.85 96.704ZM329.261 110.432C326.701 110.432 324.397 109.872 322.349 108.752C320.301 107.6 318.685 105.984 317.501 103.904C316.349 101.824 315.773 99.424 315.773 96.704C315.773 93.984 316.365 91.584 317.549 89.504C318.765 87.424 320.413 85.824 322.493 84.704C324.573 83.552 326.893 82.976 329.453 82.976C332.013 82.976 334.333 83.552 336.413 84.704C338.493 85.824 340.125 87.424 341.309 89.504C342.525 91.584 343.133 93.984 343.133 96.704C343.133 99.424 342.509 101.824 341.261 103.904C340.045 105.984 338.381 107.6 336.269 108.752C334.189 109.872 331.853 110.432 329.261 110.432ZM329.261 104.576C330.477 104.576 331.613 104.288 332.669 103.712C333.757 103.104 334.621 102.208 335.261 101.024C335.901 99.84 336.221 98.4 336.221 96.704C336.221 94.176 335.549 92.24 334.205 90.896C332.893 89.52 331.277 88.832 329.357 88.832C327.437 88.832 325.821 89.52 324.509 90.896C323.229 92.24 322.589 94.176 322.589 96.704C322.589 99.232 323.213 101.184 324.461 102.56C325.741 103.904 327.341 104.576 329.261 104.576ZM359.15 103.808L365.87 83.408H373.022L363.182 110H355.022L345.23 83.408H352.43L359.15 103.808ZM401.516 96.128C401.516 97.088 401.452 97.952 401.324 98.72H381.884C382.044 100.64 382.716 102.144 383.9 103.232C385.084 104.32 386.54 104.864 388.268 104.864C390.764 104.864 392.54 103.792 393.596 101.648H400.844C400.076 104.208 398.604 106.32 396.428 107.984C394.252 109.616 391.58 110.432 388.412 110.432C385.852 110.432 383.548 109.872 381.5 108.752C379.484 107.6 377.9 105.984 376.748 103.904C375.628 101.824 375.068 99.424 375.068 96.704C375.068 93.952 375.628 91.536 376.748 89.456C377.868 87.376 379.436 85.776 381.452 84.656C383.468 83.536 385.788 82.976 388.412 82.976C390.94 82.976 393.196 83.52 395.18 84.608C397.196 85.696 398.748 87.248 399.836 89.264C400.956 91.248 401.516 93.536 401.516 96.128ZM394.556 94.208C394.524 92.48 393.9 91.104 392.684 90.08C391.468 89.024 389.98 88.496 388.22 88.496C386.556 88.496 385.148 89.008 383.996 90.032C382.876 91.024 382.188 92.416 381.932 94.208H394.556ZM413.141 87.536C414.005 86.128 415.125 85.024 416.501 84.224C417.909 83.424 419.509 83.024 421.301 83.024V90.08H419.525C417.413 90.08 415.813 90.576 414.725 91.568C413.669 92.56 413.141 94.288 413.141 96.752V110H406.421V83.408H413.141V87.536ZM450.548 96.128C450.548 97.088 450.484 97.952 450.356 98.72H430.916C431.076 100.64 431.748 102.144 432.932 103.232C434.116 104.32 435.572 104.864 437.3 104.864C439.796 104.864 441.572 103.792 442.628 101.648H449.876C449.108 104.208 447.636 106.32 445.46 107.984C443.284 109.616 440.612 110.432 437.444 110.432C434.884 110.432 432.58 109.872 430.532 108.752C428.516 107.6 426.932 105.984 425.78 103.904C424.66 101.824 424.1 99.424 424.1 96.704C424.1 93.952 424.66 91.536 425.78 89.456C426.9 87.376 428.468 85.776 430.484 84.656C432.5 83.536 434.82 82.976 437.444 82.976C439.972 82.976 442.228 83.52 444.212 84.608C446.228 85.696 447.78 87.248 448.868 89.264C449.988 91.248 450.548 93.536 450.548 96.128ZM443.588 94.208C443.556 92.48 442.932 91.104 441.716 90.08C440.5 89.024 439.012 88.496 437.252 88.496C435.588 88.496 434.18 89.008 433.028 90.032C431.908 91.024 431.22 92.416 430.964 94.208H443.588ZM453.725 96.608C453.725 93.92 454.253 91.536 455.309 89.456C456.397 87.376 457.869 85.776 459.725 84.656C461.581 83.536 463.645 82.976 465.917 82.976C467.645 82.976 469.293 83.36 470.861 84.128C472.429 84.864 473.677 85.856 474.605 87.104V74.48H481.421V110H474.605V106.064C473.773 107.376 472.605 108.432 471.101 109.232C469.597 110.032 467.853 110.432 465.869 110.432C463.629 110.432 461.581 109.856 459.725 108.704C457.869 107.552 456.397 105.936 455.309 103.856C454.253 101.744 453.725 99.328 453.725 96.608ZM474.653 96.704C474.653 95.072 474.333 93.68 473.693 92.528C473.053 91.344 472.189 90.448 471.101 89.84C470.013 89.2 468.845 88.88 467.597 88.88C466.349 88.88 465.197 89.184 464.141 89.792C463.085 90.4 462.221 91.296 461.549 92.48C460.909 93.632 460.589 95.008 460.589 96.608C460.589 98.208 460.909 99.616 461.549 100.832C462.221 102.016 463.085 102.928 464.141 103.568C465.229 104.208 466.381 104.528 467.597 104.528C468.845 104.528 470.013 104.224 471.101 103.616C472.189 102.976 473.053 102.08 473.693 100.928C474.333 99.744 474.653 98.336 474.653 96.704ZM496.672 75.92L495.904 99.104H490.24L489.424 75.92H496.672ZM493.216 110.336C492 110.336 490.992 109.968 490.192 109.232C489.424 108.464 489.04 107.52 489.04 106.4C489.04 105.28 489.424 104.352 490.192 103.616C490.992 102.848 492 102.464 493.216 102.464C494.4 102.464 495.376 102.848 496.144 103.616C496.912 104.352 497.296 105.28 497.296 106.4C497.296 107.52 496.912 108.464 496.144 109.232C495.376 109.968 494.4 110.336 493.216 110.336Z" fill="black"/>
</svg>
