<svg width="315" height="321" viewBox="0 0 315 321" fill="none" xmlns="http://www.w3.org/2000/svg">
<g filter="url(#filter0_dddd_264_1601)">
<g clip-path="url(#clip0_264_1601)">
<rect x="112" y="67" width="91" height="100" rx="10" fill="white"/>
<rect x="111.5" y="66.5" width="92" height="41" fill="#F5F5F5"/>
<rect x="111.5" y="66.5" width="92" height="41" stroke="black"/>
<path d="M140.67 82.5455V92H139.359L134.553 85.0661H134.465V92H133.039V82.5455H134.359L139.169 89.4886H139.257V82.5455H140.67ZM144.703 92.157C144.254 92.157 143.848 92.0739 143.485 91.9077C143.121 91.7384 142.834 91.4937 142.621 91.1737C142.412 90.8536 142.307 90.4612 142.307 89.9964C142.307 89.5964 142.384 89.267 142.538 89.0085C142.692 88.75 142.9 88.5453 143.161 88.3945C143.423 88.2437 143.715 88.1299 144.039 88.0529C144.362 87.976 144.691 87.9175 145.027 87.8775C145.451 87.8282 145.796 87.7882 146.061 87.7575C146.325 87.7236 146.518 87.6697 146.638 87.5959C146.758 87.522 146.818 87.402 146.818 87.2358V87.2035C146.818 86.8003 146.704 86.4879 146.476 86.2663C146.251 86.0447 145.916 85.9339 145.47 85.9339C145.005 85.9339 144.639 86.037 144.371 86.2433C144.106 86.4464 143.923 86.6726 143.822 86.9219L142.524 86.6264C142.678 86.1955 142.903 85.8478 143.198 85.5831C143.497 85.3153 143.84 85.1214 144.228 85.0014C144.616 84.8783 145.023 84.8168 145.451 84.8168C145.734 84.8168 146.034 84.8506 146.351 84.9183C146.672 84.983 146.97 85.103 147.247 85.2784C147.527 85.4538 147.756 85.7047 147.935 86.0309C148.113 86.354 148.203 86.7741 148.203 87.2912V92H146.855V91.0305H146.799C146.71 91.209 146.576 91.3845 146.398 91.5568C146.219 91.7292 145.99 91.8723 145.71 91.9862C145.43 92.1 145.094 92.157 144.703 92.157ZM145.003 91.049C145.385 91.049 145.711 90.9736 145.982 90.8228C146.256 90.672 146.464 90.475 146.605 90.2319C146.75 89.9857 146.822 89.7225 146.822 89.4425V88.5284C146.773 88.5777 146.678 88.6238 146.536 88.6669C146.398 88.7069 146.239 88.7423 146.061 88.7731C145.882 88.8008 145.708 88.8269 145.539 88.8516C145.37 88.8731 145.228 88.8916 145.114 88.907C144.847 88.9408 144.602 88.9978 144.38 89.0778C144.162 89.1578 143.986 89.2732 143.854 89.424C143.725 89.5717 143.66 89.7687 143.66 90.0149C143.66 90.3565 143.786 90.6151 144.039 90.7905C144.291 90.9628 144.613 91.049 145.003 91.049ZM150.041 92V84.9091H151.366V86.0632H151.454C151.602 85.6723 151.843 85.3677 152.179 85.1491C152.514 84.9276 152.916 84.8168 153.384 84.8168C153.857 84.8168 154.254 84.9276 154.575 85.1491C154.898 85.3707 155.136 85.6754 155.29 86.0632H155.364C155.533 85.6847 155.803 85.383 156.172 85.1584C156.541 84.9306 156.981 84.8168 157.492 84.8168C158.135 84.8168 158.66 85.0183 159.066 85.4215C159.476 85.8247 159.68 86.4325 159.68 87.245V92H158.3V87.3743C158.3 86.8942 158.169 86.5464 157.908 86.331C157.646 86.1155 157.334 86.0078 156.971 86.0078C156.521 86.0078 156.172 86.1463 155.923 86.4233C155.673 86.6972 155.549 87.0496 155.549 87.4805V92H154.173V87.2866C154.173 86.9019 154.053 86.5926 153.813 86.3587C153.573 86.1248 153.26 86.0078 152.876 86.0078C152.614 86.0078 152.373 86.0771 152.151 86.2156C151.932 86.351 151.755 86.5402 151.62 86.7834C151.488 87.0265 151.422 87.3081 151.422 87.6282V92H150.041ZM164.587 92.1431C163.888 92.1431 163.286 91.9938 162.782 91.6953C162.28 91.3937 161.892 90.9705 161.618 90.4258C161.347 89.878 161.212 89.2363 161.212 88.5007C161.212 87.7744 161.347 87.1342 161.618 86.5803C161.892 86.0263 162.274 85.5939 162.763 85.283C163.255 84.9722 163.831 84.8168 164.49 84.8168C164.89 84.8168 165.277 84.8829 165.653 85.0153C166.028 85.1476 166.365 85.3554 166.664 85.6385C166.963 85.9216 167.198 86.2894 167.37 86.7418C167.543 87.1912 167.629 87.7375 167.629 88.3807V88.87H161.992V87.8359H166.276C166.276 87.4728 166.202 87.1512 166.055 86.8711C165.907 86.5879 165.699 86.3648 165.431 86.2017C165.167 86.0386 164.856 85.957 164.499 85.957C164.111 85.957 163.773 86.0524 163.483 86.2433C163.197 86.431 162.975 86.6772 162.818 86.9819C162.665 87.2835 162.588 87.6113 162.588 87.9652V88.7731C162.588 89.247 162.671 89.6502 162.837 89.9826C163.006 90.315 163.242 90.5689 163.543 90.7443C163.845 90.9167 164.197 91.0028 164.6 91.0028C164.862 91.0028 165.101 90.9659 165.316 90.892C165.531 90.8151 165.718 90.7012 165.875 90.5504C166.032 90.3996 166.152 90.2134 166.235 89.9918L167.541 90.2273C167.436 90.612 167.249 90.949 166.978 91.2383C166.71 91.5245 166.373 91.7476 165.967 91.9077C165.564 92.0646 165.104 92.1431 164.587 92.1431Z" fill="#0F1419"/>
<rect x="111.5" y="106.5" width="92" height="61" fill="white"/>
<rect x="111.5" y="106.5" width="92" height="61" stroke="#E1CFFF"/>
<path d="M133.533 142H132.332L135.804 132.545H136.986L140.457 142H139.257L136.432 134.041H136.358L133.533 142ZM133.976 138.307H138.814V139.322H133.976V138.307ZM141.93 142V132.545H145.125C145.866 132.545 146.473 132.679 146.944 132.947C147.417 133.212 147.768 133.57 147.996 134.023C148.224 134.475 148.338 134.98 148.338 135.537C148.338 136.094 148.224 136.6 147.996 137.056C147.771 137.511 147.424 137.874 146.953 138.145C146.482 138.413 145.879 138.547 145.143 138.547H142.853V137.531H145.106C145.614 137.531 146.022 137.444 146.33 137.268C146.637 137.093 146.86 136.856 146.999 136.557C147.141 136.256 147.211 135.915 147.211 135.537C147.211 135.158 147.141 134.82 146.999 134.521C146.86 134.223 146.636 133.989 146.325 133.82C146.014 133.647 145.602 133.561 145.088 133.561H143.075V142H141.93ZM150.182 142V132.545H153.377C154.118 132.545 154.725 132.679 155.195 132.947C155.669 133.212 156.02 133.57 156.248 134.023C156.476 134.475 156.59 134.98 156.59 135.537C156.59 136.094 156.476 136.6 156.248 137.056C156.023 137.511 155.676 137.874 155.205 138.145C154.734 138.413 154.131 138.547 153.395 138.547H151.105V137.531H153.358C153.866 137.531 154.274 137.444 154.581 137.268C154.889 137.093 155.112 136.856 155.251 136.557C155.392 136.256 155.463 135.915 155.463 135.537C155.463 135.158 155.392 134.82 155.251 134.521C155.112 134.223 154.888 133.989 154.577 133.82C154.266 133.647 153.854 133.561 153.34 133.561H151.327V142H150.182ZM158.434 142V132.545H159.579V140.984H163.974V142H158.434ZM165.746 142V132.545H171.452V133.561H166.891V136.756H171.157V137.771H166.891V140.984H171.526V142H165.746Z" fill="#333333"/>
</g>
</g>
<defs>
<filter id="filter0_dddd_264_1601" x="0" y="0" width="315" height="324" filterUnits="userSpaceOnUse" color-interpolation-filters="sRGB">
<feFlood flood-opacity="0" result="BackgroundImageFix"/>
<feColorMatrix in="SourceAlpha" type="matrix" values="0 0 0 0 0 0 0 0 0 0 0 0 0 0 0 0 0 0 127 0" result="hardAlpha"/>
<feOffset dy="1.96875"/>
<feGaussianBlur stdDeviation="3.2375"/>
<feColorMatrix type="matrix" values="0 0 0 0 0 0 0 0 0 0 0 0 0 0 0 0 0 0 0.0195 0"/>
<feBlend mode="normal" in2="BackgroundImageFix" result="effect1_dropShadow_264_1601"/>
<feColorMatrix in="SourceAlpha" type="matrix" values="0 0 0 0 0 0 0 0 0 0 0 0 0 0 0 0 0 0 127 0" result="hardAlpha"/>
<feOffset dy="9"/>
<feGaussianBlur stdDeviation="9.1"/>
<feColorMatrix type="matrix" values="0 0 0 0 0 0 0 0 0 0 0 0 0 0 0 0 0 0 0.03 0"/>
<feBlend mode="normal" in2="effect1_dropShadow_264_1601" result="effect2_dropShadow_264_1601"/>
<feColorMatrix in="SourceAlpha" type="matrix" values="0 0 0 0 0 0 0 0 0 0 0 0 0 0 0 0 0 0 127 0" result="hardAlpha"/>
<feOffset dy="22.7812"/>
<feGaussianBlur stdDeviation="24.4125"/>
<feColorMatrix type="matrix" values="0 0 0 0 0 0 0 0 0 0 0 0 0 0 0 0 0 0 0.0405 0"/>
<feBlend mode="normal" in2="effect2_dropShadow_264_1601" result="effect3_dropShadow_264_1601"/>
<feColorMatrix in="SourceAlpha" type="matrix" values="0 0 0 0 0 0 0 0 0 0 0 0 0 0 0 0 0 0 127 0" result="hardAlpha"/>
<feOffset dy="45"/>
<feGaussianBlur stdDeviation="56"/>
<feColorMatrix type="matrix" values="0 0 0 0 0 0 0 0 0 0 0 0 0 0 0 0 0 0 0.06 0"/>
<feBlend mode="normal" in2="effect3_dropShadow_264_1601" result="effect4_dropShadow_264_1601"/>
<feBlend mode="normal" in="SourceGraphic" in2="effect4_dropShadow_264_1601" result="shape"/>
</filter>
<clipPath id="clip0_264_1601">
<rect x="112" y="67" width="91" height="100" rx="10" fill="white"/>
</clipPath>
</defs>
</svg>
