<svg width="201" height="41" viewBox="0 0 201 41" fill="none" xmlns="http://www.w3.org/2000/svg">
<rect width="199" height="41" rx="20.5" fill="#FC9A63" fill-opacity="0.75"/>
<path d="M59.9759 16.576V18.22H57.7439V25H55.6919V18.22H53.4599V16.576H59.9759ZM64.0537 25.096C63.3977 25.096 62.8057 24.956 62.2777 24.676C61.7577 24.396 61.3457 23.996 61.0417 23.476C60.7457 22.956 60.5977 22.348 60.5977 21.652C60.5977 20.964 60.7497 20.36 61.0537 19.84C61.3577 19.312 61.7737 18.908 62.3017 18.628C62.8297 18.348 63.4217 18.208 64.0777 18.208C64.7337 18.208 65.3257 18.348 65.8537 18.628C66.3817 18.908 66.7977 19.312 67.1017 19.84C67.4057 20.36 67.5577 20.964 67.5577 21.652C67.5577 22.34 67.4017 22.948 67.0897 23.476C66.7857 23.996 66.3657 24.396 65.8297 24.676C65.3017 24.956 64.7097 25.096 64.0537 25.096ZM64.0537 23.32C64.4457 23.32 64.7777 23.176 65.0497 22.888C65.3297 22.6 65.4697 22.188 65.4697 21.652C65.4697 21.116 65.3337 20.704 65.0617 20.416C64.7977 20.128 64.4697 19.984 64.0777 19.984C63.6777 19.984 63.3457 20.128 63.0817 20.416C62.8177 20.696 62.6857 21.108 62.6857 21.652C62.6857 22.188 62.8137 22.6 63.0697 22.888C63.3337 23.176 63.6617 23.32 64.0537 23.32ZM75.4853 25L73.7333 21.82H73.2413V25H71.1893V16.576H74.6333C75.2973 16.576 75.8613 16.692 76.3253 16.924C76.7973 17.156 77.1493 17.476 77.3813 17.884C77.6133 18.284 77.7293 18.732 77.7293 19.228C77.7293 19.788 77.5693 20.288 77.2493 20.728C76.9373 21.168 76.4733 21.48 75.8573 21.664L77.8013 25H75.4853ZM73.2413 20.368H74.5133C74.8893 20.368 75.1693 20.276 75.3533 20.092C75.5453 19.908 75.6413 19.648 75.6413 19.312C75.6413 18.992 75.5453 18.74 75.3533 18.556C75.1693 18.372 74.8893 18.28 74.5133 18.28H73.2413V20.368ZM85.3294 21.544C85.3294 21.736 85.3174 21.936 85.2934 22.144H80.6494C80.6814 22.56 80.8134 22.88 81.0454 23.104C81.2854 23.32 81.5774 23.428 81.9214 23.428C82.4334 23.428 82.7894 23.212 82.9894 22.78H85.1734C85.0614 23.22 84.8574 23.616 84.5614 23.968C84.2734 24.32 83.9094 24.596 83.4694 24.796C83.0294 24.996 82.5374 25.096 81.9934 25.096C81.3374 25.096 80.7534 24.956 80.2414 24.676C79.7294 24.396 79.3294 23.996 79.0414 23.476C78.7534 22.956 78.6094 22.348 78.6094 21.652C78.6094 20.956 78.7494 20.348 79.0294 19.828C79.3174 19.308 79.7174 18.908 80.2294 18.628C80.7414 18.348 81.3294 18.208 81.9934 18.208C82.6414 18.208 83.2174 18.344 83.7214 18.616C84.2254 18.888 84.6174 19.276 84.8974 19.78C85.1854 20.284 85.3294 20.872 85.3294 21.544ZM83.2294 21.004C83.2294 20.652 83.1094 20.372 82.8694 20.164C82.6294 19.956 82.3294 19.852 81.9694 19.852C81.6254 19.852 81.3334 19.952 81.0934 20.152C80.8614 20.352 80.7174 20.636 80.6614 21.004H83.2294ZM89.772 20.008H88.668V25H86.616V20.008H85.872V18.304H86.616V18.112C86.616 17.288 86.852 16.664 87.324 16.24C87.796 15.808 88.488 15.592 89.4 15.592C89.552 15.592 89.664 15.596 89.736 15.604V17.344C89.344 17.32 89.068 17.376 88.908 17.512C88.748 17.648 88.668 17.892 88.668 18.244V18.304H89.772V20.008ZM92.7882 19.42C93.0282 19.052 93.3282 18.764 93.6882 18.556C94.0482 18.34 94.4482 18.232 94.8882 18.232V20.404H94.3242C93.8122 20.404 93.4282 20.516 93.1722 20.74C92.9162 20.956 92.7882 21.34 92.7882 21.892V25H90.7362V18.304H92.7882V19.42ZM96.901 17.608C96.541 17.608 96.245 17.504 96.013 17.296C95.789 17.08 95.677 16.816 95.677 16.504C95.677 16.184 95.789 15.92 96.013 15.712C96.245 15.496 96.541 15.388 96.901 15.388C97.253 15.388 97.541 15.496 97.765 15.712C97.997 15.92 98.113 16.184 98.113 16.504C98.113 16.816 97.997 17.08 97.765 17.296C97.541 17.504 97.253 17.608 96.901 17.608ZM97.921 18.304V25H95.869V18.304H97.921ZM101.952 18.208C102.424 18.208 102.836 18.304 103.188 18.496C103.548 18.688 103.824 18.94 104.016 19.252V18.304H106.068V24.988C106.068 25.604 105.944 26.16 105.696 26.656C105.456 27.16 105.084 27.56 104.58 27.856C104.084 28.152 103.464 28.3 102.72 28.3C101.728 28.3 100.924 28.064 100.308 27.592C99.6921 27.128 99.3401 26.496 99.2521 25.696H101.28C101.344 25.952 101.496 26.152 101.736 26.296C101.976 26.448 102.272 26.524 102.624 26.524C103.048 26.524 103.384 26.4 103.632 26.152C103.888 25.912 104.016 25.524 104.016 24.988V24.04C103.816 24.352 103.54 24.608 103.188 24.808C102.836 25 102.424 25.096 101.952 25.096C101.4 25.096 100.9 24.956 100.452 24.676C100.004 24.388 99.6481 23.984 99.3841 23.464C99.1281 22.936 99.0001 22.328 99.0001 21.64C99.0001 20.952 99.1281 20.348 99.3841 19.828C99.6481 19.308 100.004 18.908 100.452 18.628C100.9 18.348 101.4 18.208 101.952 18.208ZM104.016 21.652C104.016 21.14 103.872 20.736 103.584 20.44C103.304 20.144 102.96 19.996 102.552 19.996C102.144 19.996 101.796 20.144 101.508 20.44C101.228 20.728 101.088 21.128 101.088 21.64C101.088 22.152 101.228 22.56 101.508 22.864C101.796 23.16 102.144 23.308 102.552 23.308C102.96 23.308 103.304 23.16 103.584 22.864C103.872 22.568 104.016 22.164 104.016 21.652ZM113.865 21.544C113.865 21.736 113.853 21.936 113.829 22.144H109.185C109.217 22.56 109.349 22.88 109.581 23.104C109.821 23.32 110.113 23.428 110.457 23.428C110.969 23.428 111.325 23.212 111.525 22.78H113.709C113.597 23.22 113.393 23.616 113.097 23.968C112.809 24.32 112.445 24.596 112.005 24.796C111.565 24.996 111.073 25.096 110.529 25.096C109.873 25.096 109.289 24.956 108.777 24.676C108.265 24.396 107.865 23.996 107.577 23.476C107.289 22.956 107.145 22.348 107.145 21.652C107.145 20.956 107.285 20.348 107.565 19.828C107.853 19.308 108.253 18.908 108.765 18.628C109.277 18.348 109.865 18.208 110.529 18.208C111.177 18.208 111.753 18.344 112.257 18.616C112.761 18.888 113.153 19.276 113.433 19.78C113.721 20.284 113.865 20.872 113.865 21.544ZM111.765 21.004C111.765 20.652 111.645 20.372 111.405 20.164C111.165 19.956 110.865 19.852 110.505 19.852C110.161 19.852 109.869 19.952 109.629 20.152C109.397 20.352 109.253 20.636 109.197 21.004H111.765ZM116.999 19.42C117.239 19.052 117.539 18.764 117.899 18.556C118.259 18.34 118.659 18.232 119.099 18.232V20.404H118.535C118.023 20.404 117.639 20.516 117.383 20.74C117.127 20.956 116.999 21.34 116.999 21.892V25H114.947V18.304H116.999V19.42ZM119.672 21.64C119.672 20.952 119.8 20.348 120.056 19.828C120.32 19.308 120.676 18.908 121.124 18.628C121.572 18.348 122.072 18.208 122.624 18.208C123.096 18.208 123.508 18.304 123.86 18.496C124.22 18.688 124.496 18.94 124.688 19.252V18.304H126.74V25H124.688V24.052C124.488 24.364 124.208 24.616 123.848 24.808C123.496 25 123.084 25.096 122.612 25.096C122.068 25.096 121.572 24.956 121.124 24.676C120.676 24.388 120.32 23.984 120.056 23.464C119.8 22.936 119.672 22.328 119.672 21.64ZM124.688 21.652C124.688 21.14 124.544 20.736 124.256 20.44C123.976 20.144 123.632 19.996 123.224 19.996C122.816 19.996 122.468 20.144 122.18 20.44C121.9 20.728 121.76 21.128 121.76 21.64C121.76 22.152 121.9 22.56 122.18 22.864C122.468 23.16 122.816 23.308 123.224 23.308C123.632 23.308 123.976 23.16 124.256 22.864C124.544 22.568 124.688 22.164 124.688 21.652ZM131.956 23.26V25H130.912C130.168 25 129.588 24.82 129.172 24.46C128.756 24.092 128.548 23.496 128.548 22.672V20.008H127.732V18.304H128.548V16.672H130.6V18.304H131.944V20.008H130.6V22.696C130.6 22.896 130.648 23.04 130.744 23.128C130.84 23.216 131 23.26 131.224 23.26H131.956ZM136.147 25.096C135.491 25.096 134.899 24.956 134.371 24.676C133.851 24.396 133.439 23.996 133.135 23.476C132.839 22.956 132.691 22.348 132.691 21.652C132.691 20.964 132.843 20.36 133.147 19.84C133.451 19.312 133.867 18.908 134.395 18.628C134.923 18.348 135.515 18.208 136.171 18.208C136.827 18.208 137.419 18.348 137.947 18.628C138.475 18.908 138.891 19.312 139.195 19.84C139.499 20.36 139.651 20.964 139.651 21.652C139.651 22.34 139.495 22.948 139.183 23.476C138.879 23.996 138.459 24.396 137.923 24.676C137.395 24.956 136.803 25.096 136.147 25.096ZM136.147 23.32C136.539 23.32 136.871 23.176 137.143 22.888C137.423 22.6 137.563 22.188 137.563 21.652C137.563 21.116 137.427 20.704 137.155 20.416C136.891 20.128 136.563 19.984 136.171 19.984C135.771 19.984 135.439 20.128 135.175 20.416C134.911 20.696 134.779 21.108 134.779 21.652C134.779 22.188 134.907 22.6 135.163 22.888C135.427 23.176 135.755 23.32 136.147 23.32ZM142.792 19.42C143.032 19.052 143.332 18.764 143.692 18.556C144.052 18.34 144.452 18.232 144.892 18.232V20.404H144.328C143.816 20.404 143.432 20.516 143.176 20.74C142.92 20.956 142.792 21.34 142.792 21.892V25H140.74V18.304H142.792V19.42ZM148.573 16.276L148.333 22.024H146.593L146.353 16.276H148.573ZM147.493 25.096C147.133 25.096 146.837 24.992 146.605 24.784C146.381 24.568 146.269 24.304 146.269 23.992C146.269 23.672 146.381 23.404 146.605 23.188C146.837 22.972 147.133 22.864 147.493 22.864C147.845 22.864 148.133 22.972 148.357 23.188C148.589 23.404 148.705 23.672 148.705 23.992C148.705 24.304 148.589 24.568 148.357 24.784C148.133 24.992 147.845 25.096 147.493 25.096Z" fill="#333333"/>
</svg>
