<svg width="575" height="195" viewBox="0 0 575 195" fill="none" xmlns="http://www.w3.org/2000/svg">
<path d="M17.152 5.072L19.552 9.392L13.312 11.648L19.552 13.904L17.056 18.368L11.872 14.096L12.976 20.72H7.984L9.04 14.096L3.904 18.464L1.264 13.856L7.504 11.6L1.312 9.44L3.76 5.024L9.088 9.248L7.984 2.576H13.024L11.872 9.248L17.152 5.072ZM48.9558 4.496V9.92H40.0278V38H33.3078V9.92H24.3798V4.496H48.9558ZM57.2669 8.24C56.0829 8.24 55.0909 7.872 54.2909 7.136C53.5229 6.368 53.1389 5.424 53.1389 4.304C53.1389 3.184 53.5229 2.256 54.2909 1.52C55.0909 0.751998 56.0829 0.367998 57.2669 0.367998C58.4509 0.367998 59.4269 0.751998 60.1949 1.52C60.9949 2.256 61.3949 3.184 61.3949 4.304C61.3949 5.424 60.9949 6.368 60.1949 7.136C59.4269 7.872 58.4509 8.24 57.2669 8.24ZM60.5789 11.408V38H53.8589V11.408H60.5789ZM81.9543 11.024C85.1223 11.024 87.6823 12.032 89.6343 14.048C91.5863 16.032 92.5623 18.816 92.5623 22.4V38H85.8423V23.312C85.8423 21.2 85.3143 19.584 84.2583 18.464C83.2023 17.312 81.7623 16.736 79.9383 16.736C78.0823 16.736 76.6103 17.312 75.5223 18.464C74.4663 19.584 73.9383 21.2 73.9383 23.312V38H67.2183V11.408H73.9383V14.72C74.8343 13.568 75.9703 12.672 77.3463 12.032C78.7543 11.36 80.2903 11.024 81.9543 11.024ZM114.697 38L105.673 26.672V38H98.9526V2.48H105.673V22.688L114.601 11.408H123.337L111.625 24.752L123.433 38H114.697ZM133.704 2.48V38H126.984V2.48H133.704ZM165.063 24.128C165.063 25.088 164.999 25.952 164.871 26.72H145.431C145.591 28.64 146.263 30.144 147.447 31.232C148.631 32.32 150.087 32.864 151.815 32.864C154.311 32.864 156.087 31.792 157.143 29.648H164.391C163.623 32.208 162.151 34.32 159.975 35.984C157.799 37.616 155.127 38.432 151.959 38.432C149.399 38.432 147.095 37.872 145.047 36.752C143.031 35.6 141.447 33.984 140.295 31.904C139.175 29.824 138.615 27.424 138.615 24.704C138.615 21.952 139.175 19.536 140.295 17.456C141.415 15.376 142.983 13.776 144.999 12.656C147.015 11.536 149.335 10.976 151.959 10.976C154.487 10.976 156.743 11.52 158.727 12.608C160.743 13.696 162.295 15.248 163.383 17.264C164.503 19.248 165.063 21.536 165.063 24.128ZM158.103 22.208C158.071 20.48 157.447 19.104 156.231 18.08C155.015 17.024 153.527 16.496 151.767 16.496C150.103 16.496 148.695 17.008 147.543 18.032C146.423 19.024 145.735 20.416 145.479 22.208H158.103ZM8.032 104.672H19.072V110H1.312V76.496H8.032V104.672ZM48.0633 96.128C48.0633 97.088 47.9993 97.952 47.8713 98.72H28.4313C28.5913 100.64 29.2633 102.144 30.4473 103.232C31.6313 104.32 33.0873 104.864 34.8153 104.864C37.3113 104.864 39.0873 103.792 40.1433 101.648H47.3913C46.6233 104.208 45.1513 106.32 42.9753 107.984C40.7993 109.616 38.1273 110.432 34.9593 110.432C32.3993 110.432 30.0953 109.872 28.0473 108.752C26.0313 107.6 24.4473 105.984 23.2953 103.904C22.1753 101.824 21.6152 99.424 21.6152 96.704C21.6152 93.952 22.1753 91.536 23.2953 89.456C24.4153 87.376 25.9833 85.776 27.9993 84.656C30.0153 83.536 32.3353 82.976 34.9593 82.976C37.4873 82.976 39.7433 83.52 41.7273 84.608C43.7433 85.696 45.2953 87.248 46.3833 89.264C47.5033 91.248 48.0633 93.536 48.0633 96.128ZM41.1033 94.208C41.0713 92.48 40.4473 91.104 39.2313 90.08C38.0153 89.024 36.5273 88.496 34.7673 88.496C33.1033 88.496 31.6953 89.008 30.5433 90.032C29.4233 91.024 28.7353 92.416 28.4793 94.208H41.1033ZM60.7923 88.928V101.792C60.7923 102.688 61.0003 103.344 61.4163 103.76C61.8643 104.144 62.6003 104.336 63.6243 104.336H66.7443V110H62.5203C56.8563 110 54.0243 107.248 54.0243 101.744V88.928H50.8563V83.408H54.0243V76.832H60.7923V83.408H66.7443V88.928H60.7923ZM72.9216 76.496H79.9776L74.7936 88.592H70.1856L72.9216 76.496ZM94.9724 110.432C92.7964 110.432 90.8444 110.048 89.1164 109.28C87.3884 108.48 86.0124 107.408 84.9884 106.064C83.9964 104.72 83.4524 103.232 83.3564 101.6H90.1244C90.2524 102.624 90.7484 103.472 91.6124 104.144C92.5084 104.816 93.6124 105.152 94.9244 105.152C96.2044 105.152 97.1964 104.896 97.9004 104.384C98.6364 103.872 99.0044 103.216 99.0044 102.416C99.0044 101.552 98.5564 100.912 97.6604 100.496C96.7964 100.048 95.4044 99.568 93.4844 99.056C91.5004 98.576 89.8684 98.08 88.5884 97.568C87.3404 97.056 86.2524 96.272 85.3244 95.216C84.4284 94.16 83.9804 92.736 83.9804 90.944C83.9804 89.472 84.3964 88.128 85.2284 86.912C86.0924 85.696 87.3084 84.736 88.8764 84.032C90.4764 83.328 92.3484 82.976 94.4924 82.976C97.6604 82.976 100.188 83.776 102.076 85.376C103.964 86.944 105.004 89.072 105.196 91.76H98.7644C98.6684 90.704 98.2204 89.872 97.4204 89.264C96.6524 88.624 95.6124 88.304 94.3004 88.304C93.0844 88.304 92.1404 88.528 91.4684 88.976C90.8284 89.424 90.5084 90.048 90.5084 90.848C90.5084 91.744 90.9564 92.432 91.8524 92.912C92.7484 93.36 94.1404 93.824 96.0284 94.304C97.9484 94.784 99.5324 95.28 100.78 95.792C102.028 96.304 103.1 97.104 103.996 98.192C104.924 99.248 105.404 100.656 105.436 102.416C105.436 103.952 105.004 105.328 104.14 106.544C103.308 107.76 102.092 108.72 100.492 109.424C98.9244 110.096 97.0844 110.432 94.9724 110.432ZM132.566 110.432C130.39 110.432 128.438 110.048 126.71 109.28C124.982 108.48 123.606 107.408 122.582 106.064C121.59 104.72 121.046 103.232 120.95 101.6H127.718C127.846 102.624 128.342 103.472 129.206 104.144C130.102 104.816 131.206 105.152 132.518 105.152C133.798 105.152 134.79 104.896 135.494 104.384C136.23 103.872 136.598 103.216 136.598 102.416C136.598 101.552 136.15 100.912 135.254 100.496C134.39 100.048 132.998 99.568 131.078 99.056C129.094 98.576 127.462 98.08 126.182 97.568C124.934 97.056 123.846 96.272 122.918 95.216C122.022 94.16 121.574 92.736 121.574 90.944C121.574 89.472 121.99 88.128 122.822 86.912C123.686 85.696 124.902 84.736 126.47 84.032C128.07 83.328 129.942 82.976 132.086 82.976C135.254 82.976 137.782 83.776 139.67 85.376C141.558 86.944 142.598 89.072 142.79 91.76H136.358C136.262 90.704 135.814 89.872 135.014 89.264C134.246 88.624 133.206 88.304 131.894 88.304C130.678 88.304 129.734 88.528 129.062 88.976C128.422 89.424 128.102 90.048 128.102 90.848C128.102 91.744 128.55 92.432 129.446 92.912C130.342 93.36 131.734 93.824 133.622 94.304C135.542 94.784 137.126 95.28 138.374 95.792C139.622 96.304 140.694 97.104 141.59 98.192C142.518 99.248 142.998 100.656 143.03 102.416C143.03 103.952 142.598 105.328 141.734 106.544C140.902 107.76 139.686 108.72 138.086 109.424C136.518 110.096 134.678 110.432 132.566 110.432ZM173.266 96.128C173.266 97.088 173.202 97.952 173.074 98.72H153.634C153.794 100.64 154.466 102.144 155.65 103.232C156.834 104.32 158.29 104.864 160.018 104.864C162.514 104.864 164.29 103.792 165.346 101.648H172.594C171.826 104.208 170.354 106.32 168.178 107.984C166.002 109.616 163.33 110.432 160.162 110.432C157.602 110.432 155.298 109.872 153.25 108.752C151.234 107.6 149.65 105.984 148.498 103.904C147.378 101.824 146.818 99.424 146.818 96.704C146.818 93.952 147.378 91.536 148.498 89.456C149.618 87.376 151.186 85.776 153.202 84.656C155.218 83.536 157.538 82.976 160.162 82.976C162.69 82.976 164.946 83.52 166.93 84.608C168.946 85.696 170.498 87.248 171.586 89.264C172.706 91.248 173.266 93.536 173.266 96.128ZM166.306 94.208C166.274 92.48 165.65 91.104 164.434 90.08C163.218 89.024 161.73 88.496 159.97 88.496C158.306 88.496 156.898 89.008 155.746 90.032C154.626 91.024 153.938 92.416 153.682 94.208H166.306ZM202.891 96.128C202.891 97.088 202.827 97.952 202.699 98.72H183.259C183.419 100.64 184.091 102.144 185.275 103.232C186.459 104.32 187.915 104.864 189.643 104.864C192.139 104.864 193.915 103.792 194.971 101.648H202.219C201.451 104.208 199.979 106.32 197.803 107.984C195.627 109.616 192.955 110.432 189.787 110.432C187.227 110.432 184.923 109.872 182.875 108.752C180.859 107.6 179.275 105.984 178.123 103.904C177.003 101.824 176.443 99.424 176.443 96.704C176.443 93.952 177.003 91.536 178.123 89.456C179.243 87.376 180.811 85.776 182.827 84.656C184.843 83.536 187.163 82.976 189.787 82.976C192.315 82.976 194.571 83.52 196.555 84.608C198.571 85.696 200.123 87.248 201.211 89.264C202.331 91.248 202.891 93.536 202.891 96.128ZM195.931 94.208C195.899 92.48 195.275 91.104 194.059 90.08C192.843 89.024 191.355 88.496 189.595 88.496C187.931 88.496 186.523 89.008 185.371 90.032C184.251 91.024 183.563 92.416 183.307 94.208H195.931ZM256.098 83.408L248.322 110H241.074L236.226 91.424L231.378 110H224.082L216.258 83.408H223.074L227.778 103.664L232.866 83.408H239.97L244.962 103.616L249.666 83.408H256.098ZM274.71 83.024C276.726 83.024 278.518 83.472 280.086 84.368C281.654 85.232 282.87 86.528 283.734 88.256C284.63 89.952 285.078 92 285.078 94.4V110H278.358V95.312C278.358 93.2 277.83 91.584 276.774 90.464C275.718 89.312 274.278 88.736 272.454 88.736C270.598 88.736 269.126 89.312 268.038 90.464C266.982 91.584 266.454 93.2 266.454 95.312V110H259.734V74.48H266.454V86.72C267.318 85.568 268.47 84.672 269.91 84.032C271.35 83.36 272.95 83.024 274.71 83.024ZM289.74 96.608C289.74 93.92 290.268 91.536 291.324 89.456C292.412 87.376 293.868 85.776 295.692 84.656C297.548 83.536 299.612 82.976 301.884 82.976C303.868 82.976 305.596 83.376 307.068 84.176C308.572 84.976 309.772 85.984 310.668 87.2V83.408H317.436V110H310.668V106.112C309.804 107.36 308.604 108.4 307.068 109.232C305.564 110.032 303.82 110.432 301.836 110.432C299.596 110.432 297.548 109.856 295.692 108.704C293.868 107.552 292.412 105.936 291.324 103.856C290.268 101.744 289.74 99.328 289.74 96.608ZM310.668 96.704C310.668 95.072 310.348 93.68 309.708 92.528C309.068 91.344 308.204 90.448 307.116 89.84C306.028 89.2 304.86 88.88 303.612 88.88C302.364 88.88 301.212 89.184 300.156 89.792C299.1 90.4 298.236 91.296 297.564 92.48C296.924 93.632 296.604 95.008 296.604 96.608C296.604 98.208 296.924 99.616 297.564 100.832C298.236 102.016 299.1 102.928 300.156 103.568C301.244 104.208 302.396 104.528 303.612 104.528C304.86 104.528 306.028 104.224 307.116 103.616C308.204 102.976 309.068 102.08 309.708 100.928C310.348 99.744 310.668 98.336 310.668 96.704ZM331.824 88.928V101.792C331.824 102.688 332.032 103.344 332.448 103.76C332.896 104.144 333.632 104.336 334.656 104.336H337.776V110H333.552C327.888 110 325.056 107.248 325.056 101.744V88.928H321.888V83.408H325.056V76.832H331.824V83.408H337.776V88.928H331.824ZM379.486 83.408L363.022 122.576H355.87L361.63 109.328L350.974 83.408H358.51L365.374 101.984L372.334 83.408H379.486ZM394.917 110.432C392.357 110.432 390.053 109.872 388.005 108.752C385.957 107.6 384.341 105.984 383.157 103.904C382.005 101.824 381.429 99.424 381.429 96.704C381.429 93.984 382.021 91.584 383.205 89.504C384.421 87.424 386.069 85.824 388.149 84.704C390.229 83.552 392.549 82.976 395.109 82.976C397.669 82.976 399.989 83.552 402.069 84.704C404.149 85.824 405.781 87.424 406.965 89.504C408.181 91.584 408.789 93.984 408.789 96.704C408.789 99.424 408.165 101.824 406.917 103.904C405.701 105.984 404.037 107.6 401.925 108.752C399.845 109.872 397.509 110.432 394.917 110.432ZM394.917 104.576C396.133 104.576 397.269 104.288 398.325 103.712C399.413 103.104 400.277 102.208 400.917 101.024C401.557 99.84 401.877 98.4 401.877 96.704C401.877 94.176 401.205 92.24 399.861 90.896C398.549 89.52 396.933 88.832 395.013 88.832C393.093 88.832 391.477 89.52 390.165 90.896C388.885 92.24 388.245 94.176 388.245 96.704C388.245 99.232 388.869 101.184 390.117 102.56C391.397 103.904 392.997 104.576 394.917 104.576ZM438.822 83.408V110H432.054V106.64C431.19 107.792 430.054 108.704 428.646 109.376C427.27 110.016 425.766 110.336 424.134 110.336C422.054 110.336 420.214 109.904 418.614 109.04C417.014 108.144 415.75 106.848 414.822 105.152C413.926 103.424 413.478 101.376 413.478 99.008V83.408H420.198V98.048C420.198 100.16 420.726 101.792 421.782 102.944C422.838 104.064 424.278 104.624 426.102 104.624C427.958 104.624 429.414 104.064 430.47 102.944C431.526 101.792 432.054 100.16 432.054 98.048V83.408H438.822ZM471.866 83.024C473.882 83.024 475.674 83.472 477.242 84.368C478.81 85.232 480.026 86.528 480.89 88.256C481.786 89.952 482.234 92 482.234 94.4V110H475.514V95.312C475.514 93.2 474.986 91.584 473.93 90.464C472.874 89.312 471.434 88.736 469.61 88.736C467.754 88.736 466.282 89.312 465.194 90.464C464.138 91.584 463.61 93.2 463.61 95.312V110H456.89V74.48H463.61V86.72C464.474 85.568 465.626 84.672 467.066 84.032C468.506 83.36 470.106 83.024 471.866 83.024ZM486.896 96.608C486.896 93.92 487.424 91.536 488.48 89.456C489.569 87.376 491.025 85.776 492.849 84.656C494.705 83.536 496.769 82.976 499.041 82.976C501.025 82.976 502.753 83.376 504.225 84.176C505.729 84.976 506.929 85.984 507.825 87.2V83.408H514.593V110H507.825V106.112C506.961 107.36 505.761 108.4 504.225 109.232C502.721 110.032 500.977 110.432 498.993 110.432C496.753 110.432 494.705 109.856 492.849 108.704C491.025 107.552 489.569 105.936 488.48 103.856C487.424 101.744 486.896 99.328 486.896 96.608ZM507.825 96.704C507.825 95.072 507.505 93.68 506.865 92.528C506.225 91.344 505.361 90.448 504.273 89.84C503.185 89.2 502.017 88.88 500.769 88.88C499.521 88.88 498.369 89.184 497.312 89.792C496.257 90.4 495.393 91.296 494.721 92.48C494.081 93.632 493.761 95.008 493.761 96.608C493.761 98.208 494.081 99.616 494.721 100.832C495.393 102.016 496.257 102.928 497.312 103.568C498.401 104.208 499.553 104.528 500.769 104.528C502.017 104.528 503.185 104.224 504.273 103.616C505.361 102.976 506.225 102.08 506.865 100.928C507.505 99.744 507.825 98.336 507.825 96.704ZM532.244 103.808L538.964 83.408H546.116L536.276 110H528.116L518.324 83.408H525.524L532.244 103.808ZM574.61 96.128C574.61 97.088 574.546 97.952 574.418 98.72H554.978C555.138 100.64 555.81 102.144 556.994 103.232C558.178 104.32 559.634 104.864 561.362 104.864C563.858 104.864 565.634 103.792 566.69 101.648H573.938C573.17 104.208 571.698 106.32 569.522 107.984C567.346 109.616 564.674 110.432 561.506 110.432C558.946 110.432 556.642 109.872 554.594 108.752C552.578 107.6 550.994 105.984 549.842 103.904C548.722 101.824 548.162 99.424 548.162 96.704C548.162 93.952 548.722 91.536 549.842 89.456C550.962 87.376 552.53 85.776 554.546 84.656C556.562 83.536 558.882 82.976 561.506 82.976C564.034 82.976 566.29 83.52 568.274 84.608C570.29 85.696 571.842 87.248 572.93 89.264C574.05 91.248 574.61 93.536 574.61 96.128ZM567.65 94.208C567.618 92.48 566.994 91.104 565.778 90.08C564.562 89.024 563.074 88.496 561.314 88.496C559.65 88.496 558.242 89.008 557.09 90.032C555.97 91.024 555.282 92.416 555.026 94.208H567.65ZM4.72 152.24C3.536 152.24 2.544 151.872 1.744 151.136C0.976 150.368 0.592 149.424 0.592 148.304C0.592 147.184 0.976 146.256 1.744 145.52C2.544 144.752 3.536 144.368 4.72 144.368C5.904 144.368 6.88 144.752 7.648 145.52C8.448 146.256 8.848 147.184 8.848 148.304C8.848 149.424 8.448 150.368 7.648 151.136C6.88 151.872 5.904 152.24 4.72 152.24ZM8.032 155.408V182H1.312V155.408H8.032ZM29.4074 155.024C32.5754 155.024 35.1354 156.032 37.0874 158.048C39.0394 160.032 40.0154 162.816 40.0154 166.4V182H33.2954V167.312C33.2954 165.2 32.7674 163.584 31.7114 162.464C30.6554 161.312 29.2154 160.736 27.3914 160.736C25.5354 160.736 24.0634 161.312 22.9754 162.464C21.9194 163.584 21.3914 165.2 21.3914 167.312V182H14.6714V155.408H21.3914V158.72C22.2874 157.568 23.4234 156.672 24.7994 156.032C26.2074 155.36 27.7434 155.024 29.4074 155.024ZM83.2833 155.408L66.8193 194.576H59.6673L65.4273 181.328L54.7713 155.408H62.3073L69.1713 173.984L76.1313 155.408H83.2833ZM98.7138 182.432C96.1538 182.432 93.8498 181.872 91.8018 180.752C89.7538 179.6 88.1378 177.984 86.9538 175.904C85.8018 173.824 85.2258 171.424 85.2258 168.704C85.2258 165.984 85.8178 163.584 87.0018 161.504C88.2178 159.424 89.8658 157.824 91.9458 156.704C94.0258 155.552 96.3458 154.976 98.9058 154.976C101.466 154.976 103.786 155.552 105.866 156.704C107.946 157.824 109.578 159.424 110.762 161.504C111.978 163.584 112.586 165.984 112.586 168.704C112.586 171.424 111.962 173.824 110.714 175.904C109.498 177.984 107.834 179.6 105.722 180.752C103.642 181.872 101.306 182.432 98.7138 182.432ZM98.7138 176.576C99.9298 176.576 101.066 176.288 102.122 175.712C103.21 175.104 104.074 174.208 104.714 173.024C105.354 171.84 105.674 170.4 105.674 168.704C105.674 166.176 105.002 164.24 103.658 162.896C102.346 161.52 100.73 160.832 98.8098 160.832C96.8898 160.832 95.2738 161.52 93.9618 162.896C92.6818 164.24 92.0418 166.176 92.0418 168.704C92.0418 171.232 92.6658 173.184 93.9138 174.56C95.1938 175.904 96.7938 176.576 98.7138 176.576ZM142.619 155.408V182H135.851V178.64C134.987 179.792 133.851 180.704 132.443 181.376C131.067 182.016 129.563 182.336 127.931 182.336C125.851 182.336 124.011 181.904 122.411 181.04C120.811 180.144 119.547 178.848 118.619 177.152C117.723 175.424 117.275 173.376 117.275 171.008V155.408H123.995V170.048C123.995 172.16 124.523 173.792 125.579 174.944C126.635 176.064 128.075 176.624 129.899 176.624C131.755 176.624 133.211 176.064 134.267 174.944C135.323 173.792 135.851 172.16 135.851 170.048V155.408H142.619ZM155.97 159.536C156.834 158.128 157.954 157.024 159.33 156.224C160.738 155.424 162.338 155.024 164.13 155.024V162.08H162.354C160.242 162.08 158.642 162.576 157.554 163.568C156.498 164.56 155.97 166.288 155.97 168.752V182H149.25V155.408H155.97V159.536ZM186.813 159.248C187.677 158.032 188.861 157.024 190.365 156.224C191.901 155.392 193.645 154.976 195.597 154.976C197.869 154.976 199.917 155.536 201.741 156.656C203.597 157.776 205.053 159.376 206.109 161.456C207.197 163.504 207.741 165.888 207.741 168.608C207.741 171.328 207.197 173.744 206.109 175.856C205.053 177.936 203.597 179.552 201.741 180.704C199.917 181.856 197.869 182.432 195.597 182.432C193.645 182.432 191.917 182.032 190.413 181.232C188.941 180.432 187.741 179.424 186.813 178.208V194.672H180.093V155.408H186.813V159.248ZM200.877 168.608C200.877 167.008 200.541 165.632 199.869 164.48C199.229 163.296 198.365 162.4 197.277 161.792C196.221 161.184 195.069 160.88 193.821 160.88C192.605 160.88 191.453 161.2 190.365 161.84C189.309 162.448 188.445 163.344 187.773 164.528C187.133 165.712 186.813 167.104 186.813 168.704C186.813 170.304 187.133 171.696 187.773 172.88C188.445 174.064 189.309 174.976 190.365 175.616C191.453 176.224 192.605 176.528 193.821 176.528C195.069 176.528 196.221 176.208 197.277 175.568C198.365 174.928 199.229 174.016 199.869 172.832C200.541 171.648 200.877 170.24 200.877 168.608ZM210.896 168.608C210.896 165.92 211.424 163.536 212.48 161.456C213.569 159.376 215.025 157.776 216.849 156.656C218.705 155.536 220.769 154.976 223.041 154.976C225.025 154.976 226.753 155.376 228.225 156.176C229.729 156.976 230.929 157.984 231.825 159.2V155.408H238.593V182H231.825V178.112C230.961 179.36 229.761 180.4 228.225 181.232C226.721 182.032 224.977 182.432 222.993 182.432C220.753 182.432 218.705 181.856 216.849 180.704C215.025 179.552 213.569 177.936 212.48 175.856C211.424 173.744 210.896 171.328 210.896 168.608ZM231.825 168.704C231.825 167.072 231.505 165.68 230.865 164.528C230.225 163.344 229.361 162.448 228.273 161.84C227.185 161.2 226.017 160.88 224.769 160.88C223.521 160.88 222.369 161.184 221.312 161.792C220.257 162.4 219.393 163.296 218.721 164.48C218.081 165.632 217.761 167.008 217.761 168.608C217.761 170.208 218.081 171.616 218.721 172.832C219.393 174.016 220.257 174.928 221.312 175.568C222.401 176.208 223.553 176.528 224.769 176.528C226.017 176.528 227.185 176.224 228.273 175.616C229.361 174.976 230.225 174.08 230.865 172.928C231.505 171.744 231.825 170.336 231.825 168.704ZM259.892 155.024C263.06 155.024 265.62 156.032 267.572 158.048C269.524 160.032 270.5 162.816 270.5 166.4V182H263.78V167.312C263.78 165.2 263.252 163.584 262.196 162.464C261.14 161.312 259.7 160.736 257.876 160.736C256.02 160.736 254.548 161.312 253.46 162.464C252.404 163.584 251.876 165.2 251.876 167.312V182H245.156V155.408H251.876V158.72C252.772 157.568 253.908 156.672 255.284 156.032C256.692 155.36 258.228 155.024 259.892 155.024ZM284.714 160.928V173.792C284.714 174.688 284.922 175.344 285.338 175.76C285.786 176.144 286.522 176.336 287.546 176.336H290.666V182H286.442C280.778 182 277.946 179.248 277.946 173.744V160.928H274.778V155.408H277.946V148.832H284.714V155.408H290.666V160.928H284.714ZM302.22 159.536C303.084 158.128 304.204 157.024 305.58 156.224C306.988 155.424 308.588 155.024 310.38 155.024V162.08H308.604C306.492 162.08 304.892 162.576 303.804 163.568C302.748 164.56 302.22 166.288 302.22 168.752V182H295.5V155.408H302.22V159.536ZM340.346 155.408L323.882 194.576H316.73L322.49 181.328L311.834 155.408H319.37L326.234 173.984L333.194 155.408H340.346ZM352.656 147.92L351.888 171.104H346.224L345.408 147.92H352.656ZM349.2 182.336C347.984 182.336 346.976 181.968 346.176 181.232C345.408 180.464 345.024 179.52 345.024 178.4C345.024 177.28 345.408 176.352 346.176 175.616C346.976 174.848 347.984 174.464 349.2 174.464C350.384 174.464 351.36 174.848 352.128 175.616C352.896 176.352 353.28 177.28 353.28 178.4C353.28 179.52 352.896 180.464 352.128 181.232C351.36 181.968 350.384 182.336 349.2 182.336Z" fill="black"/>
</svg>
