<svg width="87" height="11" viewBox="0 0 87 11" fill="none" xmlns="http://www.w3.org/2000/svg">
<path d="M4.172 10.8124C3.528 10.8124 2.94933 10.7004 2.436 10.4764C1.932 10.243 1.53533 9.92569 1.246 9.52436C0.956667 9.11369 0.807333 8.64236 0.798 8.11036H2.156C2.20267 8.56769 2.38933 8.95502 2.716 9.27236C3.052 9.58036 3.53733 9.73436 4.172 9.73436C4.77867 9.73436 5.25467 9.58502 5.6 9.28636C5.95467 8.97836 6.132 8.58636 6.132 8.11036C6.132 7.73702 6.02933 7.43369 5.824 7.20036C5.61867 6.96702 5.362 6.78969 5.054 6.66836C4.746 6.54702 4.33067 6.41636 3.808 6.27636C3.164 6.10836 2.646 5.94036 2.254 5.77236C1.87133 5.60436 1.54 5.34302 1.26 4.98836C0.989333 4.62436 0.854 4.13902 0.854 3.53236C0.854 3.00035 0.989333 2.52902 1.26 2.11836C1.53067 1.70769 1.90867 1.39035 2.394 1.16635C2.88867 0.942355 3.45333 0.830355 4.088 0.830355C5.00267 0.830355 5.74933 1.05902 6.328 1.51636C6.916 1.97369 7.24733 2.58036 7.322 3.33636H5.922C5.87533 2.96302 5.67933 2.63636 5.334 2.35636C4.98867 2.06702 4.53133 1.92236 3.962 1.92236C3.43 1.92236 2.996 2.06236 2.66 2.34235C2.324 2.61302 2.156 2.99569 2.156 3.49036C2.156 3.84502 2.254 4.13436 2.45 4.35836C2.65533 4.58236 2.90267 4.75502 3.192 4.87636C3.49067 4.98836 3.906 5.11902 4.438 5.26836C5.082 5.44569 5.6 5.62302 5.992 5.80036C6.384 5.96836 6.72 6.23436 7 6.59836C7.28 6.95302 7.42 7.43836 7.42 8.05436C7.42 8.53036 7.294 8.97836 7.042 9.39836C6.79 9.81836 6.41667 10.159 5.922 10.4204C5.42733 10.6817 4.844 10.8124 4.172 10.8124ZM18.5208 2.90236C19.1181 2.90236 19.6501 3.02836 20.1168 3.28036C20.5835 3.52302 20.9521 3.89169 21.2228 4.38636C21.4935 4.88102 21.6288 5.48302 21.6288 6.19236V10.7144H20.3688V6.37436C20.3688 5.60902 20.1775 5.02569 19.7948 4.62436C19.4215 4.21369 18.9128 4.00836 18.2688 4.00836C17.6061 4.00836 17.0788 4.22302 16.6868 4.65236C16.2948 5.07236 16.0988 5.68369 16.0988 6.48636V10.7144H14.8388V6.37436C14.8388 5.60902 14.6475 5.02569 14.2648 4.62436C13.8915 4.21369 13.3828 4.00836 12.7388 4.00836C12.0761 4.00836 11.5488 4.22302 11.1568 4.65236C10.7648 5.07236 10.5688 5.68369 10.5688 6.48636V10.7144H9.2948V3.04235H10.5688V4.14836C10.8208 3.74702 11.1568 3.43902 11.5768 3.22436C12.0061 3.00969 12.4775 2.90236 12.9908 2.90236C13.6348 2.90236 14.2041 3.04702 14.6988 3.33636C15.1935 3.62569 15.5621 4.05036 15.8048 4.61036C16.0195 4.06902 16.3741 3.64902 16.8688 3.35036C17.3635 3.05169 17.9141 2.90236 18.5208 2.90236ZM23.2426 6.85036C23.2426 6.06636 23.4013 5.38036 23.7186 4.79236C24.036 4.19502 24.47 3.73302 25.0206 3.40636C25.5806 3.07969 26.2013 2.91635 26.8826 2.91635C27.5546 2.91635 28.138 3.06102 28.6326 3.35036C29.1273 3.63969 29.496 4.00369 29.7386 4.44236V3.04235H31.0266V10.7144H29.7386V9.28636C29.4866 9.73436 29.1086 10.1077 28.6046 10.4064C28.11 10.6957 27.5313 10.8404 26.8686 10.8404C26.1873 10.8404 25.5713 10.6724 25.0206 10.3364C24.47 10.0004 24.036 9.52902 23.7186 8.92236C23.4013 8.31569 23.2426 7.62502 23.2426 6.85036ZM29.7386 6.86436C29.7386 6.28569 29.622 5.78169 29.3886 5.35236C29.1553 4.92302 28.838 4.59636 28.4366 4.37236C28.0446 4.13902 27.6106 4.02236 27.1346 4.02236C26.6586 4.02236 26.2246 4.13436 25.8326 4.35836C25.4406 4.58236 25.128 4.90902 24.8946 5.33836C24.6613 5.76769 24.5446 6.27169 24.5446 6.85036C24.5446 7.43836 24.6613 7.95169 24.8946 8.39036C25.128 8.81969 25.4406 9.15102 25.8326 9.38436C26.2246 9.60836 26.6586 9.72036 27.1346 9.72036C27.6106 9.72036 28.0446 9.60836 28.4366 9.38436C28.838 9.15102 29.1553 8.81969 29.3886 8.39036C29.622 7.95169 29.7386 7.44302 29.7386 6.86436ZM34.4536 4.28836C34.6776 3.84969 34.9949 3.50902 35.4056 3.26636C35.8256 3.02369 36.3342 2.90236 36.9316 2.90236V4.21836H36.5956C35.1676 4.21836 34.4536 4.99302 34.4536 6.54236V10.7144H33.1796V3.04235H34.4536V4.28836ZM39.9562 4.09236V8.61436C39.9562 8.98769 40.0356 9.25369 40.1942 9.41236C40.3529 9.56169 40.6282 9.63636 41.0202 9.63636H41.9582V10.7144H40.8102C40.1009 10.7144 39.5689 10.551 39.2142 10.2244C38.8596 9.89769 38.6822 9.36102 38.6822 8.61436V4.09236H37.6882V3.04235H38.6822V1.11035H39.9562V3.04235H41.9582V4.09236H39.9562ZM56.4603 2.90236C57.0576 2.90236 57.5896 3.02836 58.0563 3.28036C58.5229 3.52302 58.8916 3.89169 59.1623 4.38636C59.4329 4.88102 59.5683 5.48302 59.5683 6.19236V10.7144H58.3083V6.37436C58.3083 5.60902 58.1169 5.02569 57.7343 4.62436C57.3609 4.21369 56.8523 4.00836 56.2083 4.00836C55.5456 4.00836 55.0183 4.22302 54.6263 4.65236C54.2343 5.07236 54.0383 5.68369 54.0383 6.48636V10.7144H52.7783V6.37436C52.7783 5.60902 52.5869 5.02569 52.2043 4.62436C51.8309 4.21369 51.3223 4.00836 50.6783 4.00836C50.0156 4.00836 49.4883 4.22302 49.0963 4.65236C48.7043 5.07236 48.5083 5.68369 48.5083 6.48636V10.7144H47.2343V3.04235H48.5083V4.14836C48.7603 3.74702 49.0963 3.43902 49.5163 3.22436C49.9456 3.00969 50.4169 2.90236 50.9303 2.90236C51.5743 2.90236 52.1436 3.04702 52.6383 3.33636C53.1329 3.62569 53.5016 4.05036 53.7443 4.61036C53.9589 4.06902 54.3136 3.64902 54.8083 3.35036C55.3029 3.05169 55.8536 2.90236 56.4603 2.90236ZM68.6581 6.58436C68.6581 6.82702 68.6441 7.08369 68.6161 7.35436H62.4841C62.5307 8.11036 62.7874 8.70302 63.2541 9.13236C63.7301 9.55236 64.3041 9.76236 64.9761 9.76236C65.5267 9.76236 65.9841 9.63636 66.3481 9.38436C66.7214 9.12302 66.9827 8.77769 67.1321 8.34836H68.5041C68.2987 9.08569 67.8881 9.68769 67.2721 10.1544C66.6561 10.6117 65.8907 10.8404 64.9761 10.8404C64.2481 10.8404 63.5947 10.677 63.0161 10.3504C62.4467 10.0237 61.9987 9.56169 61.6721 8.96436C61.3454 8.35769 61.1821 7.65769 61.1821 6.86436C61.1821 6.07102 61.3407 5.37569 61.6581 4.77836C61.9754 4.18102 62.4187 3.72369 62.9881 3.40636C63.5667 3.07969 64.2294 2.91635 64.9761 2.91635C65.7041 2.91635 66.3481 3.07502 66.9081 3.39236C67.4681 3.70969 67.8974 4.14836 68.1961 4.70836C68.5041 5.25902 68.6581 5.88436 68.6581 6.58436ZM67.3421 6.31836C67.3421 5.83302 67.2347 5.41769 67.0201 5.07236C66.8054 4.71769 66.5114 4.45169 66.1381 4.27436C65.7741 4.08769 65.3681 3.99436 64.9201 3.99436C64.2761 3.99436 63.7254 4.19969 63.2681 4.61036C62.8201 5.02102 62.5634 5.59036 62.4981 6.31836H67.3421ZM74.0777 2.90236C75.0111 2.90236 75.7671 3.18702 76.3457 3.75636C76.9244 4.31636 77.2137 5.12836 77.2137 6.19236V10.7144H75.9537V6.37436C75.9537 5.60902 75.7624 5.02569 75.3797 4.62436C74.9971 4.21369 74.4744 4.00836 73.8117 4.00836C73.1397 4.00836 72.6031 4.21836 72.2017 4.63836C71.8097 5.05836 71.6137 5.66969 71.6137 6.47236V10.7144H70.3397V3.04235H71.6137V4.13436C71.8657 3.74236 72.2064 3.43902 72.6357 3.22436C73.0744 3.00969 73.5551 2.90236 74.0777 2.90236ZM86.0988 3.04235V10.7144H84.8248V9.58036C84.5821 9.97236 84.2415 10.2804 83.8028 10.5044C83.3735 10.719 82.8975 10.8264 82.3748 10.8264C81.7775 10.8264 81.2408 10.705 80.7648 10.4624C80.2888 10.2104 79.9108 9.83702 79.6308 9.34236C79.3601 8.84769 79.2248 8.24569 79.2248 7.53636V3.04235H80.4848V7.36836C80.4848 8.12436 80.6761 8.70769 81.0588 9.11836C81.4415 9.51969 81.9641 9.72036 82.6268 9.72036C83.3081 9.72036 83.8448 9.51036 84.2368 9.09036C84.6288 8.67036 84.8248 8.05902 84.8248 7.25636V3.04235H86.0988Z" fill="#333333"/>
</svg>
